<svg xmlns="http://www.w3.org/2000/svg" width="10" height="5" fill="none"><path fill="#fff" d="M.148 4.868a.45.45 0 0 1-.11-.144.4.4 0 0 1 0-.342.45.45 0 0 1 .11-.145L2.112 2.5.148.762A.42.42 0 0 1 0 .446C0 .328.053.214.148.131A.54.54 0 0 1 .505 0a.54.54 0 0 1 .357.13l2.323 2.056q.07.063.11.145a.4.4 0 0 1 0 .342.45.45 0 0 1-.11.145L.862 4.873a.56.56 0 0 1-.714-.005"/><path fill="#A8C7EC" d="M3.481 4.868a.45.45 0 0 1-.11-.144.4.4 0 0 1 0-.342.45.45 0 0 1 .11-.145L5.445 2.5 3.481.762a.42.42 0 0 1-.148-.316c0-.118.053-.232.148-.315A.54.54 0 0 1 3.838 0a.54.54 0 0 1 .357.13l2.323 2.056q.07.063.11.145a.4.4 0 0 1 0 .342.45.45 0 0 1-.11.145L4.195 4.873a.56.56 0 0 1-.714-.005"/><path fill="#B4D6FB" d="M6.815 4.868a.45.45 0 0 1-.11-.144.4.4 0 0 1 0-.342.45.45 0 0 1 .11-.145L8.779 2.5 6.815.762a.42.42 0 0 1-.148-.316c0-.118.053-.232.148-.315A.54.54 0 0 1 7.172 0a.54.54 0 0 1 .357.13l2.323 2.056q.07.063.11.145a.4.4 0 0 1 0 .342.45.45 0 0 1-.11.145L7.53 4.873a.56.56 0 0 1-.714-.005"/></svg>