<svg width="10" height="5" fill="none" xmlns="http://www.w3.org/2000/svg"><path d="M.148 4.868a.447.447 0 0 1-.11-.144.402.402 0 0 1 0-.342.447.447 0 0 1 .11-.145L2.112 2.5.148.762A.422.422 0 0 1 0 .446C0 .328.053.214.148.131A.54.54 0 0 1 .505 0a.54.54 0 0 1 .357.13l2.323 2.056c.047.042.084.09.11.145a.402.402 0 0 1 0 .342.447.447 0 0 1-.11.145L.862 4.873a.557.557 0 0 1-.714-.005Z" fill="#fff"/><path d="M3.481 4.868a.447.447 0 0 1-.11-.144.402.402 0 0 1 0-.342.447.447 0 0 1 .11-.145L5.445 2.5 3.481.762a.422.422 0 0 1-.148-.316c0-.118.053-.232.148-.315A.54.54 0 0 1 3.838 0a.54.54 0 0 1 .357.13l2.323 2.056c.047.042.084.09.11.145a.402.402 0 0 1 0 .342.447.447 0 0 1-.11.145L4.195 4.873a.557.557 0 0 1-.714-.005Z" fill="#A8C7EC"/><path d="M6.815 4.868a.447.447 0 0 1-.11-.144.402.402 0 0 1 0-.342.447.447 0 0 1 .11-.145L8.779 2.5 6.815.762a.422.422 0 0 1-.148-.316c0-.118.053-.232.148-.315A.54.54 0 0 1 7.172 0a.54.54 0 0 1 .357.13l2.323 2.056c.047.042.084.09.11.145a.402.402 0 0 1 0 .342.447.447 0 0 1-.11.145L7.53 4.873a.557.557 0 0 1-.714-.005Z" fill="#B4D6FB"/></svg>