<svg xmlns="http://www.w3.org/2000/svg" width="17" height="5" fill="none"><path fill="#fff" d="M2.125 4.227q-.823 0-1.413-.575a1.9 1.9 0 0 1-.575-1.413A1.85 1.85 0 0 1 .712.854 1.95 1.95 0 0 1 2.125.278q.781 0 1.378.576.604.575.611 1.385-.008.553-.291 1.008a2.14 2.14 0 0 1-.725.717 1.9 1.9 0 0 1-.973.263M8.375 4.227q-.824 0-1.413-.575a1.9 1.9 0 0 1-.575-1.413A1.85 1.85 0 0 1 6.962.854 1.95 1.95 0 0 1 8.375.278q.781 0 1.378.576.604.575.611 1.385-.008.553-.291 1.008a2.14 2.14 0 0 1-.725.717 1.9 1.9 0 0 1-.973.263M14.625 4.227q-.823 0-1.413-.575a1.9 1.9 0 0 1-.575-1.413 1.85 1.85 0 0 1 .575-1.385 1.95 1.95 0 0 1 1.413-.576q.781 0 1.378.576.604.575.611 1.385-.008.553-.291 1.008a2.14 2.14 0 0 1-.725.717 1.9 1.9 0 0 1-.973.263"/></svg>