<svg width="17" height="5" fill="none" xmlns="http://www.w3.org/2000/svg"><path d="M2.125 4.227c-.549 0-1.02-.192-1.413-.575a1.9 1.9 0 0 1-.575-1.413A1.852 1.852 0 0 1 .712.854 1.952 1.952 0 0 1 2.125.278c.521 0 .98.192 1.378.576.403.383.606.845.611 1.385-.005.369-.102.705-.291 1.008a2.142 2.142 0 0 1-.725.717 1.887 1.887 0 0 1-.973.263ZM8.375 4.227c-.549 0-1.02-.192-1.413-.575a1.9 1.9 0 0 1-.575-1.413A1.852 1.852 0 0 1 6.962.854 1.952 1.952 0 0 1 8.375.278c.521 0 .98.192 1.378.576.403.383.606.845.611 1.385-.005.369-.102.705-.291 1.008a2.143 2.143 0 0 1-.725.717 1.887 1.887 0 0 1-.973.263ZM14.625 4.227c-.549 0-1.02-.192-1.413-.575a1.9 1.9 0 0 1-.575-1.413 1.852 1.852 0 0 1 .575-1.385 1.952 1.952 0 0 1 1.413-.576c.521 0 .98.192 1.378.576.403.383.606.845.611 1.385-.005.369-.102.705-.291 1.008a2.143 2.143 0 0 1-.725.717 1.888 1.888 0 0 1-.973.263Z" fill="#fff"/></svg>