<svg width="227" height="315" xmlns="http://www.w3.org/2000/svg"><g id="Page-1" stroke="none" stroke-width="1" fill="none" fill-rule="evenodd"><g id="Spades" transform="translate(9 26)" fill="#000"><g id="A" transform="translate(0 26)"><path d="M9.746.403C5.455 5.868.863 9.013.786 13.276c-.025 1.38.811 3.727 3.43 4.176 1.698.29 4.037-.938 4.086-3.432-.01-.496.588-.483.583.197-.08 1.967-.778 4.258-1.95 6.122h5.622c-1.172-1.864-1.87-4.155-1.95-6.122-.01-.68.59-.693.583-.197.05 2.494 2.388 3.722 4.087 3.432 2.618-.45 3.454-2.796 3.428-4.176C18.63 9.013 14.037 5.868 9.746.403Z" id="path153-0-1-2-5-5-5-3-4"/><path d="M197.698 211.59c-4.291-5.464-8.883-8.609-8.96-12.872-.025-1.38.811-3.727 3.43-4.176 1.698-.29 4.037.937 4.086 3.431-.01.497.588.484.583-.196-.08-1.968-.778-4.258-1.95-6.123h5.622c-1.172 1.865-1.87 4.155-1.95 6.123-.01.68.59.693.583.196.05-2.494 2.388-3.721 4.087-3.431 2.618.449 3.454 2.795 3.428 4.176-.076 4.263-4.668 7.408-8.959 12.872Z" id="path153-0-1-2-5-6-5-9-1-9"/><path d="M104.722 82.074c-9.185 13.115-19.013 20.662-19.176 30.894-.055 3.313 1.734 8.944 7.338 10.022 3.636.696 8.641-2.25 8.746-8.236-.016-1.192 1.26-1.16 1.248.472-.17 4.722-1.664 10.22-4.172 14.694h12.032c-2.51-4.475-4.002-9.972-4.173-14.694-.012-1.633 1.264-1.663 1.248-.472.105 5.986 5.11 8.932 8.746 8.236 5.604-1.078 7.393-6.709 7.338-10.022-.163-10.232-9.99-17.78-19.175-30.894Z" id="path153-6-3-1-6-92-7-2-9-8"/></g></g></g></svg>