<svg width="227" height="315" xmlns="http://www.w3.org/2000/svg"><g id="Page-1" stroke="none" stroke-width="1" fill="none" fill-rule="evenodd"><g id="Spades" transform="translate(10 26)"><g id="J"><path d="M9.924 26.06c-4.29 5.464-8.882 8.609-8.959 12.872-.026 1.38.81 3.727 3.429 4.176 1.698.29 4.037-.937 4.086-3.432-.01-.496.589-.483.583.197-.08 1.968-.777 4.258-1.95 6.123h5.622c-1.172-1.865-1.87-4.155-1.95-6.123-.01-.68.591-.693.584-.197.049 2.495 2.388 3.722 4.086 3.432 2.618-.449 3.454-2.795 3.429-4.176-.077-4.263-4.668-7.408-8.96-12.873Z" id="path7363-8-9" fill="#000"/><path d="M197.876 237.247c-4.291-5.465-8.883-8.61-8.96-12.873-.025-1.38.811-3.727 3.43-4.176 1.698-.29 4.037.938 4.086 3.432-.01.496.588.484.583-.197-.08-1.967-.778-4.258-1.95-6.122h5.622c-1.172 1.864-1.87 4.155-1.95 6.122-.01.68.59.693.583.197.05-2.494 2.388-3.722 4.087-3.432 2.618.45 3.454 2.796 3.428 4.176-.077 4.264-4.668 7.408-8.959 12.873Z" id="path7367-3-1" fill="#000"/><path d="M22.266.075v263.156h163.268V.075H22.266Zm51.866 1.444 73.96.271-11.464 17.527c-14.95-4.73-39.202-1.661-51.703.729-3.287-5.484-8.053-12.37-10.793-18.527Zm-49.718.673h47.483l11.152 20.254c.404.565.018 1.73-.224 2.385-1.376 3.867-2.592 6.108-5.377 10.717-2.637 4.366-3.583 8.364-2.647 11.052.14.33.262.83.213 1.253-.154 1.34-1.281 2.891-2.817 3.953-1.043.167-3.21.3-4.465 1.538-1.076 1.062-1.957 2.615-1.819 5.453.065 1.016.194 1.66.194 1.66-14.182 5.889-24.347 12.787-24.01 13.04-.133-.061-12.549-5.725-17.683-7.127V2.192Zm126.316 0h32.593v93.044l-12.306-8.095c1.026-.713 1.66-1.136 2.74-1.867.191-.058.554-.064.79-.116 2.18-.485 3.7-2.112 2.943-3.799-.513-1.144.188-1.075.82-2.008.71-1.05.563-1.985.11-2.869-.223-.438-.1-.612.277-1.422.999-1.236.277-3.326-1.013-4.002-.135-.199.141-.506.204-.793.363-1.675-.305-3.144-1.756-3.518-.747-.192-.995-.322-.732-.987.468-1.18-.148-1.62-1.12-2.003-1.634-.645-1.172-.748.849-1.655 4.135-1.855 5.109-7.371 2.264-12.377-.362-.636-1.328-2.13-1.983-3.13-.766-1.17-1.508-2.178-1.508-2.178l5.474-7.615s-3.811-4.506-5.169-6.997c.32-1.23 4.136-5.091 4.63-8.84.777-5.878-3.696-9.64-7.927-9.198-2.935.307-6.545 2.18-6.274 7.62.085 1.691.746 3.437 1.945 5.55.837 1.582 1.923 3.256 2.962 4.863l-5.508 7.515 5.566 7.035-.194.305c-.554.879-2.163 3.466-2.86 4.983-2.053 4.05-2.78 8.497 1.435 11.632.737.452 1.305.836 1.62 1.147.413.41.155.72-.51.875-.783.165-1.58.154-2.405.48-2.643.962-5.292 2.514-7.176 4.035-1.057.853-2.762 3.554-3.801 5.748-1.13 2.384-1.445 2.913-1.445 2.913L134.905 64.1s-.492-.387-.626-.537c-.36-.403-.23-.636.02-1.083.211-.379.22-1.492.126-2.337-.027-1.621-.015-1.628.92-3.116.33-.525.467-1.05.277-1.858-.303-.91-.332-.62.247-1.244.226-.278.5-.415.543-.716.06-.403.022-1.106.03-2.42.014-2.63-.022-2.414 1.459-3.57 1.84-1.436 2.525-2.113 2.817-2.763.419-.93 0-1.633-1.033-3.493-.472-.85-1.203-1.997-1.556-2.637-.661-1.152-1.616-2.668-2.07-4.118-.689-1.113-.584-3.042.053-4.175.8-1.423 1.022-2.283.994-5.158-.026-2.666-.22-2.417.46-3.31 5.087-6.718 13.164-19.373 13.164-19.373Zm20.723 9.991c.11 0 .22.005.33.01 1.602.076 3.193.59 4.67 2.018 2.008 2.01 1.872 4.906 1.212 7.92-.305.876-.531 1.766-1.15 2.68-.344.51-.625.982-.625 1.046 0 .064-.495.859-1.1 1.77-.592.892-1.271 2.135-1.271 2.135s.946 1.693 2.623 3.812c1.266 1.877 2.086 3.512 2.182 3.416 0 0-.32.812-.761 1.389-1.33 1.744-3.781 5.382-3.88 5.763-.023.091-.276.185-.27.275.017.338.503.739 1.236 1.742 4.422 6.059 5.047 11.173 1.726 14.177-1.653 1.495-3.284 1.963-5.033 1.776-3.206-.344-6.164-3.074-5.818-7.055.156-1.829.06-2.374 1.139-4.5.487-1.196 1.59-3.247 2.322-4.282.641-.742 1.324-1.8 1.324-1.8s-1.573-2.417-4.465-5.815c-.522-.622-.844-1.462-.844-1.462l4.955-7.325s-.575-1.421-1.542-2.86c-1.981-2.949-3.259-6.084-3.247-7.849.03-4.398 2.912-6.974 6.287-6.98Zm12.34 104.652c-2.926 1.554-5.775 6.857-.207 3.159l.14 3.049c-2.896 4.101-8.559 1.095-7.119-3.152-3.91.506-4.519-3.455-4.32-5.339-5.143-1.118-3.366-6.552-3.366-6.552-2.971-2.478-3.492-5.074-1.086-7.81-2.433-1.51-3.119-2.478-5.793-3.575 2.05 18.197 11.893 27.648 22.25 36.071-.274 0-.303 5.86-.955 4.78-14.79-11.027-24.298-23.638-25.934-44.036-.125.32-7.012-5.32-8.151-5.02-2.387 33.03 23.964 54.742 34.923 59.021 0 0 .155 4.603-.033 4.619-16.608-7.23-35.076-28.448-38.634-53.693l-9.799 15.145-3.67-1.568 15.845-24.914-10.715-6.7-17.445 27.583s-.463 2.3.8 2.265c24.488 2.614 60.906 31.974 48.704 79.758-1.058-.418-2.743-1.236-2.827-1.2 1.914-4.118 7.254-30.795-8.81-52.343-7.36-9.873-18.773-20.38-37.087-23.481 1.514 3.116.854 10.185.854 10.185l4.266.86c-1.44-1.518-2.643-2.77-3.214-4.417-.8-2.566.372-4.086 3.22-2.56 1.13.634 1.415.61 2.516-.207 2.292-1.701 4.909.05 4.305 2.879-.089.417.022.68 1.11.779 2.467.244 4.952 1.464 6.56 3.377.79 1.008.968.859 1.669.251 1.72-1.491 4.572.576 4.063 2.884-.291 1.32-.131 1.636.48 1.892 3.363 1.41 4.19 2.301 5.236 5.24.384 1.077.699 1.43.897 1.37.14-.044.692-.228 1.178-.412 2.512-.949 3.981 2.081 2.202 4.456-.365.487-.095.954.553 1.307 2.09 1.138 3.51 3.856 3.757 6.706.094 1.084.208 1.086 1.295 1.04 2.78-.116 4.104 3.63 1.842 5.008-.788.48-.64 1.1-.029 1.824 1.621 1.92 2 3.305 1.857 5.492-.19 2.911-.004 2.854.926 3.208 2.702 1.027 2.198 5.335-.451 5.32 1.908 4.436-.605 9.845-.523 9.945 5.09 2.858.494 5.895-.985 5.361 0 0-.754 1.993.102 3.02-4.465 5.895-10.311 6.874-16.786 9.802l-.203-20.757c2.693 2.163 5.361 4.182 8.029 6.193 0 0 .676-.202.06-.77-1.186-1.094-4.17-3.02-5.006-3.787-1.802-1.365-8.406-7.667-9.58-9.16-.527-.995-1.32-.419-1.3-.36.79 1.362 1.379 2.95 2.402 4.365 2.209 3.055 4.352 6.45 4.13 9.81-.006 1.88-.755 3.821-1.174 4.765-.31 1.29-2.371-.22-1.852-1.306.916-2.977 1.674-5.417-1.6-10.2-1.597-2.332-3.666-6.566-3.666-6.566l-1.324.32.049 27.08c-1.11.046-3.926.775-3.346.794 8.774-1.749 11.459 10.779 2.987 11.187-1.61.057-3.273 2.821-3.442 4.32.072 3.638.606 7.475-2.061 10.97-.701.918-1.024 2.376-1.673 3.522-3.257 5.755-4.71 9.053-4.378 10.538.085.382.165.886.165.886-10.373 2.587-18.152 3.25-28.602 3.493-.103-.163 3.508-10.297 6.143-15.493 1.947-3.84 2.951-6.465 2.405-7.258-8.287.415-6.698-11.71 1.231-11.283 0 0 1.99-6.985 4.214-10.137 2.108-1.17 6.35.424 8.727-1.146 5.603-1.715 9.27 4.896 9.27 4.896l1.509-6.29-49.543-.237s-4.82 1.996-7.43.92c-1.667-.688-4.041-2.507-4.043-2.506 0 0 19.106-30.562 21.887-34.94.226-.355-.493-1.12-.494-1.127-.104-.994-22.678 35.325-22.678 35.325-12.745-8.145-28.764-18.45-42.963-27.506l-.039-13.606c10.312-6.485 9.378-9.134-.165-2.066-.133.112-.203-5.11-.203-5.11 7.274-6.485 1.225-4.454-.211-2.207.034-1.617-.342-3.812.696-4.78 3.178-2.923 6.924-.239 7.112 4.084 4.147.811 3.633 4.447 4.701 5.908 4.228 2.382 2.002 5.996 3.05 7.224 4.454 2.802 1.348 7.307.405 7.205.561.377 6.095 4.079 6.57 3.943-.48-19.41-19.913-35.07-22.493-36.966l.456-4.185s26.766 17.085 26.532 44.5l8.533 5.06c-.758-28.127-13.52-47.199-35.042-59.276l-.28-5.211c18.066 8.391 34.82 25.374 38.721 53.209L72.6 148.3l3.525 1.703-16.06 25.715 10.028 6.582c7.78-10.22 14.267-22.754 18.221-28.716-.104-.545-.32-1.326-.32-1.326-38.24-6.295-59.781-42.054-49.514-79.42l2.657 1.167c-7.974 27.673 5.03 67.505 46.62 75.65-.083-2.943-.602-10.18-.602-10.18s-5.465-1.64-4.66-.983c1.338 1.142 4.346 6.065 3.075 7.815-.914.127-2.443-.383-4.117-1.607-.63-.461-.649-.363-1.357.392-1.966 2.094-4.823.894-4.849-1.984-.011-1.215-.056-1.473-1.784-1.485-2.62-.019-3.797-.468-5.368-2.565-1.114-1.487-1.011-1.494-2.322-1.045-2.512 1.193-4.516-1.312-3.729-3.377.389-.967-.025-1.277-1.168-1.466-2.225-.367-4.74-3.153-5.203-5.429-.094-.465-.327-.582-1.639-.537-2.572.089-3.996-1.468-2.982-3.648.55-1.18.703-1.655-.324-2.453-1.26-.979-1.972-1.659-2.531-2.845-.444-.941-.51-1.543-.815-3.547-.106-.697-.338-.81-1.25-.929-2.661-.346-3.71-3.062-1.756-4.824.596-.538.594-.525-.31-1.693-1.74-2.249-2.393-5.183-1.634-7.137.205-.53.004-1.176-.616-1.33-2.426-.603-2.467-3.288-.146-4.796.675-.437.709-.728.2-1.61-.894-1.548-.85-5.6.014-7.54.558-1.253.554-1.282-.31-1.833-1.844-1.175-1.317-4.408.863-4.94 1.058-.259 1.128-.396.843-1.68-.508-2.285-.595-2.88.757-3.783 3.718-2.41 13.241-7.016 13.241-7.016l3.147-1.495s.314 19.181.111 21.45c-.122.976.757 1.567 1.78 2.583 2.114 2.074 3.273 4.583 6.095 6.324 0 0 1.758-.976 2.846-1.674l.106-27.333c.223-.62.379-.689 1.101-.774.6-.115 2.109-.283 2.613-.43 1.215-.355 1.407-.845-.189-.683-.48.049-1.201.253-2.007.416-4.986 1.493-8.675-6.256-4.878-10.16.73-.652 3.452-1.786 4.689-1.863.357.003 1.421-1.305 2.148-2.512.73-1.212 1.033-2.114.616-3.328-.88-2.558-.041-6.484 2.589-10.77 2.848-4.047 5.047-8.562 6.201-13.37 10.092-1.214 18.652-3.718 27.773-3.164.356 3.076-9.972 21.214-7.816 22.276 8.126 1.942 5.352 11.559-.824 11.24-.925-.005-1.016.077-1.605 2.12-1.121 2.981-1.846 5.257-3.05 8.031-.004.714-4.037.52-7.416.496-1.452 1.117-7.671 4.142-11.07-3.599l-.123 6.616s46.528-.737 54.803.298c.177-2.071 4.6 1.604 4.6 1.604l-22.709 35.65 1.062 1.035c3.277-3.968 23.042-35.777 23.042-35.777l42.754 27.532c-.352 4.095.058 13.272.058 13.272-11.734 6.218-8.149 9.386-.07 1.855l.138 5.37ZM112.95 19.34s12.11.097 18.182 1.069c5.318.85 5.044.694 5.023 4.548-.014 2.737-.018 2.675-.722 3.987-1.297 2.419-1.076 4.804.975 8.143 1.99 3.242 3.447 5.635 3.447 6.097-.002.715-.123 1.589-1.847 2.791-2.035 1.42-2.424 2.411-2.396 3.852.023 1.166-.198 1.547-.897 1.543-.28-.001-1.269.458-2.332.958-1.87.88-1.873.88-3.617.866-.875-.007-1.298-.336-1.542-.241-.47.218-.896 1.787-.882 2.245.05.161.3.064.814-.112 2.893-.988 7.196-.544 7.317-.111.583.527.584 1.342-.296 2.187-.57.895-.83 1.358-.591 2.743.324 1.883.082 2.63-.883 3.281-2.941 1.985-6.869 2.235-13.15 1.03-6.618-1.27-11.144-3.788-14.909-8.297-1.681-2.015-2.097-2.72-1.265-2.86 1.026-.158 2.162-.37 3.214-.823 4.652-1.997 4.57-10.498-1.697-11.385-2.556-.09 5.279-12.117 8.054-21.511Zm5.975 5.855c-2.25 1.257-3.425 2.79-3.43 3.623-.001.341.075.28 1.15-.426 3.118-2.046 11.333-5.001 14.264-3.295 2.114 1.267 2.935.854 1.71-.85-2.872-3.996-10.62-.723-13.694.948Zm8.033 1.34a5.36 5.36 0 0 0-1.023.11c-2.169.484-4.555 2.267-6.532 3.838-.975.774-2.354 2.308-2.57 2.71-.487.907.59 1.908 2.057 1.107.853-.466.928-.36 1.75-.247 1.893.57 4.051 1.451 7.39 1.171.31.071.287.144.179.436-.198.533-1.38 1.55-2.924 2.69-.796.588-1.492 1.07-1.547 1.156-.246.392.818.423 1.983-.237 1.654-.936 3.558-3.005 4.723-4.669.11-.158.264-.289.315-.46.114-.384-.583-.225-.955-.329-.16-.044-.128-.447-.17-.633-.11-.488.08-1.295.17-1.989.072-.561.675-1.006 1.071-1.418 1.744-1.81 1.607-2.63-.737-1.238-.394.234-.707.375-1.09.406-3.46.109-5.46-.025-8.345 2.4-1.283 1.031-2.054 1.132-.912.034 1.741-1.407 3.924-3.41 6.338-3.939 1.456-.362 2.843.752 3.48.465.005-.796-1.212-1.377-2.651-1.365Zm-.502 5.002c.396.26.786 1.61.749 2.066-.043.53-.955.31-1.081.058l-.495-1.5c-.215-.506.44-.793.827-.624Zm-1.763.305c.424.417.521 1.32.762 2.066-.154.538-3.56-.188-3.987-.79.51-.662 2.266-1.455 3.225-1.276Zm5.974 9.687c-.256-.017-.595.107-.902.42-1.533 1.568-1.04 4.237.805 5.1.899.422 2.26.112 4.262-.503.954-.293 1.645-.426 1.823-.425.782.004 1.208-1.207.66-1.762-.635-.64-2.14-.546-3.758.702-.82.631-1.404.937-2.066.929-1.619-.02-2.406-1.684-.751-3.43.55-.582.354-1.003-.073-1.031Zm-11.348 11.484c1.91 1.538 5.536.732 7.973-.878 2.178-1.439 3.082-1.863 4.83-1.563 2.141.368 2.062-.472 1.134-1.529-1.052-1.198-3.65-.828-5.823.61-4.82 3.188-6.562 3.721-7.96 1.996-1.503-1.853.285-4.23 2.054-2.933 1.45.985 1.43.244.83-.432-3.495-2.94-6.018 2.33-3.038 4.729Zm-16.939 1.512c2.432 3.077 4.76 5.62 8.257 7.495l.039.58-11.307-.024c.79-1.376 3.034-7.96 3.011-8.05Zm-38.285 8.017c-.24 4.639.595 7.364 3.317 10.606 2.893 3.447 2.678 8.82.817 12.14-.824 1.468-2.5-.338-1.71-1.277 1.124-1.41 1.19-4.851.66-7.001-1.192-3.555-3.894-5.296-4.99-9.053-.368-1.604-.251-4.486-.251-4.486l2.157-.929Zm3.54.392c.198-.03.513.173.98.576 1.599 1.381 1.326 5.336-.505 7.872-.56.77-1.025.55-1.561-.164-.724-.714-.473-.785.135-2.037.635-1.306.839-2.777.708-4.495-.087-1.157-.047-1.706.243-1.752Zm103.717 1.355c1.41-.021 3.175.278 3.335.789.153.621-.182 1.12-.97 1.451-2.065.87-4.795-.347-4.106-1.833.172-.266.894-.394 1.74-.407Zm-3.579.339c.406-.01.72.09.97.203.677.348-.387 2.727 2.982 2.68.805.119 1.4-.066 1.29.296-.168.548-1.613 1.37-3.181 1.601-4.694.693-4.49.46-4.277 3.77.14 2.16-.002 2.889-.295 4.2-.51 2.271-.711 4.467-.369 3.744.458-.965 1.627-4.014 1.62-5.748-.011-2.557.904-3.063 1.27-1.21.157 1.227-.394 1.92.432 3.17.468.702.681.69.368 1.78-.276.962-.084 1.244.252 1.732.339.492.68.605.393 1.292-.619 1.483.352 2.886 1.76 3.005.65.055.83.338.635.586-.344.427-1.03.63-1.6.754l-14.91-9.507s1.107-2.214 1.436-2.807c2.142-4.686 3.84-6.821 10.104-9.275a3.009 3.009 0 0 1 1.12-.266Zm7.923 3.077c.411-.015.716.2 1.062.644.915 1.174.116 2.641-2.134 3.904-1.923 1.092-2.482 1.222-2.9-.493a2.304 2.304 0 0 0-.518-.842c-.445-.407-.344-.745.223-1.045.272-.144 1.136-.497 1.828-.953 1.202-.793 1.91-1.195 2.439-1.215Zm-6.347 3.406c.47.008.956.121 1.314.354.596.387.602 1.359 0 1.746-1.197.488-3.088-.165-2.928-1.263.08-.557.83-.849 1.614-.837Zm7.67 1.2c.425-.01.744.187 1.01.596.701 1.082-.123 2.168-2.488 3.324-1.556.76-3.545 1.09-3.414.643.106-.36-.45-2.136-.698-2.42-.095-.3.029-.03 1.993-.648.711-.224 1.571-.593 1.968-.841.676-.423 1.205-.642 1.63-.654ZM65.168 75.118c-1.094 2.623-1.267 3.782-.747 6.541.433 2.297.936 3.449 3.297 6.842 1.798 2.583 2.373 3.587 1.94 4.403-.306.44-.992.85-1.419.427-.878-1.146-1.405-2.537-2.261-3.814-3.301-4.83-3.53-6.06-3.952-9.875-.193-1.744.811-5.455 1.67-6.01.961-.376 1.769.883 1.472 1.486Zm76.259-1.21c-.897.67-1.462 2.016-1.93 2.985.098.692.665.24 2.153-1.94.357-.523.114-1.087-.223-1.045Zm28.408 1.186c1.32.04 1.79 1.221 1.198 1.838-.863.9-2.415.22-2.415-1.04 0-.534.25-.81 1.217-.798Zm7.326 1.683c.758.033.858.784.456 1.873-.503 1.01-1.108 1.182-2.924 1.747-2.174.676-2.529.577-2.856-1.418-.125-.767-.063-.597 1.94-1.128.86-.227 1.864-.634 2.4-.856.404-.164.732-.228.984-.218Zm-128.407.895.534 4.03.868-3.018-1.402-1.012Zm121.343 1.355c1.07.005 1.643.96 1.1 1.534-.302.32-1.073.327-1.444.14-.85-.62-.696-1.678.344-1.674Zm-32.68 2.105 2.085 1.282-16.936 26.684-2.042-.043-.193-.426 17.086-27.497Zm38.43.256c1.25-.017 1.359 1.16-.155 2.24-.62.398-1.317.494-1.857.518-.753.034-1.26-.162-1.319-.682-.327-1.274-.513-1.59.65-1.514.232.015.865-.022 1.372-.237.52-.221.96-.32 1.31-.325Zm-5.178 1.166c.864.005 1.414.94.834 1.399-.717.566-1.61.217-1.605-.639.003-.546.152-.763.771-.76ZM48.803 84.441l-4.608 4.073c1.69 1.995 3.106 3.986 4.569 6.077l.039-10.15Zm93.17.262c2-.08 2.656.885 1.708 1.534-1.289.859-2.393.818-3.855.619-1.935-.359-.395-1.905 1.726-2.124a6.74 6.74 0 0 1 .422-.03Zm-2.123 2.903c.404-.01 1 .102 1.77.363 1.308.442 2.937 1.81 2.86 2.569-.124 1.228-2.44.594-4.305-1.166-1.168-1.103-1.213-1.742-.325-1.766Zm-1.77.02c1.134.106 2.266 3.936 1.387 5.114-.862 1.154-2.38-1.33-2.104-3.281.109-.772.304-1.792.606-1.829a.523.523 0 0 1 .111-.005Zm-74.057.841c.638.152 1.456 1.034 1.28 1.703-.13.27-.398.191-.689.121-.525-.221-.93-.951-.83-1.558.05-.164.12-.256.239-.266Zm85.936.658 3.331 2.255-3.33.13v-2.385Zm-13.804 4.563c2.556.014 3.096.839 1.188 1.843-.793.418-2.724.496-3.723.15-1.586-.549.317-2.005 2.535-1.993Zm20.675 1.718.175 2.312-6.415.562-.33-2.41 6.57-.464Zm-22.178 1.151c.445-.028 1.153.177 2.08.653 1.746.896 2.74 2.4 1.838 2.874-.816.43-2.27-.08-3.297-1.156-1.36-1.425-1.469-2.317-.62-2.37Zm-2.181.005c1.165.07 2.173 3.257 1.406 4.834-.42.862-.953.674-1.717-.746-.739-1.372-.779-3.794.073-4.059a.67.67 0 0 1 .237-.03Zm-83.434.9-2.804 5.627 5.08 4.426-2.276-10.053Zm108.583 4.335.451 2.226-6.158 1.514-.6-2.424 6.307-1.316Zm-26.89.436c.751.013 1.457.19 1.862.546.562.493.439.715-.888 1.254-2.362.96-5.271.378-3.583-1.055.597-.507 1.643-.762 2.609-.745Zm40.001-.13c-2.351 1.572-.087 2.438 1.594 1.249-.126-.406-1.1-1.243-1.594-1.25Zm-41.727 3.154c1.682.055 4.982 2.357 4.276 3.46-.383.603-2.59.088-3.467-.75-1.152-1.103-1.761-2.576-1.124-2.69.096-.018.203-.024.315-.02Zm-2.124.106c.868-.161 2.256 3.876 1.207 4.911-.392.387-.5.364-1.158-.217-1.315-1.162-1.089-3.304-.301-4.5.075-.115.162-.177.252-.194Zm51.689 2.128c-.23-.428-.515-.626-.83-.86-8.175 3.134-6.08 6.12.83.86Zm-19.373.277.815 2.255-6.202 2.453-.911-2.468 6.298-2.24Zm-106.073 4.267-2.1 5.516c2.283.014 4.341 1.09 6.425 2.047l-4.325-7.563Zm108.134 1.621 1.314 2.216-5.833 3.15-1.164-2.337 5.683-3.029Zm-135.51 4.316 2.39 1.684-3.51 4.355-.32-.615.04-3.614 1.4-1.81Zm138.695 1.37 1.411 2.032-5.614 3.895-1.377-2.211 5.58-3.716ZM31.77 121.954l2.58 1.984-4.078 4.911-2.468-1.882 3.966-5.013Zm28.384 1.215-.12 5.908 6.07.232-5.95-6.14Zm70.164 2.663 6.9 3.964-1.04-6.051c-1.802.35-4.115 1.522-5.86 2.087Zm37.898-1.24 1.61 1.998-5.189 4.35-1.663-2.081 5.242-4.268Zm-131.18 1.75 2.405 2.231-4.238 4.568-2.225-2.095 4.058-4.703Zm135.611 3.243 1.867 1.892-4.728 4.906-1.866-1.892 4.727-4.906ZM42.5 131.989l1.862 2.168-4.839 3.837-1.794-2.177 4.771-3.828Zm27.885.508 1.358 5.787c-.1-.42 6.024-1.726 6.822-1.287l-8.18-4.5Zm71.282.49 5.778 6.088.65-5.865-6.428-.223Zm35.737.957 2.09 1.63-3.88 5.517-2.366-1.854 4.156-5.293Zm-130.739 3.677 1.722 2.483-5.072 3.014-1.44-2.192 4.79-3.305Zm136.213.586.32.32-.005 3.938-1.61 2.36-2.196-1.29 3.49-5.328Zm-32.692 4.424 5.112 9.274 1.442-6.916c-1.89-.028-4.883-1.237-6.554-2.358Zm-99.477 1.237 1.217 2.676-5.358 2.438-1.221-2.66 5.362-2.454Zm2.895 6.387.98 2.685-5.698 1.887-.902-2.588 5.62-1.984Zm-25.47 4.863 1.774 1.24c9.243-4.847 6.362-6.279-1.774-1.24Zm52.24-3.083c.348-.036.75.446 1.075 1.51.491 1.608.23 3.603-.863 3.576-.736-.09-1.01-1.975-1.013-2.521-.008-1.614.351-2.518.8-2.565Zm5.066.963 2.201.237-.01.62-17.532 27.777-2.124-1.345 17.465-27.289Zm-9.44.644c.698.006 1.721.486 2.628 1.446.53.574 1.098 1.388 1.236 2.221-.016.275-.486.17-.94.107-1.165-.164-2.878-.969-3.424-1.96-.67-1.217-.292-1.821.5-1.814Zm80.602.989 2.338 11.376c.724-2.848 2.253-4.49 3.386-6.726-2.98-1.369-4.203-2.991-5.724-4.65Zm-100.734 2.3.548 2.943-5.906 1.364-.61-2.855 5.968-1.451Zm22.027 1.022c.084-.002.167 0 .248.01 2.16.24 2.465.72 1.013 1.693-.88.59-3.263.673-3.656.043-.419-.67 1.14-1.734 2.395-1.746Zm-42.852 1.727 1.833 1.07c3.14-2.265-.289-2.719-1.833-1.07Zm39.744.992c.66.008 1.058 1.184 1.29 2.264.225 1.046.303 1.99-.102 2.516-.495.644-.979.758-1.372.121-1.152-1.865-1.114-4.917.184-4.901Zm-4.868 1.708c.309-.01.697.067 1.15.237 1.532.577 3.563 2.919 2.705 3.242-1.267.477-4.037-.91-4.558-2.313-.262-.707.026-1.142.703-1.166Zm-12.635 1.887.14 2.908-6.21.252-.185-2.894 6.255-.266Zm15.215 2.448c.612-.017 1.223.063 1.716.276.89.384.242 1.078-1.285 1.606-1.007.35-2.444.439-2.948.04-1.178-.928.681-1.87 2.517-1.922Zm-48.084.339c4.254 2.578 13.077 8.322 13.077 8.322-.416.082-.86.408-1.27.726-.318.26-.661.502-.96.624-.472.193-.906.22-1.3.305-2.742.595-4.085 2.143-3.23 4.07.337.756.425.634-.16 1.272-1.634 1.557-1.435 2.023-.852 4.016.007.281-1.947 2.676-.219 4.48.956.832 1.002.311.655 2.202-.121 1.136.19 2.07 1.847 2.395.922.422.909.275.582 1.054-.223 1.12.097 1.582.883 1.99.713.445 1.004.566.499.957-5.521 2.82-7.22 7.73-2.012 14.96.613.853 2.158 3.26 2.158 3.26-1.755 2.6-3.43 4.74-5.22 7.062l5.21 7.273c-.845 1.32-2.817 4.004-4.03 6.651-1.82 3.978-.618 9.553 4.621 11.22 2.247.716 5.213.136 7.083-2.031 1.517-1.758 2.344-5.251.96-8.889-1.752-4.075-3.851-6.074-4.53-7.233l5.578-6.989s-3.844-5.518-5.377-7.522c10.462-12.78 1.916-16.353.277-17.447-.255-.17-.194-.987-.194-.987 9.396-1.075 12.605-6.228 15.37-12.75 5.605 3.603 13.63 8.447 19.254 12.237.542.502.897.812.814 1.088-.067.226-.285 1.263-.296 2.328.262 1.695.137 2.462-.547 3.11-.645.612-.516.89-.413 1.55.18 1.146.354 1.26-.16 1.838-.633.711-.844 1.045-.727 2.772.07 1.026.2 1.795-.068 2.4-.35.788-1.307 1.187-2.565 2.173-2.2 1.724-1.903 2.251 1.135 8.51 2.589 5.335 2.884 6.554 1.89 8.449-.826 1.576-1.137 2.794-1.037 5.07.026.58.075 1.209.073 1.515-.006.736.004.652-.422 1.113a15.55 15.55 0 0 0-1.222 1.577c-3.612 5.407-13.115 19.298-13.115 19.298h-32.04v-94.019Zm44.87 2.516c.374-.027.826.642 1.337 1.994.296.78.265 2.135-.213 2.656-.951 1.038-2.261-1.394-1.847-3.32.187-.869.431-1.31.722-1.33Zm89.875-1.462c.005 4.927-.1 11.322-1.8 16.036l1.927.872c-.622-4.84.15-8.814 4.599-10.907-2.025-1.372-3.571-3.688-4.726-6Zm-94.666 3.107a1.66 1.66 0 0 1 .528.097c.722.198 1.6.618 2.134 1.161.914.93 1.857 2.047 1.62 2.153-1.512.662-5.347-1.36-4.845-2.942.11-.334.306-.462.563-.469Zm-6.72.208.038 2.415-3.714-2.371 3.676-.044Zm84.817 1.161c.601.053 1.53.839 1.386 1.384-.258.59-.576.536-.99-.084-.517-.774-.727-1.258-.396-1.3Zm-75.256 2.986c.902-.025 1.68.174 1.765.643-.002.444-.688 1.018-1.532 1.278-2.112.649-3.695.23-3.118-.804.362-.684 1.726-1.086 2.885-1.117Zm73.544 2.738c-.893 1.597-1.003 6.703.572 8.787 2.447 2.697 4.707 6.208 4.446 10.882l-2.351 1.05c.13-3.843-.024-6.342-3.03-9.658-3.581-3.883-2.74-10.61-1.504-12.59 1.062-1.952 2.589.813 1.867 1.53Zm-103.023-2.124c.752-.044 1.671.4 3.335 1.495 4.256 3.007 6.564 4.167 10.784 7.142.617.577.586.494.48.948-1.614 6.162-6.299 11.05-13.242 11.947-.803.103-.389-.399-.873-1.365-.498-.995-1.417-1.428-2.438-1.437-2.867-.026-.416-1.631 3.083-2.09 1.157-.178 2.55-.334 3.288-1.03.16.075-.608-4.82.179-6.542.402-1.55.022-2.298-.412-1.345-.272.598-.654 2.168-.858 3.778-.173 1.36-.46 1.546-.781.886-.146-.302-.143-1.015.087-1.578.261-1.281-1.358-2.247-1.032-3.42.433-.98-.017-2.06-.563-2.42-.297-.635-.262-1.094-.223-1.538.091-1.04-.602-2.038-1.697-2.473-.484-.244-.34-.508.165-.76.235-.117.467-.183.718-.198Zm-3.482 1.757c.276-.005.55.025.81.092.564.342 1.017 2.29.388 2.366-.232.028-.956.116-1.518.28-1.903.558-2.805.483-2.768-.61.037-1.114 1.6-2.103 3.088-2.128Zm2.531.198c.75.004 1.354.88.883 1.345-.488.481-1.425.13-1.421-.566.002-.375.172-.781.538-.779Zm.51 3.034c.214-.008.452.037.707.155.697.32 1.098 1.517.655 1.954-.337.333-1.302.216-1.818-.222-.923-.783-.475-1.851.455-1.887Zm-2.362.174c.431.01.742.148.824.445.071.256-.048.492.068.856.182.574.547 1.014.228 1.244-1.46-.087-4.49 1.742-5.367 1.655-.73-.098-.813-.77-.18-1.858.732-1.259 3.133-2.37 4.427-2.342Zm.882 3.537c.318-.02.372.155.243.62-.092.329-.016 1.114.208 1.62.241.543.678.866.451 1.08-.374.106-1.627.357-2.681.75-1.36.75-5.18 3.012-4.218-.606.306-1.208 1.711-2.047 4.165-2.903.93-.324 1.514-.541 1.832-.561Zm2.003.043c.59-.042 1.264.241 1.566.973.886 1.76-1.656 2.012-2.468.547-.481-.868.143-1.464.902-1.52Zm.485 4.099c1.32.007 2.345 1.64 1.387 2.26-.711.425-1.592.345-2.405.144-1.223-.536-.66-2.414 1.018-2.404Zm126.432.034c5.025 2.624 11.843 5.044 18.469 6.841v65.172h-45.286l-12.403-21.592s-.411-.698-.543-1.006c-.25-.585-.16-1.062.01-1.67.41-1.465 1.655-4.338 2.802-6.376 2.996-5.489 7.25-11.508 4.946-16.78-.264-.603 2.38-3.873 2.38-3.873 4.072.332 7.439-2.317 6.233-8.571 8.5-3.468 15.504-6.287 23.392-12.145Zm-128.774.319c.115-.004-.231 1.423.49 2.298.45.69.376.667-1.15 1.268-.57.308-1.142.778-1.464 1.064-2.184 1.945-4.346-.598-2.235-2.642a7.857 7.857 0 0 1 4.33-1.969c.012-.013.021-.019.029-.02Zm103.86 1.344c.733.13 1.683 1.103 1.378 1.634-1.033 1.727-1.08 2.657-1.172 4.444-.103 1.996.239 2.29-.524 1.945-.497-.232-1.426-.63-1.634-1.137-.48-1.17.748-7.1 1.952-6.886Zm-104.573 5.009c.812-.014 1.663.25 2.143.866.4.513.442.951.044 1.161-.946.499-4.076.24-4.233-.401-.243-.99.86-1.606 2.046-1.626Zm47.41 1.267c3.823.016 8.285.827 11.738 2.333 4.903 1.845 9.222 6.547 10.197 8.559.297.611-.31.611-.834.668-5.839.962-7.783 8.132-2.856 11.559 1.545.963 2.793.861 2.793.861 1.25-.106-5.554 12.921-8.262 21.038-8.38-.343-14.712.946-22.905-1.868-.88-1.46-.671-4.683-.029-6.348.589-1.511 1.364-2.678.99-4.417-.653-3.03-3.42-6.977-4.345-9.48-.813-1.909-.76-2.621.654-3.715 1.668-1.29 2.079-1.56 2.536-2.211.427-.607.245-.747.252-2.115.01-1.659-.03-1.401 1.343-1.645.48-.085 1.61-.446 2.473-.9 1.791-.942 3.04-.908 4.093-.324.457.123.414-.35.606-.977.083-.274.277-.72.261-.857-.032-.28-.637-.2-1.304-.106-2.673.373-4.779.456-5.862.053-.939-.349-.942-.98-.393-2.027.49-.934.835-.919.636-2.865-.251-2.443.089-2.957 1.231-3.76 1.425-1 4.013-1.468 6.987-1.456Zm13.819 2.154h12.427c-1.22 1.963-2.577 4.991-3.346 7.862-.112.224-.245.444-.533.155-1.676-2.395-3.585-4.957-8.548-8.017Zm-10.304 8.733c-1.485.042-3.343.755-5.677 2.09-1.587.908-2.883 1.471-4.568 1.162-.963-.178-1.086-.04-1.212.27-.567 1.404 1.536 2.908 3.66 1.921.618-.258 5.354-2.708 5.615-2.917.285-.228 2.246-.805 2.764-.799 1.567.02 2.533 1.249 2.342 2.666-.256 1.894-2.947 1.99-3.123.305-.135-1.296-.677-.72-.727-.082-.003.544.409 1.786.858 2.066 2.274 1.417 5.271-1.34 3.836-4.18-.88-1.738-2.085-2.55-3.768-2.502Zm-10.197 6.6c-1.542.294-2.545.893-4.208 1.03-1.372.303-1.27 1.393-.412 1.96.658.436 1.489.172 3.888-1.35 2.358-1.495 4.378 1.62 2.493 3.215-1.187 1.004-.372 1.268.44.663 2.088-1.555.89-6.105-2.201-5.517Zm7.298 8.017c-.18-.012-.466.053-.849.228-1.766.807-3.125 1.658-3.97 2.791-.146.247-.067.662-.137.987-.055.256-.259.581-.223.755.032.152.53.313.607.455.307.577.109 2.045-.068 3.106-.085.509-.842.666-1.145.973-.995 1.01-.745 1.318.316.924.74-.275.426-.785 2.259-.43 2.374.459 4.256-.185 6.124-1.22 2.074-1.15 2.825-1.787 2.909-1.65.138.227.03.346-1.45 1.573-3.707 3.075-6.464 3.789-8.543 2.637-.623-.423-1.121-.595-.65.31.06.098.565.49.917.648 2.136.962 4.814.148 8.223-2.54.748-.59 1.409-1.252 2.274-1.975 2.828-2.362 2.084-3.443-1.11-2.293-1.008.363-1.291-.029-2.653-.556-1.828-.71-2.429-.776-4.533-.813-1.832-.033-2.106.139-2.104-.17.002-.391 1.233-1.773 2.618-2.375 1.35-.588 1.73-1.327 1.188-1.365Zm3.37 5.83c.34.345-.148.565-1.47 1.19-.748.355-1.436.646-1.532.644-.117.213-1.363-2.591-1.023-2.729.146-.058 3.197.2 4.025.896Zm-4.796-.295c.306.636.54 1.302.66 1.916.027.19.162.462-.136.46-.235.034-.622.054-.761-.164-.3-.468-.63-2.062-.52-2.371.23-.31.634-.093.757.16Zm10.87 5.042c-.11.002-.317.083-.644.276-5.258 3.098-11.563 4.712-15.617 3.184-1.368-.516-1.618-.334-1.12.6.345.648 1.029 1.407 2.07 1.693 3.312.91 8.647-.414 12.752-3.101 1.67-1.094 3.04-2.655 2.56-2.652Zm30.945 8.303c.01 0 10.199 19.113 11.098 20.012l-75.6-.322 12.738-17.982c.112 1.01 30.724 5.206 51.764-1.708Z" id="path4037-8-0-2" fill="#131F67" transform="rotate(-.002 103.9 131.653)"/><path d="m61.908 261.78 11.908-18.192c18.112 3.127 34.324 1.05 52.064-2.412l12.18 19.748-76.152.855Zm94.613-68.623-.255-10.68 3.75 1.323c-1.375-4.947 1.806-10.191 4.778-10.447-9.626-7-1.855-14.786-2.021-14.947-10.488-5.184-5.407-13.493-6.14-14.218-12.724-3.07-7.943-13.188-8.884-12.136-7.339 2.335-11.503-3.766-11.71-8.78-6.323 3.716-16.27-1.236-13.275-7.035 0 0 3.408 1.546 4 1.213 5.148-3.867 4.83 1.566 5.932 2.727 3.878-.626 6.221 2.305 7.213 3.731 5.733-.089 5.475-1.457 5.617 4.09 4.337 1.024 4.203 3.358 6.759 6.5 5.446-.03 4.559 1.754 3.376 4.782 3.977 3.054 4.335 5.49 5.03 8.314 4.307 1.479 5.086 2.096 2.35 5.745 3.873 5.591 2.109 8.895 2.688 9.194 4.768 3.315 2.434 4.582.397 5.919.79 4.496 1.373 5.149-.212 9.766 5.48 3.746-.768 5.58-1.089 5.505l.048 3.8-8.352 5.634ZM24.915 167.473l-.329-13.233 46.405 28.85-5.651 9.184-40.425-24.801Zm61.318 18.471 10.476-22.854-4.31-24.669 31.117.166c3.628 7.875 5.848 14.585 15.026 27.568l-9.418 3.1.593 15.89-43.484.799Zm26.502-6.402c-.328-.651-.512-1.096-.458-1.39.11-.38.4-.367.774-.17 1.333.619 2.664 1.15 3.618-.08.477-.641.335-1.543-.088-2.059-.771-1.503-3.099-.367-3.887-.3-.732.028-1.025-.582-.437-1.467.353-.387.57-.81.621-1.307.354-3.473-5.545-2.142-3.436 1.185.955 1.23.423 1.987-.962 1.222-1.524-.841-3.61.001-3.51 1.822.076 1.38 1.827 2.204 3.275 1.347.335-.198.594-.41.831-.519.674-.306 1.167-.07.954.697-.592.963-1.283 2.346-.67 3.237.618 1.305 2.675 1.149 3.368.32.477-.572.598-1.49.007-2.538Zm70.602-70.688L136.84 79.859c2.784-3.728 4.422-6.726 5.957-9.71l40.36 24.975.18 13.73Zm-72.093-8.872 5.11 23.944-32.11.986c-1.898-8.037-13.23-26.11-13.196-25.791l8.215-21.144 42.619-.753-10.638 22.758Zm-12.2-8.745c.8-.758.727-1.892-.191-3.155-.89-1.223-.517-2.122.889-1.307.78.503 2.006.59 2.829.315 1.043-.375 1.465-1.219 1.293-2.272-.209-1.274-1.634-1.601-3.14-1.019-.437.1-.698.461-1.073.638-.811.372-1.153-.604-.426-1.887.805-1.422-.08-2.92-1.606-3.027-1.632-.116-2.57 1.75-1.89 2.752.977 1.44.303 2.466-1.08 1.514-1.992-1.368-4.531.45-3.432 2.517.533 1.002 2.228 1.24 3.731.574 1.258-.556 1.644.053.898 1.36-1.532 2.687 1.096 4.982 3.198 2.997ZM52.055 68.419l-.127 12.806c-4.853-2.853-4.14-2.901-4.316-2.854 1.477 3.824-.095 8.606-4.131 11.01 7.458 6.754 3.57 11.653 2.418 14.937 9.473 5.283 4.868 14.754 4.898 14.267 9.252-.1 9.199 7.975 9.521 11.339 11.428-.906 10.045 8.24 11.567 9 5.503-2.568 11.994-1.826 13.835 5.584 1.182 4.2-2.963.202-4.737.409-6.257 4.033-5.14-1.983-5.51-2.812-5.228.582-5.974-1.898-8.297-3.628-5.638 1.18-5.203-.685-4.927-4.118-4.452-.824-5.462-3.572-7.275-6.247-6.123.298-3.696-4.06-3.686-4.91-.755-.652-4.33-4.048-4.569-8-6.318-1.67-2.421-4.901-2.212-5.991-2.428-2.919-3.09-5.09-2.355-8.83-5.626-2.513-1.003-5.024-.633-6.512-1.9-4.825-.598-6.3.077-8.938-3.663-4.144-1.512-3.947 1.075-6.54.325-.465-.628-2.561-.598-3.804l9.982-6.168Zm31.472-47.972L73.16 2.627l71.912-1.185s-7.646 10.951-10.59 16.447c-17.981-2.53-34.741-.912-50.956 2.558Z" id="path4035-6-4-6" fill="#D40000" transform="rotate(.945 103.961 131.61)"/><path d="M37.139 250.503c-6.33-1.326-7.533-9.22-1.72-15.897.469-.54.781-1.368.781-1.368-2.098-3.12-3.062-4.215-5.202-7.313 1.797-2.81 3.92-4.967 5.263-7.403-.09-.417-.712-.824-1.465-1.892-4.375-6.208-4.887-8.69-2.781-12.459 1.98-3.543 6.841-4.029 9.856-.984 3.257 3.29 3.16 6.331-.898 12.584a34.375 34.375 0 0 0-1.53 2.609c1.188 2.293 3.176 4.411 5.213 7.288-1.806 2.31-3.651 4.48-5.23 7.13 0 0 .173.56.54.962 6.733 7.363 6.354 15.954-1.107 16.807-.384.044-1.319.002-1.72-.064Zm51.578-96.24c-.178-.28-23.156 38.238-23.156 38.238l2.724 1.68 22.001-35.618c.345.253.684.555.622.985 0 0-18.102 30.557-21.12 35.443-.081.132 4.66 2.83 4.818 2.835 6.861-3.516 35.764-1.046 54.904-2.534.076.058-.183 6.722-.183 6.722s-4.453-4.971-5.336-4.987c-4.358-.08-8.91 1.847-12.194 1.693-2.085.675-4.351 8.337-4.79 10.255-3.82-.379-7.438 3.663-6.495 7.357 1.315 4.099 3.451 3.753 5.77 3.783-.139 4.667-8.187 17.096-8.121 23.153 8.715-.832 18.154-1.147 27.11-4.004 0 0 3.22-9.758 7.38-16.224 1.367-2.47 1.982-6.154 1.372-8.459-.403-2.529.681-3.187 1.63-4.978.577-1.119 2.777-1.11 3.056-1.195 5.698-1.75 3.53-9.104 1.073-10.378-3.067-1.589-7.32 1.022-9.027-2.275-1.805-3.489-1.36-10.774-1.36-10.774l-43.223.92s11.83-23.363 11.517-23.528c-3.37-1.774-8.93-8.044-8.972-8.11Zm-28.563 21.559c.163-2.346-.092-40.414-36.446-58.741l.11-5.007c.216-.261 33.027 14.127 39.254 52.806l9.788-15.882 3.72 1.387c-5.325 8.28-15.86 28.338-16.426 25.437Zm-22.113-13.35c1.412-4.42-.984-2.048-3.208-2.191-1.531-.8-3.04-1.84-4.464-2.742 10.44-5.743 4.172-5.37-1.9-1.358-1.604-.835-3.647-2.687-3.771-2.526 11.758-7.826 7.297-7.906-.217-2.257.176-5.184.024-3.237.097-4.98 6.369-7.04.392-3.173-.051-3.083-1.71-6.89 5.947-5.569 6.734-.351 1.36.975 4.021 2.165 4.87 6.442 3.705 2.27 3.352 4.206 3.229 7 1.457 1.39 5.207 4.312.936 7.138l-2.255-1.092Zm-14.193-31.337.18-3.83c.472-1.568 28.594 17.762 27.012 43.224.325-.184-3.106-1.725-4.097-2.582-.295-18.713-20.471-34.837-23.095-36.812Zm159.774 18.836c-18.687-8.176-36.633-28.212-37.996-54.635l-10.185 17.682-3.744-1.51c.352.28 8.045-14.552 16.049-24.848 2.857 33.319 16.223 48.614 36.268 59.554l-.392 3.757Zm-97.326-10.595c-18.007-1.93-44.395-25.917-37.178-59.143 1.046-3.379 18.685 14.957 18.686 14.956.095-.847 15.99 23.788 15.635 28.657 13.129 3.5 38.576-.443 38.576-.443 21.285 4.377 43.837 26.844 36.37 59.425 0 0-5.699-3.601-10.482-7.822-14.54-13.571-19.27-24.841-24.549-37.273-18.352-1.354-35.477 2.21-37.058 1.643Zm96.84-29.17c.34 1.644.194 5.062.256 5.055-4.69 5.269-5.184 5.371.775 3.604-.66 4.99-4.333 5.868-6.551 4.21-.818-.61-.882-4.04-.882-4.04-3.646-.849-4.911-1.918-4.46-5.824-4.191-.43-4.06-2.464-3.787-6.71-3.843-2.076-2.95-5.494-.722-6.984l1.905 1.264c-.595.549-.245 3.923 3.051 1.354 0 0 2.706 2.168 4.003 3.005-9.554 6.355-3.723 4.897 2.158.728 1.129.742 2.673 1.959 3.475 2.482-7.743 5.737-10.237 10.469.78 1.857Zm.818 21.062-.245 4.472c-19.259-11.327-24.674-26.594-26.362-42.922 0 0 2.59 1.839 3.773 2.6 2.051 21.066 21.643 34.99 22.834 35.85Zm-105.37-53.63 45.726-.462-11.742 23.344 6.525 7.44s15.474-24.964 23.246-38.035l-2.79-1.603-22.203 36.128-.922-.987 21.88-36.094c-1.361-.859-3.935-2.23-3.935-2.23s-38.927 1.267-55.852 1.478c.51-2.341.56-6.475.56-6.475 2.554 3.535 5.282 6.685 11.043 3.074 0 0 6.886.119 7.134-.212.819-1.374 2.24-5.672 3.9-10.528 6.632-.553 5.918-3.746 6.656-4.809-.665-9.408-5.872-4.25-5.474-7.68 1.395-6.126 8.811-20.062 7.826-21.256-1.995-1.274-21.487 2.892-27.167 3.685-.53-.194-3.157 8.916-6.024 12.84-3.118 4.267-4.18 8.807-2.481 13.044-1.61 4.715-4.85 4.288-7.425 5.657-2.892 3.233-2 8.095.838 9.934 1.977 1.281 4.977 1.163 7.993-1.366l2.688 15.114Zm90.314-34.234-5.468-7.082 5.061-7.628c-2.1-3.205-5.558-8.107-5.018-12.046 1.192-7.812 11.741-6.843 12.781.595.556 3.45-1.9 7.734-4.406 11.387 1.745 3.053 2.482 3.544 5.003 7.036-1.421 2.601-4.9 7.704-4.9 7.704 2.284 3.693 5.442 7.753 5.281 11.551-.18 3.262-3.684 6.623-7.016 5.983-10.361-1.987-4.777-13.102-1.318-17.5Z" id="path4039-1-1-4" fill="#E2CF00" transform="rotate(.945 103.938 130.898)"/><path d="M73.594 1.316c2.835 5.316 10.89 19.659 10.89 19.659 19.153-3.964 35.26-4.973 52.185-1.273l12.093-18.299-75.168-.087Zm2.497 1.08h3.462l6.793 13.948 11.719-2.337-1.998-11.583 3.317.02 1.677 11.138 17.218-.436 2.23-10.75 3.176.038-2.279 10.925 13.634 1.834 6.672-12.798h4.582L136.15 18.198c-18.045-3.51-35.97-2.33-50.974 1.354L76.091 2.395Zm6.53 0h10.11l2.425 9.415c-1.242.647-5.878 1.752-7.429 1.597-1.852-3.238-3.765-7.92-5.105-11.013Zm19.497 0h15.385l-1.314 8.016-12.902.412-1.169-8.429Zm24.389 0h11.855l-4.68 9.734-8.94-1.214 1.765-8.52Zm45.136 9.744a9.142 9.142 0 0 0-1.92.179c-3.076.643-4.687 3-4.713 6.851-.012 1.765 1.29 4.884 3.272 7.834a25.72 25.72 0 0 1 1.61 2.762l-5.159 7.568 5.489 7.156s-.855 1-1.363 1.718c-2.517 3.553-3.68 6.875-3.52 9.6.174 2.942 1.894 5.188 5.116 6.265 1.768.591 4.288-.132 5.983-1.664 1.367-1.237 2.056-2.845 2.085-4.732.041-2.697-1.264-5.964-3.865-9.527-.706-.968-1.052-1.728-1.052-1.728s3.64-5.172 5.014-7.538l-4.975-7.132c3.956-5.932 4.753-7.246 4.863-10.892-.179-3.612-2.805-6.698-6.865-6.72Zm-.495.435c.17-.003.343.002.514.015 4.517.347 6.903 3.697 6.303 7.998-.613 4.1-4.317 7.922-4.912 9.241 1.782 2.89 5.14 6.997 5.14 6.997-1.425 2.585-5.106 7.596-5.106 7.596s.213.415.446.745c3.843 5.434 4.9 8.003 4.636 11.26-.209 2.569-2.241 4.861-4.776 5.327-4.016.737-7.31-2.107-7.714-5.947-.247-3.361 1.924-6.629 3.612-9.178.715-1.068 1.328-2.09 1.328-2.09l-5.469-7.166c1.667-2.638 3.773-5.225 5.32-7.452 0 0-.816-1.309-1.572-2.501-3-4.728-3.836-7.152-3.374-9.764.567-3.214 3.063-5.038 5.624-5.08Zm.407 2.424c-1.669.045-3.263 1.273-3.898 3.049-.917 3.33 2.595 8.371 4.194 9.725 2.995-3.437 4.903-7.292 3.796-9.991-.728-1.633-2.423-2.827-4.092-2.783Zm.412 1.08c3.025.062 4.157 3.645 1.823 7.722-.805 1.39-1.992 2.845-1.992 2.845s-1.109-1.379-1.775-2.42c-2.704-4.223-2.006-7.52 1.314-8.109.218-.028.429-.043.63-.039Zm-60.195 1.862c-7.918.042-18.498 1.358-27.797 3.465-.808 4.977-3.311 9.97-6.042 13.934-2.63 4.287-3.58 8.02-2.7 10.577.823 2.395-1.425 5.969-3.894 6.194-3.069.279-5.022 2.411-4.984 5.448-.088 4.865 3.277 7.848 7.845 6.193a.992.992 0 0 1 .766.242l-.267 27.846c-2.57.402-4.287.96-6.473 2.119-4.064-4.62-7.45-7.89-10.565-10.185-.09-6.198.165-12.43-.111-18.614-4.594 1.77-9.488 4.672-13.514 7.345-1.351.903-1.487 1.406-.979 3.692.285 1.282.215 1.42-.844 1.679-2.18.532-2.86 3.997-1.018 5.172.865.551.868.58.31 1.834-.862 1.939-.83 5.647.064 7.195.51.883.475 1.168-.2 1.606-2.32 1.508-2.163 4.734.263 5.337.62.154.782.42.577.948-.759 1.954-.068 4.923 1.672 7.17.905 1.17.902 1.157.306 1.694-1.954 1.762-.895 4.918 1.765 5.265.912.118.917.12 1.023.817.305 2.004.443 2.563.887 3.503.56 1.187 1.232 1.988 2.492 2.966 1.028.799 1.029.81.48 1.99-1.014 2.179.599 4.341 3.171 4.252 1.311-.045 1.312-.049 1.406.416.463 2.276 3.172 4.946 5.397 5.313 1.143.189 1.324.46.936 1.427-.625 1.557-.22 2.56 1.357 3.368 1.058.541 1.367.561 2.526.164 1.311-.449 1.325-.442 2.44 1.045 1.57 2.097 2.61 2.624 5.23 2.642 1.729.013 1.793.057 1.805 1.273.026 2.878 3.076 4.078 5.042 1.984.709-.756.707-.752 1.338-.29 2.765 2.02 5.218 2.544 4.99.652-.535-4.426-3.744-7.127-3.744-7.127l4.01 1.045c.176 4.674.343 10.31 1.32 14.206L70.184 182.15s-1.084-.66-2.225-1.447a155.93 155.93 0 0 0-5-3.304c-.645-.404-1.47-.896-2.118-1.442-.622-.517.384-1.2.596-1.747 4.116-7.332 10.556-16.147 15.244-24.715l-4.538-1.751c-3.472 5.454-6.029 9.844-9.26 14.873-3.22-23.568-19.703-44.258-39.643-52.972l.068 6.17c20.934 10.686 35.875 32.74 35.477 58.753-.082.098-1.753-.9-4.01-2.4-1.19-.79-3.586-2.354-3.884-2.506.969-28.808-27.66-45.842-27.71-45.037 0 0-.18 3.723-.261 5.448 12.2 8.157 21.784 22.997 22.754 36.202.011.108-5.726-3.57-5.726-3.57 3.414-1.697 2.474-6.092.015-7.283-.77-.344-.815-.511-.432-1.548.787-2.128-.656-5.332-2.642-5.87-.871-.235-1.015-.463-1.057-1.683-.078-2.231-1.315-3.69-3.545-4.18-.615-.136-.62-.141-.654-.91-.188-4.323-4.425-6.083-7.603-3.16-.355.327-.727.949-.727.949l-.024 4.688c1.085-.596 2.732-2.633 3.408-2.55.747.087.385.589-1.294 2.037-1.09.94-2.148 1.931-2.148 1.931l.068 6.174c1.81-1.173 3.622-2.499 5.318-3.677 1.462-1.018 2.21-1.349 2.39-1.055.203.33-.124.762-.954 1.258-2.229 1.481-4.822 3.22-6.696 4.683l-.005 4.254.359.527.106 3.726-.334.082.005 4.693 44.03 28.068 22.405-35.272.369.372-22.41 35.123s.921.791 1.794 1.248c.89.497 2 1.16 2.952 1.79.449.734 1.234 1.38 2.076 1.287.771-.84 4.137-1.729 4.46-2.116 12.536-.184 48.52.06 48.52.06l.204 5.743c-1.617-5.569-6.834-6.718-10.934-4.224l-6.734.01c-.052 0-3.986 7.153-4.563 10.887-2.83-.384-6.597 2.368-6.788 5.162-.458 3.976 2.159 6.874 5.58 6.31.063.025-.536 3.939-2.472 6.996-2.568 5.397-3.892 8.417-5.46 13.02-1.06 2.894-.698 3.408-.518 3.48 10.047-.146 19.29-1.116 28.825-4.186 0 0-.177-.678-.262-1.06-.344-1.54.953-4.693 4.62-11.205 2.833-5.03 3.644-6.95 3.928-9.324.144-1.202.118-1.513-.3-3.755-.027-.208-.19-.51-.146-.735.297-1.51 2.6-4.163 2.652-4.099 0 0 .836-.154 1.169-.183 5.194-.364 6.803-7.41 2.42-10.587-2.137-1.306-3.395-1.405-5.66-.813l-.038-27.323 3.157.118 3.471-1.71c5.576 4.752 9.213 9.61 15.215 13.267l-.097.242-4.46-3.053.01 17.903c5.163-2.683 9.976-5.156 14.618-8.908l-.936-.808.039-2.56c4.362.344 4.781-5.198 1.197-5.859 0 0 .083-.446.427-1.152 1.1-2.251 1.237-4.374.436-6.715-.488-1.43-.467-1.789.112-1.786 2.65.015 2.406-4.677-.296-5.704-.93-.354-.864-.06-.674-2.971.143-2.187-.391-3.67-2.012-5.589-.612-.724-.56-1.073.228-1.553 2.261-1.378.623-5.356-2.158-5.24-1.086.045-1.084.044-1.178-1.04-.247-2.85-1.843-5.569-3.932-6.706-.648-.353-.743-.641-.378-1.128 1.78-2.375.115-5.622-2.396-4.674-.486.184-1 .369-1.139.412-.198.06-.359-.216-.742-1.292-1.044-2.931-1.97-3.85-5.295-5.245-.653-.275-.692-.468-.397-1.805.51-2.308-2.677-4.457-4.398-2.966-.7.607-.724.602-1.513-.406-1.571-1.805-4.129-3.063-6.405-3.3-1.088-.098-1.252-.183-1.163-.6.604-2.829-2.154-4.672-4.446-2.971-1.102.816-1.386.841-2.517.208-2.376-1.33-3.418-1.38-3.665-.18-.077 1.002.145 2.186.387 2.923.579 1.987 1.328 2.725 2.968 4.123 0 0-2.722-.753-3.409-.89.068-.072-.198-9.43-1.983-14.729L137.3 80.484l9.969 6.56-15.943 25.166 4.64 1.882s6.197-10.273 9.44-15.31c2.125 25.015 21.503 46.949 39.056 53.456-.059.03.057-3.596.131-5.35-18.52-8.138-36.136-30.878-35.026-58.17l7.438 4.752c2.159 21.874 11.707 34.692 27.622 45.53V132.3c-10.96-8.095-20.068-18.668-22.483-35.587 0 0 3.716 2.343 5.382 3.455 0 0-.47.267-.713.469-1.988 1.652-1.39 5.04 1.232 6.958.426.311.43.312.029 1.379-.795 2.117.43 4.675 2.502 5.21 1.188.308 1.18.293 1.202 1.65.043 2.636 1.107 3.85 3.928 4.481.385.086.399.126.392 1.306-.015 2.913 2.79 4.873 5.232 3.654.765-.382 3.171-2.39 3.171-2.39v-4.69s-1.09.89-1.876 1.622c-1.378 1.281-1.813 1.44-1.809.658.003-.568.637-1.312 1.959-2.294.686-.509 1.726-1.596 1.726-1.596v-5.463s-.615-.973-.577-2.139c.02-.634.199-1.596.199-1.596l.66.014-.01-6.324-.8-.624.034-4.19L140.47 68.15l-22.677 35.989-.568-.663 22.702-35.761-6.032-3.847-3.641 1.79s-25.2-.396-49.776-.082c0 0-.059-.676-.049-2.588.013-2.404.124-2.74.568-1.728.994 2.273 3.462 3.643 6.327 3.513 1.618-.074 1.843-.14 3.641-1.108.669-.36.79-.37 3.942-.348 3.38.024 3.987-.1 3.99-.813 1.177-2.67 2.335-5.77 3.007-8.1.323-1.13.467-1.627.732-1.858.205-.179.367-.138.858-.17 2.162-.138 2.764-.277 4.32-1.794 3.122-3.13 1.332-9.498-3.19-9.522-1.198-.007-.378-3.187 2.153-8.347 2.618-5.338 2.985-6.157 4.34-9.735.884-2.339 1.307-4.016 1.415-5.037-.25-.001-.506-.001-.761 0Zm-.238 1.544c.626.524-.938 4.38-3.758 10.214-2.327 4.816-3.368 7.225-3.864 8.97l-.456 1.612c-.152.538-.353.804-.887 1.185-.38.271-.91.67-1.178.885-.763.61-.943.417-.757-.812.347-2.282 1.253-4.742 3.346-9.024 1.658-3.408 3.28-7.06 4.543-10.785.284-.87.416-1.754.887-2.076.678-.38 1.396-.305 2.124-.17Zm-3.394.222c.432.298-1.615 5.578-5.159 12.91-4.422 9.147-4.656 15.555-.679 17.123 3.136 1.236 6.294-2.212 4.36-4.727-.931-1.21-2.937-1.312-3.632-.058-.38.683.147 1.471.82.512.977-1.395 2.936.216 2.462 1.868-.324 1.133-1.914 2.045-2.9 1.848-4.344-.865-3.525-6.98.98-7.315 4.312-.322 6.272 5.455 3.142 8.762-.993 1.07-2.155 1.604-4.18 1.602-2.806-.004-5.429-2.317-5.163-4.461.37-1.963.427-3.55-.238-5.095-.214-.497-.475-.99-.46-1.616.04-1.739 1.474-4.438 4.674-11.105 1.146-2.389 2.553-6.53 3.248-9.145.246-.764.125-.98.413-1.085.715-.157 1.737-.372 2.312-.018Zm-3.7.092c.657.028-.854 4.839-2.758 8.937-1.446 3.138-3.42 7.169-4.888 10.896-.47.79-.783.852-1.745.339-1.06-.565-.747-1.465 1.755-6.43 1.886-3.772 3.699-8.038 4.97-12.334.115-.516.289-.962.717-1.21.653-.284 1.29-.227 1.95-.198Zm-3.52.542c.35.462-1.942 6.947-5.488 14.26-.758 1.552-1.27 2.97-2.032 4.557-.366.367-1.776.554-2.482.697-.728-.097-.038-1.46 2.036-5.647 1.691-3.412 2.172-4.378 3.06-6.454.647-1.52 1.59-4.132 2.473-6.571.07-.197.139-.634.33-.735.657-.278 1.46-.39 2.104-.107Zm-3.461.407c.057.156-.074.477-.122.725-.557 2.61-1.832 5.04-2.763 7.534-.112.34-1.133 2.463-2.27 4.717-1.136 2.254-2.18 4.407-2.317 4.786-.138.379-.516 1.385-.839 2.235-2.04 4.369.154 7.812 2.856 8.053 4.216.348 4.614-5.55 1.64-6.117-1.122-.188-2.355.426-2.362 1.713-.079.673.75 1.454.739.488-.045-1.757 2.416-1.676 2.719-.184.59 2.909-2.722 4.33-4.695 2.047-.813-.94-.806-2.014-.654-2.976.409-2.603 3.415-4.485 6.2-2.52 3.813 2.687 2.497 8.632-2.428 9.599-1.684.437-3.807-.122-5.135-1.486-.846-.868-1.402-2.147-1.615-3.735-.118-.884-.165-1.924-.029-2.898.4-3.052 2.63-7.509 4.587-11.284 1.51-3.131 2.697-7.268 4.073-10.596.388-.283 2.473-.546 2.415-.101Zm-3.72.416c.225.069-.926 3.685-2.569 7.591-1.808 3.963-4.154 8.497-5.484 12.396-.419.957-.724.929-1.915-.179-.629-.584-.275-1.455 1.93-5.946 3.391-6.909 4.65-9.856 5.159-11.501.239-.773.43-1.722.94-2.023.652-.307 1.293-.533 1.94-.338Zm-3.388.866c-.36 1.163-1.535 4.61-3.545 8.694-1.261 2.579-2.493 5.435-3.738 8.095-.695 1.642-.715 1.64-1.9 1.887-1.999.416-2 .394-.233-3.179a166.64 166.64 0 0 1 2.244-4.33c1.312-2.43 3.338-7.163 4.073-9.522.197-.632.471-1.225.79-1.549.206-.109 1.78-.577 2.309-.096Zm-4.37.435c.358-.013.68.051.83.247.089.811-2.107 6-3.457 8.404-.412.738-.821 1.693-1.285 2.545-1.72 2.73-3.787 7.979-4.32 10.156-.847 3.46 3.116 6.076 5.172 3.56 1.304-1.522-.054-4.262-1.933-3.497-.657.268-.389.56.508.635 1.48.124 1.592 2.401.024 2.901-1.743.533-3.028-.976-3.021-2.52.013-3.169 3.486-4.333 5.66-2.602 2.168 1.802 2.513 6.086-.771 7.746-3.202 1.618-7.145-.576-7.937-4.413-.605-2.929.05-5.612 2.875-10.127 1.623-2.599 4.145-7.085 5.435-11.022.253-.667.476-1.22.708-1.5.215-.249.918-.491 1.513-.513Zm85.846 9.218-4.301 5.457c1.24 1.79 4.19 5.308 4.19 5.308l4.077-5.254-3.966-5.511Zm.039 3.053 1.779 2.303-2.036 2.4-1.91-2.24 2.167-2.463Zm.16 11.864s-5.2 5.685-4.005 9.904c1.067 3.758 6.732 4.672 8.111-.827.097-.438.02-1.03-.038-1.766-.119-2.24-4.068-7.311-4.068-7.311Zm0 1.122s1.493 2.16 2.545 4.074c1.178 1.82 1.487 6.908-2.696 6.75-2.267.233-4.431-2.75-2.628-6.397.491-1.11 2.779-4.427 2.779-4.427Zm-85.821.915c.289-.045.58.578.761 1.03.248.616-.46 2.389-1.207 3.271-.142.148-1.097.23-2.517.953-.003-.664.403-2.118.67-2.763.967-.954 1.789-2.09 2.172-2.428a.237.237 0 0 1 .121-.063Zm-10.362.319c.64.722 1.267 1.348 1.242 1.795-.038.654-.809 1.462-1.392 2.037-.732.721-2.191.292-2.187-.643.002-.346 2.087-3.19 2.337-3.189Zm22.008.939c.618.33 1.243 1.454 1.324 1.964-.905 4.862-4.254 10.805-4.14 10.582 0 0-2.053.365-2.924-.078 2.255-3.124 3.765-7.1 4.79-10.354.44-1.404.64-2.11.95-2.114Zm-1.9.682c.345-.02.478.258.189 1.011-1.326 5.377-4.306 11.029-6.648 12.058-3.076 1.35-6.134.229-7.447-2.08-1.422-2.501-1.17-6.448 3.568-7.312 2.787-.285 5.643 1.908 4.156 5.434-1.656 2.615-6.105 1.158-4.8-2.216.985-1.237 3.05-.164 2.375 1.234-.342.709-.01 1.144.495.653 1.622-1.577-1.046-4.281-2.846-2.928-2.936 2.208.69 7.062 4.107 4.98 1.041-.635 2.924-4.195 3.631-6.79.304-1.116.579-2.176 1.3-2.854.685-.645 1.476-1.165 1.92-1.19Zm-7.782.213c.167.006.364.09.635.222.342.169.745.476.698.871-.054.458-.316 1.453-.844 1.936-.318-.11-1.195-.459-1.794-.62-.375-.1.125-.908.354-1.354.37-.72.575-1.022.878-1.05.023-.003.049-.006.073-.005Zm-9.683.184c.442-.009 1.143.48 1.605.546.089.668-.762 2.097-2.148 3.784-1.137 1.384-1.131 1.387-1.886-.135-.492-.991-.505-.964.897-2.705.753-.936 1.117-1.365 1.445-1.48a.52.52 0 0 1 .087-.01Zm4.398.488c.02.357-.162 1.144-.316 1.602-1.571 4.684-5.242 9.325-8.271 10.466-3.954 1.289-7.574-.79-7.666-5.58.1-5.643 6.834-7.208 8.868-2.06.919 2.324-1.584 5.818-3.748 5.235-2.183-.588-3.095-3.988-1.294-4.829 1.18-.55 2.4.373 2.143 1.62-.09.434-.065.493.189.446 1.122-.21.53-2.458-.795-3.02-2.504-1.06-4.395 2.306-2.706 4.815 2.022 3.004 5.203 2.428 7.035-1.277.312-.631.906-1.536 1.314-2.008 1.11-1.282 1.463-1.786 2.444-3.48.54-.932.83-1.522 1.106-1.828.439-.03.74.092 1.697-.102Zm8.868.247c.474.004.84.311.829.968-.01.549-.796 2.862-1.164 3.416-.14.212-.47.956-.519.793-.462-1.54-1.288-2.015-1.406-2.419-.137-.474.28-.928.466-1.355.395-.906 1.184-1.408 1.794-1.403Zm8.359.73c.573-.004 1.384.258 1.551.683.524.916-3.017 9.448-3.146 9.474l-2.643-.116c1.587-3.402 2.99-6.773 4.01-10.021.07-.012.146-.019.228-.02Zm35.453 13.505 3.36 1.993-22.148 35.123-3.22-2.458 22.008-34.658Zm-55.26.726c20.688.077 49.18.038 49.18.038l-1.203 2.28s-31.119-.304-47.977-.272V66.67Zm-27.928 1.437-.044 11.544c-2.14-1.87-8.618-5.98-8.65-5.883 0 0 5.582-3.723 8.694-5.661Zm88.58 1.146 2.08 1.312-23.274 36.966-1.294-2.536 22.488-35.742Zm-60.647.513h3.239v3.653h-3.239v-3.653Zm7.418 0h3.933v3.653h-3.933v-3.653Zm8.592.039h4.044v3.653h-4.044v-3.653Zm8.432.015h4.087v3.653h-4.087V69.82Zm8.495.024h4.034v3.653h-4.034v-3.653Zm8.5.077h4.126v2.574l-.626 1.08h-3.5V69.92Zm22.24 1.19 39.473 25.485-.025 3.517-41.092-26.5 1.644-2.502Zm-2.59 2.981.34.242-1.673 2.555-.344-.194 1.678-2.603Zm-60.975.377h44.306l-1.333 2.24-42.973-.062v-2.178Zm-36.375 1.142c.299-.019.88.244 1.784.75 2.18 1.22 3.55 3.793 2.609 4.723-.837.826-2.798-.945-4.015-3.474-.644-1.341-.814-1.97-.378-1.999Zm78.398 2.207-14.294 22.799c-3.232-4.42-6.854-8.238-14.764-5.652-4.124-3.182-8.484-3.673-13.125-.972l.053-16.098 42.13-.077Zm-73.583.01 1.115.962c-.33.628-.48 1.537-.693 2.347-.017-1.111-.114-2.217-.422-3.31Zm90.616.236 44.04 28.915v2.68L137.94 80.359l1.537-2.294Zm-96.459.658c.57-.01 1.127.232 1.547.736.666.799.392 2.263-.543 2.888-1.861 1.246-4.095-1.165-2.618-2.825.463-.52 1.045-.788 1.614-.799Zm7.293.344 2.405 1.92c-4.175 23.757 7.75 47.74 33.436 54.927l.29 3.044c.049.145-10.912-3.249-15.7-6.822-6.545-4.419-12.075-10.641-15.888-17.879-2.602-4.666-4.03-9.806-4.95-13.959-1.09-7.125-1.06-14.179.407-21.231Zm-2.73 3.222c.922.038 1.022.7.281 1.974-.952 1.638-2.38 2.778-4.693 3.75-1.275.536-1.608.293-1.46-1.064.222-2.04 1.644-3.533 4.107-4.32.591-.165 1.189-.343 1.765-.34Zm7.079.257.955.808a2.001 2.001 0 0 0 .65 3.895 2 2 0 0 0 1.973-1.665c.36.308.697.595.96.823a3.155 3.155 0 0 1-2.933 1.989 3.155 3.155 0 0 1-3.157-3.15c0-1.153.625-2.153 1.552-2.7Zm1.605 1.577c.11 0 .215.02.315.049.252.213.455.387.698.595.07.146.112.306.112.479a1.124 1.124 0 0 1-2.25 0c0-.62.504-1.123 1.125-1.123Zm-7.579.726c-.261 3.064-.179 6.267-.082 9.474-.593-2.541-1.915-4.443-4.117-5.744 1.52-1.048 3.111-2.323 4.2-3.73Zm11.574 2.405 2.138 1.843c-1.838 25.148 20.247 34.691 20.84 34.271l.93 2.845c-15.25-5.18-25.792-20.909-23.908-38.96Zm123.014 60.29-.111 3.167c-17.305-6.701-37.028-31.423-36.777-55.11-4.443 6.797-6.94 11.333-10.754 17.456l-3.036-1.442c4.993-7.423 9.74-15.363 14.747-22.655.57-.824 1.037-1.201 1.063.6-.003 8.15 2.53 41.68 34.868 57.983ZM42.567 89.216c.557-.035 1.353.234 2.357.905 1.583 1.059 3.358 4.33 2.744 5.061-.552.657-2.898-.125-4.063-1.355-2.308-2.438-2.46-4.52-1.038-4.61Zm13.494.33a3.15 3.15 0 0 1 3.157 3.144 3.155 3.155 0 0 1-3.157 3.15 3.155 3.155 0 0 1-3.156-3.15 3.15 3.15 0 0 1 3.156-3.145Zm7.065.3 2.06 2.409c.403 21.106 17.097 27.614 16.941 27.666l.505 2.27c-.931.13-20.655-8.83-19.506-32.346Zm-7.065.841a2.005 2.005 0 0 0-2.007 2.003c0 1.106.898 2.003 2.007 2.003a2.005 2.005 0 0 0 2.007-2.003 2.005 2.005 0 0 0-2.007-2.003Zm0 .88c.62 0 1.125.503 1.125 1.123a1.124 1.124 0 0 1-2.25 0c0-.62.504-1.122 1.125-1.122Zm10.667 1.912c.254.001 1.445 1.727 1.445 1.727s-1.308.458-1.872-.111c-.56-.565-.258-1.62.427-1.616Zm91.411.779 3.094 2.11c1.444 14.239 9.618 27.228 21.944 36.24l-.077 3.527c-15.014-10.124-23.35-23.879-24.96-41.877ZM42.238 94.5c.05-.003.101-.001.15 0 1.892.031 2.694 2.933.67 3.764-1.274.523-2.658-.232-2.794-1.524-.095-.91.583-1.883 1.503-2.153.163-.048.32-.078.47-.087Zm25.814 1.901c.496.002 1.035.286 1.546.862 1.357 1.527 1.344 1.97-.087 2.55-2.013.814-3.686-.318-3.016-2.042.352-.906.919-1.37 1.557-1.37Zm-20.612.073c.164-.004.316.018.456.072 1.484.578-1.733 6.459-3.86 7.055-1.35.379-1.634-.148-1.192-2.211.49-2.294 3.016-4.884 4.596-4.916Zm9.465.135a3.15 3.15 0 0 1 3.156 3.145 3.155 3.155 0 0 1-3.156 3.15 3.155 3.155 0 0 1-3.157-3.15 3.15 3.15 0 0 1 3.157-3.145Zm0 1.142a2.005 2.005 0 0 0-2.008 2.003c0 1.107.9 2.003 2.008 2.003a2.005 2.005 0 0 0 2.007-2.003 2.005 2.005 0 0 0-2.007-2.003Zm-7.889.17c.28 2.912.755 5.607 2.051 9.193-1.216-1.94-2.95-2.903-4.611-4.002 1.165-1.73 2.513-3.46 2.56-5.191Zm7.889.71a1.124 1.124 0 1 1-1.125 1.123c0-.62.504-1.122 1.125-1.122Zm17.862.344c3.291-.07 5.619 2.635 5.474 5.226.096 3.01.205 4.937-.043 8.675l-2.672-4.882c-.038-1.383.198-2.43.092-3.808-.303-3.702-3.939-3.188-4.112-2.82l-1.149-1.863a6.69 6.69 0 0 1 2.41-.528Zm11.593.373c3.084-.003 4.87 1.73 4.965 4.814.18 5.905-.136 19.388-.136 19.388l-6.671.005-3.642-9.01s-.144-.866-.116-1.494c.232-2.89.087-6.106.184-8.715.385-2.766 2.662-4.985 5.416-4.988Zm-15.438.934c.43-.006.827.125 1.13.43 1.548 1.562 1.539 2.586-.03 3.29-2.073.932-3.151.756-3.859-.628-.694-1.357 1.227-3.073 2.76-3.092Zm97.263.426 1.693 1.088s-.356.556-.548.886c-.961 1.65.672 2.617 2.933 1.741.408-.158.757-.382.757-.382l1.396.949s-1.007.542-2.104 1.079c-2.823 1.378-4.851.793-5.533-1.592-.27-.947 0-2.133.529-2.826.27-.355.877-.943.877-.943Zm-71.565.198c2.582-.088 5.095 1.925 5.692 4.63.248 1.267-.073 18.019-.073 18.019l-10.245-.005.18-17.573c-.068-1.112 0-2.211.596-3 1.126-1.4 2.497-2.025 3.85-2.071Zm-10.638.77c-2.07.094-3.245 3.44-1.115 5.017.889.659.908.783.431 3.01-.543 2.54.02 6.02 1.29 7.978.974 1.622.775.793.276-.653-.64-2.711-.327-4.703 1.242-7.853 1.401-2.654 2.759-6.734-1.697-7.47a2.052 2.052 0 0 0-.427-.03Zm85.025.764.926.624s-.138.115-.339.31c-.37.358-1.107.415-1.333.14-.375-.455.746-1.074.746-1.074Zm-73.805 1.296c-2.224-.074-3.689 4.042-.844 5.037.646.417.755.962.354 1.732-.539 1.035-1.078 3.493-.994 4.52.12 1.473.498 3.396.795 4.064.747 1.84.597 1.105.403-1.02-.075-2.376.404-4.09 1.789-6.359 1.644-2.721 3.909-7.147-1.285-7.954a1.817 1.817 0 0 0-.218-.02Zm-38.266.015a3.15 3.15 0 0 1 3.157 3.145 3.155 3.155 0 0 1-3.157 3.15 3.155 3.155 0 0 1-3.156-3.15 3.15 3.15 0 0 1 3.156-3.145Zm14.629.32c.544-.006.954.355 1.45 1.093 1.362 2.027 1.205 2.443-1.421 3.885-2.784 1.528-4.645-2.315-1.983-4.093.805-.538 1.375-.836 1.842-.88.038-.004.076-.005.112-.006Zm-28.888.15c2.935.03 7.522 4.212 5.285 4.818-.32.087-.722.146-.893.136-3.688-.225-7.914-4.99-4.392-4.955Zm14.26.672a2.005 2.005 0 0 0-2.008 2.003c0 1.106.899 2.003 2.007 2.003a2.005 2.005 0 0 0 2.008-2.003 2.005 2.005 0 0 0-2.008-2.003Zm116.27.59 1.464.992s-.896.41-1.95.973c-2.863 1.526-3.694 2.645-2.705 3.643.353.356.77.511 1.522.227 1.985-.769 3.836-2.123 5.688-3.193l1.1.755c-.025-.05-4.377 3.088-6.754 4.408-3.731 1.911-5.862-1.997-3.787-4.607 1.602-1.589 3.318-2.11 5.421-3.198Zm-116.27.29a1.124 1.124 0 1 1-1.125 1.123c0-.62.503-1.123 1.124-1.123Zm118.558 1.05.8.537s-.087.04-2.531 1.442c-2.66 1.525-2.777 1.552-2.924 1.312-.13-.073.051-.696.868-1.244 1.431-.96 3.963-2.128 3.787-2.047Zm-69.205.078c1.812-.035 3.659.823 4.713 2.661.538 1.396.584 2.69.577 4.156l-.043 9.837h-10.318s-.479-6.705 0-12.285c.468-2.803 2.742-4.324 5.071-4.37Zm-32.044 1.456c.655-.048 1.138.594 1.76 1.984.616 1.377.153 2.155-1.784 2.99-.245.106-.524.184-.621.174-1.959-.186-2.76-2.44-1.353-3.808.873-.848 1.488-1.303 1.998-1.34Zm104.866 1.007.897.556s-.46.415-3.792 2.84c-2.69 1.959-3.078 2.491-2.516 3.59.453.888 1.438.772 2.797-.27 1.886-1.447 4.854-3.896 4.854-3.896l.097 1.675c-1.953 1.566-4.31 4.237-6.187 5.254-3.62 1.78-6.219-3.108-2.91-5.516 2.854-2.076 6.76-4.233 6.76-4.233Zm-72.429.004c-2.697-.022-3.7 3.973-.8 4.82.835.446.765.676.209 2.666-.337 1.204-.446 2.69-.262 3.633.217 1.204.484 1.176.373-.116.004-.706.732-2.591 1.46-3.774 2.69-3.741 1.984-7.193-.98-7.229Zm-62.838.049c1.78.012 2.775 2.485 1.232 3.551-1.094.756-3.382-.166-3.375-1.36.006-1.016.808-1.985 1.78-2.157.124-.023.244-.035.363-.034Zm5.12.208c.56-.002.882.817.878 2.438-.006 2.326-.834 4.352-2.26 5.536-2.064 1.714-2.525-2.958-.596-6.048.803-1.288 1.484-1.925 1.978-1.926Zm132.038.614c.508-.008.429.38-.16.789-.457.317-1.234.952-3.637 2.976-.436.367-1.061.846-1.386 1.064-.8.536-1.48.396-1.091-.222.382-.61 5.817-4.6 6.274-4.607Zm-120.915.107a3.15 3.15 0 0 1 3.156 3.145 3.155 3.155 0 0 1-3.156 3.15 3.155 3.155 0 0 1-3.157-3.15 3.15 3.15 0 0 1 3.157-3.145Zm0 1.142a2.005 2.005 0 0 0-2.007 2.003c0 1.106.898 2.003 2.007 2.003a2.005 2.005 0 0 0 2.007-2.003 2.005 2.005 0 0 0-2.007-2.003Zm-37.747.058c21.348 10.77 34.656 30.921 37.94 53.876l10.372-16.417 2.803 1.055-15.114 24.58-.654-.203c-.063-24.013-12.056-46.73-35.395-59.195l.048-3.696Zm37.747.822a1.124 1.124 0 1 1-1.125 1.123c0-.62.504-1.123 1.125-1.123Zm-8.81.13c.933 2.06 2.07 4.222 3.826 6.693-1.78-1.67-3.727-1.597-5.654-1.849l1.828-4.843Zm25.383.446c.33-.016.662.123.92.48.874 1.197 1.035 2.307.427 2.907-.832.821-2.156.497-2.754-.673-.622-1.216.412-2.666 1.407-2.714Zm104.69 1.665.035 1.862s-.398.478-.82.871c-1.19 1.111-2.817 2.882-2.933 3.334-.378 1.47 1.078 2.008 2.512.929.494-.373 1.207-.939 1.207-.939v2.294c-1.21 1.026-2.417 2.035-4.068 1.703-.963-.293-1.807-1.048-1.983-2.013-.69-2.89 2.115-4.502 4.29-6.435.703-.624 1.76-1.606 1.76-1.606Zm-116.817 1.625c.054-.002.106 0 .16 0a3.15 3.15 0 0 1 3.157 3.145 3.155 3.155 0 0 1-3.157 3.15 3.155 3.155 0 0 1-3.156-3.15c0-1.684 1.33-3.06 2.996-3.145Zm63.381.707c1.72-.007 2.631 2.305 1.246 3.614-.544.515-1.772.88-2.468.397-1.917-1.333-.505-3.924 1.222-4.011Zm-3.433 1.833c.996 1.054 1.75 4.115 1.164 4.694-1.297 1.336-5.067-3.11-4.842-6.014.4-1.742 3.31.93 3.678 1.32Zm-46.13-1.669c.721.004.857.65.694 1.03-.155.364-.72.393-1.168.209-.764-.313-.406-1.244.475-1.239Zm-13.658.271a2.005 2.005 0 0 0-2.007 2.003c0 1.107.898 2.003 2.007 2.003a2.005 2.005 0 0 0 2.007-2.003 2.005 2.005 0 0 0-2.007-2.003Zm-15.026.88c3.807.005 7.823 2.997 4.33 3.59-2.593.441-4.274-.07-6.293-1.91-1.027-.935-.661-1.432 1.207-1.64a6.76 6.76 0 0 1 .756-.04Zm15.026 0a1.124 1.124 0 1 1-1.125 1.123c0-.62.504-1.122 1.125-1.122Zm5.27 2.85c.054-.002.111 0 .165 0a3.15 3.15 0 0 1 3.157 3.146 3.155 3.155 0 0 1-3.157 3.15 3.155 3.155 0 0 1-3.156-3.15 3.152 3.152 0 0 1 2.992-3.145Zm62.029.16c.9-.015 1.691.154 2.148.571.558.51-.28 1.49-1.993 2.323-2 .973-5.49.838-5.484-.213.008-1.398 3.027-2.642 5.329-2.68Zm-75.988.828c1.75.009 2.223 5.423.703 8.017-.788 1.346-1.85.446-2.608-2.211-.622-2.18.571-5.814 1.905-5.806Zm14.124.155a2.005 2.005 0 0 0-2.007 2.003c0 1.106.899 2.003 2.007 2.003a2.005 2.005 0 0 0 2.008-2.003 2.005 2.005 0 0 0-2.008-2.003Zm65.403.353c.15.002.338.076.587.198 1.91.936 3.299 5.305 2.303 7.253-1.048 2.051-3.405-1.897-3.384-5.67.007-1.235.087-1.732.431-1.776.02-.003.042-.006.063-.005Zm-84.487.28h.121c1.728.043 2.983 2.425 1.358 3.649-.711.535-1.806.62-2.478.193-1.323-.84-1.251-2.885.126-3.6.295-.153.59-.23.873-.242Zm19.084.247a1.124 1.124 0 1 1-1.125 1.123c0-.62.505-1.123 1.125-1.123Zm-11.791.378c.945 1.403 4.774 5.108 5.304 5.428-1.692-.546-3.433-.314-5.174-.082.197-1.283.404-3.387-.13-5.346Zm61.533.319c25.956 6.062 41.8 33.546 35.536 59.33 0 0-2.185-1.218-2.531-1.8.918-4.462 1.484-11.528.335-18.633-1.95-12.053-11.74-29.74-33.19-35.805-.236-.78-.15-3.092-.15-3.092Zm13.986.189c.294 1.763.577 3.54 1.012 5.126-1.828-1.31-3.9-2.438-6.02-3.348 1.514-.317 2.897-.585 5.008-1.778Zm7.484.566c1.033-.027 2.084.708 2.06 1.979-.009.559-.607 1.563-1.07 1.8-1.726.878-3.496-.795-2.735-2.584a1.904 1.904 0 0 1 1.745-1.195Zm-65.209.682a3.15 3.15 0 0 1 3.156 3.145 3.155 3.155 0 0 1-3.156 3.15 3.155 3.155 0 0 1-3.156-3.15 3.15 3.15 0 0 1 3.156-3.145Zm0 1.142a2.005 2.005 0 0 0-2.007 2.003c0 1.106.898 2.003 2.007 2.003a2.005 2.005 0 0 0 2.007-2.003 2.005 2.005 0 0 0-2.007-2.003Zm-53.708.3c12.896 7.596 24.465 23.75 25.324 42.017l-3.122-2.037c-1.345-12.304-7.657-25.692-22.304-36.666 0 0 .038-1.181.102-3.314Zm71.415 0h16.67v3.585l4.999-2.57v7.931l-5-3.02v3.46H95.84v-3.638l-5.105 2.463.058-7.892 5.047 2.83v-3.15Zm-17.707.58c.62 0 1.125.503 1.125 1.123a1.124 1.124 0 0 1-2.25 0c0-.62.504-1.123 1.125-1.123Zm6.555.63c.02-.002.043 0 .063 0l.2 1.141c-.033-.001-.065-.005-.098-.005a2.005 2.005 0 0 0-2.007 2.004c0 1.106.899 2.003 2.007 2.003a2 2 0 0 0 .757-.145l.194 1.146a3.155 3.155 0 0 1-4.107-3.005 3.147 3.147 0 0 1 2.991-3.14Zm37.655.396c.055-.002.11 0 .165 0a3.15 3.15 0 0 1 3.156 3.145 3.15 3.15 0 0 1-2.444 3.063l-.189-1.132a2.002 2.002 0 0 0 1.484-1.93 2.005 2.005 0 0 0-2.143-2l-.194-1.131c.054-.006.11-.013.165-.015Zm22.134 1.065c3.892.02 5.508 2.25 2.317 3.198-1.478.439-3.412.206-5.323-.639-1.594-.704.6-2.572 3.006-2.56Zm-81.365.213c.942-.004 1.853.14 2.526.46 1.627.769 1.59 1.291-.15 2.293-2.426 1.396-8.141-.018-6.415-1.587.812-.738 2.47-1.16 4.039-1.166Zm21.741.343c.086 0 .172.01.252.03l.35 2.04a1.124 1.124 0 0 1-1.726-.948c0-.62.503-1.122 1.124-1.122Zm37.664.402a1.12 1.12 0 0 1 .364 2.177l-.364-2.177Zm6.866.803a3.15 3.15 0 0 1 3.156 3.145 3.155 3.155 0 0 1-3.156 3.15 3.155 3.155 0 0 1-3.157-3.15 3.15 3.15 0 0 1 3.157-3.145Zm-61.447.793c.187-.01.4.077.626.262 1.891 1.543 2.834 4.81 2.09 7.238-.71 2.317-3.66-1.798-3.642-5.08.008-1.514.365-2.389.926-2.42Zm81.724.276c.26.002.537.2.81.653 1.174 1.952 1.121 5.983-.097 7.239-.692.712-.948.577-1.668-.876-1.23-2.484-.302-7.026.955-7.016Zm-20.277.073a2.005 2.005 0 0 0-2.007 2.003c0 1.106.898 2.003 2.007 2.003a2.005 2.005 0 0 0 2.007-2.003 2.005 2.005 0 0 0-2.007-2.003Zm-58.94.537c2.383 1.5 4.822 2.87 7.36 4.01-2.374-.56-4.13.236-5.94 1.307.348-1.981-.329-3.592-1.42-5.317Zm71.614.424c1.777.25 3.535.54 5.595.154a17.356 17.356 0 0 0-.346 5.334c-1.532-1.98-3.242-3.837-5.249-5.488Zm-12.674-.08c.621 0 1.125.502 1.125 1.122a1.124 1.124 0 0 1-2.25 0c0-.62.504-1.123 1.125-1.123Zm-63.968 1.069c1.46.715 1.503 2.482.082 3.406-1.786 1.161-4.115-.877-3-2.627.993-1.186 1.683-1.177 2.918-.78Zm70.3 1.02a3.15 3.15 0 0 1 3.157 3.146 3.155 3.155 0 0 1-3.157 3.15 3.155 3.155 0 0 1-3.156-3.15 3.15 3.15 0 0 1 3.156-3.145Zm18.464.528c.304-.006.62.063.936.227 1.122.587 1.357 2.074.465 2.942-.988.962-2.336.796-3.001-.368-.759-1.327.282-2.776 1.6-2.801Zm-30.445.464c15.536 5.277 25.94 22.525 23.434 39.13l-1.94-1.83c1.477-9.41-3.701-27.388-21.004-34.769l-.49-2.53Zm11.981.15a2.005 2.005 0 0 0-2.007 2.004c0 1.106.899 2.003 2.007 2.003a2.005 2.005 0 0 0 2.008-2.003 2.005 2.005 0 0 0-2.008-2.004Zm0 .881c.621 0 1.125.503 1.125 1.123a1.124 1.124 0 0 1-2.25 0c0-.62.504-1.123 1.125-1.123Zm-59.07.198c.792.07 2.13-.072 2.443.673.353.943-1.585 2.573-4.044 2.893-1 .06-3.145.314-3.597-.406-.424-.898 2.47-3.132 5.197-3.16Zm-49.32.552c2.1-.092 4.467 2.711 2.341 4.998-1.701 1.757-5.183 4.152-5.183 4.152v-1.539s3.411-2.49 3.467-3.61c.007-1.3-1.067-2.035-2.265-1.253-.236.155-1.173.915-1.173.915l.078-2.58c.634-.693 1.755-1.04 2.734-1.083Zm53.65.658c1.556.06 5.166 5.613 4.247 6.75-.729.9-3.66-1.096-4.762-3.242-.59-1.152-.413-3.205.301-3.474a.54.54 0 0 1 .213-.034Zm24.01.673s.16 12.923-.568 14.143c-2.918 5.27-9.218 2.528-9.755-1.423-.387-2.382-.155-12.696-.155-12.696l10.478-.024Zm.92 0h10.067s-.045 18.19-.451 19.233c-.33.849-1.793 2.314-2.71 2.714-2.957 1.289-6.118-.54-6.9-3.992-.565-2.49-.005-17.955-.005-17.955Zm10.91 0h6.682s.229.964.494 1.756c.463 1.382 2.04 5.346 2.22 5.588.817 1.088.857 12.978.05 14.332-2.948 4.41-7.852 3.127-9.644-1.756-.45-1.565.198-19.92.198-19.92Zm7.792.45c11.983 5.68 21.154 17.723 20.005 33.177l-2.2-2.192c.802-10.666-7.334-23.999-16.83-27.961l-.975-3.024Zm16.5.362a3.15 3.15 0 0 1 3.156 3.146 3.155 3.155 0 0 1-3.156 3.15 3.155 3.155 0 0 1-3.157-3.15 3.15 3.15 0 0 1 3.157-3.146Zm11.82.32c1.173.017 2.605.42 3.676 1.301 1.28 1.053 1.458 1.887.466 2.192-1.919.59-4.222.02-5.668-1.403-1.344-1.321-.186-2.115 1.527-2.09Zm-11.82.822a2.005 2.005 0 0 0-2.007 2.004c0 1.106.898 2.003 2.007 2.003a2.005 2.005 0 0 0 2.007-2.003 2.005 2.005 0 0 0-2.007-2.004Zm-63.139.252c1.681.01 2.453 2.37 1.164 3.566-.529.49-1.971.595-2.599.189-1.726-1.119-.715-3.767 1.435-3.755Zm22.221.6c-.556 1.597-1.45 3.398-2.191 4.63-1.984 3.302-1.727 5.516.368 6.634 3.076 1.642 5.31-2.766 2.28-4.495-1.064-.606-1.064-.614-.68-2.25.48-2.041.564-4.476.223-4.52Zm40.918.029c.62 0 1.125.503 1.125 1.123a1.124 1.124 0 0 1-2.25 0c0-.62.504-1.123 1.125-1.123Zm-30.13.648c-.14-.009-.032.812-.043 2.27-.017 2.352-.214 3.068-1.721 6.222-1.924 4.028-1.668 6.781.717 7.674 1.853.693 3.654-.721 3.666-2.88.005-1.027-.454-1.833-1.159-2.041-.638-.04-1.344-.338-1.295-.644.391-2.405 2.48-6.936-.164-10.6Zm39.808.325c1.557.977 3.16 1.905 5.479 2.022-.988 2.364-.888 4.091-1.052 5.976-.992-2.539-2.524-5.347-4.427-7.998Zm-118.85.367c.125-.001.25.007.374.024 1.489.232 2.747 2.134 2.346 3.552-.35 1.237-.458 1.446-5.25 4.64-2.66 1.772-2.939 1.848-2.939 1.848l-1.425-.958s1.206-.803 3.117-2.085c3.678-2.467 4.219-3.054 3.84-4.156-.41-1.198-1.786-.946-3.96.725-3.22 2.474-3.555 2.637-3.555 2.637v-1.475s1.411-1.12 2.022-1.645c1.492-1.059 3.554-3.087 5.43-3.107Zm95.232.644c.362-.004.64.332.514.653-.06.154-.272.253-.553.252-.577-.003-.608-.822-.034-.9a.554.554 0 0 1 .073-.005Zm32.316 1.716c.68 2.33-.783 6.21-1.68 6.707-.954.943-1.55.043-1.757-2.394.005-1.978 2.274-8.16 3.437-4.313Zm-38.318-1.305c.292 3.354.398 6.14-1.179 8.864-2.043 3.532-1.513 6.561.674 7.229 2.179.665 4.105-.89 3.72-3.005-.119-.647-1.01-1.704-1.552-1.843-.67-.172-.75-.587-.369-1.916.74-2.577.49-5.84-.625-8.197-.103-.352-.512-1.145-.67-1.132Zm7.33 1.118c1.838.01 2.705 2.394 1.33 3.653-.767.701-1.255.383-2.057-1.336-.743-1.594-.514-2.324.728-2.317Zm17.116.488a3.15 3.15 0 0 1 3.157 3.145 3.155 3.155 0 0 1-3.157 3.15 3.155 3.155 0 0 1-3.156-3.15 3.15 3.15 0 0 1 3.156-3.145Zm0 1.142a2.005 2.005 0 0 0-2.007 2.003c0 1.107.899 2.004 2.007 2.004a2.005 2.005 0 0 0 2.008-2.004 2.005 2.005 0 0 0-2.008-2.003Zm0 .88a1.124 1.124 0 1 1-1.125 1.123c0-.62.504-1.122 1.125-1.122Zm-13.542.828c.258-.01.509.033.742.145 1.663.803 1.48 3.1-.354 4.471-1.161.868-1.652.567-2.735-1.674-.587-1.216.955-2.884 2.347-2.942Zm-96.371.262c.17.004.328.03.48.072 1.714.47 2.8 2.466 2.37 3.982-.944 2.338-4.144 3.125-6.574 4.103l-1.26-.919s1.78-1.01 3.51-1.805c1.62-.744 1.88-1.04 1.76-1.979-.236-1.833-1.124-1.767-5.15.397-1.637.88-2.84 1.66-2.84 1.66l-.893-.731c1.332-.875 2.132-1.36 3.588-2.352 2.43-1.66 3.818-2.375 4.834-2.424.059-.003.118-.006.175-.004Zm128.03 1.357c.585 1.778-.61 3.336-2.41 2.638-.977-.38-1.67-1.626-1.064-2.781.81-1.267 3.08-1.048 3.473.143Zm-36.13-.617 2.837 5.085s.037 1.415.063 2.202c.109 3.301.817 4.394 2.754 4.074.139-.023.83-.223.83-.223l1.23 2.07s-1.33.582-1.677.654c-2.281.478-5.439-1.232-5.93-3.517-.475-2.212-.106-10.345-.106-10.345Zm-92.918 2.09c.856.063.492.715.097.93-1.666.846-3.24 1.767-4.98 2.767l-1.164-.721s.898-.5 1.518-.88c1.906-1.17 3.847-2.068 4.529-2.096Zm113.99.653a3.15 3.15 0 0 1 3.157 3.145 3.155 3.155 0 0 1-3.156 3.15 3.155 3.155 0 0 1-3.157-3.15 3.15 3.15 0 0 1 3.157-3.145Zm-13.352.43c.726-.02 1.332.291 1.726.944.842 1.397-.05 3.102-2.095 4.012-1.142.507-1.332.402-2.55-1.399-.824-1.217-.818-1.436.092-2.211 1.02-.869 2.004-1.322 2.827-1.345Zm-110.777.277 45.204 29.21-1.29 2.187-43.827-28.63-.087-2.767Zm134.317.377c2.746.053 6.332 3.227 5.062 4.48a.876.876 0 0 1-.582.223c-3.922-.23-8.25-4.775-4.48-4.703Zm-10.187.058a2.005 2.005 0 0 0-2.008 2.003c0 1.107.9 2.003 2.008 2.003a2.005 2.005 0 0 0 2.007-2.003 2.005 2.005 0 0 0-2.007-2.003Zm-60.37.557 1.197 3.106L67 193.332l-2.211-1.418 23.51-37.43Zm60.37.324c.62 0 1.125.503 1.125 1.122a1.124 1.124 0 0 1-2.25 0c0-.62.504-1.122 1.125-1.122Zm8.262.372c1.101 2.044 2.936 3.297 5.023 4.176-1.97 1.622-2.962 3.727-2.885 5.927-.5-3.303-.932-6.588-2.138-10.103ZM38 156.26c.482.003.917.103 1.26.338 4.217 2.883.345 5.735-.014 5.511l-1.435-.905c.493-.816 1.614-1.924-.19-2.956-1.022-.445-2.162.09-3.156.779l-1.508-1.03s2.954-1.753 5.043-1.738Zm99.426 1.63c.159-.005.314.005.465.034 2.38.459 2.215 2.979-.271 4.146-1.415.665-1.665.53-2.9-1.587-.58-.993 1.171-2.543 2.706-2.593Zm-100.187.924c.253.007.577.228.616.436.122.661-1.106 1.325-1.106 1.325l-1.41-.934c.602-.331 1.232-.78 1.9-.827Zm126.786.605c.345-.027.597.135.699.547.482 1.957-1.698 5.589-3.71 6.178-1.174.344-1.514-.207-1.13-1.829.541-2.278 2.91-4.8 4.141-4.896Zm-72.913.15 3.66 2.651-21.964 34.644-3.801-2.255 22.105-35.04Zm59.769.28a3.15 3.15 0 0 1 3.156 3.146 3.155 3.155 0 0 1-3.156 3.15 3.155 3.155 0 0 1-3.157-3.15 3.15 3.15 0 0 1 3.157-3.146Zm0 1.142a2.005 2.005 0 0 0-2.008 2.004c0 1.106.9 2.003 2.008 2.003a2.005 2.005 0 0 0 2.007-2.003 2.005 2.005 0 0 0-2.007-2.004Zm0 .881a1.124 1.124 0 1 1-1.125 1.123c0-.62.504-1.123 1.125-1.123Zm-50.47.116c2.383 2.682 5.062 8.679 14.41 5.85 3.185 2.59 7.584 4.064 13.005 1.19l.038 16.16-41.509.044 14.056-23.244Zm-75.813.411 40.88 26.85-1.28 2.254-39.638-25.281.038-3.823Zm114.762.025c.04 0 .073.002.102.01 2.09.51 2.325 2.594.383 3.391-1.04.427-1.252.32-2.245-1.137-.396-.582-.62-1.064-.562-1.21.14-.356 1.737-1.062 2.322-1.055Zm26.231 2.206c.731.005 1.458.39 1.8 1.151.511 1.142.216 2.1-.84 2.734-1.746 1.05-3.699-.878-2.792-2.758.364-.755 1.102-1.132 1.832-1.127Zm-25.595 2.192c.963.005 1.773.923 1.304 1.48-.311.37-.71.264-1.222-.324-.6-.69-.636-1.16-.082-1.156Zm11.719.401a3.15 3.15 0 0 1 3.156 3.145 3.155 3.155 0 0 1-3.156 3.15 3.155 3.155 0 0 1-3.157-3.15 3.15 3.15 0 0 1 3.157-3.145Zm8.892.175c2.379.012 5.675 3.978 5.115 6.154-.182.71-1.517.327-3.103-.89-2.143-1.644-3.53-5.273-2.012-5.264Zm-8.892.967a2.005 2.005 0 0 0-2.008 2.003c0 1.107.9 2.004 2.008 2.004a2.005 2.005 0 0 0 2.007-2.004 2.005 2.005 0 0 0-2.007-2.003Zm7.646.407c.657 1.92 1.33 3.92 4.296 5.308-4.603 2.14-5.481 5.743-4.79 10.364l-1.077-.658c.986-4.14 1.733-8.855 1.571-15.014Zm-7.646.474c.62 0 1.125.503 1.125 1.122a1.124 1.124 0 0 1-2.25 0c0-.62.504-1.122 1.125-1.122Zm-.587 5.056a3.15 3.15 0 0 1 3.156 3.145 3.149 3.149 0 0 1-1.42 2.632l-1.018-.76a2.007 2.007 0 0 0 1.29-1.872 2.005 2.005 0 0 0-4.006-.155l-1.023-.764a3.16 3.16 0 0 1 3.021-2.226Zm14.362.402c1.501.008-.834 4.165-2.977 5.298-1.633.862-3.127.93-3.123.14.011-2.066 3.806-5.45 6.1-5.438Zm-14.362 1.62c.621 0 1.125.503 1.125 1.123s-.504 1.123-1.125 1.123c-.617-.068-1.118-.551-1.125-1.123 0-.62.504-1.122 1.125-1.122Zm13.877 3.79c.74.01 1.472.33 1.784.952.403.806.25 1.526-.49 2.255-1.815 1.792-4.285-.048-3.098-2.308.322-.614 1.064-.91 1.804-.9Zm-5.804 1.688c2.528.078 4.442 3.217 3.986 4.993-.402.47-3.186-1.637-3.487-1.853-.355-.629-.377-1.646-.499-3.14Zm-3.447 1.945c2.696 1.806 5.342 3.412 7.922 4.751l-7.903 5.066-.02-9.817Zm-70.548 2.351 42.556.155.005 1.786-43.725.024 1.164-1.965Zm-1.736 2.792h2.861v3.479h-3.927v-1.92l1.066-1.559Zm40.894.082h3.442v3.48h-3.442v-3.48Zm-33.78.025H94.5v3.478h-3.918v-3.478Zm8.15.029h4.233v3.479h-4.233v-3.48Zm8.66 0h4.072v3.479h-4.073v-3.48Zm8.698.058h3.879v3.479h-3.88v-3.48Zm-35.434 4.287 47.201.11v2.086l-48.549-.111 1.348-2.085Zm40.273 4.393c4.805-.053 7.606 5.3 3.85 9.058-3.453 3.454-9.213-.958-6.338-4.844 1.606-2.17 5.553-.42 4.568 1.892-.649 1.522-2.776.813-2.71-.837.003-.663-.487-.21-.544.494-.071.892.847 1.88 1.916 1.882 2.789.006 3.206-3.683.518-5.037-2.4-1.21-4.929.334-5.512 3.397-.064.334-.46 1.17-.762 1.76-.888 1.78-1.174 2.807-1.62 4.84-.204.253-.826.659-1.26.875-1.37.683-1.313.395-.8-1.829 1.477-6.406 3.891-10.532 6.842-11.37a7.06 7.06 0 0 1 1.852-.281Zm14.211.334c2.967-.064 5.202 2.376 5.592 4.26 1.704 5.733-5.923 9.245-8.581 4.05-1.486-2.97 1.59-6.512 4.41-5.131 2.307 1.13 2.158 4.643-.2 4.63-1.279.06-2.058-1.087-1.352-2.008.366-.363.805-.08.99-.687.076-.255-.286-.457-1.16-.28-1.447.293-1.3 3.203.379 3.783 2.5.864 4.637-1.767 3.447-4.369-1.43-3.128-5.303-3.142-7.074.13-.257.476-.66 1.156-.883 1.457-2.642 3.578-2.85 4.113-3.636 6.106-.078.199-.217.346-.456.32-.728 0-1.442.157-1.93.348-.329-.087.11-1.342.141-1.437 1.8-5.545 6.422-11.037 10.313-11.172Zm-22.992 1.558c-.627 1.089-2.51 4.628-3.816 9.856-.344-.214-1.27-.599-1.94-.832-.253-.089-.047-.381-.062-.823.475-2.358 2.002-6.48 3.685-8.579.357-.262 2.653-.344 2.133.378Zm2.69 1.045c-1.61 2.053-3.294 7.51-3.645 10.325-.053.425-.13.897-.175 1.045-.25.842-1.83-.966-1.823-2.085.013-1.9 2.124-7.692 3.632-9.904.525-.771.588-.9 1.711-.94 1.805-.044 1.012.653.3 1.559Zm-78.813-1.355c-.398.01-.794.062-1.183.155-2.335.578-5.117 3.046-5.387 5.666-.128.079-.447 1.91-.243 2.84.772 3.516 2.827 5.9 5.343 9.387 0 0-3.16 4.889-5.328 7.146l5.13 7.408c-1.42 2.796-3.886 4.911-4.505 8.36-.967 4.543 1.416 8.97 6.488 9.378 3.784.113 6.265-2.438 6.734-6.305.192-2.57-.868-5.793-4.678-10.886-.19-.253-.558-.774-.558-.774s.428-.502.655-.838c1.339-1.809 4.834-6.231 4.834-6.231l-5.222-7.37s.226-.495.63-1.045c4.262-5.8 5.056-8.75 4.3-11.631-.297-1.136-1.004-2.01-1.963-2.98-1.55-1.57-3.323-2.321-5.047-2.28Zm-.122.711c1.666-.024 3.384.642 4.776 2.095 3.203 3.345 2.92 6.173-1.241 12.358-.913 1.357-1.809 2.85-1.809 2.85l5.252 7.238c-1.722 2.43-3.682 4.585-5.48 7.147.91 1.393 2.389 2.883 3.317 4.558 1.121 1.897 1.79 3.789 1.988 5.52.419 3.642-1.954 7.522-6.012 7.616-3.939.027-6.937-3.248-6.851-7.36.038-1.832.797-3.526 1.72-5.176.945-1.68 3.157-4.945 3.157-4.945l-5.081-7.394 5.382-7.17s-3.914-4.783-5.115-8.23c-.976-3.916.852-6.148 1.095-6.489 1.193-1.676 3.015-2.59 4.902-2.618Zm-3.33 10.387c.782 2.032 2.053 3.544 3.492 4.987 1.333-1.556 2.822-3.603 3.639-5.555 3.932-9.403-11.258-10.17-7.13.568Zm3.434 4.062c-1.927-2.237-3.289-4.098-3.42-7.049-.212-5.846 7.445-5.19 7.065.037-.427 2.846-1.924 4.645-3.645 7.012Zm94.905-9.19c.148.824.951 2.217.883 2.546-.373.863-.917 1.293-1.673 2.714-.16.303-.085.366-.51.29-.398-.056-1.1-.275-1.473-.382-.214-.062-.46-.178-.36-.45.727-1.666 1.54-3.653 3.133-4.717Zm-12.694 2.517-.9 2.331c-.086.251-.095.292-.36.237-.513-.065-.962-.105-1.474-.067-1.117-.136.987-4.303 1.303-4.934.457.077 1.133 1.856 1.431 2.433Zm.849.537a.281.281 0 0 1 .058 0c.459.06 1.141.306 1.649.527.28.115.288.123.164.47-.258.513-.575 1.993-.916 2.51-.01.075-1.592-.938-2.042-1.133-.018-.282.5-2.295 1.087-2.374Zm13.416.276c.523.018 1.169.492 1.523.764.166.328.014.657-.568 1.66-.515.886-1.052 1.844-1.183 1.742-.39-.306-1.116-.703-1.474-1.195-.267-.368.241-1.306.587-1.82.545-.81.807-1.103 1.115-1.151Zm-8.533-.118c.484.108-.284 2.594-.427 2.905-.458.683-1.17 1.582-1.736 1.945-.29.185-1.179-.346-1.159-.968.014-.442.862-2.67 1.143-3.261.042-.087 1.636-.612 2.179-.621Zm-19.74.95c.11-.003.218-.002.326.005 1.9-.055 3.855.88 5.086 2.97.582.99.59 1.032.456 1.955-.315 2.171-.206 3.63.368 4.96.653 1.515.555 2.035-1.042 5.404-1.604 3.393-3.55 7.525-5.028 11.356a40.594 40.594 0 0 0-1.634 5.023c-.248.957-1.418.67-2.585.624-.592.13.856-3.853 3.002-8.613 1.717-3.81 4.054-8.101 4.986-12.365.76-3.475.517-4.905.1-6.364-1.609-4.248-7.204-3.207-7.19.706.12 2.534 3.058 3.893 4.135 1.408.18-1.142-.385-.478-.858.077-1.014 1.19-2.751-.133-2.478-1.887.36-2.303 3.34-3.06 4.781-1.238 1.578 1.996 1.232 4.054-1.047 5.598-2.348 1.721-4.486.742-5.659-1.045-2.503-4.015.92-8.47 4.282-8.574Zm11.613 1.684c2.331.048 4.861 1.997 5.27 3.54.22 1.047-.117 2.28.258 3.292.312.81.612 1.278.388 1.998-1.919 6.16-6.447 12.73-8.684 20.022-.259.508-.495.571-1.072.735-.894.254-1.244.228-1.338-.237-.09-.444.21-1.286.732-2.864.626-1.891 2.01-5.13 2.822-6.653 1.892-3.547 2.946-5.974 4.32-9.005.257-.566.33-.902.732-1.717 1.732-3.504-.224-6.958-3.81-6.977-2.842-.016-4.113 4.425-1.625 5.723 2.433 1.27 4.248-2.065 2.085-3.246-.522-.285-.656-.013-.238.489.963 1.155.1 2.708-1.241 2.09-2.075-.957-1.006-4.486 1.416-4.282 3.739.314 4.225 5.742.412 7.117-5.243 1.89-7.993-6.532-3.06-9.367a5.081 5.081 0 0 1 2.633-.658Zm11.045.17c1.38-.035 2.83.455 4.02 1.596 2.932 2.81 2.15 7.146-2.803 15.531-1.622 2.81-3.204 6.186-4.068 8.652-.214.614-.394.926-.882 1.195-.86.473-1.833.531-1.959.198-.322-.852 2.132-6.15 6.502-14.472 1.149-2.218 2.6-4.792 2.526-7.432-.288-2.095-2.034-3.603-4.373-2.917-1.574.461-2.217 2.677-1.057 3.793.484.466 1.08.71 1.464.673.725.023 1.55-.693.145-.77-1.484-.008-1.99-1.87-.737-2.71 1.802-1.207 3.87.216 3.724 2.565-.3 4.723-7.211 4.018-7.394-.847-.113-3.01 2.258-4.99 4.892-5.056Zm-19.525 7.562c1.044-.08-.753 5.535-3.893 11.835-1.714 3.489-3.012 7.238-4.345 10.886-.361.488-2.525.578-2.521.073 3.84-12.278 6.552-14.392 7.864-19.069.23-.807.396-1.975.427-2.075.97-.279 1.788-1.438 2.468-1.65Zm-71.08.827-4.069 5.293 3.971 5.623 4.126-5.376-4.029-5.54Zm88.089 1.635c-.003.635-1.223 3.687-2.133 5.521-3.985 8.025-4.976 10.19-5.664 12.329-.124.386-.325.641-.577.735-.496.185-1.877.45-1.992.261.842-4.69 7.292-15.36 8.543-20.036.502-.022 1.781.739 1.823 1.19Zm3.19-.488c.27-.02.378.09.3.45-.124.581-.82 1.95-2.03 4.325-3.357 6.584-5.117 10.484-5.678 12.489-.132.47-.212.838-.437.957-.462.246-2.076.895-2.153.194.505-2.976 2.47-4.912 7.55-17.322.237-.407.445-.607.669-.643.625-.103 1.166-.4 1.78-.45Zm-13.77 2.038c-.128.766-1.008 2.371-2.463 5.336-2.42 4.932-3.987 8.607-4.936 11.868-.154.53-.365 1.087-.572 1.23-.393.271-2.158.188-2.158.188-.267-1.348 1.862-6.377 4.233-11.665 1.29-2.877 2.785-5.743 3.789-8.323.688.102 2.012.76 2.107 1.366Zm3.591-1.27c.718-.008.161 1.196-1.56 4.588-1.394 2.752-3.62 6.612-5.056 11.046-.376.977-.817 2.191-.98 2.7-.21.658-.407.983-.679 1.118-.518.258-1.772.243-1.992-.024-.35-.426 1.507-5.418 3.316-9.252 1.597-3.221 2.722-5.808 4.102-8.786.378-.592.394-.633.778-.71.797-.063 1.623-.595 2.071-.68Zm-81.033.64 2.095 2.796-2.459 3.054-2.046-2.971 2.41-2.88Zm-.315 12.062s-.89 1.023-1.804 2.642c-2.676 4.446-2.75 7.728.407 9.677 1.333.677 3.07.529 4.165-.426 3.576-3.112.918-7.387-1.391-10.286-.613-.852-1.377-1.607-1.377-1.607Zm.13 1.137c1.341 1.578 2.322 2.763 3.215 4.747 1.028 2.664.37 4.759-1.619 5.743-3.142 1.556-6-1.937-4.51-5.666 1.106-2.763 2.915-4.824 2.915-4.824Zm87.989 5.265c.294.56-29.906 7.531-52.186 1.548l-13.557 19.576 78.267-.135-12.524-20.99Zm-1.145 1.388s7.276 12.566 10.847 18.72h-5.019l-7.151-15.28a79.673 79.673 0 0 1-11.424 2.318l2.546 12.962h-3.758l-2.123-12.386c-5.483.422-11.065.582-16.767.42l-2.458 11.966h-3.932l2.52-11.883c-4.327-.583-8.635-1.132-13.032-1.853l-7.375 13.736h-5.552l11.574-17.24c17.278 3.46 33.211 2.647 51.104-1.48Zm-2.734 6.745 5.673 11.975h-10.745l-1.978-10.683 7.05-1.292Zm-45.999.87 9.392 1.215-2.425 9.89H68.541l5.717-11.104Zm30.663 1.477 1.29 9.628H90.025l1.799-9.44 13.096-.188Z" id="path4033-2-3-3" fill="#000" transform="rotate(-.002 103.852 131.59)"/><path d="M52.365 8.836C43.18 21.951 33.352 29.5 33.189 39.731c-.055 3.313 1.734 8.944 7.338 10.022 3.636.696 8.642-2.25 8.746-8.236-.016-1.192 1.26-1.16 1.248.472-.17 4.722-1.664 10.219-4.172 14.694H58.38c-2.509-4.475-4.002-9.972-4.173-14.694-.012-1.633 1.264-1.664 1.248-.472.105 5.986 5.11 8.932 8.746 8.236 5.604-1.078 7.393-6.71 7.338-10.022-.163-10.232-9.99-17.78-19.175-30.895Z" id="path153-6-3-1-9-5-1-4" fill="#000"/><path d="M155.435 254.47c-9.185-13.115-19.012-20.662-19.175-30.894-.055-3.314 1.734-8.945 7.338-10.023 3.635-.696 8.641 2.25 8.746 8.236-.016 1.192 1.26 1.16 1.248-.472-.171-4.722-1.664-10.219-4.173-14.694h12.032c-2.508 4.475-4.001 9.972-4.172 14.694-.012 1.633 1.264 1.664 1.248.472.104-5.986 5.11-8.932 8.746-8.236 5.604 1.078 7.393 6.71 7.338 10.023-.163 10.232-9.991 17.779-19.176 30.894Z" id="path153-6-3-1-8-6-9-9-4" fill="#000"/></g></g></g></svg>