<svg width="227" height="315" xmlns="http://www.w3.org/2000/svg"><g id="Page-1" stroke="none" stroke-width="1" fill="none" fill-rule="evenodd"><g id="Spades" transform="translate(10 26)"><g id="Q"><path d="M9.15 26.06C4.858 31.523.267 34.668.19 38.931c-.026 1.38.81 3.727 3.429 4.176 1.699.29 4.037-.937 4.086-3.432-.01-.496.59-.483.583.197-.08 1.968-.777 4.258-1.95 6.123h5.622c-1.172-1.865-1.87-4.155-1.95-6.123-.01-.68.592-.693.584-.197.05 2.495 2.388 3.722 4.086 3.432 2.619-.449 3.455-2.795 3.429-4.176-.077-4.263-4.668-7.408-8.96-12.873Z" id="path7431-0-1" fill="#000"/><path d="M197.101 237.247c-4.291-5.465-8.883-8.61-8.96-12.873-.025-1.38.811-3.727 3.43-4.176 1.698-.29 4.037.938 4.086 3.432-.01.496.589.484.583-.197-.08-1.967-.777-4.258-1.95-6.122h5.622c-1.172 1.864-1.87 4.155-1.95 6.122-.01.68.591.693.584.197.049-2.494 2.387-3.722 4.086-3.432 2.618.45 3.454 2.796 3.428 4.176-.077 4.264-4.668 7.408-8.959 12.873Z" id="path7435-3-6" fill="#000"/><path d="M93.632 261.501 117 218.8c0 .01 5.574 2.202 12.173 3.92-6.333 16.552-.046 38.387-.046 38.387s-35.514.358-35.497.394ZM29.59 188.583c-1.326-18.134.766-33.513 1.609-50.167.055-.232-7.59-4.976-7.59-4.976l17.968-10.153c1.79.931 2.818.769 3.241-.955-1.812-6.176-2.168-12.157 1.984-17.273 3.11-3.74 10.211-1.818 12.277-1.826 1.608-.007 5.434-12.759-1.036-16.518-1.372-.797-2.021 7.442-2.957 10.907-4.164-2.439-11.862-4.494-12.89-8.796-.526-2.384 7.036-6.971 5.551-9.658-2.163-3.915-7.75-9.77-10.142-8.162-2.26 2.048-7.652 6.232-7.616 9.096 1.684 5.133 5.965 5.49 8.215 10.347.561 1.05 4.7 5.462 4.7 5.462-1.554 2.382.96 6.544 1.076 5.908L24.38 93.254s4.492 33.906-.252 38.924c-.502.531 4.198-1.33 4.277-1.04 1.429 1.813 17.26 11.907 21.792 15.535 8.047-11.255 10.986-16.207 21.357-26.193 2.277-1.887 7.352-5.333 10.254-9.474 2.331-3.327 3.298-7.074 2.88-9.983-.542-3.76-.876-6.335-3.19-9.332-5.348-6.925-13.855-13.53-13.705-13.65L70.7 75.67s10.491 8.699 14.934 15.097c2.993 4.31 1.65 9.254 4.23 10.138.622.213 4.86-.141 6.252.126.169.033 30.861 21.756 25.297 23.01-7.704 1.734-19.989.602-19.989.602-8.77-8.585-13.004-11.408-18.23-8.718 0 0-13.247 11.62-20.891 20.717-4.357 5.185-11.264 16.024-11.264 16.024-.513-.225-15.678-12.246-15.046-10.898 0 0 3.636 32.926 2.019 44.975-1.11 10.235-2.63 21.227-3.308 30.667 2.15-.47 5.324-1.081 5.925 2.209.525 4.494-5.245 3.45-5.38 3.062.01-.004 3.221 6.932 3.221 6.932s-4.998 8.645-4.86 8.269c.087-.233-4.542-7.674-4.542-7.674s3.436-6.248 3.953-7.514c.354-.866-5.258 2.28-5.478-2.28-.227-4.69 5.856-3.572 5.54-2.979-.751-10.03-2.43-20.401-3.492-28.852Zm75.147 22.565c.139-.103-13.263-5.392-25.574-4.894-4.337-1.693-11.411-3.465-16.133-.309-5.31-3.605-9.894-7.573-14.552-11.505 1.305-.017 6.916-32.317 9.386-42.507-1.425-13.637 11.677-13.627 12.814-2.704 14.115 14.633 31.398 29.769 49.212 44.66-2.834 5.894-13.063 10.387-15.153 17.26Zm30.86-96.464c-16.091-16.45-49.77-45.857-49.77-45.857L101.595 53.4c8.275 2.472 16.78 4.539 26.393 4.636.038.038 10.535 4.789 16.129-.013l14.552 11.562s-6.036 31.83-9.58 42.939c.075 4.4-1.585 9.76-5.92 10.556-3.702.68-6.548-4.583-7.57-8.396Zm32.526-38.105c1.678-10.348 2.024-17.88 3.19-29.951-7.26 2.131-7.161-7.678-.03-5.098l-3.306-7.302 4.894-8.225 4.493 7.811-3.869 6.924c8.041.397 6.1 7.88-.823 6.074 1.305 11.564 4.18 23.246 4.04 34.68 2.49 18.335-3.06 43.85-2.142 44.454l7.841 5.407-1.34 39.893-12.382-5.44-3.685 2.491c1.183 2.348 2.687 4.6 3.196 7.15 0 0 8.527 7.032 7.344 9.224.55.323-6.069 9.105-8.011 8.885-3.702-.419-7.995-5.222-9.232-8.631-1.046-3.436 7.657-6.804 6.56-9.318-1.314-3.007-4.629-4.453-7.567-5.338-4.052-1.218-5.905-4.434-6.09-4.434 0 0-1.575 12.75-3.091 11.731-6.098-4.1-1.928-17.11-.796-16.748 0 0 2.663.613 5.809.91 11.084 1.164 10.334-12.499 8.185-19.112-.767-2.587 2.518-1.756 3.917-2.15 5.382-1.59 13.707-7.158 13.707-7.158-8.664-4.817-16.311-10.314-23.172-15.525 0 0-6.369 10.895-13.918 18.453-5.495 5.501-6.389 7.375-15.586 14.459-.179.137-6.97 8.277-3.736 17.782 2.767 8.133 16.068 16.938 15.97 17.526l-2.619 2.507c.106.146-18.827-11.774-18.386-24.596-.021-.484-8.605-.651-8.605-.651l-24.949-23.18 21.134-.09 10.852 8.884 6.78.352c.443.391.689-1.795 6.66-6.26 11.41-8.532 25.546-30.44 25.546-30.44s14.948 10.54 14.963 10.541c-.747-15.828-3.293-32.849-1.746-46.491ZM113.699 1.777S98.166 31.025 89.65 44.803l-12.066-3.469c5.056-13.45.215-39.088-1.057-39.734l37.173.177Z" id="path4075-4-3-9" fill="#E2CF00"/><path d="M21.491.075v263.156H184.76V.075H21.491Zm112.86 190.87c7.735-7.207 15.386-13.155 22.539-17.479 2.774-1.676 3.616-1.922 4.706-.927 1.777 1.621 2.884 3.032 2.304 4.167-.131.256-.55.681-.55.681l-4.273-1.63 1.385 4.862c-3.845 1.57-3.776 5.74-.065 7.951l-2.554 5.892 5.936-2.62c.227 1.284 4.46 4.39 7.093.001l5.36 2.623-1.847-6.58c1.76-1.682 2.785-4.37.018-6.846l1.274-5.155-4.84 1.58c-1.214-1.663-1.918-1.55-2.197-2.002-.083-.62-.098-2.063-.903-3.393-.665-1.1-1.426-2.269-2.138-3.087-.378-.64-.076-.694 1.857-1.743.908-.492 1.659-.99 1.659-.99s9.47 4.792 13.357 6.617v88.174h-51.979c-5.876-17.59-1.654-32.87-.098-39.27-2.74-.23-16.871-4.82-17.295-6.4 5.599-8.918 13.196-17.022 21.25-24.427h.001ZM32.672 216.62c-6.816-2.208-6.885 6.023-3.403 6.66.903.166 1.846.302 3.258-.155.35.073-4.083 6.9-4.083 6.9s3.55 6.465 5.25 9.212l5.367-9.548-3.509-6.609c5.494 2.808 8.339-5.553 2.57-6.647-1.394-.19-2.934.509-2.934.509l3.033-28.603c2.446 1.666 6.907 5.008 6.907 5.008 1.015 15.758.271 28.891 9.056 51.818l.09 15.875h-30.6v-83.208l5.6 3.787c.113.47-.84.156-.327 5.952.465 5.236 2.055 14.315 3.725 29.049ZM140.967 2.52c.24.342.223.865.43 1.559 1.221 4.08 5.465 8.978 8.847 10.264 1.184.45 1.644 1.135.96 1.822-.864.866-4.429-1.504-7.06-4.577-2.39-2.79-3.985-5.1-4.338-6.853-.209-1.04-.314-1.708-.16-2.25.438-.607.981-.438 1.32.035Zm4.217-.441c.447-.002 1.048.526 1.41 1.486.868 2.31 2.23 4.037 4.359 5.53.564.396.789.99.502 1.337a.753.753 0 0 1-.402.235c-1.66.465-6.032-4.608-6.38-7.757-.076-.684.163-.83.51-.831Zm5.44.063c.883-.004 1.307 1.844.795 2.812-.333.305-1.066-.166-1.716-1.38-.558-1.042-.335-1.427.921-1.432Zm-2.959.029c.198-.006.607-.111.814.177.34 1.91 1.776 3.292 2.922 4.398.192.362.282 1.12-.139 1.317-1.003.446-4.025-2.999-4.046-4.992-.01-.6.177-.892.45-.9Zm-3.834 1.21c1.059 3.486 3.625 6.33 5.921 7.806 1.642 1.048 2.276 1.644 1.514 2.179-.188.133-.38.234-.424.227-3.846-1.472-8.572-7.056-8.731-11.009.837-1.076 1.577.13 1.72.797Zm-13.308 15.132c-2.022.003-4.499.465-6.51 1.38-2.798 1.274-3.5 2.12-3.092 2.427.294.216 2.096-.56 2.999-.677 4.872-1.21 8.226-1.507 11.401-.118 2.456 1.073 2.47.58.822-1.207-1.195-1.296-3.328-1.808-5.62-1.805Zm17.177 2.68c1.613-.017 3.26.361 3.844 1.115.455 2.44-.76 1.324-1.738.838-1.415-.654-3.035-1.22-4.547-.987-.973.15-1 .1-.449-.212.83-.507 2.008-.742 2.89-.755Zm-19.101.95c-4.61.358-6.205 2.696-9.181 5.107-1.223.933-.944 1.654.545 1.41 1.84-.303 2.58-.23 5.089.629 2.738.937 4.7 1.326 6.205.746 2.846-1.097 2.602-.914-1.467 3.037-2.177 1.754-1.298 1.662.907.144 1.63-1.306 2.75-2.138 3.09-2.854.165-.347.18-1.593.487-1.593 1.035 0 .501-1.295-.44-1.845-.617-.441-.48-.903.32-1.752 1.257-1.326.83-1.925-.534-1.1-.24.131-.358-.274-1.19-.777-1.318-.797-2.428-1.168-3.831-1.152Zm3.322 1.735c1.114.94.637 1.2-1.794 1.177-2.054-.02-3.803.197-6.244 1.008-2.771.922-2.94.946-1.313-.446 2.24-1.914 6.789-3.834 9.351-1.74Zm14.397-.812c1.118-.024 2.062.135 2.913.605 2.322 1.284 2.839 2.397.254 1.49-1.621-.57-3.811-.49-5.325-.069-1.563.435-1.832.587-1.62-.258.26-1.037 1.915-1.728 3.778-1.768Zm-18.258 3.787c.55 2.766 2.642 1.863 2.85.192l.763.003c-.325 2.221-3.34 4.08-4.512-.195.248-.007 1.342.07.899 0Zm16.686.047.567-.018c.374 2.12 2.339 2.814 3.193.161l.686.015c-.525 4.424-5.193 2.269-4.446-.158Zm-18.288.207c.378.133.55 1.17.487 1.444-.132.567-1.978-.037-2.37-.59.386-.412 1.297-1.062 1.883-.854Zm25.122.47v.775c-.853.205-1.206.686-2.003.528.045-.495-.038-1.175.425-1.753.58-.307 1.272.07 1.583.45h-.005Zm-18.605.896c-.387.306-.917.34-.917.34-.083-.742-.208-1.576.713-1.583.606.177.564.929.204 1.243Zm10.64-1.23c.324.023.704.832.748 1.303-.095.774-1.993.465-1.993-.304 0-.325.793-.998 1.245-.998ZM126.236 56.54c-1.466-.735-12.583-7.511-15.43-19.493l-.566 1.225c1.207 2.87 2.988 7.529 2.988 7.529-.074-.402.454 3.121 1.587 9.102-.601.007-1.266-.164-1.918-.34-1.467-5.475-1.814-9.768-3.045-15.126l-.536 1.496s1.549 9.615 2.597 13.375c-.6-.057-1.704-.306-1.704-.306-.873-4.055-1.549-6.775-2.371-10.841l-.757.983c1.086 3.338 1.51 6.322 2.057 9.52-.746-.113-1.497-.185-2.207-.582 0 0-1.122-5.832-1.27-5.917a2.767 2.767 0 0 0-.604.988c-.045-.053.973 3.233.9 4.586-.714-.118-1.952-.476-2.825-.77-.456.305-.695.812-1.046 1.268.43 1.856 25.936 5.874 24.406 4.339-.01.16 11.246 4.941 17.528.879 0 0 10.925 8.126 15.192 11.372 0 .369 1.479 2.09 3.018 3.186l4.325 3.341c1.257.979 1.76.27 1.95-1.574.213-2.053 1.7-15.895 2.048-18.845 1.298-9.943 1.297-9.837-.209-9.38-2.301.7-4.373-.21-4.373-2.571 0-1.445.666-2.642 2.201-3.2.436-.15 1.004-.163 1.656-.15.297.053.849.09.907.1.733-.04-2.838-6.526-2.838-6.526s3.412-6.1 5.054-8.373l4.417 8.029-3.617 7.081c7.045-.53 6.355 8.352-.54 5.378 0 0-.042 2.639-.028 2.445.067-.755.056-1.4.295-1.542 6.68 2.54 8.042-7.233.842-6.782 1.185-2.072 2.505-4.214 3.736-6.497l-5.205-9.517-5.88 9.812 2.958 6.125c-.665-.173-1.199-.068-1.911.005-4.358.895-3.422 7.93 1.56 6.963.568-.11 1.424-.542 1.424-.542l-3.216 28.735s-.317.258-1.607-.675c-1.49-1.077-4.612-3.416-4.811-3.657 1.115-18.37-3.466-37.7-8.696-49.8-.333-.929-.136-19.155-.136-19.155h29.936v84.722c-1.55-.984-3.393-2.28-4.988-3.408-.478-.388-.774-.849-.57-1.589-.524 1.126-.207 1.608-.207 1.608l6.55 5.249-.26 83.302s-10.574-5.466-17.084-8.103c-2.937-1.202-3.068-.856-3.068-.856.01-.005 2.075 4.672 1.486 5.516 1.399 1.349 3.751 4.173 3.865 6.937 1.253 1.088 1.605 1.223 2.545 2.79l3.929-1.424-.892 4.105c4.177 2.934.155 6.88-.619 6.517 0 0 1.843 3.967 2.264 5.773-.66-.045-3.968-1.845-4.89-2.27-2.397 4.732-6.446.76-6.478.062l-4.491 2.006 1.59-5.127c-2.892-1.764-4.846-4.432-.17-7.304l-1.08-4 3.846 1.516s.717-1.156 1.263-2c-1.438-6.282-10.897-5.093-13.935-10.744 0 0-.746 7.054-1.51 9.606-.299 6.747-5.011-.078-5.011-7.215 0-1.611 2.02-7.034 2.703-7.297.711-.099 7.462 3.175 11.996-.077 2.064-2.154 5.624-8.212 2.204-17.696-1.132-2.191 2.152-2.469 3.218-1.73 0 0 9.866-5.175 14.32-7.669-7.471-4.118-23.008-15.075-22.998-15.595-2.072 3.301-4.447 6.069-7.784 10.736-5.41 6.39-9.64 12.462-16.505 17.568-9.656 7.05-11.923 14.149-9.23 22.482 1.09 3.6 3.284 7.253 6.878 8.517 1.828 1.854 9.172 8.829 9.172 8.829-12.261 11.197-20.679 20.406-26.582 30.582 4.983 2.629 17 6.436 17 6.436-4.463 14.88-2.43 26.7.51 38.564 0 0-34.885.045-52.987-.525-.155.153-2.114.048-2.14-.077-.07-1.327 3.26-4.974 4.258-4.465.502-.495 1.562-.748 1.371-1.356-2.497-.298-6.287 4.03-6.437 5.82h-1.49c-.305-.266 2.704-7.31 8.733-7.873-.063.254.81-.547.155-.89-7.029.835-10.302 8.657-10.094 8.764h-1.086c2.39-7.693 8.612-10.12 12.213-10.454.035-.015 1.168-.411.864-1.085-7.959 1.386-11.926 4.84-13.84 11.539h-1.434c1.036-6.794 8.003-12.745 15.877-12.551.247-.157.549-.341.42-1.114-8.739.988-13.097 3.913-16.688 11.442-3.211-8.361-12.137-12.328-12.243-12.364 0 0-.216-2.34.283-2.243 7.614 2.764 10.521-3.867 10.203-7.72-.177-2.144-.057-3.325-.772-6.416-.638-2.756-1.11-4.613-1.059-5.81.05-1.183.42-1.423 1.292-1.82 1.632-.742 2.654-3.429 2.291-3.757-.839 1.954-3.055 2.291-4.077 3.605-.815 1.082-.456 2.804.996 8.785.885 3.644-.164 1.968-2.229.827l-1.38-.782c.926.954 1.904 1.852 2.846 2.787.844.773.371 1.252-.838.804-1.742-.872-5.1-.507-6.386.59-.502.36-.68.322-.806-.008-.563-9.288.41-15.002 3.478-21.982 1.983-4.745 4.935-8.298 8.873-8.55 3.968-.33 9.673 1.064 14.854 4.594 6.086 4.145 12.016 10.449 12.646 18.183.024.09.468-.66.67-1.057.278-.92-.738-3.681-2.323-6.883-.293-2.407-1.119-6.629-1.768-9.485.494-.225 1.545-.099 1.84.261 1.115 4.722 1.908 8.4 2.863 14.726.014.616.804-.916.806-1.322-.137-.944-2.765-13.322-2.713-13.04.015-.421 2.494.132 2.153.523 0 0 1.885 10.383 2.018 10.062l.637-.882s-1.798-7.583-1.573-9.045c.154-.223 1.547.23 1.989.47.554.746.91 3.452 1.144 5.297.64.491.767-.928.719-1.302-.462-.735-.95-3.476-.584-3.617.288-.111 1.885.525 2.191.799.36.322 1.753-1.612 1.4-1.946-7.535-2.896-17.04-4.585-24.194-4.699-1.662.007-2.322-.228-4.871-1.151-6.493-2.352-11.86-.01-12.647.734-7.927-5.525-16.777-13.242-23.821-18.165-.331-.22-1.121-.35-1.208-.35-1.118 8.57-1.899 18.488-2.852 26.398-.387 3.132-.433 3.377-.29 3.465.124.077.368-.048.465-.098 2.319-.857 4.413-.299 5.523 1.801.558 3.004-2.061 4.98-4.823 3.554-1.025-.53-1.172-.425-.704.577.807 1.803 3.137 6.551 3.137 6.551 0 .002-3.148 6.445-4.74 8.198-1.553-2.515-3.534-5.059-4.393-7.806 1.22-2.394 3.525-5.478 4.253-7.84-.104-.075-.731-.01-1.168.219-4.03 1.912-4.677-1.688-4.623-2.982.109-2.63 2.393-3.19 5.711-1.964-3.586-23.898-4.351-37.515-3.435-36.041 0 0-4.332-3.106-6.485-5.213l.245-173.963h51.388c5.283 14.207 3.828 31.292.67 40.188 5.61 1.029 11.276 2.358 17.677 6.043-10.814 15.903-27.791 33.09-46.179 44.093-1.042.472-4.466-1.67-4.868-3.786-.093-.492.178-1.46.73-1.443 1.35.44 2.66 1.044 3.979 1.584 0 0-1.838-4.625-.95-5.327.576-.38 1.048-.698 1.418-1.089 1.32-1.71 1.214-3.65-.183-5.141-.563-.591-1.22-1-1.548-1.15 0 0 1.296-3.608 1.946-5.309l-5.102 1.693c-1.652-2.297-4.69-4.084-6.935-.664-.428.912-.34.771-3.498-.63-1.79-.795-2.894-1.202-2.894-1.202.671 2.006 1.55 3.889 2.317 6.21-3.515 2.248-2.714 6.038.245 7.17l-1.559 5.12s3.324-1.243 5.126-1.725c0 0 1.58 1.593 2.048 3.105.803 2.595 2.628 4.476 3.782 5.548-1.922 1.413-2.872 1.889-5.037 2.933l7.474 3.028c-.465-1.585-1.455-2.76-1.555-4.765-.089-1.717-.186-1.749-1.292-2.911-2.034-1.779-2.25-3.89-2.933-5.283-.933-.552-1.53-1.429-1.97-2.353-.492-1.034-3.707 1.39-4.193.93-.596-.638 1.035-3.908.854-4.234-1.312-.113-4.987-2.986-.61-6.186l-1.397-5.205s3.333 1.461 4.93 2.279c1.109-5.2 6.167-2.707 6.985-.465 0 0 4.01-1.322 3.761-.25-.112.964-.763 3.367-.763 3.367 3.605 3.202 2.86 4.774-.07 6.874-.045 1.697.666 4.336.666 4.336s-2.04-.909-3.384-1.29c-.537.539-1.148 1.513-1.046 2.015.912 4.047 5.887 5.174 13.259 9.31.253-2.614 2.051-6.188 2.255-9.326.127-2.288.205-2.324 1.81-1.593 4.224 3.06 2.935 11.47 1.395 14.919-.911 1.953-1.06 1.903-2.833 1.336-2.455-.784-6.794-.468-9.182.344-3.301 1.356-4.859 8.743-4.895 10.987-.058 2.132.106 4.247 1.221 6.88.462 1.686-.387 2.985-1.902 2.533a24.583 24.583 0 0 1-1.149-.411l-14.25 7.394 2.685 1.584s-1.98-1.185-.753-1.827l12.218-6.395c2.277.89 1.972 1.072 3.448-.47.883-.913 1.316-.93 2.5-.817 7.203.693 10.394-.359 11.64-3.387.186-.454.115-.438.85-.81 1.363-.532 2.004-1.494 2.074-2.7.045-.792.387-.9.987-1.452 1.121-1.033 1.348-2.326.643-3.656-.333-.626-.587-.823-.449-1.473.232-1.087-.17-2.22-1.211-3.418-1.2-1.38-1.192-1.146 1.067-3.256 4.435-4.23 8.345-7.468 12.66-11.295 2.95-2.618 2.632-2.43 3.781-1.232 4.229 4.41 5.888 11.286 3.983 17.332-.089.284-.13.252.092 0 1.196-1.36 1.23-8.204.208-11.239-1.246-3.729-2.453-5.67-6.574-9.322-2.573-2.33-9.574-9.057-9.574-9.057 10.185-8.86 21.157-19.874 27.309-29.999-3.157-3.396-17.793-6.527-17.793-6.527 1.822-3.79 5.426-20.82-.744-39.704 18.113.837 36.358-.493 54.45.736 0 0 .282-.108.432-.147.504-.132.756.224.634.789-.387 1.441-2.496 4.815-3.984 4.537-.663-.259-.476 1.02-.773 1.552 2.345-.304 5.095-3.285 5.784-6.24.378-.62.623-.724 1-.604.433.138.324.552-.145 1.98-1.469 3.574-4.447 6.894-7.908 6.562l-.449 1.22c4.67-.076 8.281-4.468 9.348-7.753.745-1.953.774-2.217 1.523-2.029.62.575.237 1.4.025 2.08-2.347 7.524-8.796 9.534-12.006 9.207-.387-.048-.455.316-.338.935 6.898.457 12.392-5.504 13.169-10.619.378-1.42 1.034-1.905 1.412-1.256.213.572.142 1.157.037 1.702-1.885 8.074-10.466 12.66-15.71 11.35-.242-.228-.637.888-.067 1.287 10.585-.4 13.853-5.88 16.268-10.72 2.88 4.357 5.234 8.85 12.135 11.49 0 0 .688 1.52.146 1.862-.286.18-.723.096-1.357-.007-8.411-1.363-11.193 6.523-7.613 18.303.98 3.226.542 2.732-1.554 4.75-.999.962-1.474 2.668-1.212 2.707.36-.203.478-.755 1.352-1.482.38-.316 1.162-.618 1.738-1.017 1.556-.905 1.542-1.524.983-3.664-.415-1.59-1.473-6.43-1.474-6.92 0-.928.216-.83 1.373 0 1.614 1.201 2.53 1.115.576-.423-.756-.596-1.248-1.06-1.477-1.394-.31-.455-.118-.748.512-.55 2.898.91 5.387.845 8.2-.873.322 7.771-.744 19.562-7.235 27.992-4.98 5.61-14.513 1.365-18.04-.406Zm7.628-17.858c-.194.009-.888.153-1.318.4-1.912 1.098-1.456 4.993.63 5.512.84.209 1.602.323 3.012-.352.84-.402 2.016-.717 2.346-.578.694.29.913-.324 1.06-1.016.331-1.55-2.2-1.586-4.216.015-2.542 2.02-4.491-.961-2.096-3.206.799-.517.775-.784.582-.775Zm-19.75 8.335 2.135 2.476 1.342 5.9c-.814.138-1.801-.316-1.801-.316-.666-2.668-1.317-5.34-1.677-8.06Zm29.081 1.485a.254.254 0 0 0-.072.02c-.09.039-.488.219-1.038.28-.317.035-.797-.19-1.139-.17-.935.059-1.808.335-2.042.431-.288.12-.57.17-.816.025-.697-.412-2.728-.296-3.345.067-.731.312-1.553.316-2.153.005-.259-.134-.523-.472-.57-.426-.095.096-.486 1.766-.603 2.412 0 .227-.157.605-.063.644.119.048.502-.3.975-.543.97-.496 2.054-.458 3.958.01 2.35.578 3.266.41 4.654-.3 1.105-.565 1.776-.7 2.51-.499.181.05.663.301.73.238.129-.125-.227-.824-.532-1.516-.22-.5-.301-.696-.454-.678Zm-25.36 2.662c2.064 1.962 1.909 1.794 3.212 2.764l-.063 1.89s-1.596.036-2.38-.208c-.247-.735-1.32-4.427-.77-4.446Zm16.982 1.27c.14.096.343.198.623.294 3.287 1.236-.15.924-.478 2.102 0 .106.15.122.311.059 1.128-.445 3.883-.733 5.137-.49 1.626.551 1.728.17.164-.648-1.145-.452.243-.76.71-1.156.97-.625.303-.883-.932-.29-1.237.595-3.438.586-4.442.022-.444-.226-.876-.437-1.08-.45-.421-.017-.198.424-.013.557Zm-12.938 2.118 1.923 1.508-1.967-.19.044-1.318Zm-43.57 37.903a.707.707 0 0 0 0 1.414.707.707 0 0 0 0-1.414Zm2.568.713-8.823 4.202 2.332.783-.019 2.42 2.147-.686.91 2.261 3.453-8.98Zm.392 1.979a.707.707 0 0 0 0 1.414.707.707 0 0 0 0-1.414Zm-11.187 4.3a.703.703 0 0 0-.704.702c0 .39.316.706.704.706a.707.707 0 0 0 .705-.706.703.703 0 0 0-.705-.703Zm2.712 1.314-9.904 4.564 2.936.895-.776 3.032 2.391-1.007 1.335 2.035 4.018-9.519Zm.292 2.172a.707.707 0 0 0 0 1.414c.388 0 .7-.317.7-.707a.703.703 0 0 0-.7-.707Zm-19.652.455c3.725-.005 7.902 1.417 9.327 4.615.38 1.598-1.187 2.55-4.533 1.63-5.53-1.52-6.562-1.692-5.643-.75.12.125.364.43 1.192.713 2.083.712 6.115 1.536 7.203 1.423 1.486-.197 2.514.496 2.143 1.739-.421 1.41-2.351 1.988-5.252 1.578-3.005-.424-4.66-.772-5.658-1.075-1.282-.389-1.327-.355-.72.547.317.47.348.847.817.935 1.984-.112 4.096.268 5.918.44 3.27.294 3.782 1.224 1.38 2.644-1.138.674-4.543.49-6.478-.21-1.383-.499-4.553-1.212-3.33-.245.293.233.192.804.704.983 1.677.232 6.417.565 7.159 1.238.477.433-.598 1.533-2.811 2.108-3.332.633-8.313.369-9.63-.533-2.435-4.976-1.124-13.12 2.69-16.303 1.217-.955 3.288-1.474 5.522-1.477Zm21.84 2.595c-.39 0-.7.317-.7.707a.703.703 0 0 0 1.405 0 .707.707 0 0 0-.706-.707Zm2.94.754-10.226 5.109 2.587.77-.613 2.985 2.397-.99 1.451 2.008 4.405-9.882Zm.08 2.5a.707.707 0 0 0 0 1.414.707.707 0 0 0 0-1.414Zm5.947 6.024c-4.535 4.427-9.646 7.934-14.314 12.233l1.011-.041 2.544-2.301 71.639-.226-1.674 2.45.705.304s2.148-3.186 2.002-3.333c-15.74.046-27.889.01-45.156.129-3.146-3.127-6.47-6.056-9.76-9.026l-6.997-.189ZM62.465 118.1a.707.707 0 0 0 0 1.414c.389 0 .7-.318.7-.707a.703.703 0 0 0-.7-.707Zm93.526.54c6.188 4.607 13.52 10.256 19.605 13.61 2.437 1.062 2.201 1.424-.275 2.598-2.434 1.517-6.484 3.472-9.862 5.18-1.464.556-2.104-.167-3.143.025-.75.191-.963.333-1.41.925-.732.97-.532.937-4.446.76-3.948-.179-5.576-.09-6.425.344-.816.417-2.216 1.844-2.216 2.435 0 .57-.446 1.3-1.26 1.545-.947.23-2.04.983-1.993 2.15-.254.879-.79 1.268-1.265 1.75-1.125 1.138-1.013 2.034-.688 3.092.151.474.38.363.263 1.764-.267 3.21-.488 2.94 2.936 5.314l-17.49 15.286c-.405.32-.524.289-.893.034-2.133-1.588-3.617-4.214-4.472-6.84-2.955-8.164.653-14.871 5.448-18.975 1.66-1.422 3.893-3.118 4.514-3.544 9.03-7.725 16.883-18.664 23.072-27.453Zm-90.915.598-9.998 4.735 3.22.544-.616 2.79 2.332-.886 1.234 2.352 3.828-9.535Zm.611 2.213a.707.707 0 0 0-.704.707.703.703 0 0 0 1.404 0 .703.703 0 0 0-.7-.707Zm91.615 3.105-1.135-2.693s-3.158 7.803-3.826 10.447a3977.136 3977.136 0 0 1 10.514-5.385l-3.354-.625.378-3.055-2.577 1.31Zm-114.208.481a.707.707 0 0 0 0 1.414.707.707 0 0 0 0-1.414Zm3.062.645s-7.44 3.501-10.798 5.012l3.135.66-.55 3.057 2.83-1.107 1.14 3.022 4.243-10.644Zm.398 2.31a.707.707 0 0 0-.705.706c0 .39.317.702.705.702a.703.703 0 0 0 .705-.702.707.707 0 0 0-.705-.707Zm105.282.508a.703.703 0 0 0-.705.702.703.703 0 1 0 1.405 0 .699.699 0 0 0-.7-.702Zm12.164.638-3.541 9.871 9.576-4.836-2.6-.712.014-2.442-2.139.625-1.31-2.506Zm-113.178 2.373a.707.707 0 0 0 0 1.414.707.707 0 0 0 0-1.414Zm104.744.18c-.389 0-.7.317-.7.707a.703.703 0 0 0 1.405 0 .707.707 0 0 0-.705-.707Zm-101.808.724L43.61 137.38l3.15.74-.346 3.178 2.56-1.458 1.391 2.898 3.393-10.323Zm.634 2.099c-.388 0-.665.317-.665.707a.703.703 0 0 0 1.404 0c0-.39-.35-.707-.739-.707Zm105.525.624a.707.707 0 0 0-.705.707c0 .39.316.702.705.702a.703.703 0 0 0 .705-.702.707.707 0 0 0-.705-.707Zm-13.983 3.247-.943-2.657-3.755 9.744 10.097-4.639-3.204-.754.057-2.544-2.252.85Zm-10.258-2.098c-.116-.006-.218.026-.218.102 0 .225-2.58 2.754-2.58 2.754l-29.799.276c.061.004 2.48.675 2.48.675 3.91 3.133 10.035 8.69 10.035 8.69l7.398-.296c4.097-4.034 10.252-7.102 12.997-12.085a.517.517 0 0 0-.313-.116Zm27.933 2.009a.707.707 0 0 0-.705.707.703.703 0 0 0 1.405 0 .703.703 0 0 0-.7-.707Zm-23.004 3.402c-.388 0-.7.312-.7.702a.703.703 0 1 0 1.405 0 .703.703 0 0 0-.705-.702Zm15.128 1.02c2.136-.01 4.193.063 4.726.47 3.301 2.789 1.737 15.823-2.425 17.469-4.566 1.03-7.725 1.222-11.688-1.4-1.125-.55-3.355-2.212-2.92-3.583.594-1.686 2.227-1.563 6.908-.102 1.71.534 2.649.426 3.085.092.408-.312-.126-.66-1-.663-.35-.001-1.865-.376-3.127-.765-1.783-.55-2.295-.711-3.447-.78-1.938-.115-2.5-.191-2.5-1.38 0-2.22 3.077-2.513 8.742-1.21.677.155 1.905.328 2.206.32.218.083-.432-.736-.54-1.226-.205-.175-.571-.258-1.536-.29-3.643-.359-6.667-.607-6.732-1.085-.322-2.35 4.39-2.99 9.276-1.104 1.255.484 1.28.284 1.27-.082-.018-.677-2.118-1.86-5.216-1.827-3.013.031-2.593-1.505-.116-2.659.847-.394 2.898-.184 5.034-.195Zm-11.652 2.519c-.389 0-.7.317-.7.707a.703.703 0 1 0 1.405 0 .707.707 0 0 0-.705-.707Zm-10.857 4.877-.637-2.634-4.1 10.247 10.355-5.29-3.415-.642.3-2.157-2.503.476Zm-5.276 4.114a.707.707 0 0 0 0 1.414c.388 0 .7-.317.7-.707a.703.703 0 0 0-.7-.707Zm10.316 2.907-.872-2.49-3.482 8.92 8.836-3.96-2.61-.714.371-2.702-2.243.946Zm-7.034.026a.707.707 0 0 0 0 1.414c.389 0 .7-.317.7-.707a.703.703 0 0 0-.7-.707Zm2.262 3.407a.703.703 0 0 0-.704.702c0 .39.316.707.704.707.389 0 .7-.317.7-.707a.699.699 0 0 0-.7-.702Zm-4.44 2.088-2.982 8.449 8.302-4.032-2.426-.802s.134-1.9-.095-1.811c-.145.055-1.707.493-1.707.493l-1.092-2.297Zm7.39 1.011a.703.703 0 0 0-.705.702c0 .39.316.707.705.707a.707.707 0 0 0 .705-.707.703.703 0 0 0-.705-.702Zm-11.007 4.064a.707.707 0 0 0 0 1.414.707.707 0 0 0 0-1.414Zm3.173 3.268a.703.703 0 0 0-.704.703c0 .39.316.707.704.707a.707.707 0 0 0 .705-.707.703.703 0 0 0-.705-.703Zm-43.79 38.908c-.38.056-1.369-.85-1.561-1.275.563-.144 1.144-.038 1.46.227.26.248.445.885.1 1.048Zm3.006-.611c-.134 1.032.503 2.898.382 3.341-.326.161-1.978-1.616-2.385-2.048-.085-.59.01-1.338.039-1.677.568-.1 1.574-.063 1.963.384Zm2.974.514c.352 2.287 1.356 5.964 1.2 7.204-.15-.119-1.423-1.378-2.363-2.714-.331-.8-.846-3.584-.802-4.917.634-.087 1.485.015 1.965.427Zm-19.925-.258c-1.015.52-2.17.894-3.62.888-1.162-.005-3.164-.61-2.961-.46.529.949 1.911.45 1.938 1.07-.344.613-1.263.556-1.72 1.143-.096.155.135.287.783.218 1.963-.893 4.529-.876 6.876-.103.494.104.17-.37 0-.496-.305-.225-.809-.46-1.233-.511-2.05-.366-1.15-.573.222-1.188 1.007-.369 1.26-1.277-.287-.56h.002Zm4.444 2.906c-.273.022-.956.37-1.704.673-1.264.513-2.433.393-4.133-.082-1.476-.412-2.014-.298-3.484.445-.975.627-2.043.802-2.815.364-1.001-.571-.995-.376-.499 1.036.124.352-.121 1.42.315 1.666.331.187.714-.437.97-.523.257-.087 1.868.638 2.766-.16 1.604-.583 2.086.363 3.196.271 1.803-.637 2.931-1.302 4.48-.07.092-.462.452-2.98 1.028-3.576-.015-.035-.058-.049-.12-.044Zm-3.284 7.25c-1.298.015-2 .814-3.673.661-1.336-.094-1.794 1.095-1.228 1.961.399.61.932.723 2.754-.115.749-.344 1.79-1.102 2.4-1.04 1.78.178 2.211 1.905.728 3.365-.722.426-.729.888-.508.896.586.023 1.774-.68 2.043-1.5.739-2.243-.589-4.27-2.516-4.229Zm5.82 10.336c-1.688.357-4.12 2.3-4.948 3.559-.774 1.226-1.515 2.612-.974 3.297.443.56 1.064 1.106 1.117 1.41.046.266-.316.53-.655.91-1.482 1.663-1.13 1.754.95.675 1.052-.547 1.542-.767 2.23-.587 2.003.524 4.497.15 6.193-.474.766-.283 1.516-.665 1.574-.47-3.095 3.416-6.954 2.556-8.332 2.348-.24-.062-.426-.048-.425.034 0 .167.4.527 1.25.906 1.422.633 4.84-.04 6.976-1.603 4.225-2.772 6.554-5.421 3.225-4.314-1.528.507-2.1.419-3.954-.422-2.78-1.259-4.91-1.628-7.212-.823-2.917 1.02-.68-1.391 2.602-3.481.71-.454.8-.972.383-.965ZM62.12 237.25l-.973.015c-.696-2.35-2.377-2.345-3.105.015l-.812-.058c.796-2.93 3.803-3.533 4.89.028Zm17.302.195-.73.033c-.444-1.423-2.006-2.676-3.106-.343l-.507-.105c.9-3.726 4.486-1.653 4.343.415Zm-4.873-2.141c.455 0 .57.518.053 1.36-.364.593-.797.54-1.23.092-.393-.393-.37-.463.057-.852.454-.415.847-.6 1.12-.6Zm5.383.014c.197-.006.574.158.995.3 1.11.376 1.361.687.907 1.143-.447.448-1.294.583-1.685.329-.018-.56-.57-.991-.59-1.553 0-.15.175-.213.373-.219Zm-17.374.02c.769-.036 1.8.42 1.725.866-.082.487-.841.806-1.466.858-.42.055-.402-.115-.512-.414-.098-.266-.224-.606-.296-.871-.172-.512.156-.424.549-.44Zm-5.259.169s-.43 1.286-.623 1.724c-1.609-.087-1.457-.798-.697-1.312.409-.312.822-.319 1.32-.412Zm-1.248 3.056c.29.005.652.257 1.158.42 1.425.461 3.792.41 5.639-.019.884-.204 1.302-.48 1.496-.338.346.25-.012 1.127-1.289 1.69-1.663.615-4.2.948-6.121-.034-1.644-.841-1.826-1.736-.883-1.72Zm-.44 1.84c1.507.998 3.016 1.313 4.88 1.14 2.792-.103 3.29-.448.937.801-2.173 1.155-5.524.942-6.17-.31-.369-.717-.13-1.571.353-1.631Zm13.527 1.675a.057.057 0 0 0-.024.005c.225 1.51 2.754 2.893 3.968 3.22 2.575 1.146 6.67.011 9.751-1.322 2.25-.973 3.062-2.443.381-1.607-4.313 1.343-9.727 1.445-12.439.401-.882-.419-1.486-.703-1.637-.697Zm-14.194 5.658c5.397 1.221 11.921 9.571 11.897 13.222h-1.743c-2.654-9.287-9.546-11.297-10.22-11.852-.309-1.14.079-1.398.066-1.37Zm-.086 2.352c6.414 2.818 8.696 7.847 9.657 10.87h-1.876c-1.397-4.16-3.909-7.126-7.796-8.973-.263-.579.015-1.897.015-1.897Zm-.01 2.846c3.287.972 6.186 5.313 7.009 8.024l-1.641-.01c-1.163-3.025-2.812-4.965-5.431-6.082-.108-.57-.086-1.214.063-1.932Zm-.053 2.95c1.543.31 4.157 2.717 4.533 5.074H57.82c-.53-1.589-2.173-3.04-3.014-3.632 0-.289-.012-1.443-.012-1.443Zm.158 2.515c.166-.104 2.47 1.978 2.082 2.559h-2.076c-.024-.647-.04-2.566-.01-2.559h.004Z" id="path4073-4-2-4" fill="#131F67"/><path d="M113.738 2.181c-3.912 7.601-23.985 41.833-24.19 43.024l5.142 2.28 24.957-45.13s-5.172-.168-5.909-.174Zm59.054 28.652-2.175 3.099 1.764 3.544 2.139-3.38-1.728-3.263Zm-91.82 34.282s-7.198 7.174-10.011 10.52c6.047 6.051 17.604 13.65 17.69 25.342l7.968.03 25.792 23.14s23.357.17 23.792.07c.47-.11 8.769-12.026 8.769-12.026l14.8 10.824s-.71-11.657-1.269-18.8c-.183-4.778-.34-7.716 3.141-9.83-4.784-2.288-4.481-6.493-.963-9.58-1.161-1.61-2.895-1.907-3.156-7.613-.732-.788-1.425-1.25-2.341-1.918l-.956.857c-3.071 2.766-5.163 5.587-5.508 7.423-.656 3.496 2.883 5.89 4.929 3.337.576-.72 1.09-.518 1.09.42 0 1.907-2.39 2.983-4.412 1.991-.472-.232-.89-.386-.931-.344-.073.074 2.006 5.183 2.568 6.31.935 1.874 1.424 3.757 1.496 5.728.077 2.104.035 2.374-.946 6.01-.924 3.424-.489 5.461 1.164 5.461.93 0 .9.897-.04 1.225-1.997.699-3.236-.778-3.306-3.932-.043-1.916-.076-1.964-1.057-1.5-3.416 1.61-7.125-1.269-5.518-4.281.338-.633.737-.434.946.47.393 1.694 1.278 2.441 2.877 2.435 3.686-.014 5.23-5.238 3.104-10.498-.426-1.056-.641-.995-1.202.34-.879 2.093-2.352 2.71-3.567 1.49-.407-.408-.605-1.07-.328-1.103.064-.008.469-.025.897-.04 2.148-.068 2.89-2.158 1.883-5.301-.884-2.762-1.02-3.263-1.284-4.76-.407-2.314-.123-4.07 1.019-6.314.201-.397 1.46-1.809 3.026-3.395 1.599-1.62 2.974-2.862 2.974-2.862-1.523-1.276-2.904-2.282-4.623-3.565 0 0-10.975 30.23-10.198 42.008-1.392 15.517-12.766 11.224-13.603.477L80.972 65.115Zm-.49 4.533c3.752-.063 6.225 4.913 7.637 15.238.468 3.421 2.547 8.213 4.055 9.345 3.806 2.858 9.761.656 9.766-3.612.01-5.313-7.43-6.1-7.545-.799-.027 1.25-.667 1.315-1.28.126-.546-1.06-.053-3.042 1.01-4.043.68-.642.628-.763-.671-1.482-4.525-2.505-6.45-6.24-4.031-7.83 1.057-.695 2.502.184 1.839 1.119-1.036 1.46-1.05 1.692-.184 2.905.985 1.379 2.152 2.067 4.92 2.886 2.323.688 2.706.817 3.78 1.308 3.142 1.436 4.577 4.599 3.48 7.67-.259.724-.51 1.439-.56 1.588-.113.337.072.339 2.283.043 3.52-.47 7.43.791 9.356 3.017 1.035 1.196 1.866 3.886 1.892 6.13.01.432.138 1.409.3 2.17.161.76.375 2.047.473 2.856.92 7.681 7.296 11.61 10.05 6.194 1.734-3.409-2.275-6.818-4.315-3.67-.717 1.105-1.456.596-1.043-.717.802-2.553 3.98-2.988 6.145-.838 1.17 1.162 1.732 3.799 1.164 5.472-.299.877-.267.933.38.707 1.455-.51 3.97-.02 4.872.949 2.125 2.28 1.7 5.02-.917 5.907-1.19.4-2.538-.016-2.979-1.414-.194-.997.49-1.283 1.019-.426.989 1.606 3.144.312 2.635-1.583-.578-2.156-2.415-2.614-5.807-1.443-5.391 1.86-7.132 1.705-9.713-.867-1.842-1.836-2.535-3.423-3.031-6.924-.548-3.867-.6-3.967-1.555-3.153-4.562 3.894-10.59-1.99-6.724-5.859 1.195-1.198 2.074-.154.999 1.187-1.57 1.957.477 4.682 3.041 4.048 4.67-1.156 3.717-8.01-1.337-9.612-1.54-.488-5.772-.286-9.027.43-9.09 2.002-13.105-1.89-14.975-14.497-.218-1.473-.474-2.561-1.337-5.733-1.024-3.762-4.506-5.805-6.406-3.757-1.515 1.632-.718 3.83 1.39 3.835 2.102.005 1.458 1.45-.733 1.646-3.804.34-4.465-6.01-.816-7.83.89-.444 1.722-.674 2.5-.687Zm-49.695 2.28 1.242 4.582 4.7 1.331-1.49-4.3-4.452-1.613Zm12.119 1.412-1.262 4.089 3.5-1.223 1.224-3.918-3.462 1.052Zm38.658 6.694c.746 0 1.351.607 1.351 1.356 0 .749-.605 1.356-1.351 1.356a1.354 1.354 0 0 1-1.352-1.356c0-.749.605-1.356 1.352-1.356Zm-44.926 2.377-4.083 1.363-.713 3.242 3.753-.845 1.043-3.76Zm8.526 1.465-2.932-.901.694 3.346 3.206 1.315-.968-3.76Zm131.359-.634-1.947 1.52c5.675 4.947-.45 9.715-.641 9.392 4.102 2.724 3.372 7.02 2.84 10.953-.972 7.017-1.35 13.655-2.41 20.846 0 0 4.943 3.42 8.231 4.745.062.008.02-42.195.02-42.195l-6.093-5.26Zm-70.03 6.355c.746 0 1.351.607 1.351 1.356 0 .75-.605 1.356-1.352 1.356a1.354 1.354 0 0 1-1.351-1.356c0-.749.605-1.356 1.351-1.356Zm-82.976 3.47.17 39.381 8.127-14.576-5.592-6.47 4.833-5.176c-2.848-4.218-5.175-8.697-7.538-13.159Zm79.133 6.002c.746 0 1.351.607 1.351 1.356 0 .748-.605 1.355-1.351 1.355a1.354 1.354 0 0 1-1.352-1.355c0-.75.605-1.356 1.352-1.356Zm18.45 4.028c.747 0 1.352.607 1.352 1.356 0 .75-.605 1.356-1.352 1.356a1.354 1.354 0 0 1-1.352-1.356c0-.749.605-1.356 1.352-1.356Zm52.85 43.87 5.97 6.146-4.726 5.824 7.405 12.496-.119-38.664-8.53 14.198ZM23.442 134.034l.284 42.356 6.383 4.67 1.619-1.532c-4.12-4.413-1.659-7.695 1.446-9.594-5.478-1.28-3.815-8.568-3.488-11.945-.134-6.27 2.157-13.424 1.452-19.452l-7.696-4.503Zm36.764 5.888-9.149 12.785s-10.053-7.638-15.121-11.083c.542 5.517 1.037 12.555 1.71 18.49 1.643 8.666-2.636 8.815-2.676 9.645 6.802 5.178 1.093 10.02.07 9.777 3.623 1.978 3.324 7.988 3.324 7.988l1.718.975s.56-.342.797-.47c1.837-.99 4.832-4.525 5.517-6.856 1.163-3.953-2.26-7.237-4.412-4.232-1.057 1.476-1.904.489-1.038-1.21.791-1.552 2.856-2.33 4.23-1.594.797.429.619-.683-.614-3.796-.414-1.044-.75-2.184-1.332-4.494-.564-2.234-.345-4.928.632-7.67 1.408-3.952.909-6.432-1.347-6.648-1.203-.115-1.334-.493-.352-1.05 2.19-1.245 4.315.527 4.229 3.53-.047 1.623-.03 1.65.825 1.307 4.323-1.74 7.738 2.76 4.716 6.212-.924 1.055-1.505.386-.897-1.031.939-2.19.045-3.75-2.153-3.767-3.19-.025-4.954 4.394-3.698 9.253.392 1.517.452 1.536 1.51.523.94-.9 1.643-1.187 2.37-.969 1.51.453 1.906 2.064.46 1.865-2.486-.343-3.14 2.269-1.733 6.914 1.865 6.164-.023 11.187-5.542 14.76-.28.18-.724.527-.724.527 2.128 1.903 3.49 2.984 6.303 4.702l10.043-40.706s-.169-2.312-.416-3.402c-.01-10.926 10.155-11.972 13.336-2.051.306.952 1.922 3.384 1.922 3.384l52.911 47.097s9.878-9.575 9.743-9.828c-7.504-7.587-17.64-12.95-18.008-24.988-1.798-.052-7.81.06-7.81.06L83.821 140.2c-8.075.051-15.236-.528-23.616-.28Zm14.416.886c1.413-.044 2.838.692 2.838 1.874 0 1.02-.68 1.254-1.245.426-.789-1.156-1.704-1.248-2.636-.266-2.582 2.723 1.43 5.211 6.044 3.748 2.825-.896 4.194-1.138 5.228-.93 4.359.877 6.464 3.827 6.836 9.573.189 2.922.183 2.911 1.443 1.753 3.067-2.818 7.497-1.25 8.187 2.9.296 1.782-1.615 4.025-3.432 4.025-.712 0-.6-.747.169-1.114 1.848-.884 1.92-3.807.126-4.949-2.384-1.516-5.523.849-5.484 4.13.047 3.945 2.984 5.763 8.785 5.429.85-.05 2.983-.15 4.736-.223 2.771-.119 5.75-.642 8.574 1.496 2.957 2.359 4.92 7.048 5.759 13.825 1.322 8.34 2.344 10.574 5.136 10.775 1.656.118 3.06-1.297 3.06-2.94 0-1.16-1.528-2.181-2.688-1.797-1.401.463-1.684-1.059-.304-1.637 1.91-.801 4.245.743 4.764 3.152.303 1.405-1.277 4.099-2.934 4.771-4.324 1.754-7.398-1.829-8.41-9.845-.621-3.677-.962-6.155-2.105-9.297-2.097-5.784-5.544-8.17-9.297-6.44-4.25 1.959-3.407 8.341 1.095 8.294 2.474.197 2.992-1.627 3.043-3.579.058-1.44 1.686-.088 1.825.903.133 1.202-.941 2.69-1.89 3.394-1.533 1.03-.988.965.58 1.379 4.215.779 7.348 6.373 4.828 8.273-1.31.801-2.7-.378-1.793-1.536 1.443-1.84-1-4.748-5.446-5.725-5.823-1.28-8.142-5.628-6.042-10.096.695-1.478.756-1.444-2.085-1.283-6.25.354-8.47-.513-10.567-4.145-.633-1.096-.913-2.563-1.048-5.477-.241-5.216-.715-8.445-1.37-9.355-3.246-4.502-9.998-3.155-9.154 1.826.444 2.615 3.138 3.454 4.978 1.55 1.389-1.44 2.037-.103.68 1.404-3.263 3.623-8.943-.607-7.255-5.404.386-1.099.438-1.063-1.656-1.124-4.658-.134-6.874-4.132-3.872-6.977.526-.499 1.259-.737 1.999-.76ZM85.86 157.97c.747 0 1.352.607 1.352 1.356 0 .749-.605 1.356-1.352 1.356a1.354 1.354 0 0 1-1.352-1.356c0-.749.606-1.356 1.352-1.356Zm18.725 4.813c.747 0 1.352.607 1.352 1.356 0 .749-.605 1.356-1.352 1.356a1.354 1.354 0 0 1-1.351-1.356c0-.749.605-1.356 1.351-1.356Zm-4.02 8.847c.746 0 1.35.607 1.35 1.356.001.749-.604 1.356-1.35 1.356a1.354 1.354 0 0 1-1.352-1.356c0-.749.605-1.356 1.351-1.356Zm59.507 5.273.857 4.01 3.102.82-.484-3.437-3.475-1.393Zm10.852 1.388-.067 2.378 2.76.326.976-4.1-3.669 1.396Zm-46.329 3.59c.747 0 1.352.607 1.352 1.356 0 .748-.605 1.355-1.352 1.355a1.354 1.354 0 0 1-1.352-1.355c0-.75.606-1.356 1.352-1.356Zm39.63 5.523-3.243.903-1.559 4.519 4.153-1.508.65-3.914Zm6.346.407.397 3.348 3.997 1.812-1.352-4.772-3.042-.388Zm-58.906 28.54-24.81 44.99 6.78-.094 23.416-42.423-5.386-2.473Zm-78.033 10.891-2.191 2.96 2.08 3.432 2.39-3.447-2.279-2.945Z" id="path4071-9-6-8" fill="#D40000"/><path d="M75.793 1.055c4.568 13.893 4.993 27.584 1.028 40.74 2.259.114 12.113 2.649 17.537 6.007-1.004 2.59-16.381 21.56-26.82 30.11 2.967 2.947 6.232 5.894 9.664 9.142 5.191 4.94 7.024 8.342 7.367 14.754-.046 3.096-1.153 6.917-3.118 9.622-1.487 2.044-3.064 3.616-6.228 5.718-2.919 1.94-7.185 6.113-12.551 12.266-2.045 2.346-5.497 6.617-8.356 10.691-1.082 1.48-4.267 6.102-4.267 6.102-10.625-8.696-22.002-15.404-22.294-15.353 0 0 11.48-6.136 13.894-7.387 1.855 1.194 4.373.173 3.164-2.454-2.323-5.98-.703-12.134 2.15-16.43.684-1.036 2.33-1.64 4.992-1.826 1.156-.075 2.377-.038 3.601-.053.442 0 1.632.17 2.284.528 2.17 1.188 2.605-.34 3.958-5.486 1.347-5.12-.82-11.596-3.91-11.617-.726-.005-1.134.264-.984 2.086.113 1.375-.217 2.088-.57 2.955-.771 1.892-1.18 3.744-1.425 6.212.451.092-2.869-3.313-8.1-4.663-3.399-.403-5.125-4.649-4.982-4.658 0 0 .51-1.15.956-1.598 1.161.557 2.302 1.212 3.679 1.618 0 0-.318-1.706-.44-2.165-.631-2.372-.597-2.733.314-3.225 2.26-1.22 2.498-3.403.734-5.39-.446-.507-.82-.833-1.42-1.089l1.116-4.454s-1.022.22-1.84.47c-2.364.72-2.187.744-3.195-.408-2.194-2.506-5.544-2.029-6.044.862-.055.32-.203.828-.203.828l-5.043-2.454c.147 1.186 1.457 5.205 1.457 5.205-4.412 3.438-.683 6.482.52 6.804 0 0-1.03 3.29-1.385 4.657l4.977-1.426c.418.95.933 1.673 1.968 2.339.27 2.808 2.427 5.072 3.914 6.434 0 0 .214 1.027.085 1.684-.321 1.633 1.333 4.218 1.613 4.373-6.83-2.803-13.948-6.165-20.821-9.467l.43 84.733s1.6 1.438 4.773 3.72c1.525 1.095 1.525 1.1 1.207 2.362-.418 1.665-.315 2.936 1.101 13.897.75 5.797 1.567 11.808 2.298 17.2.29 1.963.33 3.223.33 3.223-1.517-.704-3.726-.776-4.868.51-1.97 2.25-.393 5.874 2.525 5.796.663-.04 1.113-.234 1.685-.625.395-.212.803-.027.803-.027l-4.355 7.676 5.013 8.466 5.001-9.054-3.637-7.163s.355-.04.848.209c.489.246 1.146.434 1.603.46 2.537.02 3.058-1.141 3.326-3.23 0-2.688-2.133-3.904-5.069-2.89-.46.159-.97.203-.97.203l3.08-29.552 1.65 1.215.541-.295-1.443-1.235c.313-4.735-1.244-6.412-2.926-7.558 5.625-3.21 3.187-8.283-.553-9.845 0 0 2.43-1.424 2.917-2.918.415-1.336.26-3.454-.21-7.211-.352-5.793-1.593-17.762-1.593-17.762 4.914 3.717 9.959 7.694 14.704 11.452l9.51-13.258 22.92.16s17.421 15.865 26.19 23.954l7.568.068s.083.812.16 1.351c.717 7.834 5.956 13.214 10.726 16.987 1.945 1.751 6.749 6.352 6.749 6.352l-8.907 9.007-54.54-48.863s-.26-.712-.367-1.147c-1.26-5.175-4.678-7.343-7.786-6.978-3.262.383-6.044 3.605-5.904 9.089.022.848.328 2.344.328 2.344l-9.963 41.628s-3.985-3.051-6.136-4.518l-.473.276 5.831 4.397.435-.189 1.656 1.298.125.886c5.102 3.481 13.753 9.98 13.753 9.98 4.084-3.044 8.377-2.027 12.677-.882 0 0 3.126 1.048 4.789 1.041 8.449.19 15.931 1.837 23.784 4.683l-28.626 50.9 54.53.112c-2.688-10.654-5.543-21.475-.439-39.648-5.378-1.088-17.335-5.888-17.335-5.888s-.057-.272.449-.896c2.21-3.17 7.8-11.764 13.039-16.734.638-.458 9.768-9.345 9.857-9.626.05-.158.27-.758.628-.993.841-.564 3.078-2.685 3.078-2.685l-11.426-9.939s-.502-.048-.665-.14c-1.595-.894-4.475-5.887-5.185-9.23-1.631-7.688 1.381-13.767 9.882-20.007 8.3-5.7 24.037-27.827 24.089-28.317 8.486 7.046 15.11 10.695 22.577 15.317-4.51 2.595-8.188 4.33-11.344 6.046-2.048 1.172-2.33 1.417-4.06.925-1.96.016-2.63.774-2.133 2.47 2.967 4.703 1.693 15.654-2.32 17.764-3.482 1.832-6.869 1.336-9.667.297-2.16-.694-2.131-.701-3.094 1.264-2.119 4.526-2.255 8.337-.3 12.677 1.605 3.484 3.99 5.072 4.283.375.173-2.759 1.384-5.982 1.346-8.946 2.433 2.694 4.045 3.925 8.038 5.022 2.678.417 5.522 3.787 5.433 5.16-.735.745-.959 1.696-1.078 1.628-1.304-.427-4.128-1.632-4.128-1.632l1.202 4.262s-.199.192-.777.489c-2.659 1.36-2.487 5.037.304 6.508.568.299.608.44.367 1.225-.347 1.747-1.11 2.92-1.521 4.653 0 0 .38.014 3.563-1.462l1.25-.581.753.808c1.649 1.768 3.63 1.758 5.358-.029l.792-.818 2.21 1.123c2.084 1.06 2.632 1.279 2.632 1.279s-1.202-4.676-1.424-5.21c-.12-.29-.366-.583-.546-.65-.297-.11-.25-.18.54-.808 2.005-1.593 2.206-3.791.498-5.462-.65-.637-.734-.77-.734-.77l1.038-4.334-4.304 1.43c-.679-1.449-1.758-2.108-2.44-2.403-.073-1.956-.317-3.966-3.668-7.023 1.13-1.035-.213-3.527-1.319-5.022 1.885.635 6.598 2.635 6.598 2.635l.712-.029 2.25 1.082.264.402s7.08 3.35 10.331 4.919c-.01-.175-.034-3.683-.043-42.297-.01-23.022.032-41.957-.015-42.078-.046-.122-.824-.72-1.632-1.332-1.49-1.128-1.795-1.348-3.688-2.615-1.518-1.016-1.416-1.008-1.1-2.179.362-1.345.354-3.194-.126-6.658-.354-2.557-1.64-11.55-2.534-18.807-.628-5.091-.777-6.221-.932-7.04-.249-2.062.018-2.96-.027-2.99 7.11 3.088 7.671-7.155.544-5.772 1.363-2.758 2.512-4.039 3.68-6.985-1.486-3.21-4.776-8.638-4.776-8.638l-5.21 9.098 3.066 6.295c-3.526-.637-5.397 1.937-4.745 4.246.71 2.043 2.661 2.615 4.383 1.792 1.327-.524 1.325-.658.15 9.321-.348 2.95-1.892 16.749-2.105 18.802-.143 1.38-.231 1.762-.792 1.458-.759-.327-1.193-.805-1.955-1.307l-.424.397c.676.55 1.478 1.262 2.297 2.017-.188 3.655-.114 5.771 2.919 7.555-5.497 3.456-2.283 8.773.945 9.542-1.924.498-3.821 2.981-3.362 7.915l1.56 20.332-14.903-11.098-8.747 12.556-23.046.029-25.995-23.529s-5.7-.078-8.038-.135c.265-.124-.49-7.273-4.253-11.941-4.09-4.877-13.397-12.926-13.391-12.929l9.775-9.955 54.883 49.55a71 71 0 0 0 .406 2c1.834 7.822 10.707 8.297 12.594.329.305-1.287.673-4.283.536-4.639-.044-.114.232-1.42.613-2.905 2.95-11.607 5.464-21.62 8.366-32.762.4-1.534.824-3.243.941-3.797.479-2.26.407-2.246 2.767-.464 1.444 1.09 2.042 1.481 2.042 1.481l.458-.48c-1.62-1.257-4.393-3.263-4.393-3.263l.03-.852c-8.912-6.4-10.747-8.1-16.023-12.294-4.088 3.61-9.935 2.148-13.599.871-.944-.372-3.263-.978-3.263-.978-9.126.012-17.144-1.755-24.716-4.237l29.196-52.15h-11.277l-.394.444h-5.867l-.019-.443-38.431.002Zm107.67 171.517c0 .032 0 0 0 0ZM109.073 2.233l3.992.078L89.44 44.593l-2.51-.983s.23-.121.227-1.903c0-1.913-.416-2.73-1.275-3.86-.72-.977-1.026-1.03 1.081-.74 4.308.594 7.37-4.104 5.658-7.772-.66-1.415-.567-1.5 1.178-1.675 4.804-.48 6.673-6.594 3.273-9.641-.703-.638-.39-1.044.922-.76 4.157.9 7.377-3.724 5.725-7.346-.537-1.01-.054-1.178.705-1.278 3.559-.837 4.77-3.64 4.649-6.402Zm-31.842.005 18.494.005c-2.488 3.818 1.905 6.079 2.462 5.811-3.987 2.184-2.892 5.263-.824 6.32 2.006 1.027 5.016.103 4.213-4.34l.99-.43c.962 1.09 1.916 7.856-5.422 6.914-1.306-.167-2.015 1.056-.922 1.734 5.799 6.687-3.278 9.641-3.673 8.532l-.03-1.132c2.454.453 5.595-2.72 2.841-5.54-1.565-1.604-6.108-.822-5.33 4.044-2.683-4.02-5.611-2.807-6.4-.684-.613 1.647.166 3.9 2.842 4.283-2.989 2.511-1.537 5.313.517 5.932 2.267.683 4.583-.244 3.957-4.376.036-.391.828-.264.893-.285 2.345 5.868-3.259 8.023-6.285 6.813-1.12-.438-1.707 1.296-.516 2.179 1.807 1.34 1.248 5.196 1.037 5.234-3.36-1.278-8.174-2.223-7.995-2.152 3.21-12.734 3.003-25.684-.848-38.861Zm29.486.005 1.67.005c.022 2.399-1.016 5.351-5.097 5.806a7.069 7.069 0 0 0-.193-1.932c1.53-.347 3.561.079 3.62-3.878Zm7.294.131 5.335.024-25.098 44.684-4.012-2.068 23.775-42.64Zm-13.16 3.39c.943 0 1.71.764 1.71 1.709 0 .945-.767 1.714-1.71 1.714a1.709 1.709 0 0 1-1.703-1.714c0-.945.761-1.71 1.704-1.71ZM90.155 25.249a1.58 1.58 0 0 1 1.579 1.583c0 .875-.706 1.588-1.579 1.588a1.584 1.584 0 0 1-1.578-1.588 1.58 1.58 0 0 1 1.578-1.583Zm82.621 1.263 4.248 7.419-4.846 8.61-4.046-8.252 4.644-7.777Zm-.077 2.528-2.988 4.949 2.713 5.07 3.085-4.818-2.81-5.2Zm.058 2.121 1.545 2.992-1.878 3.037-1.559-3.21 1.892-2.819Zm-4.117 10.052c.32.001.664.07 1.018.218 2.862 1.2 1.95 5.563-1.105 5.293-.404-.043-.934-.248-1.318-.509-2.12-1.743-.844-5.008 1.405-5.002Zm6.994.083c2.503.045 4.011 3.538 1.376 5.171-1.271.71-3.172.28-3.92-.983-.641-1.083-.364-2.889 1.072-3.825a3.093 3.093 0 0 1 1.472-.363Zm-3.475 4.982c.25.021.522 1.24.772 3.356.091.767.334 2.684.54 4.261.395 3.372.8 6.512 1.15 9.762.069.64.24 1.999.381 3.021 1.448 10.557 1.776 13.93 1.434 14.827-.914 3.148-5.196 3.388-6.986 1.56-1.352-1.383-1.55-2.901-1.018-6.857.308-2.284.434-3.434 1.337-12.164.212-2.045.517-4.764.68-6.043.359-3.416.782-6.617 1.246-9.984.134-1.205.293-1.753.464-1.739Zm-70.138 7.845s13.717 4.534 24.152 4.329c1.532-.001 1.78-.015 3.688.61 1.131.37 2.91.872 3.954 1.113 3.217.625 6.045.449 8.549-.576.393-.16.971-.646 1.554-.47.356.108.874.819.874.819-9.137 2.433-30.512 1.984-43.818-3.642l1.047-2.183Zm70.47 1.443c-.056.01-.116.087-.183.193-.223.354-.039 2.678.792 10.067 1.586 14.116 1.58 14.418-.343 15.902-.945.73-1.091 1.023-.637 1.288.338.198.31.197 1 .005 1.617-.45 2.286-1.738 2.273-4.368-.01-2.004-.034-2.246-.656-7.171-.216-1.704-.51-4.11-.657-5.346-1.041-8.793-1.281-10.622-1.588-10.57Zm-71.85 1.476c13.655 4.905 27.923 6.294 45.121 3.647 0 0 1.654 1.074 2.487 1.602l-.58.136.261 2.382 2.92-.47s1.58 1.26 2.757 2.034c-15.335 4.697-40.102 3.887-55.38-2.924-.581-.337-.922-.606-.922-.606.33-.812.728-1.294 1.134-1.748l2.79.8.807-2.552-2.134-.78.739-1.52Zm3.577 3.056-.893 2.513 3.9 1.162.667-2.566-3.674-1.11Zm5.967 1.554-.517 2.862 3.915.726.488-2.784-3.886-.804Zm6.478 1.342-.31 2.76 4.153.44.255-2.794-4.098-.406Zm28.535.043-3.534.387.222 2.431 3.572-.421-.26-2.397Zm-6.233.702-3.504.233.12 2.547 3.524-.223-.14-2.557Zm-15.79.054v2.706l3.592.136.043-2.765-3.635-.077Zm9.877.338-3.312.015-.014 2.576 3.346.015-.02-2.606Zm-38.397.456c.357-.011 1.173.787 1.51 1.68.664 1.756.36 3.704-.68 4.348-1.415.878-3.078-.496-2.105-1.738.173-.22.45-.44.618-.494.728-.232.898-1.381.502-3.37-.059-.294.015-.422.155-.426Zm5.295.673c14.782 4.854 31.554 6.484 48.834 2.934 0 0-8.188 33.545-8.365 33.561L99.949 65.26Zm-7.245.101c.778 0 .919 1.325.217 2.03-.897.898-2.606.177-2.25-.95.104-.327 1.519-1.08 2.033-1.08Zm4.248.78c.16-.012.466.31.95.964 1.661 2.242 1.791 4.746.305 5.888-1.743 1.338-3.016-.739-1.564-2.552.376-.47.431-1.338.207-3.259-.08-.684-.06-1.03.102-1.041Zm57.315.809c.191-.006.53.141 1.207.474 1.06.52 1.427 1.282.917 1.898-.74.896-2.772-.878-2.39-2.087.059-.184.118-.28.266-.285Zm-1.593 1.167c.266.026.69.514 1.183 1.506.316.636.5.818 1.033 1.012 1.264.457 1.499 1.77.386 2.16-1.207.421-2.107-.45-2.66-2.577-.364-1.403-.283-2.135.058-2.101Zm-52.874.939c.183-.011.534.401 1.09 1.225 1.653 2.446 1.084 7.14-.999 8.237-.917.483-1.556.38-2.292-.359-1.077-1.08-.812-1.933.786-2.522 1.36-.502 1.8-2.055 1.381-4.881-.168-1.13-.174-1.687.034-1.7Zm7.868.775c10.095 8.35 19.208 17.3 30.954 27.75 2.79-8.608 6.856-26.48 6.87-26.54-.445.368-19.732 3.112-37.824-1.21Zm37.823 1.21c.01-.008.012-.014 0-.02v.02Zm6.261-1.186c.168 0 .655 1.256.932 2.402.251 1.038 1.25 2.777 1.636 2.842 1.99.338 2.837 1.45 1.854 2.436-.721.723-2.283.313-3.036-.794-1.415-2.082-2.381-6.886-1.386-6.886ZM39.12 71.007c1.2.01 2.354.77 2.646 2.334.34 1.822-.687 3.146-1.556 2.934-.944-.354-1.265-1.854-1.265-1.854s-.224 1.223-.611 1.84c-.847 1.296-2.627-.628-2.308-2.494.311-1.821 1.734-2.77 3.094-2.76Zm71.847.48c10.993 1.656 20.45 2.086 33.564.658l-6.179 24.066-27.385-24.724Zm-8.304.038c.163.011.497.304 1.02.858 1.707 1.811 2.2 4.325 1.09 5.573-.676.76-1.13.847-1.849.353-.917-.63-.986-1.578-.145-2.014.774-.401.844-1.283.232-2.954-.456-1.246-.586-1.831-.348-1.816Zm-71.715.62 4.016 1.67 1.439 3.405-4.007-1.036-1.448-4.039Zm15.187.45-1.193 3.39-3.09 1.157 1.203-3.665 3.08-.881Zm104.769.712c.148-.002.369.427.637 1.313.663 2.192.944 2.746 1.55 3.036.985.471 1.057 1.67.125 2.096-.591.27-.786.215-1.207-.339-.656-.862-1.183-2.513-1.28-3.994-.09-1.39-.016-2.109.175-2.112Zm-44.712 1.53c.117-.007.288.164.541.465 1.56 1.86 1.73 4.714.333 5.569-1.353.828-3.246-.88-2.066-1.864.106-.089.35-.287.545-.436.33-.252.357-.398.387-2.015.022-1.2.067-1.705.26-1.718Zm11.855.199 19.228 17.527 4.415-17.339c-7.595.684-15.53.481-23.643-.188Zm-47.235.881c6.075 6.434 14.023 11.635 15.911 18.033 3.384 8.806.903 19.024-7.019 24.87-4.372 3.318-8.658 6.811-12.223 11.03-5.85 6.246-9.753 13.07-13.661 18.022-.663.833-2.41 3.453-2.41 3.453s-.854.98-3.711-1.424c-7.58-6.761-15.537-11.665-23.635-16.337l3.427-1.923c6.761 3.867 15.167 9.371 22.728 15.785 0 0 6.012-8.807 7.931-11.33 2.782-3.622 4.737-5.954 7.328-8.755 6.617-8.194 13.45-10.905 16.292-15.054 4.165-6.079 4.343-13.285.918-19.437-3.378-5.87-9.947-9.894-14.309-14.754l2.433-2.179Zm57.659.475h7.516s-1.104.924-1.95 1.491c-.531.356-1.152.307-2.322-.184-1.137-.477-3.244-1.307-3.244-1.307Zm8.607 0 1.752.053c-1.31 1.651-2.653 2.716-4.412 4.184-.227.098-.354.138-.883-.034-3.593-1.192-6.89-2.707-10.389-4.14l3.119-.015s1.5.481 3.755 1.42c2.586 1.075 3.256 1.406 4.253.75.962-.642 1.758-1.607 2.805-2.218Zm3.548 0-.627 2.31c-1.049 1.313-3.169 2.827-4.939 4.319-.415.217-.401.256-2.216-.45-6.68-2.603-9.91-4.296-9.91-4.296l-1.357-1.215s1.742.5 2.892.954c.784.31 2.119.818 2.969 1.133.85.315 2.728 1.116 3.982 1.613 2.892 1.144 2.732 1.18 5.503-1.274 3.001-2.657 3.703-3.094 3.703-3.094Zm-101.216.213 2.916 3.35-3.886 3.279-2.935-3.467 3.905-3.162Zm110.632.003c.67 1.259 1.12 2.747 2.209 3.807.82.784 1.023 1.389.537 1.83-1.268.787-1.487-.483-1.88-1.313-.691-1.462-1.535-3.437-.866-4.324Zm-105.438.335c.074-.002.15 0 .227 0 3.11.048 3.843 4.656.917 5.763-1.048.396-2.255.216-2.906-.436-.63-.633-.72-1.168-.286-1.5.674-.48 2.28-.514 2.28-.514s-1.458-.495-2.107-.86c-1.278-.731-.171-2.37 1.875-2.453Zm64.016.005c.176.01.479.369.908 1.08 1.569 2.599 1.486 7.542-.15 8.794-.85.65-1.91.557-2.62-.233-.939-1.041-.65-2.094.742-2.711 1.345-.597 1.62-1.93 1.072-5.225-.19-1.149-.178-1.717.048-1.705Zm-75.447.083c.928-.033 1.824.33 2.269 1.065.329.543.17.941-.452 1.212-.755.3-2.189.571-2.189.571s1.39.23 2.23.572c1.052.465.97 1.32-.57 2.054-2.965 1.414-5.767-2.449-3.32-4.666a3.209 3.209 0 0 1 2.032-.808Zm77.982 1.864a.248.248 0 0 1 .072 0c.272.033.774.429 1.28 1.1 1.767 2.348 2.074 5.877.569 6.565-1.59.727-2.734-.772-1.588-2.082.81-.928.71-2.285-.367-4.973-.157-.39-.12-.585.034-.61Zm38.18.111c.14-.01.393.555.801 1.695.9 2.51 1.668 3.564 2.592 3.564 1.163 0 1.772 1.598.855 2.242-1.812 1.273-4.185-1.846-4.36-5.733-.051-1.168-.028-1.757.112-1.768Zm-9.578 1.254-.536 2.049s-1.235 1.204-2.119 1.97c-1.404 1.217-1.75 1.459-2.858 1.08a140.71 140.71 0 0 0-5.17-1.665l-4.108-3.41 9.375 3.671s.812.24 1.096-.044c1.227-1.23 2.576-2.184 4.32-3.65Zm8.844 1.918c.118-.027.236.124.319.499.424 1.929 1.04 3.327 1.559 3.544.657.276.909.847.632 1.429-.798 1.678-2.896-1.286-2.896-4.092 0-.796.19-1.335.386-1.38Zm-33.835.136c.114-.007.299.164.589.455 1.296 1.3 1.688 4.892.647 5.936-1.505 1.51-3.112-.734-1.651-2.305.386-.415.386-.444.294-2.285-.064-1.282-.07-1.79.12-1.801Zm-78.532.358-1.014 3.37-3.24.838.759-2.775 3.495-1.433Zm3.88.344c.258-.01.55.087.855.31 1.32.958 1.428 2.597.811 3.806-.59 1.18-1.796 1.518-2.964 1.399-1.514-.169-2.657-1.227-2.578-2.847.026-.812.38-1.712.927-2.097.386-.27.702-.16 1.036.396.311.543.843 1.773.843 1.773s.017-1.262.195-1.911c.146-.517.466-.813.876-.83Zm2.472.295 2.347.804.926 3.196-2.626-1.022-.647-2.978Zm133.768.596s.673.286 3.876 2.837c.801.638 2.153 1.86 2.153 1.86l-.077 41.705-7.605-4.74.398-3.651s1.045-11.032 1.844-16.812c.559-6.443 1.793-8.293-2.507-11.025 4.628-2.914 3.322-7.449.418-9.337l1.5-.837Zm-37.731.16-.425 1.907c-1.523 2.615-2.887 2.481-5.218 1.269l-2.8-2.387c1.811.378 2.786.96 4.557 1.52.879.244 1.2.087 1.82-.47a84.386 84.386 0 0 1 2.066-1.84Zm-20.758 1.002c.949 1.039 1.196 2.062 1.115 4.59-.183 1.798-.103 3.137-1.574 4.145-.718.472-1.96.473-2.515.005-1.331-.894-.597-2.683 1.147-2.77 1.101-.02 1.554-3.628.929-5.883-.097-.35-.072-.58.1-.596.174-.016.496.179.798.509Zm29.751-.136c.214-.002.592.547.816 1.443.325 1.298.782 2.026 1.497 2.392.917.47 1.213 1.371.627 1.903-1.167 1.06-2.36-.21-2.742-2.92-.018-.307-.553-2.789-.198-2.818Zm25.045.446c2.601.04 4.074 1.867 4.07 4.08-.028 1.596-.897 3.22-2.498 3.893-3.821 1.128-5.907-1.438-5.871-3.934a4.161 4.161 0 0 1 4.299-4.04Zm-52.522 1.447c2.188 2.196 2.286 6.89.144 6.89-2.57-.852-.565-2.373-.516-2.769.201-1.617-.169-2.654-.546-4.164-.166-.893.677-.218.918.043Zm52.662-.213c-.46-.013-.426.45.415 1.177 1.526 1.319.779 3.752-1.154 3.762-.892.005-1.11.607-.333.92 3.001 1.21 5.05-3.367 2.36-5.273-.561-.398-1.013-.577-1.288-.586Zm-114.775.615c2.415.826 3.247 5.441 3.34 7.07.108 2.833-1.208 7.466-2.38 8.391-3.039 2.397-4.463-6.076-1.864-11.529.227-.447.512-1.05.405-2.164-.105-1.105.08-1.76.499-1.768Zm79.81.446s-.304 1.383-.628 2.14c-.374.876-.649.903-1.52.155-.485-.416-1.29-1.278-1.29-1.278.76.119 1.437.513 2.081.193.688-.34 1.242-.98 1.357-1.21Zm9.167.072c.172.006.39.488.68 1.443.796 2.615 1.491 3.598 2.545 3.598 1.726 0 2.102 2.085.473 2.62-.604.198-.807.196-1.579-.01-1.162-.311-2.752-4.245-2.524-6.247.107-.941.234-1.41.405-1.404Zm-106.3 1.52c.634-.015.884.299 1.256 1.071.424.88 1.536 1.997 2.476 2.484 2.268 1.118 4.657 1.992 6.899 3.114 2.906 1.464 5.51 5.948 3.727 6.415-.647.15-1.39.158-2.052.097-.216-.113-.638-.603-.937-1.094-1.325-2.176-3.804-4.306-7.627-5.302-2.695-.703-5.11-4.033-5.629-5.598-.134-.405-.14-.723.222-.828.767-.221 1.286-.349 1.666-.358Zm81.95.272c.121-.02.298.135.566.421 1.604 1.72 1.803 4.879.362 5.772-1.563.969-2.931-.633-1.704-1.995.54-.6.54-.6.54-2.401 0-1.242.036-1.764.237-1.797Zm23.356 2.005c.192.008.481.542.83 1.593.495 1.492.563 1.609 1.13 1.903.958.496 1.113 1.24.41 1.946-1.311 1.315-2.632-.801-2.636-4.222 0-.822.096-1.227.266-1.22Zm-20.972.236c.12.012.452.274.711.582 1.965 2.338 1.57 7.812-.623 8.634-.732.274-.955.289-1.41.092-1.634-.71-1.434-2.44.58-3.54 1.506-.822.433-5.746.742-5.768Zm-100.49 1.725 8.114 4.038s2.225 4.698 3.25 6.46c.702 1.221 2.11 2.4.656 3.215-2.442 1.66-3.826 2.605-3.804 3.636.018.834 1.051 1.685 2.442 3.327 1.999 2.359 1.98 1.815.164 5.414-1.39 2.523-2.573 8.236-2.573 8.236l-8.196 4.237c2.439-5.844 5.31-10.817 8.53-14.372-2.392-1.78-4.402-3.635-6.498-6.096 1.547-2.078 3.59-3.757 5.474-5.564-3.828-4.34-6.227-8.504-7.56-12.531Zm102.63.072c.013-.002.029 0 .043 0 .34.023 1.117.871 1.8 2.233.883 1.758.968 3.973.184 4.76-1.352 1.355-3.112-.387-1.849-1.83.892-.65.649-2.266-.053-3.947-.324-.806-.32-1.184-.125-1.216Zm-103.528.79c2.111 4.5 4.472 8.16 6.893 11.626l-5.281 5.559c1.626 1.892 3.597 3.925 6.362 6.285-3.396 3.788-5.623 9.092-7.854 14.1l-.12-37.57Zm121.457.096c.183.014.443.56.71 1.657.336 1.383.567 1.736 1.37 2.082 1.278.549 1.307 1.787.054 2.232-.46.163-1.32-.3-1.676-.906-.468-.865-.71-2.029-.704-3.094-.074-1.318.039-1.986.246-1.97Zm29.281.834c1.996.561 2.718 2.568 2.329 6.285-.522 4.97-1.134 10.501-1.632 15.068-.574 5.269-1.049 8.618-1.049 8.618l-.49-.38s.141-2.849.327-4.596c.447-3.935.693-7.38 1.072-11.312.848-8.746.641-11.511-.936-12.318-1.22-.625-1.745-.256-.845.595 1.716 1.328 1.663 1.884-.174 23.422-.188 2.228-.266 3.806-.266 3.806l-2.331-1.453s-.173-1.846-.391-4.634c-.527-5.25-.834-10.849-1.183-15.882-.374-5.37.628-7.249 3.949-7.38.53-.02 1.12.023 1.62.161Zm-42.84 3.12c.254.712 1.411 6.008-1.551 4.487-.79-.447-.833-1.146-.25-1.826.65-.76.804-1.854.477-3.414-.199-.95-.439-1.737-.439-1.737.571.21 1.696 2.305 1.762 2.49Zm-88.096-1.66c2.506.477 5.259 1.943 7.033 3.777 1.1 1.174 1.045 2.119-.676 2.229-1.657.244-1.692.515-2.484-.173-.355-.279-1.047-.964-1.836-1.086-2.5-.388-3.777-5.079-2.037-4.747Zm101.163 1.387c.264.426.292 1.263.511 1.864.375 1.678 1.522 2.92 2.554 2.765.693-.084 1.65.126 1.752.958.202.704-.166 1.37-.927 1.676-.858.344-1.826.133-2.558-.557-1.543-1.454-2.485-6.2-1.332-6.706Zm-12.056.065c.9.346 2.046 3.233 2.17 5.522 0 1.64-.257 3.703-1.666 4.484-.896.465-1.821.233-2.226-.552-.496-.962-.128-1.957.898-2.42 1.255-.568 1.663-3.12.898-5.613-.043-.415-.67-1.593-.074-1.42Zm-95.735 1.198 6.613 3.36c-.962 1.319-1.719 2.541-2.24 3.933-2.102-2.392-3.204-4.83-4.373-7.293Zm98.221 1.15c.114-.002.494.362.827.686 1.65 1.603 2.363 4.514 1.366 5.578-.796.85-2.19.792-2.423-.102-.084-.438.38-1.258.584-1.651.305-.586.36-2.259-.101-3.482-.207-.548-.4-1.025-.253-1.028Zm-45.946.661 7.473.257 25.035 22.618-2.35-.053-23.003-21.025-7.16.02.005-1.817Zm-43.054 4.075c-2.852 4.548-3.631 10.281-1.879 15.376 1.33 3.614-1.574 3.83-2.765 1.449-.916-1.78-1.443-4.88-1.164-8.18.39-5.335 2.845-10.692 4.811-11.335 1.996-.653 1.558 1.964.997 2.69Zm102.581 10.946c-.76 3.557-2.166 5.328-4.161 6.067-8.173 3.028-11.734-13.507-4.152-17.46 7.227-2.41 9.316 6.694 8.313 11.393Zm-59.98-10.803 7.048.145c6.425 5.862 13.332 11.331 20.207 18.459h-3.326l-1.202-1.148c-6.215-5.568-10.818-10.113-16.809-15.287l-6.29-.174.372-1.995Zm53.772 1.09c-3.81.155-4.121 5.334-4.007 7.295.278 2.827 1.4 7.004 4.977 6.674 2.625-.263 3.84-3.38 3.6-7.124-.226-3.523-1.658-6.848-4.57-6.845Zm-54.414 1.718 6.184.14c5.447 4.766 11.209 9.943 16.934 15.656h-2.698s-.706-.675-.918-.891c-4.635-4.203-9.346-8.886-13.84-12.663l-6.415-.252.753-1.99Zm54.515.204c1.083.402 1.264 3.045.32 4.14-.648.751-2.136-.67-2.27-2.46-.08-1.091.977-2.042 1.95-1.68Zm-102.205.329c-.498 1.71-.825 3.63-1.028 5.709l-2.588-3.298 3.616-2.411Zm104.17 3.181c.632 0 1.144.514 1.144 1.148 0 .634-.512 1.147-1.144 1.147a1.145 1.145 0 0 1-1.144-1.147c0-.634.512-1.148 1.144-1.148Zm-51.957.577 12.324 11.62-3.51.04-10.108-9.191-6.415-.242 1.255-2.194 6.454-.033Zm47.931.198c.632 0 1.144.513 1.144 1.148a1.145 1.145 0 1 1-2.288 0c0-.635.512-1.148 1.144-1.148Zm14.67.024c6.948 5.416 16.755 12.602 26.942 18.43 0-.02-1.678 1.323-3.224 1.748-7.929-4.385-17.362-10.569-23.206-15.583-5.516 8.145-16.112 22.963-25.532 29.804-5.944 4.266-8.938 9.523-8.92 15.67.017 6.357 2.255 10.496 8.49 15.703 4.023 3.359 8.42 7.645 8.42 7.645l-2.313 2c-.384-.047-6.746-5.545-13.183-12.028-3.538-3.562-5.111-11.38-4.51-15.601.82-5.738 2.726-9.85 8.15-14.28 2.082-1.616 4.185-2.872 6.02-4.711 16.849-18.078 22.867-28.797 22.867-28.797Zm-11.276 2.954c.637 1.314.987 3.037-1.01 3.152-1.182.069-1.859-1.906-.834-3.665.775-1.385 1.466-.206 1.844.513Zm-59.377-.349 6.652.199s6.56 5.736 9.872 8.914h22.283c12.255 0 22.328.05 22.385.107.152.153-1.583 2.489-1.583 2.489l-73.493.043c.015-.011 4.54-4.052 6.16-5.186 2.87-2.007 5.499-3.876 7.724-6.566Zm-45.035 2.775c.48 1.78.883 3.595 1.714 5.234l-5.103 2.717c.938-2.71 2.011-5.315 3.389-7.951Zm141.694 14.798c-1.014 2.77-3.666 8.422-6.87 12.706-.636.82-1.071 1.462-1.071 1.462l6.251 6.004-5.426 5.787c3.048 3.18 5.625 8.052 6.98 11.93-2.46-.974-3.843-1.564-6.878-3.258-.859-2.16-1.734-4.448-2.699-6.42-2.214-4.501-2.184-4.061-.376-5.385 2.646-1.939 3.434-2.389 2.746-3.366-.483-.687-3.605-4.405-3.794-4.522-.287-.178-.16-.728.372-1.608 1.809-3.259 3.292-6.85 4.214-10.043l6.55-3.287Zm1.183.227.164 37.837c-2.24-4.52-4.569-9.138-7.164-12.023-.098-.196 5.662-5.84 5.662-5.84-2.11-1.962-3.346-3.134-6.295-5.859 2.872-4.152 5.146-9.58 7.633-14.115Zm-158.537 1.312 7.167 4.174c-.38 5.337-.857 12.343-1.591 19.451-.616 5.546-.87 8.102.11 9.641.83 1.126 3.069 2.344 3.069 2.344-3.77 1.531-5.223 6.045-.997 9.423 0 0-1.027.81-1.483 1.298l-5.88-4.412-.395-41.919Zm112.184 1.913c-1.787 2.008-4.59 4.987-6.74 6.411-2.867 1.9-6.893 5.547-6.7 5.603 0 0-4.22-.022-7.077-.136l-9.857-8.822s.352-.13-13.063-.02c-17.338.143-31.388-.048-31.388-.048l1.97-2.775 72.855-.213Zm35.138 1.734c-.97 3.128-2.476 6.02-4.383 8.73-.441-1.923-.684-3.964-1.607-5.597l5.99-3.133Zm-139.246 1.002.86.615s-.513 6.529-.681 8.44c-.302 3.53-.451 6.712-.758 10.309-.618 7.141-.514 8.194.883 9.297 1.075.807 1.808.44.855-.581-.628-.81-.626-.794-.816-1.985-.133-.829-.112-2.064.077-5.414 1.064-18.869 1.285-19.503 1.308-19.51l2.143 1.39c-.12.29 1.963 19.018 1.751 23.674-.247 5.444-7.552 4.242-7.898.201-.143-.928 1.243-16.214 1.243-16.214l1.033-10.222Zm59.585 1.1 2.867.081 17.688 16.309 6.03.13-.527 2.059-5.827-.015-20.231-18.565Zm10.968 0h2.775l10.123 9.204 6.233.097-1.188 1.772-6.198-.179-11.745-10.895Zm-3.457.01 14.965 13.533 5.103.266-.787 1.85-6.049-.17-16.814-15.446 3.582-.034Zm-14.429.048h3.109l23.394 21.126 6.13.111-.092 1.903-7.38-.034L84.52 140.28Zm78.725.6c1.234.31 1.843 1.51 2.713 5.96 1.015 5.19-1.184 13.615-3.939 15.195-1.425 1.125-2.976-.067-1.97-1.534 3.287-4.79 3.721-12.625 1.777-17.006-.616-1.409.018-2.869 1.42-2.615Zm-99.251.78c7.475.09 9.407 15.488 2.054 17.647-4.777.708-7.237-3.629-7.93-7.543-.817-4.862 1.319-10.16 5.876-10.104Zm-4.109 9.237c.447 3.086 2.355 6.62 5.129 6.318 3.648-.397 4.106-5.282 3.744-7.74-.436-2.968-2.067-5.658-4.672-5.806-3.885-.22-4.545 4.847-4.2 7.228Zm4.008-5.993c1.042-.017 1.81 1.38 1.525 3.113-.184 1.123-.61 2.504-1.868 1.566-.586-.536-1.111-2.11-.97-3.285.093-.772.473-1.373 1.313-1.394Zm103.074 3.559 3.51 4.072-3.988 2.804c.56-2.143.746-4.422.478-6.876Zm-100.53.368a1.15 1.15 0 0 1 1.144 1.152c0 .634-.512 1.148-1.144 1.148a1.145 1.145 0 0 1-1.144-1.148 1.15 1.15 0 0 1 1.144-1.152Zm-4.094.707c.632 0 1.144.513 1.144 1.147a1.145 1.145 0 1 1-2.293 0 1.15 1.15 0 0 1 1.149-1.147Zm2.317 1.482c.575.174.942.704 1.25 1.164.766 1.143.866 2.577.322 3.177-1.1 1.31-2.816-.09-2.61-2.114.152-1.484.544-2.378 1.038-2.227Zm9.8 4.493c1.641 0 2.104 1.942.69 2.89-.92.618-1.123 2.625-.555 5.405.46 2.007.22 2.317-.975.508-2.04-3.28-1.514-8.803.84-8.803Zm-3.838 1.056c1.44-.055 1.902 1.048 1.062 1.893-.492.548-.443 1.993.106 3.181.777 1.72.594 2.24-.859.586-2.009-2.154-1.978-5.596-.309-5.66Zm95.167.837c1.634 2.179 3.081 5.02 4.403 8.242l-7.082-3.264 2.68-4.978Zm-103.488 8.758c-.501-.582-.744-2.466-1.155-3.271-.32-.967-.597-1.53-1.117-1.497-2.993.254-2.866-2.616-1.148-3.158 3.555-1.122 4.851 7.487 3.42 7.926Zm14.846-2.897c-.507 1.505-.138 2.404-.033 4.011.09.73.127.922-.471.362-1.42-1.242-2.174-5.48-.896-6.266 1.719-1.056 2.24.727 1.4 1.893Zm70.95-2.011c.694-.032 1.483.51 1.873 1.506.562 1.433.51 4.947.227 6.818-.434 2.863-1.122 5.493-1.405 7.461-1.002 1.195-3.47-3.032-3.703-6.367-.388-2.645.52-8.141 2.55-9.302.144-.07.298-.109.458-.116Zm9.561.45c.62-.028.48.182.939.664.697.731.98.91 1.964 1.22 2.031.64 4.265 3.48 3.404 4.344-.68.54-2.53-.48-3.162-.698-.68-.235-1.53-.528-1.888-.649-1.702-.576-4.15-3.724-3.389-4.358.408-.339 1.65-.5 2.132-.523Zm-4.95.523c1.257.013 1.601.327 2.321 1.685 1.067 2.013 3.05 3.433 5.928 4.252 3.675 1.125 6.846 3.261 6.692 7.22-.877.008-1.754.067-2.631.335-1.018-2.872-3.549-4.517-5.726-5.013-5.025-1.144-9.687-6.256-8.361-8.285.58-.297 1.201-.2 1.776-.194Zm-86.667.252 43.403 37.914c-18.317-6.816-35.12-6.67-51.368-4.15l7.965-33.764Zm18.51 2.51c-.082 1.18-1.696 1.433-2.03 1.724-.812.708-.704 2.752-.357 5.136.266 1.43-.09 1.368-.84.247-1.328-1.986-1.301-5.428-.42-7.456 1.135-2.613 3.761-1.305 3.647.35Zm-24.96-1.856c1.665.173 2.123 2.445 2.192 3.95 0 2.076-.587 1.998-.917 0-.158-.884-.432-1.228-1.144-1.442-1.62-.487-1.725-2.508-.13-2.508Zm20.17 2.32c-.427.47-.437 2.67-.049 4.149.215.818-.182.881-.733.232-1.796-2.112-1.961-5.694-.295-6.387 1.357-.353 1.71 1.307 1.077 2.005Zm-18.78 4.236c.04 2.108-.438 2.303-1.071.28-.162-.469-.45-.942-.656-1.084-1.182-.81-1.39-1.443-.705-2.13 1.682-1.377 2.41 2.307 2.433 2.934Zm6.344-1.86-5.885 25.175c14.484-1.218 21.065-1.474 36.539 1.56l-30.654-26.734Zm17.548.417c.885.223 1.191 1.382.159 2.48-.339.434-.655 1.105-.241 2.884.565 2.435-.387 1.656-1.545-.643-.742-1.473-.402-5.231 1.627-4.721Zm-27.705.078c1.574 0 3.032 2.562 3.056 5.365.017 2.265-.305 2.102-1.144-.063-.591-1.432-1.067-1.95-2.139-2.325-1.986-.692-1.813-2.977.227-2.977Zm10.635.726 27.255 23.891c-11.16-1.789-22.118-1.927-32.758-.586l5.503-23.305Zm22.684.9c2.138 0 2.98 2.65.357 3.577-1.562.552-.896 3.721-.608 5.604.108.71-.115.76-.565.126-1.647-2.438-2.568-8.586.816-9.307ZM87.6 172.93c-.388.614-.431 1.272-.164 2.46.693 2.556.873 3.028-.575 1.729-1.523-1.616-2.188-4.815-.912-5.762 1.433-1.065 2.725.116 1.651 1.573Zm-53.86-1.972c2.53-.018 4.37 1.625 4.272 3.916-.107 2.523-1.682 4.114-3.996 4.246-2.583.132-4.18-1.936-4.237-4.077-.05-1.892 1.15-4.065 3.962-4.085Zm-.042 1.014c-2.896-.01-3.98 3.82-1.584 5.588 1.028.757 1.84.544.995-.262-1.592-1.518-.952-4.027 1.144-4.489 1.036-.228.634-.834-.555-.837Zm35.254.649-3.485 16.957c7.13-1.111 15.756-.772 22.413-.145L68.953 172.62Zm-11.74.644c1.734-.089 2.24 2.527 2.254 3.568 0 1.347-.157 2.048-.404 1.328-.584-1.698-1.16-2.63-1.786-2.63-.34-.088-.63-.225-.904-.533-.616-.817-.02-1.7.84-1.733Zm12.064.677 2.297 1.957c-1.478-.65-2.737 1.031-2.737 1.031l.44-2.988Zm23.649 3.201c-.666.841-.662 2.616-.145 4.683.145.578-.394.15-.936-.538-1.029-1.3-1.511-2.823-1.325-4.073.207-3.158 4.201-2.543 2.406-.072Zm-36.35-1.51c1.487.168 2.048 3.283 2.013 4.227-.05.987-.273 1.652-.468 1.053-.383-1.302-1.174-3.172-1.86-3.6-1.173-.735-.841-1.577.315-1.68Zm113.861 3.489c.053 1.099-.403 2.223-1.077 2.585-.69.37-1.11-.13-1.522-1.397-.303-.93-.41-1.289-.41-1.289s-.255 1.165-.336 1.408c-.538 1.616-2.288 1.632-3.022-.174-.78-2.105 1.4-4.263 3.075-4.186 1.858.086 3.194 1.288 3.292 3.053Zm-99.326-2.352c.522 0 2.549.91 2.549.91l2.018 1.792s-1.856-.809-2.51-1.04c-1.563-.555-1.53-.56-2.79.474a60.94 60.94 0 0 1-2.366 1.845l.4-2.3s1.901-1.68 2.699-1.68Zm-13.242 5.651c.298 2.43-.38 2.636-1.037.315-.564-1.988-1.119-2.712-2.076-2.712-1.763.264-2.356-2.359-.773-2.886 2.99-.842 3.759 4.324 3.886 5.283Zm102.438-5.331 2.756 1.283.584 2.862-2.539-.63-.801-3.515Zm-61.78.264c2.653-.738 2.98 2.574.947 3.063-1.241.299-1.234 2.228-.88 5.03.08.64.251 1.414.212 1.52-.19.508-.82-.266-1.67-2.062-1.27-3.274-.873-6.921 1.39-7.551Zm75.832-.041-.767 3.312-2.332-.16-.087-2.029 3.186-1.123Zm-78.555 2.153c-1.277 1.855-.13 3.567.154 5.02.05.843-1.036.017-1.661-1.213-1.304-2.564-1.38-4.634-.208-5.558 1.643-.965 2.398.76 1.715 1.751Zm-23.92-.454c.45.005 1.062.25 2.345.746.973.375 3.225 1.293 3.225 1.293l2.979 2.639s-2.616-.967-4.437-1.739c-4.1-1.737-3.511-1.793-6.753.683-.936.715-1.912 1.53-1.912 1.53l.396-2.12s1.224-1.22 2.752-2.325c.657-.476.953-.711 1.404-.707Zm-38.147 1.003c2.099-.059 3.478 1.615 3.983 3.486.292 1.083.04 2.083-.02 3.123-1.448 11.133-2.085 21.465-3.417 31.775-.164.492-.342.309-.555-.577-1.542-9.347-2.546-19.606-3.843-28.869-.296-3.459-1.187-7.981 3.177-8.866.232-.045.458-.066.676-.072Zm-.125 1.234c-.926.037-2.02.675-2.41 1.497-.793 1.677-.586 5.093.923 15.33.125.852.3 2.275.386 3.162.265 2.718.624 4.877.883 5.278.494.763.557-.057.203-2.717-.18-1.357-.426-3.432-.545-4.61-.678-4.854-.826-8.309-1.246-12.74-.21-2.177.664-3.782 2.303-4.217.887-.235.935-.636.106-.905a1.731 1.731 0 0 0-.603-.078Zm138.787.137c3.066.007 4.193 4.311 1.193 5.829-1.113.563-2.98.298-3.444-.602-.225-.7.027-1.107.583-1.404.676-.362 1.67-.671 1.67-.671s-1.624-.316-2.081-1.087c-.986-1.662.823-2.034 2.08-2.065Zm-115.326 4.643c-.034.811-.447.476-.55 0-.33-1.08-1.02-2.25-1.598-2.717-.699-.563-.865-1.326-.391-1.801 1.78-1.577 2.53 4.012 2.539 4.518Zm103.995-4.655c.784-.023 1.851.244 2.526.921.872.874.825 1.202-.635 1.736-.71.264-1.198.47-1.198.47s.659.26 1.148.396c1.4.469 1.326 1.283.04 2.246-1.75 1.31-4.562-.43-4.53-2.737.027-1.829 1.151-2.989 2.649-3.032Zm6.47-.013 2.8 3.094-3.273 3.399-3.08-3.39 3.553-3.103Zm-95.148.29c.04-.002.08 0 .12 0 .869.016 2.254.604 5.649 1.976 1.865.754 4.021 1.612 4.021 1.612l3.056 2.712s-4.187-1.318-5.643-2.058a19.453 19.453 0 0 0-1.545-.659c-.533-.2-1.856-.72-2.94-1.157-2.33-.94-2.357-.947-3.138-.286-.334.283-1.153.928-1.82 1.434-.666.505-1.64 1.247-2.162 1.646-.617.47-1.395 1.182-1.395 1.182l.492-2.615s.44-.433 1.226-1.036l2.414-1.855c.701-.539 1.066-.867 1.665-.896Zm30.05 2.295c.087.545.036.65-.588 1.288-.788.807-.896 2.13-.319 3.845.16.473.353 1.033.31 1.076-.833.836-3.025-4.438-2.501-6.01.625-1.88 2.683-1.908 3.099-.199Zm-48.056.228c.574-.027 1.24.41 1.574 1.317.906 2.538.352 5.651-.575 2.75-.24-.614-.654-1.273-.97-1.607-.325-.347-1.055-.748-1.038-1.312.071-.74.503-1.124 1.009-1.148Zm18.735.073c.368.011.858.195 1.738.556.796.327 3.036 1.076 4.311 1.57a59.892 59.892 0 0 1 4.045 1.776l-4.48-.251s-1.522-.508-2.428-.882c-3.28-1.352-3.098-1.345-4.73-.101-.584.444-1.319 1.162-1.319 1.162l-2.278.126s1.07-1.146 2.616-2.296a43.112 43.112 0 0 0 1.53-1.19c.385-.322.628-.482.995-.47Zm35.048.886c1.247-.237 1.93.955 1.851 1.698-.086.816-.841 1.629-2.003 1.855-.244.912-.94 2.993-.534 6.097.327 1.455-.287 1.487-.913.092-1.014-2.26-2.492-8.965 1.6-9.742Zm-3.559 2.489c-.528 1.133-.712 2.046-.42 3.476.325 1.59.393 1.981-.507.988-1.743-2.331-1.997-6.043-.39-6.47 1.55-.41 1.89 1.278 1.317 2.006Zm-52.26-1.738c2.72.431 3.521 5.08 3.142 7.069-.721 2.407-.685.78-.937-.223-.67-2.422-1.445-3.74-2.274-3.879-2.231-.372-1.919-3.282.068-2.967Zm20.853.914a.553.553 0 0 1 .13.01c.896.15 3.294.893 2.26 1.143l-3.539.02c-.687.025.447-1.122 1.15-1.172Zm95.284.76c.343-.03.81.373 1.36.935 1.26 1.287.707 3.315-.994 4.315-2.67 1.57-5.71-1.39-4.243-4.107.805-1.49 1.772-1.225 2.597.88.15.255 0-.263.28-.904.282-.638.656-1.087 1-1.118Zm-4.48.15-.802 3.235-3.253 1.57 1.187-3.986 2.868-.818Zm6.768.553 2.592.208 1.439 4.203-3.737-1.598-.294-2.813Zm-61.255 2.375c1.885.078 2.076 1.864.994 2.646-.606.583-.816 1.426-.69 2.775.056.599.174 1.333.169 1.418-.018.288-.256.243-.58-.111-1.99-2.177-1.725-6.804.107-6.728Zm-57.036.7c1.195 0 2.55 3.433 1.883 4.747-.42.771-.825.58-.978-.314-.115-.652-.487-1.543-1.45-1.703-1.4-.448-.945-2.73.545-2.73Zm60.483 2.077c.912.473.998 1.527.173 2.116-.64.457-.808.843-.907 2.082.21 2.82-1.37 1.03-1.519-1.535-.08-1.396.672-3.467 2.253-2.663Zm-61.487.867c.858 0 1.876 1.544 1.65 2.445-.12.717-.493.59-1.018.058-.202-.159-.657-.323-.87-.387-1.283-.39-1.067-2.116.238-2.116Zm24.373 1.186c11.592-.054 23.65 1.791 33.672 5.806l-.826 1.486-2.63-.905-.904 2.392 2.168.828-1.019 2.208c-11.828-3.902-24.584-6.808-45.783-3.66-1.052-.736-2.954-2.185-2.954-2.185l1.694-.373-.222-2.363-4.282.766-1.25-1.313c6.693-1.722 14.405-2.65 22.336-2.687Zm38.88.518c1.11.002 1.8 1.252.985 1.787-.57.374-1.836.477-2.09.17-.526-.636.22-1.958 1.105-1.957Zm-40.516 1.462-.048 2.45 3.495-.11.072-2.325-3.519-.015Zm6.107.054.015 2.406 3.393.112.16-2.359-3.568-.16Zm-8.878.164-3.432.228.106 2.247 3.403-.15-.077-2.325Zm15.346.373-.087 2.32 3.452.382.251-2.358-3.616-.344Zm-21.733.112-3.451.44.294 2.31 3.355-.373-.198-2.377Zm28.405.75-.338 2.421 3.22.48.415-2.3-3.297-.6Zm6.382 1.356-.319 2.445 3.273.697.44-2.27-3.394-.872Zm-23.167 2.818c10.868-.013 20.772 1.865 29.114 5.046 0 0-1.081 2.338-1.463 2.59-5.986-2.397-16.186-4.624-23.08-4.745-2.525-.094-3.085-.162-4.016-.484-5.253-1.733-9.891-2.483-14.168.077l-1.748-1.24a98.254 98.254 0 0 1 15.361-1.244Zm-45.899 13.975c2.485.029 3.668 3.85 1.043 5.457-.705.4-1.63.346-2.375.01-2.128-1.017-2.287-4.19.193-5.23.4-.168.784-.241 1.14-.237Zm81.226.125c.89.546 4.176 2.005 4.176 2.005L93.1 261.03l-5.586.044 24.49-43.9Zm-74.442.1c1.383-.155 2.365 1.036 2.721 2.031.487 1.358-.386 3.77-2.824 3.632-2.797-.16-4.05-5.2.103-5.664Zm79.37 2.176c.62.342 2.862.714 3.056 1.148.084.217-.085.644-.135 1.196-.12 1.33.211 2.804 1.014 3.985 1.315 1.833-.11.991-1.424.978-2.967-.76-6.746 3.294-5.31 7.467.332.923.267.996-1.323 1.482-3.609 1.102-5.183 4.943-3.449 8.373.904 1.787.93 1.697-.659 1.83-4.416.367-6.98 4.296-5.127 8.313.287.622.105.793-.859.973-3.015.555-4.364 3.084-4.745 5.86l-3.988.038 22.95-41.643Zm3.824 1.477 7.661 2.097c-3.181 10.85-3.621 23.455.208 38.035l-17.616.015c2.447-2.203 1.48-5.246-1.379-5.916 2.775-1.598 2.777-5.85-.549-6.361-2.924-.45-4.433 2.339-3.135 5.133l-1.249.34s-.559-.704-.687-1.08c-1.103-3.225 1.206-6.426 5.14-6.415 2.428.007 2.93-.683 1.59-2.18-2.399-2.675-1.644-6.434 1.487-7.913 1.441-.681 2.291-.23 2.291-.23l.075 1.772s-.584.057-1.039.13c-3.459.554-2.817 6.083.698 6.036 1.934-.027 3.318-1.498 3.318-3.612v-1.47c1.777 3.049 4.829 3.267 6.128.787 1.53-2.92-1.246-4.755-4.028-4.454 0 0 .584-.38.953-.57 2.963-1.529 1.942-5.896-1.335-5.896-2.249 0-3.56 2.096-2.836 4.318.117.356.392.928.392.928l-1.338.34s-.303-.232-.439-.445c-2.295-3.598 1.39-7.562 6.034-6.663 1.7.535 1.645-.645.69-1.71-1.026-1.534-1.792-3.274-1.037-5.016h.002Zm-86.58 1.57 4.022 7.107-4.504 8.189-4.466-7.67 4.949-7.627Zm-.395 3.699-2.79 3.854 2.732 4.426 2.592-4.48-2.534-3.8Zm-.121 1.447 1.815 2.44-1.83 2.998-1.79-2.813 1.805-2.625Zm83.099 7.68a1.536 1.536 0 0 1 0 3.07c-.846 0-1.53-.687-1.53-1.535 0-.848.684-1.535 1.53-1.535Zm-10.826 19.272c.876 0 1.588.71 1.588 1.588 0 .879-.712 1.593-1.588 1.593a1.588 1.588 0 0 1-1.583-1.593c0-.879.707-1.588 1.583-1.588Zm-2.4 1.083c-.145.062 0 1.443.35 2.015-2.287.14-2.893 1.895-3.115 3.377l-2.05-.006c.342-5.01 4.669-5.123 4.814-5.386Z" id="path4069-2-6-0" fill="#000"/><path d="M51.59 8.836C42.405 21.951 32.577 29.5 32.414 39.731c-.055 3.313 1.735 8.944 7.338 10.022 3.636.696 8.642-2.25 8.746-8.236-.016-1.192 1.26-1.16 1.249.472-.172 4.722-1.664 10.219-4.173 14.694h12.032c-2.509-4.475-4.001-9.972-4.173-14.694-.012-1.633 1.265-1.664 1.249-.472.104 5.986 5.11 8.932 8.745 8.236 5.604-1.078 7.393-6.71 7.339-10.022-.164-10.232-9.991-17.78-19.176-30.895Z" id="path153-6-3-1-9-55-1-6" fill="#000"/><path d="M154.66 254.47c-9.184-13.115-19.012-20.662-19.175-30.894-.055-3.314 1.734-8.945 7.338-10.023 3.636-.696 8.641 2.25 8.746 8.236-.016 1.192 1.26 1.16 1.248-.472-.171-4.722-1.664-10.219-4.173-14.694h12.033c-2.51 4.475-4.002 9.972-4.173 14.694-.012 1.633 1.264 1.664 1.248.472.105-5.986 5.11-8.932 8.746-8.236 5.604 1.078 7.393 6.71 7.338 10.023-.163 10.232-9.99 17.779-19.176 30.894Z" id="path153-6-3-1-8-6-8-8-0" fill="#000"/></g></g></g></svg>