<svg width="227" height="315" xmlns="http://www.w3.org/2000/svg"><g id="Page-1" stroke="none" stroke-width="1" fill="none" fill-rule="evenodd"><g id="Spades" transform="translate(10 26)"><g id="K"><path d="M9.375 26.06C5.083 31.523.492 34.668.415 38.931c-.025 1.38.81 3.727 3.43 4.176 1.698.29 4.037-.937 4.085-3.432-.01-.496.59-.483.584.197-.08 1.968-.778 4.258-1.95 6.123h5.622c-1.172-1.865-1.87-4.155-1.95-6.123-.01-.68.59-.693.583-.197.05 2.495 2.388 3.722 4.087 3.432 2.618-.449 3.454-2.795 3.428-4.176-.077-4.263-4.668-7.408-8.96-12.873Z" id="path7499-2-5" fill="#000"/><path d="M197.326 237.247c-4.291-5.465-8.883-8.61-8.959-12.873-.026-1.38.81-3.727 3.429-4.176 1.698-.29 4.037.938 4.086 3.432-.01.496.589.484.583-.197-.08-1.967-.777-4.258-1.95-6.122h5.622c-1.172 1.864-1.87 4.155-1.95 6.122-.01.68.591.693.584.197.049-2.494 2.387-3.722 4.086-3.432 2.618.45 3.454 2.796 3.429 4.176-.077 4.264-4.668 7.408-8.96 12.873Z" id="path7503-7-0" fill="#000"/><path d="M21.716.075h163.268v263.156H21.716V.075ZM137.6 261.555c-6.07-11.071-15.668-29.105-15.952-29.248-3.549 1.9-39.73 6.772-57.132 2.054-5.952 8.993-11.796 17.899-16.978 26.812l90.062.382Zm-55.567-33.114c-.91.02-1.925.579-1.738.093.108-.28.365-3.12.478-4.135.272-.452.655.733.611 1.832-.025.631.277.18 2.337.29 2.23.117 4.055.537 4.811.702 2.636.573 7.735.161 9.92-1.437 1.183-.865 1.63.07.411.998-5.506 4.193-9.873 2.594-14.657 1.891-.713-.104-1.434-.25-2.173-.234Zm2.342-3.978c-.343-.224-.568-.247-1.006-.042-1.69.793-1.248-.344-.031-1.489.556-.523.54-.79.118-1.34-.214-.277-.57-.312-.486-.729.366-1.797 2.877-4.515 5.683-5.73 1.168-.504 1.352.048-.124.92-2.27 1.34-3.004 2.484-1.72 2.019 2.49-.903 4.76-.266 7.946 1.33.91.457 1.327.546 2.102.463.572-.477 1.084.096 1.439.396.223.18.27.266.524.206 1.813-.427.726.733-1.751 2.55-4.438 3.15-9.279 4.636-12.695 1.446Zm6.827.775c1.814-.549 4.026-1.696 5.382-2.892 1.65-1.453.717-1.232-1.178-.316-2.742 1.326-4.662 1.71-7.747 1.638-2.583-.06-2.502-.164-2.596.159-.33 1.134 3.224 2.293 6.14 1.411Zm-5.01-4.43c.147-.488.26-1.14.128-1.35-.239-.384-.752-.1-1.405.727-.404.513-.349.583.047.987.2.136.352.237.471.306.552.236.64-.277.76-.67h-.001Zm1.129.67c.794-2.714 2.572-2.661 3.84-.064l.895.005c-1.84-5.053-5.4-2.494-5.519.02.42.14.784.039.784.039Zm6.642-.457c.84-.47.716-.79-.353-1.343-.76-.394-1.162-.473-1.3-.22.01.56.033 1.362.355 1.805.335.205.796.003 1.298-.242Zm-11.767-7.73c-.153-.254-.126-.72.458-.992 3.6-1.673.977-5.205-1.803-2.556-.881.726-2.193 1.063-3.205.63-.952-.416-.97-1.584.295-1.833.415-.082 1.48-.31 1.873-.583 4.833-2.596 7.4 3.047 3.97 4.926-.704.413-1.452.643-1.588.409Zm-13.538-5.124c-1.96-.891-2.23-3.988-.391-5.194 1.17-.803 2.366-1.022 5.589.579 2.276 1.13 3.579-.087 3.52 1.228-.036.8-.083 1.606-1.407 1.8-2.15.312-3.62-2.617-6.382-2.34-1.994.199-1.741 2.592-.3 3.078 1.919.648.755 1.416-.629.85Zm36.062.45c-.36.17-.529-.62-.373-1.043.98-2.332 1.882-4.187 2.77-6.372.71-1.742 1.185-2.49 1.503-2.488.325.002.475.257-.068 1.329-.822 2.163-3.827 8.76-3.831 8.574Zm-16.102-.604c-.868-.62-.721-1.54.266-.844 1.269.896 3.348-.743 2.924-2.288-.512-1.868-2.986-2.32-5.056-.648-3.267 2.64-6.851 2.774-6.85.71.01-.59-.077-.723 1.282-.815 1.58-.107 3.363-.834 4.25-1.376 3.973-2.43 8.2-.752 7.325 3.303-.395 1.913-2.73 2.84-4.141 1.958Zm-14.571-5.985c-.323-.01-.912.316-1.081.19-.331-.249-.283-.968-.555-1.739-.483-1.367-.012-.94.837-.57 1.154.448 2.248.361 3.221.022 1.004-.35 2.321-.27 4.43.006 1.696.222 2.648.158 4.188-.284 1.67-.525 1.228-.336.95.698-.182.679-.41 1.588-.623 1.807-1.155-.65-2.032-.398-2.79.044-1.248.551-2.132.646-3.154.34-.96-.55-1.53-.504-2.303-.03-1.33.646-1.92-.423-3.12-.485Zm24.913-2.843c.234-.412.574-.98.894-1.618 2.58-5.146 2.757-6.577.935-8.31-2.448-2.33-4.535-1.32-6.88 3.333-.57 1.129-.91 1.978-1.14 2.326-.266.402-.576.092-.728-.064-.29-.296 2.314-5.235 3.334-6.313 2.67-2.82 7.632-.564 7.316 3.273-.159 1.933-.525 2.992-2.286 6.536-.435.877-.814 1.62-1.044 1.978-.826.555-.638-.719-.401-1.14Zm-24.33-.204c.408-1.833 6.261-2.681 7.804-.278.15.235.062.225-.6.043-2.976-.987-3.566-.933-6.417.198-.429.166-.734.234-.786.037Zm22.333-.348c0-.173.217-.85.548-1.506 1.951-3.872 2.49-4.805 1.894-5.53-1.16-1.41-2.717-.184-4.149 3.859-.535 1.511-.9 1.189-1.16.95-.5-.457 1.713-5.161 2.78-5.862 2.419-1.545 4.323.243 3.254 3.402-.834 1.427-1.523 3.621-2.302 4.776-.37.518-.868.365-.865-.09Zm-8.752-6.29c-.118-.194.11-.457.949-2.26 1.152-2.479 1.51-3.398 1.041-4.813-.834-2.522-3.98-3.14-5.891-1.485-.625.534-1.05 1.273-1.344 1.937-.69 1.537-1.266 3.525-1.675 3.942-.358.362-.857.436-.825-.196.455-1.338.67-2.376 1.743-4.337 2.678-5.842 10.396-3.137 8.59 3.012-.672 2.232-1.445 3.923-1.902 4.472-.254.305-.676.04-.686-.271Zm-1.791-1.072c0-.192.29-.74.598-1.504 1.305-3.24 1.313-4.234-.59-4.276-1.137.147-1.306.615-2.305 3.173-.325.83-.504 1.422-.696 1.675-.207.272-.596.11-.755-.052-.408-.418 1.373-4.612 2.315-5.402 2.165-1.892 4.97.794 3.657 3.207-.616 1.686-1.147 2.83-1.508 3.351-.32.461-.72.396-.716-.172Zm-46.093-37.792-6.577-.453c1.165 7.067 1.224 14.847.047 20.364-1.007 4.717-1.018 8.192-.718 12.281.35 4.759 2.355 8.793 2.86 13.844.365 3.66-.441 7.48-1.16 11.118-1.204 6.08-.956 6.716-.779 13.85.164 6.616-.45 6.38-.827 5.993-.057-.059-.11-1.229-.102-2.62.01-1.391-.077-4.794-.155-7.156-.158-4.719.364-8.889.742-10.605.77-3.493 1.635-7.07 1.102-10.936-1.082-4.88-2.608-9.752-3.143-14.455-.66-5.799.962-11.617 1.498-15.828.518-4.066-.03-11.101-1.09-14.029-.183-.973-1.049-2.243-1.049-2.243-.992-.143-1.987-.284-3.378-.275-.078 27.925 0 55.861.021 83.79l6.133 5.722 6.302-6.024.273-82.338Zm.442 32.033s9.358 5.418 19.676 10.743c-.983-6.092 2.134-7.01 5.06-7.718-.702-11.768 10.02-9.354 11.662.871l1.057.004c1.857-5.098 3.695-8.616 7.924-9.456 3.278-.65 6.511 1.437 7.33 6.355-.143-.346 10.87-6.501 11.174 6.503 5.001-3.122 8.57-.425 10.013 3.54 2.111-3.236 7.397-3.379 9.087-3.614.588-.682 1.626-1.072 3.513-1.06 1.618-.083 3.79-1.3 4.91.183 1.7.27 2.995-.04 4.449 1.09 1.157.884 2.447 2.856 4.372 1.496 3.671-1.778 7.797-2.58 11.08-4.724 0 0-.87-1.127-.617-.965.093.06.502.592 1.118.84.22.089 2.237-1.126 2.237-1.126-13.673-15.844-24.921-46.775-17.494-75.392.206-.487-.62-.674-1.026-.847.125-.22 2.132.076 1.28 1.895-.858 5.483-1.83 11.424-2.047 15.97 0 .554.046 1.05.046 1.05 30.66 14.222 26.9 45.029 19.024 55.752l1.241 1.663c.55.37 24.12-13.453 23.342-14.02l4.46-2.234-.723-60.408-17.639-1.357s.188-.507.411-.639c.162-3.687-.166-9.142.01-13.708.07-13.047.2-17.483.031-17.844-5.44-3.603-13.552-8.872-20.379-11.427.28.08-.111 5.407-.319 5.71-6.387 2.05-3.423 4.67-5.783 7.485-1.586 1.753-5.298 2.087-7.09-.017-2.141-2.084-3.145-6.865-3.145-6.865-3.38 3.634-2.685 8.024-7.21 9.677-7.273 3.629-9.583-7.22-9.16-6.968-2.787 2.702-10.607 4.9-11.452-6.511-3.516 3.256-7.458 1.64-9.13-2.367-2.146.076-4.553 1.768-6.726 2.682-2.016.898-4.595 1.425-6.509 1.385-2.394.291-4.366.28-6.524-.366-1.014.33-3.3-.66-4.005-2.077-1.079-1.276-2.02-1.35-3.045-1.12-3.494 1.851-7.24 2.298-11.365 4.236-.258.18.362.519.154.452-.088-.028-2.167 1.027-2.167 1.027 20.893 27.627 22.03 55.52 17.65 75.29-.171.685-.266 1.183.185 1.722-.662-.115-.673.08-.797-.347l2.173-16.594c.064-2.004.313-1.856-1.438-2.604-1.62-.691-3.15-1.357-4.487-2.184-5.094-3.796-10.852-8.47-13.658-14.301-8.006-12.533-5.365-27.488.632-39.337l-1.491-1.558c-17.512 8.824-27.851 18.34-27.851 18.34l.075 59.276 17.995 2.087-.094 32.431Zm-8.681-39.582c-.577-.642-2.047-.755-2.66-.267-.14.12-.442.749-.532.726-.815-.21-1.38-.381-1.488-1.073l.865-1.316c.685-1.04 1.673-1.41 3.336-1.801.59-.139 1.482-.266 1.797-.4 1.25-.544 1.685-1.72.419-1.193-.925.256-2.217.171-2.388-.68-.141-.698-.733-.972-1.393-.89-1.219.295-2.332.935-3.412 1.58-.478.29-1.386.947-1.386.947-.143.226-.671-1.421-.18-1.902.612.074 1.139.08 1.735-.16 1.488-.595 2.92-1.315 4.421-1.892.957-.378 1.044-.346.792-1.028-.124-.252-.234-1.088-.07-1.526.175-.465.156-.7-.141-.898-.676-.453-2.296-.031-4.575 1.07-.694.335-1.151.47-1.59.826.283-.725.118-.86.11-1.619.93.118 1.768-.254 2.51-.647.613-.323 1.3-.64 2.984-.857.46-.06.25-1.752-.273-2.243-.495-.464-1.536-.474-2.796-.099-1.124.26-2.523.523-3.296 1.738-.976.93.024-1.54 1.803-2.526.78-.017 2.501-.388 2.906-.478.687-.153.797-1.774-.201-2.469-.625-.548 2.27-.562 2.215-.395-.037.095-.064.788.157.965 1.247.377 1.236 1.403 1.345 1.835 1.433 2.365 2.138.881 3.123.067-.207 5.149 1.583 5.735 1.82 6.06-2.46 4.615-.605 4.728 1.7 5.79 0 0-.876.357-1.459.32-.917-.056-2.673 1.038-3.441 1.683-.424.355-.437.059-2.13.01-1.596-.047-1.713.073-2.44.397-1.436.64-1.429 1.244-.027 1.006 1.494-.254 2.958.658 3.13 1.901.118.235.012.65-.012.637-.31-.06-1.014.059-1.004-.091.011-.15 0-.713-.275-1.108Zm2.18-6.24c.405-.26.475-1.002.122-1.301-.32-.273-1.684-.127-2.07.22-.87.69.721 1.844 1.948 1.08Zm.873-3.1c.501-.394.562-1.34.128-1.888-.736-.931-2.66-.374-2.765.8-.111 1.25 1.589 1.91 2.637 1.087Zm-.626-4.254c.09-1.027-.92-1.677-1.85-1.19-1.158.607-.455 1.885.995 1.81.804-.042.804-.042.855-.62Zm-3.39-4.166c-.54.266-.568.906-.056 1.319 2.032 1.128 1.413-1.894.056-1.32Zm141.862 6.138c-.892-3.306-3.35-.029-3.353.017-.087-3.388.55-4.896-1.975-6.053 2.534-3.862 2.006-4.394-.681-5.876.248.022 3.566-.727 4.134-2.634.126.089 5.21 1.349 5.843-1.442-1.533.703-4.55.808-4.584-2.193.285-.087 1 .061.94.157-.4 1.925 3.084 2.4 3.654.88 0 0 1.17.79 1.685.912.057.038-1.584 2.33-3.082 2.676-2.7.9-3.631 1.142-3.635 1.682 0 .21.441.243 1.243.408 1.677.116 1.642.479 1.862 1.038.194.494.383.593.943.543 1.915-.64 2.873-.977 4.207-2.32.163-.032.352 1.412.455 1.461.016-.23-1.355.172-3.46 1.412-1.719 1.011-2.392 1.158-2.61 1.432-.162.202.255.84.3 1.533.036.583-.353.866-.067 1.048.331.21.843.171 1.517-.004 1.485-.36 2.579-.948 3.914-1.779-.284.54.192 1.912.192 1.912s-.66-.467-1.202-.225c-1.045.462-2.734 1.09-3.19 1.199-.442.104-.634.162-.807.31-.212.18-.177.617-.18 1.258 0 .45-.131.864.15 1 .624.202 1.882.138 3.165-.312.546-.24 1.706-.875 1.706-.875l-.363 1.895c-.487-.551-1.883-.145-2.818.226-.471.149-.612.447-.732.86-.209.709.238 1.196.753 1.428.343.155.871.092.871.092-2.421.927-1.94 1.269-3.353.565-.61-.665-1.209-1.368-1.442-2.23v-.001Zm2.535 0c-.402-.467-1.102-.734-1.51-.55-.362.194-.232.6-.116.91.307.858 2.434.58 1.626-.36Zm-1.414-2.363c.568-.749-.057-1.756-1.105-1.762-.73-.005-1.118.452-1.11 1.026.015 1.087 1.741 1.362 2.215.736Zm-1.165-2.853c1.052-.288 1.374-1.314.647-2.058-.516-.528-2.139-.594-2.572-.116-1.108 1.221.133 2.665 1.925 2.174Zm.875-3.753c.617-.318.736-.848.19-1.45-.99-.848-2.718-.186-2.16 1.05.274.606 1.217.787 1.97.4ZM47.249 96.85c.929-.34 1.599-1.065 2.577-1.622.659-.362.46-.304-.383-.8-.664-.307-1.994-1.663-2.118-1.34-.301.578-.258 3.736-.076 3.762Zm23.48 33.075c.038-.645.116-1.616.097-2.328.126-1.356-.116-.96-.846-.517-.54.35-1.406.883-1.745 1.054-1.34.672-1.18.707.706 1.62 1.582.713 1.76.643 1.788.17Zm-1.837-3.176c1.28-.811 1.704-1.23 1.766-2.14.01-1.048-.114-1.43-1.027-.704-3.114 2.474-6.32-2.38-3.47-5.078.582-.55 1.32-1.41 1.327-1.63.047-1.564-1.703-.044-3.133 2.104-1.583 1.953-2.57 4.397-1.18 6.744 1.11 1.717 3.584 2.057 5.717.704Zm-7.076-3.16c-.056-.766.158-1.621.258-1.876.349-.896.334-1.007-1.253-.261-.632.21-1.388.38-1.678.378-1.296-.008-.973.402.884 1.96 1.867 1.567 1.93 1.708 1.79-.2Zm4.414-7.5c.198-.471-.213-.652-.607-.564-.03.007-.71.517-1.509 1.15-2.42 1.917-4.195 2.141-5.396.68-1.217-1.48-.709-3.237 2.013-5.248 1.2-.888 1.488-.948.91-1.335-.438-.295-.465-.25-2.19.925-3.478 2.37-4.52 3.987-4.171 6.344.071.968.576 1.475 1.063 1.852 3.316 2.956 7.916-1.12 9.887-3.804Zm3.51 1.399-.21-3.262c-3.535-3.067-6.888-8.306-8.047-12.644-1.182-3.858-.24-11.907-.062-11.31l-1.91-3.64c-1.664 3.864-2.39 9.755-.581 15.758 1.536 5.096 4.61 11.268 10.81 15.098Zm-14.892-1.9c1.123-2.17 1.158-1.936-1.012-1.955-2.477-.021-2.2-.325-.804 1.803 1.12 1.71.932 1.859 1.816.152Zm1.488-2.975c1.427-.46 1.1-.355 2.995-1.594 2.173-1.422 2.264-2.2.082-1.104-2.802 1.407-5.262 1.048-6.176-.789-.813-1.636.885-3.677 3.683-4.476.955-.272 1.459-.503 1.461-.924.01-1.284-4.753.429-6.715 2.367-3.787 3.741-.473 8.18 4.67 6.52Zm-6.123-5.825c.128-.195.468-.663.782-1.148 1.341-1.568.214-1.1-.977-1.528-.629-.234-1.274-.466-1.643-.41-.712.11.24 1.493.469 2.387.64 1.99.567 1.928 1.369.699Zm5.07-3.585c2.4-.237 2.645-.47 2.648-.97 0-.497-.293-.402-1.498-.234-3.192.446-5.305-.37-5.761-2.082-.471-1.767 1.69-3.44 4.57-3.341 1.561.054 2.6-.489 1.65-1.01-.495-.272-4.792-.214-5.763.071-2.856.837-4.02 2.434-3.759 4.646.395 2.731 1.878 3.514 5.491 3.32.693-.037 1.575-.317 2.422-.4Zm1.857-8.897c0-.426-.683-.488-2.948-.826-3.017-.45-4.365-3.26-2.547-4.95.69-.64 2.333-.915 3.248-.748 1.99.365 3.205.777 3.224.097 0-.605-.573-.649-4.307-1.442-5.642-1.2-8.739 4.37-4.228 7.096 1.713 1.035 7.553 1.623 7.558.773Zm1.399-7.971c0-.214-.182-.378-.61-.546-.62-.244-1.037-.29-2.437-1.239-1.863-1.262-2.428-3.724-1.186-5.097 1.207-1.28-.964-2.793-2.693-1.347-1.797 1.501-1.646 3.86.424 5.726 1.905 1.718 6.496 3.505 6.502 2.503Zm-9.141-.333c1.96-.926 3.37-.393 1.869-1.67-.843-.786-1.562-3.018-2.147-1.124-.448 1.128-.778 3.119-.79 3.314.132.135.102-.096 1.068-.52Zm69.36-4.804c-2.234-.56-3.76-3.17-3.191-5.677.321-1.417 1.646-4.756 1.907-4.963.986-.787.85.26-.054 2.077-.825 1.855-1.468 3.346-1.212 4.45.363 1.571.995 2.77 2.618 3.169 1.142.28 2.217-.199 2.946-.716.964-.685 1.875-2.441 2.964-4.873.348-.684.815-2.784 1.395-1.502.28.663-2.044 5.075-2.912 6.193-1.093 1.407-2.94 2.232-4.462 1.842Zm13.464-1.477c1.088 1.049 2.927 1.576 4.127 1.2 2.946-1.044 4.285-3.843 3.17-8.344-.565-2.523-1.048-4.092-1.537-4.404-.237-.152-.497.13-.727.482-.206.313.109.754.443 1.941 1.407 5.002 1.04 7.263-.679 8.219-2.492 1.387-4.628-.21-5.351-3.779-.116-.551-.457-1.675-.457-1.675-.191-.497-1.735-.387-1.174 1.274.169 1.285 1.346 4.351 2.185 5.086Zm12.637-13.099c-.04-1.76-3.718-9.395-3.969-8.584 0 0-.016 1.784.128 2.486.055.265.246.51.403.793 3.197 5.735 2.704 9.776-.069 10.662-.944.43-1.15.855-.727 1.3.854.935 2.997-.913 3.414-1.584 1.049-1.505.903-4.25.82-5.073Zm-53.54-1.298c1.204-1.353 3.847-6.025 4.662-8.476 2.506-7.294 5.141-15.683 5.869-23.439.081-.978.131-2.467.18-2.595-.197-.214-1.44-.101-1.857.113-.2.262-.066.843-.138 1.6-1.121 8.718-3.192 16.66-6.263 24.746-1.343 3.512-2.59 5.824-4.208 8.267-.282.426-.642.866-.783 1.113-.41.594-.108.983.366.731.841-.479 1.567-1.398 2.171-2.06Zm-4.11 2.121c3.845-5.322 6.577-11.71 8.7-19.251 1.343-4.881 2.524-9.82 3.232-14.853.146-1.074.263-1.793.054-2.114-.518-.141-1.487-.054-1.823.207-.206.313-.069.94-.259 2.388-.491 3.745-1.228 7.506-2.47 12.43-3.281 10.896-6.296 16.996-10.256 22.334-.32.449-.605.74-.577.931.042.28.427.257 1.056-.139.823-.65 1.763-1.218 2.343-1.933Zm-5.855 2.829c1.88-1.075 5.191-5.747 7.53-10.78 2.625-5.942 4.822-12.653 6.26-18.465.624-2.547 1.512-8.908 1.385-9.327-.15-.497-1.988-.083-1.734.26 0 0-1.825 10.225-3.79 15.861-3.647 10.463-6.801 17.562-10.196 20.975-.445.448-1.321 1.323-1.321 1.323s.018.39.302.45c.677.126 1.128-.072 1.564-.297Zm-2.878-.417c4.243-2.39 9.213-13.553 13.27-27.568.693-2.398 1.962-10.426 1.962-10.426s-1.69.063-2.017.421c-.328.485-.275 1.72-.75 4.654-1.823 8.865-4.575 16.952-8.71 24.944-1.79 3.541-4.761 6.876-6.637 7.826-1.05.531-1.356 1.116-.588 1.159 1.294.046 1.409.319 2.348-.19l1.122-.82Zm58.143 124.833c-3.181-.011-5.884 3.065-8.292 6.93-5.123 7.922-8.565 21.159-9.404 28.194l1.933-.368c-.29.134 3.612-18.724 9.558-26.8 3.214-5.094 3.078-5.171 4.883-5.638 2.28-.591 4.11 1.896 2.979 3.394-.41.507-.86.135-.732-.588.404-2.306-2.935-2.75-3.868-.484-1.073 2.607 1.78 4.931 4.568 3.907 2.491-.887 3.534-4.396 1.786-6.989-.9-.877-2.2-1.655-3.41-1.558Zm-16.75-.323c-3.81 4.822-5.698 9.777-8.038 16.541-2.337 6.76-4.017 13.37-4.744 20.957l2.055-.267c-.075-4.877 5.229-28.098 12.681-36.797.416-.55.75-1.008.72-1.136-.414-1.174-2.181.24-2.674.702Zm8.417-1.8c-4.938 4.077-8.883 12.985-11.484 21.22-2.812 8.9-4.074 17.057-3.862 17.057l1.962-.29c-.146-.517 5.512-31.88 16.012-37.591.91-.458 1.102-.92.334-1.12-1.182-.166-2.132.225-2.962.724Zm5.53.02c-10.784 1.431-17.83 34.771-18.065 37.54 0 .042-.04.257-.04.257l2.148-.446.028-.16c1.478-8.518 2.919-14.49 6.28-22.19 2.62-5.706 6.233-13.001 11.633-13.709.438-.057.854.12.7-.395-.328-.817-1.942-.922-2.684-.897ZM69.551 182.09c-3.897 1.01-4.024 5.718-1.428 11.735.196.455.16.703.36.879.443.391.79-.155.84-.515.075-.547-.157-1.283-.569-2.352-1.606-4.165-1.22-6.564.37-7.626 4.076-2.117 5.173 2.23 5.79 4.23.15.488.202 1.158.468 1.195.814.112 1.201-.179 1.19-.179 0 0-1.08-3.744-1.739-5.151-1.065-2.276-3.599-2.753-5.282-2.216Zm-28.274 4.445-.04 49.634-7.46 7.066c-3.202-2.768-7.408-7.102-7.408-7.102l.132-83.907-2.4-.194c-.587 36.05-.011 72.83-.04 108.95h21.902l18.257-28.788s.23-.342.304-.523c.224-.556.198-1.383.088-4.442-.045-1.242.094-2.197-.088-2.488-.184-.296-.574-.085-.937.08-.37.168-.59.108-.392-.332.113-.25.479-.798.795-1.32 1.025-1.697 1.275-2.241.929-4.123-.085-.462-.506-.854-.872-1.4-3.073-4.575-4.324-11.357-2.799-16.324.487-2.196.312-2.641-.739-4.352l-19.232-10.435Zm96.564-53.368c-2.006-1.04-1.967-1.016-1.98.95.012 1.471.04 1.827.586 1.629.791-.406 1.758-.778 2.488-1.09 1.393-.483-.377-1.102-1.094-1.489Zm7.94 5.112c-1.557-1.254-.982-1.11-1.423 1.717-.266 1.708-.609 1.752 1.141 1.187.994-.347 3.037-.128 2.121-1.305.01.02-1.534-1.337-1.839-1.599Zm-62.543 43.395c-2.387 1.458-4.826 8.523-4.826 8.523-8.344 1.003-11.838 9.285-12.21 16.191-.295 5.452-.661 11.818-.116 12.376 5.47-2.483 7.578.382 8.097-.39.237-.338-1.213-1.456-3.035-2.46-.423-.232-1.078-.651-1.326-.859-.665-.556 1.326-.078 2.584.787 1.604 1.102 1.874.872 1.178-2.349-.758-3.502-.881-3.931 1.785-5.32 1.067-.554 1.674-1.026 2.438-1.89.61-.692.767-.86.542.156-.39 1.76-1.941 2.528-3.338 3.243-.695.36-.982 1.083-.986 1.704 0 .634.717 4.056 1.05 5.15.31 1.038.424 2.08.663 3.139.626 2.748.667 3.287.35 5.282-.186 1.17-.28 1.837-.216 2.544.06.642.147 1.516.147 1.516 0-.03-1.49-1.544-4.757-.246-2.355.936-4.216-.04-5.536-.732-.304 1.082-.235 2.258-.199 3.5 13.585 2.507 25.186 2.171 34.954 1.139.253-2.916 1.485-12.187 4.071-20.547 1.077-3.479 2.294-7.146 3.667-9.593.935-1.669 1.89-2.793 2.228-2.987.105-.065.115-.099.112-.144v-.26c-.034-.543-.164-1.382-.626-1.754-1.127-.908-2.925.261-3.517 2.286-.518 1.213-2.882 6.46-3.051 6.371-.14-.088-.467-.095-.349-.5.906-2.127 2.15-4.375 2.85-6.284.967-2.749 3.07-4.2 4.642-2.467.54.595.756 1.142 1.003 1.331.186.143.437.045.591-.19.593-.902-.78-2.948-2.255-3.36-2.128-.593-3.713.974-6.127 6.056-1.393 2.934-1.642 3.67-1.863 3.445-.049.02-.418.019-.285-.55.288-1.221 2.137-4.77 3.476-7.023 1.982-3.333 5.662-3.603 7.21-.71.237.394.249.91.511 1.262.475.62 1.257.497 1.45-.522-.21-.674-1.504-3.109-2.403-3.533-2.07-1.436-4.582-1.155-6.696.751-.48.433-.98 1.311-2.382 4.185-2.065 4.609-2.12 4.627-2.684 3.884.83-2.242 3.015-5.884 3.897-8.12.168-.334.202-.692.189-1.036-.051-1.625.211-4.497-3.192-6.538-2.903-1.58-6.735.082-8.04 3.19-.999 2.382-1.729 4.018-2.233 4.355-.707.474-.575-.186-.505-.426 1.006-2.155 2.42-4.332 2.644-6.5.147-5.868-5.743-8.038-9.573-5.076h-.003ZM52.832 71.716c4.596-2.158 7.743-3.244 12.426-4.64.633-.28.734-.344.062-1.686-2.967-5.934 5.175-10.664 7.942-4.84.37.777.455 1.206.818.835.68-.901 1.49-2.18 2.33-3.641 3.114-4.875 4.524-10.436 6.185-15.344.688-2.884 1.65-5.898 1.922-8.99C78.338 22.544 67.475 2.63 67.475 2.63H24.063v87.098c12.093-10.193 20.323-13.88 28.769-18.012Zm48.69-3.21c.524-.56.978-1.488 2.86-5.387.335-.696.871-1.774 1.09-2.276.282-.918 1.339-1.492.824.151-.117.355-.319.833-.638 1.47-.626 1.136-1.22 2.527-1.665 3.436-2.406 4.87-2.291 7.707.396 9.82 2.007 1.939 6.223 2.158 8.467-.973a9.196 9.196 0 0 0 .733-1.39c.975-2.39 1.694-3.586 1.879-3.823.998-1.28 1.158.306-.334 2.747-1.708 2.797-1.738 5.829-.26 7.961 2.188 3.162 6.347 3.251 8.957.715 1.356-1.606 2.435-3.65 3.303-6.262.192-.579.391-1.009.532-1.348.217-.524.53-.718 1.34-.875 5.556-1.075 10.219-6.835 10.88-13.125.088-.85.327-2.355.415-3.249.174-1.782.177-11.014 0-11.565-.094-.297-.26-.454-.622-.45-.277.003-.67.102-1.234.305-1.832.66-2.684.828-4.444.192-.581-.21-.984-.281-1.222-.26-.776.067.255 1.192 2.518 2.435.97.532 1.736 1.25.95 1.197-.228-.016-2.96-1.441-3.336-1.675-1.245-.77-.92.2-.28 2.753.862 3.428.366 4.39-2.314 5.734-.5.25-1.163.773-1.5 1.11-1.42 2.12-1.054.558-.338-.571 1.222-1.293.472-1.734-2.034-.838-2.858 1.022-4.15.276-4.95-1.33-.904-1.814.797-4.149 2.216-4.103.459.015.376.182-.3.648-.818.564-1.205 1.108-1.29 2.07-.174 1.963 1.217 2.797 3.16 1.48.917-.621 1.639-1.05 2.334-1.21.688-.158 1.722.1 1.719.657 0 .229-.033.791.016.916.182.622 1.166-.258 1.594-.57 1.463-1.105 1.416-1.323 1.016-3.115-.653-2.508-.983-4.801-1.606-7.343-.332-1.332-.389-2.837-.186-4.195.101-.68.363-2.079.416-3.036.053-.957-.01-2.325.03-2.325 1.452 1.123 2.043 1.32 3.46.775 2.194-.908 3.58-.813 5.428.08.684.33 1.307.563 1.307.563l.084-2.879s-1.71-.356-4.873-.775c-9.519-1.264-29.052-1.53-29.78-.37-.184.296-.368 2.352-.887 5.212-1.152 5.942-2.443 11.863-4.17 17.661-.355 1.181-.693 1.657-.512 1.692.074.015.427-.443.591-.634.927-1.08.217 1.484-1.18 4.571-.127.28-.23.584-.232.679 0 .186-.879 2.338-1.484 3.64-.377.808-.689 1.051-.685.534.424-1.779 1.547-4.08 1.71-5.665-.985 1.436-2.418 3.806-3.502 5.22-.2.38.012.498.187.969.652 1.757 2.23 1.915 3.142.323.508-.887 2.088-4.23 2.638-5.694.565-1.505.962-2.3 1.15-2.397.378-.198.451.658-.22 2.082-2.033 4.32-2.905 6.742-3.9 7.635-.774.693-2.111.649-2.854-.585-1.26-2.091-2.335-1.399-1.179.746 1.194 2.216 3.922 2.423 5.347.427.47-.659 2.684-4.926 3.38-6.662.388-.968.803-1.723.941-1.777.744-.289-.104 1.923-2.239 6.352-.691 1.71-1.802 3.505-3.306 4.06-3.653.809-4.147-1.143-5.418-3.367-.617-.553-1.177.332-.94 1.31.383 1.586 1.1 2.207 2.207 3.003 2.312 1.486 5.527.463 6.692-1.231h.005Zm16.298 9.267c-.331-.74-.284-1.493-.115-2.194a18.101 18.101 0 0 1 1.759-4.45c1.2-.573.283 1.707.133 2.046-1.447 3.047-1.584 4.226-.234 4.577 1.157.302 1.78-.413 2.873-3.145.561-1.402.786-2.023.985-2.104.42-.17.623 0 .599.429-.724 1.793-1.29 3.68-2.478 5.169-1.162.983-2.914.989-3.522-.328Zm-10.852-2.341c-.504-.1-1.367-.756-1.967-1.31-2.044-1.89-1.707-4.505.828-9.418.197-.382.934-1.868 1.171-2.356.425-.874.842-.532.839.047 0 .162-.635 1.52-1.274 2.778-2.8 5.527-2.704 7.781.017 9.096 2.655 1.284 3.844.545 5.961-3.674 1.225-3.167 1.829-3.22 1.762-2.015 0 .449-1.485 3.485-2.442 4.897-1.386 2.046-2.587 2.41-4.895 1.955Zm.2-2.667c-1.042-.651-1.467-2.272-.85-3.598.56-1.094 1.995-5.286 2.67-5.522 1.085-.038.506.88-.838 3.458-1.59 3.415-1.533 4.328-.306 4.851 1.136.484 1.674-.508 3.35-4.502.263-.628.63-1.28.845-1.143.266-.02.729.182-.152 1.993-.209.432-.563 1.34-.955 2.186-1.145 2.471-2.444 3.101-3.763 2.277Zm18.816-7.25c-.459-.238-2.608-1.09-2.29-1.797.04-.067.165-.015.228.028 1.969 1.332 4.417 1.67 6.97-.178.43-.382.75-.124.51.356-.773 1.548-4.214 2.21-5.418 1.591Zm-6.323-2.245c.059-.149.237-.591.394-1.186.236-.894.18-1.553.39-1.439.892.487 2.486.498 3.267.017.856-.527 2.592-.688 3.225-.273.904.594 1.364.318 1.997-.18.715-.563.728-.323 2.02.13.954.334 1.328.562 1.734.488.155-.028.47-.386.57-.367.311.056.346.945.632 1.959.253.897.109 1.114-.688.576-.593-.4-2.296-.588-4.067-.04-1.312.406-1.614.243-2.577.078-2.4-.41-4.131-.725-5.92.32-.955.558-1.301.848-.977-.083Zm-5.969-4.432c-1.163-2.355 1.512-5.472 3.863-4.371.78.365 1.473 1.747.32 1.113-5.348-1.09-4.012 6.814 1.73 2.639 3.816-2.557 6.516-2.952 6.74-.478-.106.908-.906.763-1.512.846-1.582.223-2.167.482-4 1.275-2.788.887-5.513 1.611-7.14-1.024Zm20.921 1.088c-1.304-.339-2.438-.858-3.798-1.107-1.347-.237-1.955-.947-1.712-1.902.253-.993 1.603-1.098 3.63.152 2.248 1.385 3.878 1.72 4.7 1.198 1.663-1.056.766-2.776-.821-3.216-1.192-.334-.315-.802.966-.416 2.067.79 2.11 4.56-.015 5.343-.711.262-1.964.19-2.95-.052Zm-18.211-12.479c1.518-.947 2.984-1.793 3.506-2.358.274-.297 1.036-1.293.445-.989-3.096 1.877-6.69.318-9.294-.966-1.25-.59-.943-.329-1.903-.264-.651.044-1.174.181-1.29-.288-.053-.208-.416-.12-.65-.144-.962-.096-.354-1.381 1.668-2.798 2.383-1.671 4.463-2.762 6.527-3.212 2.144-.467 4.33-.203 5.934 1.355.616.6.562.998 1.125.63 1.285-.838 1.296.275.212 1.306-.744.707-.472.9.438 1.573.435.321.078.627-.164 1.096-.092.286-.02.6-.063.817-.203 1.006-4.742 4.562-6.385 5.169-1.13.213-.538-.647-.105-.927h-.001Zm3.152-6.534-.754.01c-.858 2.644-2.441 3.545-3.759.375l-.6.062c-.027 2.684 4.548 4.37 5.113-.447Zm-4.956 2.48c-.31-.527-.66-1.735-.986-1.753-.884-.037-2.108.123-1.818.676.457.876 3.165 1.686 2.804 1.076Zm6.065-.472c.816-.496.99-.838.457-1.382-.687-.704-1.046-.345-1.262.779-.185.965-.05 1.123.805.603Zm-11.06-1.859c5.464-2.495 7.536-2.817 9.757-2.2.514.143.97.433 1.257.416 1.063-.064.385-1.266-1.524-1.954-2.179-.786-3.56-.429-7.75 1.775-2.453 1.29-4.445 3.198-1.74 1.963Zm15.837-3.028c-.078-.15-.409-1.142-.503-1.504-.094-.363-.179-.737-.28-.738-2.536.408-4.765-.07-5.364-.214-3.835-.923-7.54-.736-10.305.357-.675.267-1.513.7-1.593.775-.22.206-.542-.028-.54-.286 0-.302 1.699-1.657 2.769-2.192 3.254-1.627 6.688-1.905 10.46-.881 2.456.95 4.04.796 5.61.102.77-.34.224.502-.02 1.62-.17.774.017 1.437.048 1.874.097 1.057-.023 1.587-.283 1.087Zm57.1 222.948v-87.327c-21.782 15.141-31.31 18.152-41.546 21.862 3.424 7.04-4.119 13.064-8.445 5.916-4.452 5.044-10.585 22.71-10.802 28.575 0 0 11.842 20.674 17.62 30.974h43.174Zm-79.162-28.627c.395-4.394 1.326-11.843 4.226-20.512 1.217-3.637 2.684-7.81 4.757-11.545.827-1.306.885-1.811 0-1.341-.555.295-3.089 3.178-3.434 3.906-3.887 8.275-5.686 18.217-7.108 25.808-.323 1.706-.418 3.828-.418 3.828l1.977-.144Zm2.844-.36c.924-10.675 4.817-25.086 10.665-34.48.55-.895 1.227-1.671 1.201-1.981-.076-.913-2.327.665-4.075 3.36-1.95 3.902-3.904 8.064-5.399 12.673-2.11 6.506-3.651 12.516-4.251 20.672l1.859-.244Zm5.62-.892c.586-6.15 2.478-11.794 4.064-17.447 1.94-6.913 4.53-12 7.547-16.582.968-1.469 2.11-2.844 3.195-4.245.138-.169.278-.472.246-.598-.697-.123-1.252.095-1.79.4-.753.425-1.812 1.498-2.43 2.293-4.298 5.53-6.61 11.987-8.756 18.51-2.06 6.264-3.545 12.289-3.836 17.961l1.76-.292Zm-38.6-4.715c.864-.068 1.42.097 1.672-.135.248-.23.167-.85.246-1.642.167-1.692-.01-1.6-1.055-.506-1.736 1.81-4.903 2.509-6.786 1.414-.951-.552-1.612-.935-1.701-.475-.105.535.04.945.446 1.231 2.282 1.05 4.448.329 7.177.113Zm-2.04-1.296c1.201-.403 2.423-1.05 3.11-2.039.656-.943.645-1.078.149-.899-2.443 1.212-4.048 1.829-6.232 1.494-2.957-.454-3.08-.074-1.125 1.161 1.279.808 2.34.832 4.097.283Zm-4.341-3.783c.458-.34.575-1.728.206-1.807-.374-.08-.918.609-1.051 1.17-.15.744.397.934.845.637Zm4.577-.06.786-.071c-.402-3.48-4.147-3.63-4.838.348l.594.09c.773-3.172 3.037-3.085 3.458-.367Zm2.47-.56c1.145-.645.749-1.443-.797-1.748-1.014-.24-.958.596-.432 1.73.261.565.444.459 1.228.018Zm-8.82-4.265c-.01-.388-.168-1.013-.35-1.39-1.32-2.728-2.05-5.95-1.9-9.956.108-2.872.144-3.76-.448-3.763-.826.401-1.315 5.743-.263 10.191.743 3.139 3.016 7.034 2.96 4.918Zm-.032-4.348c-.081-1.5.247-4.862.084-5.595-.215-.965-.78-1.835-1.1-2.067-.496-.36-.62.33-.448 2.132.402 4.228 1.076 7.43 1.464 5.53Zm.417-7.697c.327-.593.2-1.222-.52-2.636-2.83-5.57-3.197-9.376-.24-10.76.33-.154.54-.184.76-.307.932-.521.577-1.467-.817-1.077-3.852 1.08-4.612 4.716-1.365 11.446 1.654 3.358 1.91 3.828 2.182 3.334Zm.702-3.158c.05-.234.15-1.144.188-1.33.04-.187-.35-.723-.766-1.797-1.09-2.805-1.112-3.968.073-4.781.384-.227.78-.238.84-.5.093-.407.086-1.076-.157-1.27-1.698.012-2.484 1.012-2.781 1.962-.449 1.504.019 3.706 1.353 6.435.646.851.984 2.408 1.25 1.28Zm1.299-3.63c.908-1.849.047-4.245-1.204-3.428-.811.53-.853 1.091-.355 2.631.606 1.876.965 2.006 1.559.798Zm3.186-4.947c.364-.363.041-.885-.631-2.928-.576-1.75-.313-2.946.784-3.291 1.574-.391 2.13 2.202 2.46 3.296.172.844.722 1.077 1.21.49.137-.164.177-.3-.056-1.222-1.016-4.021-2.344-5.3-4.482-4.3-1.982.93-1.722 3.007-.285 7.375.192.584.32 1.018.46 1.079.113.05.338-.298.54-.5Zm1.756-1.366c.47-.469.442-.257-.096-1.935-.613-1.913-.935-2.312-1.594-1.654-.405.404-.2.848.261 2.413.537 1.819.68 1.923 1.429 1.176Zm82.175-6.55c3.128-2.175 1.838-6.08-2.28-7.527a16.78 16.78 0 0 1-1.188-.459c-1.892-.917-3.364-1.2-3.368-.483 0 .421.565.634 2.379 1.525 2.683 1.317 3.289 2.84 1.965 4.759-.955 1.383.833 2.968 2.492 2.185Zm2.838-4.751c.272-1.116.676-2.074.87-2.724.264-1.019-.078-.782-.746-.623-1.725.902-2.959.412-2.12 1.652.93 1.65 1.698 2.922 1.996 1.695Zm-.213-3.902c2.148-1.297 2.625-4.677.625-6.287a7.218 7.218 0 0 0-2.308-1.201c-2.035-.626-4.972-.91-6.049-.581-.23.275-.24.707-.01.833.3.112.842.186 1.624.266 2.99.307 4.466 1.204 4.323 3.343-.148 2.204-1.897 3.051-5.053 2.354-1.698-.374-2.488-.194-1.807.207.81.475 2.552 1.1 4.267 1.44 1.468.26 3.141.36 4.386-.374h.002Zm-10.315-.556c2.42-5.471 3.693-19.821-10.128-30.194l.457 2.87c8.144 7.191 10.1 16.349 8.412 24.749l1.26 2.575Zm12.34-9.809c-.865.566-1.589 1.153-2.7 1.652-.664.3-.682.374.222.87.437.241 1.157.683 1.432.982.479.52 1.043.72 1.254.53-.022-.814.254-3.506-.208-4.034Zm-4.09 1.038c2.799-.891 4.297-2.249 3.978-4.52-.468-3.33-3.233-4.035-8.411-2.733-2.491.626-2.714 1.805-.35 1.197 2.986-.767 5.33.393 5.013 2.595-.186 1.9-1.702 3.006-4.363 3.006-1.406 0-1.84.126-1.65.637.13.346 4.629.185 5.783-.182Zm-4.622-7.913c4.576-1.58 6.704-4.037 5.658-6.79-1.23-3.24-5.225-3.273-9.238-.256-1.874 1.382-1.587 1.894.23 1.19 2.354-1.09 3.869-1.258 4.833-.391 1.742 1.565.567 4.294-2.074 5.273-1.279.536-1.69.831-1.692 1.218 0 .612.23.464 2.283-.244Zm7.719-.051c.118-.959-.958-4.285-1.422-3.52-.123.203-.55 1.142-1.09 1.63-1.575 1.421-1.277.883.286 1.318.869.241 2.097.858 2.226.572Zm-12.103-7.108c4.626-2.702 6.392-6.557 3.994-9.12-2.155-2.304-5.728-.962-9.046 3.226-1.521 1.92-.378 1.68 1.673-.147 2.389-2.128 5.428-1.1 5.412 1.555-.01 1.134-1.6 3.042-3.107 3.929-.468.275-.536.697-.37.972.178.296.553.105 1.444-.415Zm8.11-2.818c-.242-.726-1.983-3.842-2.356-3.736-.395.8-.424 1.85-.898 2.698-.645 1.274-.563 1.074 1.492 1.068 1.529-.005 1.714.21 1.761-.03Zm-13.598-3.523c3.886-4.064 4.23-8.823.588-9.918-2.017-.606-5.242.863-5.252 2.38-.01.945.17 1.116.987.777 3.435-1.287 6.157 2.04 3.002 5.864-.768 1.107-.87 1.385-.647 1.614.262.268.475.168 1.322-.717Zm41.884-34.75V2.631h-22.766l-18.068 28.68-.027 7.039c0 .243.41.394.677.088 1.026-.8.63.04-.55 1.85-1.194 1.832-.83 3.34.476 5.296 2.767 4.143 4.21 11.75 3.032 15.77-.444 1.518-.543 2.132-.253 2.98.332.972.536 1.49 1.496 2.117.835.586 7.707 3.286 18.776 10.456l-.054-50.602 6.974-6.735 7.368 7.102.258 83.543c0 .883 2.661 1.679 2.661.37Zm-4.01-83.674-6.169-5.789-6.098 5.703c-.032 27.212.155 83.062.155 83.062l6.06.439s.445-1.274-.122-4.568c-.852-4.942-.798-10.979.57-20.16.852-5.632.01-10.516-1.288-15.659-1.122-3.427-1.162-6.598-.958-9.664.431-4.888 1.766-8.579 1.93-15.612.093-4.009-.097-7.934.049-12.88.06-.662.338-.58.387.103.185 4.476.358 8.728.398 13.098-.133 5.684-1.512 11.533-1.664 16.736-.114 3.604-.172 4.851 1.339 9.24 2.374 6.896.812 17.49.784 17.679-1.006 6.787-1.74 15.47 1.657 21.967l3.292.296-.321-83.991ZM136.09 78.245c1.82-.842 2.18-2.33 1.2-5.913-.174-.64-.374-1.4-.443-1.69-.21-.884-.604-.981-1.13-.278-.315.42-.025.518.458 2.488.73 2.978.306 3.963-.793 3.956-.974-.006-1.732-.815-2.01-2.747-.095-.66-.234-1.11-.392-1.374-.265-.442-.584-.362-.841.126-.333.633.292 3.239 1.123 4.502.901 1.274 1.522 1.535 2.828.93Zm-.496-2.674c.388-.733-.093-2.538-.343-3.72-.231-.66-.494-.82-.927-.714-.645.16-.614.87-.38 2.041.475 2.384.733 2.685 1.65 2.393Zm5.533-4.301c2.083-1.196 2.282-3.26.883-7.011-.574-1.539-1.288-2.622-1.682-2.633-.155.978-.298 1.5-.125 1.884.163.356.436.902.632 1.358 1.184 2.768.865 4.364-.279 5.229-1.068.807-.392 1.486.571 1.173Zm-68.158-1.442c4.885-1.053 9.29-8.962 12.065-16.015 2.527-7.106 5.214-14.913 5.64-21.424 0 0-1.848.086-2.075.47-.209.38-.3 1.196-.496 2.36-1.274 5.99-2.286 10.538-4.508 16.167-1.542 3.908-3.225 8.332-7.401 14.273-1.372 1.66-2.942 2.69-4.914 2.967-.502.07-1.348-.024-1.56.127-.375.267-.038.87.928 1.114.865.218 1.743.076 2.321-.04Zm67.3-.925c.746-.799.82-1.747-.016-3.752-.234-.562-.342-.881-.62-.803-.589.166-1.277 1.726-.87 3.046.53 1.72.84 2.224 1.507 1.509Zm-69.004-1.256c1.43-.193 3.243-1.339 4.553-3.136 2.691-3.547 4.548-7.582 5.925-10.719 1.103-2.528 3.094-7.985 3.635-9.96 1.15-4.198 1.778-6.907 2.302-9.912.048-.276.094-.717.012-.86-.567-.156-1.81-.063-2.19.322-.686 4.82-2.28 9.654-3.446 13.673-1.965 6.836-7.567 17.772-10.621 18.288-1.643.277-3.524-1.16-3.222-2.637.186-.906.31-1.251.75-1.478 1.065-.377 1.684.353.516.83-1.353 1.184 1.083 2.996 2.579 1.73 2.535-2.146-1.19-6.256-4.24-4.367-3.378 2.093-2.51 5.718-.385 7.44 1.07.869 2.312.991 3.832.786Zm23.923-4.908c2.087-2.158 3.655-4.952 4.795-8.444 2.471-7.844 4.52-16.836 5.263-23.88 0 0-1.783-.185-2.18.195-.28.268-.012.523-.77 5.67-1.273 7.504-3.13 14.957-5.816 21.408-1.1 2.609-1.412 2.929-2.19 4.283-1.084 1.914-.682 2.401.898.768Zm46.308-16.352c-.194-.1-.177-.035-.26.022-.284.199-.098 1.201.548 2.748 1.702 2.766 1.9 8.135 1.79 10.153-.035.606-.097.954.085 1.493.181.528.498 1.142 1.008.113.56-3.976.12-8.138-1.393-11.508-.533-1.198-1.055-2.37-1.779-3.021Zm1.31 11.723c.298-1.07-.253-5.312-.936-6.802-.275-.6-.773-.647-.713.035.01 1.47-.152 4.265 0 5.093.743 1.728 1.322 2.828 1.644 1.674h.005Zm-3.853-17.136h-.803c.028 2.775-2.414 3.546-3.315.214l-.723.169c.961 4.702 5.305 2.546 4.841-.383Zm-4.882 2.091c-.417-1.23-.245-1.68-1.303-1.127-.81.423-1.294.873-.155 1.425 1.013.432 1.722.48 1.458-.298Zm6.117-.709c.336-.682.296-1.298-.21-1.302-.39-.002-.498.31-.608.973-.198 1.184.292 1.402.818.33Zm.425-4.609c.31-.1.222-.538.139-1.097-1.324-1.853-4.598-1.286-5.774-.918-1.359.444-1.699.279-2.623-.148-.764-.143-.872.044-1.057.412-.164.323-.193.939-.246 2.01-.045.906-.013 1.326.3 1.043 1.212-1.096 2.615-2.466 4.663-2.551 2.481-.103 4.6 1.29 4.598 1.25Zm-9.014 2.509c0 .374.314.14 1.122-.37 2.938-1.758 4.64-1.51 7.156-.671.56.187.907-.404.3-.907-2.988-2.473-6.668-.896-8.578 1.948Zm10.648-11.393 15.94-26.56-88.81-.066 15.08 28.2c12.297-2.868 32.538-6.53 57.79-1.574Z" id="path4096-2-4-0" fill="#131F67"/><path d="M63.484 236.633c1.881-2.828 11.196 2.21 11.689 4.206 5.513-4.373 12.207-4.692 17.595.782 5.54-6.102 11.469-5.684 17.638-2.15-.69-1.379 7.887-7.467 13.1-3.598l14.097 25.3-90.313.293c5.335-8.07 10.061-17.707 16.194-24.833Zm-39.45-131.959c-.49-1.37-2.471-15.424 2.556-15.774 8.126 3.63 18.5 16.616 23.306 24.552 5.956 9.833 11.975 32.446 8.651 31.458-.48-.143 10.258 10.69 10.998 11.749 1.216 1.74-18.1 34.158-21.292 32.995-.964-.352-7.397-4.222-7.397-4.222l.184-10.817.156-21.825-17.703-1.554.621-4.753c5.938.491 12.031 1.613 17.53.33 3.618-6.676 2.236-16.636-2.115-20.65-2.302-1.411-4.475-.96-6.812-.661-9.478-1.595-4.567-17.692-8.682-20.828Zm158.525 7.22.057 3.99c-6.24 1.372-17.27-3.955-20.61 4.626.415 9.269 2.475 13.425 3.914 16.224 1.081 2.514 8.67-.354 11.343 2.182 7.669 9.513 5.86 22.18 5.927 33.592l-3.328 1.694c-22.991-13.666-40.646-56.118-43.092-68.205-.156-7.759 21.093-32.695 21.093-32.695.048-.054 7.742 4.72 7.742 4.72.186.076-.163 32.727-.162 32.575 6.076.316 11.966.913 17.116 1.297Zm-45.588-29.842c-26.813 47.276-15.848 82.253 3.883 112.436 0 0-1.706.391-1.894.222-4.321-3.873-7.34-3.194-9.549-3.23-4.224-.067-5.391 1.203-7.814 1.445-6.188.618-5.686.776-10.935-1.216-6.623-5.444-15.495-9.618-22.555-11.813-5.66.513-14.29 3.208-17.553 1.026 22.703-42.228 19.302-69.261-4.2-113.522 1.948.579 2.25 2.413 3.71 2.865 4.83 1.88 11.488 1.167 15.477-.587 6.34-2.91 13.113 4.907 32.588 13.509 1.588.826 3.594-.478 5.347-.836 3.592-.733 6.67-2.281 9.349-1.374.86.29 4.146 1.075 4.146 1.075ZM82.85 26.79C81.694 24.623 69.873 1.956 69.873 1.956l87.931.534-13.192 21.868c-1.245 1.187-7.442 4.496-13.763-2.996-.119 1.077-9.38 7.735-17.34-.283-4.79 4.388-9.677 6.93-17.737 1.99-.18 1.378-6.466 7.556-12.922 3.722Z" id="path4098-7-2-7" fill="#E2CF00"/><path d="M92.47 241.114c-8.52-8.05-17.388-.783-17.185-.323-3.372-3.456-6.67-6.286-11.115-4.896 0 0 .001-1.212.034-1.24 13.252 2.447 33.55 3.08 57.275-1.927l1.218 2.569c-6.363-2.281-9.642.796-12.462 4.389-10.213-6.428-12.704-.789-17.764 1.428Zm19.871-93.64 6.028-.118c1.135 17.693 15.78 44.767 16.132 44.767-1.02-1.43-10.689-.302-10.617-.122-5.316-14.315-11.153-28.617-11.543-44.527Zm-35.153 41.974s-1.939-5.072-3.1-7.242c6.328-10.908 11.52-22.197 14.182-34.75l4.31.038c-1.277 17.331-15.02 43.653-15.392 41.954Zm77.538-2.32c9.493-17.29 7.855-42.212-19.077-55.985 0 0 .702-18.267 2.704-18.309.452.142 12.19-.152 12.19-.152 3.076-7.618 8.025-16.83 14.94-23.052l.173 20.42c-5.118.509-8.239 2.157-9.789 6.197l-7.09 1.594c.52 20.512 8.167 39.464 30.845 56.486-5.42 4.701-23.943 14.246-23.872 14.078l-1.024-1.278ZM41.092 174.24l.201-21.263c3.44-.75 6.15.256 8.99-5.966 0 0 4.765 2.284 6.348 3.125-4.454 8.045-8.3 16.641-15.54 24.104Zm45.15-37.646.234-10.794 10.153.295c-.862 3.66-1.131 7.32.02 10.981l-10.407-.482Zm23.164-.13c.694-3.533 1.189-7.085-.25-10.833l10.995.19-.26 10.75-10.485-.108Zm-20.908-21.109c-1.83-21.173-16.201-45.136-16.403-44.627 1.693.274 4.675 1.121 6.317.336 1.987.333 3.708.106 3.802-.08.132-.74 13.36 30.742 11.595 44.322-.211.46-4.88.49-5.311.049Zm25.411.186c1.552-9.781 5.557-27.673 15.015-42.182 1.076 2.576 1.978 5.225 3.453 7.633-7.132 10.474-11.526 22.445-14.192 34.665l-4.276-.116Zm-65.74-5.273c-4.328-8.912-22.331-22.942-21.41-21.524C34.21 82 42.523 77.717 50.819 73.39c0 0 1.475 1.413 1.252 1.77-5.1 8.114-7.574 25.308-2.635 35.162 4.745 10.526 13.164 16.748 21.747 21.633-.664 6.581-.989 11.338-2.592 17.88 0 0-5.393-2.863-9.813-4.706-.703-12.427-3.251-23.542-10.61-34.86Zm47.681-87.33c6.346 3.906 12.029 3.494 17.538-1.806 6.917 6.337 14.397 3.386 17.558.53 2.924 3.326 6.735 5.171 12.308 4.072l-1.38 2.925c.33-1.554-38.434-4.091-57.19 1.21 0 0-1.096-2.207-.974-2.226 1.632-.1 7.065 1.932 12.14-4.705Z" id="path4094-0-9-9" fill="#D40000"/><path d="m68.582 1.254 15.669 29.469s.459-.085.69-.13c21.717-4.286 38.918-4.873 57.392-1.592l16.424-27.435c-29.89-.344-90.175-.312-90.175-.312Zm1.747 1.255 87.132.097-4.9 8.116c-2.936-.914-4.572.445-4.983 3.284 0 0-.363-.158-1.043-.232-4.294-.469-4.836 5.245-.828 5.935 1.023.176 1.197-.029 1.197-.029-3.576 3.033-5.607.987-7.29-.014-.045.354-3.204 2.75-6.183-.117 4.266.43 4.93-3.886 2.89-5.528-.426-.424-.86-.755-.86-.755 1.003-.883 1.222-2.056.578-3.4-1.293-2.702-5.348-2.544-5.968.406-.24 1.148-.248 1.35-.248 1.35-3.275.216-3.94 3.337-2.815 5.069.64.984 2.047 1.198 3.346 1.132-1.751 2.504-5.758 1.652-7.543-.412-2.836 3.366-6.068 2.956-7.681 1.152 1.095-.012 1.85-.028 2.857-.968 1.72-1.606.875-4.455-1.555-5.253a4.033 4.033 0 0 0-.838-.188c.017-.025.063-.182.167-1.04.605-4.969-6.766-4.478-6.054.41.083.568.235.872.235.872s-.782-.045-1.23.164c-4.094 1.906-1.273 7.154 1.89 5.804.3-.128 1.117-.533 1.235-.527-3.918 4.906-7.207 1.429-8.074.895-2.646 3.964-7.242 1.26-7.337.982.287.08 1.148-.1 1.967-.523 2.59-1.363 1.857-4.87-.162-5.635-.62-.218-1.366-.24-2.207-.174 0 0 .064-.883-.019-1.194-1.273-4.778-7.156-2.393-5.71 1.644.128.354.47.711.47.711s-.798.49-1.154.813c-2.808 2.552.05 6.762 3.331 5.01.424-.225.834-.7.953-.671-1.544 2.848-3.886 3.843-7.227 1.484-2.06 3.3-5.422 1.929-6.37.276 3.14.29 5.18-5.79-.857-5.988-.47-1.651-.446-4.167-4.274-3.734L70.33 2.509Zm42.551 10.433c.692 0 1.25.569 1.25 1.267 0 .7-.558 1.268-1.25 1.268a1.262 1.262 0 0 1-1.254-1.268c0-.698.563-1.267 1.254-1.267Zm19.47.15c.732 0 1.325.604 1.325 1.345 0 .74-.593 1.34-1.325 1.34-.733 0-1.326-.6-1.326-1.34 0-.74.593-1.345 1.326-1.345Zm-38.163 1.466c.706 0 1.277.577 1.277 1.291s-.571 1.296-1.277 1.296a1.292 1.292 0 0 1-1.283-1.296c0-.714.576-1.291 1.283-1.291Zm54.67 1.591-1.111 1.993c-1.225-1.085-.38-2.508 1.11-1.993Zm-69.914 2.747-1.103-2.06c1.976.135 1.393 1.565 1.103 2.06Zm33.775-1.122c7.477 8.611 14.184 6.064 18.569.339 1.88 4.88 6.072 8.253 13.286 4.972-.437.78-1.532 2.158-1.532 2.158-6.374 1.735-9.538-1.297-11.998-4.184-6.485 5.44-12.592 4.122-17.631-.678-4.301 5.473-11.266 6.649-17.713 2.182-2.947 4.396-7.175 6.171-12.491 3.971 0 0-1.128-1.792-1.226-1.906.77.653 10.561 4.76 12.951-5.117 3.408 5.845 14.583 6.155 17.785-1.737Zm.751 3.54c8.412 7.95 17.239 1.076 17.464.591.132.442 4.933 6.235 11.855 4.058l-1.125 1.95c-13.025-2.228-25.006-3.658-52.444.42 0 0 4.38-1.31 6.595-4.841 1.233.809 10.752 6.179 17.655-2.177Zm-29.481 6.589s3.661.434 3.948.508c.321.252-3.083 1.196-3.096 1.127l-.852-1.635Zm7.423 37.926c-.222.007-.498.26-.957.716-.994.988-1.22 1.118-2.183 1.258-.727.105-2.261.998-3.192 1.857-.252.233-.732.426-1.307.527-.499.088-1.186.208-1.526.266-.34.06-.71.168-.824.237-.488.301-1.284.348-2.177.131-.861-.209-1-.203-1.948.092-1.382.43-2.287.43-2.967 0-.68-.43-1.76-.591-2.446-.368-1.013.331-3.638-1.257-3.632-2.196 0-.213-1.492-1.342-1.867-1.344-1.33-.2-13.02 4.465-12.96 4.735 14.353 17.917 26.436 45.215 17.334 78.62l-1.608-.779c1.351-6.072 1.887-12.183 2.302-18.39-26.941-11.755-29.26-39.092-18.804-56.35l-1.775-1.911c-6.337 3.417-12.776 5.358-28.438 18.637l.043 21.495c.039 19.432.029 38.367.029 38.367 5.668.634 11.91 1.152 18.067 1.688 0 0-.08 19.217-.22 26.734-.12 6.357.114 5.959.114 5.959l20.389 10.863c-1.433-5.722 2.103-7.995 5.063-7.757-1.309-5.517 1.94-8.042 5.647-7.334 2.505.479 3.382 1.874 4.815 6.487.233.749.553 1.752.553 1.752l1.43-.054c1.788-3.881 2.983-8.82 7.191-9.461 5.508-.839 7.559 2.986 7.556 6.81 5.337-4.753 11.73-1.074 11.314 6.026 2.685-1.745 7.235-3.322 10.102 3.405 1.078-.229 1.627-1.443 3.142-1.823.567-.12 1.852-.817 1.852-.817l.016-.233s1.192-.417 2.79-.681c1.37.517.97.499 1.709-.422.822-.426 2.157-.707 3.186-.614 1.08.098 1.56.177 2.192-.101.985-.435 1.906-.546 2.489.111.419.472 1.025.244 1.675.218 1.3-.053 3.034.487 3.575 1.669.797.82 2.541 1.654 2.541 1.654l1.412-.33.163-.526 11.548-4.455c-23.548-26.06-22.934-60.631-17.387-78.131l2.13 1.035c-1.13 5.186-2.412 10.513-2.245 18.245 21.206 9.555 31.756 34.254 18.9 55.813l1.359 1.775c5.348-2.269 18.801-9.902 23.451-14.051l.99.082s2.82-1.845 4.064-2.83l.167-57.21-.985.26-.177-3.342-17.483-1.403c.222-.168.39-.236.44-.57l-.1-31.673c-.65-1.003-15.293-9.672-20.738-11.7-.218-.001-.068.37.01 1.277.267 3.107-1.808 5.872-4.212 5.877-.865.002-1.014.373-.971 2.157.06 2.537-.846 4.24-3.49 5.204-3.132 1.143-5.253-.514-6.996-7.028-.458-1.71-1.354-1.283-2.211 1.055-.426 1.16-1.805 3.976-2.628 5.46-.634 1.141-1.637 1.648-3 2.255-1.064.531-3.365.439-4.69-.242-2.405-1.235-3.338-2.717-4.03-6.39-.092-.48-.403-.438-1.183.155-4.245 3.232-10.214-.11-10.18-5.698.01-1.64-.055-1.706-1.01-.919-2.878 2.376-6.79 1.17-8.355-2.573-.367-.877-.562-1.267-.847-1.258h-.001Zm-24.399 1.983c.3-.013 1.235 1.244 1.235 1.244.862.963 2.02 1.45 3.225 2.167.113-.17 14.055 18.74 16.426 44.814l6.485.034c-1.21-25.336-8.123-37.513-11.295-45.327l2.326-.745c5.216 10.1 11.573 30.598 11.362 48.543H86.065c-1.512-17.974-8.428-35.5-18.1-48.795-.674-1.021-1.201-1.733-1.006-1.915a.081.081 0 0 1 .053-.02Zm-4.102 2.675 1.087 3.444s.13-.803.464-1.107c2.116-1.928 4.142.61 3.188 4.053-.218 1.06-.642 3.149-.642 3.149s-2.126-1.103-3.197-1.456c-2.951-1.267-3.934-3.765-1.68-4.049a20.381 20.381 0 0 1 1.154-.082 320.881 320.881 0 0 1-3.006-2.447l2.633-1.505Zm9.907.387c.892.511 3.192 1.063 4.513.561 1.068-.405 1.881-.183 2.992-.087.637.055 1.904-.227 1.904-.227 6.342 13.482 10.703 29.479 11.43 44.108l-4.988.029c-1.882-15.541-7.834-31.329-15.386-43.04-.335-.51-.779-1.325-.465-1.344Zm20.834.232c1.93.024 3.95 1.969 5.049 5.152.611 1.772.85 1.665 1.67 1.378 2.106-.729 4.35 1.608 1.527 1.998-2.771.463-1.19 5.94-1.427 6.423-1.122.199-3.232-4.457-3.177-5.843.135-3.395-3.021-6.234-4.983-4.808-.929.677-.828 1.153-1.115.91-.882-.75-1.061-2.815-.029-3.986.747-.846 1.607-1.234 2.484-1.224Zm57.364 1.171s.109 4.465-.057 5.451c-.33 2.977-4.177 3.29-4.327.91-.628.95-1.06 2.134-1.311 3.197l-2.728-1.896c1.036-.752 2.024-1.411 2.79-2.341-2.023.154-3.153-1.615-1.8-3.12 1.503-1.725 5.66-1.91 7.433-2.201ZM50.71 73.689l1.206 1.374c-10.749 19.256-6.959 43.872 18.986 56.805-.172 5.908-.92 11.883-2.316 17.428l-9.572-4.692c.064-21.772-12.134-42.528-31.606-56.172C34.474 82.695 42.29 77.655 50.71 73.69Zm78.375.165c.456 2.542 2.838 7.146 3.01 6.883-.025-.151-9.912 12.799-14.21 34.458l-3.67.015c2.406-14.433 7.208-28.05 14.87-41.356Zm30.472.604 1.952 1.195c-10.245 8.67-16.992 19.66-21.948 31.513l-2.59-1.238c7.684-17.194 15.276-24.83 22.586-31.47Zm2.732 1.92c.536.035 1.172.721 2.159 1.268.964.535.724.819-1.091 2.225-2.147 1.663-2.35 1.59-2.331-.784.012-1.574.406-2.624 1.158-2.703a.617.617 0 0 1 .105-.005Zm-2.36 2.448c.114-.006.205.032.264.126.157.628.14 2.067-.11 3.487-.203.935-2.956 3.284-3.939 4.213-.393.262-.574.166-.646-.3.031-.737.102-1.719.115-2.718 0-.308-.06-.63.215-.866 1.35-1.61 3.314-3.9 4.102-3.942Zm5.117.764c.017.001.027.003.038.01.254.155.212 3.382.034 3.594-.799.209-2.947-.133-3.499-.43-.12-.375 2.912-3.194 3.427-3.173Zm-95.972 1.045.746 3.164s.214-.425.268-.508c1.484-2.293 3.289-.95 3.26 2.234-.01 1.006-.915 5.026-.915 5.026s-5.568-2.703-6.006-3.889c-.43-1.167.181-2.194 1.206-2.288.383-.044.785-.076 1.225 0l-2.393-2.472 2.609-1.267Zm63.758.421 2.527.943c-5.27 8.664-10.708 17.22-14.669 36.737H110.1c1.481-11.927 4.483-23.652 9.84-35.063 0 0 2.08-.646 3.254-1.03 0 0-8.754 20.243-9.773 33.258l5.116.112c2.73-12.683 7.84-25.828 14.296-34.957Zm-20.053.314c1.423-.053 2.473.958 2.393 2.753-.018 1.64-.167 1.88-1.316 1.223-1.51-.86-2.703-.88-4.054.097-.744.538-1.474.982-1.474.982s.652-2.85 1.651-3.749c.957-.86 1.946-1.273 2.8-1.306Zm-5.432 4.218c-.103.965-.384 1.407-.637 2.23 0 0 .83-.326 1.225-.513 1.883-.887 3.844.756 3.815 2.68.085 1.284-1.295 2.821-2.939 2.834-.573.005-1.18-.177-1.766-.619.425 2.352.51 3.44-1.191 4.62-1.424.957-4.424-.137-4.255-2.767l.105-1.62-1.44.188c-4.024.167-4.094-4.839-.848-5.625 1.297-.31 2.705.764 2.705.764-.617-1.227-.63-3.34.2-4.315 2.044-2.4 5.277-.218 5.026 2.143Zm35.133-3.124c.22 1.873.956 3.915.747 5.664-.314 2.234-2.193 3.557-3.67 2.109a14.809 14.809 0 0 1-.513-.552c-.666.853-1.082 3.265-1.082 3.265l-2.608-1.625s1.811-1.285 2.312-2.017c.14-.204.205-.59.205-.59-1.451.458-2.683-1.042-2.287-2.366.786-2.168 4.69-2.971 6.896-3.888Zm18.23 1.354c.976-.03 2.488.249 3.68.377.919.162.41.685-1.646 2.709-1.888 1.859-1.828 1.684-3.283 1.659-3.398-.058-3.993.02-2.015-2.138 1.036-1.13 1.941-2.151 2.685-2.53.158-.046.354-.07.579-.077Zm-6.126.392a.165.165 0 0 1 .11.048c.225.212.149 1.18.124 2.612-.026 1.524-.01 1.524-.64 2.322-.805 1.018-1.473 2.057-2.312 3.037-.727.798-.705.712-1.14-1.204-.421-1.858-.186-2.437 2.183-5.132.802-1.04 1.373-1.697 1.675-1.683Zm10.61 1.059.03 3.768c-7.011 6.928-11.775 14.72-15.014 23.31l-2.44-.983c4.228-10.973 10.558-19.53 17.425-26.095Zm-60.771 2.278a2.106 2.106 0 0 0-2.097 2.119c0 1.17.938 2.123 2.097 2.123 1.158 0 2.1-.952 2.1-2.123a2.11 2.11 0 0 0-2.1-2.119Zm-.014.668c.8 0 1.45.657 1.45 1.465a1.46 1.46 0 0 1-1.45 1.466c-.8 0-1.446-.657-1.446-1.466 0-.808.646-1.465 1.446-1.465Zm-77.887.895c21.869 14.18 31.674 36.16 31.63 55.044l-1.234-.561c-1.28-26.683-15.63-43.089-31.142-53.705l.746-.778Zm129.47.203c.494.002 1.168.08 2.143.193 1.81.098 2.033.213.785 1.66a39.746 39.746 0 0 0-1.46 1.847c-.462.623-1.025 1.274-1.282 1.364-.38.133-3.559-.019-4.465-.145-.297-.042.093-.348 1.641-2.583 1.187-1.713 1.313-2.28 2.436-2.332.064-.003.13-.005.201-.005Zm9.107.725s.434 12.163.12 19.919c-4.99-.187-7.919 1.727-9.137 5.35l-5.24-2.622c3.845-9.981 8.987-16.927 14.257-22.647Zm-15.44.28c.284.005.446.598.527 1.766.33 2.09.294 2.334-.57 3.676-.43.668-1.019 1.612-1.306 2.1-.5.85-.856 1.104-.981.691-.683-2.255-.898-3.651-.656-4.106.398-.748 2.26-3.42 2.522-3.768.182-.241.335-.36.464-.358Zm-124.745.228c17.579 11 30.439 29.785 30.97 52.48 0 0-3.746-1.776-6.059-3.075l-.12-2.206 1.22-.039.393 2.486 2.685-.087-.713-6.205-4.202.401-.847-3.516 1.273-.276.703 2.268 2.733-.73-1.455-5.529-4.22 1.166-1.35-3.734 1.402-.508 1.134 2.235 2.57-.905-2.426-5.543-3.882 1.853-1.972-3.618 1.518-.818 1.22 2.153 2.403-1.258-2.973-5.098-3.685 2.08-1.852-2.806 1.144-.807 1.263 1.475 2.111-1.51-3.235-4.396-3.527 2.79-2.609-3.051 1.201-1.03 1.795 1.625 2.005-1.77-3.843-4.238-3.36 3.096-2.502-2.196 1.225-1.369 1.56 1.204 1.66-1.988-4.182-3.482-3.135 3.134-3.005-2.007v-1.495c.975.38 2.008.824 2.933 1.32l1.556-2.38-4.49-3.06.967-1.036Zm48.956.938.665 3.88c.63-1.055 1.133-1.782 2.498-1.374 1.64.675 1.662 3.17.273 6.99-.258.707-.575 1.32-.575 1.32s-.718-.301-1.196-.634c-1.003-.693-2.692-1.478-3.556-2.854-.904-1.44-.924-3.456.737-3.284.33.002.981.16.981.16l-2.493-3.212 2.666-.992ZM23.949 92.64l3.043 1.984-.631 1.16-2.412-1.097V92.64Zm76.311.915c.882 1.246-2.221 4.918 1.838 6.384 0 0 .1.846-.747 1.36-1.986 1.46-4.838-1.205-3.953-3.947.566-1.754 2.202-3.787 2.862-3.797Zm8.423.116s1.224.904 1.47 1.141c2.26 2.19 2.281 5.33.234 6.429-1.362.73-2.902.141-3.436-.92-.248-.49.16-1.004.68-1 .975.005 1.719-1.883 1.43-3.87-.114-.788-.378-1.78-.378-1.78Zm26.668.73s.269 2.684.655 3.875c1.187 3.337-.329 5.369-2.546 4.251-.316-.16-.876-.885-.876-.885l-.22 3.836-3.154-.929c.683-1.108 1.664-1.897 2.398-3.144 0 0-.472-.017-.885-.02-1.884.066-2.58-2.044-.603-3.782 1.471-1.283 5.23-3.202 5.23-3.202Zm16.487.89c.382-.003.858.029 1.512.03 2 .001 2.514-.273 1.632.986a36.466 36.466 0 0 0-1.43 2.322c-.505.944-.606 1.24-1.446 1.426-1.216.244-2.596.076-3.987.14-.302-.014.32-1.061.666-1.712.849-1.594 1.367-2.688 2.096-3.023.286-.131.575-.166.957-.169Zm-6.183 1.234c.242-.013.42.424.65 1.33.537 2.112.676 2.165-.19 3.898l-1.49 2.97c-.785 1.573-.83 1.558-1.325.15-.95-2.7-1.033-2.422.536-5.456.98-1.895 1.465-2.874 1.819-2.892Zm-115.35.74 2.828 2.292-.804.789-1.565-1.166-2.312 2.5 3.8 3.503 3.216-3.202 2.757 2.911-.842.721-1.618-1.577-2.422 2.09 3.614 4.314 3.642-2.805 2.283 3.023-.934.59-1.488-1.46-2.369 1.659 2.948 4.198 3.714-2.152 2.11 3.506-1.172.571-1.196-1.925-2.666 1.553 2.517 4.91 4.01-1.694 1.614 3.749-1.226.503-1.029-2.254-2.699 1.079 1.81 5.156 4.067-1.18.986 3.83-1.254.353-.617-2.123-2.59.629 1.082 5.175 4.14-.266.493 4.184-1.287.058-.321-2.496-2.637.034c.014.88.115 2.675.115 2.675l-1.594-.745c-2.368-15.91-10.812-29.169-23.393-38.4l-.067-1.901 3.063 1.964s2.808-2.529 3.292-3.173Zm120.84 3.71c.877-.007.489.68-.58 2.737-1.192 2.295-1.404 2.342-3.637 2.893-2.716.67-2.637.819-1.168-2.346.566-1.22.98-2.289 1.498-2.694.68-.533 2-.329 3.431-.547a3.27 3.27 0 0 1 .455-.043Zm-127.048.677c13.066 8.519 21.325 26.14 22.35 36.823 0 0-.353-.24-1.067-.57-.99-.46-1.234-.76-1.522-2.216-2.588-13.063-9.885-24.15-19.704-31.977l-.057-2.06Zm117.825 2.181c.553-.116 1.56 3.894 1.258 4.736-.216.604-2.16-.823-2.866-1.127-.354-.152 1.234-3.53 1.608-3.609Zm-63.007.184-.062 4.16s.496-.595.751-.784c.972-.716 2.457.277 2.513 1.504.078 1.703-.177 2.395-1.527 4.76-.418.732-1.048 1.664-1.048 1.664s-1.594-1.148-3.336-2.902c-1.883-1.896-1.523-4.427.125-4.436.493-.004.932.166 1.364.305-.356-1.225-1.68-3.604-1.68-3.604l2.9-.667Zm51.07 3.115s.854 1.135 1.834 4.121c.935 2.851-.505 4.998-2.46 3.923-.35-.193-.718-.61-.718-.61-.137 1.383.106 3.87.139 3.89l-3.154-.557s1.732-2.78 1.857-3.468c0 0-.196.155-1.063.155-3.169-.002-2.512-3.812 1.149-5.926.55-.317 2.417-1.528 2.417-1.528Zm18.168.048c.686-.03.362.64-.397 2.206-.84 1.732-.63 1.581-2.403.668-2.48-1.225-2.334-1.416.809-2.274.993-.371 1.632-.583 1.991-.6Zm-44.978.508c2.484.015 4.316 2.492 3.948 6.013-.63 6.043-.268 5.67.383 6.273 1.186 1.099-.42 1.758-1.833.711-.984-.729-1.304-1.449-1.259-4.784.053-3.833-.151-4.809-1.507-4.474-.846.21-1.113.936-1.02 3.521.132 3.628-.106 4.542-1.469 5.703-1.47 1.15-3.056.125-1.713-.633.614-.698.73-1.586.493-3.778-.26-1.868-1.337-8.584 3.977-8.552Zm62.35 3.057c4.78.181 16.866 1.176 16.866 1.176l.106 3.608c-.54.336-9.56-1.054-16.196-.929-1.551.03-2.65.722-3.771.14 1.077.452.978 5.895-3.767 4.576-4.023-1.462-2.063-6.96 3.082-8.348a23.18 23.18 0 0 1 3.68-.223Zm-27.537 2.409 10.328 5.147c1.445 19.595 8.139 40.298 30.936 55.992-3.693 2.67-12.958 9.23-23.547 13.722l-.866-.938c12.572-21.608 3.074-45.393-18.943-56.157.06-5.997.805-11.914 2.092-17.766Zm36.33 3.284c1.98-.078 2.495.152 2.665 1.06.16.857.79 1.058 1.537.783 1.817-.67 2.927 2.589 1.421 4.034-.935.898-.771 1.243 0 1.248 1.898.012 1.843 2.523-.086 3.947-.8.59-.79.859.048 1.277 1.403.7 1.12 2.083-.66 3.221-.97.62-1.001.772-.201.992 2.014.554-.041 3.455-2.245 2.94-.904-.21-1.764-.013-2.628.557-2.36.994-2.755 1.19-5.302.87-2.237-.414-3.237-1.158-3.815-3.143-1.312-4.037-2.727-8.508-2.742-12.915-.198-2.705 4.29-5.152 6.415-5.258 1.73-.263 3.716.37 5.598.387h-.005Zm-141.267.068c2.374 0 4.298 1.945 4.298 4.344 0 2.398-1.924 4.343-4.298 4.343-2.373 0-4.297-1.945-4.297-4.343 0-2.4 1.924-4.344 4.297-4.344Zm47.764 1.277-.388 3.797s.632-.499.78-.624c1.118-.944 2.886.112 2.484 1.582-.13 1.295-2.344 5.146-3.225 5.954 0 0-3.55-3.908-3.93-4.673-.843-1.698.31-3.47 1.843-2.718.219.107.852.58.852.58l-1.125-3.603 2.709-.295Zm-47.476.305c-1.52.052-2.961.994-2.767 2.249.13.536.94-.238 1.738-.745a2.136 2.136 0 0 1 2.043-.145c.618.222.882.797 1.24 1.243.303.375.635.683.823.498.16-.199.095-.448.053-.672-.328-1.71-1.727-2.471-3.13-2.428Zm115.738.59 1.536.793c2.068 27.693 15.923 43.973 30.481 53.67l-1.158.707c-17.866-11.568-30.27-32.293-30.86-55.17Zm2.326 1.136s3.857 1.996 5.877 2.917l.077 2.506-1.35.048-.46-2.356-2.804.204.876 5.794 4.523-.56.631 3.501-1.531.324-.785-2.152-2.594.638 1.68 5.63 4.077-1.33 1.278 3.681-1.368.503-.876-2.157-2.685.948 2.077 5.495 4.245-1.379 1.713 3.44-1.287.575-1.23-2.133-2.546 1.315 2.986 5.132 3.834-2.031 1.79 2.742-1.407.953-1.278-1.678-2.063 1.374 3.302 4.556 3.303-2.5 2.47 2.877-1.092.977-1.685-1.726-1.995 1.799 3.934 4.363 3.417-3 2.426 2.284-.718.764-1.632-1.03-2.163 2.322 4.13 3.632 3.279-3.632 2.78 2.07v1.528l-2.484-1.272-1.665 2.535 4.15 3.173-.03 1.248c-23.687-14.283-29.92-36.435-31.127-52.912Zm-48.496.276c1.024-.031 2.105.942 3.89 3.033 4.992 5.844 3.66 14.884-2.866 19.6-.95.686-1.333.625-2.494-.383-6.693-5.812-7.08-13.585-1.12-20.412 1.03-1.18 1.793-1.813 2.59-1.838Zm23.925.803c1.23 1.907 2.785 3.87 2.962 6.187-.088 2.29-1.616 2.712-3.197 1.378-.2 1.203.479 3.546.479 3.546l-2.862-.31s1.122-1.982 1.168-3.221c-1.988 1.398-3.506-.426-3.236-1.897.568-2.501 2.603-4.189 4.686-5.683Zm-23.84 1.495c-.234.019-.478.18-.851.483-1.743 1.414-3.113 3.172-3.824 4.997-1.5 3.853-.521 8.195 2.862 11.565 1.719 1.712 2.324 1.594 4.958-1.944 2.207-2.965 2.666-6.793 1.307-10.12-.663-1.622-1.866-3.204-3.307-4.353-.554-.44-.843-.653-1.144-.628Zm55.058.71 2.22 1.104c2.834 18.885 12.017 30.407 22.308 38.352l-.019 1.75-2.761-2.161-3.308 3.497-2.68-2.22 1.005-.987 1.527.982 1.953-2.21-3.843-3.464-3.35 2.936-2.79-2.902.846-.716 1.93 1.703 2.158-1.935-3.733-4.233-3.341 2.56-2.33-3.126 1.014-.609 1.22 1.693 2.575-1.62-2.723-4.233-3.881 2.012-1.987-3.618 1.13-.546 1.287 2.031 2.417-1.175-2.431-4.992-3.968 1.326-1.46-3.928 1.135-.42 1 2.32 2.685-.87-1.823-5.374-4.102 1.17-1.014-3.95 1.268-.277.665 2.134 2.819-.571-1.034-5.118-4.197.537c-.14-.87-.759-3.211-.747-4.097l1.293-.106.406 2.254 2.824-.097-.163-2.805Zm-54.909.412c1.54.213 3.418 3.207 3.843 4.295.811 2.15.88 4.642.14 6.573-.606 1.58-2.417 4.381-3.566 5.171-.928.508-1.705.131-3.03-1.688-2.618-3.596-3.124-7.92-1.058-10.883 1.579-2.263 2.75-3.47 3.671-3.468Zm57.886.933 1.115.532c1.37 10.944 7.787 25.963 20.417 34.947v1.374c-9.823-7.125-18.84-19.414-21.532-36.853Zm-58.082.746c-4.398 3.35-3.695 8.596-.363 12.13 3.59-2.4 4.859-8.885.363-12.13Zm-67.123.222c2.482-.058 4.055.816 4.81 2.554 1.174 2.7 1.334 3.212 1.575 4.629.138.81.35 2.031.469 2.713 1.288 7.337.34 10.102-4.068 11.246-1.315.341-3.15.452-4.432.14-.336-.081-1.568-.089-2.536-.12-1.922-.063-2.51-.269-3.475-1.06-.348-.285-.683-.513-1.1-.58-2.2-.352-2.857-2.389-1.188-3.894.95-.858 1.046-.971.958-1.117-.05-.083-.456-.152-.905-.155-2.217-.014-2.194-2.32.038-3.966 1.061-.783 1.54-1.521.837-1.34-2.021.482-2.735-2.505-.621-3.431 1.125-.636 1.932-1.168.846-1.227-.91.08-1.653-.6-1.374-1.402.338-.97 2.188-1.855 3.255-1.525.834.259 1.647.495 2.168.116 1.265-.918 1.831-1.332 2.92-1.48a13.571 13.571 0 0 1 1.823-.101Zm73.737.56 10.194.2-.301 10.104-9.6-.184s2.104-4.514-.293-10.12Zm-22.843.233 9.763.121c-1.608 3.808-1.008 7.72-.416 9.925l-9.558-.15.211-9.896Zm16.306.015c2.623 1.544 3.345 7.17-.3 10.061-3.468-3.602-2.773-7.987.3-10.061Zm-24.088 4.391 2.618.247-.933 3.788s.421-.45.56-.494c3.363-1.596 3.604 2.021.182 5.287-.757.72-1.972 1.707-1.972 1.707s-.953-1.455-1.709-2.771c-.86-1.323-1.444-2.74-1.297-3.492.214-1.092 1.513-1.814 2.34-1.147.408.328.881.827.881.827l-.67-3.952Zm46.74 2.777s1.098 1.138 1.765 1.877c2.312 2.555 2.709 4.946 1.537 5.673-1.007.466-1.631.147-2.441-.517.168 1.584 1.413 3.922 1.383 3.927l-3.45.561s.851-3.173.78-4.372c0 0-.71.55-1.025.687-2.252.831-3.369-1.756-1.517-4.334 1.554-2.163 2.967-3.502 2.967-3.502Zm47.136 4.788c2.315 0 4.192 1.898 4.192 4.238 0 2.34-1.877 4.237-4.192 4.237-2.315 0-4.192-1.897-4.192-4.237s1.877-4.238 4.192-4.238Zm2.068 1.94c-.181.041-.329.462-.35 1.388-.209 1.901-1.773 2.666-3.484 1.785-.692-.356-1.28-.884-1.283-.479 0 .217.554 1.35.948 1.737 1.45 1.318 4.981 1.005 4.9-2.066-.037-1.445-.43-2.433-.731-2.365Zm-76.12 1.591a1.87 1.87 0 0 1 1.402.547c1.146.791 1.363 1.802 1.435 5.616.064 3.364 0 3.446.546 3.855 1.345 1 2.155-.524 1.77-3.933-.37-3.281.8-5.667 2.762-5.654.966.006 1.145.579.412 1.31-.774.773-.96 1.716-.718 3.614.622 4.863.084 7.25-1.938 8.237-2.11 1.03-4.823-.153-5.298-2.844-.305-1.795-.302-3.924-.091-5.93.038-2.11-.01-2.35-.737-3.56-.515-.812-.131-1.217.454-1.258Zm-53.048 1.577c1.166-.003 2.377.681 3.101 2.191 1.747 3.645-2.037 6.644-5.508 6.879-6.026.09-13.187-.788-19.235-1.601l.096-3.444c5.55.324 11.808.78 18.55 1.098-.767-3.203 1.053-5.118 2.996-5.123Zm31.693.706 3.355.75-2.135 3.526c.633-.277 1.07-.47 1.704-.237 1.366.499 1.385 2.249.383 3.884-.793 1.188-3.022 2.607-4.542 3.478-.855-1.854-2.742-5.1-1.991-6.873.398-.942 1.503-1.4 2.532-.885.34.206.99.541.99.541l-.296-4.184Zm7.93.097 10.223.121c-1.486 10.446-4.394 24.395-10.123 35.764l-2.407.63c5.052-11.298 8.413-21.894 9.984-33.738h-5.112c-2.94 12.712-7.29 24.493-13.98 34.729l-2.972-.977c7.147-11.453 12.812-24.234 14.387-36.529Zm23.317.184h11.395c2.096 21.27 9.207 35.785 19.79 50.145 0 0-.668.15-1.063-.02-1.097-1.384-2.102-2.23-3.747-2.655-8.894-12.942-14.862-31.036-16.3-44.877h-6.778c.772 17.384 5.537 31.638 11.879 45.443l-3.441.638c-5.093-12.354-10.676-23.105-11.735-48.674Zm17.732 2.626c.937.733 1.95 1.454 2.905 2.153 2.566 1.82 2.532 5.259.038 5.243-.265-.002-.88-.039-.88-.039s1.018 2.255 1.66 3.396c-1.04.28-3.211.692-3.211.692s.31-2.214.248-4.049c0 0-.416.47-.76.634-1.656.698-3.055-.76-2.848-2.486.279-2.329 2.847-5.544 2.847-5.544Zm-76.13.416 5.61 2.816c-3.823 8.793-8.2 17.026-14.53 23.285l.162-20.32c3.455-.102 7-.134 8.758-5.78Zm38.354.32h3.451C90.526 163.854 79.92 185.8 77.93 188.446l-.656.498c.04-.022-1.358-4.975-2.948-6.757 5.984-8.157 12.253-23.83 14.281-34.555Zm24.265 0h5.212c1.624 12.926 5.577 26.89 15.597 43.851 0 0-1.004.102-1.78-.367-1.708-1.07-2.894.347-3.914.291-1.596-.087-1.858-.183-3.504.212-8.269-17.626-10.615-31.5-11.61-43.987Zm-56.297 2.902 1.862.885c-4.003 9.357-7.589 16.793-17.071 25.921l-.034-2.718c6.661-6.52 11.15-15.115 15.243-24.088Zm2.71 1.306c.88.335 1.88.886 2.713 1.34.278.112.203.364.206.628-.353.89-1.906 1.279-2.494 1.452-.71.204-1.41.347-1.536.377-.812.192-.555-.63.325-2.428.396-.81.553-1.351.785-1.37Zm3.718 1.983c.557-.035 2.807 1.222 3.288 1.674.17.533-.314 1.373-1.025 2.926-1.092 2.388-1.31 2.441-1.636.479-.057-.338-.383-1.455-.58-2.196-.456-1.72-.5-2.71-.047-2.883Zm4.073 1.93s1.307.642 1.732.924c-5.84 17.675-21.39 32.284-21.307 31.948l-2.426-1.442c10.349-9.45 17.933-20.61 22-31.43Zm-6.174.251c.565.012.073.714-.69 2.414-.722 1.665-.96 2.255-1.636 2.52-.97.355-2.363.366-3.6.585-.528.093-.306-.316.508-1.988.956-1.961 1.01-2.369 2.508-2.776.866-.137 2.032-.762 2.91-.755Zm2.048 3.512c.602 2.189.59 2.62.187 3.381a85.545 85.545 0 0 1-2.015 3.54c-.68 1.127-.874.893-1.278-1.847-.25-1.7-.47-2.464-.284-3.203.339-.837 1.352-2.811 1.924-3.966.82-2.463 1.259 1.877 1.466 2.095Zm10.75-1.91 3.062 1.015-2.402 2.931s1.008-.183 1.124-.135c2.41.162 2.01 2.583.144 4.048-.773.716-4.585 2.467-4.585 2.467-.408-2.166-1.25-3.55-1.048-5.775.141-1.198.247-2.278 1.699-2.312.764-.041 1.073.748 1.57 1.383l.435-3.623Zm55.526 2.626s1.845.962 3.556 2.293c2.23 1.735 2.612 3.775.382 4.56-.257.092-.99.054-.99.054.614 1.08 2.072 2.69 2.072 2.69-.73.516-1.762.92-2.905 1.281 0 0-.283-2.69-.555-3.73 0 0-.295.588-.66.818-2.15 1.351-3.835-1.195-2.68-4.416.7-1.956 1.78-3.55 1.78-3.55Zm-23.619.45c5.365-.132 2.222 8.747-.46 8.174-.045-.08 2.215-5.252-.827-6.075-1.396-.378-.193-2.117 1.287-2.1Zm-8.796.629c1.666-.01 2.88 1.177 1.287 1.925-2.506 1.176-1.014 3.994-.957 5.591.035.977-2.232-.851-2.714-2.834-.622-2.564-.334-4.463 2.384-4.682Zm-39.68.933c.37-.002.647.028.741.102.157.418-.592 1.728-1.684 3.405-.582.892-.831 1.143-1.187 1.354-.845.48-2.032.355-3.02.426-1.474.019-1.215-.011.416-2.578.729-1.147 1.19-2.085 1.623-2.385.087-.056 2.001-.32 3.11-.324Zm1.933 1.853c0 3.211 1.08 4.263.287 5.277-.97 1.578-2.207 3.304-2.656 3.85-.757.92-.673.746-.871-1.66-.144-1.743-.3-2.909-.077-3.453.648-1.573 1.419-2.327 2.22-4 .63-1.348 1.097-1.123 1.097-.014Zm42.346 1.61c1.558.022 2.52 1.695 2.45 3.231l-.067 1.47c2.013-.78 4.513-.021 4.623 1.974.188 3.384-2.278 2.992-4.364 2.85.21.079.518 3.058-.723 4.198-1.947 2.203-5.579-.048-4.666-3.28.19-.671.23-1.093.23-1.093s-1.303.475-1.762.455c-3.95-.17-3.648-5.816.32-5.152.812.136 1.36.334 1.36.334s-.086-.356-.22-.86c-.577-2.174.635-4.157 2.819-4.127Zm79.02 1.006 2.13 1.239v2.399l-3.03-2.264.9-1.374ZM52.765 168.32c.839-.008 1.498.058 1.368.261 0 .429-1.838 3.01-2.924 4.19-.926 1.004-1.057.861-3.321.749-.889-.044-1.47-.051-1.446-.29 1.044-1.383 2.481-3.162 3.475-4.649.39-.12 1.769-.25 2.848-.26Zm2.072 1.127c.157-.002.205.341.2 1.089 0 .564.078 2.309.159 3.066.148 1.377.148 1.375-.436 2.196-.711.772-1.437 1.91-2.354 2.796-1.378 1.543-1.236 1.63-1.216-1.669.016-2.578-.176-2.577.34-3.183a32.907 32.907 0 0 0 1.737-2.263c.877-1.287 1.34-2.028 1.57-2.032Zm13.132.455 2.834 1.528-2.838 2.907s.71-.003.947.044c1.823.358 1.687 2.31-.148 3.768-1.127.72-4.997 2.143-4.997 2.143-.132-1.643-.476-3.153-.411-4.915.027-.812.1-1.696.718-2.399.426-.477 1.14-.754 2.14-.101.524.472.798 1.006.798 1.006l.957-3.981Zm33.435.992c-1.11 0-2.01.91-2.01 2.031 0 1.122.9 2.032 2.01 2.032 1.11 0 2.01-.91 2.01-2.032a2.02 2.02 0 0 0-2.01-2.031Zm31.673.478s3.71 1.409 5.38 2.956c1.56 1.315.826 3.481-.723 3.526-.113 0-.77-.097-.77-.097.524.807 2.282 2.786 2.282 2.786l-2.866 1.176s-.46-2.23-.814-3.483c-1 2.332-3.464.815-3.628-.638-.397-2.13.499-4.21 1.14-6.226Zm-31.673.18c.772 0 1.397.632 1.397 1.412 0 .78-.625 1.412-1.397 1.412a1.405 1.405 0 0 1-1.398-1.412c0-.78.626-1.413 1.398-1.413Zm-54.732 2.887c1-.009 2.246.037 2.805.073.425.33-.464 1.355-2.183 3.177-1.378 1.462-1.58 1.26-3.25 1.273-2.8.022-2.87.041-1.583-1.437 1.408-1.62 2.23-2.662 2.88-2.999.22-.057.732-.081 1.331-.087Zm3.413 1.422c.296-.06.215.704.167 2.433l-.081 2.931-2.178 2.119c-2.52 2.28-2.219 2.422-2.201.29.014-1.694 0-2.885.359-3.637 1.1-1.34 2.247-2.527 3.498-3.807.198-.197.337-.31.436-.329Zm55.358.73c.607-.05 2.154 2.625 2.542 4.866.884 5.12 3.918 7.546 6.054 5.49.868-1.208.966.11.924.74-.449 6.486-7.72 3.786-8.548-2.655-2.552 1.674-4.934-1.708-3.413-1.654 3.598-1.156 2.615-4.494 2.441-6.787Zm-8.423.049c.356 2.243-3.645 6.085-5.896 3.39-1.145-1.37-.102-4.198 1.354-2.457 1.61 1.204 3.17-.192 4.542-.933Zm-54.98 3.076c.822-.018 2.012.14 2.531.068.734.075.21.432-1.378 1.896-1.368 1.26-1.758 1.822-1.915 1.272-.076-.852-.043-1.865-.038-3.067.126-.118.426-.16.8-.169Zm18.655 1.49 2.44 1.8-2.421 2.253c2.172-.108 2.365 1.95 1.541 3.096-.534.804-2.593 1.65-4.652 1.988-1.24.203-2.25.353-2.25.353s-.046-.965-.08-2.568c-.071-3.28.15-4.57 1.397-5.21.893-.457 2.405.26 2.776 1.098.123.277.445.76.445.76l.804-3.57Zm-15.708.179c.01-.002.016 0 .02.005.137.188-.36 5.524-.36 5.524l-3.536-2.013s3.58-3.452 3.876-3.516Zm93.604.629c2.519 1.199 4.407.966 6.102 2.452 1.475.78 1.038 2.93-.038 3.41-.488.15-1.292.068-1.292.068.89 1.111 2.842 2.515 2.842 2.515l-3.1 1.31s-.425-2.113-.82-3.264c-.564 1.713-2.476 1.671-3.565.866-.771-.598-1.09-2.6-.723-4.334.097-.458.594-3.023.594-3.023Zm-16.564 49.67c-30.582 7.324-55.422 2.795-57.886 1.93l-1.948 2.936c-.238.5-.383 1.99-1.704 2.394l-1.981 2.99.387.416-1.756 1.548.426.517-1.278 1.877-.502-.053-2.958 4.542.45.507-6.792 10.743 91.876.03c-5.34-10.181-11.054-20.164-16.334-30.377Zm-.556 1.32.546 1.534c-1.52-.189-3.293-.282-5.097-.363a48.269 48.269 0 0 0 4.551-1.17Zm-5.336 1.336c-2.922 1.355-4.673 2.983-6.016 4.701-1.672-1.312-3.798-2.242-6.336-2.825l12.352-1.876Zm-51.63.745 1.301.15s-.436.342-.746.27c-.238-.054-.556-.42-.556-.42Zm58.527.764.828 1.654c-1.99-1.066-10.503-3.507-12.918 5.045-2.541-3.472-13.02-8.506-18.334 2.196-1.512-2.9-10.31-11.241-18.335-.61-3.163-6.607-5.806-7.16-11.611-6.258 4.126-4.008 9.931.163 12.39 3.574 6.924-5.803 12.714-4.059 17.77.663 6.527-7.182 13.035-5.451 17.613-1.848 3.216-4.782 6.358-6.225 12.597-4.416Zm-53.454.043c4.114.562 8.228.817 12.342 1.021-2.38.883-4.823 1.644-6.762 3.42-1.469-2.073-3.511-3.278-5.58-4.44Zm29.682.663c-2.246 1.069-4.665 2.675-6.605 4.363-2.093-1.723-4.248-3.212-6.595-3.961 4.306.213 9.077.022 13.2-.402Zm26.342 3.396s-.83.14-1.096.212c-3.633.976-2.842 6.149.895 6.148.355 0 1.24-.14 1.24-.14-.072 3.502.981 4.357 4.522 4.16l6.001 10.844-88.778-.387 5.637-9.113c2.836.336 4.618-1.258 3.987-3.69 0 0 1.746.538 2.235.541 3.21.02 4.039-4.957.962-5.818-.342-.096-1.201-.192-1.307-.223 1.408-3.552 5.273-1.455 6.38.02 2.492-2.071 5.247-1.144 6.428 1.538 0 0-.465-.262-.608-.368-2.919-2.158-5.634 2.312-2.776 4.373.281.202.876.377.876.377s-.348.287-.666.827c-1.483 2.522.906 5.593 3.791 4.803 2.215-.876 2.247-2.56 2.245-4.411 0 0 .765.06 1.45.067 2.657.032 3.42-3.408 1.792-5.007-.878-.864-2.028-.797-2.596-.908 3.064-3.04 5.14-.942 7.303.46.327-.009 3.752-4.166 7.825-.083-1.976-.523-4 .772-4.028 2.852.04 1.338.986 2.521 3.034 2.616-.22.671-.368 1.173-.38 1.826-.04 2.184 1.64 3.542 3.772 3.207 1.782-.23 3.099-2.289 2.465-4-.287-.772-.68-1.054-.68-1.054 4.799.606 4.715-5.537.984-5.91-.885-.087-1.566.3-2.458 1.126 2.194-4.535 6.207-3.625 7.71-1.77 2.061-1.514 4.904-3.581 8.304.101-.56-.12-1.35-.147-2.035.036-2.691.722-2.703 4.181-.57 5.234a4.46 4.46 0 0 0 2.13.438c-.71 2.906 2.484 4.983 4.744 3.59 1.62-.997 2.044-3.352.292-5.5 2.949-.134 3.24-3.85 1.536-5.152-1.336-1.022-2.909-.536-4.05.812-.366-1.066 2.55-4.775 6.668-2.104 2.18-1.848 4.345-2.416 6.82-.57Zm1.287 2.902 1.154 2.118c-.769.077-1.868-.754-1.154-2.118Zm-14.884 2.152c.721 0 1.306.591 1.306 1.32 0 .73-.585 1.321-1.306 1.321a1.314 1.314 0 0 1-1.307-1.32c0-.73.585-1.32 1.307-1.32Zm-53.885.078c.174.708.25 1.415-1.024 1.552l1.024-1.552Zm15.009 1.276c.66 0 1.196.542 1.196 1.21 0 .668-.535 1.209-1.196 1.209-.661 0-1.197-.541-1.197-1.21 0-.667.536-1.209 1.197-1.209Zm19.914.378c.7 0 1.268.574 1.268 1.282 0 .707-.568 1.281-1.268 1.281-.7 0-1.268-.574-1.268-1.281 0-.708.568-1.282 1.268-1.282Z" id="path4092-7-7-9" fill="#000"/><path d="M51.815 8.836C42.63 21.951 32.803 29.5 32.639 39.731c-.055 3.313 1.735 8.944 7.338 10.022 3.636.696 8.642-2.25 8.746-8.236-.016-1.192 1.26-1.16 1.249.472-.172 4.722-1.664 10.219-4.173 14.694H57.83c-2.509-4.475-4.001-9.972-4.173-14.694-.012-1.633 1.265-1.664 1.249-.472.104 5.986 5.11 8.932 8.745 8.236 5.604-1.078 7.393-6.71 7.339-10.022C70.827 29.499 61 21.95 51.815 8.836Z" id="path153-6-3-1-9-0-4-7" fill="#000"/><path d="M154.886 254.47c-9.185-13.115-19.013-20.662-19.176-30.894-.055-3.314 1.734-8.945 7.338-10.023 3.636-.696 8.641 2.25 8.746 8.236-.016 1.192 1.26 1.16 1.248-.472-.171-4.722-1.664-10.219-4.173-14.694h12.033c-2.51 4.475-4.002 9.972-4.173 14.694-.012 1.633 1.264 1.664 1.248.472.105-5.986 5.11-8.932 8.746-8.236 5.604 1.078 7.393 6.71 7.338 10.023-.163 10.232-9.99 17.779-19.175 30.894Z" id="path153-6-3-1-8-6-4-8-4" fill="#000"/></g></g></g></svg>