<svg width="227" height="315" xmlns="http://www.w3.org/2000/svg"><g id="Page-1" stroke="none" stroke-width="1" fill="none" fill-rule="evenodd"><g id="Spades" transform="translate(10 26)" fill="#000"><g id="3" transform="translate(0 9)"><path d="M9.956 17.403c-4.291 5.465-8.883 8.61-8.959 12.873-.026 1.38.81 3.727 3.429 4.176 1.698.29 4.037-.938 4.086-3.432-.01-.496.589-.483.583.197-.08 1.967-.777 4.258-1.95 6.122h5.622c-1.172-1.864-1.87-4.155-1.95-6.122-.01-.68.591-.693.584-.197.049 2.494 2.387 3.722 4.086 3.432 2.618-.45 3.454-2.796 3.429-4.176-.077-4.263-4.668-7.408-8.96-12.873Z" id="path6816-2-4"/><path d="M197.908 228.59c-4.291-5.464-8.883-8.609-8.959-12.872-.026-1.38.81-3.727 3.429-4.176 1.698-.29 4.037.937 4.086 3.431-.01.497.589.484.583-.196-.08-1.968-.777-4.258-1.95-6.123h5.622c-1.172 1.865-1.87 4.155-1.95 6.123-.01.68.591.693.584.196.049-2.494 2.387-3.721 4.086-3.431 2.618.449 3.454 2.795 3.429 4.176-.077 4.263-4.668 7.408-8.96 12.872Z" id="path6820-0-2"/><path d="M103.932.18C94.747 13.295 84.92 20.842 84.756 31.074c-.055 3.314 1.735 8.945 7.338 10.023 3.636.696 8.642-2.25 8.746-8.236-.016-1.192 1.26-1.16 1.249.472-.172 4.722-1.664 10.219-4.173 14.694h12.032c-2.509-4.475-4.001-9.972-4.173-14.694-.012-1.633 1.265-1.664 1.249-.472.104 5.986 5.11 8.932 8.746 8.236 5.603-1.078 7.392-6.71 7.338-10.023-.164-10.232-9.991-17.779-19.176-30.894Z" id="path6828-8-3"/><path d="M103.932 245.813c-9.185-13.115-19.012-20.662-19.176-30.894-.055-3.313 1.735-8.945 7.338-10.023 3.636-.696 8.642 2.25 8.746 8.237-.016 1.191 1.26 1.16 1.249-.473-.172-4.721-1.664-10.218-4.173-14.693h12.032c-2.509 4.475-4.001 9.972-4.173 14.693-.012 1.633 1.265 1.664 1.249.473.104-5.986 5.11-8.933 8.746-8.237 5.603 1.078 7.392 6.71 7.338 10.023-.164 10.232-9.991 17.78-19.176 30.894Z" id="path6842-0-7"/><path d="M103.932 99.074c-9.185 13.115-19.012 20.662-19.176 30.894-.055 3.313 1.735 8.944 7.338 10.022 3.636.696 8.642-2.25 8.746-8.236-.016-1.191 1.26-1.16 1.249.472-.172 4.722-1.664 10.22-4.173 14.694h12.032c-2.509-4.475-4.001-9.972-4.173-14.694-.012-1.633 1.265-1.663 1.249-.472.104 5.986 5.11 8.932 8.746 8.236 5.603-1.078 7.392-6.709 7.338-10.022-.164-10.232-9.991-17.78-19.176-30.894Z" id="path6844-7-0"/></g></g></g></svg>