<svg width="227" height="315" xmlns="http://www.w3.org/2000/svg"><g id="Page-1" stroke="none" stroke-width="1" fill="none" fill-rule="evenodd"><g id="Spades" transform="translate(10 26)" fill="#000"><g id="4" transform="translate(1 9)"><path d="M51.502.18c-9.185 13.115-19.013 20.662-19.176 30.894-.055 3.314 1.734 8.945 7.338 10.023 3.636.696 8.642-2.25 8.746-8.236-.016-1.192 1.26-1.16 1.248.472-.17 4.722-1.663 10.219-4.172 14.694h12.032c-2.509-4.475-4.002-9.972-4.173-14.694-.012-1.633 1.264-1.664 1.248-.472.105 5.986 5.11 8.932 8.746 8.236 5.604-1.078 7.393-6.71 7.339-10.023C70.514 20.842 60.687 13.295 51.502.18Z" id="path6882-1-0"/><path d="M9.062 17.403C4.77 22.868.179 26.013.102 30.276c-.026 1.38.81 3.727 3.429 4.176 1.699.29 4.037-.938 4.086-3.432-.01-.496.589-.483.583.197-.08 1.967-.777 4.258-1.95 6.122h5.622c-1.172-1.864-1.87-4.155-1.95-6.122-.01-.68.591-.693.584-.197.049 2.494 2.388 3.722 4.086 3.432 2.619-.45 3.454-2.796 3.429-4.176-.077-4.263-4.668-7.408-8.96-12.873Z" id="path6884-6-5"/><path d="M197.014 228.59c-4.292-5.464-8.883-8.609-8.96-12.872-.026-1.38.81-3.727 3.429-4.176 1.699-.29 4.037.937 4.086 3.431-.01.497.589.484.583-.196-.08-1.968-.777-4.258-1.95-6.123h5.622c-1.172 1.865-1.87 4.155-1.95 6.123-.01.68.591.693.584.196.049-2.494 2.388-3.721 4.086-3.431 2.619.449 3.454 2.795 3.429 4.176-.077 4.263-4.668 7.408-8.96 12.872Z" id="path6888-1-5"/><path d="M154.573.18c-9.185 13.115-19.013 20.662-19.176 30.894-.055 3.314 1.734 8.945 7.338 10.023 3.636.696 8.641-2.25 8.746-8.236-.016-1.192 1.26-1.16 1.248.472-.17 4.722-1.664 10.219-4.172 14.694h12.032c-2.51-4.475-4.002-9.972-4.173-14.694-.012-1.633 1.264-1.664 1.248-.472.105 5.986 5.11 8.932 8.746 8.236 5.604-1.078 7.393-6.71 7.338-10.023-.163-10.232-9.99-17.779-19.175-30.894Z" id="path6890-4-9"/><path d="M51.502 245.813c-9.185-13.115-19.013-20.662-19.176-30.894-.055-3.313 1.734-8.945 7.338-10.023 3.636-.696 8.642 2.25 8.746 8.237-.016 1.191 1.26 1.16 1.248-.473-.17-4.721-1.663-10.218-4.172-14.693h12.032c-2.509 4.475-4.002 9.972-4.173 14.693-.012 1.633 1.264 1.664 1.248.473.105-5.986 5.11-8.933 8.746-8.237 5.604 1.078 7.393 6.71 7.339 10.023-.164 10.232-9.991 17.78-19.176 30.894Z" id="path6902-7-5"/><path d="M154.573 245.813c-9.185-13.115-19.013-20.662-19.176-30.894-.055-3.313 1.734-8.945 7.338-10.023 3.636-.696 8.641 2.25 8.746 8.237-.016 1.191 1.26 1.16 1.248-.473-.17-4.721-1.664-10.218-4.172-14.693h12.032c-2.51 4.475-4.002 9.972-4.173 14.693-.012 1.633 1.264 1.664 1.248.473.105-5.986 5.11-8.933 8.746-8.237 5.604 1.078 7.393 6.71 7.338 10.023-.163 10.232-9.99 17.78-19.175 30.894Z" id="path6904-9-7"/></g></g></g></svg>