<svg width="227" height="315" xmlns="http://www.w3.org/2000/svg"><g id="Page-1" stroke="none" stroke-width="1" fill="none" fill-rule="evenodd"><g id="Spades" transform="translate(10 26)" fill="#000"><g id="5" transform="translate(1 9)"><path d="M154.678 197.964c-9.185 13.115-19.013 20.662-19.176 30.894-.055 3.313 1.734 8.945 7.338 10.022 3.636.697 8.642-2.25 8.746-8.236-.016-1.191 1.26-1.16 1.249.473-.172 4.721-1.664 10.218-4.173 14.693h12.032c-2.509-4.475-4.002-9.972-4.173-14.693-.012-1.633 1.264-1.664 1.248-.473.105 5.986 5.11 8.933 8.746 8.236 5.604-1.077 7.393-6.709 7.339-10.022-.164-10.232-9.991-17.78-19.176-30.894Z" id="path6950-9-9" transform="rotate(180 154.678 221.887)"/><path d="M197.118 208.651c-4.291 5.465-8.883 8.61-8.96 12.873-.025 1.38.811 3.726 3.43 4.176 1.698.29 4.037-.938 4.086-3.432-.01-.497.588-.484.583.197-.08 1.967-.778 4.257-1.95 6.122h5.622c-1.172-1.865-1.87-4.155-1.95-6.122-.01-.68.591-.694.584-.197.048 2.494 2.387 3.722 4.086 3.432 2.618-.45 3.454-2.796 3.428-4.176-.076-4.264-4.668-7.408-8.959-12.873Z" id="path6952-6-0" transform="rotate(180 197.118 218.619)"/><path d="M9.166 37.336C4.875 31.871.283 28.726.206 24.463c-.025-1.38.811-3.726 3.43-4.176 1.698-.29 4.037.938 4.086 3.432-.01.497.588.484.583-.197-.08-1.967-.778-4.257-1.95-6.122h5.622c-1.172 1.865-1.87 4.155-1.95 6.122-.01.68.591.694.584.197.048-2.494 2.387-3.722 4.086-3.432 2.618.45 3.454 2.796 3.428 4.176-.076 4.264-4.668 7.408-8.959 12.873Z" id="path6956-5-0" transform="rotate(180 9.166 27.368)"/><path d="M51.607 197.964c-9.185 13.115-19.012 20.662-19.176 30.894-.054 3.313 1.735 8.945 7.339 10.022 3.635.697 8.64-2.25 8.745-8.236-.016-1.191 1.26-1.16 1.249.473-.172 4.721-1.664 10.218-4.173 14.693h12.032c-2.509-4.475-4.001-9.972-4.173-14.693-.012-1.633 1.265-1.664 1.249-.473.104 5.986 5.11 8.933 8.746 8.236 5.603-1.077 7.393-6.709 7.338-10.022-.163-10.232-9.991-17.78-19.176-30.894Z" id="path6958-4-1" transform="rotate(180 51.607 221.887)"/><path d="M154.678 48.023c-9.185-13.115-19.013-20.662-19.176-30.894-.055-3.313 1.734-8.944 7.338-10.022 3.636-.696 8.642 2.25 8.746 8.236-.016 1.191 1.26 1.16 1.249-.472-.172-4.722-1.664-10.22-4.173-14.694h12.032c-2.509 4.475-4.002 9.972-4.173 14.694-.012 1.633 1.264 1.663 1.248.472.105-5.986 5.11-8.932 8.746-8.236 5.604 1.078 7.393 6.709 7.339 10.022-.164 10.232-9.991 17.78-19.176 30.894Z" id="path6970-5-5" transform="rotate(180 154.678 24.1)"/><path d="M51.607 48.023C42.422 34.908 32.595 27.361 32.431 17.13c-.054-3.313 1.735-8.944 7.339-10.022 3.635-.696 8.64 2.25 8.745 8.236-.016 1.191 1.26 1.16 1.249-.472C49.592 10.149 48.1 4.65 45.59.177h12.032c-2.509 4.475-4.001 9.972-4.173 14.694-.012 1.633 1.265 1.663 1.249.472.104-5.986 5.11-8.932 8.746-8.236 5.603 1.078 7.393 6.709 7.338 10.022-.163 10.232-9.991 17.78-19.176 30.894Z" id="path6972-5-8" transform="rotate(180 51.607 24.1)"/><path d="M103.142 99.07c-9.184 13.115-19.012 20.663-19.175 30.895-.055 3.313 1.734 8.944 7.338 10.022 3.636.696 8.641-2.25 8.746-8.236-.016-1.192 1.26-1.16 1.248.472-.171 4.722-1.664 10.219-4.173 14.694h12.032c-2.508-4.475-4.001-9.972-4.172-14.694-.012-1.633 1.264-1.664 1.248-.472.105 5.986 5.11 8.932 8.746 8.236 5.604-1.078 7.393-6.71 7.338-10.022-.163-10.232-9.99-17.78-19.176-30.895Z" id="path6980-6-3" transform="rotate(180 103.142 122.994)"/></g></g></g></svg>