<svg width="227" height="315" xmlns="http://www.w3.org/2000/svg"><g id="Page-1" stroke="none" stroke-width="1" fill="none" fill-rule="evenodd"><g id="Spades" transform="translate(10 26)" fill="#000"><g id="9" transform="translate(0 9)"><path d="M52.032.18C42.847 13.295 33.02 20.842 32.856 31.074c-.054 3.314 1.735 8.945 7.339 10.023 3.635.696 8.64-2.25 8.745-8.236-.015-1.192 1.26-1.16 1.249.472-.171 4.722-1.664 10.219-4.173 14.694h12.032c-2.509-4.475-4.001-9.972-4.173-14.694-.011-1.633 1.265-1.664 1.249-.472.104 5.986 5.11 8.932 8.746 8.236 5.604-1.078 7.393-6.71 7.338-10.023C71.045 20.842 61.217 13.295 52.032.18Z" id="path7225-5-2"/><path d="M9.592 17.403C5.3 22.868.709 26.013.632 30.276c-.025 1.38.81 3.727 3.43 4.176 1.698.29 4.037-.938 4.085-3.432-.01-.496.59-.483.584.197-.08 1.967-.778 4.258-1.95 6.122h5.622c-1.172-1.864-1.87-4.155-1.95-6.122-.01-.68.59-.693.583-.197.05 2.494 2.388 3.722 4.087 3.432 2.618-.45 3.454-2.796 3.428-4.176-.077-4.263-4.668-7.408-8.96-12.873Z" id="path7227-2-8"/><path d="M52.032 179.884c-9.185-13.115-19.012-20.662-19.176-30.894-.054-3.313 1.735-8.945 7.339-10.022 3.635-.696 8.64 2.25 8.745 8.236-.015 1.191 1.26 1.16 1.249-.473-.171-4.721-1.664-10.218-4.173-14.693h12.032c-2.509 4.475-4.001 9.972-4.173 14.693-.011 1.633 1.265 1.664 1.249.473.104-5.986 5.11-8.932 8.746-8.236 5.604 1.078 7.393 6.709 7.338 10.022-.163 10.232-9.991 17.78-19.176 30.894Z" id="path7229-4-8"/><path d="M197.544 228.59c-4.291-5.464-8.883-8.609-8.96-12.872-.025-1.38.81-3.727 3.43-4.176 1.698-.29 4.037.937 4.085 3.431-.01.497.59.484.584-.196-.08-1.968-.778-4.258-1.95-6.123h5.622c-1.172 1.865-1.87 4.155-1.95 6.123-.01.68.59.693.583.196.05-2.494 2.388-3.721 4.087-3.431 2.618.449 3.454 2.795 3.428 4.176-.077 4.263-4.668 7.408-8.96 12.872Z" id="path7231-7-8"/><path d="M155.103.18c-9.185 13.115-19.013 20.662-19.176 30.894-.055 3.314 1.735 8.945 7.338 10.023 3.636.696 8.642-2.25 8.746-8.236-.016-1.192 1.26-1.16 1.249.472-.172 4.722-1.664 10.219-4.173 14.694h12.032c-2.509-4.475-4.001-9.972-4.173-14.694-.012-1.633 1.265-1.664 1.249-.472.104 5.986 5.11 8.932 8.745 8.236 5.604-1.078 7.393-6.71 7.339-10.023-.164-10.232-9.991-17.779-19.176-30.894Z" id="path7233-8-9"/><path d="M52.032 66.11C42.847 79.223 33.02 86.77 32.856 97.002c-.054 3.314 1.735 8.945 7.339 10.023 3.635.696 8.64-2.25 8.745-8.236-.015-1.192 1.26-1.161 1.249.472-.171 4.722-1.664 10.219-4.173 14.694h12.032c-2.509-4.475-4.001-9.972-4.173-14.694-.011-1.633 1.265-1.664 1.249-.472.104 5.986 5.11 8.932 8.746 8.236 5.604-1.078 7.393-6.71 7.338-10.023-.163-10.232-9.991-17.779-19.176-30.894Z" id="path7235-9-4"/><path d="M155.103 66.11c-9.185 13.114-19.013 20.661-19.176 30.893-.055 3.314 1.735 8.945 7.338 10.023 3.636.696 8.642-2.25 8.746-8.236-.016-1.192 1.26-1.161 1.249.472-.172 4.722-1.664 10.219-4.173 14.694h12.032c-2.509-4.475-4.001-9.972-4.173-14.694-.012-1.633 1.265-1.664 1.249-.472.104 5.986 5.11 8.932 8.745 8.236 5.604-1.078 7.393-6.71 7.339-10.023-.164-10.232-9.991-17.779-19.176-30.894Z" id="path7241-7-2"/><path d="M52.032 245.813c-9.185-13.115-19.012-20.662-19.176-30.894-.054-3.313 1.735-8.945 7.339-10.023 3.635-.696 8.64 2.25 8.745 8.237-.015 1.191 1.26 1.16 1.249-.473-.171-4.721-1.664-10.218-4.173-14.693h12.032c-2.509 4.475-4.001 9.972-4.173 14.693-.011 1.633 1.265 1.664 1.249.473.104-5.986 5.11-8.933 8.746-8.237 5.604 1.078 7.393 6.71 7.338 10.023-.163 10.232-9.991 17.78-19.176 30.894Z" id="path7245-1-6"/><path d="M155.103 245.813c-9.185-13.115-19.013-20.662-19.176-30.894-.055-3.313 1.735-8.945 7.338-10.023 3.636-.696 8.642 2.25 8.746 8.237-.016 1.191 1.26 1.16 1.249-.473-.172-4.721-1.664-10.218-4.173-14.693h12.032c-2.509 4.475-4.001 9.972-4.173 14.693-.012 1.633 1.265 1.664 1.249.473.104-5.986 5.11-8.933 8.745-8.237 5.604 1.078 7.393 6.71 7.339 10.023-.164 10.232-9.991 17.78-19.176 30.894Z" id="path7247-0-6"/><path d="M155.103 179.884c-9.185-13.115-19.013-20.662-19.176-30.894-.055-3.313 1.735-8.944 7.338-10.022 3.636-.696 8.642 2.25 8.746 8.236-.016 1.191 1.26 1.16 1.249-.473-.172-4.721-1.664-10.218-4.173-14.693h12.032c-2.509 4.475-4.001 9.972-4.173 14.693-.012 1.633 1.265 1.664 1.249.473.104-5.986 5.11-8.932 8.745-8.236 5.604 1.078 7.393 6.709 7.339 10.022-.164 10.232-9.991 17.78-19.176 30.894Z" id="path7251-3-6"/><path d="M103.568 99.074c-9.185 13.115-19.013 20.662-19.176 30.894-.055 3.313 1.734 8.944 7.338 10.022 3.636.696 8.641-2.25 8.746-8.236-.016-1.191 1.26-1.16 1.248.472-.171 4.722-1.664 10.22-4.173 14.694h12.033c-2.51-4.475-4.002-9.972-4.173-14.694-.012-1.633 1.264-1.663 1.248-.472.105 5.986 5.11 8.932 8.746 8.236 5.604-1.078 7.393-6.709 7.338-10.022-.163-10.232-9.99-17.78-19.175-30.894Z" id="path7255-7-8"/></g></g></g></svg>