<svg width="227" height="315" xmlns="http://www.w3.org/2000/svg"><g id="Page-1" stroke="none" stroke-width="1" fill="none" fill-rule="evenodd"><g id="Hearts" transform="translate(9 25)" fill="#D40000"><g id="A" transform="translate(0 27)"><path d="M9.52 20.685s-2.215-3.18-5.202-6.917C2.319 11.266.72 8.558.573 6.224.403 3.558 2.015.884 4.935.754 7.853.626 9.038 2.81 9.52 4.612 10.002 2.81 11.187.625 14.105.755c2.92.13 4.533 2.803 4.363 5.469-.149 2.333-1.747 5.042-3.745 7.544-2.988 3.738-5.203 6.917-5.203 6.917Z" id="path9698-0-0"/><path d="M197.472 192s-2.215 3.18-5.202 6.918c-1.999 2.502-3.597 5.21-3.745 7.544-.17 2.665 1.442 5.34 4.362 5.469 2.918.13 4.103-2.055 4.585-3.856.482 1.8 1.667 3.985 4.585 3.856 2.92-.13 4.533-2.804 4.363-5.469-.149-2.333-1.747-5.042-3.745-7.544-2.988-3.738-5.203-6.918-5.203-6.918Z" id="path9700-3-2"/><path d="M104.496 130.266s-4.646-7.63-10.912-16.603c-4.192-6.004-7.544-12.505-7.856-18.105-.357-6.397 3.026-12.814 9.15-13.125 6.122-.311 8.606 4.932 9.618 9.255 1.011-4.323 3.496-9.566 9.617-9.255 6.125.31 9.508 6.728 9.15 13.125-.311 5.6-3.663 12.101-7.855 18.105-6.267 8.972-10.912 16.603-10.912 16.603Z" id="path9714-6-6"/></g></g></g></svg>