<svg width="227" height="315" xmlns="http://www.w3.org/2000/svg"><g id="Page-1" stroke="none" stroke-width="1" fill="none" fill-rule="evenodd"><g id="Hearts" transform="translate(9 25)" fill="#D40000"><g id="10" transform="translate(1 10)"><path d="M51.578 114.302s-4.646-7.631-10.912-16.603c-4.193-6.004-7.544-12.506-7.856-18.105-.357-6.397 3.026-12.815 9.15-13.126 6.122-.31 8.606 4.933 9.618 9.255 1.011-4.322 3.496-9.565 9.617-9.255 6.124.311 9.507 6.729 9.15 13.126-.312 5.6-3.663 12.1-7.855 18.105-6.267 8.972-10.912 16.603-10.912 16.603Z" id="path10308-5-1"/><path d="M9.137 37.685s-2.214-3.18-5.202-6.917C1.936 28.266.338 25.558.19 23.224c-.17-2.666 1.442-5.34 4.362-5.47 2.919-.129 4.103 2.056 4.585 3.857.483-1.801 1.667-3.986 4.585-3.856 2.92.13 4.533 2.803 4.363 5.469-.149 2.333-1.747 5.042-3.745 7.544a146.776 146.776 0 0 0-5.203 6.917Z" id="path10310-7-8"/><path d="M197.09 209s-2.215 3.18-5.203 6.918c-1.999 2.502-3.597 5.21-3.745 7.544-.17 2.665 1.442 5.34 4.362 5.469 2.919.13 4.103-2.055 4.585-3.856.483 1.8 1.667 3.985 4.585 3.856 2.92-.13 4.533-2.804 4.363-5.469-.149-2.333-1.747-5.042-3.745-7.544-2.988-3.738-5.203-6.918-5.203-6.918Z" id="path10312-3-5"/><path d="M103.113 90.877S98.467 83.246 92.2 74.274c-4.192-6.004-7.544-12.505-7.855-18.105-.358-6.397 3.025-12.814 9.15-13.125 6.121-.311 8.606 4.932 9.617 9.254 1.011-4.322 3.496-9.565 9.617-9.254 6.125.31 9.508 6.728 9.15 13.125-.311 5.6-3.663 12.1-7.855 18.105-6.266 8.972-10.912 16.603-10.912 16.603Z" id="path10314-8-8"/><path d="M51.578 48.373s-4.646-7.631-10.912-16.603c-4.193-6.004-7.544-12.505-7.856-18.105C32.453 7.268 35.836.85 41.96.54c6.122-.311 8.606 4.932 9.618 9.254C52.589 5.472 55.074.23 61.195.54c6.124.31 9.507 6.728 9.15 13.125-.312 5.6-3.663 12.1-7.855 18.105-6.267 8.972-10.912 16.603-10.912 16.603Z" id="path10318-3-7"/><path d="M154.648 114.302s-4.645-7.631-10.912-16.603c-4.192-6.004-7.543-12.506-7.855-18.105-.357-6.397 3.026-12.815 9.15-13.126 6.121-.31 8.606 4.933 9.617 9.255 1.012-4.322 3.496-9.565 9.617-9.255 6.125.311 9.508 6.729 9.15 13.126-.31 5.6-3.662 12.1-7.855 18.105-6.266 8.972-10.912 16.603-10.912 16.603Z" id="path10322-4-6"/><path d="M154.648 48.373s-4.645-7.631-10.912-16.603c-4.192-6.004-7.543-12.505-7.855-18.105-.357-6.397 3.026-12.814 9.15-13.125 6.121-.311 8.606 4.932 9.617 9.254C155.66 5.472 158.144.23 164.265.54c6.125.31 9.508 6.728 9.15 13.125-.31 5.6-3.662 12.1-7.855 18.105-6.266 8.972-10.912 16.603-10.912 16.603Z" id="path10324-9-8"/><path d="M103.113 155.809s-4.646 7.63-10.912 16.603c-4.192 6.004-7.544 12.505-7.855 18.105-.358 6.397 3.025 12.814 9.15 13.125 6.121.311 8.606-4.932 9.617-9.255 1.011 4.323 3.496 9.566 9.617 9.255 6.125-.31 9.508-6.728 9.15-13.125-.311-5.6-3.663-12.101-7.855-18.105-6.266-8.972-10.912-16.603-10.912-16.603Z" id="path10332-8-6"/><path d="M154.648 132.384s-4.645 7.631-10.912 16.603c-4.192 6.004-7.543 12.505-7.855 18.105-.357 6.397 3.026 12.814 9.15 13.125 6.121.311 8.606-4.932 9.617-9.255 1.012 4.323 3.496 9.566 9.617 9.255 6.125-.31 9.508-6.728 9.15-13.125-.31-5.6-3.662-12.101-7.855-18.105-6.266-8.972-10.912-16.603-10.912-16.603Z" id="path10334-5-0"/><path d="M51.578 132.384s-4.646 7.631-10.912 16.603c-4.193 6.004-7.544 12.505-7.856 18.105-.357 6.397 3.026 12.814 9.15 13.125 6.122.311 8.606-4.932 9.618-9.255 1.011 4.323 3.496 9.566 9.617 9.255 6.124-.31 9.507-6.728 9.15-13.125-.312-5.6-3.663-12.101-7.855-18.105-6.267-8.972-10.912-16.603-10.912-16.603Z" id="path10336-3-5"/><path d="M154.648 198.313s-4.645 7.63-10.912 16.603c-4.192 6.004-7.543 12.505-7.855 18.105-.357 6.397 3.026 12.814 9.15 13.125 6.121.311 8.606-4.932 9.617-9.255 1.012 4.323 3.496 9.566 9.617 9.255 6.125-.31 9.508-6.728 9.15-13.125-.31-5.6-3.662-12.101-7.855-18.105-6.266-8.972-10.912-16.603-10.912-16.603Z" id="path10338-2-9"/><path d="M51.578 198.313s-4.646 7.63-10.912 16.603c-4.193 6.004-7.544 12.505-7.856 18.105-.357 6.397 3.026 12.814 9.15 13.125 6.122.311 8.606-4.932 9.618-9.255 1.011 4.323 3.496 9.566 9.617 9.255 6.124-.31 9.507-6.728 9.15-13.125-.312-5.6-3.663-12.101-7.855-18.105-6.267-8.972-10.912-16.603-10.912-16.603Z" id="path10340-9-7"/></g></g></g></svg>