<svg width="227" height="315" xmlns="http://www.w3.org/2000/svg"><g id="Page-1" stroke="none" stroke-width="1" fill="none" fill-rule="evenodd"><g id="Hearts" transform="translate(9 25)"><g id="J"><path d="M9.918 47.189s-2.214-3.18-5.202-6.918c-1.999-2.502-3.597-5.21-3.745-7.544-.17-2.665 1.442-5.34 4.362-5.469 2.919-.13 4.103 2.055 4.585 3.856.483-1.8 1.667-3.985 4.585-3.856 2.92.13 4.533 2.804 4.363 5.469-.149 2.333-1.747 5.042-3.745 7.544a146.79 146.79 0 0 0-5.203 6.918Z" id="path10378-7-1" fill="#D40000"/><path d="M197.87 218.504s-2.215 3.18-5.202 6.918c-2 2.502-3.597 5.21-3.746 7.544-.17 2.665 1.443 5.339 4.363 5.469 2.918.129 4.103-2.056 4.585-3.857.482 1.801 1.667 3.986 4.585 3.857 2.92-.13 4.533-2.804 4.362-5.47-.148-2.333-1.746-5.041-3.745-7.543-2.987-3.738-5.202-6.918-5.202-6.918Z" id="path10380-5-9" fill="#D40000"/><path d="m183.367 13.703-11.46 7.493-.16 8.738c-6.795-3.27-9.75-8.628-10.819-14.903-1.922 2.432-1.54 14.71-1.54 14.71-1.747.909-2.386 2.095-3.502 3.162 1.097 1.816 4.2 4.907 4.2 4.907-.022-.055-1.423 12.784.271 13.295 1.55-5.472 3.611-10.246 11.203-15.252 0 0 .115 20.383-.372 40.075-3.211-2.218-10.003-6.201-14.39-10.276 5.689-7.36-.112-16.953-8.602-10.581-5.502-2.987-6.347-17.098-7.709-24.489-.261-1.482-1.542-5.83-1.542-5.83s-18.133-5.03-25.919-4.62c6.54 17.093 5.27 37.923-23.672 41.825-13.867 6.36-29.888 13.451-45.459 26.697-2.868 19.723-13.01 29.434-20.171 34.805.051 7.992-.053 15.904.275 23.971-.007.05 6.536-4.308 7.564-3.506 5.468 35.646 25.491 42.714 23.489 43.701-.323.16-6.562 6.592-6.562 6.592L24.052 178.07c-.838 24.646-.353 49.778 0 74.467 4.314-2.447 12.245-8.299 12.245-8.299l.12-8.385c-.036-.797 11.114 6.985 11.141 16.256.868.592 2.77-13.34 1.038-14.849l4.57-4.73-4.922-4.753s1.25-7.89-1.302-12.434c-1.653 10.404-10.264 13.648-10.264 13.648s-.167-38.03-.39-38.063l15.36 9.754c-8.318 11.363 6.323 15.05 8.037 9.522 9.446 8.83 5.81 19.385 9.941 31.911l26.806 4.933c-11.048-20.558.94-43.983 22.635-42.309 4.064-1.698 7.743-4.149 7.743-4.149s-2.698-4.422-6.104-8.525l-46.432-.77 21.645-40.705-14.236-.46s11.569-24.61 9.07-26.594c-.878-.696-.512-8.632-.512-8.632l12.716.475c.503-5.681-6.15-27.327-15.536-41.482l52.189.469-29.38 41.1 15.78.454-9.416 19.401 1.509 15.132-14 .454c2.413 20.978 17.95 43.08 23.41 49.906 9.03-2.147 25.887-15.087 36.348-23.133 1.356-14.078 6.188-26.061 18.822-35.001l.039-23.175s-7.21 4.67-7.209 4.347c.03-5.016-2.578-15.458-7.386-24.765-5.16-9.986-13.63-19.032-15.578-19.598 4.48-6.8 6.392-7.409 6.328-7.516l24.403 15.697.087-73.966ZM60.365 63.118s-4.747 1.812-8.871 1.755c-7.391.382-13.028.98-16.026 7.06-.609 1.851.726 2.533 1.707 3.018 5.572-6.938 20.377 2.226 23.19-11.833ZM27.557 94.957c0 .98 1.092 2.58 1.639.918.475-1.186.571-3.11.038-4.294-1.484-.838-1.66 2.416-1.677 3.376Zm80.036 33.57-7.218.034-.043 8.496 7.264-.004-.003-8.526Zm70.895 42.299c-.159.844-.937 4.64.824 3.98 2.079-1.605.309-8.985-.824-3.98Zm-6.794 21.33c-.852-1.246-3.49 1.85-5.653 1.967-9.615.516-16.7-.774-17.898 9.316 5.546-3.551 13.315-1.933 18.32-3.08 3.62-1.205 7.77-4.492 5.23-8.203Z" id="path2993-7-5-1" fill="#E2CF00"/><path d="M23.035 264.905 21.487 1.754 184.752.787 186.3 263.94l-163.265.966Zm6.468-170.587c.125-2.532-.92-3.574-1.81-1.828-.21.413-.883 4.816.778 4.953 1.09.09.978-2.038 1.032-3.125Zm-2.617 2.985c-.013-.597-.382-.854.4-6.06-1.555-.59-2.913-3.108-1.793-4.71.437-.626.308-.762.125-1.284-.453-1.29-.224-2.345.968-3.176.761-.531.794-.672.545-1.363-.642-1.783-.06-3.53 1.64-4.134 1.177-.419.95-.476 1.07-1.228.267-1.681 1.187-2.703 2.868-2.543 1.564.149 1.667.149 1.797-.618.358-2.12 2.905-4.45 6.24-6.042 1.655-.791 4.404-1.36 9.677-1.378 3.02-.07 6.783-.497 8.885-2.371.346-.329.825-1.19.995-1.074.395.27.312 2.38-.448 4.308-2.216 5.619-5.25 7.181-13.852 7.181-2.566-.107-6.342.263-7.934 1.909-.474.51-.79.99-.609 1.25 3.567.485 7.236 2.077 9.407 9.117 6.435-4.633 16.695-11.733 29.43-18.17-1.583-8.42 5.697-9.763 9.794-8.11 0 0 .1-.55-.061-1.188a6.594 6.594 0 0 0-1.15-2.473c-.192-.38-1.343-1.098-1.12-1.673.364-.94.198-1.198-.59-2.057-.512-.558-.181-1.76-.061-2.245.156-.905.74-2.196.214-2.679-.814-.746-3.578-2.002-5.004-3.004-1.576-1.136-1.613-2.166.666-5.944 1.034-2.196 2.01-4.553 2.836-6.13 1.25-2.386 1.372-3.955.598-5.314-1.011-1.775-.858-3.889-.834-3.835 0 0-9.519-13.204-13.44-18.477L23.79 4.05l.594 100.926 7.586-7.329-2.079-2.438c-.283 1.425-.01 2.815-1.759 2.906-.596.023-1.148-.223-1.246-.812Zm27.04 134.889c.228-4.007-1.722-10.552-4.628-15.076.145 3.448.417 7.664-.254 11.04l4.882 4.036Zm69.756 10.038c-.349-.11-3.248-.27-5.07-.357-6.038-.285-9.975-3.166-12.615-7.167-.649-.984-.382-.941 1.05.168 4.026 3.117 7.79 4.973 11.08 4.482 4.666-.695 7.195 1.007 6.56 3.011-.111.351-.15.134-1.005-.137Zm-15.866-8.84c-.939-.807-1.01-1.172.103-.438 3.402 2.242 7.516 5.912 12.56 3.718 1.045-.68.08-.586-1.674-.388-2.681.302-5.958-1.045-9.997-3.807-1.972-1.348-1.113-2.5 1.104-1.449.685.325 1.378.563 1.82.589 2.167-1.462 6.743-1.473 6.636-1.464.518-.452-1.195-1.157-3.745-2.106-1.655-.616-2.056-.87-.827-.926 1.074-.048 2.768.479 3.992 1.264 2.042 1.299 3.07 2.02 3.678 2.101.999.073 2.018.211.31 1.018-.777.367-.707.459-.613 1.335.148 1.369.23 1.353.864 2.123 1.07 1.169 1.546 3.352.022 1.993-.327-.15-.36.142-1.25.508-5.232 1.515-9.15-.777-12.983-4.071Zm9.676.333c.29-.387.723-1.376.781-1.652-.105-.638-.67-.435-.954-.073-.486.605-1.165 1.495-.6 1.793.267.142.527.26.773-.068Zm-1.792-.404 1.153-2.09c-.289-.132-4.23.708-3.608 1.273.55.5 2.455.817 2.455.817Zm4.401-7.014c-1.802-.953-2.339-3.029-1.004-4.417 1.122-1.166 3.036-1.08 5.334.32.808.494 1.304.743 1.855.536.921-.347 1.277.17 1.205.897-.157 1.599-2.636 2.005-4.212.19-2.083-2.398-4.323-.703-3.653 1.037.341.885.994 1.02 1.744 1.348 0 .175-.744.366-1.269.09Zm-8.256-10.692c2.973-.823 7.418 2.31 9.816 1.865 1.04-.229.902 1.275-.176 1.826-1.259.645-3.057.227-6.877-1.743-3.147-1.68-5.669 1.152-3.56 3.241.452.423 1.11.675 1.913.632 1.06-.056 1.374.233.009.593-.785.208-2.25-.104-2.96-.818-1.7-1.704-1.304-5.005 1.835-5.596Zm-63.067-8.852c-.11-3.55 1.77-5.533 1.818-5.548l-13.436-9.026.413 36.369c6.606-4.262 8.75-9.596 9.09-16.468 13.178 14.63 9.198 32.557 1.081 42.8-.372-6.237-2.273-13.6-9.854-17.334l.03 7.444-12.66 8.996.052 8.74 29.756-.176 14.147-21.413c-2.638-9.466-2.296-17.357-4.068-21.685-1.33-3.558-3.847-8.15-5.45-7.426-5.414 4.35-10.786-.657-10.92-5.273Zm11.286 4.13c4.655 3.32 5.924 8.784 6.903 13.642.032.04 2.53 16.47 2.608 16.69.316.9.218 1.8-.573 2.49-4.246 5.915-12.54 18.594-12.54 18.594l82.022-.002c-4.414-6.359-7.869-12.65-12.057-17.876.173-.28-.347-3.863-1.047-5.019-.72-1.19-.889-1.814-.412-2.91 1.184-2.697 2.397-5.62 3.492-8.096 2.094-4.743 2.336-4.784-.57-6.303-3.447-1.985-4.063-2.634-3.356-4.928.258-.835.29-1.168-.776-1.38a48.524 48.524 0 0 1-2.498-.597c-2.322-.72-1.648-.268-2.493.339-.644.324-1.207-.901-1.973-2.348-.88-1.662-1.1-1.7.345-.85 2.676 1.575 7.406.928 5.727-.903-.818-.893-1.575-1.35-1.501-3.383.073-2.019.1-2.61-1.267-2.883-2.736-.545-5.706-.293-8.246.359-7.73 1.984-13.901 8.756-16.227 13.775-.525.876.693.824 1.218.824 2.536-.241 4.36 3.803 2.71 5.631-.763.816-1.531.322-.718-.736.924-1.75-.483-4.047-2.522-3.448-2.567.754-2.62 4.089-2.925 6.414-.837 6.698 2.606 15.627 3.446 17.448 0 0 .183.27.121.27s-.467.38-.641.184c-.599-.674-2.133-6.14-2.971-10.048-1.643-10.81 1.089-20.775 10.03-26.48 7.917-5.799 11.928-4.584 16.44-4.877 1.538-.565 3.672-1.421 5.287-2.227 14.114-7.49 26.974-14.81 38.789-24.5 8.64-6.618 12.75-11.97 20.147-18.725l-.974-37.496s-.754-.62-.754-1.217c.473-2.513-3.893 1.697-6.702 3.116-1.875-17.194-11.25-34.058-22.552-43.884l.458-.636s3.776 2.468 5.66 3.642l-.014-2.4-4.545-2.817c-.207-.875-.095-1.01.894-1.02l3.644 2.662-.013-2.19-2.944-1.859.932-1.192 1.577 1.013c-.676-1.73.266-1.674 1.24-.53.406.523.93 1.195 1.153 1.832.085.243.34.84.34.84l2.583 1.904s-.104-.935-.015-1.222c.426-1.363 3.557 3.008 3.167 3.113l2.646 1.889c.618-.958 2.976.929 3.078 1.865.21.406 9.115 6.078 9.115 6.078l.078-3.163.949-1.254V13.059l-11.735 7.623-.077 8.843c-5.575-1.772-10.442-9.829-11.177-14.867-.364-.197-1.916 9.958-1.037 14.393-1.465 1.107-3.927 3.69-3.908 3.703l4.492 4.87s-.848 7.506-.618 11.23c.191 1.767.228 1.946.755 1.946.427 0 .809-.465.809-.87 1.022-4.467 4.424-11.448 10.367-13.854.394-.014.202 39.794.202 39.794l-14.843-10.028c-.74-.63.962-.6 1.981-3.975 2.628-8.705-6.683-11.72-10.242-6.668-.59 0-3.076-3.042-3.452-4.318-2.767-5.51-3.328-11.77-3.888-16.79-.334-2.282-1.192-6.022-1.898-8.273-.377-1.201-.42-2.07.372-3.197 3.393-7.121 9.982-12.045 12.446-19.23l-82.236.22c5.234 4.281 9.826 16.286 14.583 17.804-2.273.308-1.488 2.298-.592 4.438 1.1 2.63.984 3.176-1.739 8.624-3.991 7.988-4.213 7.29-.17 9.73 2.498 1.584 2.952 1.93 2.6 4.102-.354 2.172-.46 1.501 1.596 1.666 1.099.088 1.975.282 2.471.504.563.252.983.605 1.705.363 1.214-.407 1.245-.112 1.3.782.022.38.601 1.163.78 1.455.474.768.255.897-.606.36-2.654-1.655-7.071-.915-5.434.891.674.744 1.363 3.228 1.428 4.465.116 2.211 1.553 2.987 4.559 2.514 5.776-.466 18.764-7.738 21.752-15.837-6.66 2.319-5.337-5.905-2.957-5.66 0 0-.631 1.46-.647 2.292-.055 2.939 2.4 3.151 4.078 1.06.729-1.096 1.597-5.163 1.131-9.744-.564-5.547-2.843-11.744-3.258-13.282 9.678 22.794.973 32.894-12.4 39.531-5.124 2.182-5.828 2.173-8.854 2.333-2.07.18-3.933 1.223-5.917 1.89-11.443 5.562-25.505 12.496-38.059 22.79-9.012 6.78-16.166 12.868-23.268 20.678l.208 40.319c2.148-.348 5.624-2.468 7.684-3.689 2.455 15.045 10.279 32.438 23.128 42.791-.007-.004-.298.571-.305.567-1.829-1.203-3.656-2.4-5.426-3.319l-.081 1.92 4.321 2.942c.117.46-.731 1.109-.731 1.109l-3.567-2.44-.016 1.953 2.76 1.743c.748.742-.893 1.141-.893 1.141l-1.636-1.175s.122.949.074 1.117c-.417 1.445-2.789-1.727-3.223-3.313l-2.323-1.362c.334.938-.494 1.075-1.152.843-1.744-.874-1.656-2.36-2.024-3.24l-3.093-1.941c-.512 2.947-3.668-1.18-3.179-2.176l-3.966-2.674c.218.08-1.504.448-2.09.07-.675-.436-.922-2.232-.922-2.232l-2.377-1.457.015 2.575 24.465 16.92-.347.664-25.518-17.29 1.475 75.69 12.34-8.671c-.254-2.831.253-5.365 0-8.591 6.39 3.937 8.548 6.628 11.405 14.958 1.79-4.762 1.443-9.32.602-13.532 1.62-1.346 3.197-2.653 4.003-4.673-1.544-2.105-3.044-2.69-4.669-4.641-.14-2.39 1.214-9.52-.673-11.859 0 0-3.362 10.367-10.717 13.521-.289-10.923-.196-38.39-.196-38.39s7.61 5.202 11.486 7.31c1.822.962 3.091 1.565 3.12 2.257.013.352-.713.805-1.03 1.302-.198.31-1.02 3.27-.68 5.578.159 1.703.965 2.775 1.737 3.587 2.446 2.574 6.892 1.327 8.643-.68Zm14.554-19.42 28.908-41.07c3.556 15.03 9.49 28.778 17.201 41.227l-46.11-.157Zm14.16-43.072s2.01-4.056 2.93-6.207l-3.57.021 2.122-2.415 5.315-.031-2.808 6.094 2.256-.013 3.084-6.096 8.283-.05-2.862 6.095 1.908-.011 3.063-6.096 7.701-.046-2.673 6.094 1.805-.01 1.564-3.077.419 5.58-7.65.045 2.987-6.208-2.465.015-3.38 6.21-7.167.042 3.072-6.208-2.724.016-3.378 6.21-7.832.046Zm23.475-21.918 3.052-6.567-2.445.015-3.381 6.431-7.638.046 2.968-6.356-1.903.017c-1.278 2.006-3.313 6.078-3.313 6.078l-8.1.048s2.265-4.319 3.156-6.43l-1.998.012-1.612 2.611c-.578-.967-.216-3.55-.318-4.644l7.635-.045-3.03 6.302 2.436-.014 3.307-6.304 8.063-.048-3.247 6.304 1.909-.012 3.22-5.959 8.203-.048-2.84 5.957 2.534-.015-1.103 2.588-5.555.033Zm-7.614-11.366-1.544.301c-2.08-16.957-11.543-34.201-15.548-41.321l46.586.381-29.494 40.64Zm54.118-98.3s-4.408 5.756-4.649 15.37l4.212-3.414c-.326-9.752.437-11.955.437-11.955Zm-4.597 16.091c-.029 7.153 1.868 11.701 4.253 15.257.013-4.607.448-9.273.713-10.497l-4.966-4.76ZM39.64 170.428l-15.124-10.317.014 2.28 17.974 12.092-2.863-4.055Zm-2.746-5.57c-4.047-2.007-12.398-8.248-12.398-8.248l.012 2.081 13.29 9.249c.262.255.61.188.731-.1-.526-.879-1.16-2.075-1.635-2.981Zm-3.75-9.012-8.688-6.005.011 1.885c2.23 1.98 9.56 6.68 9.56 6.68l-.883-2.56Zm-8.696-7.382 8.17 5.23-.519-2.335-5.805-3.903-1.846 1.008ZM170.3 74.439l.215-37.61c-8.458 4.074-10.071 15.817-9.786 16.18-8.494-8.678-11.787-27.477-.02-40.201.915 4.053 1.248 9.939 9.657 15.27l.168-7.968 11.657-7.59-.056-9.407-28.212.167c-4.335 5.575-8.662 12.053-12.947 17.966-1.608 2.217-2.007 3.258-1.69 4.41 2.9 10.22 2.406 22.83 8.403 28.755 7.953-7.59 15.512 3.721 9.337 10.76L170.3 74.44ZM49.618 237.779c1.102 3.418.399 10.33.329 10.331 1.287-.711 4.74-10.736 3.84-14.49l-4.169 4.159ZM93.45 49.717c-1.994-.555-3.498-1.404-5.6-1.19-1.654.182-2.22-.364-1.216-1.274 1.314-1.13 2.591-1.6 5.045-.33 7.384 3.818 7.577-1.824 4.26-2.203-.941-.108-.9-.71.038-.563 5.144.175 3.617 7.018-2.527 5.56Zm-8.64-5.581c-.975-.35-2.154-.94-2.586-.82-1.091.3-1.132-.302-1.006-1.016.304-1.725 2.061-1.423 4.391.045 3.338 2.104 4.594-.956 1.559-2.586-1.022-.548-.708-.703-.113-.731 1.575-.075 3.072 2.069 2.664 3.831-1.043 2.83-3.623 1.739-4.908 1.277Zm9.713-5.271c-2.153-.362-5.287-3.245-6.734-3.435-.813-.088-1.768.017-2.03-.309-.8-.997 1.45-1.01 1.602-1.375 0-.845.05-1.374.014-1.663-.4-.537-1.978-2.687-1.93-3.733.037-.065.824.574 1.227.574 3.83-2.054 6.461-1.168 9.711.248 1.343.585 4.817 3.253 4.863 3.68.078.72-1.47-.624-2.678-1.426-2.978-2.05-5.654-3.505-9.37-2.257-.578.204-.477.31 1.429.182 1.863-.124 3.392.44 5.782 1.983.594.384 1.312 1.04 1.739 1.24 3.003 1.415 3.664 2.818 1.755 2.448-.408-.079-1.201-.5-1.98-.772-1.371-.477-.886-.333-2.2.29-.46.219-1.571.68-2.484.795-.7.12-2.972.116-1.962 1.072 1.073 1.065 2.847 1.844 4.065 2.325.878.386.203.305-.82.133Zm.228-4.665c1.4-.53.296-1.702-1.493-1.952-.41-.057-1.273 1.885-1.29 2.293-.012.304 2.016-.051 2.783-.34Zm-3.87.232c.321-.207 1.39-1.775 1.39-2.024 0-1.002-1.28-.716-1.569.33-.352 1.271-.378 2.053.18 1.694Zm-4.527-8.054c-1.156-.504-2.737-2.732-.942-2.365.387.087 2.399.18 3.697.178 4.42-.007 8.837 1.975 11.657 4.88 1.568 1.617 1.676 2.82.088 1.709-5.634-5.013-9.068-4.054-14.5-4.402Zm44.68 173.691-1.56.844c.01.87.32.733 1.017 1.345 0 0-.959.162-1.66.12-1.144-.07-1.406-.05-.896.754.236.372.559.92.559.92s-.62.138-1.553-.113c-1.416-.38-2.139-.18-1.6.604.149.217.435.624.435.624-1.033-.229-2.934-1.142-2.934-1.142l-1.334.415c2.697 5.208 12.161 1.858 9.526-4.37Zm46.209-7.727c1.458-1.243.737-2.751-1.41-3.848-.894-.456-.806-.463-2.246.397-1.775 1.06-1.9 1.114-.624 2.456 1.54 1.62 3.208 1.908 4.28.995Zm-5.462-3.456c1.345-.607.845-.503.745-1.916-.403-1.626.516-1.745.961-3.268.184-.832-.515-.521-1.87.758-1.118.953-1.45 1.186-1.45.725.125-.385-.779-1.367-1.585-1.497-.681-.109-.618-.266.042-1.133 1.145-1.504 1.609-3.395.825-5.055-.99-2.098-1.316-2.405-3.468-.555-1.102 1.029-2.662 1.824-3.41 3.093-.536.934-.217 1.833.65 3.658 2.163 4.552 5.476 6.584 8.56 5.19Zm7.576-.005c2.372-.948 1.398-3.516-2.332-6.088-2.249-1.55-2.884-1.53-.973.152 1.223 1.077 1.415 1.46.9 2.242-.432.653-.884 1.42-.449 2.012.686.933 1.854 2.082 2.854 1.682ZM45.5 185.393l-2.6-1.625.013 2.244 2.6 1.537-.013-2.156Zm129.502 1.262c.511-.366.947-1.386.947-1.837.11-1.045-1.583-.784-2.385.375-.903 1.304.18 2.36 1.438 1.462Zm5.78-3.568c1.174-1.247.592-2.565-1.842-4.126-.94-.61-1.419-1.008-1.297.21.038.372-.366.867-.626 1.162-.834.948-.46 1.115 1.944 2.623 1.223.768 1.16.835 1.821.131Zm-135.304-1.585-2.6-1.553.011 2.036 2.602 1.739-.013-2.222Zm-5.653 2.067.022-2.043-3.37-2.218-.035 2.277 3.383 1.984Zm132.003-1.607c-.426 1.172 1.31.632 1.41.512.298-.593.031-.647-.117-.709-.307-.127-1.49.084-1.293.197Zm.75-1.481c.595-.196.666-.122.576-1.2-.134-1.628.109-1.76 1.183-2.482.859-.578.866-.492.846-1.49-.024-1.206.055-1.725 1.635-1.98.646-.105 1.015-.266 1.066-.778.085-.861-1.303-2.307-3.023-3.135-.253 0-4.068 3.368-5.132 4.531l-.65.71.791 1.466c1.234 2.285 1.039 3.13.34 6.175-.143.815.483.693.64-.287.21-.916.334-1.25 1.728-1.53Zm5.796-8.147c-.285 1.85.676 2.98 1.571 2.057.487-.503.875-4.583.53-5.228-1.861-1.975-2.031 2.727-2.101 3.171Zm-29.612 30.76c6.852-4.079 15.71-.83 20.668-4.172 2.307-2.58 4.632-4.23 3.305-5.993-1.033-1.372-1.7-1.58-1.7-1.58.073.098-3.61 3.247-8.983 2.555-8.952-.256-13.166 2.588-13.29 9.19Zm11.694-9.684c4.38.126 7.935-.658 9.556-1.941 1.006-.797 1.158-.937-.427-1.056-3.403-.255-6.87-4.19-7.971-8.02-.224-.787-.489-1.642-.489-1.642-9.018 7.307-28.895 18.85-28.895 18.85 1.36 6.168-3.079 9.877-9.133 7.72-1.051-.089-.907 1.267-.705 1.823.335.911 1.07 1.672 1.213 1.794.903.767 1.074 1.277.943 2.018-.13.732-.116.707.396.978.91.482.868 1.177.38 2.613-.52 2.018-.554 2.526.895 3.477 1.866 1.186 5.522 2.475 4.994 4.28-1.197 4.09-3.18 7.616-4.92 11.447-.648 1.061-.497 2.807.023 3.619.647 1.245.582 2.739 1.417 3.88 4.62 6.793 8.599 12.667 12.808 18.802l43.116-.255-.59-100.48s-7.235 6.69-7.211 7.16c.028.56 1.589 1.425 2.258 1.532.026-.303-.013-1.5.07-1.92.059-.608 2.003-.462 2.649.063.452.368.328 2.786-.116 4.756-.363 1.612-.311 1.633.382 2.56.846 1.128 1.142 2.088 1.039 3.369-.056.702-.047 1.256.154 1.72.472 1.089.344 2.627-.165 3.345-.738 1.043-.749 1.2-.584 1.754.622 1.92.403 3.558-1.73 4.403-.272.109-.569.585-.741.995-.914 3.082-2.663 3.088-5.06 2.217-1.653 6.628-8.529 8.332-13.49 8.165-5.168-.173-10.421.246-12.74 3.65.5-8.033 4.06-11.926 12.674-11.676Zm15.516-13.427c.876-.334.98-1.253.238-1.838-1.138-.898-2.434.03-1.894 1.336.302.732.804.827 1.656.502Zm-136.036-2.11-3.456-2.371.033 2.142 3.443 2.188-.02-1.959Zm6.502 1.72-2.453-2.914c-7.204-4.361-13.456-9.25-19.449-13.18l-.03 2.715 1.713.853s.14-.597.256-.943c.215-.648 2.2 1.162 2.837 2.617.159.362.504 1.172.504 1.172l2.308 1.26s.03-.655.03-.837c0-1.39 2.472.508 3.608 2.773.275.549.635 1.13.635 1.13l2.172 1.307c.848-1.176 3.034.413 3.6 1.832.716 1.8 1.96 1.948 2.01 1.954l2.259.262Zm-12.96-.317-.008-2.08-3.602-2.346-.033 2.11 3.643 2.316Zm147.707-.704c.09-.547-.459-2.668-1.265-2.782-.504-.071-1.287.698-1.287 1.232 0 .694 2.454 2.142 2.552 1.55Zm-2.933-2.507c.778-.863-.217-1.976-1.413-1.58-1.42.47-.92 1.76.673 1.778.355.004.569-.008.74-.198Zm-144.983-.672.002-1.984-3.327-2.177-.058 1.94 3.383 2.22Zm-6.522-.662.022-1.908-2.187-1.51.014 2.286 2.151 1.132Zm.045-5.72-2.232-1.44.012 2.07 2.332 1.319-.112-1.948Zm8.997-6.347c-.234-.61-1.185-2.539-1.185-2.539l-10.129-7.003.013 2.174 11.33 7.546-.029-.178Zm-4.82-16.754-.123-.884-.896.486 1.02.398Zm-2.136.233-1.406.774 4.279 2.755-.355-1.975-2.518-1.554Zm147.86-24.3 1.094-.806-1.95-1.307-.137 1.339.992.773Zm1.959-1.282 1.436-1.205-4.85-3.386.355 2.122 3.059 2.469Zm3.412-1.808-.008-1.46-7.864-5.258.557 2.664c1.385.792 3.08 1.951 4.85 3.184 1.123.785 1.129 1.09 2.465.87Zm-.016-2.703-.013-2.315-9.097-5.98.752 2.712 8.358 5.583Zm-.02-3.476-.01-2.428-11.011-7.203 1.22 3.203 9.8 6.428Zm-.036-6.097-13.881-9.199 1.79 3.547 12.105 8.01-.014-2.358Zm-.02-3.545L164.55 91.457l1.968 3.229 15.466 10.355-.013-2.11Zm-.023-3.765-.65.002c-.041 1.66-1.84.467-2.525-1.354-.517-1.219-.632-1.526-.632-1.526l-3.508-2.348.286 1.855-2.363-1.428s-.693-2.278-.715-2.293l-4.038-2.717c.088.466.16 1.236-.101 1.29 0 0-1.226-.516-1.79-1.33-.587-.845-.68-1.699-.68-1.699l-3.295-2.11-.816.092s-.444-.298-.862-.633c-.787-1.392-1.7-1.597-2.791-2.158 0 0 2.325 2.69 3.569 4.28 1.142 1.47 2.523 2.514 2.523 2.514l18.403 12.158-.015-2.595Zm-.022-3.784-1.422-.845.117 2.24 1.318.887-.013-2.282ZM38.987 91.3c.086-.141-.277-.3-.68-1.177-1-2.17-1.101-2.928-.587-5.217.245-1.092-.746-1.554-1.193-.388-.348.907-.894 1.42-1.42 1.356-.496-.06-.6.15-.38.835.268.95-.296 2.19-1.089 2.533-.801.211-.944.722-.715 1.46.382 1.223-.931 2.268-1.968 2.215-1.602-.082-.965 1.377.973 2.758.718.512 1.04.789 1.6.525 1.452-1.393 4.158-3.39 5.46-4.9Zm139.004 3.666-.093-2.135-4.044-2.705.513 2.854 3.624 1.986Zm3.928-.919-.013-2.152-1.664-1.058.098 2.286 1.579.924ZM30.255 91.613c.388.389.772.422 1.383.049.705-.375.43-.933-.31-1.294-.694-.36-1.655.755-1.073 1.245Zm-1.208-.937c-.057-.45.486-1.06.864-1.084.828-.055.679-.497-.27-1.066-.446-.267-1.237-.892-1.525-1.1-1.422-1.022-2.78.577-1.72 1.915.886 1.12 2.188 1.78 2.65 1.335Zm148.524.455-.327-2.375-3.653-2.404.303 2.615 3.677 2.164ZM45.265 86.12c.196-.331.254-.646.232-1.044-.083-1.494-.862-3.248-1.949-4.712-.808-1.09-1.786-2.019-2.775-2.563-2.792-1.419-6.502-.779-5.95 1.067.391 1.247.308 2.294-.758 2.928-.724.432-.813 1.008-.044 1.005.558-.003 2.035-.525 2.647-1.503.862-1.38 1.355-2.182 1.173.062-.076.94.04.869 1.49.785 1.966-.113 1.604.258.46 1.154-1.667 1.304-1.986 3.495-1.13 5.352.53 1.148.895 1.76 1.575 1.6 1.467-.978 3.859-2.941 5.029-4.13Zm125.861 2.028-3.595-2.343.156 2.53 3.88 2.266-.44-2.453Zm-137.458-1.5c-1.323-1.654-2.85.478-1.85 1.4.727.633 2.548-.03 1.85-1.4Zm-3.102.25c-.167-.517.777-1.354.925-1.686.428-.965-3.474-3.62-4.674-2.026-.826 1.099-.242 2.19 2.013 3.673 1.36.895 2.01.89 1.736.039Zm140.19-2.433-3.323-2.049.07 2.185 3.529 2.105-.276-2.241Zm-5.825 1.989-.013-2.231-3.348-2.313-.04 2.31 3.401 2.234ZM35.26 84.585c.602-.604.396-.797-.774-.73-.739.042-.966-.08-1.014.26-.106.753 1.17 1.09 1.788.47Zm-2.78-.827c.06-.156-.361-.458-1.047-1.028-1.31-1.088-1.461-1.769-.213-2.63 1.779-1.228-.104-2.949-2.173-2.233-1.672.579-1.667 2.27-.666 3.353 1.37.903 3.86 3.517 4.099 2.538Zm132.419-3.015-3.293-2.235.013 2.196 3.29 1.9-.01-1.86Zm-131.814.925c1.456-.756 1.524-2.629.065-1.935-.602.287-1.388 1.058-1.388 1.405 0 .675.58.915 1.323.53Zm1.047-4.306c1.888-1.032 1.593-1.978-.301-3.152-2.31-1.31-3.908 1.238-2.001 2.954.998.899 1.228.786 2.302.198Zm2.445-1.855c3.059-3.335 5.1-3.178 9.165-3.113 10.483.033 13.667-5.012 13.314-8.533-5.08 2.567-9.634 1.232-14.479 1.995-8.355 1.923-9.313 5.875-9.883 8.137l1.883 1.514Zm41.958-11.548c2.702.008 2.581.092 1.457-2.13 2.632.346 3.7 1.604 2.816-1.016 1.398.49 2.236.87 3.68 1.336l.91-.537c-5.595-5.397-11.739-.76-10.08 4.71l2.06-1.004-.843-1.359Z" id="path3504-0-2-5" fill="#131F67" transform="rotate(.338 103.894 132.846)"/><path d="m93.28 262.396 1.257-6.296 11.55.495s1.365 3.94 1.918 5.714l-14.725.087Zm-26.668.005 6.067-10.185 8.714 2.316-1.955 7.946-12.826-.077Zm16.924.052 2.572-10.849c-4.984-1.07-9.683-1.764-15.184-3.219L62.09 262.57l-5.365-.112c4.585-6.204 12.953-18.727 12.953-18.727 19.402 6.567 38.929 7.579 58.56 3.933 0 0 7.298 9.538 9.924 14.718l-5.108-.22-6.407-10.62c-4.415.507-8.757 1.123-13.365 1.343l3.211 9.374-5.07.03-2.932-9.35c-5.53-.18-10.175.28-16.807-.721l-2.277 10.197-5.871.04Zm36.54-.212-1.786-6.652 6.228-.767s2.92 5.063 4.516 7.362l-8.959.057Zm-56.29-61.568c7.682-11.862 34.801-49.905 34.801-49.905l4.018.14s-24.286 34.353-35.993 51.673l-2.825-1.908Zm-39.634-18.148 9.586 6.837.384 53.673-9.66 6.905-.31-67.415Zm39.11-88.044 5.844 11.307c-24.412 23.476-19.435 50.825-6.168 70.275 0 0-1.675 4.378-5.353 9.04-17.864-11.665-23.457-42.223-23.323-42.551 19.507-17.66 22.118-23.262 29-48.071ZM164.072 177.5c1.166-17.28 9.522-28.62 18.92-35.575l.586 17.567c-6.143 5.984-12.64 12.164-19.506 18.008Zm-25.736-17.247c21.382-20.267 21.947-48.873 6.16-69.774l6.357-9.017c9.143 9.7 18.113 19.868 22.045 43.599-13.553 10.845-25.48 28.704-28.574 46.678l-5.988-11.486Zm-29.764-23.258-.088-8.23 8.041-.088-.18 8.219-7.773.1Zm-17 .037-.164-8.202 7.95.01-.074 8.316-7.713-.124Zm13.638-22.044s26.43-37.573 36.81-51.14l2.231 1.627-35.149 49.699-3.892-.186Zm-62.4-25.796c.06 14.762-9.304 26.515-18.896 34.204l.033-16.807 18.863-17.397Zm139.596-72.064.441 65.522-9.038-5.386.44-54.952 8.157-5.184Zm-42.903 4.134c-20.361-5.181-38.892-6.658-58.338-2.358-2.556-3.02-11.157-15.613-11.157-15.613l4.922.043 7.032 11.143 13.26-1.818-3.47-9.077 5.472-.009 2.779 8.906c-.029-.07 10.797.043 16.817.722.937-3.318 2.677-9.912 2.677-9.912l6.027-.04c-.755 3.169-2.79 10.707-2.79 10.707 4.94.66 14.11 2.94 14.194 3.04 3.186-4.572 6.145-9.145 9.024-13.716l5.873-.063c-1.712 2.95-11.996 18.19-12.322 18.045Zm-3.798-7.832-8.994-2.047 2.3-7.953 12.553-.082-5.859 10.082Zm-51.592-2.566-4.22-7.344 8.036-.048 2.7 6.474-6.516.918Zm18.232-1.61-1.251-5.86 14.593-.086-1.455 6.259-11.887-.312Z" id="path3502-5-8-1" fill="#D40000" transform="rotate(.338 103.747 132.893)"/><path d="m69.708 2.887 12.978 18.788c.06-.06 7.274-1.442 14.364-1.79 7.048-.347 15.45.095 15.522.31 0 0 2.22 6.717 2.971 10.016.993 4.406.889 9.477-.159 12.842-1.535 4.931-2.346 6.411-5.775 9.798-2.544 2.473-6.139 5.164-9.846 6.602-5.137 2.151-5.66 2.14-8.687 2.28-2.001.095-2.204.173-3.3.743-.337.118-.557.471-.858.573-.254.086-.734-.012-.734-.012-16.694 7.339-29.763 15.522-39.635 22.83-.115.085-.188.464-.299.555-.808.663-1.553 1.165-2.34 1.77-.108.084-.35-.065-.458.018-11.615 8.976-18.193 16.253-20.613 18.354l.237 41.79s5.287-2.725 8-4.386c1.904 16.18 9.95 31.9 22.655 42.817l-5.512 7.62-25.397-17.539.353 77.107 13.503-9.407v-8.132c4.024 2.718 7.952 3.777 10.81 16.156 2.284-4.348 2.083-10.825 1.06-15.151.016 0 3.428-2.827 4.474-4.995l-5.018-4.464s1.3-10.811-1.066-12.989c-1.872 4.907-3.365 10.108-10.36 13.895l-.088-37.56c3.486 2.215 6.784 4.708 10.23 6.981l.476-.095 3.566 2.45s-.38.766-.725 1.292c-4.333 6.59 2.888 14.676 8.76 9.811 2.3-1.905 6.617 6.016 7.43 13.634.83 4.921 1.276 11.03 2.609 15.305.412 1.247.25 1.947-.627 2.703-4.5 6.352-13.548 19.15-13.548 19.15h6.518l.471-.75h-4.804c4.139-5.523 8.087-11.96 12.38-17.352 15.998 6.04 42.203 7.436 58.028 3.773 3.268 4.598 6.446 9.417 9.59 14.102h-4.553l.628.981h6.156l-12.969-19.15c-8.94 2.667-30.731 1.628-30.334 1.407 0 0-.061-.148-.816-2.32-3.742-12.116-4.088-22.869 5.298-31.559 4.985-4.446 10.555-7.38 16.773-6.823 2.78-.055 2.834-.206 3.993-.73.639-.29 1.961-.591 1.961-.591l6.3-3.504.831-.166 1.812-.958.375-.444 2.929-1.493.328.028 3.958-2.285.052-.322 1.558-.964.37.394c.432.036 15.517-9.894 21.808-15.428l.39.146c7.346-5.962 17.334-15.362 20.296-18.932l-.16-17.888-.25-.218-.1-19.808h-.574l-.025-2.443c-3.248 1.207-6.823 4.232-7.063 4.106-2.069-16.77-9.766-32.216-22.345-43.56l5.356-7.419L183.7 89.172l.068-4.902h.308c.306-18.804.472-67.543.472-67.543l-.244-.023-.006-3.892-12.713 8.142-.178 8.226c-5.637-1.846-9.207-8.638-10.39-14.691-1.642.66-2.405 7.034-1.799 15.106-1.742 1.043-2.857 2.184-3.924 3.565 1.38 1.743 2.912 3.173 4.6 4.636-.352.761-1.098 11.533-.357 12.87.339.985 1.512.844 1.519-.193 1.714-8.401 9.658-13.914 10.104-13.406l-.194 38.737-14.113-9.923c2.963-3.356 3.587-9.017-.146-11.787-3.742-2.777-7.406-.422-8.273 1.344-4.582-2.995-6.124-14.094-6.793-18.439-.167-2.113-.708-4.984-1.332-7.573-.39-1.623-.855-3.173-.915-4.627-.026-.684.054-.982.674-1.838L153.79 3.434l-7.004-.025-.068.12 5.51.016-12.375 17.627c-18.618-5.866-37.922-7.286-58.574-3.564L71.077 3.216l4.637-.02-.182-.309h-5.824Zm10.766.166.197.352 8.018-.025-.12-.298-8.095-.03Zm11.89.043.153.424 5.47.02-.166-.415-5.457-.03Zm27.932.15-.055.192 6.028.01.055-.193-6.028-.01Zm-18.475.004.058.247h14.544l.055-.232-14.657-.015Zm28.006.13-.056.205 12.553-.01.107-.195h-12.604Zm52.97 10.74.04 2.652-8.433 5.376c-.21 11.336-.536 54.94-.536 54.94l-2.02-1.329.397-54.602s7.46-4.81 10.553-7.036Zm-22.129 2.134h.286l.085.613h-.491l.12-.613Zm.598 1.601.222.832-1.233-.006.207-.803.804-.023Zm21.287.43v1.73l-7.277 4.56V22.86l7.277-4.573Zm-22.458 1.44 1.904.025.318.957h-2.396l.174-.982Zm-46.727.514 1.272.191c2.916 6.978 3.67 12.97 4.176 19.205 1.162 8.093 3.509 16.205 5.14 19.652l-1.866-.019c-.216-.028-4.155-11.744-4.975-18.661-.22-1.37-.132-2.642-.202-3.912-.416-5.349-1.146-9.368-3.545-16.456Zm2.391.28 1.625.168c1.135 4.956 2.79 9.632 3.461 14.61 1.075 7.962 1.65 16.093 5.479 23.942l-1.519-.014c-2.323-5.306-3.76-10.84-4.686-16.824-.724-3.432-.732-6.008-1.115-9.11-.466-3.726-1.897-8.463-3.245-12.771Zm2.468.233 1.626.241c1.068 4.92 2.903 10.335 3.389 14.783.989 9.058 2.406 17.498 5.255 23.488l-1.138-.035c-4.4-8.55-4.471-16.166-5.704-24.178-.726-4.718-2.265-9.438-3.428-14.3Zm2.591.381 1.435.222c.998 4.896 2.79 10.437 3.206 15.403.738 8.79 2.293 15.443 5.555 22.54l-1.346.025c-3.938-6.912-4.466-15.396-5.692-23.987-.678-4.746-2.204-9.52-3.158-14.203Zm61.735.01v2.143l-7.277 4.685v-2.114l7.277-4.714Zm-59.387.415 1.5.234c.965 4.721 2.762 9.76 3.186 14.356.725 7.857 2.165 15.79 5.395 23.1l-1.385.088c-3.415-7.381-4.902-14.098-5.548-22.582-.363-4.757-2.188-10.557-3.148-15.196Zm39.625.026.52 1.272-3.486.17.043-1.429 2.923-.013Zm-37.157.444 1.783.348c1.89 7.532 2.385 14.663 3.672 21.821 1.609 8.895 3.303 13.364 4.688 15.023l-1.476.048c-3.6-7.7-4.877-15.357-5.713-23.29-.493-4.679-2.022-9.29-2.954-13.95Zm2.719.508 1.36.275c1.62 6.155 2.35 11.913 3.064 17.484 1.297 10.582 4.812 18.63 5.56 19.002l-1.5-.068c-3.251-4.508-4.456-12.182-6.055-23.013-.702-4.76-1.401-9.24-2.429-13.68Zm2.189.44 1.522.376s1.375 5.416 2.412 12.603c.865 5.99 1.318 17.775 7.81 24.552 3.24 3.383 8.948 6.321 12.844 3.128 1.664-1.422 2.737-3.704 1.736-6.141-1.682-4.083-7.378-3.383-5.483.9.213 1.027-1.125 1.07-2.058.068-.98-1.072-.736-2.294-.04-3.417 1.464-2.368 5.384-2.612 7.686-.497 3.677 3.613 2.086 9.81-2.57 11.776-5.363 2.285-12.276-2.433-15.013-6.935-4.529-7.843-5.229-15.287-6.29-23.206-.54-4.276-1.58-8.766-2.556-13.207Zm2.295.633 1.546.378c.005.021 1.696 7.632 2.257 12.142.693 5.573 1.458 12.142 3.837 17.212 1.48 3.153 3.633 5.804 5.81 7.35 1.872 1.328 3.55 2.167 6.04 1.624 2.875-.628 3-5.09.257-5.102-1.402-.006-.488-1.358.675-1.397 4.135-.136 4.254 6.4.362 7.858-4.458 1.67-9.277-1.477-12.26-5.43-5.221-8.133-5.016-15.551-6.162-22.11-.306-3.454-2.246-12.362-2.362-12.525Zm31.284.228.944 1.267-5.25-.024.024-1.206 4.282-.037Zm-28.98.421 1.48.516c.041 0 1.485 5.91 2.382 12.894 1.065 6.733 1.412 12.337 4.888 17.2 1.446 2.023 4.177 4.722 5.896 5.043 1.065.23 2.168-.004 2.44-.816.443-1.33 1.58-.719 1.605.489-.005.845-.623 1.721-1.668 2.026-5.11.887-9.784-5.548-11.203-8.81-1.922-4.747-2.744-10.052-3.578-16.656-.352-2.795-2.04-11.708-2.243-11.886Zm47.412.236-.025 2.133-7.252 4.585v-2.074l7.277-4.644Zm-45.185.417 1.658.454s1.383 5.196 2.208 11.615c.838 6.51 2.635 14.073 5.994 17.985.305.375.514.641.646.861.24.532-.047 1.43-.295 1.432-5.983-3.123-7.398-15.673-7.912-19.916-.758-6.561-2.3-12.431-2.3-12.431Zm23.267 1.005 5.279.15 1.258 1.243-6.99-.063c-.737-.764-.278-.676.453-1.33Zm21.918 1.732v1.768l-7.277 4.625v-1.81l7.277-4.583Zm-21.735.56 7.723.135 2.71 1.617-11.802-.098 1.369-1.654Zm21.735 2.245v2.123l-7.277 4.574v-1.993l7.277-4.704Zm-24.594.4 13.124.141.033 1.426-14.233-.368 1.076-1.198Zm-1.71 2.442 14.844.039.037 1.577-13.5-.13-1.382-1.486Zm26.304.243v2.215l-7.277 4.521v-2.1l7.277-4.636Zm-23.514 2.32 11.378.055-1.235 1.318-8.58-.085-1.563-1.288Zm23.514.78v2.087l-7.277 4.59v-2.06l7.277-4.618ZM167.6 38.232l-1.379 1.344-5.896-.082.202-1.223 7.073-.04Zm14.952 1.464v2.24l-7.277 4.46v-1.94l7.277-4.76Zm-22.308.819 4.865.107-.744 1.024-4.257.02.136-1.152ZM116.497 42.3c.733 5.632 4.809 16.987 4.806 16.984l-1.604.013c.08.11-2.914-7.151-3.992-13.993-.131-.653.313-2.856.79-3.004Zm43.43.323 3.746.068-.816 1.452-3.051-.006.12-1.514Zm22.626.345v1.958l-7.277 4.488v-1.785l7.277-4.661Zm-22.747 1.981 2.482.078-.587 1.344-1.924-.056.029-1.366Zm22.747 1.056v2.088l-7.277 4.527v-2.016l7.277-4.6Zm-67.588.444c.73 4.102 3.832 12.343 4.068 12.883l-1.375.018c-.062.188-3.224-7.387-3.561-10.628-.163-.679.196-2.022.868-2.273Zm44.816.87 1.472.069-.25.767-1.193.03-.03-.865Zm.132 1.847.765.02-.183.73h-.477l-.105-.75Zm22.64.04v1.686l-7.277 4.619v-1.6l7.277-4.706Zm-69.412.182c1.104 3.289 2.208 6.64 3.515 9.847l-1.63-.039c-1.079-2.312-1.837-4.912-2.68-7.462-.231-1.065.262-1.976.795-2.346Zm-1.623 2.196 2.709 7.593h-1.538c-.633-1.527-1.345-3.234-1.843-4.806-.511-1.63-.464-1.685.672-2.787Zm71.035.475v2.002l-7.277 4.516V56.85l7.277-4.792Zm-72.863 1.615c.354-.036.378.416.694 1.322l1.485 4.204-1.9-.047c-.556-1.323-.897-2.48-1.036-3.769-.052-.625-.165-1.248.27-1.512.214-.121.37-.186.487-.198Zm-2.02 1.585c.32.01.444.588.696 1.457l.788 2.467-1.773-.045c-.522-1.165-.722-2.003-.565-3.222.4-.464.663-.662.855-.657Zm74.883.01v2.094l-7.277 4.387v-1.944l7.277-4.537Zm-76.706 1.504.744 2.427-1.602-.037c-.266-.57-.096-1.262-.105-1.905l.963-.485Zm-2.097 1.243c.023.001.045.007.054.02.229 1.074.005 1.14.02 1.131l-2.238-.013s1.813-1.155 2.164-1.138Zm78.803.63v1.672l-7.277 4.55v-1.696l7.277-4.527Zm-86.507 2.648 43.718.127 1.457 2.065s-4.253.116-18.185.029c-11.728.152-35.296-.251-35.296-.251l2.293-1.083c3.174-.075 6.057-.903 6.013-.887Zm86.507.248v1.842l-7.277 4.42V66.02l7.277-4.478ZM59.532 63.31c-3.515 1.563-6.797 1.947-9.248 1.748-5.279-.43-13.355 1.785-14.979 6.872-.51 1.796-.516 1.845.453 2.76.48.454.947.798 1.037.764.849-.756 1.974-2.158 3.18-2.568 1.587-.48 2.447-.546 5.048-.662 5.605-.249 6.87-.485 8.265-.855 3.068-.815 6.16-3.843 6.347-7.215.02-.386-.103-.844-.103-.844Zm-.152.46c-.592 7.035-8.189 7.953-11.526 7.753-6.766-.406-9.432 1.621-10.504 2.879-.353.337-.56.256-.503-.05.785-3.896 7.061-4.043 10.22-4 7.743.354 9.705-3.39 9.486-3.426-.588.264-1.023.496-1.618.779-.256.107-.203-.05-.872-.438-.01.05-.774 1.791-1.763.14.025.082-.705 1.466-2.055.173.009.14-.816 1.327-2.136.113-1.242 1.066-1.832.479-2.366-.27-.39.235-1.54 1.793-2.499.116-1.022.653-1.449 1.36-2.328.933-2.052.369-3.827 2.48-4.55 4.414-.226.665-.683.77-.739.04-.243-2.019 3.07-5.516 6.394-6.481 2.584-.751 4.346-1.293 10.028-1.076 3.23.124 7.331-1.599 7.331-1.599Zm82.94.534 2.049 1.393-35.663 49.32-3.148-.083 36.762-50.63Zm-57.208.033h4.055v6.722h-3.496l-1.248-1.862c.323.19.697.304 1.099.304 1.2 0 2.173-.976 2.173-2.18a2.174 2.174 0 1 0-4.323.314l-1.307-1.944s.555-.331 1.88-.924c.343-.153 1.167-.43 1.167-.43Zm12.497 0h6.869v6.722h-6.87v-6.722Zm15.05 0h7.112v6.765l-7.111-.043v-6.722Zm15.356 0h7.106v6.722h-7.106v-6.722Zm54.431.16.107 2.098-7.277 4.435v-2.074l7.17-4.46Zm-51.137.695a2.305 2.305 0 1 0 0 4.609c1.27 0 2.3-1.033 2.3-2.306a2.3 2.3 0 0 0-2.3-2.303Zm-30.25.12a2.3 2.3 0 0 0-2.298 2.303 2.303 2.303 0 0 0 2.299 2.307c1.27 0 2.3-1.033 2.3-2.307a2.3 2.3 0 0 0-2.3-2.302Zm14.986.046a2.305 2.305 0 0 0 0 4.609 2.305 2.305 0 0 0 0-4.61Zm7.742.274c1.065 0 1.929.866 1.929 1.935a1.931 1.931 0 0 1-1.929 1.934 1.931 1.931 0 0 1-1.928-1.934c0-1.069.863-1.935 1.928-1.935Zm-30.484.03c1.066 0 1.929.866 1.929 1.934a1.931 1.931 0 0 1-1.929 1.934 1.931 1.931 0 0 1-1.928-1.934c0-1.068.863-1.934 1.928-1.934Zm45.694.068c.458 0 .875.175 1.19.46l-2.1 2.861a1.784 1.784 0 0 1-.869-1.533c0-.987.795-1.788 1.78-1.788Zm-30.188.01c1.065 0 1.928.866 1.928 1.934a1.931 1.931 0 0 1-1.928 1.934 1.931 1.931 0 0 1-1.929-1.934c0-1.068.863-1.934 1.929-1.934Zm-23.287.14c.794 0 1.437.645 1.437 1.441 0 .797-.643 1.446-1.437 1.446a1.445 1.445 0 0 1-1.441-1.446c0-.796.647-1.441 1.44-1.441Zm-4.412.078c12.252 15.65 18.763 31.516 21.628 48.807l-2.055-.097C97.278 95.86 89.614 79.732 79.22 66.715l1.89-.758Zm50.199.014c.84 0 1.522.68 1.522 1.523 0 .843-.682 1.529-1.522 1.529s-1.525-.686-1.525-1.53c0-.842.685-1.522 1.525-1.522Zm-30.25.12c.841 0 1.525.68 1.525 1.524 0 .842-.684 1.529-1.524 1.529a1.527 1.527 0 0 1 0-3.053Zm14.986.043a1.527 1.527 0 0 1 0 3.052c-.84 0-1.525-.686-1.525-1.528 0-.843.684-1.524 1.525-1.524Zm38.125 1.095c.808 6.194-.786 10.192-5.496 10.84-6.004.827-6.785 1.28-6.818 6.984-.04 6.759-1.035 8.712-5.809 9.246-5.37.601-6.618 1.24-6.136 7.936.351 4.886-1.57 6.965-5.704 7.872-3.233.709-6.033 1.794-7.232 5.062l-2.956.04c.768-5.148 5.926-7.606 9.232-7.777 3.565-.848 4.31-2.045 3.733-8.312-.435-4.717 1.29-6.15 6.816-7.228 4.418-.874 5.5-2.146 5.26-5.77-.516-7.77-.005-8.939 4.398-9.884 2.243-.533 5.896-.773 7.288-2.491 1.585-1.955 1.181-3.62 1.037-6.021l2.387-.497Zm28.383.206v2.032l-7.277 4.502v-1.977l7.277-4.557ZM75.623 68.64c-1.556 6.737 3.795 8.202 7.05 9.339 3.787 1.322 4.706 3.238 4.276 9.932-.325 5.063.23 6.184 3.5 7.922 5 2.588 6.344 6.265 4.123 11.649-1.37 3.32-.652 4.25.215 7.147l-2.423-.023c-.178.055-2.225-3.615-.478-7.564 2.07-4.68 2.01-7.028-2.604-9.134-3.571-1.63-4.666-3.167-4.889-6.52-.093-1.412-.082-2.114.247-5.183.416-3.87-.96-5.533-6.663-7.66-2.541-.947-4.27-3.152-4.789-6.65-.146-.979-.014-2.107-.014-2.107l2.45-1.148Zm85.296.73 21.69 14.476-.15 3.22-23.01-15.422 1.47-2.273Zm-13.977.32c1.05 0 1.901.853 1.901 1.905a1.904 1.904 0 0 1-1.901 1.905 1.902 1.902 0 0 1-1.9-1.905c0-1.052.85-1.905 1.9-1.905Zm-68.237.832c.953 0 1.72.77 1.72 1.726 0 .955-.767 1.732-1.72 1.732a1.73 1.73 0 0 1-1.726-1.732c0-.955.774-1.726 1.726-1.726Zm103.784.203-.072 1.94-7.14 4.43v-1.94l7.212-4.43ZM86.43 71.997h49.414l-1.268 1.712-47.208-.483-.938-1.23Zm-17.133.083c6.56 8.575 13.006 17.41 17.977 34.058l-2.12.818c-4.105-13.4-10.419-24.534-17.863-33.741l2.006-1.136v.001Zm113.255 1.527v2.124l-5.473 3.34-1.61-1.053 7.083-4.41Zm-116.156.228.969 1.276s-1.05.827-2.237 1.68c-3.236 2.32-3.657 2.583-3.873 4.094-.512 3.589 3.168 5.359 6.861 3.284 1.325-.607 4.228-2.452 4.228-2.452l.833 1.233s-4.162 3.123-6.605 3.835c-5.358 1.562-9.358-5.25-5.398-9.295.605-.618 1.883-1.448 2.901-2.108 1.044-.677 2.32-1.547 2.32-1.547Zm22.055.846 45.53.27-29.075 39.863-1.291-.072c-2.254-14.91-7.846-27.937-15.164-40.061ZM68.6 76.37l2.66 3.728s-1.734 1.662-4.598 3.234c-2.297 1.26-4.781-1.03-3.337-3.094 1.484-2.05 5.275-3.868 5.275-3.868Zm113.954.381v1.944l-3.154 1.939-1.441-.924 4.595-2.959ZM68.267 78.246c-1.263.066-3.356 1.501-4.069 2.74-.306.533-.197.981.086 1.346.43.556.94.523 2.455-.286 3.091-1.653 3.67-2.633 2.309-3.602a1.16 1.16 0 0 0-.667-.198c-.038-.001-.073-.002-.114 0Zm-.101.796c.2-.019.43.043.621.026.535.22.37.886-.188 1.044-.123-.195-1.05-.222-.988.724-.226.536-.217.495-.898.571a.733.733 0 0 0-.839.401c-.469.252-1.044.174-1.151-.11-.104-.276.282-1.07.608-1.068.156.012.435-.223.722-.417-.01-.517.597-.592.773-.59.172.036.752.043 1.031-.43.08-.1.19-.14.309-.15Zm114.387.466v2.998l-2.286-1.465 2.286-1.533Zm-126.334.376c8.291 9.82 14.263 20.274 18.064 34.741l-1.662 1.151c-2.512-10.142-6.38-20.86-17.824-34.794l1.422-1.098Zm97.015.165c3.754 3.198 19.14 17.723 22.071 43.503l-2.058 1.266c-1.653-13.606-6.99-29.207-21.343-43.033l1.33-1.736Zm-7.418.894c1.049 0 1.899.853 1.899 1.905 0 1.053-.85 1.906-1.9 1.906a1.904 1.904 0 0 1-1.9-1.906c0-1.052.851-1.905 1.9-1.905Zm-91.906.745s1.742 1.796 1.74 2.224c-.006.847-.678 1.328-4.683 2.791-.676.247-3.633.932-3.633.932l-.109-1.44c1.51-.546 5.562-1.52 5.86-2.384.144-.34-.577-1.198-.424-1.198l1.249-.925Zm27.627.366c.952 0 1.72.776 1.72 1.731 0 .955-.768 1.732-1.72 1.732a1.73 1.73 0 0 1-1.727-1.732 1.73 1.73 0 0 1 1.727-1.731Zm69.794.494c12.534 12.281 19.432 27.457 21.044 43.128-14.597 11.908-24.514 26.877-28.455 45.604-1.947-3.255-3.604-6.998-5.404-10.657 19.478-17.168 23.577-48.087 6.73-69.76l6.085-8.315ZM74.674 84.89l.877 1.363s-.184.167-2.913 1.867c-3.991 2.485-4.65 4.106-3.317 6.65 1.363 2.6 2.883 2.738 7.17.656 1.515-.735 2.8-1.507 2.8-1.507l.686 1.425s-1.919 1.567-5.616 2.926c-3.477 1.279-6.764-.9-7.382-4.928-.45-2.928.824-4.498 5.896-7.385.571-.303 1.799-1.067 1.799-1.067Zm59.725.647c1.049 0 1.898.854 1.899 1.907 0 1.052-.85 1.905-1.9 1.905-1.049 0-1.899-.853-1.899-1.905 0-1.053.85-1.907 1.9-1.907Zm-77.458.074 1.148 1.085s-.494.729-3.321 2.435c-2.541 1.533-2.803 1.284-1.538 2.357 2.359 1.998 5.63 6.424 5.612 7.567-.017 1.102-1 2.118-2.886 2.969-1.032.466-5.118 1.927-5.719 2.032-1.193.13-1.53.61-.336 1.698 2.028 2.333 3.758 7.325 3.063 8.848-.784 1.714-1.724 2.004-9.233 2.349-.855.04-1.263-.204-.8.894.338.798.69 1.894 1.36 5.28.596 3.02.495 4.379-.674 5.001-.672.358-5.894.232-8.052-.193-2.469-.486-2.738-.52-2.338 1.093.518 2.227.84 8.196-.839 9.348-.699.456-1.45.344-4.517-.691-1.956-.661-3.651-1.419-3.651-1.419l.035-1.85c1.594.658 5.964 2.55 7.207 1.952 1.474-2.118-.574-9.546-1.356-11.137-.944-1.899.043-2.313 2.218-1.135 1.141.806 10.974 4.694 10.415 1.215-.6-3.3-1.668-7.058-3.742-9.418-1.918-2.182-.962-3.074 1.173-2.117 3.778 1.693 11.582 1.278 11.194-.478-.515-2.854-3.098-6.722-6.636-9.722-.984-.834-1.023-1.191.138-1.396 3.304-.264 12.762-1.239 11.44-3.466-1.134-1.823-2.65-3.839-3.94-4.924-2.12-1.782-4.256-2.555-5.203-2.926l.06-1.365c4.307-.36 6.547-1.658 9.718-3.886Zm-10.427 1.344c-1.544 16.24-8.318 29.62-22.298 38.952l-.078-1.819c12.291-9.26 18.192-22.421 19.792-35.156l2.584-1.977Zm11.87.767 1.15 1.035s-.297.449-1.952 1.776c-1.288.994-.838.602.039 1.784.78.939 2.17 2.825 2.17 2.825l-.415 2.509c-1.455-2.079-2.662-3.592-4.822-5.813-1.097-1.134-1.034-1.165.532-1.983 1.174-.65 2.13-1.44 3.298-2.133Zm17.915.253c.006 0 .01.002.01.004 0 0 2.248 4.058 2.245 4.426-1.335 1.24-4.837 3.056-6.27 2.63-2.212-.707-2.559-3.073-.436-4.469 1.834-1.34 4.118-2.505 4.426-2.587a.096.096 0 0 1 .025-.004Zm13.47 1.364c.952 0 1.72.77 1.72 1.726 0 .955-.768 1.732-1.72 1.732a1.73 1.73 0 0 1-1.726-1.732c0-.955.774-1.726 1.726-1.726Zm-13.944.144c-1.642.435-3.252 1.906-4.156 2.554-.329.236-.069 1.42.247 1.827.406.523 1.154.436 2.049-.062.375-.21 1.054-.551 1.505-.76 1.262-.585 1.79-1.02 1.744-1.508-.203-.656-.719-2.098-1.389-2.05Zm-33.045.63c.354 1.822-.74 5.023-1.361 6.827-3.678 4.824-9.01 7.291-14.08 8.976-1.126.375-2.64.185-2.64.185 7.015-7.238 13.03-12.544 18.08-15.989Zm33.138.12c.462.02.793.616.645.968-.791.43-1.23.065-1.128.666 0 0 .079.937-1.08.959-.282-.124-.773-.102-1.012.14-.81.336-1.517-.375-.637-.78.239-.108.827-.294.989-.658.084-.45.457-.81.864-.56.217.015.7.05.857-.295-.06-.387.214-.421.41-.436.031-.004.062-.005.092-.004Zm-47.536.81c-.198-.016-.346.001-.39.065-.342.32-.885 5.35-.53 5.711.492.503 1.85.642 1.98.043.426-1.973.321-3.446.524-5.11.038-.304-.992-.659-1.584-.709Zm.547.546c.175.04.32.28.43.7-.02.828-.115 2.548-.433 3.51-.2.747-.775.577-.993-.112-.226-.716-.037-2.748.39-3.582.229-.393.432-.556.606-.516Zm32.477.013 1.2 1.495c-2.543 24.23-19.798 45.192-38.22 53.503l-.055-1.607c21.076-11.103 33.76-29.588 37.075-53.39Zm83.382.102 2.284 3.151-3.272.102.988-3.253Zm-97.992 1.024c1.13 0 7.133 3.706 6.331 5.552-.639 1.469-5.663 1.587-7.966 1.381l.345-1.414s.703.245 3.38-.04c2.81-.187 2.603-1.156-.618-3.202a93.82 93.82 0 0 1-1.707-1.085l.235-1.192Zm16.635 1.987c1.86 3.145 3.62 6.69 5.275 10.66-22.695 21.48-20.934 50.733-6.624 69.934l-6.166 8.347c-12.33-11.8-19.043-26.315-21.31-41.733 17.996-12.987 26.452-32.368 28.825-47.208Zm84.278.953 1.356 2.598-3.255-.054 1.9-2.544Zm-14.052 1.301c1.049 0 1.899.853 1.899 1.905s-.85 1.901-1.9 1.901a1.904 1.904 0 0 1 0-3.806Zm-52.808.512.647 1.477c.03.185-4.593 1.648-6.08 3.53-1.375 1.737-1.246 3.55-.472 4.801 1.317 1.784 2.252 2.034 4.474 1.35 1.812-.557 3.144-1.31 4.942-2.23l.284.744c.003-.04-2.582 1.521-4.552 2.635-.74.418-1.629.596-2.4.577-4.484-.108-6.859-5.911-3.162-9.338.542-.503 2.371-1.509 3.913-2.307 1.026-.531 2.406-1.239 2.406-1.239Zm59.354.916c14.802 21.415 4.67 44.882-4.888 53.184l-.256-2.52c16.092-18.387 10.494-39.86 3.789-49.404l1.355-1.26Zm9.526.962 1.163 2.645-3.437-.364 2.274-2.28Zm-59.663.865a1.73 1.73 0 0 1 0 3.458c-.952 0-1.722-.771-1.722-1.726s.77-1.732 1.722-1.732Zm48.372.339c12.974 18.905 5.739 49.05-19.009 58.233l-.126-2.113c25.233-10.581 27.712-38.751 17.574-54.646l1.56-1.474Zm-56.239.115 1.64 4.44c-2.063 1.385-2.872 1.62-5.182 2.185-1.821.417-3.242-2.74-1.843-3.95 1.596-1.382 3.315-1.98 5.385-2.675Zm-42.078.015c.305-.014-.017.744-.8 2.646-1.725 4.19-1.842 4.28-6.187 4.97-2.261.36-3.945.45-5.552.295-2.425-.234-3.463-.921-1.892-1.253 4.556-1.004 9.592-3.37 12.868-5.662.853-.614 1.355-.986 1.563-.996Zm82.462.517a2.14 2.14 0 0 1 0 4.28 2.133 2.133 0 0 1-2.13-2.14c0-1.181.952-2.14 2.13-2.14Zm-64.494.592-.183 1.648s-2.632 1.394-3.878 1.92c-.953.387-1.018.473-.713 1.358.616 1.768 1.804 3.96 1.804 3.96l-1.099 2.5c-.671-2.248-1.38-4.624-2.614-6.717-1.17-1.638-1.388-1.841.433-2.184 2.353-.794 4.184-1.369 6.25-2.485Zm23.504.535c-1.288.057-3.977 1.142-4.243 2.18-.151.587.016 1.407.51 1.592 1.34.498 4.026-.606 4.735-1.615.22-.311-.114-.957-.351-1.36-.181-.307-.146-.819-.65-.797Zm.066.885a.387.387 0 0 1 .068 0c.218-.02 1.012.989.12.904-.307-.03-.586.086-.838.348-.031.484-.724.668-1.057.503-.248-.123-.596.13-.631.28-.5.362-1.133.345-1.214.088-.17-.18.335-.921.775-.894.095.006.407-.206.7-.46.14-.505.671-.418 1.007-.391.38.153.728-.343 1.07-.378Zm69.7.078.95 2.649-3.4-.304 2.45-2.345Zm-15.754.582c1.142.325 1.775 1.397 1.145 2.47-.704.9-1.353.909-2.379.861.84.998 1.213 2.378.395 3.282-1.245 1.273-3.645-.678-3.467-.857l4.306-5.756Zm-92.377.97s5.236 4.522 5.273 6.55c.015.772-.233 1.022-.849 1.226-2.056.684-7.78-1.073-7.78-1.073l.737-1.4c.9.249 5.336 1.4 5.717.833.396-.588-3.704-4.6-3.713-4.605l.615-1.53Zm25.983 1.89.627 2.187-2.14-.534 1.513-1.653Zm83.594.391.56 3.023-3.428-.802 2.868-2.22Zm-65.345.049.51 1.774c-22.738 10.576-29.378 34.864-17.52 54.907l-1.34 1.848c-15.873-25.797.204-51.98 18.35-58.53Zm-51.778 1.786c.45.006.535.25.534.516-.002.363-2.298 3.303-3.041 3.964-1.613.654-7.834-1.954-8.763-3.971-.183-.591.43-.332 1.808-.051 3.49.998 7.029-.373 9.462-.458Zm60.58.035a1.729 1.729 0 0 1 0 3.458 1.727 1.727 0 0 1-1.723-1.732c0-.955.77-1.726 1.722-1.726Zm-29.288.037.308 2.692-2.64-.154 2.332-2.538Zm-42.338 2.092c1.73 1.56 4.273 2.85 6.529 3.3 1.404.31.997.455-.305 1.804-1.218 1.276-1.118 1.439-2.358.808-2.069-1.052-4.32-3.444-4.23-4.745.038-.541.133-1.17.364-1.167Zm129.154.292.429 2.872-3.241-1.126 2.812-1.746Zm-90.036 1.035 1.056 2.571-2.874-.082 1.818-2.49Zm71.132.613c1.355-.062 1.881.987 1.89 1.843-.002.36-.088.966-.088.966 1.69-1.078 3.933-.192 3.867 1.55-.094 2.458-1.291 2.481-3.25 2.155 1.073 1.783-.2 3.5-2.215 2.842-1.837-.599-1.482-2.541-.624-3.693-4.333.709-5.491 6.891-.487 8.729-1.006-1.562-1.256-3.427.926-3.74 2.027-.291 2.886 1.25 2.01 3.105 1.905-.664 3.698.432 3.125 2.292-.692 2.247-2.683 2.092-3.859.723.844 2.037-1.108 3.503-2.58 2.714-2.323-1.244-1.174-3.464.382-4.054-5.979-.618-7.367 7.676-2.96 8.86-1.131-.713-1.259-3.978 1.325-3.53 2.537.511 1.932 2.875.305 3.95 1.964-.42 3.803 1.3 2.608 3.04-1.41 2.052-3.353.59-4.075-.806.227 1.873-.96 3.065-2.487 2.363-2.623-1.206-.686-4.226 1.365-4.032-4.16-2.466-9.817 2.707-6.484 6.989-.13-1.945.836-3.542 2.169-3.321 1.173.132 2.198 1.473 1.868 2.526-.307.899-1.329 1.588-2.398 1.804 3.18.354 3.452 2.612 2.134 3.724-2.239 1.89-3.278-.29-3.797-1.566-.455 3.17-4.182 2.091-4.311-.198-.127-2.51 2.76-2.458 3.294-2.317.067-.086-2.235-2.37-4.69-2.695l.015-1.456c9.682-6.09 13.012-16.723 9.94-26.803l.582-.672c1.578 1.21 3.163 3.803 6.082 2.852 0 0-.68-.479-1.015-.81-1.503-1.486-.658-3.237 1.433-3.334Zm-63.79 1.837 1.003 1.477c-14.681 17.25-12.004 36.987-3.562 50.054l-1.23 1.49c-7.471-9.608-13.572-32.903 3.79-53.02Zm-46.528.215c1.212.702 2.022 1.762 3.153 2.688.874.71.863.838.14 1.513-1.625 1.573-2.539-.705-3.064-1.636-.644-1.247-.71-2.518-.23-2.565Zm57.256.099c1.098.104 1.84 1.182 1.783 2.07-.02.385.008.694.008.694s.317-.393.573-.865c1.253-2.102 3.95-.893 3.507 1.521-.208 1.133-2.11 1.575-2.627 1.251.492 1.35 1.827 1.666 3.452 2.25a23.7 23.7 0 0 1 1.542.388l.04.913c-8.807 5.565-13.791 15-10.563 27.902l-.973 1.32c-1.777-4.285-3.397-4.19-6.318-4.359 0 0 .726.514 1.144 1.01.886 1.05.492 2.879-.734 3.07-2.84.44-2.867-1.578-2.492-2.946 0 0-.508.428-.757.59-1.126.735-2.529-.028-2.66-1.484-.124-1.37.343-2.257 1.75-2.427.471-.057 1.2.062 1.2.062s-.28-.538-.434-.841c-.673-1.325.804-2.458 2.16-2.172 2.14.517 1.972 2.37.732 3.826 3.32.25 5.061-1.928 4.816-4.09-.298-2.636-1.51-4.06-4.12-4.52 0 0 .421.663.601.983.669 1.19-.292 2.65-1.697 2.642-1.44-.01-2.363-1.334-1.808-2.642.135-.318.677-.717.594-.753-.056-.026-.8.205-1.004.237-1.73.27-2.842-1.256-2.117-2.781.514-1.08 2.06-1.372 3.183-.842.179.066.396.316.43.261.032-.053-.114-.407-.16-.656-.355-1.397.313-2.145 1.822-2.048 2.112.136 2.899 1.864 1.48 3.421-.366.402-.929.995-.929.995.07.307 3.012.528 4.516-1.05 1.74-1.826 2.014-5.636.266-6.88l-.868-.613c.832 1.675-.701 3.601-2.053 3.241-2.704-.654-2.47-2.873-.691-3.574 0 0-1.804-.677-2.323-1.405-.734-1.029-.487-1.978.394-2.702 1.11-.894 2.686-.307 3.447.797.46-1.404 1.108-2.354 3.024-1.59 1.34.642 1.327 2.435-.148 3.411-.472.313-1.312.604-1.312.604s1.267.725 2.81.742c2.976.034 5.333-3.485 4.132-6.174-.243-.547-.852-1.251-.852-1.251s-.066.94-.25 1.301c-.688 1.341-2.27 1.364-3.205.518-.85-.768-.6-1.796.058-2.497.5-.532.95-.636 1.649-.962-.793-.269-1.675-.463-2.06-1.286-.359-.784-.108-1.75.842-2.347.429-.225.834-.298 1.2-.263Zm72.727.335.202 3.043-3.38-1.302 3.178-1.741Zm-93.136.18 1.216 2.765-3.138-.013 1.922-2.753Zm65.582.003c2.95 10.935-1.199 18.785-9.069 24.934l-.872-1.146c6.152-5.242 10.757-11.42 8.722-22.428l1.22-1.36Zm-90.434.037s4.559 5.92 3.65 7.922c-1.207 1.911-8.395-2.202-8.3-2.419l.9-.869c1.142.465 4.694 2.43 5.48 2.12.276-1.79-1.82-4.106-2.61-5.647l.88-1.107Zm54.276.012 34.601.639-1.035 1.827-2.696.015-5.346 9.48-24.868-.007-.656-11.954Zm-38.835.952-1.196 2.17c-1.12.345-4.5.407-4.771.632.408 1.112.856 4.378.856 4.378l-1.332 1.709a79.543 79.543 0 0 0-1.472-6.707c-.448-1.653-.323-1.29 3.187-1.562 1.572-.09 3.193-.29 4.728-.62Zm7.097 2.616 1.423 2.535-2.884.029 1.46-2.564Zm-34.65.17c.157-.065 1.05.94 1.204 1.23-.066.658-1.084 1.017-1.24.782-.064-.095-.085-1.573.017-1.983.004-.016.009-.025.02-.03Zm130.523.035-.029 3.171-3.428-1.523 3.457-1.648Zm27.216.715-.047 2.055c-12.43 6.09-30.972 22.438-36.261 51.762l-1.084-1.198c5.286-27.998 23.528-44.553 37.392-52.62Zm-125.035 2.828 1.546 2.336-2.791.306 1.245-2.642Zm97.887.896-.274 2.81-3.375-1.877 3.65-.933Zm-64.935.585c.013.666.07 1.148.11 1.813-7.659 4.974-10.247 12.8-8.972 22.65l-1.06 1.573c-2.492-8.931.024-19.937 9.922-26.036Zm-62.702.385s2.918 6.59 1.765 8.143c-1.121.916-3.707-.61-4.882-1.231l-.033-1.576s.896.46 1.798.822c1.854.824 1.859-.158.843-2.91-.357-.968-.71-2.089-.71-2.089l1.219-1.159Zm151.507.195c.78.46 3.31 1.208 3.31 1.208l-.027 1.868-5.212-1.876 1.929-1.2Zm-123.575 2.036 1.994 2.094-2.78.639.786-2.733Zm121.073.235c.188-.013.385-.008.589.016 1.766.002 5.171 1.442 5.171 1.442l-.021 2.072c-1.73-.502-3.74-1.467-5.568-1.737-1.444-.2-1.36.612-1.367 2.658-.01 2.774.684 5.278 2.006 8.051 1.095 2.297.524 2.911-1.264 1.886-3.218-2.215-10.076-3.885-11.132-2.597-1.086 1.326 1.053 7.926 3.525 11.074 1.004 1.28 1.067 1.485.598 1.983-.38.404-.994.428-2.078.082-3.565-1.138-8.725-1.394-10.211-.43-1.475.957 2.364 7.567 5.587 9.7 2.09 1.496 1.688 2.24-1.691 2.316-5.518.026-9.763 1.261-9.528 2.772.4 2.568 3.973 6.09 8.075 7.96 2.51 1.028 1.46 1.437-.208 2.031-2.79.945-5.472 2.459-8.098 3.873l-1.262-1.62s2.642-1.684 5.515-3.303c.674-.38.638-.518-.305-1.31-3.06-2.575-5.306-5.446-5.775-7.38-.457-1.878.478-3.065 3.258-4.125 1.718-.655 2.35-.847 3.867-1.189 2.184-.491 2.221-.559 1.287-2.244a517.131 517.131 0 0 1-1.522-2.771c-3.255-5.584-1.539-7.598 6.016-7.712 1.855-.098 2.21-.104 2.107-.746-.402-2.63-1.562-5.65-1.398-7.88.346-3.36 3.794-4.173 9.85-2.657 1.402.351 1.499.28 1.253-.857-1.1-4.797-.095-9.154 2.724-9.358Zm-21.638.374-.53 3.26-3.226-2.153 3.756-1.107Zm-120.62.77 8.896.584-1.414 1.664-5.375-.101-.202 4.602-1.721 1.48-.185-8.23Zm57.652.353h7.324l-.059 7.766h-7.3l.035-7.766Zm8.726 0h6.816v7.766l-6.758.072-.058-7.838Zm8.162 0H116l-.066 7.766h-7.238l-.004-7.766Zm63.832.619c-.172 1.997.246 5.606.414 7.157-.118.461-.438.395-2.352-.04-1.327-.444-5.006-.576-5.006-.576l1.542-1.638c1.26.15 2.254.138 3.56.302-.019-1.308.036-3.805.036-3.805l1.806-1.4Zm-118.35 1.537 2.045 2.065-2.618.672.573-2.737Zm99.89.672-.814 3.323-2.962-2.67 3.775-.653Zm23.95.091c1.48-.034 2.72.469 4.086 1.674l.012 1.696-2.911-1.314c-.033 1.933 1.674 5.426 1.674 5.426l-1.385.653c-1.198-1.964-2.03-3.728-2.1-5.941.016-.801-.095-2.156.624-2.194Zm-124.839 3.353 2.432 1.45-2.696 1.092.264-2.542Zm99.958.744-1.19 3.419-2.599-2.96 3.79-.46ZM24.274 137.04l6.557 2.228-1.168 1.243-5.447-1.726.058-1.745Zm91.992.904.54 12.114-34.646-.287 1.206-1.712 2.25-.02 5.932-10.027 24.718-.068Zm-63.553.942 2.575 1.824-2.676 1.184.101-3.008Zm129.545 1.07.006 1.98c-8.365 6.2-17.41 16.883-18.949 35.773l-2.256 1.934c1.101-18.444 8.759-31.159 21.199-39.687Zm-30.517.072-1.216 3.076-2.406-2.864 3.622-.212Zm9.966.567c-.05 1.828 1.426 7.503 1.426 7.503-2.28.113-4.493-.15-6.955.544l1.16-2.075s1.071-.113 2.01-.3c1.939-.386 1.737-.151 1.287-1.843-.423-1.59-.446-1.92-.446-1.92s1.379-1.92 1.518-1.91Zm6.388.386c2.273.018 5.686 2.063 7.216 3.23l-.806.903c-.227.076-3.417-1.637-5.925-2.04.821 1.63 1.21 2.844 3.028 5.426l-1.171 1.16c-.353-.078-4.9-6.813-3.696-8.333.366-.247.829-.35 1.354-.346Zm-134.246 1.575c2.992 18.187 10.146 30.674 21.43 41.912l-1.148 1.504c-13.265-12.177-20.506-27.673-22.4-42.246l2.118-1.17Zm18.666.764 2.44 1.336-2.506 1.465.066-2.801Zm129.71.055-.016 2.666-1.528-1.544a9.452 9.452 0 0 1 1.544-1.122Zm-32.158.545-1.663 3.062-2.17-2.9 3.833-.162Zm29.792 1.32c2.213.31 2.923 4.742 2.187 5.605-.342-.54-3.388-2.439-4.77-3.236-.088-.234 2.14-2.23 2.583-2.368Zm-35.564 2.276 3.54.337-1.88 2.93-1.66-3.267Zm-91.745.002 2.758 1.35-2.503 1.768-.255-3.118Zm124.505 1.301c.46.003.977.197 1.622.557 2.493 1.393 3.8 2.918 3.662 4.274-.063.623-.41.749-.813.296-.728-.816-3.18-1.878-5.294-2.293-1.602-.314-1.75-.45-1.269-1.194.729-1.127 1.327-1.645 2.092-1.64Zm-42.643 1.286c3.834 14.56 10.573 25.766 19.034 34.988l-1.754 1.498c-6.424-7.393-13.49-16.044-19.26-34.749l1.98-1.737Zm7.654.779 3.542.537-2.074 2.65-1.468-3.187Zm-49.95.156c.412.014-1.218 6.21-6.845 6.638-3.562.593-3.962 1.194-4.016 6.756-.073 7.538-1.286 9.303-7.43 9.768-4.068.309-4.604 1.139-3.915 6.997.655 5.577-1.445 8.42-6.628 8.415-4.49.373-6.345 2.473-6.34 6.645.001 1.69.028 2.098.028 2.098l-2.901.228s.006-2.746.225-4.081c.884-5.397 3.192-7.559 8.048-7.535 3.754-.286 4.338-.897 4.208-6.605-.145-5.807-.223-5.769 1.288-7.29.972-.978 2.083-1.418 4.055-1.604 6.14-.58 6.624-.992 6.608-7.307-.57-5.247.878-8.459 4.201-8.723 6.723-.534 6.564-4.196 6.267-4.348l3.128-.048a.05.05 0 0 1 .02-.004Zm13.75 0c3.944 21.332 16.42 41.307 23.268 48.68l-1.336.711c-9.981-12.434-19.052-26.71-23.538-49.36l1.606-.032Zm-7.121.008 3.12.035-35.932 50.722-1.894-1.432 34.706-49.325Zm4.36.035c3.376 12.295 6.031 24.32 16.647 40.404l-45.03-.297 28.383-40.107Zm12.433.048c.262-.122 1.32 6.221-.257 9.15-1.417 3.963-.724 6.195 2.36 7.64 5.295 2.48 6.63 4.955 5.958 11.044-.47 4.264.816 6.325 4.806 7.695 4.76 1.634 6.842 4.201 6.817 8.409-.004.646-.245 1.383-.245 1.383l-2.656 1.566s.032-.572.134-1.257c.692-4.664-.189-5.929-5.679-8.128-5.185-2.078-6.47-4.48-5.587-10.47.288-1.954-.11-3.928-.917-5.416-1.357-2.424-4.357-2.4-6.513-4.614-1.782-1.896-1.98-4.543-.462-9.076.94-2.809 1.083-3.873.351-6.213-.482-1.542-.67-1.68-.67-1.68l2.56-.033Zm-62.54.676 3.056.848-2.3 2.394-.755-3.242Zm121.317.635c1.049-.028 3.076.34 4.736 1.169 3.809 1.903 4.501 3.463 1.164 2.622-1.883-.474-4.59-.367-7.2.28-2.758.685-2.7.715-1.75-.958 1.204-2.118 1.517-3.07 3.05-3.113Zm-13.738.797c2.31-.035 4.638.628 6.826 1.451l-.693 1.194c-1.514-.251-3.105-.995-5.41-.812.945 1.814 2.066 2.752 3.569 4.352l-.561 1.2c-.135.162-4.39-3.4-5.244-5.794-.385-1.08-.037-1.551 1.513-1.591Zm-50.054.277c1.14 0 2.065.926 2.065 2.07a2.07 2.07 0 0 1-2.065 2.075c-1.14 0-2.062-.931-2.062-2.075 0-1.144.922-2.07 2.062-2.07Zm42.748.062s3.364 6.674 3.15 6.929c-2.085.921-4.36 1.398-6.651 2.236l.439-1.94s.763-.054 3.324-1.033c1.227-.468-1.338-3.89-1.338-3.89l1.076-2.302Zm-13.666.499 3.486.627-2.325 2.612-1.16-3.24Zm-65.195.025c.825-.066 2.099 1.538 2.095 1.54l-4.226 5.856c-2.01-.406-1.581-3.462.26-3.555.426.003 1.202.076 1.202.076s-.566-.31-.893-.744c-1.234-1.495-.066-3.043 1.562-3.173Zm55.592 1.45c4.908.04 4.97 6.081 4.03 8.08-.684 1.37-1.723 2.13-4.865 3.554-2.723 1.234-3.028 1.151-3.028 1.151l-.65-1.457s1.586-.701 3.293-1.392c3.53-1.43 4.387-2.522 4-5.083-.547-3.625-3.339-4.188-8.74-1.759-.627.282-1.418.565-1.418.565l-.37-.73c.085-.072 4.325-2.301 6.701-2.854.371-.053.72-.079 1.047-.076Zm-75.914.656 2.777.919-2.025 1.997-.752-2.916Zm123.705.779c2.454-.007 4.476.408 4.47 1.285-.003.417-.097.454-2.3.76-3.35.466-8.949 3.333-12.098 5.994-1.865 1.576-1.382 1.21-.596-1.075.781-2.273 1.948-4.986 2.58-5.4 1.577-1.034 5.163-1.556 7.944-1.564Zm-40.126.313 2.361.519-1.536 1.494-.825-2.013Zm-7.916 1.288c.846-.012 1.262.386 1.595 1.198.718 1.754.009 2.786-2.729 3.962-1.24.557-2.348 1.34-3.707 1.59l-1.72-4.633s.543-.2 2.333-.942c2.041-.847 3.383-1.163 4.228-1.175Zm-7.983.561c5.464 15.503 12.15 25.573 19.226 33.917l-1.711 1.074c-7.516-8.918-14.433-19.367-19.417-34.75l1.902-.241Zm60.385.481c.237.025.356.112.314.28-.004.65-9.83 9.994-15.45 14.75-2.56 2.168-2.473 2.15-2.692 1.882-.138-1.61.951-7.358 1.612-8.36 3.753-3.986 9.544-7.23 15.179-8.449.442-.088.8-.127 1.037-.103Zm-52.808.07c-.662.019-1.654.42-2.979.933-1.926.746-2.093 1.646-1.229 2.76.377.487.766.38 2.618-.356 1.89-.751 2.706-1.086 2.82-1.76.165-.985-.378-1.6-1.23-1.577Zm.175.522a.695.695 0 0 1 .655.711c-.002.302-.437.593-.888.59-.16 0-.549.09-.794.343-.243.354-.401.694-.84.61-.254-.049-.726-.065-.91.095-.863.754-1.721.13-1.322-.627.1-.19.45-.288.734-.286.245 0 .804-.056.885-.359.097-.36.65-.46 1.033-.448.418.057.754-.154.863-.329.155-.14.337-.282.51-.296.024-.002.05-.005.074-.004Zm-44.441.121a2.074 2.074 0 0 1 0 4.145 2.07 2.07 0 0 1-2.062-2.074c0-1.144.922-2.07 2.062-2.07Zm-29.868.043 3.128.427-1.97 2.534-1.158-2.961Zm62.457 1.597c1.14 0 2.064.927 2.064 2.07 0 1.145-.924 2.072-2.064 2.072a2.067 2.067 0 0 1-2.064-2.071c0-1.144.924-2.07 2.064-2.07Zm-61.059 2.34 3.395.218-1.944 2.606-1.451-2.824Zm17.92.498c1.141 0 2.063.925 2.063 2.07 0 1.143-.922 2.07-2.062 2.07a2.067 2.067 0 0 1-2.064-2.07c0-1.145.923-2.07 2.064-2.07Zm84.795 1.292c1.416-.023 3.057.12 3.057.12l-.398 1.592c-1.725.165-3.941-.315-5.793.462.688 1.128 4.716 2.723 5.162 3.12.042.168-.332 1.687-.332 1.687.108.388-6.818-2.82-7.048-5.526.006-.918 2.993-1.417 5.352-1.455Zm-23.822 1.654c3.936.036 5.879 5.548 4.35 7.988-.606 1.103-1.973 2.41-3.776 3.563-.867.554-3.163 1.683-3.163 1.683l-1.031-1.6s.916-.368 1.779-.84c2.168-1.229 6.565-3.847 4.439-7.41-1.194-1.93-2.98-2.305-6.69-.416-2.77 1.411-3.4 1.543-3.4 1.543l-.704-1.278c.185.106 5.53-3.12 8.196-3.233Zm12.679.206c1.88 3.647 5.096 6.403 5.974 7.065 0 0-3.203 2.062-5.116 3.376l-1.122-1.325 2.746-2.364-3.094-4.329.612-2.423Zm-89.517.368 3.09.006-1.321 2.794-1.77-2.8Zm119.67.513c-.348 1.801-.401 3.712-.549 5.816.678.62 1.287.932 1.82.896.598-1.892 1.027-4.042.742-6.255-.566-.443-1.31-.392-2.012-.457Zm.933.541a.38.38 0 0 1 .256.016c.386.187.353.464.362.812-.01 1.188.155 2.67-.352 3.816-.288.652-.946.407-.97-.48-.03-1.198.213-2.205.283-3.297.03-.467.187-.794.42-.867Zm-44 1.644c2.029.152 2.81 1.854 2.062 3.076-1.834 2.35-3.709 2.776-6.113 4.135l-2.4-4.501s4.672-2.646 6.45-2.71Zm-.057 1.005c-1.341.158-2.189.815-3.317 1.37-1.381.678-1.83 1.728-.893 2.68 1.033 1.155 4.642-1.598 5.238-2.263.366-.572.305-1.093-.21-1.504-.224-.178-.5-.28-.818-.283Zm-74.012.191 3.024.033-1.635 2.316-1.389-2.349Zm73.946.357c.131.01.25.051.342.117.515.366.47 1.021-.254 1.207-.368.094-1 .098-1.014.589-.01.365-.568.502-.886.45-.324-.054-.874-.082-.98.327-.278.556-.487.565-.876.177-.418-.423-.222-.958.594-1.048a1.02 1.02 0 0 0 .775-.561c-.019-.347.224-.55.608-.47.542-.005.897-.207 1.283-.714a.814.814 0 0 1 .408-.074Zm-17.344.177c1.14 0 2.064.925 2.064 2.069a2.07 2.07 0 0 1-2.064 2.074c-1.14 0-2.062-.93-2.062-2.074 0-1.144.922-2.07 2.062-2.07Zm-44.07 3.808c1.14 0 2.068.93 2.068 2.075a2.066 2.066 0 1 1-4.133 0 2.07 2.07 0 0 1 2.065-2.075Zm86.919 1.753.015 1.559c.053.07-3.214 1.515-5.127 2.384-.62.34-.377 1-.34 1.679l-.92.625s-1.274-.931-1.44-1.529c-.467-1.887 5.524-4.147 7.812-4.718Zm-136.303.084 23.639 16.215-1.616 2.364-21.955-14.975-.068-3.604Zm118.683.528c1.538 0 2.723.888 3.87 2.678 2.279 3.555 1.137 6.357-3.58 9.222-2.192 1.33-2.209 1.346-2.209 1.346l-1.115-1.38s1.597-.942 2.257-1.359c3.878-2.457 4.97-4.63 3.265-7.079-1.643-2.359-3.37-2.171-8.159.885-.968.617-2.126 1.102-2.126 1.102l-1.05-1.432s2.71-1.397 3.635-1.986c2.121-1.36 3.854-1.998 5.212-1.997Zm-16.507 1.063a2.07 2.07 0 0 1 2.068 2.071 2.074 2.074 0 0 1-2.068 2.075 2.07 2.07 0 0 1-2.065-2.075c0-1.144.924-2.07 2.065-2.07Zm-64.038.581c1.14 0 2.062.927 2.062 2.07a2.064 2.064 0 1 1-4.127 0c0-1.143.924-2.07 2.065-2.07Zm80.458 1.654c.783-.029 1.37.483 1.691 1.266.82 2.003-.294 3.486-4.333 5.756-.339.19-1.056.579-1.056.579l-2.975-4.12s1.047-.722 2.035-1.315c2.212-1.452 3.63-2.13 4.638-2.166Zm-.397.985c-.19.005-.409.08-.664.228-1.037.6-2.77 1.25-3.587 2.336-.478.664-.262 1.324.645 2.176.768.51 4.733-2.418 4.832-3.269-.336-.9-.654-1.486-1.226-1.47Zm-118.03.224.66.445-.66.522v-.967Zm118.07.497c.243.013.473.084.591.224.293.358.117.967-.504 1.073-.314.054-.777.14-.927.604-.125.306-.552.566-.973.555-.486-.112-.743.183-.769.398-.24.41-.833.477-1.194.091-.282-.3.223-1.164.555-1.15.06.027.424.109.866-.484.09-.43.59-.695.952-.68.368.126.585-.282.732-.508.17-.09.427-.136.67-.123Zm-116.499.538.95.643-2.52 1.794v-1.446l1.57-.991Zm1.841 1.207 1.294.867-4.706 3.38v-1.833l3.412-2.414Zm2.412 1.543 1.364.906-7.188 4.87v-1.878l5.824-3.898Zm2.589 1.317v1.566l-8.413 5.89v-1.587l8.413-5.869Zm.95 1.126 1.812 1.243.454 53.096-11.336 7.811.01-2.321 9.518-6.9-.458-52.93Zm136.733 1.436c-2.54 2.91-5.952 3.106-8.925 3.027-8.012.112-12.986.542-14.016 10.125 3.265-2.447 6.725-2.765 10.732-2.65 5.075-.006 7.358-.34 9.42-1.373 3.314-1.658 5.411-4.627 5.011-6.71-.393-.45-1.423-2.308-2.222-2.42Zm-137.683.465v1.837l-8.413 5.653v-1.866l8.413-5.624Zm96.062.17a2.07 2.07 0 0 1 0 4.139 2.064 2.064 0 0 1-2.062-2.069c0-1.144.922-2.07 2.062-2.07Zm-54.918.212c14.864.463 46.431.284 46.431.284l1.684 2.433-49.634-.522 1.519-2.195Zm96.88.088c.454-.03.515.583-.424 1.507-1.779 1.75-3.624 2.606-9.47 2.501-6.176-.11-8.583.867-10.181 3.625-.465.802-.455 1.115.217.509.564-.673 1.848-1.97 2.38-.742 1.048-.689 1.956-1.737 2.504-.411.305-.068 2.084-1.857 2.505-.273.85-.954 1.58-1.252 1.98.101 1.209-.575 1.85-1.664 2.538-.16.974-.699 1.712-1.572 2.28-.241.83-.245 1.677-1.773 2.157-.555.09.03 3.092-1.782 3.942-3.575.698-1.58 1.339-.531.546 1.083-2.036 3.956-5.517 5.4-13.509 5.412-4.85.005-6.858.482-8.381 1.373-2.447 1.431-1.128-2.172.586-4.357 2.16-2.755 4.624-3.568 11.373-3.322 3.689.022 6.046-.49 7.043-1.297.846-.685 1.458-1.148 1.913-1.178Zm-109.64.837c1.14 0 2.069.931 2.069 2.075a2.07 2.07 0 0 1-2.068 2.07 2.067 2.067 0 0 1-2.065-2.07 2.07 2.07 0 0 1 2.065-2.075Zm-28.384 1.535v1.868l-8.413 5.758v-1.909l8.413-5.717Zm40.676.896h6.527v6.91h-6.527v-6.91Zm14.627 0h7.024v6.91h-7.024v-6.91Zm15.635.222h6.778v6.687h-6.778v-6.687Zm14.686.135 4.511.155s2.506 3.197 3.564 4.672l-3.337 1.716-4.738.01v-6.553Zm-41.81.47a2.3 2.3 0 0 0-2.3 2.302 2.303 2.303 0 0 0 2.3 2.306c1.27 0 2.3-1.033 2.3-2.306a2.3 2.3 0 0 0-2.3-2.303Zm15.01.227a2.3 2.3 0 0 0-2.3 2.302 2.303 2.303 0 0 0 2.3 2.307c1.27 0 2.3-1.033 2.3-2.307a2.3 2.3 0 0 0-2.3-2.302Zm15.351.06a2.3 2.3 0 0 0-2.3 2.3 2.307 2.307 0 0 0 2.3 2.31 2.305 2.305 0 0 0 0-4.61Zm-36.638.468c.454.324.752.848.752 1.45a1.787 1.787 0 0 1-2.729 1.519l1.977-2.97Zm6.277.023a1.524 1.524 0 1 1 .001 3.048 1.524 1.524 0 0 1-.001-3.048Zm37.865.059c1.02 0 1.847.83 1.847 1.852a1.844 1.844 0 1 1-3.688 0c0-1.022.822-1.852 1.841-1.852Zm7.776.004a2.3 2.3 0 0 0-2.3 2.302 2.303 2.303 0 0 0 2.3 2.306 2.305 2.305 0 0 0 0-4.608Zm-38.191.068c1.02 0 1.844.83 1.844 1.852a1.849 1.849 0 0 1-1.844 1.853c-1.02 0-1.843-.83-1.843-1.853 0-1.022.823-1.852 1.843-1.852Zm7.56.097c.84 0 1.524.68 1.524 1.524 0 .842-.683 1.527-1.524 1.527a1.526 1.526 0 0 1 0-3.05Zm-58.824.028v1.858l-8.413 5.894v-1.827l8.413-5.925Zm74.175.03a1.527 1.527 0 0 1 0 3.052c-.84.001-1.524-.685-1.524-1.528s.684-1.523 1.524-1.523Zm-7.696.193c1.02 0 1.845.83 1.845 1.853a1.847 1.847 0 1 1-3.692 0 1.85 1.85 0 0 1 1.847-1.853Zm22.976.363c.841 0 1.525.68 1.525 1.523 0 .843-.684 1.527-1.525 1.527a1.526 1.526 0 0 1 0-3.05Zm-65.432 1.601c3.918-.046 8.158 1.95 10.549 5.261 3.619 4.853 6.037 11.041 7.135 19.164.544 4.023 2.414 16.103 3.476 18.957l-1.46-.28c-.198.094-2.074-7.598-3.255-17.758-.438-3.762-1.234-8.62-3.412-13.053-2.487-5.06-6.711-10.425-12.344-10.851-3.285-.249-6.368 1.817-6.7 4.725-.473 2.298.87 4.437 2.632 5.154 1.73.705 3.798.18 4.03-2.185.04-.389 0-.78-.144-1.142.8-.13 1.41.232 1.736.91.17.021.007 3.43-2.667 4.1-3.225 1.06-6.948-2.142-7.237-5.405-.221-2.749 1.865-6.145 4.493-7.065a9.933 9.933 0 0 1 3.168-.532Zm-24.023 1.058v1.895l-8.413 5.822v-1.909l8.413-5.808Zm24.207 1.204c4.706-.135 9.287 5.128 11.227 8.594 2.025 3.617 3.629 9.363 4.181 14.769.94 9.195 2.696 16.714 3.067 17.056l-1.284-.28c-.268.18-2.036-8.122-3.113-17.362-.604-5.183-2.522-10.321-4.803-14.28-2.104-3.655-4.943-6.383-8.302-6.78-2.105-.212-4.27.397-4.696 2.62-.225 1.307.456 2.589 2 2.7.365.027.713.055.778.067.817.146-.467 1.477-1.311 1.36-3.017-.422-4.408-4.465-2.03-6.616 1.391-1.258 2.846-1.807 4.286-1.848Zm10.076 1.35 52.844.537s.045.949-3.243.793c-2.797-.133-4.603.258-6.458.855l-41.518-.092-1.625-2.094Zm-34.283.613v1.761l-8.413 5.904v-1.944l8.413-5.721Zm24.559.746c1.015-.014 2.05.249 2.83.701 6.545 3.803 9.046 13.242 9.908 19.184 1.175 8.8 2.532 16.975 2.91 17.176l-1.427-.323c-.19.007-1.75-7.623-2.722-16.172-.787-6.91-3.144-13.851-7.817-16.771-3-2.047-3.588-2.253-4.976-1.058-1.197 1.03-2.414-.521-1.411-1.784.691-.65 1.69-.939 2.705-.953Zm-24.559 2.384v1.446l-8.413 5.875v-1.713l8.413-5.608Zm38.462.037c.108-.1 4.547 7.459 5.95 19.372.739 6.274 2.852 16.97 3.19 17.057l-1.537-.164c-1.573-6.308-2.442-12.278-3.282-17.66-.951-6.088-1.714-11.498-5.496-18.556l1.17-.039c0-.005.003-.008.005-.01Zm1.008.065 1.375.02c2.35 4.488 4.85 11.46 5.713 18.448.746 6.036 1.5 12.177 3.653 18.57l-1.474-.408c-1.85-5.189-2.506-11.46-3.501-17.96-1.1-7.184-2.826-13.44-5.766-18.67Zm8.48.01c2.404 6.245 3.969 9.223 5.067 16.91.853 5.965 2.057 13.426 4.797 21.33l-1.39-.06c-2.031-5.456-3.586-12.762-4.298-19.78-.968-9.533-5.235-18.433-5.275-18.377l1.1-.023Zm-2.367.023c.13-.194 4.585 8.745 5.616 18.57.687 6.536 2.212 13.005 4.306 19.25l-1.422-.032c-1.642-1.905-2.872-10.933-4.227-19.36-1.384-8.601-3.333-13.892-5.496-18.414h1.22c0-.008.001-.012.003-.015v.001Zm-3.59.01 1.262.006c3.304 7.242 4.676 11.55 5.694 18.554 1.287 8.857 2.522 16.847 3.89 18.928l-1.542-.101c-2.129-6.384-3.088-12.763-3.844-19.147-.818-6.912-2.798-12.834-5.46-18.24Zm6.97.058 1.5.024c2.585 5.251 4.733 11.639 5.49 18.941.416 3.96 1.143 10.039 4.108 19.415l-1.2-.076c-2.43-6.288-3.888-13.69-4.758-20.145-.878-6.51-2.43-11.884-5.14-18.159Zm9.237.043c1.417 3.642 2.584 7.26 3.35 10.983l-.848 1.66c-1.33-4.915-2.825-8.74-4.313-12.617l1.811-.026Zm-6.841.006 1.827.043c3.139 7.307 4.752 15.034 5.193 17.627 0 0 .434 2.294.462 3.047-.105 6.385.996 10.94 3.366 17.806l-1.086-.078c-2.75-7.98-3.49-13.648-4.193-19.063-.582-6.807-2.79-13.822-5.57-19.382Zm4.22.057c1.87 4.683 3.295 9.2 4.593 13.719-.06 1.026-.157 2.15-.824 2.98-1.525-5.527-2.811-11.273-5.168-16.69l1.399-.01Zm3.45.039 1.447.025 2.882 8.283-1.128 1.252c-.847-2.742-1.713-5.757-3.2-9.56Zm8.443.058 1.056 2.492-1.138.966s-1.162-2.33-1.466-3.429l1.548-.029Zm2.146 0 .53 1.436-.956.73-.742-2.137 1.168-.029Zm-8.283.03 1.49.01c.6 1.74 2.202 6 2.202 6l-1.07 1.127s-2.017-5.386-2.622-7.137Zm2.309 0 1.32.013c.398 1.13 1.636 4.262 1.636 4.262l-.913.869-2.043-5.145Zm6.908.058 1.307.062-.154.324-.815.407-.338-.793Zm-42.851 1.843c5.472 2.893 6.982 11.56 7.576 16.325 1.035 8.315 2.197 15.08 2.443 15.262l-1.214-.195s-.898-4.272-1.519-8.337c-.517-3.382-.916-6.213-1.056-7.509-.087-.81-.223-1.753-.3-2.094-.763-3.416-1.01-4.197-1.995-6.276-.947-1.996-1.28-2.497-2.853-4.276-.604-.683-1.193-1.181-1.399-1.619-.294-.625.317-1.281.317-1.281Zm-27.701.444v1.634l-8.413 5.959v-1.868l8.413-5.725Zm0 2.867v1.882l-8.413 5.565v-1.667l8.413-5.78Zm0 3.206v1.746l-8.413 5.88v-1.803l8.413-5.823Zm14.049 1.765h.741l.053 1.223-1.146-.072.352-1.15Zm-14.049 1.51v1.866l-8.413 5.571v-1.741l8.413-5.696Zm13.18.71 1.78.02-.02 1.282-2.286-.078.527-1.223Zm-1.03 2.056 2.92.052v1.22l-3.62-.059.7-1.213Zm-12.15.265v1.96l-8.413 5.61v-1.97l8.413-5.6Zm10.66 2.037 4.276.047-.025 1.02-5.106-.032.855-1.035Zm-10.66 1.136v1.915l-8.413 5.401v-1.722l8.413-5.594Zm8.875.91 5.873.081-.146.986-6.696-.03.97-1.037Zm-8.875 2.084v1.84l-8.413 5.496v-1.77l8.413-5.566Zm6.673 0 7.727.177 1.63 1.486-12.03.073 2.673-1.736Zm-2.338 2.717 13.285.164.926.86-14.256.053.045-1.077Zm-4.335.421v1.954l-8.413 5.526v-1.784l8.413-5.696Zm4.348 1.716 14.725.068-1.067 1.185-13.677.039.02-1.292Zm-4.348 1.48v1.789l-8.413 5.727v-2.055l8.413-5.46Zm3.981.934 12.728.043-1.493 1.174-8.796.205-2.439-1.422Zm-3.981 2.209v1.708l-8.413 6.044v-1.914l8.413-5.838Zm7.704.218 7.473.033.14 1.007-6.426-.016-1.187-1.024Zm2.068 2.074 5.737.059.27 1.3-5.106-.067-.9-1.292Zm-9.772.91v1.586l-8.413 5.89v-1.755l8.413-5.721Zm15.905 1.301.066 1.237-3.422.13-.965-1.295 4.321-.072Zm-.029 2.195-.03 1.302-2.386.037-.536-1.253 2.952-.085Zm-2.123 2.317 1.882.013-.159 1.001-1.457.02-.266-1.034Zm.566 2.403h.916l-.155.783h-.468l-.293-.783Zm18.61 13.24-.439.565h13.151l.144-.565H65.857Zm16.956 0-.233.764h5.934l.166-.764h-5.867Zm9.694.15-.182.721h15.17l-.25-.72H92.507Zm18.152 0 .31.875h5.105l-.338-.875h-5.077Zm17.614 0-8.96.004.322.978h9.268l-.63-.982Z" id="path3500-9-6-1" fill="#000"/><path d="M52.358 57.876s-4.645-7.63-10.912-16.603c-4.192-6.004-7.543-12.505-7.855-18.105-.357-6.397 3.026-12.814 9.15-13.125 6.121-.311 8.606 4.932 9.617 9.255 1.012-4.323 3.496-9.566 9.617-9.255 6.125.31 9.508 6.728 9.15 13.125-.31 5.6-3.662 12.101-7.855 18.105-6.266 8.972-10.912 16.603-10.912 16.603Z" id="path163-0-2-5-8-7-5-0-7-4" fill="#D40000"/><path d="M155.429 207.817s-4.646 7.63-10.912 16.603c-4.192 6.004-7.544 12.505-7.855 18.105-.358 6.396 3.025 12.814 9.15 13.125 6.121.31 8.606-4.932 9.617-9.255 1.011 4.323 3.496 9.566 9.617 9.255 6.125-.311 9.508-6.729 9.15-13.125-.311-5.6-3.663-12.101-7.855-18.105-6.267-8.972-10.912-16.603-10.912-16.603Z" id="path163-0-2-5-8-7-7-8-0-0-6" fill="#D40000"/></g></g></g></svg>