<svg width="227" height="315" xmlns="http://www.w3.org/2000/svg"><g id="Page-1" stroke="none" stroke-width="1" fill="none" fill-rule="evenodd"><g id="Hearts" transform="translate(9 25)" fill="#D40000"><g id="2" transform="translate(1 9)"><path d="M9.367 37.685s-2.215-3.18-5.202-6.917c-2-2.502-3.597-5.21-3.746-7.544-.17-2.666 1.443-5.34 4.363-5.47 2.918-.129 4.103 2.056 4.585 3.857.482-1.801 1.667-3.986 4.585-3.856 2.92.13 4.533 2.803 4.363 5.469-.149 2.333-1.747 5.042-3.746 7.544-2.987 3.738-5.202 6.917-5.202 6.917Z" id="path9766-0-8"/><path d="M197.319 209s-2.215 3.18-5.202 6.918c-2 2.502-3.597 5.21-3.746 7.544-.17 2.665 1.443 5.34 4.363 5.469 2.918.13 4.103-2.055 4.585-3.856.482 1.8 1.667 3.985 4.585 3.856 2.92-.13 4.533-2.804 4.363-5.469-.149-2.333-1.747-5.042-3.745-7.544-2.988-3.738-5.203-6.918-5.203-6.918Z" id="path9768-3-3"/><path d="M103.343 48.373S98.697 40.742 92.43 31.77c-4.193-6.004-7.544-12.505-7.856-18.105C84.218 7.268 87.601.85 93.725.54c6.122-.311 8.606 4.932 9.618 9.254C104.354 5.472 106.839.23 112.96.54c6.124.31 9.507 6.728 9.15 13.125-.312 5.6-3.663 12.1-7.855 18.105-6.267 8.972-10.912 16.603-10.912 16.603Z" id="path9772-1-7"/><path d="M103.343 198.313s-4.646 7.63-10.912 16.603c-4.193 6.004-7.544 12.505-7.856 18.105-.357 6.397 3.026 12.814 9.15 13.125 6.122.311 8.606-4.932 9.618-9.255 1.011 4.323 3.496 9.566 9.617 9.255 6.124-.31 9.507-6.728 9.15-13.125-.312-5.6-3.663-12.101-7.855-18.105-6.267-8.972-10.912-16.603-10.912-16.603Z" id="path9786-2-1"/></g></g></g></svg>