<svg width="227" height="315" xmlns="http://www.w3.org/2000/svg"><g id="Page-1" stroke="none" stroke-width="1" fill="none" fill-rule="evenodd"><g id="Hearts" transform="translate(9 25)" fill="#D40000"><g id="3" transform="translate(1 10)"><path d="M9.214 37.685s-2.215-3.18-5.203-6.917C2.013 28.266.415 25.558.266 23.224c-.17-2.666 1.443-5.34 4.363-5.47 2.918-.129 4.103 2.056 4.585 3.857.482-1.801 1.667-3.986 4.585-3.856 2.92.13 4.533 2.803 4.362 5.469-.148 2.333-1.746 5.042-3.745 7.544-2.987 3.738-5.202 6.917-5.202 6.917Z" id="path9834-5-2"/><path d="M197.166 209s-2.215 3.18-5.202 6.918c-2 2.502-3.597 5.21-3.746 7.544-.17 2.665 1.443 5.34 4.363 5.469 2.918.13 4.103-2.055 4.585-3.856.482 1.8 1.667 3.985 4.585 3.856 2.92-.13 4.533-2.804 4.363-5.469-.149-2.333-1.747-5.042-3.746-7.544-2.987-3.738-5.202-6.918-5.202-6.918Z" id="path9836-5-8"/><path d="M103.19 48.373s-4.646-7.631-10.912-16.603c-4.193-6.004-7.544-12.505-7.856-18.105C84.065 7.268 87.448.85 93.572.54c6.122-.311 8.606 4.932 9.617 9.254 1.012-4.322 3.497-9.565 9.618-9.254 6.124.31 9.507 6.728 9.15 13.125-.312 5.6-3.663 12.1-7.855 18.105-6.267 8.972-10.913 16.603-10.913 16.603Z" id="path9840-3-6"/><path d="M103.19 147.266s-4.646-7.63-10.913-16.603c-4.192-6.004-7.543-12.505-7.855-18.105-.357-6.397 3.026-12.814 9.15-13.125 6.122-.311 8.606 4.932 9.617 9.255 1.012-4.323 3.497-9.566 9.618-9.255 6.124.31 9.507 6.728 9.15 13.125-.312 5.6-3.663 12.101-7.855 18.105-6.267 8.972-10.913 16.603-10.913 16.603Z" id="path9850-2-3"/><path d="M103.19 198.313s-4.646 7.63-10.912 16.603c-4.193 6.004-7.544 12.505-7.856 18.105-.357 6.397 3.026 12.814 9.15 13.125 6.122.311 8.606-4.932 9.617-9.255 1.012 4.323 3.497 9.566 9.618 9.255 6.124-.31 9.507-6.728 9.15-13.125-.312-5.6-3.663-12.101-7.855-18.105-6.267-8.972-10.913-16.603-10.913-16.603Z" id="path9854-8-0"/></g></g></g></svg>