<svg width="227" height="315" xmlns="http://www.w3.org/2000/svg"><g id="Page-1" stroke="none" stroke-width="1" fill="none" fill-rule="evenodd"><g id="Hearts" transform="translate(9 25)" fill="#D40000"><g id="4" transform="translate(1 10)"><path d="M9.06 37.685c0-.003-2.214-3.18-5.202-6.917C1.86 28.266.262 25.558.113 23.224c-.17-2.666 1.443-5.34 4.363-5.47 2.918-.129 4.102 2.056 4.585 3.857.482-1.801 1.666-3.986 4.585-3.856 2.92.13 4.533 2.803 4.362 5.469-.148 2.333-1.746 5.042-3.745 7.544-2.988 3.738-5.2 6.915-5.202 6.917Z" id="path9902-6-7"/><path d="M197.013 209c0 .003-2.215 3.18-5.203 6.918-1.998 2.502-3.596 5.21-3.745 7.544-.17 2.665 1.443 5.34 4.363 5.469 2.918.13 4.102-2.055 4.585-3.856.482 1.8 1.667 3.985 4.585 3.856 2.92-.13 4.533-2.804 4.362-5.469-.148-2.333-1.746-5.042-3.745-7.544-2.988-3.738-5.2-6.915-5.202-6.918Z" id="path9904-6-0"/><path d="M51.5 48.373c0-.006-4.645-7.631-10.911-16.603-4.192-6.004-7.544-12.505-7.856-18.105C32.376 7.268 35.76.85 41.883.54c6.122-.311 8.607 4.932 9.618 9.254C52.512 5.472 54.997.23 61.118.54c6.125.31 9.508 6.728 9.15 13.125-.311 5.6-3.663 12.1-7.855 18.105-6.267 8.972-10.908 16.597-10.912 16.603Z" id="path9910-2-6"/><path d="M154.572 48.373c0-.006-4.646-7.631-10.912-16.603-4.193-6.004-7.544-12.505-7.856-18.105C135.447 7.268 138.83.85 144.954.54c6.122-.311 8.606 4.932 9.618 9.254 1.011-4.322 3.496-9.565 9.617-9.254 6.125.31 9.508 6.728 9.15 13.125-.311 5.6-3.663 12.1-7.855 18.105-6.267 8.972-10.908 16.597-10.912 16.603Z" id="path9916-8-0"/><path d="M154.572 198.313c0 .006-4.646 7.63-10.912 16.603-4.193 6.004-7.544 12.505-7.856 18.105-.357 6.397 3.026 12.814 9.15 13.125 6.122.311 8.606-4.932 9.618-9.255 1.011 4.323 3.496 9.566 9.617 9.255 6.125-.31 9.508-6.728 9.15-13.125-.311-5.6-3.663-12.101-7.855-18.105-6.267-8.972-10.908-16.597-10.912-16.603Z" id="path9930-7-9"/><path d="M51.5 198.313c0 .006-4.645 7.63-10.911 16.603-4.192 6.004-7.544 12.505-7.856 18.105-.357 6.397 3.026 12.814 9.15 13.125 6.122.311 8.607-4.932 9.618-9.255 1.011 4.323 3.496 9.566 9.617 9.255 6.125-.31 9.508-6.728 9.15-13.125-.311-5.6-3.663-12.101-7.855-18.105-6.267-8.972-10.908-16.597-10.912-16.603Z" id="path9932-9-8"/></g></g></g></svg>