<svg width="227" height="315" xmlns="http://www.w3.org/2000/svg"><g id="Page-1" stroke="none" stroke-width="1" fill="none" fill-rule="evenodd"><g id="Hearts" transform="translate(9 25)" fill="#D40000"><g id="6" transform="translate(0 10)"><path d="M9.754 37.685s-2.214-3.18-5.202-6.917C2.553 28.266.955 25.558.807 23.224c-.17-2.666 1.442-5.34 4.362-5.47 2.919-.129 4.103 2.056 4.585 3.857.483-1.801 1.667-3.986 4.585-3.856 2.92.13 4.533 2.803 4.363 5.469-.149 2.333-1.747 5.042-3.745 7.544a146.776 146.776 0 0 0-5.203 6.917Z" id="path10038-5-0"/><path d="M197.706 209s-2.214 3.18-5.202 6.918c-1.999 2.502-3.597 5.21-3.745 7.544-.17 2.665 1.442 5.34 4.362 5.469 2.919.13 4.103-2.055 4.585-3.856.483 1.8 1.667 3.985 4.585 3.856 2.92-.13 4.533-2.804 4.363-5.469-.149-2.333-1.747-5.042-3.745-7.544-2.988-3.738-5.203-6.918-5.203-6.918Z" id="path10040-7-6"/><path d="M52.195 48.373s-4.646-7.631-10.912-16.603c-4.193-6.004-7.544-12.505-7.856-18.105C33.07 7.268 36.453.85 42.577.54c6.122-.311 8.606 4.932 9.618 9.254C53.206 5.472 55.69.23 61.812.54c6.124.31 9.507 6.728 9.15 13.125-.312 5.6-3.663 12.1-7.855 18.105-6.267 8.972-10.912 16.603-10.912 16.603Z" id="path10046-1-1"/><path d="M155.265 147.266s-4.645-7.63-10.912-16.603c-4.192-6.004-7.543-12.505-7.855-18.105-.357-6.397 3.026-12.814 9.15-13.125 6.121-.311 8.606 4.932 9.617 9.255 1.012-4.323 3.496-9.566 9.617-9.255 6.125.31 9.508 6.728 9.15 13.125-.31 5.6-3.662 12.101-7.855 18.105-6.266 8.972-10.912 16.603-10.912 16.603Z" id="path10048-2-0"/><path d="M155.265 48.373s-4.645-7.631-10.912-16.603c-4.192-6.004-7.543-12.505-7.855-18.105-.357-6.397 3.026-12.814 9.15-13.125 6.121-.311 8.606 4.932 9.617 9.254 1.012-4.322 3.496-9.565 9.617-9.254 6.125.31 9.508 6.728 9.15 13.125-.31 5.6-3.662 12.1-7.855 18.105-6.266 8.972-10.912 16.603-10.912 16.603Z" id="path10052-3-1"/><path d="M52.195 147.266s-4.646-7.63-10.912-16.603c-4.193-6.004-7.544-12.505-7.856-18.105-.357-6.397 3.026-12.814 9.15-13.125 6.122-.311 8.606 4.932 9.618 9.255 1.011-4.323 3.496-9.566 9.617-9.255 6.124.31 9.507 6.728 9.15 13.125-.312 5.6-3.663 12.101-7.855 18.105-6.267 8.972-10.912 16.603-10.912 16.603Z" id="path10056-4-2"/><path d="M155.265 198.313s-4.645 7.63-10.912 16.603c-4.192 6.004-7.543 12.505-7.855 18.105-.357 6.397 3.026 12.814 9.15 13.125 6.121.311 8.606-4.932 9.617-9.255 1.012 4.323 3.496 9.566 9.617 9.255 6.125-.31 9.508-6.728 9.15-13.125-.31-5.6-3.662-12.101-7.855-18.105-6.266-8.972-10.912-16.603-10.912-16.603Z" id="path10066-9-2"/><path d="M52.195 198.313s-4.646 7.63-10.912 16.603c-4.193 6.004-7.544 12.505-7.856 18.105-.357 6.397 3.026 12.814 9.15 13.125 6.122.311 8.606-4.932 9.618-9.255 1.011 4.323 3.496 9.566 9.617 9.255 6.124-.31 9.507-6.728 9.15-13.125-.312-5.6-3.663-12.101-7.855-18.105-6.267-8.972-10.912-16.603-10.912-16.603Z" id="path10068-1-2"/></g></g></g></svg>