<svg width="227" height="315" xmlns="http://www.w3.org/2000/svg"><g id="Page-1" stroke="none" stroke-width="1" fill="none" fill-rule="evenodd"><g id="Hearts" transform="translate(9 25)" fill="#D40000"><g id="7" transform="translate(0 10)"><path d="M9.601 37.685s-2.215-3.18-5.202-6.917C2.4 28.266.802 25.558.654 23.224c-.17-2.666 1.442-5.34 4.362-5.47 2.918-.129 4.103 2.056 4.585 3.857.482-1.801 1.667-3.986 4.585-3.856 2.92.13 4.533 2.803 4.363 5.469-.149 2.333-1.747 5.042-3.745 7.544-2.988 3.738-5.203 6.917-5.203 6.917Z" id="path10106-2-3"/><path d="M197.553 209s-2.215 3.18-5.202 6.918c-1.999 2.502-3.597 5.21-3.745 7.544-.17 2.665 1.442 5.34 4.362 5.469 2.918.13 4.103-2.055 4.585-3.856.482 1.8 1.667 3.985 4.585 3.856 2.92-.13 4.533-2.804 4.363-5.469-.149-2.333-1.747-5.042-3.745-7.544-2.988-3.738-5.203-6.918-5.203-6.918Z" id="path10108-3-1"/><path d="M103.577 97.82s-4.646-7.632-10.912-16.604c-4.192-6.004-7.544-12.505-7.856-18.105-.357-6.396 3.026-12.814 9.15-13.125 6.122-.31 8.606 4.932 9.618 9.255 1.011-4.323 3.496-9.566 9.617-9.255 6.125.311 9.508 6.729 9.15 13.125-.311 5.6-3.663 12.101-7.855 18.105-6.267 8.972-10.912 16.603-10.912 16.603Z" id="path10110-3-5"/><path d="M52.041 48.373S47.396 40.742 41.13 31.77c-4.192-6.004-7.543-12.505-7.855-18.105C32.917 7.268 36.3.85 42.424.54c6.121-.311 8.606 4.932 9.617 9.254C53.053 5.472 55.537.23 61.658.54c6.125.31 9.508 6.728 9.15 13.125-.31 5.6-3.662 12.1-7.855 18.105-6.266 8.972-10.912 16.603-10.912 16.603Z" id="path10114-8-3"/><path d="M155.112 147.266s-4.645-7.63-10.912-16.603c-4.192-6.004-7.544-12.505-7.855-18.105-.358-6.397 3.025-12.814 9.15-13.125 6.121-.311 8.606 4.932 9.617 9.255 1.012-4.323 3.496-9.566 9.617-9.255 6.125.31 9.508 6.728 9.15 13.125-.311 5.6-3.663 12.101-7.855 18.105-6.266 8.972-10.912 16.603-10.912 16.603Z" id="path10116-2-5"/><path d="M155.112 48.373s-4.645-7.631-10.912-16.603c-4.192-6.004-7.544-12.505-7.855-18.105C135.987 7.268 139.37.85 145.495.54c6.121-.311 8.606 4.932 9.617 9.254C156.124 5.472 158.608.23 164.73.54c6.125.31 9.508 6.728 9.15 13.125-.311 5.6-3.663 12.1-7.855 18.105-6.266 8.972-10.912 16.603-10.912 16.603Z" id="path10120-6-5"/><path d="M52.041 147.266s-4.645-7.63-10.912-16.603c-4.192-6.004-7.543-12.505-7.855-18.105-.357-6.397 3.026-12.814 9.15-13.125 6.121-.311 8.606 4.932 9.617 9.255 1.012-4.323 3.496-9.566 9.617-9.255 6.125.31 9.508 6.728 9.15 13.125-.31 5.6-3.662 12.101-7.855 18.105-6.266 8.972-10.912 16.603-10.912 16.603Z" id="path10124-1-1"/><path d="M155.112 198.313s-4.645 7.63-10.912 16.603c-4.192 6.004-7.544 12.505-7.855 18.105-.358 6.397 3.025 12.814 9.15 13.125 6.121.311 8.606-4.932 9.617-9.255 1.012 4.323 3.496 9.566 9.617 9.255 6.125-.31 9.508-6.728 9.15-13.125-.311-5.6-3.663-12.101-7.855-18.105-6.266-8.972-10.912-16.603-10.912-16.603Z" id="path10134-7-3"/><path d="M52.041 198.313s-4.645 7.63-10.912 16.603c-4.192 6.004-7.543 12.505-7.855 18.105-.357 6.397 3.026 12.814 9.15 13.125 6.121.311 8.606-4.932 9.617-9.255 1.012 4.323 3.496 9.566 9.617 9.255 6.125-.31 9.508-6.728 9.15-13.125-.31-5.6-3.662-12.101-7.855-18.105-6.266-8.972-10.912-16.603-10.912-16.603Z" id="path10136-5-7"/></g></g></g></svg>