<svg width="227" height="315" xmlns="http://www.w3.org/2000/svg"><g id="Page-1" stroke="none" stroke-width="1" fill="none" fill-rule="evenodd"><g id="Hearts" transform="translate(9 25)" fill="#D40000"><g id="8" transform="translate(1 10)"><path d="M9.444 37.685s-2.215-3.18-5.203-6.917C2.242 28.266.645 25.558.496 23.224c-.17-2.666 1.442-5.34 4.362-5.47 2.919-.129 4.103 2.056 4.586 3.857.482-1.801 1.666-3.986 4.585-3.856 2.92.13 4.533 2.803 4.362 5.469-.148 2.333-1.746 5.042-3.745 7.544-2.988 3.738-5.202 6.917-5.202 6.917Z" id="path10174-9-0"/><path d="M197.396 209c0 .003-2.215 3.18-5.203 6.918-1.999 2.502-3.596 5.21-3.745 7.544-.17 2.665 1.443 5.34 4.363 5.469 2.918.13 4.102-2.055 4.585-3.856.482 1.8 1.666 3.985 4.585 3.856 2.92-.13 4.533-2.804 4.362-5.469-.148-2.333-1.746-5.042-3.745-7.544-2.988-3.738-5.2-6.915-5.202-6.918Z" id="path10176-9-9"/><path d="M103.42 97.82s-4.646-7.632-10.913-16.604c-4.192-6.004-7.544-12.505-7.855-18.105-.358-6.396 3.025-12.814 9.15-13.125 6.121-.31 8.606 4.932 9.617 9.255 1.012-4.323 3.496-9.566 9.617-9.255 6.125.311 9.508 6.729 9.15 13.125-.311 5.6-3.663 12.101-7.855 18.105-6.266 8.972-10.912 16.603-10.912 16.603Z" id="path10178-8-4"/><path d="M51.884 48.373s-4.646-7.631-10.912-16.603c-4.192-6.004-7.544-12.505-7.856-18.105C32.76 7.268 36.142.85 42.266.54c6.122-.311 8.606 4.932 9.618 9.254C52.895 5.472 55.38.23 61.5.54c6.125.31 9.508 6.728 9.15 13.125-.311 5.6-3.663 12.1-7.855 18.105-6.267 8.972-10.912 16.603-10.912 16.603Z" id="path10182-1-9"/><path d="M154.955 147.266s-4.646-7.63-10.912-16.603c-4.193-6.004-7.544-12.505-7.856-18.105-.357-6.397 3.026-12.814 9.15-13.125 6.122-.311 8.606 4.932 9.618 9.255 1.011-4.323 3.496-9.566 9.617-9.255 6.124.31 9.507 6.728 9.15 13.125-.312 5.6-3.663 12.101-7.855 18.105-6.267 8.972-10.912 16.603-10.912 16.603Z" id="path10184-9-1"/><path d="M154.955 48.373s-4.646-7.631-10.912-16.603c-4.193-6.004-7.544-12.505-7.856-18.105C135.83 7.268 139.213.85 145.337.54c6.122-.311 8.606 4.932 9.618 9.254C155.966 5.472 158.45.23 164.572.54c6.124.31 9.507 6.728 9.15 13.125-.312 5.6-3.663 12.1-7.855 18.105-6.267 8.972-10.912 16.603-10.912 16.603Z" id="path10188-5-4"/><path d="M51.884 147.266s-4.646-7.63-10.912-16.603c-4.192-6.004-7.544-12.505-7.856-18.105-.357-6.397 3.026-12.814 9.15-13.125 6.122-.311 8.606 4.932 9.618 9.255 1.011-4.323 3.496-9.566 9.617-9.255 6.125.31 9.508 6.728 9.15 13.125-.311 5.6-3.663 12.101-7.855 18.105-6.267 8.972-10.912 16.603-10.912 16.603Z" id="path10192-3-6"/><path d="M103.42 148.866s-4.646 7.631-10.913 16.603c-4.192 6.004-7.544 12.506-7.855 18.105-.358 6.397 3.025 12.815 9.15 13.126 6.121.31 8.606-4.933 9.617-9.255 1.012 4.322 3.496 9.565 9.617 9.255 6.125-.311 9.508-6.729 9.15-13.126-.31-5.6-3.662-12.1-7.855-18.105-6.266-8.972-10.912-16.603-10.912-16.603Z" id="path10196-7-3"/><path d="M154.955 198.313s-4.646 7.63-10.912 16.603c-4.193 6.004-7.544 12.505-7.856 18.105-.357 6.397 3.026 12.814 9.15 13.125 6.122.311 8.606-4.932 9.618-9.255 1.011 4.323 3.496 9.566 9.617 9.255 6.124-.31 9.507-6.728 9.15-13.125-.312-5.6-3.663-12.101-7.855-18.105-6.267-8.972-10.912-16.603-10.912-16.603Z" id="path10202-2-8"/><path d="M51.884 198.313s-4.646 7.63-10.912 16.603c-4.192 6.004-7.544 12.505-7.856 18.105-.357 6.397 3.026 12.814 9.15 13.125 6.122.311 8.606-4.932 9.618-9.255 1.011 4.323 3.496 9.566 9.617 9.255 6.125-.31 9.508-6.728 9.15-13.125-.311-5.6-3.663-12.101-7.855-18.105-6.267-8.972-10.912-16.603-10.912-16.603Z" id="path10204-9-4"/></g></g></g></svg>