<svg width="227" height="315" xmlns="http://www.w3.org/2000/svg"><g id="Page-1" stroke="none" stroke-width="1" fill="none" fill-rule="evenodd"><g id="Hearts" transform="translate(9 25)" fill="#D40000"><g id="9" transform="translate(1 10)"><path d="M51.73 114.302s-4.645-7.631-10.911-16.603c-4.193-6.004-7.544-12.506-7.856-18.105-.357-6.397 3.026-12.815 9.15-13.126 6.122-.31 8.606 4.933 9.618 9.255 1.011-4.322 3.496-9.565 9.617-9.255 6.124.311 9.508 6.729 9.15 13.126-.311 5.6-3.663 12.1-7.855 18.105-6.267 8.972-10.912 16.603-10.912 16.603Z" id="path10240-7-9"/><path d="M9.29 37.685c0-.003-2.214-3.18-5.202-6.917-1.999-2.502-3.597-5.21-3.745-7.544-.17-2.666 1.442-5.34 4.362-5.47 2.919-.129 4.103 2.056 4.585 3.857.483-1.801 1.667-3.986 4.585-3.856 2.92.13 4.533 2.803 4.363 5.469-.149 2.333-1.746 5.042-3.745 7.544-2.988 3.738-5.2 6.915-5.203 6.917Z" id="path10242-3-8"/><path d="M197.242 209s-2.214 3.18-5.202 6.918c-1.999 2.502-3.596 5.21-3.745 7.544-.17 2.665 1.442 5.34 4.362 5.469 2.919.13 4.103-2.055 4.585-3.856.483 1.8 1.667 3.985 4.586 3.856 2.92-.13 4.532-2.804 4.362-5.469-.148-2.333-1.746-5.042-3.745-7.544-2.988-3.738-5.203-6.918-5.203-6.918Z" id="path10244-4-5"/><path d="M51.73 48.373S47.086 40.742 40.82 31.77c-4.193-6.004-7.544-12.505-7.856-18.105C32.606 7.268 35.99.85 42.113.54c6.122-.311 8.606 4.932 9.618 9.254C52.742 5.472 55.227.23 61.348.54c6.124.31 9.508 6.728 9.15 13.125-.311 5.6-3.663 12.1-7.855 18.105-6.267 8.972-10.912 16.603-10.912 16.603Z" id="path10250-9-0"/><path d="M154.801 114.302s-4.645-7.631-10.912-16.603c-4.192-6.004-7.543-12.506-7.855-18.105-.357-6.397 3.026-12.815 9.15-13.126 6.122-.31 8.606 4.933 9.617 9.255 1.012-4.322 3.496-9.565 9.618-9.255 6.124.311 9.507 6.729 9.15 13.126-.312 5.6-3.663 12.1-7.855 18.105-6.267 8.972-10.913 16.603-10.913 16.603Z" id="path10254-7-3"/><path d="M154.801 48.373s-4.645-7.631-10.912-16.603c-4.192-6.004-7.543-12.505-7.855-18.105C135.677 7.268 139.06.85 145.184.54c6.122-.311 8.606 4.932 9.617 9.254C155.813 5.472 158.297.23 164.42.54c6.124.31 9.507 6.728 9.15 13.125-.312 5.6-3.663 12.1-7.855 18.105-6.267 8.972-10.913 16.603-10.913 16.603Z" id="path10256-4-7"/><path d="M103.266 147.266s-4.645-7.63-10.912-16.603c-4.192-6.004-7.544-12.505-7.855-18.105-.358-6.397 3.025-12.814 9.15-13.125 6.121-.311 8.606 4.932 9.617 9.255 1.012-4.323 3.496-9.566 9.617-9.255 6.125.31 9.508 6.728 9.15 13.125-.311 5.6-3.663 12.101-7.855 18.105-6.266 8.972-10.912 16.603-10.912 16.603Z" id="path10258-5-9"/><path d="M154.801 132.384s-4.645 7.631-10.912 16.603c-4.192 6.004-7.543 12.505-7.855 18.105-.357 6.397 3.026 12.814 9.15 13.125 6.122.311 8.606-4.932 9.617-9.255 1.012 4.323 3.496 9.566 9.618 9.255 6.124-.31 9.507-6.728 9.15-13.125-.312-5.6-3.663-12.101-7.855-18.105-6.267-8.972-10.913-16.603-10.913-16.603Z" id="path10266-8-9"/><path d="M51.73 132.384s-4.645 7.631-10.911 16.603c-4.193 6.004-7.544 12.505-7.856 18.105-.357 6.397 3.026 12.814 9.15 13.125 6.122.311 8.606-4.932 9.618-9.255 1.011 4.323 3.496 9.566 9.617 9.255 6.124-.31 9.508-6.728 9.15-13.125-.311-5.6-3.663-12.101-7.855-18.105-6.267-8.972-10.912-16.603-10.912-16.603Z" id="path10268-2-7"/><path d="M154.801 198.313s-4.645 7.63-10.912 16.603c-4.192 6.004-7.543 12.505-7.855 18.105-.357 6.397 3.026 12.814 9.15 13.125 6.122.311 8.606-4.932 9.617-9.255 1.012 4.323 3.496 9.566 9.618 9.255 6.124-.31 9.507-6.728 9.15-13.125-.312-5.6-3.663-12.101-7.855-18.105-6.267-8.972-10.913-16.603-10.913-16.603Z" id="path10270-1-4"/><path d="M51.73 198.313s-4.645 7.63-10.911 16.603c-4.193 6.004-7.544 12.505-7.856 18.105-.357 6.397 3.026 12.814 9.15 13.125 6.122.311 8.606-4.932 9.618-9.255 1.011 4.323 3.496 9.566 9.617 9.255 6.124-.31 9.508-6.728 9.15-13.125-.311-5.6-3.663-12.101-7.855-18.105-6.267-8.972-10.912-16.603-10.912-16.603Z" id="path10272-0-7"/></g></g></g></svg>