<svg width="227" height="315" xmlns="http://www.w3.org/2000/svg"><g id="Page-1" stroke="none" stroke-width="1" fill="none" fill-rule="evenodd"><g id="Clubs" transform="translate(9 23)" fill="#000"><g id="A" transform="translate(0 28)"><path d="M104.645 82.529c-9.774.212-14.157 11.217-6.918 19.763 1.05 1.247 1.158 1.962-.765.765-4.874-3.26-14.22-1.117-14.698 8.847-.59 12.277 16.563 15.814 19.784 2.76.17-1.378 1.29-1.346 1.02.609-.294 5.306-1.951 10.266-4.23 15.102h11.621c-2.278-4.836-3.935-9.796-4.229-15.102-.27-1.955.85-1.987 1.02-.61 3.22 13.055 20.375 9.518 19.784-2.759-.479-9.964-9.824-12.107-14.698-8.847-1.923 1.197-1.815.482-.765-.765 7.24-8.546 2.856-19.55-6.918-19.763h-.01.002Z" id="path147-0-8-1-6-1-1-0-9-1-8"/><path d="M197.627 211.631c3.91-.088 5.663-4.674 2.767-8.234-.42-.52-.463-.818.306-.319 1.95 1.358 5.688.465 5.88-3.686.236-5.116-6.626-6.59-7.914-1.15-.068.574-.516.56-.408-.254.117-2.211.78-4.278 1.691-6.293h-4.648c.912 2.015 1.574 4.082 1.692 6.293.108.815-.34.828-.408.254-1.288-5.44-8.15-3.966-7.913 1.15.191 4.151 3.93 5.044 5.879 3.686.769-.499.726-.2.306.319-2.896 3.56-1.143 8.146 2.767 8.234h.003Z" id="path147-6-9-8-7-0-5-0-8-3"/><path d="M9.672.444C5.762.532 4.01 5.118 6.905 8.679c.42.52.463.817-.306.318C4.65 7.64.911 8.532.72 12.684c-.236 5.115 6.625 6.589 7.914 1.15.067-.574.515-.561.407.253-.117 2.211-.78 4.278-1.691 6.293h4.648c-.911-2.015-1.574-4.082-1.692-6.293-.108-.814.34-.827.408-.253 1.288 5.439 8.15 3.965 7.914-1.15-.192-4.152-3.93-5.045-5.88-3.687-.769.5-.725.201-.305-.318C15.338 5.118 13.585.532 9.675.444h-.003Z" id="path147-6-9-8-7-4-5-6-8-9"/></g></g></g></svg>