<svg width="227" height="315" xmlns="http://www.w3.org/2000/svg"><g id="Page-1" stroke="none" stroke-width="1" fill="none" fill-rule="evenodd"><g id="Clubs" transform="translate(10 23)"><g id="J" transform="translate(0 2)"><path d="M197.878 237.63c3.91-.088 5.663-4.673 2.768-8.234-.42-.52-.464-.817.305-.318 1.95 1.358 5.688.465 5.88-3.687.236-5.115-6.626-6.59-7.914-1.15-.068.574-.516.561-.408-.253.118-2.211.78-4.278 1.692-6.293h-4.648c.911 2.015 1.574 4.082 1.691 6.293.108.814-.34.827-.407.253-1.289-5.44-8.15-3.965-7.914 1.15.191 4.152 3.93 5.045 5.88 3.687.768-.5.725-.201.305.318-2.896 3.56-1.142 8.146 2.767 8.235h.003Z" id="path147-6-9-8-7-0-5-6-79-2-4" fill="#000"/><path d="M9.923 26.444c-3.91.088-5.663 4.674-2.767 8.235.42.519.463.817-.306.318-1.95-1.358-5.688-.465-5.88 3.686-.236 5.116 6.626 6.59 7.914 1.15.068-.574.516-.56.408.254-.117 2.211-.78 4.278-1.691 6.293h4.648c-.911-2.015-1.574-4.082-1.692-6.293-.108-.814.34-.828.408-.254 1.288 5.44 8.15 3.966 7.913-1.15-.19-4.151-3.93-5.044-5.879-3.686-.769.499-.725.201-.306-.318 2.896-3.561 1.143-8.147-2.767-8.235h-.003Z" id="path147-6-9-8-7-4-5-62-3-3-7" fill="#000"/><path d="M54.753 256.095c-.85 1.22-4.531-7.295-6.894-13.75-1.16-3.17-2.713-5.784-2.072-6.618 1.683-1.711 6.041-.18 9.21 2.264 3.386 2.612 5.777 6.453 5.777 6.453l-6.021 11.651Zm-29.704-6.313-.135-5.007c2.917-2.639 6.54-5.875 10.78-10.8l-11.32-.062c.1-61.54-.09-184.88-.09-184.88S36.866 61.83 36.56 61.878c-.015.002.358 74.518.406 124.646.099.236-6.58.248-7.004 3.528-.28 2.168 7.003 1.868 7.118 2.013-.015 22.532.067 38.438.067 38.438l6.69.22-18.788 19.06Zm39.307-23.197c-.973-1.945-2.521-9.423-3.706-9.244-5.44 1.812-7.193-6.251-1.564-6.667 2.132-.157 4.512 2.633 5.848 6.104.641 1.819-.02 10.535-.578 9.807Zm1.226-11.214c-1.605-2.632-3.14-12.247-6.064-11.702-2.67.61-4.378-1.739-4.118-3.796 1.37-5.778 11.15-.288 13.717 1.043-1.272 2.902-3.069 10.136-3.535 14.455Zm-20.64-27.11c2.238-5.085 1.636-9.261-.263-14.376 5.808-2.497 11.534-5.488 17.259-8.485.034.014.283 20.048-1.612 29.196-.653 1.392-3.006.28-4.364-.398-3.677-1.742-7.627-3.702-11.02-5.937Zm103.084-92.044c-1.185-9.469-.324-24.202 1.357-30.032.646-1.973 14.106 6.925 15.079 7.533-2.652 4.932.973 16.394.578 14.341-.934.656-16.704 9.114-17.014 8.158Zm-5.784-39.296c.253-.607 1.26-7.695 1.57-7.722 1.022-.089 2.52 6.94 5.124 9.26 4.917-.57 5.493 2.776 4.531 4.393.239.71-1.587 2.253-3.292 2.105-4.239-1.663-9.956-3.134-7.933-8.036Zm-56.41-12.1s3.695-20.838 3.711-20.812c9.133-1.325 17.937-2.843 26.078-1.916-1.607 21.659-4.135 40.39-11.074 43.639l14.376 11.609s15.964-9.991 15.052-9.843c-.394.107-.705 8.5-.938 22.07.405 35.42 20.715 71.277 21.503 70.917.43.288-17.302 1.68-30.049-3.832l-.572 46.902s6.317 3.165 7.487 4.63c2.333 8.159-3.957 10.244-7.727 8.204-1.763 6.201-4.444 21.532-4.54 21.526-8.514 1.414-17.32 2.51-26.025 2.011 1.46-7.214 2.385-12.704 2.856-19.958 1.099-10.82 3.307-21.069 8.978-23.504-1.01.402-14.181-11.148-14.181-11.148l-16.001 9.882c5.17-33.753-3.668-66.534-18.92-93.052 7.685-.89 16.389-.467 29.97 3.61 0 0-.763-46.993-.769-46.732-15.025-5.944-6.824-17.516.784-14.204Zm58.433-4.207c.056-.478.275-5.786.275-5.786 2.126 2.505 3.84 9.85 4.263 9.726 0 0 2.73-.43 3.58.478 2.77 2.962.046 6.46-2.722 5.806-2.753-.71-5.78-5.443-5.396-10.224Zm28.242 159.325s-.589-83.339-.574-125.11c10.503.165 8.441-5.694-.14-5.077l-.028-38.513-5.69-.199s10.71-11.226 17.5-18.394l.155 3.645-10.333 11.194 10.7-.019.036 184.798-11.626-12.325ZM154.64 6.374c2.592-.567 5.294 11.435 9.789 18.718-5.108 3.074-13.165-2.773-14.976-7.464 1.18-3.976 5.261-11.212 5.187-11.254Z" id="path3306-4-9-5" fill="#E2CF00" transform="rotate(180 104.209 131.284)"/><path d="M22.266.46v263.155h163.269V.459H22.266Zm54.11 55.42c.22.424.583 1.035.583 1.035s-.394.102-.669.283c-18.92 7.037-39.162 22.714-39.516 23.175V63.02L24.252 49.762V2.737H73.48l14.43 24.26c-.867 6.354-3.114 18.656-3.114 18.656-1.325-.321-5.794-.743-8.207 2.736-1.152 1.66-1.767 3.923-.213 7.49ZM168.622 110l1.869-2.38-3.295.152 2.263-2.467-3.646-.085 2.843-2.427-3.837-.045 2.852-2.387-4.2.19 3.008-2.596-4.151.018 3.096-2.613-4.061-.056 2.639-2.346-3.546-.042 4.007-2.83c1.712.753 4.009 1.18 6.318 1.229l.048 19.046-2.207-.36Zm2.874-33.027c9.37.032 11.372-5 .049-5.801.213-12.664-.511-37.994-.511-37.994l-6.168-.158s16.536-17.947 18.094-19.406c1.413 60.323 1.35 200.382 1.35 200.382l-12.635-12.71-.14-39.602c-4.228-4.308-6.651-10.59-9.168-14.66l-6.91-3.375 1.624-5.582-.695-1.587-2.157 7.898 7.56 3.61.8 1.634-1.273 7.441 7.153 2.468 1.24 1.71-.449 7.267 1.502.456v1.44l-1.492-.127-.53 8.158 2.022.597v1.842c-.001-.033-1.184.007-1.762-.044-.798-.434-2.112-2.152-2.112-2.152l.714-9.06-9.068-1.827-.675-.96 1.668-9.055-9.52-2.928c.977 2.417 2.272 4.678 3.35 7.058-1.308.38-2.673.466-3.996.751-.357 12.233.055 24.962-.323 36.467-7.663.556-4.068-.178-7.4-.126a2.369 2.369 0 0 0-2.362 2.375c0 .839.432 1.574 1.085 1.998l-1.321.475-2.31-2.628 4.826-4.653-.029-1.338-5.992 6.025 2.594 3.01-1.543.805-2.367-2.506s-5.094 5.241-4.777 5.337c.158.048.44.312.631.582 3.628 7.873-1.322 11.634-7.304 9.456-1.52 7.246-2.971 13.784-4.167 21.29-4.471 1.697-25.496 2.678-25.728 2.288 0 0-.533-.511-.556-.765.096-.336-.602.698-.602.698 0 .447-18.328-.459-27.367-2.191 0 0-.185-.872-.11-2.021.148-2.306-.03-2.285 2.058-1.95 4.263.288 7.57-1.182 8.884-4.953.737-2.113.392-4.015-.732-9.666-1.092-5.487-1.104-4.896-.974-5.637.152-.871 1.086-1.843 2.43-2.938 1.012-.826 1.113-2.385.298-1.522-.56.822-1.546 1.115-2.43 1.575-2.073 1.092-2.005 2.145-.78 6.651.575 2.114 1.176 4.393 1.195 4.658.062.828-.235.49-1.47-.363-.791-.582-1.704-1.063-2.516-1.542-2.483-1.33-1.383.127 1.007 1.726 1.879 1.4 2.19 2.003.569 1.333-1.67-.686-4.069-.39-5.944.32-.368.207-.64.183-.699-.155-.083-.528.237-1.854.376-4.915.351-7.744 2.165-15.997 7.288-20.767 7.333-6.827 19.384-2.195 26.07 4.13l.724-1.105c-4.489-3.788-12.27-8.514-19.847-7.596 3.169-2.657 10.157-7.058 10.157-7.058 4.793 3.495 8.329 6.982 13.59 10.766l.916-.61-14.472-11.537-15.59 10.335s.648-9.915.892-13.54l-6.763 6.011 5.216 7.766-5.53 5.72s.935-.132-.086 1.634c-1.557 3.173-2.497 8.287-3.216 13.48.14 3.879-.81 8.17-1.104 11.587-.511-3.2-1.116-4.882-2.294-7.786-1.082-2.799-1.505-2.777-2.725-2.369-6.615.558-3.621-12.272 4.195-3.88.344.356.909.792.935.708.163-.515-2.074-7.272-2.94-8.83-.915-1.646-.922-1.878-2.28-1.737-2.543.263-3.403-.647-3.66-3.338.338-5.087 5.812-2.937 9.319-1.374.317.244-1.645-1.797-2.348-2.516-.954-.977-1.108-1.604-1.108-1.604l.207-2.7 5.365-4.925-4.41-6.55.183-2.34 4.714-5.686-5.023-5.483-.063-1.953 4.083-5.463-5.471-4.412-.265-1.76s3.512-6.533 3.418-6.771c-.08-.2-5.93-4.26-5.93-4.26l-.588-2.75 2.54-6.975-6.078-3.49-1.114-3.15 1.712-6.462-6.306-2.928-1.798-3.64 1.172-6.792-7.067-2.104-1.876-2.986.246-5.972-1.73-.179.024-1.474 1.928.015s-.15-.22.063-3.17c.361-5.016.395-4.824-.796-5.032-2.509-.438-1.934-1.988.632-1.701.393.044.726.078 1.007.13.676.128 1.196 1.009 1.196 1.009l-.564 9.263 9.038 1.518.858 1.163-1.513 8.585 8.484 2.467 1.143 2.08-2.406 8.928 8.552 3.781.564 1.658-3.63 7.926 7.857 3.839.492 1.9-4.362 8.173 9.057 6.626s-.242-.648-.602-1.73l-7.183-5.158 3.64-6.975s.29.51.597.402a42.14 42.14 0 0 1-.41-3.48l-3.706-9.715 11.993-8.109c-5.139-3.111-11.623-3.007-17.576-4.174 0 0-.26-.833-.708-1.58-1.732-2.793-3.29-6.345-5.223-10.009 1.424-.675 2.04-.588 3.57-.888 2.115-11.945 4.21-25.687 7.582-36.084a2.671 2.671 0 0 0 2.661-2.681c0-.808-.358-1.53-.92-2.021.329-.095.677-.188 1.046-.277.485-.007 2.453 2.177 2.453 2.177l-5.057 5.012-.029 1.658c2.018-2.112 6.45-6.67 6.45-6.67l-2.67-2.821 1.32-.62 2.165 2.394 4.854-5.017 1.244.853c-1.635 2.16-2.7 2.863-5.148 5.414 1.279 1.522 6.233 6.321 6.233 6.321l-.015-1.657-4.883-4.76 4.748-4.766.275-.315s3.77 1.639 4.009 1.635c-1.602-1.326-4.48-2.461-6.043-3.607-7.084-4.2-.355-12.891 6.179-10.733.186.7 3.603-18.333 3.218-19.382.346-2.947.422-2.531-.595-4.22C84.823 15.67 75.948 2.33 75.948 2.33l79.863-.514c-.832 1.631-1.67 2.954-2.301 4.859 0 0 4.488 4.7 6.13 10.88.915 3.45 2.231 6.678 4.54 8.973.035.082-.082.185-.223.282-6.314 2.237-13.51-3.18-15.722-9.36l-3.624 5.94c1.638.185-24.117-2.94-30.436-2.15.56.11 1.221.578.848 2.36-.642 3.073-1.788 14.18-1.788 14.18-1.27 10.805-2.25 24.384-9.34 28.874 0 0 1.085 1.163 2.022 1.756.023-.015-.835-.887-.863-.989.005-.314.183-.513.39-.679 1.503-1.224 3.335-3.762 3.27-3.829 5.852 5.11 15.01 9.51 20.53 7.683 2.178-.46 3.145-2.57 4.3-.858-1.5 9.296-1.398 19.521-.814 27.553.903 17.901 4.834 28.16 8.728 40.842-2.002.71-12.282 7.64-12.282 7.64-.062.882 12.4 3.758 17.29 3.248 0 0 1.006.985 1.01.777a8.847 8.847 0 0 1-.097-.194 2.38 2.38 0 0 0 1.215-2.08 2.365 2.365 0 0 0-3.061-2.268c-.614-1.515-1.138-2.84-1.138-2.84l6.923 3.029-2.256 7.615.757 1.692 2.752-9.918-8.836-3.805-.598-1.76 3.664-7.523-7.901-4.707-.333-1.497 4.252-8.076-7.65-5.91 5.596-7.27-6.888-5.817.077-.965 5.708-6.607-5.9-6.098-.165-2.467 6.43-5.75-5.552-8.109c2.314-1.563 3.607-3.347 5.124-5.124l1.354.597-4.931 3.756 5.269 7.654 5.558-5.046-3.013-4.94 1.837.84 1.682 2.646-.275 2.705-5.49 5.027 4.72 6.873.038 1.26s-2.935 3.392-5.072 5.914l5.983 6.636-4.893 6.278 6.156 5.269-.174-1.58-4.54-3.854 3.485-4.246c.25-2.56-.303-6.951.997-8.879-2.101-2.068-1.003-7.05.03-8.664-2.008-2.39-.86-7.635.42-7.856-1.532-1.931-.923-5.847.358-7.12.41-.22-5.471-2.353-9.18-4.915 3.086-5.776 2.366-11.21 3.34-13.168 1.336 3.875 3.045 7.997 4.521 10.964.156.308.484.239.974.248 6.134.549 5.55 5.633.95 6.935 0 0 9.355 7.006 14.095 7.781.05.125.015.29-.144.62-.673 1.4-1.062 3.82-1.162 5.949-.342 3.167 1.181 8.027 1.181 8.027l-1.943 1.207c-.386 1.672-2.557 1.707-2.767 2.899.46 5.118 10.398 24.717 12.497 26.931.795-13.985-.724-29.165.036-43.123Zm-2.269 35.664 1.612-1.331-.039 2.116-1.573-.785Zm1.573 3.242-.812-.609.818-.912-.006 1.52Zm-99.953 24.96c.152.964.33 1.92.526 2.855a2.674 2.674 0 0 0-1.986 2.589 2.675 2.675 0 0 0 2.666 2.68c.21 0 .411-.031.607-.077.419 1.476.82 2.748 1.133 3.684l.54.388c-1.457-5.099 1.367-7.84-2.806-12.075-.062-.212-.368-.153-.68-.044ZM156.968 2.566l25.992.171v9.645l-20.03 21.414 7.723.096-.082 36.728c-2.117.885-4.136 2.257-6.088 3.583L152.3 67.426l-.877-.45s.336-.097 1.05-.568c1.378-.908 1.904-3.14 1.278-4.818-1.023-2.743-3.137-2.248-4.898-2.254-1.462-1.136-2.714-4.935-3.74-7.47-.475-1.101-.928-1.945-1.046-2.584-.11-.59-.106-1.106-.106-1.106s.237.074.583.786c1.94 4.11 6.475 6.097 8.884 2.21 1.22-2.383.378-5.104-1.673-5.865-.627-.233-2.762.014-2.762.014-.125.075-1.548-2.017-3.557-8.894-.826-2.84-1.042-9.003-.256-9.889 1.331-1.624 1.674-3.906 2.8-5.545.512-1.03.486-.388 1.288.76 2.735 3.915 7.544 6.95 11.945 6.758 3.125-.136 4.09-1.208 3.35-2.114-1.714-1.76-2.835-4.233-3.398-6.398-1.31-5.04-2.697-9.535-6.218-13.452l2.02-3.981Zm-13.194 23.928c.328.313.069.793.01 1.663-.152 2.209-.2 2.234-1.462 1.677-2.421-1.067-5.845-.134-7.91 2.119-2.604 2.84-2.687 5.764-1.06 11.536 1.856 6.493 1.812 7.35-.415 8.677-1.34 1.147-2.712 3.551-2.198 3.544.07-.001.257-.146.41-.32.152-.175 1.375-1.165 2.318-1.813 2.586-1.779 3.396-2.687 2.208-5.972-1.173-3.242-2.118-6.41-1.63-6.607.234-.094 1.126.961 1.678 1.28 1.13.652 3.516 1.858 3.808 1.856.404-.002-.027-.294-1.19-1.061-3.113-2.056-4.387-3.917-1.384-2.74 1.61.631 3.31.264 4.271-.053 1.119-.367 1.703-.739 1.822-.315.163 2 .007 4.06-.115 6.07-.037.128-.188 1.496-.338 3.034-.568 5.84-1.56 10.762-4.112 13.931-8.54 10.605-18.258 7.514-29.174-.974 4.072-11.343 3.79-20.183 4.796-23.781.943-.285 2.048.27 2.734.659 1.52.87 3.25 1.393 4.912 1.483 1.547.084 1.816-.136 1.678.325-.107.355-2.6 1.091-4.127 1.41-2.777.581-2.574 1.228-.235 1.015 2.46-.223 4.836-1.206 7.355-2.89 1.745-1.167 1.809-1.169 1.34-2.633-.113-.352-.35-.88.482-1.187.863-.32.741-.673.251-1.067-.12-.096-.43-.12-.554-.218-.156-.122.01-.672.01-.746-3.178-2.702-8.78-2.767-13.384.006-.23-.084-.47-.446-.245-.942.484-1.065 5.44-2.342 8.957-2.4 1.604-.025 1.918.18 4.334.922.993.305 1.548.384 1.639.232.205-.345-.153-1.374-.916-1.924-2.58-1.859-6.336-1.711-11.464.334-2.744 1.095-2.458 1.471-1.571-3.974.246-1.511.53-2.665.53-2.665s23.994.858 27.94 2.51Zm-3.693 5.114c1.269.009 2.428.329 3.104.99.989 1.099-.049 1.442-1.62.843-2.008-.767-4.293-.33-6.064.775-1.136.71-1.38.33-.424-.688 1.158-1.232 3.15-1.932 5.004-1.92Zm-18.246 1.896c2.212-.015 4.239.384 5.071 1.323.76.858.028.945-1.87.199-2.673-1.051-6.238-.719-9.179.751-1.511.756-1.975.909-1.774.049.888-1.394 4.519-2.3 7.752-2.322Zm17.696.693c2.109.005 3.9.491 3.568 1.6-.12.394-.223.156-1.731-.31-1.506-.467-3.432-.291-5.365.276-1.804.529-2.15.648-1.34-.136.983-.954 3.008-1.435 4.868-1.43Zm4.294 1.065c2.135 3.308 2.512 8.16 4.783 10.786 4.202-.786 6.19 3.187 2.655 5.833-1.798 1.003-3.989.247-5.6-2.405-1.536-2.527-1.96-4.057-2.009-5.66.14-3.368-.05-5.17.171-8.554Zm-24.598 1.519.93.111c.676 2.303 2.189 2.442 3.095.03l.704.116c-1.07 2.956-3.751 3.078-4.729-.257Zm-1.441.043c.387-.022.71.389.882.931.362 1.225-.05 1.07-.892.553-.852-.522-1.508-.867-1.017-1.077.367-.197.656-.33 1.027-.407Zm7.992.786c.322.4.394.707-.02.998a7.973 7.973 0 0 1-1.093.49c-.375.114-.606.023-.449-.519.099-.465.39-1.13.608-1.391.364-.066.754.193.954.422Zm11.285-.282.738.054c.773 2.105 2.581 2.044 3.278.218l.66-.005c-1.245 3.26-3.777 2.67-4.676-.267Zm-1.33.277c.707-.001 1.395 1.022 1.007 1.546-.391.329-2.135-.045-2.29-.693-.06-.39.576-.852 1.283-.853Zm6.826.198c.342.082.319.341.328.383.18.862-.845 1.163-1.075.834-.127-.181.412-.87.747-1.217Zm-16.243 9.22c-1.727.486-2.53 1.986-2.42 3.66.087 1.354.787 2.457 1.81 2.69 2.06.47 3.486-.976 5.591-1.56.91-.24.697-1.42.115-1.932-.748-.658-1.896-.247-3.436.938-3.02 2.325-3.747-2.146-.993-2.936.427-.123.23-1.112-.667-.86ZM36.982 150l1.175.34-1.174 1.397s.006-1.208-.001-1.737Zm3.272 4.783-2.42 2.737 3.288-.25-2.23 2.33 3.421.139-2.515 2.615 3.363-.069-2.486 2.525 3.173.091-2.097 2.311 3.491-.27-2.548 2.764 3.74-.067-2.835 2.578 3.73-.026-1.12 1.283.993.501c1.015-.474 6.865-2.304 7.059-3.681-1.292-.349-5.096 1.598-5.347 1.275-1.526-6.765-8.104-21.726-12.442-26.09l-.304 42.28c-.664.618-1.722.312-2.399.586-2.2-.115-5.875 3.582-3.955 4.315 1.005.223 6.565 1.18 6.58 1.459.682 12.254-.42 24.574.087 37.655 1.555.232 6.638.523 6.638.523s-18.642 19.56-19.007 19.167c.435-20.965.206-61.949-.16-62.1.003-1.23.432-3.82.432-3.82l-.402-130.381s-.11-.583-.333-.955c-.383-.636-.41-.799-.439-2.753-.148-1.208.024-1.522.024-1.522L35.99 63.476l.016 37.9s12.068 17.92 14.847 26.197c6.091 12.322 5.432 30.28 9.125 37.155.077 0 .151-.003.227-.01.089 1.002.1 1.405.245 1.561.277 2.241.579 5.303.579 5.303l-1.335 2.133 1.49 1.92.009 5.119-1.986 2.03 1.817 2.318-.506 4.78-1.417 1.27.805 1.09s.133 1.722-.188 3.694c-.219 1.339-1.531 1.158-4.262-.238-3.868-1.474-7.828-4.113-10.885-6.103.183-2.488 3.248-8.163-1.017-14.42-1.577-1.189-6.155-.752-6.556-.932l.036-19.275 3.22-.186Zm-3.227-2.04 2.063-.362-2.083 2.098.02-1.735Zm98.286-96.218c-.168.02-.379.178-.65.485-.286.324-.744.235-1.905.165-1.242-.076-1.557-.042-2.376.257-.933.34-.953.34-1.6.063-1.012-.433-1.645-.484-2.575-.219-1.14.326-1.86.237-2.564-.111-.713-.352-.938-.282-1.186.368-.104.273-.61 1.332-.844 1.692-.76 1.17-.577 1.366 1.017.873 1.096-.34 3.115-.554 4.619.072 1.142.477 2.504.324 4.13-.387 1.428-.625 2.836-.823 4.204.334.797.674.754.164.55-1.231-.229-1.56-.389-2.41-.82-2.36Zm-54.12 4.92a2.671 2.671 0 0 0-2.666 2.676 2.675 2.675 0 0 0 2.666 2.68c.696-.582 1.057-5.248 0-5.356Zm51.444.022c-1.62.554-3.848 1.295-6.357.555-1.972-.605-1.5.885.64 1.071 1.489.13 1.388.13.227 1.222-.978.92.247.854.916.281.79-.675 2.932-.5 4.141.053.53.243.59-.766-.043-.988-1.592-.56-1.21-.602.526-1.17.644-.147.668-1.27-.05-1.024Zm-51.444.875c.841.318.315 3.424 0 3.563a1.78 1.78 0 0 1-1.774-1.784c0-.984.795-1.779 1.774-1.779Zm-14.212.112c.68-.234 1.157.901 1.157 1.667 0 .984-.791 1.784-1.769 1.784-1.196-1.174-1.414-2.482-.03-3.22.2-.075.414-.153.642-.231Zm7.005 2.622-5.693 5.788 5.587 5.69 5.596-5.816-5.49-5.662Zm67.43 2.293c.816 0 1.475.668 1.475 1.488s-.66 1.483-1.475 1.483a1.486 1.486 0 0 1 0-2.971Zm-67.479 1.944c.816 0 1.476.668 1.476 1.488s-.66 1.483-1.476 1.483a1.478 1.478 0 0 1-1.475-1.483c0-.82.66-1.488 1.475-1.488Zm60.513 1.42 4.079 5.521-5 4.508.256-2.802a2.376 2.376 0 0 0 1.938-2.34 2.37 2.37 0 0 0-1.518-2.216l.245-2.671Zm-67.912.305-.058 1.503 5.139 5.119-5.086 5.308.043 1.469 6.33-6.777-6.368-6.622Zm14.524.005-6.28 6.481 6.059 6.656.077-1.687-4.758-4.945 4.85-4.842.052-1.663Zm90.642 1.037c1.28-.001 2.375.42 2.71 1.26.262.473.402.881.785 1.058.746.343 1.76.107 1.808-.146.088-.001-1.19-.123-1.408-.32-1-.905-.83-1.475.588-1.362.457.02 1.734.04 1.763.542.283 1.733-2.008 3.001-4.94 2.769-2.09-.348-2.1.463-2.246 1.585-.092.368-.413.964-.675 1.435-.74 1.333-.983 1.147-.467 1.662.5.656 1.147 1.47 1.137 2.235l-.023 7.027s-4.386-.019-5.91-1.128c-1.598-2.93-2.683-9.247-.338-12.714.82-1.04 2.02-1.536 3.403-2.637 1.066-.85 2.534-1.264 3.813-1.266Zm-24.802.79-.159 2.032a2.37 2.37 0 0 0-.366 4.58l-.14 1.765-3.254-4.697 3.92-3.68Zm-12.774 1.372c.48.27.805.783.805 1.377 0 .698-.447 1.293-1.07 1.503l.265-2.88Zm-67.88.742c-2.25 1.176-1.476 5.734 0 5.356a2.671 2.671 0 0 0 2.662-2.68 2.667 2.667 0 0 0-2.661-2.676Zm14.703.068a2.671 2.671 0 0 0-2.665 2.676 2.675 2.675 0 0 0 2.665 2.68c1.956-.619.849-5.269 0-5.356Zm65.725.679-.232 2.923a1.58 1.58 0 0 1-.872-1.416c0-.709.463-1.308 1.104-1.507Zm-80.427.15c.978 0 1.769.795 1.769 1.779 0 .984-.791 1.784-1.77 1.784-.582.115-.953-3.255 0-3.563Zm14.702.068c1.187.097.202 3.132 0 3.563a1.78 1.78 0 0 1-1.774-1.784c0-.984.796-1.78 1.774-1.78Zm59.723 1.691-5.876 5.89 5.804 6.433 4.83-5.905-4.758-6.418Zm-66.828 1.12-5.635 5.836 5.326 5.536 5.621-5.967-5.312-5.405Zm-37.072 3.195 2.098 2.196-2.098.019v-2.215Zm103.442.218c.815 0 1.475.668 1.475 1.488s-.66 1.483-1.475 1.483a1.478 1.478 0 0 1-1.475-1.483c0-.82.66-1.488 1.475-1.488Zm-66.399.804a1.487 1.487 0 0 1 0 2.971 1.482 1.482 0 0 1-1.475-1.487c0-.82.66-1.484 1.475-1.484Zm7.284 1.736-6.228 6.471 6.016 6.442.082-1.527-4.82-4.876 4.887-5.032.063-1.478Zm-14.645.01.063 1.638 4.999 4.983-5.255 5.313.212 1.43 6.46-6.719-6.48-6.645Zm67.228 1.774 4.507 4.508-4.493 5.031-.004-2.612a2.38 2.38 0 0 0 1.59-2.25c0-1.041-.668-1.92-1.595-2.24l-.005-2.437Zm12.428.232.048 1.842a2.377 2.377 0 0 0 .12 4.62l.039 1.459-3.567-3.955 3.36-3.966Zm-104.203.83s1.505 1.613 2.015 2.273a2.675 2.675 0 0 0 2.02 4.416c.424 0 .821-.104 1.176-.281.274.408 1.476 2.08 1.476 2.08L41.509 94.9l.4-7.344Zm39.158 1.07a2.671 2.671 0 0 0-2.666 2.676 2.675 2.675 0 0 0 2.666 2.68c2.675-.547 2.148-5.227 0-5.355Zm-14.838.102c-3.793.419-2.81 5.27 0 5.357a2.671 2.671 0 0 0 2.661-2.68 2.667 2.667 0 0 0-2.66-2.677Zm79.95.664.082 2.972a1.584 1.584 0 0 1-1.075-1.503c0-.667.41-1.238.993-1.469Zm-65.112.131c1.723.631 1.198 3.682 0 3.563a1.78 1.78 0 0 1-1.774-1.784c0-.984.796-1.779 1.774-1.779Zm-14.838.102c.979 0 1.77.795 1.77 1.78 0 .983-.791 1.783-1.77 1.783-2.515-.303-1.877-3.506 0-3.563Zm67.46.17a1.586 1.586 0 0 1 .005 2.758l-.005-2.758Zm-89.205.76 2.072 2.681a1.744 1.744 0 0 1-.612.112 1.78 1.78 0 0 1-1.46-2.792Zm95.92 1.218-4.869 5.884 5.982 5.337 4.243-5.283-5.356-5.938Zm-66.534.707-5.973 6.098 4.218 4.407-2.333-.257-3.374-3.461-.077 1.148 1.836 2.114-1.96-.068c-.71 1.106 3.707 1.14 6.206 1.565 3.171.54 10.078 3.092 8.558 1.22l-1.74-.449 1.643-1.977-.019-1.503-2.844 3.064-.964-.223 4.03-4.179-.27-1.275-4.956 5.1-1.441-.33 5.037-5.167-5.577-5.827Zm66.78 3.51c.815 0 1.475.663 1.475 1.483 0 .82-.66 1.483-1.475 1.483a1.482 1.482 0 0 1 0-2.967Zm-66.982.77c.815 0 1.475.664 1.475 1.484s-.66 1.483-1.475 1.483a1.478 1.478 0 0 1-1.476-1.483c0-.82.66-1.484 1.476-1.484Zm-33.455.427s-.383 4.879-.598 7.228l7.718 2.074.959-7.794-8.08-1.508Zm-3.365.368 1.075.04-.18 4.543-1.045-1.121.15-3.462Zm14.278 1.973s.777 1.254 1.663 2.637a2.667 2.667 0 0 0-.77 1.881 2.675 2.675 0 0 0 2.665 2.68c.27 0 .53-.04.776-.116.347.66.993 1.707.993 1.707l-6.614-1.949 1.287-6.84Zm82.804.5 5.192 4.25-4.035 4.994-.27-2.143a2.377 2.377 0 0 0-.574-4.595l-.313-2.506Zm-89.813.072c.816 0 1.475.664 1.475 1.484s-.66 1.488-1.475 1.488a1.487 1.487 0 0 1 0-2.972Zm103.773.47a2.369 2.369 0 0 0-2.367 2.37 2.377 2.377 0 0 0 2.367 2.381c.516.38.658-4.078 0-4.75Zm0 .796c.14.706.312 3.327 0 3.16a1.584 1.584 0 0 1-1.576-1.585c0-.873.709-1.575 1.576-1.575Zm-94.6 1.58c.591.936 1.205 1.943 1.722 2.855a1.78 1.78 0 0 1-1.721-2.855Zm81.054.407c.71.15 1.244.782 1.244 1.541 0 .62-.357 1.156-.872 1.416l-.372-2.957Zm7.034 1.391-4.387 5.919 6.657 5.22 3.77-6.476-6.04-4.663Zm-100.139 2.41 4.96 1.458-.934 5.105c-.08-.298-.356-.837-.728-1.479.213-.385.337-.827.337-1.299a2.667 2.667 0 0 0-2.873-2.666c-.442-.655-.762-1.12-.762-1.12Zm7.352 1.24-1.615 8.14 7.462 3.019 1.817-8.6-7.664-2.559Zm93.635.063c.815 0 1.475.664 1.475 1.484s-.66 1.483-1.475 1.483a1.482 1.482 0 0 1 0-2.967Zm-99.598.752c.777.187 1.354.89 1.354 1.73 0 .111-.014.22-.033.325a83.664 83.664 0 0 0-1.321-2.055Zm105.931.221-4 7.578 6.8 4.775-.465-1.62-4.864-3.586 2.828-5.212-.299-1.935Zm-96.656 2.74c.815 0 1.475.669 1.475 1.489 0 .82-.66 1.483-1.475 1.483a1.478 1.478 0 0 1-1.476-1.483c0-.82.66-1.489 1.476-1.489Zm7.042.757 1.586 2.777a2.672 2.672 0 0 0-1.08 2.148 2.675 2.675 0 0 0 2.666 2.68c.22 0 .432-.031.637-.082L63.9 122.9l-6.927-3.05 1.971-6.921Zm91.158.024c-.62-.145-1.216.254-1.64.666a2.375 2.375 0 0 0-.722 1.71 2.369 2.369 0 0 0 2.362 2.374c1.784-.434.826-4.557 0-4.75Zm-14.332.654 5.63 4.048-3.287 6.379s-.33-1.289-.747-3.02a2.376 2.376 0 0 0 1.355-2.147 2.369 2.369 0 0 0-2.363-2.376h-.028a68.102 68.102 0 0 1-.56-2.884Zm14.332.14c.978.301.647 3.06 0 3.161-.857.135-1.572-.707-1.572-1.58 0-.872.704-1.58 1.572-1.58Zm-89.181 2.793 1.441 3.078a1.78 1.78 0 0 1-.246.02 1.78 1.78 0 0 1-1.195-3.098Zm75.587.756a1.572 1.572 0 0 1 1.422 1.57c0 .572-.306 1.07-.757 1.348a185.34 185.34 0 0 1-.665-2.918Zm7.428.81-3.856 7.663 7.125 4.368 3.278-7.412-6.547-4.62Zm-95.409 1.473 4.392 2.007-1.24 4.557-.534-1.115a2.672 2.672 0 0 0-1.962-4.086l-.656-1.363Zm6.937 2.162-2.155 7.664 6.845 3.582 3.124-7.712-7.814-3.534Zm-5.766.276a1.777 1.777 0 0 1 .93 1.94l-.93-1.94Zm95.506.621a1.487 1.487 0 0 1 0 2.971 1.478 1.478 0 0 1-1.475-1.483c0-.82.66-1.488 1.475-1.488Zm6.503.423-3.268 8.021 7.504 4.163-.565-1.463-5.546-3.219 2.378-5.805-.503-1.697Zm-93.495 2.674c.815 0 1.475.664 1.475 1.484s-.66 1.483-1.475 1.483a1.478 1.478 0 0 1-1.475-1.483c0-.82.66-1.484 1.475-1.484Zm95.853 1.188a2.369 2.369 0 0 0-2.363 2.375c0 1.312 1.059 2.424 2.363 2.376 2.37-.055 1.162-4.77 0-4.75Zm-88.516.267c.45.816.786 1.67 1.094 2.545a2.676 2.676 0 0 0-1.172 2.215 2.677 2.677 0 0 0 2.507 2.676c.053.003.3.038.3.038l.423 1.615-5.89-3.108c.825-2.23 1.532-3.775 2.738-5.981Zm88.516.528c.688.29.873 3.072 0 3.16a1.576 1.576 0 0 1-1.572-1.58c0-.872.704-1.58 1.572-1.58Zm-14.52.921 5.79 3.335-2.907 6.307-.863-2.89a2.375 2.375 0 0 0 1.036-1.963 2.37 2.37 0 0 0-2.333-2.375l-.723-2.414Zm-72.589 1.987.921 3.083c-.936-.047-1.514-.806-1.514-1.76 0-.526.23-.997.593-1.323Zm73.558 1.251c.737.13 1.297.773 1.297 1.551 0 .454-.189.86-.492 1.15l-.805-2.7Zm-86.395.204 4.478 2.632-2.02 5.254-.588-1.895c.402-.47.646-1.077.646-1.745a2.67 2.67 0 0 0-2-2.588l-.516-1.658Zm93.481.106-2.714 7.315 7.853 4.15 1.962-7.485-7.1-3.98Zm-92.613 2.681c.456.321.757.855.757 1.459 0 .215-.042.42-.111.61l-.646-2.069Zm5.866.364-3.186 7.42 6.628 4.393 3.452-7.737-6.894-4.076Zm89.21 1.207c.816 0 1.476.663 1.476 1.483 0 .82-.66 1.483-1.476 1.483a1.478 1.478 0 0 1-1.475-1.483c0-.82.66-1.483 1.475-1.483Zm7.768 3.261c-.66.426-1.053 1.253-1.052 2.1 0 1.311 1.057 2.383 2.362 2.375a3.53 3.53 0 0 0 .784-.087c.68-.916-.284-4.43-2.094-4.388Zm-94.996-.212c.815 0 1.475.663 1.475 1.483 0 .82-.66 1.488-1.475 1.488a1.483 1.483 0 0 1-1.475-1.488c0-.82.66-1.483 1.475-1.483Zm96.656 3.821a.669.669 0 0 1-.35.071c-.867-.04-1.572-.708-1.572-1.58 0-.497.228-.94.585-1.23 1.357-1.024 1.556 2.944 1.337 2.74Zm-87.931 1.263c.271 1.218.57 2.374.863 3.452-.12.026-.244.043-.371.043a1.78 1.78 0 0 1-1.774-1.783c0-.813.541-1.498 1.282-1.712Zm82.297.873-2.053 8.226 7.857 2.88 1.504-7.786-7.308-3.32Zm-95.79.112 4.17 2.893s-1.348 3.269-2.488 5.013l-.323-1.513a2.675 2.675 0 0 0 1.143-2.196 2.67 2.67 0 0 0-2.17-2.632l-.332-1.565Zm88.169.392c.868 0 1.567.703 1.567 1.576 0 .571-.17.807-.622 1.085-.346-.78-.82-1.553-1.249-2.603.128-.033.165-.058.304-.058Zm-87.624 2.172a1.78 1.78 0 0 1 1.065 1.633c0 .464-.175.885-.463 1.203l-.602-2.836Zm6.262 1.202-3.784 6.612 5.553 4.27 4.338-6.616-6.107-4.266Zm91.625.223c.815 0 1.475.668 1.475 1.488s-.66 1.483-1.475 1.483a1.486 1.486 0 0 1 0-2.971Zm6.797 2.055.964 1.503a2.373 2.373 0 0 0 2.4 3.752l.777 1.207-4.927-1.774.786-4.688Zm-97.29 1.765c.816 0 1.476.663 1.476 1.483 0 .82-.66 1.483-1.475 1.483a1.482 1.482 0 0 1 0-2.966Zm98.726.475 1.456 2.273h-.043c-1.376-.026-1.958-1.165-1.413-2.273Zm-91.644.102-5.36 7.15 7.11 5.298-.111-1.58-5.197-3.733 3.953-5.293-.395-1.842Zm78.282 2.418 7.076 2.235-1.513 7.058-1.668-2.787a2.369 2.369 0 0 0 .737-1.721 2.365 2.365 0 0 0-2.357-2.375c-.264 0-.52.045-.757.126l-1.518-2.536Zm-77.091 1.227a2.674 2.674 0 0 0-2.396 2.661 2.675 2.675 0 0 0 2.666 2.68c.677.082.775-.96 0-.896a1.78 1.78 0 0 1-1.774-1.784c0-.945.733-1.715 1.658-1.774l-.13-.887h-.024Zm86.703.76-1.23 8.169 8.017 1.72.598-7.406-7.385-2.482Zm-100.235.2 3.784 2.811-2.873 4.043-.154-1.159a2.686 2.686 0 0 0 1.133-2.196c0-1.16-.734-2.139-1.76-2.51l-.13-.99Zm92.898 1.018c.868 0 1.567.707 1.567 1.58 0 .389-.14.742-.371 1.018l-1.529-2.56c.107-.023.22-.038.333-.038Zm-25.294 1.106c.21.047.51.096.449.222-.064.131-1.345 1.546-1.345 1.546l.144 1.319 2.276-2.594.916.34-3.196 3.267-.15 1.216 4.257-4.202 1.817.504-4.95 4.9 5.702 5.813 5.708-5.851-4.054-4.455 2.005.189c.846.97 1.777 2.512 3.331 3.335l-.154-1.163c-.08.055-1.887-1.71-1.6-1.997l1.595.116c1.875-.51-2.29-1.199-6.308-1.88-2.084-.082-8.152-2.772-6.705-.715.086.038.182.062.262.09Zm-67.329-.055c.438.324.723.841.723 1.43 0 .42-.145.806-.385 1.11l-.338-2.54Zm102.896 1.42c.815 0 1.475.664 1.475 1.484s-.66 1.483-1.475 1.483a1.478 1.478 0 0 1-1.475-1.483c0-.82.66-1.483 1.475-1.483Zm-97.005.146-4.609 5.89 5.221 5.036 5.346-6.301-5.958-4.625Zm103.489 1.508.36.063v4.018l-.568-.126.208-3.955Zm-35.977 1.866c.816 0 1.475.663 1.475 1.483 0 .82-.66 1.484-1.475 1.484a1.482 1.482 0 0 1 0-2.967Zm-66.799.422c.816 0 1.475.668 1.475 1.488s-.66 1.483-1.475 1.483a1.478 1.478 0 0 1-1.475-1.483c0-.82.66-1.488 1.475-1.488Zm7.116 1.168-5.954 7.135 6.392 6.636-.02-1.483-4.964-5.235 4.652-5.453-.106-1.6Zm66.567.654-6.127 6.224 6.108 6.365.145-1.43-4.715-4.784 4.416-4.586.173-1.789Zm-13.469.645.01 1.692 3.842 3.931-3.934 4.038.025 1.716 5.577-5.783-5.52-5.594Zm31.387.742 7.217 1.371-.444 6.855-1.735-2.109c.296-.397.472-.89.472-1.425a2.365 2.365 0 0 0-2.362-2.37c-.373 0-.722.088-1.036.242l-2.112-2.564Zm-97.255 1.221 3.557 3.762-3.398 3.863-.03-1.313a2.683 2.683 0 0 0 1.611-2.463c0-1.143-.71-2.112-1.711-2.496l-.03-1.353Zm13.189.95a2.683 2.683 0 0 0 0 5.22v-.935a1.785 1.785 0 0 1-1.176-1.677c0-.772.492-1.426 1.176-1.672v-.936Zm52.289.252c-1.095.726-.606 4.818 0 4.75a2.365 2.365 0 0 0 2.357-2.374 2.365 2.365 0 0 0-2.357-2.376Zm13.975.388a2.369 2.369 0 0 0-2.362 2.375 2.369 2.369 0 0 0 2.362 2.376c1.037-.345.614-4.513 0-4.75Zm20.95.306a1.572 1.572 0 0 1 1.36 2.36l-1.87-2.278c.16-.055.331-.082.51-.082Zm-34.925.101c.868 0 1.567.708 1.567 1.58 0 .873-.7 1.58-1.567 1.58.08-.564-.295-3.225 0-3.16Zm-65.43.364c.484.317.8.863.8 1.488 0 .598-.289 1.13-.737 1.454l-.063-2.942Zm79.405.024c.196.64.442 3.271 0 3.16a1.576 1.576 0 0 1-1.572-1.58c0-.872.704-1.58 1.572-1.58Zm-7.144 2.303-5.751 5.753 5.871 6.036 5.554-5.958-5.674-5.831Zm-66.341.31-5.149 5.589 4.96 6.476 5.82-5.827-5.631-6.238Zm-27.912.203c1.583.002 3.062.275 3.664 1.333 2.425 3.265 1.728 9.973.048 12.279-3.773 3.443-5.906 4.355-10.162 3.568.489-1.935-1.556-2.978-1.85-2.55-.038.006-.196.345-.006.368 1.467.181 1.351 1.94 1.178 1.948-1.621-.05-2.674-.023-2.84-.749-.102-.447.159-1.139 1.104-1.916 1.11-.893 6.218-.873 6.218-.873.02.008-.012-1.46.501-2.302.45-.74 1.075-1.56.646-1.9-.737-.343-1.235-1.174-1.34-2.133-.199-2.01.115-6.846.043-6.898.86-.082 1.847-.176 2.796-.175Zm94.243 3.733a1.482 1.482 0 0 1 0 2.967 1.478 1.478 0 0 1-1.475-1.484c0-.82.66-1.483 1.475-1.483Zm-66.293.577c.816 0 1.475.663 1.475 1.483 0 .82-.66 1.488-1.475 1.488a1.487 1.487 0 0 1 0-2.971Zm73.326 1.396-6.01 6.166 6.406 6.665-.203-1.808-4.613-4.775 4.512-4.73-.092-1.518Zm-13.58.116-.163 1.706 4.256 4.499-3.866 3.994-.058 1.94 5.689-6.031-5.857-6.108ZM61.91 183.76l3.399 4.794-4.045 3.568.106-1.362a2.679 2.679 0 0 0 2.049-2.608 2.674 2.674 0 0 0-1.658-2.477l.15-1.915Zm12.726.945c-.078.994-.133 1.798-.183 2.53a2.681 2.681 0 0 0-.361 4.998 85.681 85.681 0 0 1-.304 2.686l-4.064-5.977 4.912-4.237Zm96.1.281.139 16.768 12.112 12.608v47.212h-49.684l-12.799-21.686c-.253-.429-.621-.276-.901-.688l3.794-20.374c5.973 2.766 10.998-4.388 7.737-10.184 18.412-6.762 39.602-23.656 39.602-23.656Zm-29.397.092a2.365 2.365 0 0 0-2.362 2.37 2.373 2.373 0 0 0 2.362 2.38c1.7-.782.84-4.717 0-4.75Zm-13.753.141c-.656.75-1.03 4.783 0 4.75 1.304-.04 2.362-1.068 2.362-2.38a2.365 2.365 0 0 0-2.362-2.37Zm13.753.654c1.243.92.115 2.945 0 3.16a1.58 1.58 0 0 1-1.571-1.584c0-.873.703-1.576 1.571-1.576Zm-13.753.141c.868 0 1.567.703 1.567 1.575 0 .873-.7 1.58-1.567 1.58.093-.262-.394-3.048 0-3.155Zm-65.898.625c.503.314.84.873.84 1.513 0 .74-.448 1.373-1.086 1.643l.246-3.156Zm12.693 1.59c-.074 1.138-.126 2.073-.202 3.02a1.777 1.777 0 0 1-.743-1.444c0-.683.384-1.277.945-1.576Zm59.824.548-5.607 5.638 5.838 6.098 5.549-5.905-5.78-5.831Zm-66.689 1.464-5.871 4.74 3.78 5.827 1.315.795 5.375-4.624-4.599-6.738Zm-23.571.393 13.82 7.416s-3.585 1.51-3.486 3.917c.142 2.692 1.748 4.893 4.932 4.067.73-.106 1.064.198 1.769 1.851 1.348 3.165 2.68 6.642 2.16 6.535-1.696-1.361-1.443-1.436-3.438-2.337-3.722-1.031-5.986 2.451-4.81 5.27 1.095 2.6 2.92 2.748 4.748 2.481.267.062.494.358.674.698.581 1.184 1.462 3.29 2.15 6.53 1.062 4.995 1.3 11.248.526 12.821-1.071 2.175-2.55 5.12-2.55 5.12-2.882-5.526-9.164-10.367-16.222-8.654-.237.15-.286.93.034 1.387 2.29 3.021 2.677 5.79 3.495 8.76 2.097 7.611 6.33 11.968 6.272 11.19l-2.217 4.04s-19.191.095-27.046 0v-9.273l20.575-21.19-8.15-.347.281-36.53c2.98-.625 6.483-3.752 6.483-3.752Zm90.36 2.34c.816 0 1.476.664 1.476 1.484s-.66 1.488-1.475 1.488a1.487 1.487 0 0 1 0-2.971Zm-67.415 1.504a1.486 1.486 0 0 1 0 2.971 1.483 1.483 0 0 1-1.475-1.488c0-.82.66-1.483 1.475-1.483Zm60.816 1.362.145 1.464 4.045 4.26-3.746 3.83c-.546.752-1.943.588-2.381.64.303.936 1.141.82 2 1.183l5.443-5.6-5.506-5.777Zm.063 3.31c-.981.311-.808 4.509 0 4.75a2.369 2.369 0 0 0 2.362-2.374 2.369 2.369 0 0 0-2.362-2.376Zm13.869.645c.099.389.244 3.125 0 3.16a1.576 1.576 0 0 1-1.572-1.58c0-.872.704-1.58 1.572-1.58Zm-13.869.15c.868 0 1.572.708 1.572 1.58 0 .873-.704 1.581-1.572 1.581-.212-.364-.562-3.109 0-3.16Zm-48.63.761c-.235.09-.559.034-.815.034-.82.002-1.839-.58-2.063-.475-.257.122-.17.662-.157.904.029.225.653.3.909.468.413.274.3.369-.169.48-.416.098-.752.126-1.017.505-.164.236-.18.647.102.643 1.637-.025 3.715-.703 5.674-.042 1.12.403 1.85.653 2.029.499.372-.322-.939-1.582-2.194-1.818-1.264-.238-1.718-.14-1.308-.52.212-.196.497-.12.518-.26.058-.395-.23-.802-.573-.857-.368-.06-.657.328-.936.44Zm7.043 3.956c-.133.002-.325.096-.583.305-.747.499-1.916 1.167-4.734.388-1.55-.512-3.288-.064-4.3.222-.79.223-1.92.441-2.825.025-.884-.427-1.853-1.075-1.673-.407.045.17.099 1.15.111 1.73.029 1.368.122 2.508 1.104 1.436.425-.465.938-.47 1.9-.088.685.272 1.165.456 1.696.107.752-.495 1.402-.618 2.791-.145.659.224 1.35.244 2.184-.272 1.386-.857 2.264-.024 2.796.853.42.695.631-.296 1.407-2.356.4-.983.524-1.803.126-1.798Zm-6.637 7.658c-.754.428-1.807.557-2.572 1.064-1.619 1.122-.101 2.057 1.022 1.823.46-.105.993-.336 1.583-.729 2.026-1.352 3.149-1.154 3.34.483.207 1.77-2.504 2.568-2.251 3.39.34.535 1.655-.201 2.47-1.312 2.416-3.293-.243-6.62-3.592-4.72Zm10.495 9.285c-2.749.313-6.886 1.648-8.963 3.217-1.633 1.28-2.08 1.6-1.389 2.109.634.467 1.12.483.251 1.377-.31.318-.835.985-.834 1.115.01.64 3.887 2.542 6.113 2.84 1.716.23 4.492-.033 5.987-.64 1.971-.8 2.038-1.346.175-.796-1.453.429-3.209.753-4.938.627-1.556-.113-3.082-.59-4.044-.936-2.382-.856-1.967-1.854.438-1.003 2.772 1.203 6.362 1.183 9.55-.262 1.286-.584 1.647-1.042 1.88-.844.057.05.187.367.222.456.08.212.089-.544.202-1.745.095-.997.188-2.332.188-2.332s-.191.564-.188.83c.025 1.743-.816 1.751-3.196.416-2.796-1.545-4.156-1.394-6.815-1.378-1.164.007-1.217-.33.421-.875.78-.259 1.979-.677 3.762-1.25 1.475-.475 1.873-1.005 1.178-.926Zm-21.082 3.518c1.013 0 1.919.865 2.179 2.545l-1.008-.073c-.336-2.504-2.144-1.937-2.854-.446l-.887.024c.697-1.377 1.676-2.05 2.57-2.05Zm2.574.155c.41-.038 2.318.892 2.434 1.178.128.313-.598.65-1.234.839-.73.215-.582.247-.812-.189-.322-.609-.888-1.803-.388-1.828Zm-4.864.121c.02.27-.56 1.255-.979 1.382-.494.15-.883-.508-.477-.844.365-.19 1.38-.923 1.456-.538Zm19.605.131c1.282-.052 2.474 1.248 2.575 2.787l-.646-.014c-.599-3.204-3.047-2.479-3.597-.194l-.761-.218c.635-1.655 1.553-2.325 2.43-2.361Zm-2.516.228c.35-.023.305.263-.116 1.115-.198.402-.34.63-.689.615-.474-.07-.79-.223-1.032-.6-.164-.374.221-.665 1.042-.927.375-.119.636-.193.795-.203Zm5.385.237c.225.002.634.147 1.277.432 1.645.729 1.84 1.03.979 1.444-.383.184-.7.323-.955.408-.771.258-.747-.176-.954-.713-.118-.303-.26-.58-.41-.902-.209-.45-.217-.67.063-.669Zm-24.108 2.715c.273-.002.866.362 2.058.79 1.711.615 3.436.389 5.708-.34.937-.3 1.257-.488.887.059-.293.433-1.889 1.226-3.191 1.551-2.44.608-5.664-.546-5.665-1.803.018-.182.079-.256.203-.257Zm8.074 2.07c.248.005.006.379-.51.96-.802.9-2.027 1.518-3.274 1.74-2.625.467-4.8-.252-4.82-1.73-.016-1.066.17-1.08 1.465-.408 1.1.571 3.571.709 5.563.063.654-.174 1.325-.575 1.441-.606.057-.015.1-.02.135-.02Zm20.18 1.43c-1.992.529-4.107 1.06-6.04 1.435-2.072.408-5.091.033-6.668-.747-1.164-.576-1.572-.236-1.06.882.333.73.84 1.497 2.333 2.022 2.17.761 7.256-.475 11.034-2.439 2.197-.981 1.775-1.576.4-1.153ZM60.482 247.26l3.4-5.808c23.022 4.483 47.93 1.228 55.553.167 0 0 8.324 13.848 11.317 18.71.282.517 1.056 2.268 1.056 2.268l-78.605-.063c1.1-2.226 2.145-5.102 2.145-5.102-2.401-.968-4.265-4.576-5.418-7.621-1.012-2.672-2.765-9.197-5.071-12.377 4.034-2.3 14.178 2.834 15.623 9.826Z" id="path3304-4-6-6" fill="#131F67" transform="rotate(180 103.9 132.037)"/><path d="m131.383 262.26-77.853.002 10.144-20.389c18.926 2.881 37.583 2.522 56.026-.412l11.683 20.8ZM24.951 245.738l-.163-9.775 10.084.225-9.921 9.55Zm85.121-65.725.11-29.665c4.022 2.853 8.042 5.712 12.18 7.978l-.16 30.695-12.13-9.008Zm-33.936-6.49c-.714-16.776-3.145-23.325-4.72-31.829l14.437-9.383.041 34.438-9.758 6.774Zm-39.469-29.428.082-41.316c13.271 19.193 21.655 38.687 23.968 65.004-3.608 1.463-7.128 3.079-10.828 4.384a171.226 171.226 0 0 0-13.222-28.072Zm134.376 17.012c-12.263-15.667-19.572-36.541-23.432-62.257l11.226-5.48c3.727 9.079 7.509 18.724 12.222 26.258l-.016 41.48Zm-47.918-27.71.046-34.547 9.585-6.258c.597 12.145 2.512 23.492 4.727 31.905l-14.358 8.9Zm-25.228-18.192c-3.546-2.682-7.237-5.15-11.33-7.026l.597-30.65 10.82 8.377-.087 29.299Zm76.053-86.359s6.748-6.891 9.252-9.129l.055 9.357-9.307-.228Zm-84.978-4.461L76.389 2.793l78.873-.666-10.134 21.742c-20.888-3.84-38.759-2.106-56.156.516Z" id="path3302-0-9-2" fill="#D40000" transform="rotate(180 104.022 132.195)"/><path d="M125.178 218.163c.181.058 2.62-1.601 3.884-4.045 1.366-2.7.13-5.352.537-5.362 2.517.756 1.792 5.58.917 7.075-.743 1.3-2.165 2.176-3.635 2.426-1.45.247-1.703-.094-1.703-.094Zm4.101-10.548c-.506.007-.727-.079-1.06-.427-.464-.483-1.02-.808-1.316-.765-.399.057-.58-.014-.583-.228-.003-.175.174-.204.829-.146.398.036 1.24-.597 1.24-.597l.008-45.604c3.565 1.487 8.896 2.343 12.992 2.832l.274 40.648s6.009-3.165 8.19-4.43l.079-36.384 4.257-.468-6.722-13.734c-.944.73-14.174-.514-17.478-2.675l12.073-7.574c-1.227-3.76-2.342-7.354-3.367-11.162-.032-.117-.255-.105-.286-.222-.249-.929-.425-1.347-.658-2.283-.043-.174.027-.458-.023-.631-2.6-9.01-4.376-20.948-4.736-31.635.038-.101.422-.014.422-.014l-.077-6.529-.429.287.042-2.955.436-.433c.01-.573.05-1.654.05-1.654l-.558-.35.289-4.95.575-.086.316-7.837-15.288 9.95s-9.977-7.184-14.34-10.909c4.8-3.283 6.074-9.684 7.264-14.995 1.217-5.257 1.617-9.597 1.962-13.995.38-4.848 1.178-11.046 1.817-14.101.386-1.846.372-2.048-.169-2.08-.186-.01.006-.07.43-.135 9.802-.394 20.328 1.073 29.677 2.296 0 0 2.312-4.333 3.115-5.93 0 0 .47 1.466.97 2.485 1.137 2.162 3.73 4.456 5.95 5.69.828.548 3.21 1.351 4.82 1.625.947.157 2.472-.145 3.601-.597.388-.162.692-.367.694-.572.004-.207-.302-.416-.694-.79-.334-.318-.78-.934-.993-1.372-.678-1.386-1.715-3.713-2.295-5.89-1.63-4.33-2.838-9.555-6.583-11.858l2.584-5.199-81.357.022 12.59 21.32s.38.637.505.863c.372.672.524.576.524.576a220.231 220.231 0 0 1-3.527 22.007s-.164-.576-2.555-.541c-6.996.101-9.447 7.92-3.596 11.382.552.33 1.49.96 2.415 1.449.266.138 3.62 2.118 3.62 2.118l-4.02-1.819-.29 46.918s-8.383-2.532-13.91-2.77l.056-40.681-7.719 4.188-.35 36.37-4.228.275s1.602 3.426 1.958 4.147c.714 1.442 2.512 4.648 3.74 6.674.435.717 1.451 2.312 1.451 2.312 5.634.15 11.399 1.001 16.638 3.342l-12.126 7.934c5.064 14.348 11.38 35.344 7.862 69.232l.849-.542.233-3.651 15.094-10.445 18.621 15.078s-1.352-.036-1.655-.049c-4.749-.168-8.093 4.715-9.24 8.793-2.023 7.188-2.289 8.962-3.22 20.36-.368 4.508-1.255 8.856-2.16 13.152-.476 2.158-.405 2.374-.405 2.374 9.47.303 19.362-.703 26.78-2.351 0 0 3.133-14.949 4.25-21.294 1.055.608 1.993.874 2.942.853 7.345-.803 6.715-10.93 2.93-11.213ZM96.592 2.687l3.85 13.582-9.43.877L83.184 2.8l13.408-.112Zm57.964-.19-9.693 20.676c-20.334-2.87-32.07-3.143-55.673.218L76.921 2.776l3.229-.028 9.25 16.459 13.74-1.378-3.798-15.061 3.63-.113 3.757 14.781 21.266-.114c.689-4.952 2.024-14.637 2.024-14.637l3.926.044-2.616 14.965 12.561 1.584 7.258-16.73 3.408-.051Zm-27.272.191-1.24 12.572-17.59.136L105.64 2.68l21.644.008Zm21.313-.24-5.972 14.92-8.702-1.169 2.376-13.544 12.298-.208Zm10.73 14.62c.385 1.275.778 2.523.872 2.778 1.42 3.869 2.003 5.146 2.93 6.432.154.213.2.188-.025.37-4.273 2.1-11.998-3.069-13.859-7.804a267.55 267.55 0 0 1 1.267-2.38c.54 1.059.136 2.105.49 3.055.087.405.97-2.738.97-2.738s.853 1.395.957 4.078c.016.414 1.11-1.8 1.11-1.8 1.375 1.862 1.298 5.09 1.298 5.09 1.55-1.89.583-2.975 2.978 1.846.276-.501.142-1.034.504-.893 1.052.41 2.53 1.15 3.069 1.002-.702-.885-2.064-1.35-2.438-2.524 0 0 1.08.092 1.15.039-1.223-.67-2.399-1.248-3.318-2.533.274-.102 1.38.089 1.333-.03-1.657-1.504-4.143-2.72-.547-2.38-2.337-1.653-4.942-2.795-.883-2.672-2.895-1.375-3.676-2.223-3.137-2.457.304-.132 1.17.392 2.55-.051-2.326-.955-3.285-1.39-3.377-1.705-.112-.38.992-.59 1.75-1.415 0 0-.937.214-1.346-.222 0 0 .455-1.319.805-2.079 2.963 2.703 4.128 6.53 4.896 8.993Zm24.955-5.248S171.193 26 164.712 33.037l6.333.095.29 38.397c2.206.298 6.032.006 7.48 1.483.9 1.338-2.58 3.969-4.54 3.416-1.306-.355-2.922-.073-2.922-.073l.133 42.786c-4.178-7.8-7.373-12.737-12-26.281 1.341-.937 2.72-1.66 2.95-1.819-1.778-4.312-3.009-11.093-.527-17.002l1.712 1.025c-1.255 3.607-1.717 8.94.334 13.869l.471-.497s-.507-.984-.834-2.07c-.29-.967-.71-2.216-.713-3.509-.082-2.291-.013-4.26.525-6.098.186-.6.45-1.494.588-1.769.138-.275.272-.53.27-.606-5.035-2.051-8.645-5.052-12.986-7.198a9.076 9.076 0 0 1-.412-.212c-.55-.308-.406-.414.455-.758 1.813-.725 2.551-1.605 2.512-3.374-.057-2.515-1.395-3.495-4.32-3.33-1.062.06-1.131.045-1.32-.32-.443-.854-1.97-4.247-1.972-4.382-.002-.08-.32-.843-.709-1.696-.6-1.362-1.295-2.765-1.577-4.186-.144-.706-.55-.984-.655-.255-.773 5.416-1.486 8.274-2.878 11.528-.413.968-.726 1.783-.694 1.812.134.12 2.463 1.207 3.553 1.658 4.252 1.76 6.186 2.846 5.53 3.107-.457.183-.622.501-.738 1.411-.305 2.384-.271 3.604.125 4.358.416.792.407.848-.275 1.294-.59.388-.463.389-.624 2.38-.19 2.364-.061 3.867-.061 3.867l1.06 1.367-1.079 1.348-.247 6.19 1.455 1.11-1.36 1.35.485 5.646s-.178.521-.413.78c2.303 23.877 11.202 47.94 24.533 64.34l.133 39.225 13.064 13.145-.565-202.769Zm-1.022 2.525v3.092l-11.094 12.014 11.094.194v2.62l-17.032-.033 17.032-17.887Zm-.171 5.248.028 8.658-8.293.011 8.265-8.669Zm-76.085 4.364 1.729-.073c-.068 1.745-.756 9.804-1.578 16.86-.927 7.956-2.824 14.82-3.188 14.82l-1.67-1.018c2.766-9.127 3.502-20.874 4.707-30.59Zm7.845-.25c-.244 4.926-1.27 8.371-1.584 14.195-.388 7.114-1.604 15.97-4.787 23.316-1.071 2.475-3.052 4.797-5.83 5.893-4.873 1.922-9.009-4.15-5.715-8.617 2.603-3.53 6.679-3.484 7.916.087 1.022 2.952-2.263 6.658-4.884 5.507-1.821-.8-1.357-4.1.69-4.876.847-.322 1.565.76 1.147 1.73-.33.764-.365 1.242.081.917 1.85-1.311.457-4.437-1.84-3.268-3.063 1.56-2.547 6.143.539 6.343 3.906.386 6.92-4.452 8.85-13.638 2.117-10.281 1.59-19.485 3.62-27.557l1.797-.032Zm-4.992.172 2.053-.061c-.163.763-.192 1.577-.333 2.51-.809 5.394-1.288 13.266-2.117 19.436-1.171 8.706-3.268 13.998-3.322 13.353-.234-1.056-.897-1.912-1.405-2.747 2.116-5.79 2.97-11.057 3.514-16.018.634-5.796.813-11.172 1.61-16.473Zm-8.778.5 1.802-.093c-.701 11.541-2.383 22.006-3.378 26.497-.307 1.354-.41 1.941-.665 2.054-.284.125-.755-.333-1.904-.974 1.747.248 3.149-19.625 4.145-27.484Zm2.81-.166 1.956-.193c-.29 4.173-.99 10.733-1.775 16.648-.949 7.151-2.19 13.488-2.81 13.393l-1.63-.568c1.09.343 3.778-20.99 4.26-29.28Zm-3.711.203c-1.278 8.738-1.4 18.948-4.048 27.106l-1.831-.856c.501.164 1.804-5.309 2.245-11.502.383-5.39 1.352-11.256 1.638-14.506l1.996-.242Zm-3.021.32c-.728 3.086-.728 7.633-1.274 11.426-.676 4.696-1.396 14.234-2.476 14.015l-1.871-.953c.981.297 2.694-17.774 3.735-24.191l1.886-.296Zm-4.925.766 1.899-.259c-.914 7.055-2.568 23.505-3.546 23.628l-1.78-.95c.693-2.89 2.452-12.715 3.427-22.42Zm-1.18.275c-.787 7.755-1.525 15.608-3.17 21.638l-1.947-.882s1.352-6.633 1.993-11.292c.633-4.598.73-5.254.93-6.452.445-2.642.568-2.74.568-2.74l1.625-.272Zm83.42 7.948-.187 37.239-2.16-.083.089-37.214 2.258.058Zm5.1.295c.816 0 1.476.663 1.476 1.483 0 .82-.66 1.488-1.475 1.488a1.482 1.482 0 0 1-1.475-1.488c0-.82.659-1.483 1.475-1.483Zm-34.78 13.665c1.528 2.811 2.701 3.842 4.048 4.38 2.43.97 5.781-1.42 4.562-4.765-.642-1.758-2.269-2.02-4.333-1.669 0 0-.888-.635-1.934-3.822-1.238-3.772-3.181-7.653-3.181-7.653-.123 4.732-1.23 9.658.838 13.529Zm36.964-10.21a1.482 1.482 0 0 1 0 2.968 1.478 1.478 0 0 1-1.475-1.484c0-.82.66-1.483 1.475-1.483Zm-4.049.06c.815 0 1.475.662 1.475 1.482s-.66 1.489-1.475 1.489a1.487 1.487 0 0 1 0-2.972Zm-33.092-.357c1.37 2.856 1.659 5.006 2.987 7.593.582 1.13 1.104 2.097 1.104 2.097 4.34-2.05 6.008 3.116 2.489 4.765-3.464 1.624-7.363-4.546-6.984-11.19.105-1.831.404-3.265.404-3.265Zm35.035 3.856c.815 0 1.475.663 1.475 1.483 0 .82-.66 1.488-1.475 1.488a1.482 1.482 0 0 1-1.475-1.488c0-.82.659-1.483 1.475-1.483Zm3.908 2.787v3.173l-7.712 7.525v-3.07l7.712-7.628ZM82.154 46.265c1.474.02 2.18.457 1.204.848-3.237 1.293-4.676 3.353-4.854 6.956-.008 1.82.209 2.059-.906 1.043-2.846-4.005 1.255-8.871 4.556-8.847Zm2.707 1.302c.359-.014.715.033 1.07.146.868.274.55.294-.913 1.27-2.789 1.862-3.638 3.685-3.761 7.412-.036.561.08 1.027.032 1.263-.038.178-.254.12-.384.114-.533-.09-.86-.656-1.014-1.134-1.768-3.55 1.5-8.939 4.97-9.07Zm3.02 1.233c.24-.003.45.035.622.121.682.342.43.392-.82 1.288-2.216 1.589-3.313 3.925-3.57 6.534-.166 1.674 1.119 3.664-1.155 2.024-1.598-1.334-1.279-4.799.417-7.177 1.045-1.467 3.21-2.775 4.506-2.79Zm95.677-.725v3.612l-7.712 7.367v-3.698l7.712-7.281Zm-93.2 1.883c.876.01 1.269.574.246 1.222-2.497 1.578-3.999 4.588-3.852 7.731.141 1.898.213 2.24-.993.984-1.942-2.02-.573-7.507 3.191-9.559.512-.27 1.01-.382 1.408-.378Zm2.555 1.052c1.438-.035 1.638.696.352 1.6-2.455 1.723-4.094 4.758-4.055 7.518.019 1.282-.081 1.441-.645 1.008-2.836-2.177.203-9.772 4.044-10.107a4.92 4.92 0 0 1 .304-.02Zm50.717.237c.353.026.981 1.28 1.967 3.907.95 2.533 2.485 5.726 2.81 5.846.1.037.533-.114.96-.339 3.236-1.708 5.513 3.137 2.323 4.94-2.269 1.281-4.41-.093-6.387-4.106-2.33-4.73-2.968-8.243-1.841-10.136.046-.079.102-.116.168-.112Zm-48.085 1.29c.39-.018.767.057 1.123.242.838.436.716.76-.569 1.517-1.324.782-1.846 1.27-2.608 2.429-1.187 1.806-1.387 2.5-1.388 4.828 0 1.897-.56 2.001-1.687.315-1.942-2.906 1.952-9.19 5.129-9.331Zm3.23 1.701c1.27-.028 2.107.493.891 1.14-3.868 2.055-5.493 5.007-4.753 8.637.233 1.139-1.06.175-1.846-1.376-1.147-2.265.969-6.642 3.856-7.979a4.765 4.765 0 0 1 1.852-.422Zm43.65 3.34c.242.018.523.665 1.143 2.259.403 1.039.944 2.282 1.205 2.763.26.48.442.932.4 1.003-.218.365-2.01-.256-2.613-.906-.93-1.005-1.226-3.252-.598-4.537.185-.375.318-.592.463-.582Zm37.148 2.739c.815 0 1.475.663 1.475 1.483 0 .82-.66 1.488-1.475 1.488a1.482 1.482 0 0 1-1.475-1.488c0-.82.659-1.483 1.475-1.483ZM28.172 62.712c.815 0 1.475.668 1.475 1.488s-.66 1.483-1.475 1.483a1.478 1.478 0 0 1-1.475-1.483c0-.82.66-1.488 1.475-1.488Zm60.995.445c1.612-.056 2.11.71 2.381 3.17.186 1.69.549 1.848 3.192 1.402 2.79-.472 3.724.29 3.924 3.194.157 2.304.138 2.286 3.311 2.307 3.124.022 3.46.34 3.818 3.558.267 2.392.177 2.325 3.25 2.284 3.403-.047 3.708.206 3.938 3.233.187 2.453.348 2.61 2.497 2.433 2.105-.174 5.989-.193 6.715-.034 1.81.397 1.886.323 2.275-2.133.513-3.232 1.149-3.637 5.1-3.238 1.943.197 2.168.157 2.443-1.562.368-2.292.825-2.963.826-.978.002 5.015-.344 5.25-3.672 4.357-2.5-.67-2.54-.156-2.802 2.265-.23 2.133-.589 3.008-1.37 3.35-.605.264-2.646.038-3.465-.196-.311-.088-2.252-.136-4.55-.111-5.538.058-5.596.071-5.592-3.84.002-1.645-.357-2-3.255-1.912-3.636.11-3.445.208-4.063-4.181-.216-1.522-.336-1.58-3.346-1.537-3.28.048-4.025.095-3.832-2.684.175-2.526-.436-3.19-3.172-2.55-2.915.683-3.472-.56-3.756-2.82-.263-2.092-.44-1.569-1.831-1.678-1.542-.12-1.362-1.864.274-2.026.28-.027.532-.064.762-.073Zm92.686.762c.815 0 1.475.663 1.475 1.483 0 .82-.66 1.483-1.475 1.483a1.478 1.478 0 0 1-1.475-1.483c0-.82.66-1.483 1.475-1.483Zm-4.156.082c.816 0 1.476.668 1.476 1.488s-.66 1.483-1.476 1.483a1.478 1.478 0 0 1-1.475-1.483c0-.82.66-1.488 1.475-1.488ZM30.385 66.473a1.482 1.482 0 0 1 0 2.967 1.478 1.478 0 0 1-1.475-1.484c0-.82.66-1.483 1.475-1.483Zm-4.146.034c.815 0 1.475.663 1.475 1.483 0 .82-.66 1.484-1.475 1.484a1.478 1.478 0 0 1-1.475-1.484c0-.82.66-1.483 1.475-1.483Zm77.143 1.263 15.347 11.517 14.528-9.776-.089 3.566-14.422 9.644s-12.275-9.557-18.208-14.172l2.844-.779Zm76.383.172c.816 0 1.476.668 1.476 1.488s-.66 1.483-1.476 1.483a1.478 1.478 0 0 1-1.475-1.483c0-.82.66-1.488 1.475-1.488Zm-25.138 1.944 3.641 5.947-3.634 2.652 3.307 4.252-3.567 3.676 3.92 2.505-3.665 5.134-5.075 2.266 5.075-6.706-4.2-2.9 3.984-4.315-3.574-4.712 3.7-2.908-4.003-6.602.261-.318 3.83 2.029ZM87.34 68.573l26.967 20.285s2.49 1.885 3.204 2.34c1.514.965 1.816.58 3.327-.464 3.408-2.034 11.656-7.679 11.656-7.679l-.066 2.923s-8.296 6.242-12.888 8.831c-.652.362-1.35.02-1.841-.354-10.015-7.976-20.265-15.71-30.418-23.524l.059-2.358Zm61.966.322c.113.205.476.279.651.552 1.195 1.86 3.361 5.164 3.361 5.164l-3.792 3.025 3.482 4.597-4.35 4.445 4.443 3.042s-2.76 4.247-4.845 6.19l-.052-3.3 1.783-2.16-2.045-1.416-.006-4.537 2.08-2.203-1.905-1.936.34-4.961 1.815-1.446-1.498-2.065.538-2.99ZM28.223 69.907a1.482 1.482 0 0 1 0 2.967 1.478 1.478 0 0 1-1.475-1.483c0-.82.66-1.484 1.475-1.484Zm155.042 5.411-7.503 6.972v-3.166l7.503-7.405v3.6ZM32.51 71.913v3.821l-8.01 7.439v-3.69l8.01-7.57Zm150.754 4.382v3.793l-7.503 7.088V83.42l7.503-7.125Zm-8.828.596.156 123.3 8.71 9.268.007 3.075-11.024-11.484-.251-124.057 2.402-.102Zm-141.926-.367v4.292l-8.01 7.35v-4.04l8.01-7.602Zm54.806.787 10.595 8.294-.044 28.913c-4.29-3.245-7.734-5.178-10.99-6.823l.44-30.384Zm92.458 9.352c.816 0 1.475.663 1.475 1.483 0 .82-.659 1.483-1.475 1.483a1.482 1.482 0 0 1 0-2.966Zm-78.673 1.413.04 29.502-2.087-1.917-.122-29.26 2.17 1.675Zm-72.356.283c.815 0 1.475.664 1.475 1.483 0 .82-.66 1.489-1.475 1.489a1.487 1.487 0 0 1 0-2.972Zm153 2.104c.816 0 1.476.663 1.476 1.483 0 .82-.66 1.488-1.475 1.488a1.483 1.483 0 0 1-1.475-1.488c0-.82.66-1.483 1.475-1.483Zm-4.203.184c.816 0 1.475.664 1.475 1.483 0 .82-.66 1.484-1.475 1.484a1.478 1.478 0 0 1-1.475-1.484c0-.82.66-1.483 1.475-1.483Zm-75.257-.143 6.463 6.076-6.658 6.35-.054-2.93 3.705-3.592-3.723-3.883.267-2.021Zm2.46.536 5.389 4-.844 1.029-4.545-5.029Zm-73.817.897c.816 0 1.476.663 1.476 1.483 0 .82-.66 1.483-1.476 1.483a1.478 1.478 0 0 1-1.475-1.483c0-.82.66-1.483 1.475-1.483Zm-4.324.072c.816 0 1.475.669 1.475 1.488 0 .82-.66 1.484-1.475 1.484a1.478 1.478 0 0 1-1.475-1.484c0-.82.66-1.488 1.475-1.488Zm105.912.539c1.038 11.803 1.757 19.972 4.79 31.102l-13.94 8.962.127-34.185 9.023-5.88Zm38.42 27.007-.056 40.537c-13.156-18.825-20.25-40.829-22.533-61.681 0 0 7.063-3.272 10.492-5.28 3.632 8.56 2.064 8.55 12.096 26.424Zm9.016-25.292c.816 0 1.476.669 1.476 1.488 0 .82-.66 1.484-1.476 1.484a1.478 1.478 0 0 1-1.475-1.484c0-.82.66-1.488 1.475-1.488Zm-151.15 1.595c.816 0 1.476.664 1.476 1.483 0 .82-.66 1.489-1.475 1.489a1.483 1.483 0 0 1-1.476-1.489c0-.82.66-1.483 1.476-1.483Zm82.25-.137 5.12 3.93.012 2.978-6.124-5.922.992-.986Zm-1.754 1.574 6.4 6.363-6.71 6.733-6.62-6.308 6.93-6.788Zm48.2.222-6.173 2.546c2.362 21.51 8.488 37.635 16.747 50.707l.188-30.173c-4.264-6.786-7.492-14.961-10.762-23.08Zm25.946.445v3.383l-7.683 7.086v-3.37l7.683-7.1Zm-74.152 1.861-4.078 4.004 4.107 3.994 3.953-3.994-3.982-4.004Zm-76.782-.443v3.599l-7.627 7.407v-3.826l7.627-7.18Zm85.885 2.017.062 34.43-1.697.807.119-35.97 1.516.733Zm-9.18.52 1.851 1.871-1.938 1.959-1.822-1.871 1.909-1.959Zm74.23.36v3.902l-7.684 7.215-.128-3.722 7.811-7.395ZM98.436 116.91c7.93 6.899 14.02 17.37 20.71 23.224 2.704 2.357 9.32 6.038 12.89 7.17 4.058 1.286 7.216 1.813 11.29 1.885 3.216.058 3.23.077 3.23.077l1.361 2.434-2.25-.032-.148 8.593c2.384.117 4.719-.016 7.023-.303l.832 1.565c-16.4 2.235-32.43-4.014-42.072-12-4.396-3.634-7.97-8.073-12.319-14.534-8.37-13.129-23.115-19.468-36.846-19.615l-1.139-1.78 2.295.078s.232-1.651.262-4.458c.035-3.16.015-3.715-.23-3.807-1.664-.194-6.678-.09-6.531.124l-1.033-1.856c16.37-1.697 32.48 4.033 42.675 13.235Zm-65.926-12.958v3.53l-7.627 7.235v-3.535l7.627-7.23Zm83.841.3-.2 3.156-3.637 3.616 3.869 3.777-.092 2.636-6.822-6.362 6.882-6.822Zm-49.822 1.123c-.352 0-.563.03-.603.097-.09.152-.04 1.508-.337 6.413-.11 1.797-.233 1.805 1.266 1.986 1.259.043 4.073.768 5.947.99 1.578.21 1.248-.272 1.693-1.54.485-1.388.748-2.619 1.35-4.6.552-1.813.298-1.871-3.256-2.54-2.457-.46-5.007-.806-6.06-.806Zm35.479-.3 6.174 6.194-6.078 6.208-.107-3c1.173-1.049 2.57-2.243 3.6-3.427l-3.582-3.678-.007-2.298Zm-30.96 2.007.663 1.096 1.59.264-.278 1.114.81 1.15-.996.751.035 1.387-1.246-.044-1.082.779-.856-1.093-1.247-.041.067-1.555-.809-.687.967-.87-.125-1.38 1.536.26.97-1.13Zm-10.025 1.868.98.646-.996.692-.045 1.06-.61.523-2.24-4.408 1.457.594 1.113-.743.34 1.636Zm17.972-1.02c-.784.014-.886 1.47-1.735 4.225-1.183 3.844-1.269 3.489 1.003 4.29 1.011.357 2.945 1.013 3.969 1.497 2.493 1.178 2.506 1.174 3.437-.427.413-.71 1.196-2.453 1.745-3.357 1.368-2.256 1.405-2.147-1.109-3.364-1.479-.716-2.374-1.009-5.483-2.277-.865-.352-1.417-.593-1.827-.586Zm2.488 2.55 1.089.687 1.224-.514.244 1.324 1.34.522-.381 1.302.589.976-1.14.223-.829 1.804-1.251-.883-1.328.482-.368-.993-1.359-.66.493-1.093-.678-1.475 1.555-.12.8-1.582Zm27.374 1.353 6.814 6.715-6.204 6.253-6.812-6.737 6.202-6.23Zm71.09 1.224c.817 0 1.476.663 1.476 1.483 0 .82-.66 1.483-1.475 1.483a1.478 1.478 0 0 1-1.475-1.483c0-.82.66-1.483 1.475-1.483Zm-89.288.326c-.395.005-.621.371-.964 1.076a43.523 43.523 0 0 1-1.763 3.1c-1.752 2.76-1.753 2.62-.005 3.7.742.458 2.45 1.871 3.917 3.205 1.358 1.234 1.21.942 4.136-2 1.908-1.918 3.085-2.458 2.341-3.469-1.808-1.558-3.29-2.697-5.251-4.187-1.296-.971-1.963-1.432-2.41-1.425Zm18.517.75-4.02 3.96 4.53 4.127 3.757-3.88-4.267-4.207Zm-68.845-1.344.044 30.976c4.42 7.598 8.957 15.266 11.318 23.818l6.483-3.195c-3.1-25.306-10.315-39.338-17.845-51.6Zm-11.543 1.945c.815 0 1.475.663 1.475 1.483 0 .82-.66 1.484-1.475 1.484a1.478 1.478 0 0 1-1.475-1.484c0-.82.66-1.483 1.475-1.483Zm80.437 1.653 1.937 1.789-1.783 1.948-1.957-2.036 1.803-1.701Zm72.53.29a1.482 1.482 0 0 1 0 2.967 1.478 1.478 0 0 1-1.475-1.483c0-.82.66-1.483 1.475-1.483Zm-3.962.151a1.482 1.482 0 0 1 0 2.967 1.478 1.478 0 0 1-1.475-1.484c0-.82.66-1.483 1.475-1.483Zm-86.223-.097 1.12.835 1.317-.569.095 1.559 1.198.593-.755 1.105.456 1.452-1.296.042-1.008 1.33-.905-.874-1.764.12-.281-1.514-.764-.602.593-1.001-.434-1.334 1.51-.104.918-1.038Zm-64.951 1.653c.815 0 1.475.663 1.475 1.483 0 .82-.66 1.484-1.475 1.484a1.478 1.478 0 0 1-1.475-1.484c0-.82.66-1.483 1.475-1.483Zm4.247.044c.815 0 1.475.668 1.475 1.488s-.66 1.483-1.475 1.483a1.478 1.478 0 0 1-1.475-1.483c0-.82.66-1.488 1.475-1.488Zm85.439 3.54-3.52 3.303 3.47 3.636-.106 2.787-6.153-6.171 6.253-6.173.056 2.617Zm-34.792-.718-13.206 8.809-.802-2.204 11.772-7.753 2.236 1.148Zm98.242-.719c.816 0 1.475.669 1.475 1.489 0 .82-.66 1.483-1.475 1.483a1.478 1.478 0 0 1-1.475-1.483c0-.82.66-1.489 1.475-1.489Zm-79.176.896c-.611.043-1.235.77-2.42 2.036-1.163 1.243-2.534 2.702-2.827 2.91-.917.649-.873.806.723 2.607a58.74 58.74 0 0 1 2.034 2.487c.634.822 1.645 1.851 1.845 2.063.648.683 1.004.54 3.982-1.61 3.617-2.61 3.6-2.223.275-6.539-1.913-2.484-2.828-4.01-3.612-3.954Zm-71.834.912c.815 0 1.475.664 1.475 1.484s-.66 1.483-1.475 1.483a1.482 1.482 0 0 1 0-2.967Zm77.457.539 2.386 2.574-.213.256-2.173-2.83Zm77.152.573v4.46l-7.351 6.83v-4.08l7.35-7.21Zm-82.33 1.303.893 1.237 1.515-.098-.223 1.456.805.592-.786 1.103-.063 1.39-1.251-.298-1.025 1.24-1.008-1.188-1.188.138.04-1.446-1.212-.692.856-.941.027-1.62 1.764-.067.855-.806Zm36.37.093.734 2.25-18.38 12.026-1.605-1.855 19.251-12.421Zm-48.117 1.506 1.463 1.108-19.292 12.473-.58-1.626 18.409-11.955Zm-56.426-.478v3.709l-8.138 7.885v-3.83l8.138-7.764Zm76.394.89.235-.195 6.307 6.09-1.191 1.275-5.351-7.17Zm-17.423 1.787.173 35.974-1.681-1.17.127-34.13 1.381-.674Zm1.037.83 1.369 1.213-1.311 1.289-.058-2.501Zm90.495-.306v3.648l-7.351 7.02v-3.815l7.35-6.853Zm-150.503 1.752v3.429l-8.138 7.821v-3.464l8.138-7.786Zm75.848.467c-.21-.003-.438.134-.771.398-.303.238-1.043.756-1.644 1.148-2.214 1.447-4.092 2.803-4.175 3.003-.17.415 2.051 3.33 5.136 6.824 1.212 1.374 1.178 1.64 2.395.417.967-1.104 4.511-4.128 4.409-4.937-.195-.926-1.414-1.979-4.439-6.092-.402-.518-.64-.756-.91-.76Zm-13.667.376 4.838 6.962-.645.647-5.936-5.89 1.743-1.72Zm-9.455.821.01 33.564-9.083 6.487c.166.088-1.115-20.165-4.588-30.967l13.661-9.084Zm22.587 1.183.89 1.67 1.346-.229-.177 1.535 1.14.9-1.121 1.56.148 1.111-1.32-.301-1.205 1.252-.826-1.593-1.736.028.243-1.53-1.21-1.023 1.321-.785.184-1.395 1.139.098 1.184-1.298Zm7.882.26.15 1.371-.81-.707.66-.665Zm-23.22 2.437-.013-1.962 5.79 5.619-5.913 5.573.041-2.646 3.366-3.225-3.27-3.36Zm47.857-1.086.822 2.502-11.896 7.366-2.399-1.253 13.473-8.615Zm39.192 4.136a1.487 1.487 0 0 1 0 2.971 1.483 1.483 0 0 1-1.475-1.488c0-.82.66-1.483 1.475-1.483Zm-75.717 4.828-4.18-4.207.526-.572 3.654 4.779Zm10.77-3.782c-1.418 1.218-4.44 4.73-4.436 5.31.005.578 4.186 4.212 6.701 5.825.79.506 1.103.522 1.408.063 4.344-6.526 4.529-6.306 2.809-7.58-1.748-1.344-3.792-3.345-5.187-4.033-.588-.29-.69-.11-1.296.415Zm-15.666.318 6.89 6.644-6.39 6.196-6.632-7.035 6.132-5.805Zm-70.353.502c.815 0 1.475.663 1.475 1.483 0 .82-.66 1.484-1.475 1.484a1.478 1.478 0 0 1-1.476-1.484c0-.82.66-1.483 1.476-1.483Zm87.056 1.335 1.16 1.038 1.382-.363.31 1.373 1.334.494-.715 1.397.099 1.76-1.343-.251-.931 1.444-1.363-1.38-1.564.132.087-1.54-1.38-.672.875-1.011-.548-1.386 1.653.262.944-1.297Zm65.872.619c.816 0 1.475.663 1.475 1.483 0 .82-.66 1.483-1.475 1.483a1.482 1.482 0 0 1 0-2.966Zm-86.195 3.5 4.079 4.198 3.754-3.62-3.98-4.224-3.853 3.647Zm82.127-3.442c.815 0 1.475.663 1.475 1.483 0 .82-.66 1.488-1.475 1.488a1.483 1.483 0 0 1-1.475-1.488c0-.82.66-1.483 1.475-1.483Zm-150.895 1.546c.816 0 1.475.668 1.475 1.488s-.66 1.483-1.475 1.483a1.478 1.478 0 0 1-1.475-1.483c0-.82.66-1.488 1.475-1.488Zm4.324.015c.816 0 1.475.668 1.475 1.488s-.66 1.483-1.475 1.483a1.478 1.478 0 0 1-1.475-1.483c0-.82.66-1.488 1.475-1.488Zm68.315.33 1.856 1.925-1.717 1.821-1.92-1.986 1.781-1.76Zm25.207 1.32c-.95.685-3.532 5.602-3.974 6.683.003.261 1.246 1.054 2.8 1.784 1.326.623 5.627 2.358 6.023 2.454.864.211 1.013-.119 1.157-.684.076-.3.418-1.443.799-2.686 1.332-4.352 1.732-4.146-.25-4.807-.684-.228-2.829-.955-4.18-1.582-1.339-.62-1.944-1.17-2.375-1.162Zm55.035.788a1.487 1.487 0 0 1 0 2.971 1.483 1.483 0 0 1-1.475-1.488c0-.82.66-1.483 1.475-1.483Zm-70.473 2.036.231 29.177-2.27-1.786-.063-29.273 2.102 1.882Zm-10.155 4.972-6.268 6.415-.04-3.268 3.51-3.196-3.574-3.758.074-2.525c2.286 1.882 4.238 4.196 6.298 6.332Zm-70.247-5.598c.815 0 1.475.664 1.475 1.484s-.66 1.488-1.475 1.488a1.487 1.487 0 0 1 0-2.972Zm96.74-.063 1.264 1.06 1.059-.64.61 1.092 1.52.213-.682 1.668.893 1.287-1.484.276-.368 1.778-1.453-.869-1.105.48-.803-1.505-1.72-.07.938-1.636-.884-1.294 1.248-.082.967-1.758Zm-19.347.116-.01 2.573-2.728 2.78 2.737 2.996-.014 2.993-5.669-5.804 5.684-5.538Zm29.082 1.69c-.57.017-.576.623-1.014 2.597a68.667 68.667 0 0 1-.67 2.55c-.826 2.954-.93 3.01 1.619 3.518 1.475.221 7.862 1.716 7.993.693.16-1.739.264-5.833.286-7.224.056-.466-.053-.906-.517-.962-2.911-.35-6.15-1.118-7.697-1.172Zm-24.88.125c3.628 2.49 7.138 5.027 11.306 7.299l.105 30.005-11.436-8.564.026-28.74Zm72.789.086v3.678l-7.623 7.32v-3.514l7.623-7.484Zm-44.658 1.277.66 1.423 1.388-.465-.008 1.7 1.238.786-1.493.692-.131 2.068-1.513-.468-1.245.775-1.103-1.164-1.35-.026.496-1.84-.872-.839 1.267-.625.103-1.642 1.355.815 1.208-1.19Zm-105.595-.274v3.546l-8.298 7.68v-3.099l8.298-8.127Zm115.986 2.223 1.861 3.165-.672 1.28-1.248-.613-1.371.51.21-1.693-1.06-.846 1.072-.99-.05-1.242 1.258.429Zm-49.156 1.044 6.364 6.63-6.483 6.731-6.362-6.724 6.481-6.637Zm83.423 4.15-7.623 7.121v-3.463l7.623-7.269v3.612Zm-150.253-2.895v3.46l-8.298 7.818v-3.205l8.298-8.073Zm66.846 1.237-4.133 4.112 4.099 4.136 4.14-4.035-4.106-4.213Zm.055 2.357 1.77 1.826-1.691 1.767-1.825-1.784 1.746-1.81Zm-7.096 2.527 6.31 6.513-.725.86-5.59-4.367.005-3.006Zm13.543.528.168 2.94-3.442 2.953 3.144 3.317.087 3.054-5.981-6.19 6.024-6.074Zm73.512 2.984c.816 0 1.475.663 1.475 1.483 0 .82-.66 1.483-1.475 1.483a1.478 1.478 0 0 1-1.476-1.483c0-.82.66-1.483 1.476-1.483Zm-150.813 1.793c.815 0 1.475.664 1.475 1.484s-.66 1.488-1.475 1.488a1.483 1.483 0 0 1-1.475-1.488c0-.82.66-1.484 1.475-1.484Zm30.206.91-4.655 7 3.668 2.472-3.474 4.695 3.614 4.371-3.638 3.138 3.692 6.356c-1.468-.292-2.96-1.276-4.312-1.96l-2.784-5.324 3.202-2.77-3.25-3.791 3.409-4.06-3.418-2.411 3.727-5.764 4.219-1.953Zm122.37.932c.816 0 1.476.664 1.476 1.484s-.66 1.483-1.475 1.483a1.478 1.478 0 0 1-1.475-1.483c0-.82.659-1.484 1.475-1.484Zm-91.553-.115 32.13 24.902-.131 3.304-32.137-24.834L76.3 182.4l.122-3.526 13.66-9.533Zm87.62.314c.816 0 1.475.663 1.475 1.483 0 .82-.66 1.484-1.475 1.484a1.478 1.478 0 0 1-1.475-1.484c0-.82.66-1.483 1.475-1.483Zm-74.784 3.18-.338.064-3.505-2.573.764-.866s2.299 2.552 3.079 3.374ZM31.243 171.4a1.487 1.487 0 0 1 0 2.972 1.478 1.478 0 0 1-1.475-1.484c0-.82.66-1.488 1.475-1.488Zm-3.977.02a1.482 1.482 0 0 1 0 2.966 1.478 1.478 0 0 1-1.475-1.483c0-.82.66-1.484 1.475-1.484Zm152.606 1.958c.816 0 1.475.668 1.475 1.488s-.66 1.483-1.475 1.483a1.478 1.478 0 0 1-1.476-1.483c0-.82.66-1.488 1.476-1.488ZM29.045 175.02c.815 0 1.475.668 1.475 1.488s-.66 1.484-1.475 1.484a1.478 1.478 0 0 1-1.476-1.484c0-.82.66-1.488 1.476-1.488Zm154.22 2.764v3.276l-7.206 7.022v-3.163l7.206-7.135Zm-97.255.983c1.071-.01 2.507.045 4.44.112 1.654.057 3.483.093 4.063.077 2.291-.062 3.04.721 3.08 3.21.038 2.211.029 2.204 2.907 2.326 3.47.147 4.388 1.042 4.435 4.338.019 1.284 1.05 1.787 3.071 1.498 3.186-.455 3.805-.015 4.175 2.962.307 2.485.142 2.357 3.06 2.336 3.14-.022 3.84.508 3.876 2.938.022 1.41.364 1.834 1.577 1.944 1.296.117 1.855.786 1.215 1.45-.117.12-.717.194-1.663.208-2 .029-2.66-.603-3.033-2.909-.259-1.6-.42-1.684-3.08-1.61-3.392.096-3.657-.11-4.025-3.087-.315-2.556-.742-2.818-3.66-2.264-2.12.403-3.243-.537-3.518-2.937-.31-2.694-.429-2.792-3.437-2.899-3.015-.107-3.855-.64-3.88-2.462-.041-2.824-.396-3.08-4.103-2.967-1.8.055-3.641.023-4.7-.087-2.246-.234-2.234-.245-2.459 1.924-.335 3.241-.807 3.54-5.071 3.224-1.78-.132-1.907-.05-2.03 1.313-.152 1.706-.78 2.758-1.262 2.114-.252-.337-.255-.368 0-2.865.283-2.794.315-2.815 3.938-2.535 2.455.19 2.336.279 2.598-1.963.32-2.73.27-3.358 3.486-3.389Zm-52.877-.256v3.596l-8.42 7.861v-3.484l8.42-7.973Zm26.159 4.226 1.832 2.517-.594 4.68-1.556 1.179 1.103 2.224-.353 2.734-.437.25-3.057-5.966 3.618-3.2-3.708-4.547 3.502-4.748-3.635-2.569 4.368-6.466c.757-.925.8 2.745.8 2.745l-1.808 2.755 2.023 1.756h.005l.007 4.36-2.11 2.296Zm2.312-2.12.197-5.868-1.578-1.23 1.218-2.035-.083-5.198-.367-.253c-3.036-37.214-21.153-59.203-23.989-64.19 0 0-.63-.51-.514-1.788.05-.555.075-3.835.053-7.29-.114-17.64.033-29.725.033-29.725L23.256 48.766l.077 5.223.654.474-.002 23.782-.554.03s-.172 6.395-.127 10.787l.792.022-.048 16.342-.675.08.039 10.588.734-.002s.172 11.101-.09 16.5l-.547.033.037 10.524.62.047.04 15.053-.763.116.207 9.937.622.035c.225 6.139.118 16.752.118 16.752l-.712.033.175 9.866.51.033-.148 17.32-.466.055.179 10.23.502.046-.085 8.507-.345.059-.083 3.181.369.843.024 11.335-.28.123-.083 5.693 20.656-21-7.604-.23.004-6.786c.003-11.2.151-20.24-.183-31.164-.1-.098-.854-.218-1.677-.267-3.914-.23-4.976-.55-4.99-1.493-.017-1.168 1.758-2.615 3.23-2.637.333-.005.892-.337.892-.337L33.8 64.227l-9.241-9.732.04-3.09 11.386 12.118.428 124.206.433-.201.031-41.713c5.836 8.777 9.11 17.475 12.355 26.172 0 0 1.149-.398 1.196-.422.01-.01-.41-.147-.41-.147-3.312-11.115-7.502-19.175-12.936-27.587l.078-40.426c13.915 19.766 20.643 37.541 23.438 63.161l-7.043 3.537-.683.918-5.32 2.674-.509-.854-3.225 2.246c2.491 4.371 2.4 10.653.369 13.98l.873.547c.06.24 3.342-6.803-.329-13.966l2.403-1.489c3.466 7.205 1.857 14.966.224 16.965 0 0 2.51 1.608 4.312 2.592 1.96 1.07 3.702 2.049 6.05 2.81 1.448.592 2.368-.104 2.363-.12l.704-4.02-1.118-1.534 1.302-1.054.593-6.159-1.398-1.42 1.437-1.6Zm121.66 1.644v3.967l-7.205 6.865v-3.903l7.206-6.929Zm-150.131 4.25-8.42 7.77v-3.232l8.42-7.948v3.41Zm147.267 5.286a1.486 1.486 0 0 1 0 2.971 1.478 1.478 0 0 1-1.475-1.483c0-.82.66-1.488 1.475-1.488Zm-143.905 2.403.008 36.609-2.222.002.102-37.058 2.112.447Zm-7.436-.333c.815 0 1.475.663 1.475 1.483 0 .82-.66 1.483-1.475 1.483a1.478 1.478 0 0 1-1.475-1.483c0-.82.66-1.483 1.475-1.483Zm149.241 1.415c.815 0 1.475.664 1.475 1.484s-.66 1.488-1.475 1.488a1.486 1.486 0 0 1 0-2.972Zm3.977.063c.815 0 1.475.664 1.475 1.484s-.66 1.483-1.475 1.483a1.482 1.482 0 0 1 0-2.967Zm-150.914 2.23a1.487 1.487 0 0 1 0 2.972 1.478 1.478 0 0 1-1.475-1.484c0-.82.66-1.488 1.475-1.488Zm76.012.044c7.691.957 5.654 9.07 2.411 10.756-4.414 2.067-7.95-2.096-5.13-6.316 2.068-3.096 6.003-1.048 4.483 2.345-.856 1.911-2.632 1.688-2.615-.245.633-1.837.052-1.183-.444-.534-1.556 2.035 1.584 4.195 3.197 2.186.99-1.233 1.199-2.697.86-3.867-.58-1.998-2.873-3.167-5.468-1.317-3.1 3.739-4.758 8.576-5.674 13.987-1.949 11.517-2.047 23.634-3.72 26.707l-1.822-.044c2.648-13.18 2.661-24.462 5.488-34.853 1.399-5.151 4.969-8.816 8.434-8.805Zm-80.047.063c.816 0 1.476.668 1.476 1.488s-.66 1.483-1.476 1.483a1.478 1.478 0 0 1-1.475-1.483c0-.82.66-1.488 1.475-1.488Zm31.209.203c-2.028.04-4.087 1.73-3.929 3.888.192 2.62 1.736 3.787 4.276 3.524 1.358-.14 1.322-.163 2.237 1.483.823 1.482 2.994 7.806 3.008 8.764-1.043-1.391-3.479-3.976-5.727-3.868-2.414.177-4.446 2.477-2.621 5.735.97 1.597 2.696 1.91 4.451 1.382 2.626 4.108 3.121 8.222 3.956 12.997 0 0 1.037-10.22 1.351-14.296.597-6.248 1.446-10.294 3.85-15.248-2.004-1.163-4.151-2.076-6.31-2.912-.857-.333-1.759-.338-2.609-.896a3.297 3.297 0 0 0-1.933-.553Zm122.025.833c.815 0 1.475.664 1.475 1.484s-.66 1.488-1.475 1.488a1.482 1.482 0 0 1-1.475-1.488c0-.82.66-1.484 1.475-1.484Zm-117.87 3.278c1.52 2.484 3.002 6.068 3.133 8.325.052 1.494-.242 3.328-.494 5.043-.124.848-.443.021-1.019-1.81-2.39-7.603-3.023-9.058-4.684-8.679-.946.217-1.93.253-2.575-.104-2.106-1.168-2.3-5.085.776-5.834 2.43-.532 3.995 1.639 4.863 3.059Zm-.055-1.89c3.065 1.214 5.022 3.044 4.463 6.021-.246 1.12-.41 2.043-.708 1.925-.345-.138-.82-1.482-1.771-3.794-.217-.747-2.4-4.137-1.984-4.152Zm50.721.13c.162-.024.416.13.762.455 2.416 2.392 1.105 7.784-2.113 9.337-1.324.917-3.763.767-3.776-.12-.005-.345.073-.437.411-.442 2.708.02 5.585-3.762 4.788-7.791-.098-.606-.28-1.41-.072-1.44Zm-84.236 1.31c.815 0 1.475.663 1.475 1.482 0 .82-.66 1.489-1.475 1.489a1.487 1.487 0 0 1 0-2.972Zm86.775.455c.17-.026.756.228 1.145.699 2.277 2.759.428 7.457-3.15 9.068-1.366.744-2.517.23-2.228-.534 2.438-1.017 4.738-3.648 4.497-7.247-.092-1.262-.511-1.949-.264-1.986Zm-48.252.501.828.395-.342.72c-.16-.43-.156-.598-.486-1.115Zm50.841.299c.181-.005.587-.066.971.31 1.472 1.438 1.705 5.47.291 7.463-.664.935-2.722 2.633-3.335 2.804-.715.088-1.212.195-2.402-.35-.399-.013.179-.391.93-.827 2.665-1.547 4.432-4.307 3.97-6.898-.288-1.603-.771-2.494-.425-2.502Zm2.7 1.3c.705.061 1.252.685 1.588 1.214 1.75 2.526.296 7.842-3.285 8.944-2.384.733-3.272.04-1.342-1.094 2.773-1.626 4.212-4.806 3.41-7.331-.384-1.208-.748-1.707-.372-1.733Zm2.887 1.85c.834.012 1.48.655 1.774 1.317.69 1.631.582 3.918-.317 5.526-.897 1.604-2.613 2.938-4.518 3.133a2.623 2.623 0 0 1-1.307-.19c-.837-.364-.55-.417 1.027-1.246 2.51-1.32 3.994-4.065 3.614-7.097-.142-1.137-.597-1.44-.273-1.443Zm-90.94-.552v3.918l-8.195 7.779v-3.826l8.195-7.871Zm69.634.507c.156.163 1.083 2.385 1.198 2.843-1.92 2.777-2.462 7.333-2.76 10.785-1.082 9.783-2.208 21.595-2.7 21.704l-2.133.048c.813.545 1.855-16.223 3.51-26.845.127-.834 1.898-9.031 2.885-8.535Zm24.794 1.735c2.815 1.915 1.311 7.893-2.603 9.372-1.42.549-1.943.62-2.586-.01-.405-.396-.792-.53.24-.897 2.894-.759 4.938-3.476 4.45-6.632-.058-.768-.777-2.796.499-1.833Zm-22.77 1.655 1.28.828c-1.38 4.139-1.89 9.02-2.456 13.746-.683 5.716-1.285 11.6-2.112 17.212l-1.96.071c1.023-3.468 1.495-13.156 2.508-21.272.59-4.108 1.234-9.757 2.74-10.585Zm2.222 1.353 1.641.956c-.58 2.31-1.266 4.84-1.605 7.264-.754 5.386-1.05 11.919-2.784 21.973l-1.775.15c.446-3.229 1.293-10.42 2.015-17.037.837-7.683 2.153-13.493 2.508-13.306Zm-73.88-.26v3.845l-8.195 7.588v-3.542l8.195-7.89Zm76.657 1.475s1.412.8 1.59.893c-1.065 4.244-1.586 8.189-2.112 12.036-.708 5.19-1.234 10.238-2.212 15.942l-1.892.12c.942-4.374 2.02-14.65 2.867-21.896.492-4.207 1.51-7.177 1.759-7.095Zm-45.118 8.638c.024 2.9-.607 7.393-.607 7.393-.25.143-1.023-6.582-3.725-9.624-3.29 1.576-6.13-2.12-3.886-4.661 4.38-3.788 8.217 4.302 8.218 6.892Zm47.586-7.482 2.29 1.063c-.282-.049-.822 1.538-1.349 4.013-1.605 7.54-3.197 22.402-3.457 22.396l-1.766.146c.572-3.991 1.358-10.298 2.18-15.877.932-6.32 1.801-11.708 2.102-11.74Zm3.183 1.446 1.74 1.051c-.151-.11-.78 1.762-1.086 3.066-1.567 7.521-2.275 14.116-3.243 21.412l-1.898.25c-.143.21 1.638-14.36 3.107-21.718.502-2.514 1.24-4.146 1.38-4.061Zm2.713 1.308 1.865.927c-2.028 5.772-2.216 11.293-4.16 22.878l-1.97.358c.793-7.416 1.919-15.381 3.535-22.64.223-.975.71-1.502.73-1.523Zm2.667 1.356 2.099.847-4.394 21.269-1.772.241c1.104-6.132 1.675-13.222 3.162-18.81.315-1.185.491-2.517.905-3.547ZM29.435 220.5a1.482 1.482 0 0 1 0 2.966 1.478 1.478 0 0 1-1.475-1.483c0-.82.66-1.483 1.475-1.483Zm1.928 3.48a1.487 1.487 0 0 1 0 2.971 1.478 1.478 0 0 1-1.475-1.483c0-.82.66-1.488 1.475-1.488Zm-3.842.092a1.487 1.487 0 0 1 0 2.971 1.482 1.482 0 0 1-1.475-1.488c0-.82.66-1.483 1.475-1.483Zm1.842 3.422c.815 0 1.475.669 1.475 1.488 0 .82-.66 1.484-1.475 1.484a1.487 1.487 0 0 1 0-2.971Zm13.35 4.956L25.01 250.482l-.055-3.604 12.134-11.98-12.227-.187.028-2.439 17.822.178Zm-8.114 3.438-9.485 9.104-.08-9.257 9.565.153Zm10.132.666s-.052.332.839 1.9c2.587 4.523 3.185 8.702 5.472 13.549 1.139 2.652 3.703 5.33 4.276 5.482l-2.85 5.242 80.393-.169-12.87-22.588c-20.424 3.802-38.775 3.134-56.025.096-.989 1.336-2.073 4.054-3.111 6.02-2.577-6.97-10.816-11.47-16.124-9.532Zm2.926.606c4.248-.061 7.789 1.97 10.933 6.277 1 1.373 1.389 1.992 1.385 2.569-.106.666-1.423 2.796-1.423 2.796s-.764-2.114-.945-3.138c-1.142 4.23-1.598-.672-2.037-1.965-1.394 4.086-2.145-1.53-2.074-3.046-1.897 2.62-1.775-1.683-2.7-2.483-.022 2.27-1.35.718-3.07.233.9 1.27 2.651 2.122.414 2.402 2.232 1.55 3.35 1.312 1.184 2.167 1.669.927 4.417 2.04 1.378 2.65 1.857 1.177 4.843 1.672 1.633 2.797 2.425 1.492 5.654 1.384 1.113 2.583 1.645.967 4.545 1.33 1.3 2.17.501.226 1.37.813 1.37.813l-1.402 2.227s-.505-.042-.85-.404c-1.49-1.564-2.938-4.441-4.235-8.473-.954-2.966-2.09-6.1-3.343-8.701-.676-1.376-.614-1.445 1.369-1.474Zm71.796 5.087 11.11 19.116-2.635.041-9.81-16.366-13.235 1.503 4.359 14.632-3.933.108-3.905-14.394c-7.388.3-14.437.383-20.581-.113l-2.083 14.601-3.753-.126 2.378-14.452-12.419-1.598-6.737 16.21-3.88.075c2.505-4.248 8.758-17.964 9.926-19.315 27.053 4.354 41.1 2.006 55.198.078Zm-2.596 4.432 8.412 14.706-13.513.062-4.54-13.617 9.641-1.151Zm-50.56.43c2.667.782 5.536.951 8.425 1.058l-2.457 13.158-11.973-.024 6.006-14.192Zm33.706 1.55 3.176 12.777-22.54.116 1.86-12.738c5.916.356 11.695.028 17.504-.156Z" id="path3300-3-9-0" fill="#000" transform="rotate(180 104.051 131.98)"/><path d="M155.44 254.854c9.774-.213 14.157-11.218 6.918-19.763-1.05-1.247-1.158-1.962.765-.765 4.874 3.26 14.219 1.117 14.698-8.847.59-12.277-16.563-15.815-19.784-2.76-.17 1.377-1.29 1.346-1.02-.61.294-5.306 1.951-10.265 4.229-15.102h-11.62c2.277 4.837 3.935 9.796 4.228 15.103.27 1.955-.85 1.986-1.02.609-3.22-13.055-20.374-9.517-19.783 2.76.479 9.964 9.824 12.106 14.698 8.847 1.923-1.197 1.814-.482.764.765-7.239 8.545-2.856 19.55 6.919 19.763h.01-.002Z" id="path147-0-8-1-3-6-4-3-4" fill="#000"/><path d="M52.369 9.22c9.774.213 14.157 11.218 6.918 19.764-1.05 1.247-1.158 1.962.765.764 4.874-3.259 14.22-1.116 14.698 8.848.59 12.277-16.563 15.814-19.784 2.76-.17-1.378-1.29-1.346-1.02.609.294 5.306 1.951 10.266 4.23 15.102H46.554c2.278-4.836 3.935-9.796 4.228-15.102.27-1.955-.849-1.987-1.019-.61-3.22 13.055-20.375 9.518-19.784-2.76.479-9.963 9.824-12.106 14.698-8.846 1.923 1.197 1.815.482.765-.765-7.24-8.546-2.856-19.551 6.918-19.763h.01-.002Z" id="path147-0-8-1-0-3-83-9-4-0" fill="#000"/></g></g></g></svg>