<svg width="227" height="315" xmlns="http://www.w3.org/2000/svg"><g id="Page-1" stroke="none" stroke-width="1" fill="none" fill-rule="evenodd"><g id="Clubs" transform="translate(10 23)"><g id="Q" transform="translate(0 2)"><path d="M197.102 237.632c3.91-.088 5.663-4.674 2.767-8.235-.42-.52-.463-.817.306-.318 1.95 1.358 5.688.465 5.88-3.687.236-5.115-6.626-6.589-7.914-1.15-.068.574-.516.561-.408-.253.117-2.211.78-4.278 1.691-6.293h-4.647c.91 2.015 1.574 4.082 1.691 6.293.108.814-.34.827-.408.254-1.288-5.44-8.15-3.966-7.913 1.15.191 4.151 3.93 5.044 5.879 3.686.769-.5.726-.201.306.318-2.896 3.561-1.143 8.147 2.767 8.235h.003Z" id="path147-6-9-8-7-0-5-6-46-4-5" fill="#000"/><path d="M9.148 26.445c-3.91.088-5.663 4.674-2.768 8.234.42.52.463.818-.306.319-1.95-1.358-5.687-.465-5.879 3.686-.236 5.116 6.625 6.59 7.914 1.15.068-.574.515-.56.407.254-.117 2.211-.78 4.278-1.69 6.293h4.647c-.911-2.015-1.574-4.082-1.692-6.293-.108-.815.34-.828.408-.254 1.288 5.44 8.15 3.966 7.914-1.15-.192-4.151-3.93-5.044-5.88-3.686-.769.499-.725.2-.305-.319 2.895-3.56 1.142-8.146-2.768-8.234h-.002Z" id="path147-6-9-8-7-4-5-62-9-4-5" fill="#000"/><path d="M109.509 261.748c.64-8.13.265-16.87.708-23.487-.246-.47.671-1.745.719-1.744-.526-.99-.678-3.512.024-5.74 5.53-20.231 15.31-35.914 25.367-50.529 7.776 24.425-17.677 41.216-23.225 62.42-1.854 7.343-1.646 12.488-2.399 19.132l-1.194-.052Zm-42.007-.16L37.965 214.64l6.562-3.116 30.341 49.985-7.366.08Zm39.832-85.917c.25 1.342 1.291 2.072 2.411 1.472 1.097-.587 1.223-.626.533.421-1.523 2.313 1.485 4.602 3.454 2.625.7-.703.829-1.858.207-2.452-.703-.671-.853-1.016.188-.5 2.618 1.099 4.11-2.704 1.575-4.017-.653-.339-1.936-.06-2.423.44-.588.602-.668.387-.508-.084.095-.278.165-.73.39-1.269.177-.422.307-.998.307-.998l-2.687-.002s.21.62.424 1.143c.201.492.276.859.374 1.063.354.737-.078.461-.798-.09-1.017-.777-2.306-.576-3.048.424-.277.59-.51 1.203-.399 1.824Zm4.3-37.879 5.78-.108 6.158 17.674c-5.179 8.418-6.656 17.963-.847 27.718l-18.322-.175c4.46-14.552 5.295-30.03 7.232-45.109Zm5.788 22.971c.783-.687.896-1.948.199-2.798-.877-1.068-.673-1.12.511-.416 1.709 1.017 3.378-1.122 2.384-3.04-.631-1.22-2.712-1.511-3.521-.443-.674.89-.591.07-.067-1.119.193-.436.471-1.257.471-1.257l-2.8.026s.353.8.54 1.313c.496 1.362.512 1.792-.266.91-1.693-1.46-3.709-.438-3.75 1.633 0 1.591 1.425 2.63 2.692 1.9.769-.444 1.113-.549.24.48-.604.983-.405 2.246.372 2.847 1.067.663 2.218.64 2.995-.036Zm-38.764 5.053c.227-.164.308-.054.168.169-.12.19-.424.458-.685.743-1.323 1.445.347 3.318 2.457 3.055 1.436-.18 2.302-2.434 1.253-3.34-.34-.234-.61-.28-.866-.599-.02-.126.04-.21.166-.16.186.081.565.395.757.45 1.328.378 2.34-.163 2.689-1.104.226-1.09.033-2.265-.85-2.888-.82-.566-2.043-.42-2.765.522-.74.963-.83.037-.22-1.297.23-.5.391-1.213.391-1.213l-2.575.108s.13.558.35 1.2c.556 1.465.96 1.888.239 1.126-3.124-1.894-4.196.622-4.259 1.627-.118 1.892 2.615 2.996 3.75 1.6Zm12.903-28.408 4.645.068c-3.71 18.655-11.06 34.234-23.253 44.875l-22.722-.324-10.864-7.808 4.29-5.467c28.813 3.307 41.257-10.915 47.904-31.344ZM70.176 180.51c1.366-.587 1.949-2.126 1.06-3.174-.802-.947-.882-1.24.36-.496 1.66.996 3.297-.937 2.499-2.855-.497-1.194-2.1-1.58-3.266-.785-1.026.75-1.003.41-.458-.787.27-.592.483-1.543.483-1.543l-2.848.008s.198.681.4 1.15c.464 1.075.63 1.568.41 1.568-.107 0-.455-.33-.66-.522-.56-.53-2.109-.646-2.69-.1-1.722 1.612-.794 4.478 1.38 3.975 1.403-.324 1.729-.855.555.454-1.448 1.613.74 3.98 2.775 3.107Zm-17.952-.768c1.183-.544 1.592-1.903.943-2.79-.654-.893-.975-1.468.196-.656 1.56.81 2.942-.228 2.942-2.019 0-1.876-2.089-2.774-3.644-1.662-.263.188-.586.356-.643.356-.189 0 .165-1.01.547-1.67.167-.287.46-.871.46-.871l-2.846-.141s.15.78.367 1.382c.44 1.222.547 1.629-.24.929-2.12-2.033-4.431.5-3.555 2.719.463 1.248 1.924 1.264 2.794.653.789-.6.38.203-.164.839-1.482 1.735.638 3.936 2.843 2.931Zm130.535-45.417.112 3.46-37.132 30.37-1.517-2.39 38.537-31.44ZM45.85 139.27c5.34-3.725 11.307-10.454 17.162-13.93 4.14 9.852-5.933 19.352-17.162 13.93Zm96.74-.719c-3.514-20.767 18.616-16.2 17.426-14.364L142.59 138.55ZM23.63 124.542 60.382 95.14l1.627 2.525-38.772 31.172.394-4.294Zm100.102-28.955c.1.312 1.188 1.513 1.189 1.62-.312-.239-2.171-1.312-3.096-.3-.323.372-.739 1.263-.706 2.19.365 1.665 2.24 2.272 3.59 1.15.39-.323.724-.716.8-.576.068.123-.149.691-.325 1.14-.203.463-.948 1.43-.415 1.435l2.586.024s-.089-.61-.39-1.286c-.565-1.264-.533-1.946.155-1.032 1.339 1.78 3.989.337 3.737-1.78-.182-1.53-1.712-2.421-2.853-1.706-.125.079-.492.436-.544.438-.139.005.247-.574.504-1.054.852-1.597-.377-3.098-2.285-2.96-.616.046-1.295.428-1.299.483-.723.572-.851 1.572-.648 2.214Zm31.61-14.603c3.607 3.405 7.224 5.913 10.844 8.108l-3.5 5.412c-23.28-2.426-40.33 6.635-47.68 31.634l-3.85.7c1.62-15.629 7.013-31.084 22.618-46.07l21.568.216Zm-22.375 3.493c-.002.742 1.345 1.64 1.04 1.84-.139.073-.939-.642-1.31-.686-2.687-.317-3.291 3.877-.63 4.378.523.099 1.61-.216 1.934-.478.43-.347.73-.633.817-.6.163.061-.218.806-.517 1.358-.277.512-.668 1.582-.668 1.582l3.058.048s-.266-.945-.534-1.617c-.343-.858-.411-1.401-.175-1.341.101.026.213.294.426.481 1.312 1.157 3.262.691 3.792-1.087.5-1.672-1.481-3.421-2.884-2.498-.49.322-.488.076.005-.654.451-.667.354-1.686-.041-2.295-1.445-1.574-4.357-.493-4.313 1.57Zm21.909 5.22c-.07-.375.024-.267.412.147 1.212 1.295 3.326 1.12 3.883-.573.555-1.69-1.063-3.648-2.499-2.998-.747.339-.759.216-.327-.335 1.111-1.418-.076-3.318-1.956-3.318-1.718 0-2.749 1.649-1.929 3.084.336.588.224.711-.375.411-1.748-.875-3.418 1.898-2.15 3.569.747.981 2.497 1.103 3.51.148.538-.508.531-.262.132.798-.348.923-.73 1.668-.73 1.668l3.04.061s-.794-1.558-1.011-2.662Zm-65.53 36.785c.888-.22-2.98-13.01-5.852-18.727 3.434-8.006 8.098-15.75.53-27.417l18.705.157c-5.924 13.09-6.416 46.284-7.774 46.35l-5.609-.363Zm1.805-14.744s-.91-1.286-.955-2.32c-.104-.663.067-.702.403-.023 1.646 1.868 3.92.108 3.949-1.53.208-1.495-1.523-2.799-2.652-2.063-.792.515-1.003.362-.292-.606 1.002-1.363-.054-3.163-1.818-3.163-2.296 0-3.199 2.143-1.57 3.698 1.202 1.149.077.466-.884.049-1.87-.812-3.124 1.096-2.303 3.045.567 1.345 2.272 1.713 3.286.64.555-.587 1.067-.93.759-.035-.164.724-1.02 2.253-1.02 2.253l3.097.055Zm3.12-20.184S93.178 90.147 93 89.097c-.06-.387.21-.286.834.263 1.993 1.757 4.792-1.322 2.938-3.242-.638-.66-1.29-.857-2.048-.47-.945.481-.867.243-.392-.261.695-.74.66-2.103-.073-2.773-2.026-1.853-5.294.838-3.414 2.816.818.86.427.746-.478.188-1.712-1.054-3.65 1.76-2.375 3.44 1.52 1.32 2.677.691 3.747-.115.231-.12.432-.172.432-.072 0 .188-1.09 2.686-1.09 2.686l3.19-.003ZM69.826 83.42c-1.14-.089-1.837-10.804-.404-14.178 3.133-14.266 12.325-24.58 18.071-33.274 9.208-12.942 8.321-34.62 8.697-33.752l1.284.165s-1.136 12.69-.637 18.434c.529 5.052.397 5.364.032 5.86-.1.47.025 1.846-.082 2.317-4.24 18.636-14.08 37.737-24.181 52.128l-2.78 2.3Zm93.55-31.593L133.309 3.032l7.362-.582c2.682 4.372 28.811 46.07 28.811 46.07l-6.103 3.308Z" id="path3391-4-8-9-0" fill="#D40000" transform="rotate(-.638 103.054 131.996)"/><path d="M35.004 262.085c3.623-12.771-5.476-42.67-11.326-46.63 6.914-.215 15.225.003 14.97-.65 0 0 28.874 46.738 28.632 46.98-.23.23-32.276.3-32.276.3Zm119.918-71.348c-7.11-1.095-4.236-7 .35-7.564-.598.093.523-2.946 4.23-4.138.856-1.518 1.543-4.118 2.324-5.32-2.222.697-4.933 2.545-14.974.952.929-4.775 10.558-5.484 14.02-4.705 1.997.49 3.942 3.509 4.55 3.578 6.187-.963 13.98 4.733 11.54 10.4-.377.808-1.296-.978-3.367-1.759-6.691-2.52-7.121-6.176-8.648-7.828-.56-.112-3.597 5.758-3.597 5.758l.883 4.02c1.613-.13 8.725 4.392-.224 7.302-2.56 8.503-7.136 2.431-7.087-.696Zm17.3-37.903c-.377-.393.333-3.04 1.254-4.558.498-.82 1.632-1.361 2.293-1.237 1.176.22.973 1.94-.645 6.96-.073.727-1.668.785-2.903-1.165Zm-141.44-36.866c-1.954-.029-.142-5.345 1.078-7.026.401-.521 1.948.617 2.02 1.39.129 1.387-2.044 6.197-3.098 5.636Zm-.984-36.297c2.379.604 6.117 3.057 7.902 4.4 2.218 1.701 1.571 4.986 3.358 5.298 1.216-.587 3.493-5.952 3.493-5.952s.587-2.763-.98-3.633c-3.9-2.165-3.805-4.457-3.554-4.658 1.198-3.015 3.508-2.45 4.762-2.605.045-1.657.029-5.158 3.442-4.759 2.986.318 3.233 4.608 1.976 4.634-.023-.073 5.661-.755 5.564 3.004-.053 2.038-3.449 4.608-4.486 3.65 0 0 .517 4.069-4.586 5.404-1.201 1.201-2.229 6.355-2.224 5.897 3.098-2.745 7.909-3.343 15.476-2.26-4.792 8.685-17.727 4.45-18.724 2.748-6.51-2.05-12.607-4.695-11.42-11.168Zm56.148-20.32c6.902.707 14.483-1.385 20.216-.168.654.097 1.354 1.077 1.745 1.297 2.952 1.66 6.066 1.19 10.866-.573 1.185-.436 23.088-.02 23.088-.02 4.907 7.456 13.624 21.476 13.822 21.006 0 0-12.141-.274-17.739-.004-3.936.19-1.63.754-4.362.842C114.28 95.951 110.29 127.1 110.29 127.1s6.1-1.54 7.672.164c7.77-22.016 22.168-31.948 42.068-29.749 9.196 1.017 20.08 10.229 20.08 10.229l-19.88 15.876c-15.176-7.9-21.968 14.81-17.338 14.918l40.034-32.116s.65 2.666.58 2.754c-2.868 3.691-50.594 41.708-50.594 41.708l-2.05-2.326s-1.318 1.148-2.013 1.914c-.082 1.262.349 2.337 1.292 3.336-9.453 7.445-9.917 21.292-3.094 28.93 0 0-3.065.184-3.388.236-3.9.625-7.712-18.69.104-27.57-3.808-7.708-6.09-18.162-6.573-18.65.09 1.229-6.154.75-6.154.75-.65 15.57-2.438 30.824-6.328 45.498l28.698.94-12.456 21.155s-13.708-.498-19.61-.978c-6.128-3.673-9.715-.973-15.518.296-8.24.151-20.361-.37-20.362-.257-4.022-8.246-8.375-14.325-14.304-21.421-.749-1.285 24.389-.216 24.389-.216s12.78-18.949 15.13-24.315c1.834-4.188 6.012-19.463 6.012-19.463.176.8-2.238-4.01-7.988-3.966-5.105 31.67-42.77 41.937-65.137 21.267l-.17-3.692 50.238-39.989 2.184 2.592c-.471-.387-30.84 24.415-30.338 24.262 8.866 4.785 19.227 1.108 18.198-14.29 7.122-5.048 13.445-10.952 19.664-16.982.134-.236 6.695 15.24 6.497 18.203 3.886-1.263 6.148 1.5 6.08 1.032-1.293-8.923 6.85-42.607 7.041-46.488-4.31-.397-10.034-.301-19.003-.759 7.052 14.087 4.443 23.547-5.728 32.063l-2.077-2.681c.85.488 14.844-11.4 3.883-29.517-.51.037-5.876-.553-5.876-.553s11.206-17.418 11.79-19.894Zm54.138-57.288s31.432-.407 31.432.518c-1.191 16.938 2.572 32.443 11.91 46.849 0 0-13.912-.651-13.66-.472L140.084 2.063Z" id="path3395-8-0-1-6" fill="#E2CF00" transform="rotate(-.638 103.453 132.03)"/><path d="M184.758.46H21.491v263.156h163.267V.46Zm-15.35 1.145c-.012-.015-2.105 27.849 12.375 46.098-8.845-1.345-13.91.016-19.06 3.67l.705.728c7.094-4.376 13.111-3.224 19.27-2.543v35.848c-.044 1.741-7.374.964-11.897-2.451-2.147-1.273-4.917-3.946-6.16-5.951-.377-.61-.774-1.213-.884-1.34-.415-.48-2.995-5.305-7.73-14.44-2.408-4.646-5.591-10.982-8.176-15.893-1.674-3.18-4.785-9.186-5.004-9.665-.458-.998-3.845-7.634-5.164-10.048-3.483-6.377-9.106-17.505-11.112-21.493-.443-1.035-1.118-1.512.09-1.479.268.007.536.024.69.06.213.107.471-.366.471-.366l41.587-.735ZM23.745 152.346v-2.819l47.569-39.313 1.515 1.957-49.084 40.175Zm46.068-68.861c-.19.07-.4.143-.628.215-1.22-5.458-.525-12.752.913-18.235 2.094-7.612 6.005-13.717 10.359-19.852 9.952-14.01 14.36-24.571 14.182-43.391l1.422.152c-.06 2.973-.451 5.209-.566 9.164-.178 4.238-.107 7.461.342 11.6.22 2.033.353 3.351.012 3.616-.163.132-.31.836-.161 1.095-.024.564-.1 1.691-.1 1.691-2.28 11.205-14.504 39.936-25.775 53.945Zm5.937 25.472-2.516-3.099s-1.935-1.566-.196-3.336c5.026-5.118 5.06-11.622.2-17.472-.326-.742 1.51-4.495 1.51-4.495l3.826.063c5.967 7.29 7.594 20.167-2.824 28.34Zm3.515-28.924c.12-.499-5.669-.306-5.669-.306 3.595-5.38 6.653-10.915 9.658-16.465 4.66-8.399 11.124-23.114 13.15-33.78 1.509 12.475 3.703 30.991 14.336 31.722 3.486.24 7.524-2.16 8.182-1.763l22.09-.175c4.53 9.222 9.397 15.163 15.16 21.47 4.142 2.372 9.193 4.249 14.074 5.466 2.773.692 3.04.232 8.51 1.015 1.443.207 3.643-.406 3.62-.406-4.37 3.461-9.411 2.48-14.964.999-.31-.083-.637-.18-.961-.295l-4.193 6.333c-9.332-2.22-39.292-.649-47.19 32.056 0 0 .812.415.622.19 6.273-28.387 32.77-34.046 45.402-31.218l-1.086 1.664c-20.96-2.573-38.026 10.588-42.09 29.253l.404.369c7.865-28.219 40.929-38.66 61.428-19.1l3.76-2.673-.121 3.617-50.398 42.394-2.016-2.092s-.355.27-.757.605c-1.3 1.087-1.813 1.353-1.449 1.96.365.606 1.778 1.972 1.84 2.125-8.359 6.839-11.011 20.027-3.069 29.264.887.978.726 1.241.563.139-7.125-7.785-6.222-21.553 2.662-28.078l1.79 2.356c-3.911 8.622-5.997 22.07 4.288 23.235 3.684 9.913-.555 21.66-5.287 29.534-5.015 9.071-11.092 16.61-14.886 26.491-1.844 4.123-4.778 16.35-4.623 25.695l-1.105-.012c-.002-3.813.252-8.334.283-11.225.155-14.092.135-13.255.45-13.613.105-.119.4-.244.427-.343.042-.148-.23-.44-.336-.785-.11-.353-.296-.973-.277-1.495.018-.522.506-1.283.413-1.453-2.212-7.777-2.394-21.753-9.535-28.173-3.502-3.019-8.153-3.14-14.177-.664-13.294.024-11.323.71-22.058.095-4.441-8.164-9.827-16.114-15.655-22.01-2.723-3.05-6.51-4.72-10.071-6.93 1.428-2.72 3.048-4.71 4.818-6 .368-.526.618-1.094 1.093-1.54 36.199 3.492 44.049-31.705 42.396-30.81l-.32.28c-9.897 36.263-45.116 34.943-62.82 19.264 0 0-2.5 2.182-2.51-.212-.007-2.176.784-2.806.784-2.806l49.69-40.682c.908.581 1.887 2.514 2.294 2.298.916-.489 2.264-1.47 2.223-2.054-.032-.45-1.817-3.273-1.817-3.273 13.293-13.817 7.297-19.99 3.03-29.458ZM98.101 2.376c.239-.001.465.112.633.379.303.48-.903 3.283-1.649 3.776-.705.468-.756-.075-.246-2.786.15-.795.735-1.365 1.262-1.369Zm72.909.083h11.688v44.345c-8.601-12.137-13.05-26.08-11.688-44.345Zm-69.82.073c.287-.013.54.067.624.276.295.748-1.393 3.98-3.481 6.66-1.084 1.39-1.63 1.793-1.968 1.461-.285-.632-.277-1.368.72-2.524.823-.953 2.223-3.18 2.8-4.428.25-.731.497-1.393 1.305-1.445Zm11.818.158c.335.003.68-.002.777.157 2.008 4.114 5.793 7.827 9.664 9.81.565.322.299 1.13.489 1.696-4.35-.649-10.058-6.835-11.584-11.35-.009-.328.318-.316.654-.313Zm6.8-.003c.866.882 2.228 1.949 2.534 2.956.189.618.326 1.327.194 1.66-.756.475-4.511-3.9-4.366-4.41.477-.316 1.077-.382 1.639-.206Zm-16.283-.063c.37.014.933-.007 1.016.272.469 1.908-3.87 9.34-7.035 11.446-1.125.748-1.197.552-1.107-.704.06-.844.14-.777 1.296-1.883 1.648-1.58 3.448-4.019 4.438-6.18 1.27-2.77.96-2.945 1.392-2.951Zm2.945.029c.413 0 .797.141.904.325.144.25-.05.655-.184 1.156-1.43 4.062-4.983 9.907-9.157 13.227-1.623 1.257-1.898 1.249-2.016-.048-.069-.755.276-.974 1.04-1.505 3.54-2.465 6.722-6.743 8.069-11.111.262-.851.162-1.615.623-1.874.214-.12.473-.17.72-.17Zm21.974 7.039c.17.291 1.384 2.198.391 1.48-.407-.336-1.147-1.18-2.325-2.524-2.787-3.177-2.87-2.98-2.816-3.77.028-1.03-.706-2.72.879-2.281 1.558 1.838 2.537 4.802 3.87 7.095Zm-12.687-6.976c.316-.005.69.054 1.001.117 1.835 3.463 6.314 6.504 6.297 6.488 0 0 .113 1.507-.05 1.773-.094.465-7.115-4.89-7.896-8.096.075-.207.332-.276.648-.282Zm-4.996.063c1.648 3.04 5.05 9.94 13.041 12.728.575.126 1.187 1.767.747 2.22-4.382-1.276-12.33-5.584-15.03-14.906.263-.248.962-.21 1.242-.042Zm-2.146.59c-.274.006 3.773 11.733 15.303 15.23.997.314 1.582.747 1.519 1.34-.08.746-.056.84-1.166.281-3.145-1.65-7.629-2.422-11.373-.511-.584.298-1.177 1.11-.707 1.623.269.26.93.067 1.773-.262 4.358-1.703 11.03-.702 12.207 1.975.837 1.9.98 3.301.523 3.534-.35.178-.94-.46-1.983-1.379-3.316-2.92-7.281-3.733-10.433-.927-.682.608-1.358.503-1.596.753-.23.242.044.788.237 1.32.203.557.212.71.01 1.18-.276.644-.287 1.468-.256 2.082.074 1.496 1.06 2.784 3.896 4.757 2.21 1.537 3.937 2.4 1.248.214-4.642-3.775-5.484-5.313-2.476-4.005 3.005 1.212 7.17-.003 10.12-2.262 1.004-.017 1.601-.193 2.13.194 2.2 5.186 3.999 12.086 6.924 18.775-3.493 3.962-15.654 13.665-24.324 13.319-7.487-.299-10.13-12.601-11.786-19.4-.557-2.877-1.194-5.805-1.117-9.869 0 0 .136-.11.33-.073 1.254.238 3.413.403 4.51.146 1.992-.467 2.393-.824 2.51-.529.136.348-.693 1.13-2.143 2.126-.63.434-2.465 1.322-2.272 1.451.439.295 2.66-.891 3.031-1.208.581-.494.98-.525 1.257-.253.326.32.393-.02-.681 2.656-1.184 2.949-1.07 3.216 1.238 5.033.802.632 1.536 1.263 1.711 1.54.221.361.371.789.474.926.39.524.15-.32-.082-1.66-.27-.992-1.238-1.977-1.925-2.456-1.26-.88-1.064-1.742-.021-4.738 3.077-8.834 2.292-12.774-1.095-14.693-1.528-.866-5.805-.635-7.153.497-.664.557-.573-.537-.467-.61 8.126-5.608 10.032-10.957 12.105-16.116Zm15.684 4.33c2.306 2.298 5.177 5.419 6.905 7.638.95 1.183 1.45 2.397 2.205 3.64.144.226.286.483.184.588-.038.044-.369-.148-.551-.287-1.69-1.279-8.67-9.257-8.67-9.257-.321-1.31-.545-1.756-.073-2.323Zm1.38 5.415s6.046 6.628 9.51 9.888c.68 1.436 1.986 3.505 1.953 3.854-.015.154-.74-.408-.74-.408-3.828-3.54-7.364-7.52-11.038-11.29.035.02-.29-1.562-.295-2.2.084-.312.45.033.61.156Zm13.116 16.99c.814 1.328 1.407 2.519 1.799 3.3.645 1.237.43 1.273-.14.815-4.327-3.554-7.95-7.882-12.025-11.848-.529-.547-1.586-1.763-1.586-1.763.038.044-1.327-2.858-.47-2.8.67.263 1.111.994 1.544 1.46 2.136 2.297 6.207 6.245 10.878 10.835Zm-37.74-9.474c1.784-.054 3.542.409 4.428 1.508.807 1 1.133 2.58.686 3.04-.28.287-1.27-.521-1.27-.521-4.202-2.367-5.65-1.227-7.93-.532-.325.099-.67-.782-.254-1.652.836-1.447 2.957-1.802 4.34-1.843Zm26.441 2.24c4.495 4.525 9.06 9.55 13.924 13.442.682.583 1.15.957 1.46 1.271.643 1.278 2.12 4.32 2.12 4.32-5.213-3.659-16.954-16.273-16.824-16.188.117.059-.983-2.308-.68-2.844Zm-8.797.75c.82-.008 1.72.25 2.43.533 2.264.902 3.69 1.863 1.344 1.543-3.264-.446-4.38-.47-5.575-.277-2.22.358-2.392.606-2.586.252-.51-.929 1.924-2.028 4.387-2.051Zm-18.529.265a6.37 6.37 0 0 1 2.577.558c2.768 1.216 3.256 2.007.9 1.626-1.224-.197-3.467-.177-5.073.238-.509.132-1.072.429-1.203.471-.57.183-.727-.244-.484-.961.42-1.238 1.721-1.922 3.283-1.932Zm20.043 3.546.572.042c-.714 4.06-4.753 3.664-5.84.177l.571-.012c2.128 3.334 3.718 1.373 4.697-.207Zm2.25.211c1.866-.02 1.746 1.104-.198 1.86-1.49.578-1.658.473-1.112-.646.524-1.077.47-1.204 1.31-1.214Zm-19.228.146c.182 3.658-4.894 4.328-5.206.34l.483-.024c1.664 3.136 3.585 1.243 4.184-.316h.54Zm2.258.5c.574.394.218.935-1.03 1.699-1.125.703-1.415-.147-.487-1.326.39-.38 1.029-.695 1.517-.373Zm8.804-.005c.222-.07.749.919.3 1.155-.267.14-.661-.264-.706-.563-.035-.236.114-.5.406-.592Zm15.2.228c3.388 3.747 6.799 7.51 16.773 15.664 0 0 1.409 2.517 1.716 3.5-.242.3-.37.266-1.069-.082-6.504-5.042-12.552-11.174-17.289-16.873-.225-.805-.726-1.581-.13-2.209Zm-32.296.374c.385-.013.928.85.629 1.369-.248.195-.631-.108-.798-.345-.165-.236-.16-.668-.058-.86.06-.11.139-.161.227-.164Zm33.713 5.189c-.026-.13 15.754 15.927 17.778 15.62.943.557 3.288 5.122 3.288 5.122.067.144.056.412-.324.223-2.668-1.325-13.821-10.616-19.523-17.533-.417-1.008-.922-2.288-1.219-3.432Zm-18.757 2.358c2.752 1.335 1.568 4.072-1.336 2.331-2.289-1.397-4.104-1.523-4.09-.316.005.511.629 1.167 1.233 1.16 1.131.074 2.156.49 3.268.734 1.734.373 3.031-.089 3.465-1.146.737-1.793-1.015-3.75-2.17-3.647-1.154.105-.863.66-.37.884Zm21.789 4.39c-.193-.17 7.847 8.674 18.807 15.979.425.493 1.484 3.044 1.654 3.388-.044.24-.286.005-.286.005-5.535-3.213-12.842-9.584-19.764-16.815 0 0-.666-1.603-.87-2.645.15-.07.313.021.459.087Zm-18.261 3.183c-.25.035-.584.413-.996.641-.843.466-1.11.59-3.181-.034-1.124-.338-1.306-.315-1.978.185-.587.436-.912.508-1.566.213-1.178-.53-1.724-.144-2.814.238-1.039.377-1.396-.082-2.33-.296-.124.001-.177 3.786-.054 3.908.043.042.972-.571 1.499-.84.906-.463.776-.39 2.098-.335 1.952.338 3.885.224 5.193-.291 1.627-.462 2.899-.376 4.022.548.683.562 1.588.47 1.06-.563-.183-.357-.597-1.671-.547-2.16.074-.731-.087-1.199-.358-1.214-.016 0-.032-.002-.048 0Zm20.847 2.952c3.7 3.562 8.263 9 18.996 15.3.56.984 1.315 2.29 1.794 3.31.044.283-.025.535-.3.437-6.632-4.22-10.32-6.271-19.513-15.368-.571-.922-1.18-2.492-1.654-3.771.1-.362.525 0 .677.092Zm-1.561 1.359 4.104 7.737-13.822-.029c3.513-2.102 6.866-4.903 9.718-7.708Zm-22.912.175c-2.27.905-2.613 1.094-4.864.543-1.312-.32-.952.443-.28.759 1.698.798 4.158.235 5.07-.397.602-.39 1.013-1.28.074-.905Zm-2.33 2.388c-2.378.033-4.62.865-4.787 1.835-.032.187.162.398.532.175 1.61-.974 5.61-1.292 8.635-.195.49.178.574-.128.067-.548-1.132-.938-2.821-1.29-4.448-1.267Zm30.168 3.306c4.474 4.145 8.793 7.96 18.422 13.51.694 1.518 1.696 3.334 1.873 3.492-9.025-4.398-18.86-13.077-18.86-13.077s-1.548-2.768-1.904-3.955c-.032-.4.343-.07.47.03Zm3.082 6.458s8.238 6.996 17.63 11.745c.381.366 1.326 2.617 1.635 2.859.31.243-.373.243-1.05-.107-4.915-2.273-15.456-9.548-15.456-9.548-1.012-1.664-2.46-3.395-2.76-4.949ZM44.383 89.876c.754-1.618 1.523-3.418 2.021-4.886 2.243.023 3.346-.82 4.141-1.837 1.137-.031 2.006-.027 3.554-.072-.05-1.536.02-3.711.02-3.711 1.57-1.622 2.633-3.496.2-6.362 0 0-.097-1.336-.133-3.615-1.12-.18-3.635-.064-3.635-.064-2.031-2.87-5.636-2.147-6.73 0 0 0-1.619.088-2.73.093-.023.607-.215 3.298-.215 3.298s-4.737 3.244.178 7.067l-.067 3.212c.92.074 1.58.012 2.78.243 0 0-1.88 4.383-3.117 6.463-.423.112-.322-.132-.833-1.585-.615-1.714-2.006-3.588-3.186-4.51-1.6-1.238-3.787-1.623-5.313-2.699-1.472-1.037-2.51-2.375-2.978-2.126-.153.521-.322 3.514.232 5.437.78 3.163 5.313 5.18 9.099 6.694.29.189.55.474.55.578.007.523-.497.362-1.74.237-1.877-.187-2.653.328-3.312 1.937-.196.397-.664 1.08-1.044 1.534-.38.453-.776.895-.831 1.087-.056.193-.446 1.17-.832 1.986-.238.502-.633 1.029-.662 1.772-.088 2.267-.122 5.313.217 7.232.25 1.41 2.024 2.22 2.635 2.335.938.176 1.11 1.13.962 1.913-.723 3.853-2.933 6.212-3.64 4.946-.186-.333-.383-1.908-.435-1.888-.034.012-.37 1.339-.242 1.878.138.58.877 1.008 1.605.743 1.08-.393 1.93-1.468 2.601-3.913.275-1 .534-1.558 1-1.63.855.059 2.186 1.825 2.186 1.825-4.434 3.709-12.945 10.443-12.945 10.443V2.459h69.907c.39 9.632-.774 17.84-4.22 26.421-4.082 9.244-10.418 16.114-15.266 24.621-5.854 10.272-7.728 20.927-5.734 31.644-5.981 7.86-11.02 11.632-15.803 15.284 0 0-3.587-3.785-5.579-5.903 0 0 .84-.07 1.824-.11 4.544-.512 9.462-1.159 11.362-5.908.27-.528.156-.762-.165-.835-3.558.496-6.65-.007-8.667.136-4.935.35-7.02 2.067-7.02 2.067Zm.542 3.497s-5.71-2.725-6.133-2.802c-2.489-.453-8.49-3.593-9.505-5.728-.132-.278-.464-4.173-.57-4.97.036-.254.137-.246.386-.063.642.443 3.129 2.07 4.047 2.519 3.793 1.85 5.26 3.167 6.189 5.951.233.697.476 1.423.614 1.573.303.33.431.302.812.01 1.625-2.112 2.385-3.87 3.138-6.136.097-.253.309-.511.184-.877-.297-1-1.025-2.296-.28-3.275-2.376.109-4.65-1.634-4.36-3.38.633-3.236 2-2.653 4.562-3.124-.296-7.483 6.68-5.666 6.663-.454 7.663.648 4.042 7.763-.41 6.675 1.766 4.043-3.538 5.56-4.283 4.872-.3 1.306-2.32 5.513-2.75 6.764 5.679-4.04 14.815-2.247 16.139-2.506-3.3 6.927-14.085 5.24-14.443 4.95Zm102.249-25.505c1.442 1.115 13.669 8.792 15.926 8.966 0 0 1.08 1.218 1.972 2.325.831 1.032 1.137 1.194 1.233 1.403.095.207-.313.197-.382.19-5.5-2.401-11.097-4.927-15.853-8.918-.642-.547-.786-.796-1.103-1.213-.419-.557-1.663-2.545-1.793-2.753Zm4.052 6.193c5.592 3.156 10.346 6.215 15.442 7.86.726.274 1.097.292 1.46.549.362.256 1.915 1.22 2.282 1.436 2.325 1.37 2.563 1.305 1.987 1.534-.639.255-4.721-.943-8.171-2.223-6.12-2.271-8.283-3.56-10.496-5.563-.499-.518-2.824-3.31-2.504-3.593ZM39.736 91.66c.47-.011 1.225.283 2.01.888.84.647 2.905 2.001 3.757 2.369.436.187.572.236.572.236l5.5 6.267-14.16 11.557s-1.15-1.18-1.515-1.576c-.346-.373-.246-.684.185-1.106.346-.34.372-1.076.314-1.437-.086-.536-.072-1.14.604-1.641.546-.403.63-1.11.605-1.306-.021-.156.295-.673.769-1.02.993-.727 1.293-1.612.957-2.654-.14-.437-.217-.551.353-.932 1.01-.677 1.263-1.317 1.339-2.306.012-.157-.03-.323-.053-.447-.2-1.051.725-.785 1.484.534.414.72.532 1.9.74 3.243.244 1.583.412 2.015.498 1.791.49-1.278-.089-6.077-1.542-6.728-2.126-.952-3.903-2.893-3.37-3.655.184-.264.217-.173 1.513.427.759.352 1.461.638 1.566.641 1.5.048.59-.597.102-.665-.587-.082-2.342-1.153-2.548-1.53-.342-.624-.153-.94.32-.95Zm-3.622.825c1.383-.016 1.649.357 1.663 1.553.009.706.27 1.25 1.373 2.655.45.573.75 1.013.72 1.238-.048.371-.182-.014-1.706-.194-.541-.064-.816-.073-1.006.209-.525.781-1.636-.033-2.32-1.185-1.631-2.746-1.056-4.25 1.276-4.276Zm26.362 1.655 15.053 18.497-1.698 1.324-15.11-18.246 1.755-1.575Zm-2.517 1.136 1.612 2.733s-4.664 4.001-5.89 5.13c-9.91 8.058-32.281 26.348-32.281 26.348l-.301-3.679 36.86-30.532Zm-27.171.495c.294.007.63.381 1.107 1.112.413.633 1.299 1.903 2.243 2.776 1.834 1.697 2.012 1.543.522 1.704-.592.064-.785-.007-1.146.898-1.092 1.368-4.319-3.532-3.563-5.408.296-.732.543-1.09.837-1.082Zm5.25 2.645c.272-.013.63.09 1.05.345.798.33.851.52.72 1.286-.126.733-.682.923-1.775-.043-.83-.785-.69-1.554.005-1.588Zm24.027.453 1.769 2.293-40.09 32.594v-3.751c.979.126 26.675-22.333 38.32-31.136h.001Zm-31.134.373c.107-.023.275.347.72 1.019.907 1.37 1.74 2.272 2.689 2.99.897.68.997 1.059.381 1.063-.263.002-.623.28-.812.607-.38.656-.413.5-1 .155-.84-.493-1.681-1.237-2.017-2.213-.316-.92-.35-2.32-.092-3.34.046-.178.082-.271.131-.281Zm6.338 2.601c1.023-.035 1.76 1.16 1.083 2.127-.376.368-.715.545-1.465.102-.988-.585-1.167-1.486-.357-1.99a1.49 1.49 0 0 1 .74-.239Zm-6.585 2.588c.216-.01.603.301 1.253.97.498.514 1.364.952 1.711 1.146.778.436.814.587.392.937-.18.15-.773.159-.933.631-.46 1.351-2.41-.219-2.597-2.15-.094-.981-.103-1.522.174-1.534Zm4.903.16c1.28.054 1.885 1.554.865 2.291-.556.402-1.957-.308-2.098-1.044-.09-.473.746-1.267 1.233-1.247Zm29.936 1.115c.743 0 1.344.604 1.344 1.35 0 .745-.601 1.349-1.344 1.349a1.346 1.346 0 0 1-1.344-1.35c0-.745.601-1.35 1.344-1.35Zm-4.018.558c.743 0 1.344.604 1.344 1.35 0 .745-.601 1.349-1.344 1.349a1.346 1.346 0 0 1-1.344-1.35c0-.745.602-1.349 1.344-1.349Zm-26.924 1.802c.082-.004.168-.004.256 0 1.234.06 1.3 1.24.566 1.874-.438.38-.835.5-1.402.044-1.013-.814-.638-1.848.58-1.918Zm29.917 1.975c.743 0 1.344.603 1.344 1.349a1.346 1.346 0 1 1-2.693 0c0-.746.606-1.35 1.349-1.35Zm118.035.079v3.412l-47.437 39.644-1.606-2.106 49.043-40.95Zm-120.763.29-3.51 7.913-1.053-2.04h-2.625l.805-2.36-1.545-1.888 7.928-1.624Zm74.7 32.909 6.246-5.028c-2.69-13.62 8.044-19.04 18.237-15.084l6.342-5.427c-11.768-9.948-39.44-3.2-30.826 25.539Zm-84.504-26.623c.743 0 1.344.604 1.344 1.35 0 .745-.601 1.35-1.344 1.35a1.346 1.346 0 0 1-1.344-1.35c0-.746.602-1.35 1.344-1.35Zm-4.08.33c.742 0 1.301.561 1.301 1.307 0 .746-.559 1.397-1.301 1.397a1.35 1.35 0 0 1-1.344-1.354c0-.746.601-1.35 1.344-1.35Zm21.718 2.74-6.193 4.978c1.6 13.042-4.719 19.683-18.304 15.212l-6.57 5.233c17.75 12.258 40.98-3.543 31.067-25.423Zm-19.06 1.178c.744 0 1.345.604 1.345 1.35 0 .745-.601 1.349-1.344 1.349a1.346 1.346 0 0 1-1.344-1.35c0-.745.601-1.35 1.344-1.35Zm130.27.342a1.35 1.35 0 0 1 0 2.699 1.346 1.346 0 0 1-1.344-1.35c0-.745.601-1.35 1.344-1.35Zm-133.05.322-3.96 7.864-.986-2.368-2.658.037.859-2.745-1.663-1.41 8.408-1.378Zm127.732.828 1.231 2.08 2.6.064-.978 1.98 1.877 1.942-8.468 2.089 3.738-8.155Zm-137.179 5.71a1.35 1.35 0 0 1 0 2.7 1.346 1.346 0 0 1-1.344-1.35c0-.746.601-1.35 1.344-1.35Zm-3.868.151a1.35 1.35 0 0 1 0 2.699 1.346 1.346 0 0 1-1.344-1.35c0-.745.602-1.349 1.344-1.349Zm134.5.802c.742 0 1.344.604 1.344 1.35 0 .745-.602 1.35-1.344 1.35a1.346 1.346 0 0 1-1.344-1.35c0-.746.601-1.35 1.344-1.35Zm13.749.21v2.996l-38.524 32.158-1.62-2.09 40.144-33.065ZM37.142 132.23c.743 0 1.344.604 1.344 1.35a1.35 1.35 0 0 1-1.344 1.354 1.35 1.35 0 0 1-1.344-1.354c0-.746.601-1.35 1.344-1.35Zm134.558.324c.742 0 1.344.604 1.344 1.35a1.35 1.35 0 0 1-1.344 1.354 1.35 1.35 0 0 1-1.344-1.354c0-.746.6-1.35 1.344-1.35Zm-3.805.243c.742 0 1.344.604 1.344 1.35a1.35 1.35 0 0 1-1.344 1.354 1.355 1.355 0 0 1-1.35-1.354c0-.746.607-1.35 1.35-1.35Zm15.024.478-.112 3.815c-12.002 10.272-36.55 30.677-36.465 30.69l-1.855-2.57s26.91-23.273 38.432-31.935Zm-148.244-.56-3.702 8.386-1.598-2.258-2.338-.16.557-2.268-2.146-1.465 9.227-2.236Zm128.388 3.312 2.364-.45-.412 2.429 1.66 1.75-8.707 1.922 4.21-7.838.885 2.187Zm13.011 40.858c1.766 2.651 1.654 5.548.915 5.991-.78-.44-1.456-1.205-2.262-1.554-4.058-1.757-7.297-3.2-7.876-5.783-2.21-5.846 7.752-.86 9.223 1.346Zm-21.323-15.53 13.65-11.157s2.092 1.083 2.488 1.575c.14.541-.236.708-.793 1.212-.255.328-.415.644-.43 1.355-.015.766.237 1.11-.072 1.447-.514-.027-.925.648-.903 1.194.017.417-.527.878-.845 1.192-.564.557-.73.673-1.092 2.562-.037.189-.024.68-.29.935-.789.07-1.36 2.01-1.72 2.134-.577-.038-1.492-.744-1.716-1.789-.145-.678-.105-1.997.054-2.846.19-1.01.277-1.927.213-2.17-.147-.563-.518-.217-.512.573.002.321-.121 1.283-.324 2.19-.204.908-.755 2.115-.507 2.831.37 1.069 1.733 1.52 2.347 2.086 1.616 1.487 1.968 2.213 2.151 2.543 1.293 2.372 1.297 2.776.973 4.56-.186 1.028-1.184.853-1.784.436 0 0-3.838-2.804-5.508-4.197-2.53-2.11-4.307-4.267-5.38-6.665Zm5.179 7.669c1.464.595 5.276 3.372 5.276 3.372l-3.472 7.251c.632 1.136.887 3.956.887 3.956 4.391-.337 6.77 7.093-.07 6.407.781 4.593-6.589 8.193-6.388-.039-7.676.6-5.098-8.132-.368-6.494-.141-3.7 2.315-4.179 4.048-5.087 1.421-1.614 2.292-5.267 2.292-5.267l-.346-1.114c-1.456 2.553-7.654 3.286-14.465 1.932 1.844-4.387 7.438-4.263 12.606-4.917Zm-13.545 5.52c-.231.874-.237.864.812.757.532-.054 2.667-.05 4.157.01 2.74.214 7.054.234 9.218-1.422.419-.4.649-.374.727-.154.185 1.069-1.916 4.585-1.916 4.585l-3.468 1.925s-1.42.067-3.179.024l-.03 3.133c-1.379.818-3.743 4.323.057 7.011l-.125 3.412 3.35.061c2.223 2.137 4.033 2.127 6.075.115l3.862.003-.015-3.685c1.904-1.537 2.175-4.144.229-6.228l-.048-3.74-2.973.02s-.614-.478-.632-.858c-.002-.245 2.17-4.447 2.586-5.048.54-.78.394-.334 1.258 1.467 1.237 2.577 2.46 3.628 5.595 5.15 2.798 1.357 3.797 1.991 4.608 2.768.646.62 1.027.425 1.277-.5.54-2.054.373-4.111-.754-5.992-2.38-3.97-6.523-4.154-7.182-5.072-.087-.22.757-.472 1.664-.88 1.569-.956 3.865-3.851 4.16-5.013-.054-.56.315-2.323.586-2.714.313-.693.348-1.017.334-2.878-.281-1.063-.025-2.446.106-2.922.142-.966-.369-2.105-1.095-3.502-.272-1.297-.21-.96.627-3.883.136-.472 1.076-4.544-.127-4.823.015.036.126.16.16.228.392 1.333.137 2.59-.174 3.8-.94 3.272-.96 3.655-1.819 3.378-.232-.075-1.75-1.251-1.75-1.251s-.016-1.533.305-3.054c-.189.517-.316 1.848-.913 2.16-.32.075-.763-.21-1.596-.932-.318-.275-1-.755-1-.755s9.689-8.336 13.356-11.1V261.61l-69.584.03c-.873-7.648 1.418-17.766 5.21-27.9 2.345-6.264 5.712-10.91 9.51-16.517 7.279-10.691 12.786-21.546 10.663-35.308-.278-2.042-.557-3.02-.462-3.57.885-1.666 4.395-6.72 6.96-8.824 3.765-3.088 9.003-7.7 9.423-7.427 1.25 2.421 2.731 4.382 4.691 5.86.345.376.354.706-.442.874-5.197-.047-10.546 1.1-12.282 5.715ZM25.302 139.467c.742 0 1.344.604 1.344 1.35 0 .745-.602 1.349-1.344 1.349a1.346 1.346 0 0 1-1.344-1.35c0-.745.601-1.35 1.344-1.35Zm130.354.306c.743 0 1.344.604 1.344 1.35 0 .745-.601 1.349-1.344 1.349a1.346 1.346 0 0 1-1.344-1.35c0-.745.602-1.35 1.344-1.35Zm2.929 3.702c.742 0 1.343.604 1.344 1.35 0 .745-.602 1.349-1.344 1.349a1.346 1.346 0 0 1-1.344-1.35c0-.745.6-1.35 1.344-1.35Zm-4.35.574c.742 0 1.344.604 1.344 1.35 0 .746-.602 1.349-1.344 1.35a1.346 1.346 0 0 1-1.344-1.35c0-.746.601-1.35 1.344-1.35Zm-4.803 3.076 2.43-.12c-.304.875-.468 1.78-.64 2.689l1.979 1.46-8.564 1.462 3.69-7.619 1.105 2.128Zm-5.843 22.22-14.421-18.697 1.739-1.412 14.538 18.493-1.856 1.616Zm-1.761-18.165c.743 0 1.344.604 1.344 1.35 0 .745-.601 1.349-1.344 1.349a1.346 1.346 0 0 1-1.344-1.35c0-.745.601-1.349 1.344-1.349Zm30.291 2.094c1.17.913 0 2.193-1.117 1.688-.97-.411-.896-1.398-.133-1.794.477-.227.84-.17 1.25.106Zm1.557.87c1.199.02 2.524 2.874 2.28 3.713-.357.976-.685 1.01-2.377-.426-1.672-1.42-1.696-1.48-1.02-2.248.375-.436.555-1.011 1.117-1.039Zm-28.527.521c.743 0 1.344.604 1.344 1.35a1.35 1.35 0 0 1-1.344 1.354 1.35 1.35 0 0 1-1.344-1.354c0-.746.602-1.35 1.344-1.35Zm-4.167.52c.742 0 1.344.603 1.344 1.35 0 .745-.602 1.349-1.344 1.349a1.346 1.346 0 0 1-1.344-1.35c0-.746.6-1.35 1.344-1.35Zm29.523.962c1.327.197 1.674 1.203 1.064 1.952-.83 1.012-2.69.092-2.249-1.112.2-.547.685-.83 1.185-.84Zm2.38 1.52c.52-.045 1.301.676 2.157 1.871.963 1.344 1.04 1.778.768 2.597-.397 1.195-.646 1.414-1.51.25-.326-.44-1.082-1.469-1.621-2.036-1.152-1.212-1.332-.903-.645-1.828.319-.43.539-.828.85-.854Zm-3.119 1.412c1.192.617 1.306 1.422.602 1.99-.829.455-2.29-.084-2.574-.908-.416-1.204.857-1.816 1.972-1.082Zm2.02 1.779c.673-.043 1.228.655 2.053 1.992 1.404 2.275 1.48 3.042.284 4.542-.861 1.08-.948 1.137-1.791-.583-.688-1.406-1.998-3.052-3.21-4.039-.507-.412-.685-.99-.32-1.029.107-.011.556-.032.997-.048.648-.024.882-.112 1.237-.461.235-.232.486-.358.75-.374Zm-4.84 1.775c.628-.03 1.438.311 2.041 1.015.684.721.603 1.382-.74 1.514-.604.238-2.25-.845-2.257-1.572-.007-.61.404-.93.957-.957Zm3.164 2.64a.913.913 0 0 1 .097 0c.564.026.855.573 1.488 1.849.972 1.96.692 3.026-.99 3.893-1.14.588-2.01.765-2.156.092-.043-.195-.044-.76-.138-1.309-.126-.73-.292-1.49-.936-2.465-1.027-1.554-1.21-2.106-.082-1.648.597.242 1.246.214 1.93-.146.3-.158.556-.254.787-.267Zm-5.7 3.15c-.391-.008-.643.233-.537.874.355.175.916.012 1.34.165.57.207.923 1.138 1.532.985.064-.784-1.475-2.005-2.335-2.024Zm-116.366 13.66c-3.142-1.502-10.926-4.98-14.676-5.03-6.953-1.96-7.186-1.07-9.624-1.697 12.906-3.36 21.555 3.1 24.808 6.24 1.476 1.477.672 1.053-.508.488Zm8.219 30.547c7.384 12.86 14.267 27.368 25.815 48.85l-1.11.349-44.037.079c2.18-23.733-10.592-46.344-11.457-45.457 9.976.185 18.257-1.747 20.006-5.438l-1.423-.409c-5.805 5.03-14.51 5.262-20.313 3.707.132-12.365-.383-25.426 0-37.788 6.86-.512 12.339 2.013 16.14 7.045 6.391 8.459 10.726 19.216 16.379 29.062Zm-20.197-34.262c1.766-.135 11.406 3.846 15.718 6.82 1.198 1.244 2.947 3.405 2.95 3.616.006.575-.845-.134-5.01-2.519-3.152-1.78-6.422-3.2-9.606-4.565l-.437-.187s-.236-.273-.64-.587c-1.134-.881-3.337-2.443-2.975-2.578Zm4.686 4.51c-.096-.019 9.56 3.492 17.243 9.635 1.022.817 2.276 3.864 2.276 3.864-.686-1.296-12.821-8.585-17.081-10.254-.006-.006-2.438-3.246-2.438-3.246Zm3.404 4.661c.527-.317 14.648 8.051 16.717 10.212.938.72 3.135 4.218 3.143 4.922.007.626-.68.085-1.944-1.088-6.503-6.097-15.898-10.692-15.974-10.59l-1.942-3.456Zm2.62 4.862c6.631 2.817 14.96 9.59 19.164 13.621 1.052 1.045 1.802 2.558 1.944 3.262.088.437-.132.407-.218.64-5.448-6.277-17.42-13.443-19.009-14.003.013.397-1.317-2.434-1.88-3.52Zm22.017 19.562c.763.781 1.972 3.52 1.702 3.855-.133.164-.12.077-.44-.146-1.744-1.741-10.698-9.717-18.17-14.192-.701-.352-3.054-4.077-2.555-4.149 3.905 1.28 15.076 10.234 19.463 14.632Zm-16.158-8.902c.129.01.363.176.764.398 6.87 3.805 16.83 13.387 18.718 15.69.43.71 1.106 2.011 1.056 2.81-.086.626-.336.093-3.114-2.651-4.464-4.389-9.599-8.636-15.04-12.204-1.047-.721-.847-.813-1.606-2.14-.761-1.331-1.063-1.924-.778-1.903Zm43.943.146c4.906.14 6.824 3.869 9.846 10.742 2.473 6.772 3.498 12.977 3.611 17.916.008.332-.592.05-.865-.024-1.314-.354-2.95-.685-4.845-.204-1.392.353-2.715.314-1.286-.626.461-.303 1.71-1.464 2.374-1.878 1.346-.84.527-.83-.807-.17-1.01.5-1.687 1.132-2.103 1.233-.258.062-.098-.789.15-1.398 1.426-3.523 1.858-5.609-.266-6.262-.575-.177-1.35-.711-1.717-1.068-.292-.285-.541-1.425-.633-1.47-.098-.05-.166 1.038-.164 1.203.006.566.73 1.713 1.6 2.34 1.478 1.064 1.77 1.358.967 3.878-1.125 3.53-1.365 4.394-1.572 5.213-.118.472-.348 1.272-.464 1.792-.446 2-.391 3.749-.31 5.412.487 3.716 4.476 5.549 9.831 3.485.507-.198.717-.02.717-.02-4.265 4.356-9.053 7.14-11.842 15.94-3.589-7.26-8.671-12.949-17.12-15.229l-.125-1.516c2.947 1.419 8.66 3.349 12.288 1.18 1.942-1.332 1.35-2.19-1.006-1.272-2.806 1.093-7.874.966-10.404-.466-.515-.292-1.04-.04-1.189.01-.132-.854-1.35-4.07-1.17-5.279-.105-.169.77-.177.938.048.7.939 4.255 3.732 7.948 3.514 1.836-.108 3.346-.668 4.942-2.358.133-.119.782-.204.87-.304.143-.16.04-.4.034-.485-.04-.129-.278-.482-.435-.879a1.575 1.575 0 0 1-.213-.988c.005-.232.158-.355.278-.517.138-.311.1-.707.023-.917a.563.563 0 0 1-.112-.83c.5-.567-4.3-4.967-5.24-4.956-.34.004-.14.632.55 1.092 2.44 1.627 4.219 3.751 3.815 4.029-.31.214-1.404-.255-2.516-.518-2.233-.526-4.913-.86-7.82 1.246-1.088.897-3.964 1.032-3.964 1.032-.036-1.573-6.655-19.133-6.668-18.37 2.408-2.818 9.974-9.492 17.556-12.368 2.332-.768 4.837-1.16 6.518-.933Zm-28.744 3.93 13.762.213c-3.46 1.749-9.747 8.021-9.747 8.021-1.798-3.633-2.348-5.446-4.015-8.234Zm-11.897 1.822c1.026.006 11.95 8.942 13.504 11.053.187.254 1.293 1.427 2.46 2.601 2.826 2.844 3.99 4.488 4.004 5.66.006.554-.499.194-1.253-.64-5.657-6.312-9.339-9.738-16.331-14.577-.794-.427-3.26-3.72-2.423-4.088.012-.004.023-.01.039-.01Zm37.366 1.645c-.307-.01-.257.286-.09.56 1.734 1.537 6.31 1.47 7.888.226 1.432-1.127-.445-.532-1.03-.28-1.367.588-2.834.521-4.738.014-1.11-.296-1.723-.509-2.03-.52Zm4.22 2.505c-1.6.015-3.273.497-2.9 1.087.136.216.573.62 1.62.049 1.51-.75 4.612.233 4.704.257.316.084-1.032-.891-1.485-1.092-.498-.22-1.211-.308-1.938-.3Zm-38.564 1.67c5.87 3.606 13.021 10.822 17.313 15.975.715.887 1.23 1.979 1.238 2.621.01.926-.187.413-4.086-3.553-3.057-3.14-7.672-7.416-10.728-9.718-1.836-1.343-2.163-1.518-3.027-3.112-.81-1.495-1.103-2.236-.71-2.213Zm36.573 1.204c-1.104.526-2.568.414-3.994-.078-1.29-.446-.988-.064-.498 1.35.223.643.361 1.554.363 1.689.004.314.003.336.914-.175.793-.446.96-.6 2.654-.204 1.72.402 1.749.253 2.557-.17.705-.369.851-.59 1.333-.395.944.382 2.012.544 3.221-.094.927-.49 1.23-.16 1.66.057.582.294.808.107.58-.476-.092-.232-.262-1.228-.267-1.543-.009-.598-.155-1.136-.406-1.01-.925.467-1.676.964-2.559.948-1.619-.03-3.038-1.006-5.558.1Zm-71.788 1.229c14.631 18.301 12.296 44.684 11.809 44.47l-11.809.05v-44.52Zm38.32 3.7c5.844 4.113 12.8 11.285 16.655 16.244.655.857.122 1.127.45 2.16.12.384-.528-.182-2.384-2.184-2.313-2.494-6.117-6.245-8.62-8.422-2.744-2.385-3.536-2.984-4.12-3.79-.46-.674-2.34-3.914-1.98-4.009Zm32.892 1.682c-.063-.002-.124.002-.184.005-2.08.098-3.136 2.438-1.354 4.092.67.622 1.735.99 1.731.655-.002-.08-.336-.416-.57-.597-1.485-1.146-1.333-2.932.357-2.951.586-.007.623.203 1.978 1.18 1.593 1.148 3.474 1.149 3.452-.005-.017-.849-.332-1.718-1.755-1.578-.374.037-.873.077-1.31-.034-.42-.106-.778-.363-.943-.437a3.587 3.587 0 0 0-1.402-.33Zm-29.093 5.388c4.471 3.014 10.616 9.829 13.757 13.848.72.942.767 1.984.476 2.545-.069.11-.618-.233-.618-.233-3.632-4.294-7.75-8.197-11.792-12.16 0 0-2.402-3.878-1.823-4Zm43.345 6.52-.966.481c-1.464-2.202-2.803-2.233-3.924.34l-.719-.181c-.536-.593 1.927-6.19 5.609-.64Zm-.217-1.88c.403.015 1.108.234 1.271.646.184.38-.022.81-.575.792-.084-.003-.618-.662-.884-1.065-.197-.246-.112-.38.188-.372Zm-16.42 2.696-1.082.05c-2.059-2.717-3.598-.893-4.521.24l-1.158-.158c.185-2.983 5.437-4.022 6.76-.132Zm10.517-2.32c.163.003.323.034.474.092-.426.649-.499 1.19-.595 1.777-.42.175-1.02.539-1.465.073-.829-.756.446-1.964 1.586-1.942Zm-16.887.304c.51.002.357-.031.135.255-.223.29-.529.806-.693 1.267-.069.32-.122.437-.422.447-.571.018-1.729-.186-1.72-.178-.44-.417 1.38-1.746 2.7-1.79Zm6.54.38c.34-.041.26.448.15.64-.214.255-.3.338-.42.02a1.354 1.354 0 0 0-.221-.366c-.169-.217-.15-.228.059-.265.093-.016.312-.027.431-.029Zm17.667 2.169c1.259-.033.417 2.111-1.335 2.63-1.934.985-4.153.75-6.41-.543-1.289-.737-1.679-1.514-.557-1.204 4.228 1.169 5.255.953 7.806-.704.151-.13.313-.161.496-.18Zm-40.677-.465c4.209 3.58 7.377 7.635 10.743 11.372.67.833.985 1.636.855 2.18-.16.676-1.542-.937-1.542-.937.035.015-8.216-8.827-8.216-8.827s-2.094-3.769-1.84-3.788Zm12.578 1.237c.292.01.872.145 1.808.388 4.048 1.232 5.274 1.186 7.6.114 1.484-.684 2.097-.585 1.462.443-1.168 1.891-5.294 2.1-8.39 1.045-.82-.28-1.54-.77-2.33-1.364-.424-.443-.526-.639-.15-.626Zm18.671 1.253c.243-.016.694.264 1.244.576 3.392 1.931 5.895 1.577 7.985.282.378-.346.583-.18.634.155.178 1.176.23 2.021-.305 2.588-.311.329-.84.478-1.639.747-3.284 1.109-7.28.317-8.046-2.156-.249-1.272-.406-2.158.127-2.192Zm-26.913 5.304a.134.134 0 0 1 .04 0c.237.036.784.517 1.648 1.5 4.514 5.141 7.012 8.095 6.556 9.582-.042 0-.07.321-.261.156-2.483-2.153-4.51-4.506-6.02-6.966-1.654-2.696-2.334-4.24-1.963-4.272Zm36.394 3.618c-3.81 2.924-8.43 9.885-8.845 13.314-.08.655-.01 1.146-.251 1.383-.192.189-.623.206-1.2.092-.353-.065-.268-.104-.352-.504-.328-1.57 1.17-5.52 4.269-10.175 1.626-2.442 5.32-5.74 6.35-5.762.69.284.02 1.683.03 1.652Zm-28.208-1.589c.269-.007.685.134 1.266.384 3.42 1.473 4.696 2.008 6.91 3.82 4.124 3.376 8.709 11.395 7.363 12.145-.591.33-1.01.122-1.25-.623a18.61 18.61 0 0 0-.994-2.212c-2.764-5.101-6.36-8.61-11.429-11.091-1.872-.917-2.063-.815-2.205-1.583-.107-.576-.007-.83.339-.84Zm28.153 2.947c.342-.03.425.599.308 1.862-.094 1.03-.156 1.008-1.3 2.215-1.827 1.486-3.988 4.975-4.989 8.53a.855.855 0 0 1-.266.543c-.47.405-1.064.207-1.47.199-.292-.156-.211-.8-.16-1.16.837-3.227 2.895-7.19 6.122-10.67.907-.979 1.452-1.493 1.755-1.52Zm-27.443.092c1.811-.042 8.246 4.785 10.85 9.01 1.702 2.76 2.16 3.893 1.77 4.295-.208.213-1.123.247-1.601.059-.435-.172-.602-.837-1.417-2.374-2.126-4.01-5.188-6.916-8.504-8.451-.617-.286-.947-.467-1.147-.688-.222-.46-.507-1.755.05-1.85Zm.977 3.587c.562.107 2.118 1.12 3.418 2.078 2.3 1.694 5.8 6.874 5.077 7.616-.232.238-1.036.247-1.449.084-2.462-4.4-5.658-6.495-6.956-7.718-.394-.664-1.314-2.23-.09-2.06Zm-5.115.777c.106-.027.538.399 1.32 1.223 2.31 2.436 3.776 5.136 3.437 6.5-.287 1.154-.624.522-3.268-4.543-1.113-2.132-1.645-3.14-1.49-3.18Zm31.615.068c.052 1.401-.06 1.746-.208 2.49-.101.506-.434.742-.75 1.136-.785.983-1.678 2.681-2.127 4.053-.378 1.107-.2 1.373-1.557 1.223-.633-.083-.48-.254-.232-.985.854-2.4 2.905-6.29 4.874-7.917Zm-26.265 2.64c.029-.718 6.2 5.518 5.352 6.22-.802.141-1.28.171-1.617-.116-.66-1.484-3.598-4.298-3.598-4.298l-.137-1.805Zm25.921 1.967a.083.083 0 0 1 .039 0c.276.056.123 3.892-.106 4.208-.44.223-1.272.243-1.717 0-.271-.148-.354-.421-.251-.718.256-.743 1.593-3.399 2.035-3.49Zm-23.292 4.218c-.195.304-1.395.358-1.849.014-.145-.11-.286-2.012-.117-2.357.46-.301 2.118 1.933 1.966 2.343Z" id="path3393-8-5-4-3" fill="#131F67"/><path d="m130.703.93.773 1.02-4.52.024c.74.627 17.488 34.468 38.905 73.565 3.546 6.861 10.308 9.335 18.16 9.635l-20.8-33.629c2.216-1.212 6.614-4.455 9.275-3.852.164.82.954.493.966-.235l.962.02.338.528h4.042l.33-.479 3.485.504c-9.311-11.524-14.223-29.281-12.629-46.615l-30.88.068-.41-.543-7.997-.01Zm-3.747 1.044c-.017-.014-.03-.021-.03 0h.03ZM91.454 24.532C87.944 35.914 79.261 45.28 74.107 54.71 68.58 65 67.282 73.954 68.837 83.747l1.01.088C81.63 67.7 90.752 48.423 95.858 29.465c.111-.412-.08-1.142.015-1.56-.218-.501-.027-1.043.111-1.189.297-.313.187-1.544-.034-3.577-.556-6.042-.446-10.783.056-16.259.387-4.204.366-4.865.366-4.865l-2.017-.03c.372 7.155-.57 15.972-2.9 22.547ZM139.952 2.47l3.314.068c.51 10.168 9.04 11.49 10.36 11.342-2.179 6.877 1.427 14.423 10.109 15.494-1.991 6.375 1.534 14.779 8.48 14.55l.734.466c-.448.918-.544 2.806-.517 2.835-1.545.113-2.382.34-3.385.539-8.976-13.59-29.095-45.294-29.095-45.294Zm29.453 0c-1.003 11.359 1.266 26.96 6.58 36.178 0 0-.169.618-.28.786-.506.766-.757.103-1.064-.515-1.132-2.099-3.27-2.426-4.206-1.257-2.068 2.83.174 3.947 1.915 5.545-7.114-.437-9.485-8.297-7.841-12.185-.037.741.36 1.86.88 2.655 2 3.044 4.92.476 4.083-1.933-.346-.996-1.622-2.658-1.622-2.658s1.732-.256 2.44-.686c.662-.412 1.079-1.142.909-2.14-.137-.802-.172-1.152-.6-1.874-.524-.658-1.464-1.113-2.217-1.062-1.469.098-1.647 1.112-2.608 1.807-.24-1.827-1.405-3.217-3.308-2.871-1.447.262-2.49 1.808-1.603 3.743.448.988 1.077 1.288 1.71 2.145-10.22-1.15-9.107-13.335-7.976-13.117 0 0 .308-.057.217.409-.582 2.982 3.106 4.764 4.723 2.597 1.031-1.758-1.183-4.533-1.183-4.533s1.474-.317 2.144-.705c2.669-1.545-.175-5.985-2.659-4.895-.872.398-1.094 1.21-1.944 1.642-.568-.635-.603-1.33-1.624-1.901-2.803-1.567-4.555 2.14-3.004 3.77.637.662 1.76 1.264 1.54 1.345-8.69-1.102-8.606-10.233-8.407-10.169l25.005-.121Zm-74.694.076h1.196c-.354 5.417-1.12 12.563-.62 17.845.586 5.046.612 5.762.252 6.262-.494.556-.232.818-.135 1.272.13.829.142.838.024 1.31a110.577 110.577 0 0 1-4.11 13.063c-5.591 15.48-14.714 32.358-21.87 41.21-.004-.031-.326.029-.331-.003-1.958-12.351 2.225-22.647 4.41-26.873 4.427-8.567 11.383-15.88 15.513-24.855 3.515-7.637 6.108-16.816 5.67-29.23Zm44.022-.052 29.144 45.503-5.318 2.616-29.826-47.954 6-.165Zm17.082 8.888c.754 0 1.363.616 1.363 1.374 0 .757-.609 1.373-1.363 1.373a1.372 1.372 0 0 1-1.369-1.373c0-.758.614-1.374 1.369-1.374Zm9.664 15.174c.764 0 1.383.622 1.383 1.388 0 .767-.62 1.388-1.383 1.388a1.386 1.386 0 0 1-1.382-1.388c0-.766.619-1.388 1.382-1.388Zm-69.44 2.71c.497 1.983-9.25 31.743-23.102 50.68l6.048.127.187.67c8.473 12.56 3.174 23.672-3.668 28.833l2.369 3.17-2.132 1.733-2.132-2.549c-17.34 13.06-51.176 41.964-51.176 41.964l.188 4.636 2.64-2.087c17.164 16.68 53.559 15.768 63.103-18.664l2.558.058c-5.773 25.237-29.264 35.115-46.994 30.93l-4.153 5.99 1.112.598c-.205-.32-.393-.43-.092-.724l3.53-4.558c26.526 3.411 42.542-11.662 47.738-32.08l3.384.058c-2.903 17.151-10.911 32.252-22.331 44.07-8.242-.033-22.734-.223-22.734-.223 5.277 5.133 15.355 20.798 15.757 22.387 0 0 10.366.332 21.486.059 4.075-1.842 9.53-2.58 12.077-1.292 4.476 2.265 8.683 10.668 10.574 24.15.487 3.473.929 4.944 1.063 5.645.025.126.328.218.373.194.17-.09-.272.614-.29 1.136-.02.522-.002 1.31.246 1.583.314.346.275.574.232.723-.028.098-.633.66-.633.66-.09 7.854-.046 14.984-.474 24.644l1.538.01c-.012-15.544 4.66-29.927 11.86-39.828 4.376-6.498 9.008-13.5 11.569-20.169 2.883-7.506 3.28-15.393 1.736-22.047l-1.054.058c-6.332-4.358-8.912-13.66-1.112-20.305l-2.761-3.607c-7.79 6.046-9.578 17.2-1.509 26.431l-3.157-.01c-7.873-9.865-6.13-21.194 2.969-29.28l-2.036-2.597 2.213-1.957 1.997 2.193 50.791-42.607-.036-4.663-3.892 3.17c-22.784-21.148-56.57-6.309-61.525 19.164l-3.096.033c6.493-27.412 30.418-35.159 47.726-31.513l4.271-6.487c-3.142-.887-6.206-2.98-9.098-5.455-1.219-1.042-1.989-1.68-2.875-2.724-8.197-8.698-13.762-20.776-14.023-20.796L119 58.746c-3.27 1.623-8.87 3.47-11.942.978-6.598-5.35-8.812-16.141-9.72-23.086-.274-2.162-.508-5.922-.71-7.17-.125-.228-.369-.242-.589-.202Zm79.023 12.003c.746 0 1.349.61 1.349 1.359a1.35 1.35 0 0 1-1.35 1.354 1.35 1.35 0 0 1-1.348-1.354c0-.749.603-1.36 1.349-1.36Zm2.9 1.597c1.1 1.43 2.075 2.903 2.621 4.46-.512-.015-.993.145-1.563-.302-.132-1.573-.777-2.518-1.59-3.566l.533-.592Zm-4.075 2.005c.45.221.808 1.93.493 2.223-.542.116-.912.077-1.095-.113-.273-.451.243-2.023.602-2.11ZM85.241 59.714l20.693.025c3.6 2.77 7.12 2.404 12.227.182h23.009l1.3 2.371H84.12c.324-.88 1.121-2.578 1.121-2.578Zm-1.706 3.704h59.55l1.503 2.432H82.06l1.475-2.432Zm5.748 3.534h6.682l-2.476 4.218h-6.894l2.688-4.218Zm14.833 0h6.377l-2.838 4.213h-6.319l2.78-4.213Zm20.625 0-2.683 4.213h-6.483l2.785-4.174 6.381-.039Zm7.997 0h6.387l-2.388 4.213h-6.614l2.615-4.213Zm-85.787.655c-4.14-.047-3.373 5.467-2.983 5.294-2.6-.597-4.52.642-4.84 2.866-.254 1.765 1.463 4.28 4.466 3.929-.399.462.009 3.13.408 3.373 0 0 .051.387-1.534 3.707-1.882 3.941-2.266 4.128-3.119 1.54-.917-2.785-2.335-4.196-6.029-5.996-.983-.48-2.376-1.316-3.094-1.859-1.649-1.247-1.668-1.228-1.59 1.306.1 3.29 1.094 4.732 4.593 6.674 1.712.95 4.99 2.293 5.584 2.287.417-.005 1.951.686 4.225 1.902.445.238 1.965 1.078 3.912 1.267 2.066.147 6.72-.343 9.418-1.907 1.514-.878 2.098-1.664 3.215-3.908 0 0-3.823.199-5.57-.262-3.629-.214-5.433-.003-8.185 1.432-2.302 1.2-2.431 1.415-1.47-.568.44-.91.849-1.982 1.219-3.048.4-1.061.506-1.15 1.513-1.253 2.208-.226 3.465-1.505 3.67-3.723.054-.595-.034-1.223-.034-1.223 1.503.224 4.58-.524 4.483-3.65-.086-2.811-2.082-3.457-4.539-3.65.316-1.44-.731-4.495-3.719-4.53Zm.05.872c3.629.026 3.544 3.37 1.963 5.267l-1.93-1.595-1.557 1.443c-1.694-1.087-1.687-5.137 1.524-5.115Zm99.275.04 1.784 2.646h-3.685l1.9-2.645Zm-67.74 3.802h6.83l-2.74 3.868h-6.46s1.446-2.47 2.37-3.868Zm21.534 0-2.582 4.019h-5.971l2.393-3.937 6.16-.082Zm8.001 0h6.174l-2.441 4.286h-6.102l2.37-4.286Zm14.529 0h6.251l-2.543 4.286h-6.164l2.456-4.286Zm14.16 0h6.44l-2.659 4.286h-6.207l2.427-4.286Zm-89.67.796 3.07 3.106-2.993 3.01-3.084-2.961 3.007-3.155Zm7.784 3.026c-.544 3.609-4.007 3.412-4.991 1.647l1.411-1.616-1.73-1.705c1.68-2.706 5.721-1.052 5.31 1.674Zm-10.308-1.727-1.66 1.877 1.822 1.757c-1.174 1.637-5.683 1.507-4.779-2.432.574-2.501 3.109-2.96 4.617-1.202Zm105.23-.46 1.9 2.622-3.564.029 1.663-2.65Zm-74.099 3.219 76.395.247 2.045 2.51c-26.673.461-52.791-.43-80.04-.451l1.6-2.306Zm-26.858 1.63c3.027 1.865.791 5.793-2.458 5.125-2.422-1.067-2.918-3.589-.739-5.053l1.707 1.413 1.49-1.484Zm26.196 1.506-2.084.01-2.03 2.383c7.675 8.118 7.393 15.16.241 21.3l2.877 3.232c8.022-6.89 9.8-17.717.996-26.925Zm7.886.31c4.302 6.75 8.024 19.535-4.797 31.246l-1.547-1.883c11.162-10.945 8.54-20.149 3.54-29.28l2.804-.083Zm1.194.165 17.347.068c-3.714 14.21-6.32 22.576-6.71 44.804l-5.014.03c.545-.513-2.596-13.422-6.261-17.898 7.686-13.103 3.544-20.493.638-27.004Zm-54.566.02c.3-.003.914.387 2.118 1.111 1.08.65 2.483 1.473 3.118 1.83 2.383 1.341 3.567 2.607 4.245 4.539.508 1.446.192 1.474-1.266.112-1.085-1.014-2.24-1.887-5.13-3.874-1.018-.7-1.34-.585-.75.267.426.614 1.342 1.312 3.196 2.446 1.345.823 3.197 2.471 3.051 2.714-.133.22-.362.202-1.01-.083-.3-.13-1.267-.53-2.147-.888-3.778-1.54-5.392-3.43-5.618-6.572-.079-1.095-.146-1.6.193-1.602Zm79.165.068s.523.692.59.98c.145.624-.464 1.196-2.384 2.054-.658.294-1.207.453-1.189.84.088.905 1.817 2.289 1.605 3.523-.397.945-2.798 1.872-3.399 2.986.005.766 1.562 1.938 1.34 2.98-.122.31-.625.628-1.369 1.277-1.523 1.327-1.617 1.53-1.058 2.563 1.298 2.4 1.346 2.222-.426 3.927-1.785 1.717-1.752 1.696-.9 3.189.92 1.61.878 1.537-.357 2.568-1.21 1.01-1.161 1.216-.512 2.47.627 1.214.77 1.231-.286 2.17-1.233 1.097-1.464 1.212-.594 2.592.899 1.428.965 1.367-.049 2.534-.96 1.106-1.072 1.157-.55 1.908.653.944.777 1.194.09 2.233-.74 1.122-.737 1.042-.057 2.087.572.88.474 1.86.474 1.86l-2.147-.006s-.015-1.238-.266-1.694c-.608-1.104-.592-1.447.13-2.427.743-1.005.619-1.091-.072-2.097-.699-1.017-.599-1.007.31-2.165.833-1.062.875-1.563.4-2.17-1.122-1.437-1.12-2.043.01-2.994.862-.726.943-1.05.199-2.292-.728-1.215-.82-1.326.517-2.538 1.366-1.239 1.352-1.213.435-2.617-.889-1.361-.841-1.452.585-2.781 1.444-1.345 1.463-1.348.517-3.044-.884-1.587-.892-1.56.837-3.106 1.72-1.44 2.307-1.623.59-3.69-.957-1.638-.276-1.8 1.295-2.616 2.756-1.69 1.502-1.585.344-4.092-.968-1.68-.415-1.693 1.271-2.534.419-.18.883-.389 1.359-.655 1.128-.632.517-1.209.517-1.209l2.2-.014Zm3.602.038 8.282.107c-9.6 12.307-14.22 28.048-15.877 44.654l-3.129-.049c-.195-12.968 3.868-29.17 10.724-44.712Zm42.526.289c4.736 4.003 8.247 6.295 10.744 7.198 0 0-3.34 5.566-3.597 5.362-19.214-3.716-42.063 7.532-47.231 31.78l-3.027.02c1.118-9.515 3.612-17.462 8.205-25.751 4.557-8.05 8.755-12.753 15.086-18.68l19.82.071Zm-33.055-.206 4.08.073s.767.924 1.113 1.257c1.761 2.005 1.913 1.606-1.968 3.806-2.45 1.389-3.536 2.034-3.68 2.616-.109.586 1.071 1.75 1.21 2.534.001.088-3.332 2.328-3.936 2.645-.84.41-.883.762-.048 2.219.96 1.674.882 1.616-1.19 3.068-2.02 1.416-2.417 1.275-1.556 2.684 1.195 1.956.633 2.398-2.18 3.922-.711.385-.73.771-.233 2.107.69 1.856.869 1.67-.585 2.674-1.717 1.187-2.02 1.22-1.639 1.947 1.105 2.112 1.544 2.626.068 3.315-1.126.526-1.15.824-.527 2.219.625 1.401.787 1.345-.324 2.135-1.03.733-1.637.57-.634 1.767.794.948.723 1.695.078 2.277-.556.236-.815 1.297-.653 1.32l-1.431.04c-1.12-1.518.202-2.386.401-2.535.182-.349-.041-.596-.493-1.417-.622-1.13-.6-1.266.295-1.927.905-.668.932-.495.329-1.971-.702-1.717-.669-1.913.435-2.709 1.086-.783 1.1-.957.363-2.46-.78-1.587-.78-1.588 1.15-2.874 1.358-.905 1.377-.851.658-2.53-.497-1.158-.146-1.56 1.702-2.83 1.055-.725 1.135-.868.638-1.732-1.37-2.382-1.355-2.455 1.005-3.99 1.932-1.257 1.915-1.365 1.17-3.039-.806-1.813-.878-1.673 1.77-3.267 2.18-1.312 2.3-1.236 1.402-2.815-1.116-1.965-1.045-1.643 3.317-4.146 1.572-1.081 2.991-.707 1.426-2.548-.689-.883-1.533-1.835-1.533-1.835ZM44.76 84.228c.302-.011.537.362.522 1.053-.054.974-.513 1.94-.953 2.908-.922 1.972-1.841 3.431-2.325 3.437-1.14.012-1.11-.244.406-3.219.692-1.358 1.405-2.908 1.518-3.208.244-.65.565-.962.832-.971Zm14.02 4.466c.021 4.175-13.023 6.28-13.7 4.171 2.274-1.787 8.997-.993 10.42-2.592-1.717-.1-4.043.184-5.637.213-1.988.036-5.2.889-5.232 1.241-.208-1.098 3.414-3.161 6.283-3.29 2.683-.118 5.596.202 7.866.257Zm1.117 6.373s-25.434 21.13-38.006 31.353l.077 4.558 40.235-33.071-2.306-2.84Zm-.082 1.044 1.625 1.98-37.77 30.897-.135-3.238 36.28-29.64ZM179.2 106.95l-1.358 1.456c-36.89-27.558-70.86 14.284-52.128 44.216-.17.385-1.472 1.341-1.472 1.341-20.878-34.748 19.07-75.408 54.958-47.012Zm-20.3-6.035c2.094.017 5.948 1.46 7.576 3.427 1.896 2.291 1.344 3.312-1.063 1.15-2.588-1.887-4.726-2.325-1.132-.096.793.491 1.506 1.452 1.543 1.558.13.383-.532-.019-3.544-1.121-1.791-.656-4.061-2.429-4.651-3.636-.442-.903.174-1.29 1.271-1.282Zm-7.764.064c.653-.006 1.235.045 1.648.165 2.639.76 3.47 1.159 4.453 1.927.673.525.457.904-.324.568-.91-.392-3.792-1.253-4.308-1.2-.75.078.002.57 1.078.84 2.385.6 3.569 1.217 1.867 1.243-.888.132-4.773.145-5.831.02-1.768-.21-4.415-1.828-3.805-2.408.658-.626 3.262-1.14 5.222-1.155Zm-7.567 2.49c3.129.037 4.822 1.21 1.402 1.446-5.879.935-7.008 2.218-.493.69 1.516-.356 1.488.193.44.708-.857.418-1.927.624-2.819 1.058-1.607.672-5.289.82-6.725.272-2.12-.809 4.534-4.218 8.195-4.174Zm25.175.534c1.58.04 4.953 2.342 6.454 4.5.981 1.41.493 2.423-.99 1.29-.298-.226-2.428-2.044-2.544-2.087-.2-.073 1.767 1.802 2.055 2.33.246.448.814 1.474-.247 1.495-1.658-.205-5.55-4.571-5.574-6.727-.007-.577.319-.815.846-.801Zm-19.615 1.228c.659-.022.322.33-.928 1.213-2.257 1.595-1.08 1.276 1.557-.087.8-.414 1.768-.738 2.108-.801.34-.063.743-.156.899-.204.709-.218.162.66-.991 1.587-2.427 1.953-5.167 3.486-7.06 3.957-2.41.599-2.921.675-2.03-.835 1.417-2.401 3.48-4.321 5.45-4.694.442-.084.775-.13.995-.136Zm8.113.039c1.004-.02 2.245.188 4.201.611 1.375.43 1.015.523-.633.704-3.1.34-1.81.703 1.204.65 4.11-.03-2.06 1.488-4.061 1.792-1.562.07-2.02.014-5.425-.627-1.298-.244-.52-1.198 1.939-2.378 1.004-.482 1.77-.732 2.775-.752Zm25.407.558.11 2.66-49.773 41.784-1.692-1.878 51.355-42.566Zm-16.937 2.286c1.985-.026 4.853 1.356 4.545 2.19-.115.31-.337.297-1.852-.107-.994-.266-2.775-.547-2.538-.326.082.077 1.472.61 2.002.738 1.753.423 3.853 1.418 3.389 1.714-.813.496-1.557.108-2.519.004-2.407-.335-6.36-1.555-7.01-2.164-.738-.692 1.848-2.02 3.983-2.049Zm-23.216.155c.358.02.491.354.15.811-.52.687-.758 1.263-1.224 2.107-1.663 2.58-2.713 3.601-4.312 4.601-1.6 1-1.828.829-1.688-1.252.18-2.16 1.72-4.432 3.897-5.5 1.005-.143 1.581-.408.527.86-1.87 2.25-.59 2.02 1.156-.534.555-.812 1.136-1.112 1.494-1.093Zm-6.464.301c1.078-.005 1.44.378.058 1.03-1.317.62-3.935 2.458-3.999 2.66-.109.342.872-.195 2.5-1.088 2.176-1.193 2.367-1.165 1.315.2-1.19 1.542-4.053 3.473-6.3 4.188-3.143.865-3.067.26-1.31-2.082 1.675-2.547 3.097-3.761 5.24-4.456.94-.305 1.848-.448 2.496-.452Zm-53.318.389c11.406 19.749 5.074 39.815-8.16 50.049-13.834 10.698-35.358 10.063-48.06-2.777l1.763-1.67c-.009.008 20.022 20.49 45.25 2.31 12.803-9.227 18.09-31.015 7.529-46.204l1.678-1.708Zm-51.094.043a.161.161 0 0 0-.087.02c-.385.25-1.832 4.516-2.123 6.286-.085.518.04 1.026.464 1.442.298.292.78.103.929.043.964-.438 1.496-1.11 2.34-3.237.566-1.165.643-2.558.531-3.044-.045-.197-.357-.656-.749-.917-.434-.29-1.046-.594-1.305-.593Zm.222.889c.456-.005 1.359.74 1.47 1.271.008.926-.52 2.467-.914 2.238-.659-.822-1.417-.303-1.542-.602-.085-.91.498-2.104.899-2.898a.346.346 0 0 1 .087-.01Zm123.19.738c5.072 0 10.116 1.492 13.818 4.786l-1.977 1.82c-8.685-6.216-18.796-4.397-24.788-.204-5.932 4.151-11.182 13.34-6.039 26.28l-1.856 1.69c-5.763-10.41-2.671-24.166 7.527-30.674 3.596-2.294 8.202-3.608 12.822-3.694.164-.003.33-.005.493-.004Zm-75.002 1.519c.154 0 .388.506.363 1.126-.03.745-.344 1.716-.846 1.922-.566.232-.924-1.46-.924-1.46a6.534 6.534 0 0 1 1.407-1.588Zm90.807.582c.207-.01.407-.002.58.02.567.07.572.58.04 1.068-.576.527-.876.555-1.456.13-.518-.378-.545-.657-.097-.98.234-.15.589-.22.933-.238Zm-97.411.117 1.682 2.082-5.83 4.709-.696.053-44.635 37.11-.01-3.296 49.489-40.658Zm93.26 5.024-6.079 5.036c-12.15-6.338-21.893 4.956-18.456 15.215l-5.257 4.58c-9.403-25.908 18.097-34.773 29.792-24.83Zm-31.83-3.956a.128.128 0 0 1 .054 0c.04.009.082.039.12.077.213.21-.21 3.644-.526 4.282-.115.232-.205.53-.203.665.003.282-1.12 2.639-1.997 4.194-.33.586-.684 1.355-.783 1.713-.705 3.402-2.224-2.068-1.688-5.242.253-1.492 2.362-4.573 2.974-4.345.312.117.29.352-.256 1.544-1.524 3.327-1.906 5.042-.305 1.825 1.845-3.707 2.325-4.66 2.61-4.713Zm-103.265.068c.225.013.405.138.502.403.068.225.141.693.015.922-.312.704-.957 1.168-1.61 1.126-.287-.018-.6-.272-.638-.582a1.42 1.42 0 0 1 .387-1.122c.465-.477.968-.769 1.344-.747Zm46.278.213c.72.036 1.48 1.98.996 2.87-.395.726-.468.59-1.16-.816-.364-.74-.643-1.534-.643-1.534l.59-.466a.431.431 0 0 1 .15-.049c.023-.003.044-.006.067-.005Zm-1.213.82s.757 1.378.942 2.476c.113.67.095.545-.638.267-.577-.362-.704-.572-1.063-1.024-.237-.419-.474-.728-.474-.728l1.233-.99Zm4.554.297c.383-.013.794.375 1.17 1.325 1.413 3.568 1.283 7.57-.305 9.46-.263.314-.327.327-.643.132-.257-.16-.283-1.855-.033-2.335.078-.15.31-1.174.328-1.752.042-1.37-.333-1.543-.512-.272-.207 1.468-.433 2.494-.832 1.611-.2-.448-.302-.896-.454-1.373-.795-3.085.132-6.757 1.281-6.796Zm-6.155.912s1.36 1.763 1.92 2.393c.197.341.19.428-.126.549-.538.207-2.337-.997-3.05-1.369-.385-.308-.218-.544-.218-.544.491-.371.983-.737 1.474-1.029Zm53.628.063c.725-.008.726.246-.049 1.364-4.324 6.247-3.451 5.319-.7 1.903 1.529-1.9 1.794-2.08 1.962-1.655.126.318-1.693 4.015-2.635 5.354-.486.692-2.147 1.85-2.988 2.277-2.056 1.045-1.828.625-1.068-1.966.97-4.02 3.404-7.253 5.478-7.277Zm-56.166 2.16c11.855 29.599-20.608 42.591-35.255 28.902l1.706-1.364c20.376 13.875 40.486-8.353 31.282-25.746 0 0 .834-.697 2.267-1.791Zm2.746.719c1.952.2 4.835 3.785 4.98 5.781.308 1.418-.09 1.662-.783.665-1.17-2.168-1.029-.793-.034 1.36.528 1.087.65 2.39.102 2.46-.751-.152-2.376-2.753-2.872-3.825-1.184-2.349-1.27-1.95-1.92-5.431-.121-.653.048-1.005.527-1.01Zm-5.898.97c9.03 17.388-10.396 38.28-30.155 24.776l5.923-4.718c10.312 4.967 21.817-1.193 18.522-15.47l5.71-4.587Zm90.087 3.243-16.29 13.628c-3.353-11.296 8.956-17.749 16.29-13.628Zm-30.257-.029c.533-.111.985 3.31 1.083 8.111.097 4.697.216 5.161-1.237 3.432-.61-.704-1.36-1.377-1.693-2.01-.965-1.832-.658-3.753-.391-6.436.249-2.503 1.14-2.112.996.51-.094 1.687-.076 3.784.188 3.781.096 0 .123-.163.063-.393-.126-.48.45-5.917.687-6.558.102-.277.206-.416.304-.437Zm-44.896 2.068c1.177.462 1.512 4.405.237 8.218-.547 1.638-1.39 2.708-2.644 3.369-.896.471-1.105.322-.701-.5.743-1.34 1.14-2.728 1.44-4.456.12-1.687-.765-.333-.69.388-.695 3.147-1.608 3.62-1.49.306.087-2.443.406-3.49 1.552-5.17.576-.84 1.193-1.998 2.296-2.155Zm40.86.398c.483.004.602.656.168 1.927-.3.881-1.323 3.733-1.203 3.723.075-.006 1.173-2.571 1.397-2.99.367-.687.504-.817.827-.786.314 1.267-.01 2.848-.165 4.16-.665 3.418-2.984 6.948-3.872 5.898-1.448-1.712-.77-8.645 1.15-10.752.723-.794 1.32-1.183 1.697-1.18Zm-62.046.524c1.75 12.092-8.187 17.253-16.771 13.607.181-.046 16.771-13.607 16.771-13.607Zm40.622.224 1.731 2.281 3.172.165-1.625 2.403 1.615 3.077-3.539.068-2.035 2.35-1.77-2.121-3.094-.165 1.803-2.889-1.455-2.762 3.34-.16 1.857-2.247Zm-26.615 1.038c.398.014 2.353 2.596 2.548 3.549.59 2.308.372 6.674-.455 6.524-.897-3.145-.548-4.769-.87-4.408-.558.579.346 5.4.048 6.587-.141.303-.621-.061-1.16-.84-1.439-2.077-1.245-10.204-.145-11.402a.068.068 0 0 1 .034-.01Zm105.915 4.9-39.142 32.555 2.258 2.917 36.955-30.632-.07-4.84Zm-56.533.561c.171-.035.562.24 1.296 1.049 1.281 1.736 2.639 4.121 3.133 5.956.188.713.49 1.66.672 2.102.275.664.297.848.135 1.048-.678.84-3.513-1.273-4.428-3.296-1.285-2.84-1.318-5.4-.03-2.907.47.906 1.05 2.228 1.045 1.703-.002-.15-.57-2.053-1.006-2.902-.27-.534-1.254-2.663-.817-2.753Zm56.118.792.082 2.694-36.454 30.61-1.432-1.748s34.337-28.672 37.804-31.556Zm-56.915 1.665c.17.017.259.263.207.81-.166 1.78-.603 5.654-.512 5.995.055.205.577-2.565.696-3.058.623-2.568 1.575 3.57 1.001 6.32-.09.432-.273 1.13-.367 1.558-.095.428-.4 1.16-.523 1.355-1.032 1.63-3.459-4.862-3.05-8.17.254-2.06 1.935-4.872 2.548-4.81Zm-42.174 1.422c.477-.026.568.444.488 1.432-.276 3.386-2.518 6.942-4.975 7.888-2.447.942-2.674.752-1.223-1.005 1.1-1.332 1.766-2.731 1.58-2.913-.101-.1-.346.46-1.237 1.607-1.117 1.439-1.301.22-.285-1.893.877-1.825 1.697-2.781 3.346-3.898 1.163-.788 1.885-1.196 2.306-1.218Zm22.167 1.029c-.493 14.582-4.114 30.424-11.105 44.197l-6.532.014c7.998-11.828 13.103-26.473 14.524-44.148l3.113-.063Zm2.872.014s.98 1.02 1.378 1.71c.44.758.562 1.421-.237 1.99-.927.786-1.313.494.198 2.446.797 1.028.538 1.197-.45 2.063-1.019.894-1.077.942-.13 2.15 1.014 1.293 1.197 1.492-.126 2.49-1.19.9-1.205 1.111-.275 2.573.857 1.347 1.116 1.333-.527 2.728-1.404 1.191-1.437.861-.082 3.053.498.807.463.859-.45 1.67-2.244 1.993-2.127 1.869-1.808 2.393 2.46 3.538 1.347 3.437-1.059 5.126-.485.417-.36.887.725 2.655.923 1.503.789 1.828-1.373 3.32-2.25 1.555-2.324 1.765-1.199 3.35 1.109 1.562 1.133 1.455-.667 3.068a39.716 39.716 0 0 0-1.48 1.398H97.02s.842-.772 1.416-1.2c3.276-2.433 3.263-2.176 1.881-3.931-1.223-1.553-1.104-1.655.135-2.544.892-.639 2.092-1.297 2.993-1.95.486-.347.127-.636-.682-2.17-.905-1.72-.954-1.521.73-2.913 1.845-1.524 1.875-1.468.876-3.398-1.003-1.936-1.02-1.768.246-2.806 1.883-1.543 1.972-1.46.982-3.247-.79-1.426-.798-1.385.536-2.723 1.346-1.35 1.179-1.265.382-2.5-.81-1.256-.767-1.425.3-2.379 1.15-1.027.987-.964.034-2.276-.94-1.293-.925-1.197.217-2.2.601-.526 1.205-1.062 1.17-1.31-.088-.639-.696-1.545-1.28-2.417-.224-.333.223-.435.937-1.18.727-.758.694-.567.145-1.573a44.026 44.026 0 0 0-.86-1.46l1.392-.006Zm-10.69.034 1.137.03s.195.258.459.529c.73.747.762 1.186.029 1.587-.704.385-.434.924.155 1.791.624.92.618.815-.276 1.719-.923.753-1.4.966-.382 2.393.579.661.507 1.344-.392 1.936-.69.456-1.837.834-.628 2.568.59 1.236.636 1.157-.595 2.034-1.638 1.167-1.946.964-1.194 2.665.837 1.892.92 1.92-.798 3.19-1.995 1.474-2.064 1.593-1.233 3.358.839 1.78.86 1.33-1.252 2.98-1.547 1.21-1.899 1.277-1.44 2.277.858 1.874 1.222 2.377-1.282 3.665-2.89 1.488-3.037 1.598-1.648 3.81 1.129 1.8.878 1.545-.987 2.622-2.695 1.557-3.885 2.235-3.97 2.718-.054.547 2.104 2.175 2.104 2.175l-3.761.102s-1.582-1.289-2.195-1.888c-1.702-1.663-1.72-1.119 3.935-3.874 3.121-1.52 2.86-1.176 2.35-2.063-1.505-2.62-1.557-2.893 1.267-4.32 2.453-1.24 2.032-1.33 1.435-3.204-.52-1.634-.437-1.483.856-2.446 3.126-2.328 3.04-2.087 2.553-3.228-.48-1.123-.849-1.646-.488-2.2 1.126-1.621 3.522-1.966 2.543-3.897-.457-1.246-.62-1.525.759-2.602 1.244-1.04 1.25-.914.454-2.286-.97-1.26-.83-1.468.59-2.457 1.012-.928.998-.904.43-1.81-.783-1.25-.745-1.288.373-2.272.91-.801 1.068-.844.488-1.728-.77-1.172-.642-1.43.372-2.005.623-.352.62-.496.566-1.092-.01-.115-.334-.777-.334-.777Zm14.108.068 5.236.015c1.673 9.748 4.592 13.748 6.28 16.834-6.62 10.671-5.115 19.534-1.073 27.377l-16.583-.063c4.252-14.602 6.444-29.295 6.14-44.163Zm-35.942.04c.193-.015.328.298.653.854 1.05 1.795.307 4.341-1.228 7.009-1.149 1.996-1.357.471-.831-2.403.33-1.812-.579.903-1.01 3.092-.235 1.187-.802 2.145-1.418 2.088-.58-.095-.4-1.758-.381-2.127.13-2.62 1.103-4.476 2.992-7.077.716-.985 1.005-1.421 1.223-1.437Zm53.454 5.125c.249-.011.596.093 1.025.34.334.192.933.557 1.349.786 1.452.803 1.57 1.048.88 1.855-.854.998-1.4.617-2.877-1.044-.996-1.12-1.013-1.908-.377-1.937Zm-.484 2.194c.235.006.718.26 1.19.801.956 1.1.84 2.028-.218 1.762-.432-.634-.655-1.6-1.068-2.315-.094-.163-.044-.251.096-.248Zm46.772.141c-.927.002-2.48 1.23-2.775 2.48-.901 3.814-.9 3.649-.092 4.204.237.163.415.282.532.355.474.375 1.119.955 1.204.84.77.004 1.939-4.882 1.9-5.889.048-1.063.085-1.191-.18-1.674-.12-.22-.33-.316-.589-.316Zm-47.482.083c.061-.012.139.02.232.097.607.607.852 1.693 1.16 2.47.002.169-.068.446-.155.612-.525 1.012-1.342.03-1.426-1.714-.047-.98.003-1.43.189-1.465Zm47.337.752c.04-.003.08-.002.116 0 .623.028.526.674-.338 1.612-.455.492-1.392.726-1.702.422-.45-.443.48-1.658 1.494-1.952.165-.047.308-.075.43-.082Zm-105.171.534c.035 0 .067-.002.101 0 .326.02.599.168.813.417.414.515.24 1.311.043 1.976-.492 1.743-3.745 5.118-4.912 5.13-.695-.12 2.21-3.827 2.301-4.45-.216-.213-2.016 1.875-2.862 3.325-.383.656-.818 1.466-1.049 1.606-.607.07-1.306.458-1.31.049.1-1.852 3.71-5.887 4.941-7.01.755-.713 1.408-1.034 1.934-1.043Zm8.707.175c2.79-.032-2.702 6.097-6.256 6.98-1.107.275-3.147.347-3.292.116-.146-.23.018-.418.474-.538.733-.194 4.364-2.513 4.36-2.787-.003-.343-1.503.226-2.784 1.059-.83.538-1.22.427-.77-.224 2.087-3.011 4.878-4.568 8.268-4.606Zm48.285.01c.159.012.317.328.416 1.033.507 1.314.531 1.672.053 2.059-.818.66-1.02.476-1.01-1.044.007-1.252.277-2.07.541-2.049Zm-91.894 1.742s1.017.383.594.869c-.294.338-1.546.05-1.547-.049l.953-.82Zm140.136.039c.332-.022.34.286.164 1.063-.092.408-.494 2.554-1.204 3.15-.086.057-1.117-.56-1.397-.844-.128-.132-.531-.433-.585-.631-.175-.649.013-1.492.503-1.913.192-.164.576-.255.783-.257.163-.002.643-.16 1.069-.35.297-.132.516-.208.667-.218Zm-139.779 1.48c.67-.004 1.493.067 2.19.306 2.058.6 5.831 2.298 6.411 2.854.846.811-1.36 1.675-4.012 1.704-1.407.016-1.672-.278-3.617-1.446-.25-.165-1.383-.912-1.054-1.185.36-.37 1.447.106 2.8.796.44.225 1.515.16 1.513-.038-.003-.235-2.704-1.243-4.729-1.889-1.329-.424-1.298-.851-.483-1.034a7.24 7.24 0 0 1 .981-.068Zm-2.659.928s.56.497 1.286 1.043c.788.593 1.703 1.324 2.34 2.296.921 1.128 2.377 3.934 2.215 4.442-.373 1.165-4.262-.88-7.441-4.073-1.034-1.038-1.639-1.81-1.639-1.81l1.213-1.102s1.066.895 2.297 1.985c2.309 2.045 2.293 1.343-.029-.81-.657-.61-1.262-1.156-1.262-1.156.03-.39.399-.736 1.02-.815Zm94.99.097s1.24 1.293 1.701 1.888c-7.567 7.427-10.456 17.803-3.152 28.853l-3.505-.015c-6.566-12.971-3.452-22.737 4.955-30.726Zm-63.999.305c.47-.02.042.535-.793 1.962-1.559 2.663-1.868 3.336-4.4 4-.651.168-1.58.034-1.962.082-1.089.137-.605-.002 1.063-1.087 2.312-1.505.349-.731-1.788.373-1.238.64-2.537.608-2.65.277-.062-.183.501-.663.866-.99 3.254-2.922 4.253-2.799 7.28-3.854 1.322-.461 2.062-.748 2.384-.763ZM50.653 154.4c1.178.008 2.277.126 3.254.345.647.147 1.7.276.812 1.082-1.006.95-3.723 2.248-5.734 2.335-.282.01-4.423-.283-3.539-1.174.177-.1.739-.073 1.223-.165 2.294-.436 1.673-.807-1.15-.656-3.537.19-3.698-.177-1.02-.912 1.958-.538 3.882-.814 5.647-.85.171-.003.339-.006.507-.005Zm18.895.272c1.573-.015 2.797.267 2.804.87.01.976-2.97 3.118-4.927 3.543-.46.1-1.116.243-1.455.32-.683.155-4.462.023-4.83-.112-1.77-.645-.539-.898 2.707-1.276 1.413-.165 2.087-.537 2.084-.806-.001-.131-1.042-.168-2.591.029-1.731.22-1.391-.292.764-1.413 1.423-.74 3.66-1.137 5.444-1.155Zm-29.13 1.354c.22.006.751.19 1.634.559 1.885.55 4.474 1.173 6.247 3.116 1.431 1.392 1.78 1.84 1.48 2.33-.365.593-4.808.142-6.678-.66-1.235-.53-2.707-1.667-3.38-2.65-1.628-2.383-.943-3.01 1.127-1.345 2.495 2.006 2.865 2.213 3.307 2.121.178-.037-.26-.449-1.097-1.073-2.101-1.567-3.125-2.41-2.64-2.398Zm15.37 2.559c2.09.002 2.54.16 4.569 1.092 2.538.898 1.923 1.697-2.582 2.825-2.256.531-4.526.159-6.174-.86-3.631-2.242-3.392-2.691.662-1.689 1.332.33 2.66.391 2.741.141.063-.191-1.548-.603-2.857-1.039-1.417-.47-.199-.43 2.635-.46.375-.005.707-.01 1.006-.01Zm104.476 9.69s-.464.22-.669.333c-.161.09-1.416.247-2.79.35-2.706.202-4.527.638-6.17 1.3-2.479 1.001-4.137 4.088-4.137 4.088 1.853-.126 12.344 1.778 15.255-2.017.61-.794-1.564 5.997-2.68 6.298-2.765-.333-3.928 4.023-3.651 3.84-2.79 1.084-4.952 1.721-4.243 4.97.31 1.418 1.74 3.101 4.77 2.678-.825 5.635 6.044 7.093 6.8.3 0 0 1.34-.256 1.855-.317 3.132-.745 3.89-5.339-.706-6.796-1.275-.38-1.347-.62-1.347-.62.238-1.036.181-2.124-.566-3.333 1.014-2.426 3.538-7.103 3.538-7.103l-5.259-3.97Zm.485 1.402c.632.847-2.663 2.25-6.172 2.553-.787.068-2.518.227-2.563.305-.378.665 6.786.182 9.017-1.072.765-.43.834-.052.502.61-2.591 3.345-8.845 2.52-13.734 1.933-.28-.282-.042-.627 1.053-1.52 2.01-1.636 3.457-2.182 6.629-2.509.885-.028 4.87-.781 5.268-.3Zm3.875 3.46c-.45 1.439-2.805 5.83-2.805 5.83-.289.29-1.32.495-1.242-.616.012-1.193 2.237-6.11 2.838-6.204.717-.055 1.245.474 1.209.99Zm1.493.335c.69 5.039 4.498 6.237 8.152 7.825.962.443 1.777 1.23 2.741 1.738 1.806-2.473-.229-7.275-3.408-8.84-2.362-1.106-4.515-1.987-5.846-1.888-.77.058-1.629.554-1.64 1.165Zm1.954-.3c.409-.005.994.114 3.128.684 3.221.86 5.494 3.246 6.087 6.388.024.127.19 2.562-.366 2.475-.839-.242-1.29-1.09-2.637-1.655-1.68-.705-4.036-1.633-5.482-2.951-1.168-1.065-1.806-2.212-1.949-3.194-.144-1.02.196-1.124 1.05-.301 1.91 1.527 3.796 2.049 5.685 3.524.525.41 2.41 1.458 1.123.153-.872-.885-3.44-2.427-4.802-3.085-1.895-.914-2.924-2.026-1.837-2.039Zm-145.092 5.028 21.597 33.897c-5.316 2.815-7.936 4.047-16.762 3.354l.033.446-3.75-.219c6.478 10.152 14.473 23.397 12.205 46.502l26.307-.028s.411.392.451.419c.385.26.962-.458.962-.458l11.867-.064.321.384 5.534-.038s-25.302-47.534-38.01-71.137c-5.22-9.468-10.657-13.675-20.755-13.058Zm136.186 1.122c1.418-.036 2.828.943 2.838 2.844.005.99-.827 2.372-.827 2.372l-1.927-1.844-1.842 1.85c-.907-.753-1.445-2.185-1.148-3 .567-1.395 1.803-2.195 2.906-2.222Zm-22.337.674c1.828 7.152 3.803 17.014-12.048 39.804-9.375 13.48-12.443 26.197-12.817 41.717l-.948.004c.448-8.517.508-23.96.508-23.96l.885-.79s-.403-.657-.58-1.428c-.3-1.299-.047-.866.725-4.354 3.24-16.847 24.275-50.993 24.275-50.993Zm-84.637 3.282 80.33.369-1.069 2.116-77.734-.558-1.527-1.927Zm107.076.611 2.983 2.918-2.916 3.286-3.07-3.223 3.003-2.98Zm-2.447 1.24-1.627 1.738 1.41 1.49c-1.452 3.06-5.317.672-5.188-1.618.152-2.68 3.27-3.779 5.405-1.61Zm5.155 3.453 1.296-1.654-1.464-1.612c2.398-2.378 4.666-.284 4.886 1.7.233 2.116-3.052 4.504-4.718 1.566Zm-95.14-2.023 6.58.063-2.446 4.597-6.672-.03 2.538-4.63Zm14.66.034h6.043l-2.553 4.66h-6.116l2.625-4.66Zm14.272 0h6.41l-2.6 4.66H92.99l2.776-4.66Zm14.35 0h6.56l-2.388 4.66h-6.808l2.635-4.66Zm14.615 0h6.324l-2.563 4.66h-6.507l2.746-4.66Zm-69.834.024h4.25l-1.736 3.068-2.514-3.068Zm105.967 2.94c2.432 1.96.742 5.181-1.792 5.239-1.745.04-4.278-2.925-1.537-5.34l1.826 1.675 1.503-1.574Zm-89.393 2.478h6.179l-2.326 4.193h-6.053l2.2-4.193Zm13.735.033h6.779l-2.389 4.194h-6.45l2.06-4.194Zm14.514 0h6.745l-2.2 4.194h-6.812l2.267-4.194Zm14.461 0h6.692l-2.084 4.194h-7.074l2.466-4.194Zm-55.184.16h4.264l-1.818 3.36-2.446-3.36Zm3.215 4.865 62.615.558-1.063 2.038-59.961.01-1.59-2.606Zm2.2 3.65 58.675.145-1.349 2.82-20.272-.092c-3.956-2.964-8.477-1.594-13.634.093 0 0-15.52.162-21.622 0l-1.798-2.966ZM44.9 212.692l30.947 49.042-6.841-.078-29.386-46.133 5.28-2.83Zm-6.203 3.195 29.216 45.835c-1.34-.031-2.585.051-3.926.031.543-8.56-6.318-12.574-10.35-12.778 2.42-10.01-4.85-14.223-9.7-15.018 1.967-13.01-8.76-14.855-8.917-14.724.053-1.068-.148-1.838-.29-2.73l3.967-.616Zm-4.734.726c-.062.276.55 2.868-.604 2.39l-.082-2.385.686-.005Zm-6.15.066c.417 1.724 1.3 2.066 2.497 3.222 0 0-1.532.261-1.887.015-.637-.442-1.968-3.25-1.968-3.25l1.358.013Zm4.57 2.916c.74 0 1.339.606 1.339 1.35a1.34 1.34 0 0 1-1.34 1.344c-.74 0-1.339-.6-1.339-1.344 0-.744.599-1.35 1.34-1.35Zm2.654 1.036c3.843-.252 9.416 3.886 7.947 11.63-.256-.54-.559-1.73-1.182-2.575-2.65-3.587-5.769 1.329-3.666 3.335 1.03.984 1.513 1.371 1.402 1.46-2.369-.45-4.163 1.655-3.177 3.992 1.643 3.025 3.926 1.423 5.247-.372 0 0 .813 2.708 1.622 3.052 1.238.527 2.946-.14 3.528-1.643.866-2.234-1.239-2.807-1.702-4.051 4.446.145 10.11 6.669 7.533 12.326.338-1.29-1.04-4.178-3.716-3.433-1.337.469-1.803 2.425-.724 4.436.345.644.532.884.532.884s-1.158.153-1.462.341c-3.473 2.147 1.004 8.005 3.589 4.343.264-.435.696-.933.696-.933.427.816.557 1.964 1.335 2.358 3.2 1.617 4.627-1.797 3.282-3.47-.757-.943-1.612-2.03-1.612-2.03-.133-.603 9.59 1.957 8.407 11.455l-25.779-.036c2.39-14.59-3.396-31.28-6.35-36.367l1.28-1.694c.32.63.853 2.216 1.794 2.52 2.99.966 3.901-1.132 3.5-3.29-.213-1.148-1.815-2.072-2.324-2.238Zm6.827 13.73c.703 0 1.271.576 1.271 1.282a1.273 1.273 0 1 1-2.548 0c0-.706.573-1.281 1.277-1.281Zm9.674 15.199c.71 0 1.286.578 1.286 1.291s-.576 1.291-1.286 1.291c-.71 0-1.286-.578-1.286-1.29 0-.714.576-1.292 1.286-1.292Z" id="path3389-2-3-5-0" fill="#000"/><path d="M154.664 254.855c9.774-.212 14.157-11.217 6.918-19.763-1.05-1.247-1.158-1.962.765-.765 4.873 3.26 14.219 1.117 14.697-8.847.592-12.277-16.562-15.814-19.783-2.76-.17 1.378-1.29 1.346-1.02-.609.294-5.306 1.951-10.266 4.229-15.102h-11.62c2.277 4.836 3.935 9.796 4.228 15.102.27 1.955-.85 1.987-1.02.61-3.22-13.055-20.374-9.518-19.783 2.759.479 9.964 9.824 12.106 14.698 8.847 1.923-1.197 1.814-.482.764.765-7.239 8.546-2.856 19.55 6.919 19.763h.01-.002Z" id="path147-0-8-1-3-6-7-5-8" fill="#000"/><path d="M51.593 9.222c9.775.212 14.158 11.217 6.918 19.763-1.05 1.246-1.158 1.962.765.764 4.874-3.259 14.22-1.116 14.698 8.848.591 12.277-16.563 15.814-19.784 2.76-.17-1.378-1.29-1.347-1.02.609.294 5.306 1.951 10.266 4.23 15.102H45.78c2.277-4.836 3.934-9.796 4.228-15.102.27-1.956-.85-1.987-1.02-.61-3.22 13.055-20.375 9.518-19.783-2.76.478-9.963 9.824-12.106 14.697-8.847 1.923 1.198 1.815.482.765-.764-7.24-8.546-2.856-19.551 6.918-19.763h.01-.002Z" id="path147-0-8-1-0-3-83-6-6-4" fill="#000"/></g></g></g></svg>