<svg width="227" height="315" xmlns="http://www.w3.org/2000/svg"><g id="Page-1" stroke="none" stroke-width="1" fill="none" fill-rule="evenodd"><g id="Clubs" transform="translate(10 23)"><g id="K"><path d="M197.321 239.633c3.91-.089 5.663-4.674 2.768-8.235-.42-.52-.464-.818.305-.319 1.95 1.358 5.688.466 5.88-3.686.236-5.116-6.626-6.59-7.914-1.15-.068.574-.516.56-.408-.254.118-2.21.78-4.277 1.692-6.293h-4.648c.911 2.016 1.574 4.082 1.691 6.293.108.815-.34.828-.408.254-1.288-5.44-8.15-3.966-7.913 1.15.191 4.152 3.93 5.044 5.88 3.686.768-.499.725-.2.305.319-2.896 3.56-1.142 8.146 2.767 8.235.001 0 0 0 0 0h.003Z" id="path147-6-9-8-7-0-5-6-9-6-3" fill="#000"/><path d="M9.367 28.445c-3.91.088-5.663 4.674-2.768 8.235.42.52.464.817-.305.318-1.95-1.358-5.688-.465-5.88 3.687-.236 5.115 6.626 6.59 7.914 1.15.068-.574.516-.561.408.254-.118 2.21-.78 4.277-1.692 6.292h4.648c-.91-2.015-1.574-4.081-1.691-6.292-.108-.815.34-.828.408-.254 1.288 5.44 8.15 3.965 7.913-1.15-.191-4.152-3.93-5.045-5.88-3.687-.768.5-.725.201-.305-.318 2.896-3.561 1.143-8.146-2.767-8.235h-.003Z" id="path147-6-9-8-7-4-5-62-08-0-2" fill="#000"/><path d="m152.472 4.494-81.705.4 10.376 19.841c21.235-1.928 39.844-.213 59.23.425l12.099-20.666ZM96.67 74.25c-.085.116-3.399.98-3.061 1.738 8.652 18.696 12.517 33.909 16.13 53.124 1.827-1.497 4.781-1.436 4.781-1.436-1.457-7.136 7.456-8.025 7.514-.56 1.71.4 3.47.406 5.015 2.15.694-20.997 8.16-42.723 17.802-57.776-10.988 4.388-27.109 15.327-27.109 15.327S104.327 81.226 96.67 74.25Zm66.785 2.236c-14.623 14.009-20.346 52.896-19.297 53.432-18.85-.635-24.562 20.334-8.223 31.641-.646 2.193-2.242 3.978-3.478 5.915 1.685.974 3.525 1.182 5.362 1.386 1.396 1.668 2.767 3.593 4.282 3.752 1.644-1.045 2.812-2.575 4.18-3.897 1.709-.438 3.403-.924 5.024-1.67-1.436-2.022-3.138-4.066-3.182-5.959 14.207-10.106 12.257-23.848-.55-30.883 3.816-23.143 9.38-37.927 15.84-48.44l.042-5.277Zm-100.71 17.88c-1.858.914-2.872 2.845-4.22 4.36-1.85.085-3.633.723-5.396 1.516 0 0 4.238 5.906 3.976 6.224-13.74 9.08-13.628 22.353-.436 31.096 2.235 18.889-13.672 48.781-14.475 47.913l-.029 6.18c11.321-12.484 17.787-35.035 18.432-53.244 22.608-1.518 23.409-23.558 7.845-31.848-1.197-1.108 3.913-6.23 3.913-6.23-1.297-1.288-3.467-1.434-5.367-1.593-1.2-1.445-2.244-2.886-4.243-4.374Zm95.62 15.253c3.198 7.174 14.875-1.567 16.901 2.25 1.645 2.165 5.227 2.387 5.032-1.26-.672-3.612-3.03-4.413-12.38-2.84-3.547.598-5.001.951-4.98-.68-2.453-2.989-4.558 1.077-4.573 2.53Zm10.846 10.47c-2.621-.003-3.067 10.34-3.03 13.446-7.59 12.094 15.571 10.72 5.555-2.456.349-1.722-1.277-4.53-1.232-5.77-.82-.106-1.181-4.776-1.293-5.22Zm-135.56 15.6c-.24 3.127 2.031 12.621 2.875 12.3 2.968-4.823 2.615-8.948 2.308-13.658 7.07-13.725-17.074-8.092-5.184 1.357Zm44.066 2.206c-1.054 20.201-5.96 40.022-17.074 57.21 9.567-4.5 18.852-10.305 27.838-15.275l20.997 13.115c1.216-.533 2.058-.795 2.864-1.599-9.676-14.28-12.671-34.834-16.887-53.427-1.604 1.147-4.62 1.724-4.62 1.724-.216 6.449-6.92 8.539-8.29.128l-4.828-1.876Zm-50.678 15.76c-2.24.143-3.924 5.738 2.42 6.567 4.478.639 10.211-1.586 13.055-.556 3.307 5.323 6.276-2.512 1.856-3.79-4.747-1.373-14.415 2.209-15.484-.835-.55-1.04-1.22-1.426-1.847-1.386Zm38.083 87.502-12.667 22.578 80.987-.492-10.586-21.536c.181-.238-35.371 4.266-57.734-.55Z" id="path3450-5-0-3" fill="#E2CF00"/><path d="m83.946 26.599 1.563 2.962c19.013-2.877 33.956-3.15 53.524.964l1.836-3.034c-17.864-3.52-36.113-5.133-56.923-.892ZM101.2 71.112l16.397 11.049s8.008-5.536 11.42-7.879l-2.006-3.07c-7.225 15.472-19.353 2.974-23.861-4.422 0 0-1.294 2.82-1.95 4.322Zm44.382 5.88c1.147-.008 1.777.448 2.336 1.634.632 1.34.886 1.016.49-.65-.621-2.625 2.156-4.287 4.725-2.503 1.854 1.29 1.729 4.34-.326 4.875-1.66.433-1.709.87-.256.82 2.607-.09 3.25 3.428 1.37 5.116-2.159 1.94-4.855.503-5.068-1.974-.104-.7-.25-.693-.485-.3-.674 1.13-.756 2.614-.647 3.959l-3.815-2.466c1.38-.665 2.222-1.066 3.227-2.09.132-.134.23-.231.23-.29 0-.106-.429.03-1.215.1-2.328.21-4.096-1.337-3.587-3.54.433-1.873 1.409-2.678 3.021-2.691Zm-17.85 60.71c4.257-4.773 9.5-7.799 16.72-7.26 1.21-20.24 8.43-38.148 19.808-54.21l-12.155-7.62-4.962 2.923c-11.575 16.84-19.625 38.147-19.41 66.167Zm-91.22-48.675s-8.39 6.152-12.29 9.126l-.617 55.851 1.067.386c.075.12-.082-.83.416-1.255.407-.348 1.05-.74 1.43-.874 1.073-.376 1.13-1.093.144-1.729-.766-.492-1.049-1.24-.942-2.477.075-.872.04-1.063-.311-1.66-.438-.744-.462-1.676-.067-2.637.183-.446.168-.567-.139-1.178-.39-.778-.427-1.61-.115-2.501.12-.341.213-1.088.21-1.666-.008-2.225 1.833-3.674 5.2-4.09 1.317-.162 1.358-.217.77-1.337-3.312-6.324 4.38-9.48 4.938-8.468l.306-35.491Zm104.671 4.65c3.106 0 5.626 2.538 5.626 5.673 0 3.136-2.52 5.679-5.626 5.679-3.106 0-5.626-2.543-5.626-5.679 0-3.135 2.52-5.673 5.626-5.673Zm.038 1.014c-2.487 0-4.501 2.033-4.501 4.543 0 2.511 2.014 4.549 4.501 4.549 2.488 0 4.507-2.038 4.506-4.549 0-2.51-2.018-4.543-4.506-4.543Zm.096 1.444c1.687 0 3.057 1.378 3.057 3.08 0 1.703-1.37 3.086-3.057 3.086-1.687 0-3.052-1.383-3.052-3.086 0-1.702 1.365-3.08 3.052-3.08Zm-111.675.695c.229 0 .472.038.718.12 1.395.47 1.867 1.723 1.09 2.893-.61.918-.542.999.507.623.826-.296 1.243-.193 1.88.463 1.913 1.968-1.022 5.185-2.894 3.182-.926-.992-1.02-.705-.392.985.203.547.54 1.398.54 1.398l-2.784-.082s.449-1.114.656-1.64c.5-1.266.519-1.452-.498-.666-2.292 1.774-4.816-1.355-2.702-3.346.43-.405 1.11-.413 2.052-.024.685.284.772.095.263-.57-1.106-1.445-.037-3.331 1.564-3.336Zm57.649 5.85c-1.24 7.469-.403 17.986-.508 23.598 3.011.625 3.015 2.702 3.442 5.29 1.475-.496 4.653 1.74 5.095 1.554.443-7.589-3.152-29.69-8.03-30.441Zm49.995 8.236c4.282.41 3.412 3.74 2.116 5.094-.615.695-.508 1.013.162.618 1.827-1.078 3.252-.26 3.808 1.651.95 3.264-3.321 6-5.166 3.056-.625-.997-1.02-.78-.878.257.082.998 1.017 3.076 1.017 3.076l-4.201-.442s1.316-2.139 1.55-2.716c.486-1.2.243-1.524-.67-.566-2.665 2.391-6.265-.773-4.52-3.969.86-1.575 2.412-2.066 4.061-.777 1.113.757 1.36.44.369-.473-1.854-1.706-.17-5.05 2.352-4.809Zm-107.658 1.075h.143c.36.013.737.12 1.11.338 1.037.609 1.306 1.783.636 2.791-.385.58-.28.951.163.575.594-.504 1.884-.144 2.378.661 1.267 2.07-1.306 4.715-2.9 2.984-.703-.764-.976-.798-.9-.302.22.932.802 2.526.802 2.526l-2.913.008s.652-1.657.804-2.5c.117-.668-.149-.575-.854.206-.686.758-1.3.829-2.153.241-2.102-1.451-.35-5.072 1.847-3.815.756.434.867.191.282-.613-1.044-1.436.066-3.049 1.555-3.1Zm151.25.915c-4.786 4.849-3.265 1.963-1.133 5.744-.028 2.471 1.374 4.427.185 8.311-.374.757-.411 1.12-.223 1.889-.408 4.304-3.827 4.199-7.162 4.819.552-.029 5.142 8.837-3.669 9.396l-.414 35.763 13.948-10.067.743-55.822-2.275-.033ZM77.051 130.27c-3.95 2.487-9.537 8.766-16.43 7.283-1.157 22.3-8.66 39.467-19.222 54.16 3.542 2.184 7.438 4.8 11.068 6.495 3.112-1.563 4.857-2.208 7.925-4.682 12.72-19.214 16.97-40.36 16.659-63.256Zm32.426 4.557c.534 11.469 2.225 22.347 8.005 31.14l.75-24.347c-2.097-.54-3.801-1.938-4.36-5.84l-4.395-.953ZM66.7 140.96l3.945.152s-.922 1.787-1.324 2.788c-.488 1.223-.268 1.477.644.635 1.187-1.095 3.055-1.171 4.023-.164 2.57 2.675-.22 6.933-3.277 5.003-1.309-.827-1.534-.56-.502.598 2.01 1.94-.158 4.657-2.54 4.634-1.722-.032-2.818-1.438-2.932-2.972-.052-.964.441-1.923 1.276-2.381.871-.477.257-.805-.688-.31-3.088 1.62-5.076-2.683-2.73-5.08 1.353-1.382 2.762-1.231 4.098.127.932.948 1.272.87 1.021-.24-.25-1.247-1.014-2.79-1.014-2.79Zm106.472 4.915 2.828.045c-.289.702-.658 1.416-.894 2.111-.254.757-.077.857.682.132 1.968-1.292 4.028.06 3.575 2.146-.312 1.439-1.52 2.129-2.894 1.482-1.212-.57-.824-.328-.142.524.81 1.014.584 2.18-.518 2.938-1.95 1.34-4.464-.971-3.16-2.938.77-1.17.423-1.046-.27-.485-1.04.744-2.58-.354-2.588-1.845-.088-2.146 2.074-3.321 3.564-1.782.71.623.891.55.579-.344-.289-.651-.375-1.345-.762-1.984Zm-.073 15.596 2.964.01s-.045.228-.513 1.086c-.551 1.01-.485 2.063.086 1.357.962-1.191 2.965-.826 3.602.657.742 1.728-.78 3.602-2.32 2.858-1.002-.483-1.072-.383-.416.604.638.96.332 2.124-.737 2.79-2.1 1.31-4.557-1.402-2.799-3.09.471-.451.328-.677-.239-.376-2.315 1.226-3.964-1.932-1.951-3.737.857-.77 1.502-.706 2.88.285.428.308.515-.002.215-.773-.513-1.314-.772-1.671-.772-1.671Zm-110.028.264c3.3 0 5.97 2.696 5.97 6.025 0 3.33-2.67 6.031-5.97 6.031-3.298 0-5.974-2.7-5.974-6.03s2.676-6.026 5.974-6.026Zm.053 1.076c-2.71 0-4.908 2.214-4.908 4.95 0 2.735 2.198 4.954 4.908 4.954 2.71 0 4.908-2.22 4.908-4.955s-2.198-4.949-4.908-4.949Zm.029 1.903c1.668 0 3.018 1.363 3.018 3.046 0 1.684-1.35 3.052-3.018 3.052-1.668 0-3.023-1.368-3.023-3.052 0-1.683 1.355-3.046 3.023-3.046Zm-7.717 14.494 3.423 1.751s-1.65 1.315-2.308 1.996c-.842.876-.79 1.293.335.884 2.147-.779 4.268.466 4.276 2.704.01 2.986-3.509 4.371-5.156 2.086-.49-.68-1.082-.967-.856-.415.55 1.344.177 3.022-.823 3.699-.8.542-2.254.683-2.98.29-2.498-1.354-2.586-4.283-.163-5.404 1.218-.563 1.266-1.107.072-.825-2.487.587-3.889-2.462-2.072-4.515 1.93-2.18 5.015-1.678 5.31 1.593.053.582.451.168.64-.72.22-.658.302-3.124.302-3.124Zm32.064 5.381s-12.729 7.065-12.348 7.377c.073.045 2.741 3.954 2.741 3.954 6.47-14.232 21.298-2.15 23.595 5.198.516.332.607.24 1.17.505.06-.515 1.174-5.58 1.174-5.58L87.5 184.59Zm-21.454 52.587-2.076 2.894c-.706.291 31.388 6.261 56.845 1.047l-1.707-3.39c-20.744 5.018-53.387-.18-53.062-.551Z" id="path3446-6-3-4" fill="#D40000" transform="rotate(-.832 103.38 133.653)"/><path d="m23.611 1.278-3.786 263.128 163.25 2.394L186.863 3.67 23.612 1.278ZM72.53 4.03l81.967.883-15.525 25.956c.165-1.378-29.373-6.041-53.638-1.235L72.529 4.03ZM25.88 3.958l44.573.654 14.639 27.381s.858 1.71.305 3.478c-.603 1.929-1.11 2.781-1.642 3.763.06-.564-4.315-1.187-4.003 2.605.212 2.567 3.405 4.064 5.827 2.105.383-.027.375.331.283.956-.242 1.465-1.855 6.104-2.919 6.397-5.331-4.544-7.374 3.582-3.76 5.262 2.093.972 5.343.241 6.894-2.292 1.186-1.938 1.053-1.617 1.384.761.123.884.3 1.91.392 2.37.288 1.443-.024 1.718-2.431 2.335-1.94.73-3.903 1.12-5.899 1.526-3.645.548-5.544 3.29-5.683 6.658-.03.728-.01 1.066-.167 1.28-15.47 5.668-31.775 13.679-49.127 27.51L25.88 3.958Zm101.39 66.094c-.57-.96-2.361-5.982-2.842-8.074-1.19-10.123-1.271-22.12-2.563-31.546l1.877.24s.667 2.734 1.322 10.102c.324 3.652.609 11.24.873 14.73.4 5.185 2.6 13.5 4.005 15.612 2.293 3.443 7.033 1.307 5.517-2.764-.787-2.112-3.955-1.818-3.548.367.002.39.304-.273.773-.676 1.375-.503 2.893.956 2.065 2.673-1.028 2.194-3.963 1.143-4.902-1.654-1.12-3.342 2.853-5.776 5.77-3.705 3.248 2.306 3.173 8.032.504 9.8-4.471 1.572-7.448-1.743-8.852-5.105Zm10.934 4.372c-.178-.109.013-.454.245-1.277.866-3.078.383-5.497-1.565-7.798-1.085-1.283-1.497-1.511-.916-1.732 1.232-.469 3.91 1.555 4.626 3.516.707 1.926.862 3.91-.203 6.06-.725.453-1.857 1.369-2.187 1.231Zm3.381-2.008c.003-.362.26-1.498.323-2.055.246-2.153-.722-4.357-2.464-6.094-1.463-1.458-1.597-1.608-.193-1.611 3.621-.009 5.845 5.933 4.132 8.819-.436.455-1.762 1.38-1.798.94Zm3.094-1.955c1.139-5.02-3.639-8.448-3.738-8.292.257-1.125 2.164-.448 2.81 0 2.416 1.69 3.757 6.031 2.224 8.466-.167.299-.37.47-.635.628-.508.311-.809.564-.908.339-.075-.171.215-.9.247-1.14ZM102.456 53.5c.512-.493.663-.505 1.627-.121 3.02 1.201 5.476-.962 4.793-3.284-.248-.84-1.372-1.765-2.071-1.849-1.143-.136-1.175.473.052.956 1.507.594 1.637 2.219.292 2.931-1.582 1.045-4.109-1.703-5.994-1.502-.904.259-1.492 1.1-.992 2.144.39.734 1.738 1.194 2.293.725Zm-3.363-.38c-1.046-.51-1.447-.506-1.23-1.663.144-.761 1.297-5.883 1.838-7.86 1.62-5.925.226-9.242-4.103-10.635-2.934-.944-5.477-.525-8.503 1.043l-.516-1.69c12.634-3.138 34.103-2.086 34.024-1.959.4 1.717.537 3.429.678 5.141 0 0-3.996-2.052-6.086-2.746-3.22-1.048-8.347-.025-9.28 1.835-.53 1.055-.272 1.768 1.918.618 3.585-1.88 10.827-.301 13.358 1.786.583.48.551.584.555 1.137.005.845.053.895-1.102.25-6.06-3.24-11.28-2.951-13.14 1.158-.413-.132-1.991-.43-1.991-.43l1.663 2.561.285 2.66s2.754 1.596 4.276 2.277c1.497.666.64-.032-1.191-1.359-1.344-.973-.26-1.263.63-.885 1.837.454 4.523 1.035 7.67-.917.977-.607 3.186-.036 3.217.246 0 0 .261 2.326.485 7.175.105 2.294.342 5.292.483 6.523.426 3.72.56 3.934-1.35 2.125-.64-.607-1.708-1.614-1.721-1.555-.262 1.148 2.564 3.212 3.22 3.916.993 1.068 1.764 3.777 1.358 3.93-.258.098-2.937-2.264-5.042-4.384-.79-.794-1.965-1.86-2-1.825-.446.29 1.318 2.36 2.975 3.911 1.935 1.811 2.159 1.974 1.496 2.233-1.223.478-2.31-.155-5.227-2.663-.284-.244-1.39-1.06-1.444-1.004-.275.359 2.412 3.002 3.028 3.235 1.143.433 1.458 1.558.545 1.985-.61.284-2.846-.996-4.63-2.603-.32-.288-1.213-.783-1.273-.72-.362.228 1.634 2.021 3.545 3.221 1.87 1.175 2.169 1.463 1.674 2.41-.462.975-4.572-1.36-6.611-3.733-.434-.505-.78-.724-.694-.555.866 2.538 3.81 4.39 6.01 5.144.392.136.961.305 1.216.515.622.514.475 1.037-.211 1.323-2.366.632-6.04-2.302-8.654-5.359-.306-.133-.128.265-.05.397 2.166 3.603 6.372 6.382 8.936 5.913 1.5-.275 2.693.197 2.698.703.003.415-.83 1.064-2.44 1.156-3.64.208-9.263-3.89-12.513-9.053-.102-.161-.223-.222-.233-.125-.106 1.083 1.922 3.771 3.486 5.315 4.644 4.588 9.074 6.18 12.583 3.685 1.98-1.503 3.92-4.823 1.02-5.985-1.536-.615-2.544 1.517-1.214.924 1.739-.186 2.12.75 1.88 1.62-.463 1.493-1.939 1.71-3.127 1.061-2.067-1.17-1.568-5.066 1.139-5.709 2.439-.557 4.53 1.554 4.78 3.531.389 3.07-3.084 6.337-5.843 7.122-9.41 2.676-16.538-10.572-16.576-10.87-.457-.92-1.015-1.41-1.387-.352-.406 1.536-2.586 6.024-3.716 5.98.375-1.589 1.896-4.247 1.57-6.6-.653 1.919-2.031 6.013-4.585 8.167-.662.591-2.591 1.271-1.249-.256 1.627-2.239 3.758-5.302 3.368-8.213-.432.646-.687 2.296-1.186 3.38-1.25 2.714-3.943 5.917-5.697 6.417-1.296.369-1.17-.07.172-1.454 1.437-1.484 4.008-5.866 3.87-7.773-.06-.843-2.706 7.238-7.492 9.391-1.29.455-2.011-.152-2.011-.152 1.884-1.059 7.12-6.119 6.717-11.961 0 0-.288.86-.713 2.15-1.83 5.543-5.643 9.15-8.578 9.41-2.343.208-3.963-.769-3.377-1.181 3.033.067 5.541-.955 7.532-3.91 2.023-3.004 2.83-7.867 1.706-13.043-1.015-4.667-1.193-8.853-1.506-13.33 3.307 1.194 6.64 2.005 9.894.777-.343 1.327-.886 1.485-1.754 2.478-.63.726-.421.904 2.021-.784.711-.49.97-.889 1.096-.753.203.221-.138 1.588-.88 4.312-1.11 4.073-.842 4.37 3.028 5.968.722.298.989.583 1.239.893.117.145.739 1.315.799 1.357.14.098.121-1.182.047-1.506-.196-.862-.647-1.514-1.045-1.774-.754-.721-1.855-.8-2.557-1.137Zm72.705 54.409.1-4.245 4.044 2.986-.07 1.4-4.074-.141Zm-6.997.82.98-78.527s3.167-2.058 4.75-3.076c.934 3.127.831 9.803.421 12.77-.642 1.927-1.04 10.54-.406 14.934.504 3.503.32 9.282-.244 12.04-.22 1.078-.135 6.146.182 10.839.242 3.586.11 6.84-.344 8.698-.36 1.464-.318 6.728.038 8.753.524 2.978.484 12.52.222 13.035-.684.76-5.956.791-5.599.534Zm7.396-82.085s3.128 2.152 4.636 3.227l-.027 3.384-4.522-3.075-.087-3.536Zm-47.228 4.775 1.951.151c.72 4.1.99 8.754 1.233 13.418-.004 7.187.765 14.779 2.366 19.77l-1.459 1.5c-2.363-5.729-2.426-14.71-2.885-20.796-.14-6.838-1.151-13.998-1.206-14.043Zm47.539-.02 4.206 2.965-.009 3.68-4.238-2.929.04-3.716Zm-44.724.332 1.713.213c.452 4.862 1.204 8.168 1.432 13.521.294 6.923 1.4 12.62 2.061 18.034l-1.29.412c-.867.387-2.2-6.019-2.65-18.97-.135-3.92-.729-8.336-1.266-13.21Zm2.592.22 2.044.4c.729 12.303 1.995 23.865 3.399 30.5l-1.784.093c-2.073-9.484-2.06-20.422-3.659-30.993Zm2.954.48 1.878.356c1.86 28.137 3.263 27.795 3.684 28.906l-2.05.805c-2.087-8.108-2.368-19.5-3.512-30.068Zm8.151 27.729c-.335.941-1.098.842-1.932.927-.896-2.596-1.396-5.683-1.744-8.703-.764-6.634-.985-12.846-1.786-19.394l2.243.265c-.074.05 1.262 23.068 3.22 26.905Zm-47.97-25.411c2.958.188 5.395 1.565 5.603 3.531.047.443-.297.223-.693-.093-2.518-2.007-5.407-2.663-8.924-1.444-.766.266-1.396.693-1.736.628-.303-.202-.391-.682-.152-1.074.836-1.364 4.438-1.64 5.902-1.548Zm-6.922 3.841c.019 3.096-.752 4.792-2.371 5.484-1.955.834-4.418-1.05-3.178-3.101.937-1.55 2.503-1.056 2.779.591l2.547-5.51s.228 1.76.223 2.536Zm90.133.825-.073 3.19-4.508-3.139.347-3.062 4.234 3.01Zm-80.767-1.6c2.23.93 3.038 2.037 3.114 2.525-.134.361-.355.11-1.98-.806-2.5-1.598-5.784-1.901-8.702.039-.722.133-.79-.28-.057-1.053 2.226-1.708 5.267-1.688 7.625-.705ZM113 37.087c1.975-.034 4.327.507 6.305 1.546.875.459 1.662.749 2.229 1.27.456.248.477 1.301.14 1.376-.302.038-.79-.206-1.517-.734-4.69-3.173-8.103-2.841-10.869-.97-.153.102-.625.204-.811.187-.521-.047-.545-.263-.323-.545 1.288-1.427 3.192-2.097 4.846-2.13Zm59.14 3.102 4.516 3.285-.048 3.165-4.802-3.476.333-2.974Zm-82.385.078.666.03c1.498 3.82 3.474 1.891 4.305.382l.81.145c-1.343 5.07-6.474 2.332-5.781-.557Zm-1.142.49c.753.103.714.963.941 1.594.508 1.408-1.476.194-1.814-.153-.572-.625.264-1.386.873-1.44Zm22.587.183c1.924 3.05 3.084 1.278 4.224-.021l.532.18c-.171 2.167-3.822 4.426-5.474-.116l.718-.043Zm6.045.43c.21.007.631.165 1.017.33 1.07.454 1.008.775-.19 1.293-1.919.827-2.583.928-1.995-.272.336-.548.564-1.277 1.168-1.35Zm-7.482.351c.475.363.784.761.83 1.402.033.452-1.447-.09-1.434-.808.053-.457.304-.824.604-.594Zm-13.186-.02c.972.379.848.847.161 1.264-1.233.67-1.754.527-.948-.544.372-.493.454-.715.787-.72Zm75.196 2.694 4.891 3.578-.09 3.219-4.889-3.47c-.21-1.382.02-2.306.088-3.327Zm-85.47 3.73c.234.01.315.793.354 1.937.064 1.901-1.891 4.52-3.841 5.403-2.35 1.063-4.826-.513-4.375-2.788.416-2.097 3.377-2.14 3.46-.196-.294.506.103.94.269.898.764-.195 2.582-1.799 3.339-3.612.294-.707.478-1.435.684-1.598a.168.168 0 0 1 .11-.044Zm85.274.657 4.886 3.709-.024 3.198-4.848-3.471c-.173-1.429-.075-2.444-.014-3.436Zm-59.99 4.186c-.383.628-.093 1.766.686.812 2.001-2.283 4.809.651 3.258 2.467-1.408 1.648-3.102 1.086-6.678-.353-2.605-1.047-3.022-.71-3.679.01-.54.592-.287 1.805.402 1.801 2.116.517 3.947 1.018 6.138 1.511 4.63 1.03 7.55-4.966 3.339-7.247-1.007-.546-3.118.113-3.466 1Zm-20.506.395c-1.835 1.612-.412 5.941 2.249 6.365.557.089 1.39.078 2.341-.184 1.874-.516 3.945-1.6 4.038-2.247.425-2.943-3.961-.363-4.542-.022-1.383.82-2.833.69-3.55-.318-1.614-2.274 1.375-4.81 3.129-2.033.442.7.3-.478-.182-1.285-.68-1.138-2.481-1.092-3.483-.276Zm80.753.255 4.594 3.379-.07 3.079-4.454-3.34-.07-3.118Zm.283 4.513 4.35 3.256.029 3.202-4.57-3.133c.108-1.15.145-2.233.19-3.325Zm-24.67 1.478c3.863.12 5.961 5.916 3.888 8.284-.616.704-1.103.888-1.373.618-.059-.058.048-.701.098-1.429.159-2.321-.308-3.919-1.966-5.708-1.244-1.342-1.716-1.759-.647-1.765Zm-47.602.22c-.733.252-1.513.773-2.11.633-.588-.138-.875.153-1.113.617-.91 1.775-.645 2.357 1.123 1.368.84-.47 1.128-.293 3.349.164 1.587.326 2.67.312 4.076-.034 1.747-.43 2.785-.45 3.66.048.873.5 1.466 1.178 1.496.633-.088-.64-.617-2.28-.736-2.825-.058-.262-.494-.038-.904-.014-1.445.084-3.147-1.251-4.272-.575-.9.541-1.02.685-2.234-.058-.904-.553-1.54-.229-2.335.044Zm46.544 1.084c2.585 2.244 3.227 4.21 2.95 5.813-.146 1.166-.251 2.455-1.395 3.141-.21.098-.524.156-.813.194.927-3.305-.067-6.29-3.721-9.515 1.084-.522 2.18-.326 2.979.367Zm-59.024-.87c.116 0 .244.022.373.067.452.157.506 1.358.143 1.728-.362.37-.647.057-1.047-.903-.3-.523.027-.899.53-.893Zm-2.43.897c.955-.006 1.305.883 1.459 1.589.13.601-.071 2.389-.57 1.757-.116-.38-.617-1.612-1.028-1.936-.915-.721-.813-1.404.139-1.41Zm-2.703.85c.14-.002.319.018.536.058 1.488.274 2.595 2.687 2.229 4.041-.81 1.451-1.089.46-1.33-.869-.196-.552-.794-1.423-1.162-1.873-.764-.935-.878-1.349-.273-1.357Zm89.696.618 4.495 3.352-.044 3.517-4.707-3.294c.124-1.23.195-2.407.256-3.575Zm-92.657.068c2.225-.006 4.086 2.674 3.348 5.18-.907 2.612-5.229 1.989-4.472-.617.217-.75 1.021-1.29 1.774-.807 1.088.697.984-.412.292-.816-1.067-.622-2.551-.277-2.899.947-1.21 4.264 4.221 5.803 7.252 1.424 1.108-1.6 2.313-3.313 2.976-4.041.595-.655.719-.583.612.27-.435 3.972-3.255 8.904-8.405 8.556-5.002-.554-6.49-5.94-2.66-9.232.715-.529 1.41-.862 2.182-.864Zm26.538.606c-1.846.869-3.512 1.183-5.305.364-1.325-.606-1.313.031-.741.562 1.655 1.464 4.711.857 6.028.066.428-.257.578-1.017.018-.992Zm70.56 7.394-.032 3.198-5.02-3.502c-.07-.767.032-1.929.216-3.127l4.836 3.43Zm-4.903.996 4.782 3.28.082 3.172-4.65-3.005-.214-3.447Zm.273 4.451 4.565 3.287.017 3.461-4.525-3.1-.057-3.648Zm-112.521 1.99-2.947 8.565 1.846.14 1.215 2.289 1.316-2.308 1.947-.12-3.377-8.567Zm112.644 2.8 4.4 3.147.022 3.197-4.572-3.29.15-3.055Zm-.237 3.91 4.51 3.388.041 3.396-5.114-3.548.563-3.237Zm-101.984.426-2.927 9.174 1.578-.193 1.44 2.487 1.521-2.193 1.412.102-3.024-9.377Zm-21.048.376-2.794 9.122 1.785.019 1.473 2.332 1.354-2.211 2.023-.025-3.84-9.237Zm122.377 3.481 5.294 3.865-.008 3.606-5.134-3.58-.152-3.89Zm5.164 8.64.014 3.158-4.454-3.298-.437-3.513 4.877 3.653Zm-95.476-.856-3.401 9.261 2.19.054 1.297 2.254 1.096-2.23 1.76.043-2.942-9.382Zm91.31 2.267 4.133 2.95-.078 3.24-4.07-2.839.015-3.35Zm-79.663 36.51-2.346-2.343c-.026-.189 1.962-1.125 3.169-.493 1.593.834 2.376 3.763.557 5.272-1.448 1.2-3.617.152-3.658.008l2.278-2.445Zm-2.062-3.837c.093-3.563-1.754-4.505-3.281-5.25 0 0 .068-22.589.111-23.263 0 .099-.36-2.452-.402-2.602 0 .001-.368-.105-.367-.101.031 2.29-.158 25.76-.196 25.912-2.884.293-3.716 2.248-4.014 4.884-2.243-.202-3.724 1.14-3.772 1.366-.812-1.162-.17-2.846-.808-4.055-2.09 6.994 1.719 11.252 5.102 10.91.445 6.751 7.785 8.078 7.652-.105 8.91-.396 6.012-8.7-.025-7.696Zm-41.415-28.967-3.354 9.073 2.263-.227.799 1.695c3.664-3.165 5.42 1.83 3.64-2.458l-3.348-8.083ZM171.1 120.687c.416-.025.958.36 1.06.878.057 1.541-1.99 1.165-2.04.192-.036-.691.589-1.047.98-1.07Zm1.195 10.032c.895-.719 2.296-.285 2.303.819.006.978-1.11 1.284-1.97.722-.669-.424-.7-1.198-.333-1.54Zm.086 2.716c4.841.443 8.494-2.826 6.984-5.234 1.326-1.632.277-2.596.647-3.538 1.044-1.05.217-3.351-.041-3.364-.167-3.075-1.045-3.481-2.338-5.138-.388-.48.936-.924 1.453-1.732-1.554.39-2.372-.41-3.197-1.474-8.98.29-17.048.804-16.92 13.09-1.366 5.195.755 9.87 7.039 8.527 1.389-1.216.511-3.021.356-3.885-.501-2.377.138-3.907.327-5.015.582-3.425 3.12-6.575 3.314-1.19.447-.669.242-.772.967-1.041 1.73-.601 1.702 1.153 1.34 1.856-.233.36-.573.325-.923.279-.5-.068-1.15-.265-1.158-.45-.143.557.887 1.611.77 2.134-.146.495-.233.454.228.13 2.182-1.526 3.483 1.976.365 1.532 1.527.852-.785 3.246.787 4.513Zm-2.925-18.791c1.703-.063 2.11-.072 2.019.828.298 1.668.7 2.445 2.852 2.303 2.169-.253 2.858-.38.66.91-1.108.472-1.467.562-2.77.425-1.313-.139-1.21-.271-1.968.17-.423.248-.886.55-1.228.606-.507.085-1.4.269-1.4.269-.544 2.575-1.333 3.865-2.41 5.076-1.526 1.699-2.29 1.989-.45 1.887.68.052.333-.297.59 2.492.09.977.254 2.11.392 2.492.46 1.275.515 1.907-1.305 1.97-4.543.28-5.538-4.192-4.901-6.461.058-.358.281-1.54.34-2.48.032-.515-.065-.951-.045-1.477.165-4.246 1.179-5.35 4.954-8.057 1.139-.816 3.164-.957 4.67-.953Zm3.982.287c2.096-.013 4.105 1.033 3.086 1.677-.659.416-3.013.205-3.66-.275-.836-.618-.508-1.395.574-1.402Zm-93.465 2.237-.851 1.473c.347 3.244.367 4.943-.833 8.305l1.682 2.292 1.39-2.33 2.132.068-3.52-9.808Zm97.956.747c1.353.294 1.388 1.545 1.032 2.309-.782 1.68-5.87 2.425-5.87 2.425-.03-.727.08-1.425-.436-2.25 0 0 3.393-.844 4.118-1.491.483-.432.78-.984 1.156-.993Zm.948 3.864c.492.014.749.377.871 1.11.058.393-.094.726-.416 1.15-1.31 1.394-4.945 2.319-6.248 1.94-.09-.123.154-1.608.258-2.269 1.741.079 4.696-1.438 5.535-1.931Zm-51.752 7.944c-1.694-2.544-5.538-2.231-5.129-2.049.058-2.157-.265-5.126-3.505-5.49-3.269-.297-5.013 4.035-3.798 5.898-2.008-.876-5.067 1.201-5.07 1.4-.258.005-2.662 6.145 4.338 6.565.596 2.924 1.668 4.35 3.89 5.582l-.288 23.79.775 1.092.43-24.93c3.586-.107 4.088-4.24 3.835-5.2 1.592.094 3.042-.208 4.274-1.128l.36 4.07s.862-1.421.688-2.184c-1.224-23.387 7.513-48.538 18.742-64.76.597-.68.788-1.498 1.08-1.5 2.701-1.418 4.409-2.374 4.409-2.374 4.39 2.209 12.209 7.5 12.209 7.5l-.351 33.294c-.118-.33 14.733-1.454 14.504-1.053 0 0-1.292-.532-1.299-1.408l.735-77.913-6.427-4.372s-5.386 3.44-6.895 4.62l-.497 45.87-11.395-6.964s.207-1.62.232-2.146c-.094-6.262-3.109-8.406-8.931-6.635-.78.238-1.324.448-1.7.122-2.336-7.236-3.162-26.175-3.158-26.174l16.759-27.729 27.75.253-1.058 106.867.198 56.026-14.312 10.203.31-35.884s-2.016-1.008-2.546-1.082c-.2-.019-.464.428-.106.666.515.342 1.79.83 1.79.83l-.212 35.567s-5.56 3.66-8.044 5.181c-4.64 2.476-9.203 4.83-13.985 6.888-4.713 1.962-15.098 6.144-15.098 6.144-.854-2.999-9.607-10.106-19.634-5.32-.916.327-2.049.607-2.817 1.13-3.804.643-5.113 4.718-5.744 8.69-.022.156.299.126.31.141.04.058.958-3.806 1.311-4.534.753-1.556 1.688-2.48 2.178-2.621.223-.035.412.317.102.864-.615 1.088-1.137 3.413-1.298 4.462-.144.968-.18 1.747-.002 1.783.031.03.923-2.924 1.32-3.967 1.037-2.716 1.682-3.839 2.65-4.407.993-.583 1.226-.496 1.023.136-1.507 2.862-2.142 5.034-2.473 8.1-.053.612.253.634.51-.376.85-3.213 2.013-7.557 4.634-8.82 1.118-.491 1.611-.46 1.487-.1-3.156 3.905-3.994 8.28-3.977 9.697.005.473.196.382.608-.635 1.106-3.878 2.709-7.167 4.579-8.764.723-.618 1.59-.779 2.317-.86 2.192-.241 2.255.579.334 1.67-2.188 1.243-4.764 5.846-5.093 9.325-.113 1.204.307 1.341.63-.262 1.385-6.904 7.332-11.395 12.016-9.206 2.107.985 2.472 2.316.635 1.7-3.72-1.249-7.909 1.363-9.673 5.068-1.595 3.35-1.588 5.12-.566 9.652.682 4.182 2.051 9.533 1.515 13.61-.525.787-2.132-.357-4.045-.623-1.152-.236-2.564-.312-3.778.137-1.058.39-1.656.484-1.842-.09-.06-.186.827-1.072 1.223-1.563.634-.786.28-.918-.61-.068-.436.416-1.374 1.391-1.627 1.44-.556.104-.57-.527-.1-2.125 1.66-6.208 1.241-6.32-1.432-7.621-2.653-1.065-1.802-1.57-2.968-2.606-.842.644 1.034 3.683 3.197 4.373 1.769.565 1.539 1.479.725 3.934-.838 3.44-2.25 7.99-1.516 11.067 1.544 6.465 8.026 6.429 13.026 3.898l.582 1.65c-4.22 1.654-26.358 2.795-33.798 1.821-.547-2.04-.597-2.565-.796-4.96 0 0 4.574 2.165 6.867 2.562 2.863.497 7.282.583 8.452-2.067.357-.777.011-1.443-.986-1.005-1.832.806-4.951 1.377-7.462 1.183-2.108-.162-5.103-1.061-6.391-1.87-.613-.385-1.124-1.127-.626-2.042.43-.09.987.397 1.318.575 3.779 1.994 5.861 2.401 8.355 1.694 1.89-.537 4.458-2.55 3.84-3.14-.64.213-2.776 1.97-4.236 2.34-3.007.759-6.182-.518-9.264-2.597-.948-.855-.5-1.461.666-.772 4.626 2.436 6.546 4.035 11.053.777 1.007-.73 1.561-.627 2.14-.167 2.285 2.127 2.295.952.63-1.247-.378-.5-.718-1.197-.938-1.936-.162-.547-.193-1.093-.497-1.456-.517-.617-1.46-.927-2.535-1.424-1.553-.717-2.077-.39-.932.194 2.006 1.024 2.974 2.104.473 1.492-2.262-1.06-6.072-.541-8.245.934-1.7.806-2.457 1.685-2.829-.2-.778-3.937.112-9.249-.909-16.112-.194-1.309-.443-2.14-.17-2.315.35-.224 1.205.633 2.258 2.172.48.702 1.434 2.052 1.433 1.774.058-1.45-2.138-4.204-3.967-5.303-1.004-.604-1.653-3.336-.503-2.72.889.453 5.485 4.652 6.35 6.138.402.69.757.258.332-.552-.254-.487-1.329-1.92-2.376-2.984-1.86-1.886-2.08-1.802-1.712-2.178.727-.743 2.247.25 4.946 2.788.688.904 1.604 1.724 1.496 1.279.29-.692-2.405-3.702-4.017-4.522-.3-.196-.34-.4-.306-.768.175-1.4 3.288.706 5.86 3.15.965.914.18-.792-.935-1.96-.877-.919-2.294-2.066-3.26-2.466-.96-.416-1.008-1.267-.246-1.612 2.616-.074 5.276 2.662 6.854 4.805.435.59.836 1.044.39-.065-1.442-3.34-4.514-5.256-6.655-5.666-1.74-.334-1.678-1.922-.042-1.718 1.8.224 4.728 1.91 7.194 4.488.717.75 1.918 2.446 1.68 1.458-.002-.269-.755-1.33-1.628-2.356-2.017-2.082-4.371-3.93-6.887-4.508-1.174-.354-4.685.276-4.697-.337-.003-.453.376-.718 1.496-1.076 4.349-1.39 10.63 2.455 14.011 8.275.242.416.709.599.739.506-1.604-4.739-6.74-9.088-10.864-9.881-2.805-.497-5.65.186-7.025 2.078-1.548 2.13-.996 5.017 1.285 4.82 1.196-.094 1.111-.78 1.09-.802-.08-.083-.78.237-1.208.145-1.553-.331-1.35-3.171.926-2.858 2.617.361 2.927 4.54-.015 5.374-2.715.77-3.688-.49-4.407-1.98-1.052-2.182.161-5.656 2.09-6.967 5.4-3.668 12.117-.429 15.884 3.343a17.132 17.132 0 0 1 4.047 6.441c.215.551.693.502.482-.065-5.18-13.94-21.218-15.793-23.722-5.065-3.8-6.209-7.197-6.688-12.444-4.08-5.346 2.141-7.987 3.91-12.935 6.165l-11.056-6.202c-.496-11.184.04-22.387.245-33.575.036-.26-2.417.142-6.501.727-10.866 2.024-9.852-3.823-11.263-4.139-.755-.164-.704.164-.613-20.464.026-5.991.06-16.525.071-23.408.012-6.884.072-12.618.134-12.738.063-.12.679-.639 1.387-1.13 2.668-1.85 4.167-2.97 10.008-7.334 1.323-.989 1.655-1.154 1.655-1.154.485 12.401-.297 25.406-.124 36.064l.488.01.325-35.775c-.993-.278 22.986-13.973 36.081-18.338.246-.082.851.201.851.201 7.345 9.36 27.063 6.848 28.811-4.39 3.162 6.912 17.293 20.463 24.069 4.479 0 0 2.305 4.654 4.336 4.988 4.565.68 5.082-.041 15.22-4.822-11.764 17.458-18.379 36.027-19.517 58.616Zm-6.055-4.484c.241.782.312 1.79.084 2.58-.303.617-.74.602-.74.602l-2.202-1.956-2.21 2.01s-1.315-1.377-.555-3.247c1.432-2.608 4.62-2.086 5.623.011Zm57.603.534c1.429-.07.667 1.577-1.46 2.668-1.335.685-2.437.868-2.909.607a2.413 2.413 0 0 1 .149-1.802c.907-.453 3.394-1.236 4.22-1.473Zm-92.175 1.771c1.585-.015 2.942 1.144 2.964 3.163.009.822-.421 1.631-.421 1.631l-2.62-2.008-2.053 2.147c-.347.117-1.563-1.461-.687-3.146.637-1.224 1.732-1.776 2.817-1.787Zm38.267 1.488c2.213 1.052 2.554 4.2.37 5.38-1.037.56-2.662.857-3.403-.319l2.223-2.376-2.482-2.171c-.097-.1 1.942-1.156 3.292-.514Zm53.47-.042c.384.005.48.154.585.518.298 1.03-.511 2.052-1.887 2.359-1.271.283-1.153.434-1.736-.717-.458-.902-.584-.866.156-1.139.894-.278 1.85-.604 2.883-1.021Zm-63.365.613s-1.604 1.597-2.305 2.265l2.343 2.54c.11.305-2.766 1.569-4.242-.423-.957-1.293-.373-3.717 1.025-4.531 1.428-.832 3.446-.094 3.18.149Zm3.41-.233c1.405 0 2.54 1.146 2.54 2.564 0 1.417-1.135 2.568-2.54 2.568-1.403 0-2.544-1.151-2.544-2.568a2.555 2.555 0 0 1 2.545-2.564Zm-34.81 3.808-2.316 2.376 2.427 2.745s-1.955.293-2.646.152c-3.348-.684-2.963-4.652-.351-5.665 1.101-.372 1.914-.23 2.885.392Zm-44.77.162s.375 5.11.76 6.86c-.299 1.985-1.593 3.32-2.196 5.355-.318.904-1.485 2.109-1.688.825-.807-1.593.014-3.537-.656-4.674-.509-1.07-.219-1.661-.435-2.766-.632-.92-.932-1.337-.813-2.144-.084-3.61-.987-2.908-2.579-2.636-6.163.445-6.211 4.023-5.898 8.57-.935 4.246.69 3.262.627 4.027-.1 1.214.07 2.917.43 3.11 2.16 2.572 2.242 4.334 5.105 3.94 4.827.452 12.518-.16 14.263-6.084 1.156-8.371 1.59-16.333-6.92-14.383Zm48.061-.117a2.465 2.465 0 0 1 2.454 2.477 2.465 2.465 0 0 1-2.454 2.477 2.465 2.465 0 0 1-2.454-2.477 2.465 2.465 0 0 1 2.454-2.477Zm-45.952.628c.914.002 1.988.211 2.86 1.081 1.871 1.863 1.93 3.529.986 10.58-.266 1.986-.984 3.639-1.913 4.35-1.868 1.428-4.143 2.433-6.013 2.868-.987.23-1.842.223-2.507.208-.718-.017-1.132-.358-1.177-.966.182-1.642-1.48-1.827-2.444-1.748-1.719.044-1.897.223-.813-.599 1.236-.938 4.055-.91 4.582-.343 1.115-1.094 2.264-1.207 3.67-1.352-.204-.31-.69-1.55-.345-2.337.745-1.278 2-3.535 3.296-4.37 1.293-1.656.204-.915-.584-.897-.45.01-.41-.14-.478-.445-.295-1.31-.71-3.756-.694-5.21.009-.7.66-.823 1.574-.82Zm-8.113 1.69c.49.452.475 1.073-.053 1.528-.604.52-1.783.21-1.798-.785.093-1.003 1.258-1.27 1.851-.744Zm85.595 4.791c-2.061.073-3.725-2.175-2.917-4.38.434-.594.616-.505.616-.505l2.315 2.148 2.283-2.342c1.82 2.284.192 4.947-2.297 5.079Zm-88.105-4.735c-.178.646.034 1.296.058 1.611-.413.288-2.159.775-3.098 1.225-.65.215-1.111-.406-1.013-.966.26-1.041 1.793-1.701 2.904-2.009.342-.079.905-.102 1.149.139Zm.338 2.995c.628-.067.424 1.309.179 2.01-.241.5-.932.47-1.553.497-1.098.048-2.498 1.305-3.089 1.09-.195-.094-.328-.622-.344-.956.155-1.838 3.193-2.468 4.807-2.64Zm3.287 1.965c-.214.305-.889.445-1.45.28-.917-.268-1.04-1.605-.225-2.052 1.435-.456 2.274.91 1.675 1.772Zm91.062-1.704-1.278 1.902-1.899-.063 2.933 9.551 1.473-3.694c.216-1.705.464-3.406.665-5.113l-1.894-2.583Zm-40.416.209 2.4 2.035 2.114-2.119c1.5 3.51-.309 5.08-2.208 5.01-2.095-.078-4.3-2.115-2.306-4.926Zm-53.368 2.823c.771-.136.412 1.958.304 2.017-.494.176-2.616.424-3.519 1.17-1.921 1.474-2.719.546-1.813-1.241.848-1.034 3.924-1.942 5.028-1.946Zm2.415.135c.849-.067 1.428.887.898 1.78-.71.648-1.935.147-1.916-.785.004-.586.489-.972 1.018-.995Zm-1.325 5.307c.11.491-.058.337-.952.589-.492.138-1.267.457-2.076.855-1.185.582-1.52.9-1.937.825-.331-.078-.712-.228-.81-.57-.39-1.361.725-2.728 3.288-3.64.533-.19 1.483-.336 1.809-.367.865.015-.08 1.343.678 2.308Zm1.536-2.018c1.233 0 1.44 1.654.514 1.93-2.167.532-1.949-1.953-.514-1.93Zm-1.607 6.06c.342.34.383.892-.01 1.173-.717.344-3.446.002-3.454-.773-.003-.511.914-.67 1.764-.675.85-.004 1.426.002 1.7.274Zm123.414 2.655-2.297 3.008 2.914 7.682 2.894-9.208-2.182.836-1.33-2.318ZM27.96 160.003c.183 23.53-.68 77.431-.68 77.431l6.566 4.648 7.056-4.962c.173-16.968.274-28.672.433-44.381l10.151 5.823s.308.462.23 2.583c-.791 5.852 4.77 9.74 8.53 7.48 1.446-.589 1.564-.696 1.862-.233.82 1.274 1.686 6.687 1.795 10.135.163 5.194 1.364 15.797 1.69 15.872l-17.064 28.098-26.363-.387 1.52-105.661c1.326 1.624 2.03 2.686 4.274 3.554Zm96.673-.851-1.277 1.907-1.507-.024 2.502 9.884 3.34-9.58-1.761-.246-1.297-1.941Zm-84.522 77.285s-3.275 2.3-4.32 2.96c-.547.198-.811.232-.933-.295-.15-.648.123-1.866.378-3.882.236-1.864.236-1.97-.033-4.635-.282-2.785-.318-2.902-.005-6.567.35-4.088.463-8.061.177-10.526-.272-2.344-.19-7.678.086-10.652.339-3.641.291-6.84-.143-9.493-.776-4.728-.892-6.354.038-9.888.348-1.323.521-2.027.485-4.251-.04-2.473-.075-3.28-.873-8.767-.46-3.158-.492-3.592.053-8.57.11-1.005.152-1.678.536-1.992.45-.366 5.076-.57 5.076-.57l-.522 77.128Zm-11.06-76.33 5.035.02c-.411 1.585-.516 2.795-.572 3.945l-4.43-3.032-.033-.932Zm.044 2.036 4.386 2.982c-.013 1.23-.121 2.403.038 3.636l-4.444-3.071.02-3.547Zm-.058 4.629 4.692 3.338c.166 1.276.533 2.57.665 3.716l-5.32-3.747-.037-3.307Zm153.204 3.534-1.106 94.135-47.165-.692-14.533-29.203s.19-2.664.58-4.02c.47-1.638.595-1.994 1.223-2.063 1.666.902 3.553-.237 4.144-1.513.727-1.57-.666-3.984-2.85-4.534-.962-.246-2.024.177-3.103.982-.627.514-.766.57-.883.114-.264-1.027.677-3.795 2.32-6.159.915-1.315 1.162-1.693 1.445-1.184 1.142 2.06 3.66 1.674 4.63.534 1.173-1.38.978-4.568-1.623-5.45-5.088-1.726-7.51 3.417-7.445 3.405l-1.005-6.223c6.176-1.432 9.736-1.918 11.717-3.772 1.56-1.46 2.33-4.012 2.173-6.294 0 0 17.196-6.758 25.259-10.993 13.882-7.291 26.222-17.07 26.222-17.07Zm-26.04.299-1.297 2.226-1.793-.024 3.492 9.531 2.913-9.855-1.732.13-1.583-2.008Zm-127.01.86 5.375 3.857c.101 1.229.242 2.324.059 3.711l-5.66-3.899.227-3.67Zm105.938.39-1.378 1.792-1.555-.188 2.918 9.43c.968-2.7 1.866-6.37 2.823-9.073l-1.445.048-1.363-2.008Zm-106.102 4.433 5.563 3.838c.005 1.16.044 2.253-.368 3.067l-5.252-3.51.057-3.395Zm116.535 2.25-1.402 2.627-1.813-.275 3.12 9.044 3.678-8.86-2.2.086-1.383-2.622Zm-116.588 2.125 4.819 3.681c.07.053-.296 1.643-.231 2.548l-4.592-2.95.004-3.28Zm.067 4.466 4.497 3.216c-.007 1.194.057 2.318.23 3.336l-4.885-3.302.158-3.25Zm-.143 4.549 5.196 3.85.234 3.035-5.512-3.612.082-3.273Zm43.206 1.897c5.012 1.97 9.597 11.711 9.272 24.23-.226 8.692 2.198 21.138 2.151 20.994 0 0-1.464.176-1.873-.157-1.806-6.41-2.341-13.165-2.56-18.732-.18-4.643-.379-9.199-.655-10.266-.774-3.754-1.608-8.131-3.936-11.01-1.815-2.17-3.914-2.575-5.206-.185-1.059 1.957 1.063 5.252 2.88 4.193.438-.24.704-.654.133-.65-1.873.252-3.09-2.376-1.89-3.603 2.115-2.16 5.689 2.774 3.96 5.435-.762 1.15-2.712 1.327-4.265.876-3.442-1.742-4.251-5.896-3.052-8.608.915-2.068 2.875-3.282 5.04-2.517Zm-6.114 1.154c.41.025.12.783-.276 1.967-.932 2.836.676 7.286 2.98 8.202.687.488.647.668.18.924-1.525.836-4.231-1.776-4.914-4.651-.495-2.08-.33-4.525.672-5.548.548-.56.98-.852 1.272-.889a.468.468 0 0 1 .086-.005Zm-37.207 1.135 5.554 3.78c.244 1.159.112 2.387-.082 3.627l-5.555-4.03.083-3.377Zm33.835.449c.416-.007.25.694.117 1.976-.311 2.968.57 5.143 2.625 6.968.866.77 1.103 1.01.72 1.402-.544.556-2.07-.222-3.258-1.508-2.173-2.354-2.841-6.748-1.099-8.312.383-.343.677-.522.895-.526Zm62.356 1.43c2.398-.059 4.407.909 4.587 3.867.263 4.331-3.765 6.639-6.516 4.114-2.461-2.53.126-6.397 2.995-4.526 1.442.948-.326 3.035-1.487 1.926-.524-.5-.762-.198-.393.376 1.115 1.734 3.38.339 3.24-1.176-.273-2.977-3.893-2.992-5.272-1.848-1.888 1.566-3.565 3.888-4.815 5.58-1.025 1.468-1.24 1.426-1.065-.405.461-4.836 4.987-7.816 8.726-7.908Zm-65.26-.01c.382-.009.223.541.231 1.965.101 3.658 1.595 5.956 3.513 7.258.639.732-.2 1.233-1.415.865-2.77-.905-5.523-6.979-3.128-9.538.336-.36.6-.546.8-.55Zm-2.722 1.158c.386-.019.157.786.171 2.311.03 3.21.992 4.766 3.328 6.76.761.649.858.579.549.928-.823.93-3.547-.444-4.69-2.383-1.359-2.308-1.513-5.761-.2-7.046.368-.36.64-.56.842-.57Zm-2.712 1.507c.32.006.133.583.162 1.97.07 3.362.807 5.036 2.897 6.622 1.314.996 1.64.708 1.23 1.088-.722.667-2.658.057-4.1-1.207-2.16-1.896-2.707-6.5-.907-8.048.321-.276.55-.428.718-.425Zm-25.468.101 5.333 3.849-.198 3.18-5.308-3.74.173-3.289Zm94.118 7.35c-2.187-.486-2.994-2.096-2.7-3.902.097-.604.452-.945.817-.15.304 1.26 1.109 3.012 2.238 3.366.454.143.064.778-.355.685Zm-47.115-4.45c2.383 6.32 2.24 13.188 2.557 19.683.42 8.633 1.849 14.464 2.329 15.45 0 0-2.416-.007-2.533-.362 0 0-2.115-11.472-1.69-17.123.115-6.329-1.025-11.91-1.735-14.422-.757-2.227-.812-.764 1.072-3.226Zm-47.1 1.765 5.134 3.495a46.78 46.78 0 0 0-.12 3.51l-5.028-3.703.014-3.302Zm69.704.729c.001.19.744.361 1.917.093 1.302-.297 2.594-.222 3.587.069 1.056.31 1.178-.034.225-.47-.465-.213-1.201-.693-2.316-.69-1.114.005-3.416.583-3.413.998Zm20.998.175c.123.237.51.77.856 1.188.656.791.844.8.536 1.114-.71.724-2.162-.362-2.3-1.723-.123-.994.377-1.614.908-.579Zm-46.416-.413c2.37 3.518 2.61 11.69 2.576 17.496-.03 5.228 1.584 14.832 1.726 14.793-.503.29-1.172.175-1.798-.079-.61-.828-.96-3.128-1.593-9.35-.163-1.606-.456-6.71-.479-10.817-.02-3.623-1.912-11.491-1.912-11.491s.786-.547 1.48-.552Zm-2.707.832c2.135 5 2.423 9.94 2.436 15.929.012 5.665 1.163 12.317 1.592 15.252-.746.067-1.533.118-1.84-.225-.195-.277-.346-.71-.436-1.266-.933-4.913-1.096-10.242-1.319-14.751-.331-6.988-.417-8.717-1.348-12.212-.528-1.982-.723-1.943-.298-2.317.323-.284.935-.42 1.213-.41Zm24.789 1.506c.027 2.314.336 1.376 1.15 1.019.61-.043 1.103.3 2.23.736 1.434.556 1.3.733 2.322.246.63-.3 1.13-.4 1.425-.15 1.171.989 2.709.464 3.58-.31.677-.345 1.408-.141 1.976-.08.819.088.613-.443.729-1.487.103-.927-.247-1.014-1.203-.715-.979.307-1.946.338-2.787.065-2.152-.697-3.74-.288-4.814-.133-2.536.364-2.668.104-3.236-.27-.424-.28-1.123-.792-1.367-.781-.245.011-.176.85-.005 1.86Zm22.465-.733c.242-.12.348.211.677.657.55.744.708 1.094.238 1.156-1.246.163-1.553.027-1.498-.752.044-.62.183-.862.583-1.061Zm-49.871.366c1.797 1.882 2.11 12.295 2.285 14.538.483 12.15 1.6 13.91 1 14.813-.69-.022-.935.232-1.377-.384-1.497-4.47-1.34-9.038-1.527-13.68-.268-6.15-.824-9.487-1.637-12.544-.54-2.033-.533-2.067.502-2.608.184-.096.59-.143.754-.135Zm-2.479 1.427c.621 1.484 1.816 8.205 1.908 13.993.073 4.597 1.03 13.595 1.231 13.647-.664.051-1.46-.097-1.774-.609-1.863-8.885-1.105-17.46-3.277-26.399.143-.43.88-1.13 1.912-.632Zm-36.472.558 5.319 3.969.067 3.322-5.43-4.01.044-3.281Zm79.903.752c-3.052 1.144-3.852 2.108-3.387 2.973.392.728 1.603.492 4.856-.822 2.43-.982 3.182-.527 3.65 1.016-.056 2.268-2.24 2.5-3.465 2.17-.529-.028-.451.023.102.742 2.473 2.018 5.598-1.811 4.104-4.29-1.165-2.262-3.227-2.931-5.86-1.789Zm-19.064.641c-2.533 1.947-1.69 5.534.387 6.1.575.306 1.442.179 1.784-.043.316-.205.318-.545-.32-.662-1.93-.353-3.009-1.8-2.053-3.24.928-1.396 2.605-1.1 5.817.353 2.777 1.256 4.008.9 4.358-.555.155-.642-.014-1.249-1.354-1.319-3.726-.194-6.166-2.52-8.62-.634ZM123 214.966c-.151-1.03-1.823 0-2.947 1.806-1.106 1.777-1.221 2.032-1.415.167-.287-2.78 2.598-4.91 4.38-4.953 2.148-.218 3.54 1.013 3.574 2.409.069 2.748-3.18 2.728-3.592.571Zm-94.457-3.024 5.636 4.029s.162 2.118.023 3.252l-5.664-3.776.005-3.505Zm68.335 2.327c-2.5 1.659-1.09 4.773.637 5.146 1.82.394 1.967-.89.158-1.296-.965-.4-1.2-1.335-.812-2.05.887-1.416 2.474-.468 3.399-.008 2.051 1.022 3.116 1.4 3.779.724 1.176-1.202.174-3.39-1.368-2.646-.417.2-.73.392-1.606.16-1.33-.302-2.926-.626-4.187-.03Zm-68.354 2.365 5.544 3.95-.22 3.42-5.202-3.97-.122-3.4Zm.047 4.704 5.213 3.866c-.099 1.444-.071 2.02-.027 2.942l-5.276-3.549.09-3.259Zm93.13 2.094c4.218.479 2.747 5.355-.183 3.99-.778-.609-1.015-.564-1.92 1.571-1.157 2.731-1.427 2.504-1.227-.668.157-3.106 1.597-4.894 3.33-4.893Zm-33.288.258c.1.004.18.022.23.063.28.327-.594 1.593-1.331 2.332-.54.347-1.828-.63-1.505-1.092.375-.449 1.925-1.243 2.606-1.303Zm5.6 2.604-.757.099c-1.103-2.58-3.48-2.028-4.245.341l-1.04-.134c1.094-2.903 4.87-4.638 6.042-.306Zm21.257.897-1.279.059c-1.106-2.798-2.723-3.237-4.138-.51l-.985-.303c1.753-3.486 4.604-3.726 6.402.754Zm-6.341-3.265c.654-.03.565.272-.129 1.201-.603.808-.748.934-1.336.48-.964-.745.668-1.639 1.465-1.681Zm6.052.17c.125.01.27.024.435.068 1.312.348 1.907.986 1.25 1.785-.41.497-.805.689-1.065.348-.867-1.492-1.349-2.255-.62-2.2Zm-19.905.584c.13.553-.307.937-.782.473-.193-.19-.359-.51-.331-.744.305-.282 1.022-.034 1.113.271Zm-66.62.915 5.36 4.005a23.78 23.78 0 0 1 .157 3.38l-5.521-3.81.005-3.575Zm78.919 2.346c3.088 2.203 6.746 2.228 9.061.367.518-.416.964-.428.967-.02-.348 1.507-4.353 3.388-7.445 2.243-1.698-.629-3.091-1.248-4.188-2.873-.65-1.058.71-.362 1.605.283Zm-1.335 1.032c4.502 4.037 8.142 2.987 10.918 1.026.407-.096.408.272.489.959.103.88-.626 1.303-2.61 1.87-3.835 1.099-8.297-.23-9.067-2.828-.087-.51-.271-1.172.27-1.027Zm-77.67 1.24 5.436 3.882-.216 2.902-5.296-3.728.077-3.056Zm.024 4.452 5.132 3.621-.051 2.405-4.99-3.699-.09-2.327Zm37.629 1.68c22.038 5.373 37.743 3.205 53.16.695l13.237 27.17-82.104-1.092c5.488-8.687 10.086-18.205 15.707-26.773Z" id="path3444-9-5-7" fill="#131F67" transform="rotate(-.832 103.344 134.039)"/><path d="M69.566 3.6c2.367 4.105 4.233 8.344 6.362 12.543l.342.22.51.972.057.472 1.262 2.039-.008.438 5.357 10.057c4.419-1.665 40.713-4.662 54.151.241l1.958-3.348.468-.003 3.452-6.112-.055-.514 1.161-1.337.169-.608 3.808-6.016.014-.97 4.764-8.015L69.566 3.6Zm82.179 1.155s-2.485 4.82-3.765 6.77c-1.036-.826-4.04-.266-3.86 2.93-4.897-1.872-6.078 4.023-2.292 5.35-1.943 1.712-3.8-.224-5.272-1.537-1.44.36-4.432 1.429-6.126-1.716 0 0 .708.386 1.415.805 4.005 1.23 4.328-4.225 1.349-5.118-.375-.1-1.081-.14-1.081-.14 1-4.194-5.428-5.659-5.55-.618 0 0-.764-.126-1.344-.02-3.408.627-2.627 5.7.857 5.457.48-.034.908.053.908.053-.056.812-4.272 2.364-7.309-.43-1.44 1.107-3.72 2.495-6.692-.265 1.954-.08 3.829-.642 3.807-2.878-.013-1.456-1.31-2.756-3.18-2.825-.107-1.627-1.307-3.179-2.866-3.298-1.903.112-2.876 1.662-2.89 3.298-1.618.169-3.132 1.608-2.784 3.26.475 2.252 2.195 2.529 4.157 2.1-2.387 3.873-6.274 1.853-7.472.618-1.427 1.343-3.915 3.163-6.979.676 1.633-.282 3.45-1.25 3.143-3.55-.242-1.812-2.258-2.35-3.133-2.254-.002-1.198-.899-3.174-3.014-2.97-2.308.223-2.17 3.169-2.143 3.192-1.906-.159-3.29 2.104-2.746 3.549.662 1.758 2.047 2.305 4.592 1.83-2.97 2.813-4.856 1.721-6.477 1.13-1.435 1.517-3.35 2.007-5.314.661 4.393.212 3.694-7.627-1.517-4.785-3.706-4.4-3.639-2.445-6.96-8.918l80.538-.357ZM110.8 12.48c.213-.009.439.036.66.15.688.353.816.969.397 1.878-.147.32-.36.686-.325 1.024 4.838 9.005 15.505 4.98 16.509.797.063-.266-.059-.556-.197-.84-.41-.689-.355-1.252.177-1.724 1.136-1.005 2.764.18 2.105 1.535-.174.357-.357.749-.225 1.227 2.74 6.275 8.192 6.747 12.768 4.263-2.108 3.81-10.279 6.145-13.71-3.027-5.476 7.472-14.167 7.331-18.11-1.106-3.548 8.63-14.25 8.834-18.145 1.666-3.546 8.2-11.769 6.34-14.098 1.207 7.639 5.58 12.672-.245 13.576-2.728 0 0-.177-.29-.42-.531-.978-.968-.951-2.107.061-2.56 1.298-.578 2.513.679 1.847 1.913-.187.345-.352.421-.23.72 2.378 5.591 14.085 7.216 16.456-.629.08-.448.035-.862-.167-1.202-.557-.937.15-1.994 1.071-2.033Zm-34.174 3.168c1.846.106 1.331 1.708.961 1.83l-.961-1.83Zm68.569 1c.012.03-1.139 2.076-1.139 2.076-.61-.983-.451-2.206 1.139-2.077Zm-6.243 10.337s-1.179 2.633-1.569 2.854c-21.872-5.655-52.391-.738-53.142-.193l-1.344-2.555c19.178-3.867 38.3-3.04 56.055-.106Zm-36.949 39.12c-2.112 8.222-7.224 9.058-13.399 10.058-7.648 1.239-12.632-1.574-14.963-5.871 0 0-10.939 4.172-14.93 6.596 8.3 3.837 19.264 12.335 25.497 21.984 2.22 2.942 2.108 2.276 2.105 8.73-.01 13.995.024 19.198.024 19.198 3.424.518 3.611 2.894 3.425 5.564 2.748-1.225 5.393.274 5.38 2.892-.02 4.811-4.705 3.504-5.677 2.974 1.523 4.24-.265 5.997-2.09 6.205-2.25.257-4.832-.835-4.08-5.69-2.453.963-5.56-.785-5.99-3.708l-.12-4.949c6.068-11.523-1.549-20.892-8.701-23.973 0 0 2.023-4.223 4.64-5.408.266-.081-1.587-2.824-4.702-2.226-1.434.03-1.1.02-2.45-1.748-2.666-3.495-3.921-3.734-6.52.005-1.143 1.646-1.417 1.69-2.77 1.719-1.49.03-3.776 1.11-4.266 2.076-.113.22.472.446 1.248 1.361 1.117 1.318 2.84 3.127 2.569 4.969-5.89 2.419-15.66 13.031-5.386 26.62l-7.43.096-.353-48.372-5.167 2.902.23 37.89-1.474-.493c.114-12.086-.067-24.163-.444-36.243l-13.624 10.02.607 56.811 1.45.31c1.075 7.74 16.267 2.326 17.154 2.998l.182 31.569-.665 1.564 12.088 6.668 11.089-5.804s1.496-.271 2.057-.57c4.597-2.445 8.024-1.896 10.524 1.69 1.542 2.213 1.803 2.54 1.803 2.54.935-6.384 6.543-8.737 11.983-7.069 4.001 1.227 9.468 5.252 11.141 10.164 0 0 .301.74.598 1.072l.23.102c-.014-.128-.264-.74-.359-1.038-5.61-13.006-21.422-15-23.86-4.375l-2.24-3.167 11.773-7.287 16.088 10.686s-.757 3.756-.842 5.379l.277.13c.111-1.965.694-4.211 1.617-5.876.38-.687.822-1.245 1.315-1.661.961-.563 1.852-.506 2.828-1.43l-2.35-1.771-.052-5.688 4.722 6.673c1.484-.347 7.266-2.089 10.696-.16.387.121 5.417-1.326 8.548 5.756l15.078-6.32s.962-.547.972-.691c-15.035-5.6-30.216-25.427-28.755-25.746 0 0-.045-2.034.072-7.025.121-5.564.055-11.243.148-16.825-5.117-1.649-3.845-5.811-3.845-5.811-3.075.68-3.566.078-4.345-.469l-.53-5.268c1.844-1.583 2.95-1.731 5.233-1.226 0 0-1.107-2.289-.1-4.172.846-1.49 3.102-2.43 4.902-1.38 2.328 1.6 1.586 4.953 1.254 5.422 2.419-1.094 5.377.125 6.104 2.54.362-7.14.977-15.134 2.396-21.362 2.618-11.24 6.903-23.012 12.27-32.269.878-1.546 2-3.095 2.904-4.543.84-1.29 1.24-2.125 1.24-2.125s-1.149.638-2.364.98c-1.747.479-3.063.934-3.262 1.135-1.279 1.086-2.955 1.89-4.325 2.492-4.829 1.896-8.075-.932-10.08-5.253-1.116 5.487-6.098 10.13-13.445 7.245-4.152-2.224-5.457-3.646-9.339-9.448-.326-.593-1.167-1.274-1.167-1.274Zm.16.897c2.747 5.482 6.86 9.366 10.857 10.92 7.138 2.36 11.846-2.252 13.174-6.489l1.377 2.354-10.807 7.744-16.307-10.463c.273-.252 1.731-3.94 1.706-4.066Zm49.074.378-4.841 2.878s-3.216 5.237-4.296 7.21c-5.648 10.067-9.887 21.02-12.098 31.887-.893 3.979-1.842 11.247-2.157 14.74-.505 5.575-.48 7.864-.335 12.975l.378.415s-.594 1.051-1.02 1.937c-1.156 2.406-1.438 3.767-1.368 6.557.162 6.42 4.028 12.565 9.491 15.07.308.14.718.323.718.323s-.937 2.556-2.636 4.355c-1.134 1.2-1.377 1.26-.976 1.85.558.821 2.357 1.534 4.592 1.501.792-.011.787-.014 2.249 1.594 2.854 3.137 3.712 3.073 6.31-.483.772-1.057 1.21-1.31 2.339-1.338 1.659-.04 4.687-1.391 4.673-2.023-2.042-.913-4.409-5.619-4.032-5.669 11.169-5.965 13.536-18.329 5.378-27.42l7.791-.126.287 49.323c1.526-1.022 4.975-3.22 4.975-3.22l-.114-38.382c.536.103 1.082.49 2.123.661l.306 36.547s10.011-7.122 14.772-10.84l-.291-55.928h-1.139l.182 55.9-13.227 9.748-.086-34.741s1.045-.158 1.435-.213c3.871-.546 5.665-5.529 3.095-8.783-.912-1.155-.265-1.073 1.674-1.448 3.44-.306 5.344-2.93 4.344-4.8-.43-.802.13-.715.493-1.477.238-.6.193-1.343.09-1.932-.134-.772.18-1.114.374-1.608.303-.772.009-1.645-.498-2.37-.534-.766-.387-1.588-.392-2.096-.023-1.136-.43-1.298-1.622-2.395-.901-.83-.178-1.01 1.148-1.7 2.087-1.083 2.23-4.918-.545-6.552-1.483-.873-4.182-.802-10.031.13-2.218.354-4.822.59-4.822.59s-.02-21.867-.173-33.138l-12.518-7.509Zm0 .773s11.876 7.012 11.782 7.209c-3.989 5.514-18.865 27.484-18.972 54.05-10.91-1.382-15.376 7.227-15.906 7.195-1.434-32.519 11.642-55.784 18.34-65.658l4.756-2.796Zm-7.492 4.278-.038.797-2.353 3.549-.063-3.55 2.454-.796Zm-3.635 1.236.086 5.717-4.822 3.718-.282-5.963 5.018-3.472Zm-44.694 1.309 2.478 1.728-.086 5.674-3.731-6.852 1.339-.55Zm67.832 1.912.02 4.104c-9.507 13.535-14.496 28.995-16.02 48.575l-2.316-.078c.612-19.469 7.106-37.233 18.316-52.601Zm-64.388.42 5.865 3.867-.254 6.47-5.324-3.447-.497-1.323.21-5.567Zm35.505.275-.024 6.016-4.53 3.395-.21-5.973 4.764-3.438Zm-54.907 1.574c.672.008 1.208.502 1.334 1.439.498 3.999 3.512 2.844 4.23 4.046.27.41-.373.767-2.436.599-3.783-.286-6.54-3.374-4.606-5.408.497-.46 1.018-.682 1.478-.676Zm26.142 2.579 5.009 3.22-.014 6.644-4.908-3.023-.087-6.841Zm22.852.019.388 5.876-5.483 3.68-.196-5.838 5.291-3.718Zm10.433.024-3.147 6.765-18.365 13.336-15.24-9.961-2.828-6.528L117.087 97.1l21.8-15.321Zm-49.525 2.685c4.88-.06 8.625 5.167 9.907 9.748.932 3.03 1.073 4.12 1.172 8.928.1 4.899.253 5.745 1.162 6.437.56.426.724.31.794-.556.158-1.924 2.438-.738 2.478 1.29.045 2.252-2.412 2.976-4.228 1.245-.968-.921-.98-.912-1.282.898-.202 1.213-1.602 8.806 1.975 10.696.674.064.835-.481.335-1.116-1.004-1.273 1.001-2.742 2.636-1.931 1.975.98 1.775 4.193-.335 5.335-2.414 1.307-5.535-.178-6.994-3.327-1.07-2.31-1.065-5.515.02-10.275.5-2.193.72-3.59.832-5.272.037-.553.102-1.154.143-1.338.117-.513-.134-.537-1-.096-2.362 1.201-4.938.347-5.573-1.85-.758-2.627 2.142-5.34 3.933-3.68.68.631.597 1.258-.216 1.662-1.408.7-.927 2.542.57 2.178 4.933-1.49.423-15.464-5.133-16.432-3.673-.64-6.557 3.584-3.899 5.843 1.041.885 2.098.41 1.87-.84-.317-1.744 1.979-1.556 2.828.231 1.38 2.909-2.185 5.276-5.516 3.665-5.978-3.583-1.891-11.333 3.52-11.443Zm22.124 1.11 4.923 3.337.043 6.484-4.89-2.926-.076-6.895Zm10.845.56.024 5.954-4.75 3.486v-6.335l4.726-3.105Zm12.796 3.902-2.43 6.832-15.332 10.584-12.648-8.006-2.176-6.32 14.901 9.744 17.685-12.834Zm-99.505.497-.005 34.587c-4.968.213-7.82 5.173-4.1 9.86l-1.406.193c-3.36.465-5.612 2.263-5.166 4.442.136.667-.002 1.342-.191 1.675-.3.896-.22 1.58.181 2.352.316.606.263.85.087 1.299-.382.966-.29 1.71.157 2.448.554.546.4.987.326 1.863-.089 1.238.131 1.735.904 2.217.996.62 1.367 1.638.234 1.554-.562-.041-2.54 1.884-2.54 1.884l-.187-55.504 11.706-8.87Zm26.937 4.437c.889-.002 1.805 1.125 3.119 3.028.795 1.362.808 1.178 2.626 1.106 1.857.136 2.988.631 3.473 1.197.184.214-.303.27-1.478 1.473-1.218 1.247-1.387 1.743-2.196 3.138-.291.504-.927.551-1.224.092-.24-.371.375-1.58 1.53-3.003 1.63-1.588 1.288-1.748-1.08-1.497-1.665.176-1.842.092-2.474-.927-1.884-3.78-2.884-3.653-4.688.116-.492 1.054-.296.986-2.43.82-1.68-.13-2.096.298-1.148 1.188 1.48 1.227 2.057 4.12 1.976 4.085l-1.144.106s-.349-.651-.502-1.062c-.31-.831-1.143-2.08-2.047-3.066-1.281-1.397-.578-2.16 2.281-2.472 1.594-.174 1.63-.196 2.364-1.28 1.291-1.909 2.153-3.04 3.042-3.042Zm69.545 3.443-1.65 5.9-13.079 9.257-10.639-7.166-1.411-5.548 12.222 7.813 14.557-10.256Zm-45.09 4.674s3.78 7.433 5.151 12.25c1.193 4.19 2.852 16.322 2.416 17.069-.93-1.287-4-.997-4.042-.985.26-1.421-.878-4.286-3.497-4.853l-.029-23.48Zm43.028 2.719-1.306 5.808-11.136 8.127-9.19-6.335-1.205-5.616 10.17 6.857 12.667-8.841Zm-64.742.323 1.445.507.272 10.492 11.142 1.869.253 1.796-12.901-2.1c-.136-4.475-.211-12.564-.211-12.564Zm-5.654.314.31 12.202c-.12-.041-9.287 1.278-12.796 2.206l.206-1.67s6.372-1.4 10.988-1.937c0-3.412-.026-7-.033-10.478l1.325-.323Zm103.652 2.245s1.516.142 4.76-.434c8.362-1.477 10.627-.879 11.696 1.723 1.168 4.035-3.215 4.133-3.995 1.572-.497-1.66-2.293-1.297-8.29.138-5.128 1.227-8.377.244-8.314-2.688.064-3.015 3.466-3.281 4.143-.31Zm-68.722-2.206a1.886 1.886 0 0 1 1.904 1.863 1.883 1.883 0 0 1-1.847 1.917 1.878 1.878 0 0 1-1.899-1.859c-.015-1.043.808-1.906 1.842-1.921Zm-27.166.333 1.32.4s.195 7.96.234 7.972c2.842.632 8.807 1.763 8.807 1.763l.316 1.574c-2.497-.592-10.457-1.907-10.457-1.907-.249-3.452-.22-9.802-.22-9.802Zm-9.64.15s.006 6.35-.1 9.763c.044-.03-6.755 1.092-10.208 1.815l.268-1.275c2.73-.622 5.703-1.246 8.71-1.883-.059-2.498-.057-7.976-.057-7.976l1.388-.445Zm4.856 1.366a1.52 1.52 0 0 1 1.53 1.502 1.513 1.513 0 0 1-1.487 1.535 1.504 1.504 0 0 1-1.521-1.492 1.513 1.513 0 0 1 1.478-1.545Zm113.143 3.964c.925 1.383 1.7 1.342 2.612 1.207-.23.068-1.305.71-1.244.922.031.106-.453 1.855.283 1.927 2.775.27 1.37 3.18 1.703 3.626.75.863 1.299 1.41.784 2.487-.456.955-1.112.925-.603 1.743 1.106 1.678-.421 2.026-.287 3.167.093.69.334 1.632.082 2.168-.76 1.618-3.443 2.54-6.425 2.666-.425.019-.102-.682-.301-1.125-.737-.47-.334-1.263-.086-1.782.244-.689.246-.69-.21-1.038-1.273-.798-1.208-1.166-1.106-1.743.28-1.705.017-1.872-.492-2.125-.653-.323-.564-1.042-.273-1.965.2-.638.058-.797-.249-1.376-.18-.34-.235-.525-.24-.744.093-.88-.69-.877-1.783-.014-.928 1.614-1.247 3.732-1.828 5.07-.45 1.028-.52 2.101.015 4.471 1.027 3.622.264 4.226-3.775 3.452-3.037-.754-3.934-4.025-3.09-8.03.137-.647.1-1.273.038-1.781-.33-2.757.376-5.405 2.282-7.214 3.182-3.02 4.755-3.48 11.333-3.056 2.574.183 2.77.347 2.77.347s.01-1.25.09-1.26Zm-47.372.83-.766 5.616-6.175 4.399c-2.908-2.318-5.154-1.545-7.2.937-1.62-.83-4.86-3.09-4.86-3.09l-.828-6.37 8.98 6.287 10.849-7.778Zm-65.637 1.333c.83-.012 1.509.66 1.521 1.497a1.51 1.51 0 0 1-1.478 1.54 1.512 1.512 0 0 1-1.53-1.492 1.521 1.521 0 0 1 1.487-1.545Zm64.603 5.751-.34 5.408-2.195 1.666-2.21-.227-.521-3.351 5.266-3.496Zm-64.641.043a1.52 1.52 0 0 1 1.53 1.502 1.513 1.513 0 0 1-1.487 1.536 1.504 1.504 0 0 1-1.522-1.492 1.513 1.513 0 0 1 1.479-1.546Zm6.056.17c.83-.013 1.509.653 1.52 1.491a1.51 1.51 0 0 1-1.477 1.54 1.512 1.512 0 0 1-1.526-1.496 1.509 1.509 0 0 1 1.483-1.536Zm-12.04.29a1.512 1.512 0 0 1 1.525 1.496 1.509 1.509 0 0 1-1.478 1.54 1.516 1.516 0 0 1-1.53-1.497 1.513 1.513 0 0 1 1.482-1.54Zm111.837.245c.423-.034 1.05.6.746 1.55-.408 1.085-.122 1.454.56 2.333.576.743.474.846.387 1.323-.132 3.122 1.86 1.772.995 4.041-.188.494.061 1.199.148 1.782-.194-.534-3.86-.485-4.171.058-.522-.079-1.182-3.554-.655-4.013.067-.001.45.596.645.932.493.843.599.812.445-.164-.609-3.875-.244-7.818.9-7.842Zm-93.727.27a1.512 1.512 0 0 1 1.526 1.498 1.509 1.509 0 0 1-1.483 1.535 1.504 1.504 0 0 1-1.52-1.492 1.509 1.509 0 0 1 1.477-1.54Zm-24.358.28a1.508 1.508 0 0 1 1.521 1.498 1.505 1.505 0 0 1-1.478 1.535 1.517 1.517 0 0 1-.043-3.032Zm58.973.44 4.506 2.95c.075.93-.044 2.262.258 2.714-2.94-.277-4.43 1.415-4.43 1.415l-.334-7.079Zm-32.099 4.718-.349 1.603c-8.879-2.307-18.803-2.428-28.286.106l-.736-1.685c9.578-2.932 19.755-3.04 29.371-.024Zm-42.038-.102c1.293-.022 2.614.464 3.544 1.516 1.748 1.977.907 5.643-1.564 6.809-3.698 1.743-7.55-1.985-5.98-5.828.652-1.596 2.337-2.468 4-2.497Zm91.516.469-.057 1.608-1.125-.947 1.182-.661Zm-23.53.072c1.63-.024 2.97 1.295 2.994 2.94.023 1.646-1.279 3-2.909 3.023-1.63.024-2.97-1.29-2.994-2.935-.024-1.646 1.278-3.004 2.908-3.028Zm-67.905.097c-.397.005-1.059.17-1.359.449-.787.733.004.753 1.043.946 1.846.342 2.354 1.946 2.186 3.68-.152 1.574.372 1.55.794.965 1.72-2.38.252-5.848-2.664-6.04Zm85.661.792c-.038.02-.081.048-.081.048.02.017.049-.005.081-.048Zm-58.332.936c2.209-.046 2.44 3.62.488 7.716-.587 1.232-.887 1.078-1.53-.782-1.589-4.586-1.244-6.886 1.042-6.934Zm5.109.106c.426-.021.839.143 1.177.532 1.187 1.366.274 3.577-2.89 6.982-.769.827-1.167 1.143-1.45 1.149-.791.016-.788-.117.111-3.071.396-1.303.788-2.734.87-3.177.264-1.42 1.245-2.367 2.182-2.415Zm-7.994 3.279c.216 1.016.595 2.427.838 3.139.242.711.403 1.388.363 1.501-.195.547-1.605-.196-2.612-1.376-2.027-2.376-2.835-4.442-2.416-5.552.614-.888 2.187-1.283 2.912-.506.748.802.86 2.521.915 2.794Zm13.974-2.366c2.137 1.272-.325 4.177-5.114 6.586-2.05 1.031-1.903.567-.35-1.468.595-.778 1.391-2.046 1.78-2.82.86-1.71 1.72-3.423 3.684-2.298Zm-21.336.01c.679-.006 1.373.727 2.66 2.607.574.838 1.505 2.03 2.071 2.651.567.621 1.013 1.239.99 1.371-.22 1.319-6.887-2.858-7.366-4.616-.165-1.072.67-2.03 1.645-2.013Zm95.415 3.824c1.203 2.495 1.306 4.047.311 4.611-1.413.802-3.23-.42-3.267-2.197-.012-.597-.62-2.679-1.177-4.032-.458-1.113-.52-1.8-.144-1.855 1.474.238 3.655 2.3 4.277 3.473Zm-7.979-1.893c-.465 1.427-.957 3.654-.952 4.302.002.255-.151.777-.335 1.16-1.22 2.536-4.109.467-3.047-2.183.958-2.39 3.396-4.877 4.357-4.96.657-.056.043 1.472-.023 1.681Zm1.946-1.37c.482-.047.886 1.015 1.508 2.804.84 2.417.806 4.302-.1 5.104-1.943 1.72-3.98-.777-3.196-3.916.628-2.509 1.242-3.937 1.788-3.991Zm-65.167.443c2.418 35.917-15.824 63.55-17.123 64.305l-6.207 3.425-10.888-5.986c11.282-15.616 18.027-33.514 18.537-54.298C71.46 139.43 76.83 131 76.703 130.962Zm59.816.114c.762-.21.23.46-.525 1.56-.806 1.173-1.852 4.362-2.682 4.873-1.861.903-3.967-.818-2.838-2.314 1.04-1.377 4.095-3.58 6.045-4.119Zm11.073.243c.293 0 .838.194 1.632.585 3.875 1.91 5.787 4.43 4.128 5.635-1.164.846-2.41.19-3.573-2.038A20.215 20.215 0 0 0 148.18 133c-.872-1.126-1.075-1.679-.589-1.68Zm21.79 1.28c2.49-.037 4.537 1.967 4.573 4.48.036 2.515-1.953 4.585-4.444 4.622-2.49.036-4.537-1.977-4.573-4.49-.036-2.515 1.953-4.576 4.444-4.612Zm-1.372 1.182c-2.931 1.31-2.048 5.955.478 6.626 1.066.3 2.364-.147 1.83-.665-3.338-1.057-3.36-3.54-2.015-5.357.216-.292-.074-.703-.293-.604Zm-122.081 6.388c-.114 2.625.45 5.669-.793 8.518-1.883 4.38-7.93 6.381-11.16 5.993-.673-.28-1.457-.544-2.12-.26-.402.172-.897.15-1.325-.05-.413-.195-.81.06-1.21-.086-.468-.32-1.233-1.045-1.143-1.584.146-.76.088-1.324-.794-1.574-1.223-.346-1.47-1.012-1.11-2.965.078-.422.171-.613-.1-.797-.9-.609-1.242-1.735-.651-2.92.385-.684.683-1.167-.01-1.71-.273-.625-.226-.863.364-1.661.628-.758.738-.845.335-1.492-.905-1.456.12-2.53 1.34-3.129 1.632-.676 3.06-1.025 4.783-1.226.64.036.614.605 1 1.154.567.89-.233 2.18.23 2.636.667.311.97.932.918 1.463-.024 1.237.05 1.66.382 2.178.368.573.506 1.626.163 2.342-.306.637-.272.594.13.97.397.372.592 2.237.451 2.2l1.676-.154c-.175.188.63-3.487 2.541-6.328-.105-2.225-.945-4.272-.87-7.211 4.14-1.497 7.13 2.057 6.973 5.693Zm64.317-5.001c.598.473 3.566 1.307 3.674 1.212-.093 1.434.772 4.22 3.865 5.152.038 3.998.005 22.457.005 22.457-4.308-7.287-6.979-16.694-7.544-28.821Zm-72.07.652s.164.531.315 1.56c.265 2.099-.02 2.386-.574.95-.647-1.68-.681-.37.048 3.477.177.932.17 1.148-.057 1.777-.142.394-.396 1.31-.593 2.028-.583 2.112-.924 2.72-1.522 1.038-.305-.857-.56-.991-.342-1.662.272-.84.207-1.47-.342-2.288-.09-.133-.286-.44-.32-1.308.168-1.951-.692-1.97-.861-2.474.029-.763-.324-2.612.196-2.563.428.041 1.978.085 2.712-.188.325-.12 1.34-.347 1.34-.347Zm64.225.24c1.6-.023 2.914 1.268 2.937 2.884.024 1.615-1.255 2.94-2.856 2.964a2.909 2.909 0 0 1-2.941-2.878c-.024-1.615 1.26-2.946 2.86-2.97Zm-44.737 1.783 2.196.42c.49.164.133 30.721-17.441 52.775l-.153-5.108c8.362-12.216 14.384-27.198 15.398-48.087Zm37.232.642.401 7.3c-1.236-1.06-4.376-3.047-4.353-3.09l.015-2.699c.003.006 2.698.209 3.937-1.511Zm-16.925.101c.53.225.991.742 1.445 1.116l-1.435.975-.01-2.09Zm50.305.367c9.48 2.838 18.816 2.756 28.047.681l.631 1.787c-10.015 2.74-19.969 2.582-29.86-.604l1.182-1.864Zm-45.914 1.367.507 3.148-5.35 3.495.26-4.78 2.79-1.825 1.793-.038Zm47.363 2.622a1.575 1.575 0 0 1 1.589 1.56c.012.872-.681 1.59-1.545 1.602a1.57 1.57 0 0 1-1.584-1.56 1.572 1.572 0 0 1 1.54-1.602Zm24.359.13a1.575 1.575 0 0 1 1.588 1.56c.013.872-.68 1.59-1.545 1.603a1.57 1.57 0 0 1-1.583-1.56 1.571 1.571 0 0 1 1.54-1.603Zm-45.622 4.912c.701 2.494.548 8.13-.354 11.954-.27 1.148-.435 5.223-.435 5.223-.168.213 5.37-4.625 7.15 1.72.612 2.182-1.876 4.25-3.54 3.645-.325-.118-.227-1.199.083-1.834.923-1.898-1.71-2.884-3.21-1.202-3.466 3.885.1 13.723 5.535 14.678 4.511.794 8.129-3.74 5.118-6.44-1.316-1.182-3.423.446-2.459 1.95 1.03 1.606-.866 2.247-2.3.758-2.502-2.597.306-6.506 4.085-5.601 6.04 1.386 4.797 10.916-1.536 11.453-4.843.41-8.103-1.719-10.15-5.495-1.925-3.628-2.068-6.52-1.187-12.882.523-3.778.092-6.96-.947-6.939-.57.012-1.015.29-1.105.966-.185 1.384-.342 1.642-1.201 1.14-1.09-.639-1.697-2.694.086-4.086 1.828-1.426 4.196.8 4.1 1.183.044-.07.228-.432.473-2.052.799-5.27-.975-10.839-3.167-9.946-.48.195-.423.415.206.772 1.46.829.173 2.953-1.66 2.738-2.596-.304-3.186-3.96-.9-5.577 3.603-1.96 6.538 1.11 7.315 3.874Zm-17.723-4.39s4.605 2.835 4.85 3.563c.157.467.345 4.534.345 4.534l-7.994-5.05-11.46 7.15c.188-1.57 1.013-5.61 1.013-5.61l6.094-3.892c.03.234 4.216 3.023 7.152-.696Zm57.227.27a1.575 1.575 0 0 1 1.588 1.56 1.571 1.571 0 0 1-1.54 1.602 1.57 1.57 0 0 1-1.589-1.554 1.576 1.576 0 0 1 1.54-1.608Zm-12.199.024a1.575 1.575 0 0 1 1.593 1.555 1.584 1.584 0 0 1-1.55 1.608 1.57 1.57 0 0 1-1.583-1.56 1.572 1.572 0 0 1 1.54-1.603Zm6.133.357a1.579 1.579 0 0 1 1.593 1.56c.012.873-.68 1.59-1.545 1.603a1.575 1.575 0 0 1-1.588-1.56 1.571 1.571 0 0 1 1.54-1.603Zm-15.356 2.24c4.15.872 8.31 1.768 12.29 2.207l.162 12.327-1.162-.067-.168-11.014c-3.843-.278-7.468-1.11-10.873-1.999l-.249-1.453Zm30.86.401-.215 1.449s-7.18 1.254-10.931 1.743c-.06 2.481-.053 10.772-.053 10.772l-1.435.266-.005-12.55c4.258-.466 8.511-.95 12.639-1.68Zm-69.478.696 8.453 5.64.995 5.977-9.855-6.61s-8.933 6.069-12.275 8.32l1.02-5.635 11.662-7.692Zm39.02 1.115c3.403.727 6.806 1.482 10.209 1.777l.143 9.918-1.564-.42-.125-8.05c-2.657-.232-5.387-.751-8.132-1.337l-.53-1.888Zm30.104.295-.287 1.347s-5.447.829-8.257 1.337c-.249.058-.158 8.73-.158 8.73l-1.344.208-.158-10.125 10.204-1.497Zm-15.255 1.11a1.57 1.57 0 0 1 1.583 1.56 1.572 1.572 0 0 1-1.54 1.603 1.57 1.57 0 0 1-1.588-1.555 1.58 1.58 0 0 1 1.545-1.608Zm-53.998 3.578 9.993 6.808s1.158 3.546 1.406 5.51l-11.5-7.494-14.39 9.628 1.666-5.949 12.825-8.503Zm-60.571.208c.593.008 1.184.408 1.492 1.328.434 1.294 1.243 1.676 3.373 1.636 4.18-.225 8.563-2.208 12.51-.719 1.917.713 2.6 3.568.994 4.312-1.743.807-2.486.3-3.09-1.082-.559-.587-1.252-.495-5 .155a69.14 69.14 0 0 1-5.228.647c-4.176.34-6.483-.988-7.003-3.496-.332-1.604.964-2.795 1.952-2.781Zm114.483 2.303a1.57 1.57 0 0 1 1.588 1.555 1.58 1.58 0 0 1-1.545 1.608 1.575 1.575 0 0 1-1.589-1.56 1.575 1.575 0 0 1 1.546-1.603Zm-30.616 1.927a2.048 2.048 0 0 1 2.067 2.027 2.05 2.05 0 0 1-2.01 2.086c-1.124.017-2.045-.892-2.061-2.028a2.045 2.045 0 0 1 2.004-2.085Zm-23.282 1.438s8.224 5.546 12.03 8.107l2.106 6.104-14.007-9.194-17.139 11.255 2.056-6.277 14.954-9.995Zm59.375 1.908c.746 2.028 2.099 3.573 3.53 5.142 0 0-.797 1.524-3.64 1.434-1.553-.05-1.637.197-2.167 1.26-.871 1.348-1.58 2.228-2.143 2.666-.996.774-2.863-.383-4.401-2.733-.56-.857-.793-1.06-2.483-1.024-2.595.054-3.534-.672-2.186-1.85 1.175-1.444 2.02-3.033 3.071-4.552l1.167.135c.05.175-.907 3.092-2.253 4.278-.683.778.273 1.06 1.942.705 1.059-.322 1.33-.196 2.115 1.439 1.633 3.117 2.483 2.967 4.42-.194.676-1.41.65-1.55 2.511-1.144 1.998.203 2.6-.05 1.78-.753-1.659-1.42-2.574-4.77-2.574-4.77l1.31-.04Zm-59.303 4.176s14.872 9.833 14.834 9.619l2.98 7.088-17.456-11.719-21.325 13.998 3.19-7.016 17.777-11.97Zm.574 6.456 5.185 3.443-.014 6.195-5.296-3.593.125-6.045Zm-1.33.179.096 6.113-4.65 2.795-.258-5.736 4.812-3.172Zm-5.898 3.94-.043.236.11.058.038.005.167 5.51-5.348 3.742.02-6.224 5.056-3.327Zm13.695.067 4.875 3.284.2 6.557-5.29-3.496.215-6.345Zm6.018 4.003 4.889 3.428.172 6.548-4.994-3.395-.067-6.58Zm-25.875.024-.024 6.05-4.865 3.429-.23-6.18 5.12-3.299Zm51.453 7.808c-.965 1.016-1.321.89-2.147-.787-.858-1.74-2.145-2.553-4.01-2.52-2.351.04-.813-1.516 1.68-1.7 4.31-.192 6.499 2.728 4.477 5.007Zm-57.667-3.549.13 6.07-4.842 2.54-.148-2.879 2.492-4.398 2.368-1.333Zm-6.242 8.112.167 1.106-.895.347.728-1.453Zm58.26 43.746c-20.373 4.4-39.905 2.845-53.922.227l-6.405 11.048-.44-.02-1.65 2.859.177.328s-5.322 10.308-7.563 13.559c26.182-.255 83.652-.382 83.652-.382l-3.502-7.107.191-.194-3.458-7.42-1.124-1.285s-.687-1.342-1.201-2.782c-.473-1.325-2.502-4.954-2.502-4.954l-.287.025-1.966-3.902Zm-53.185 1.555c.27.216 26.096 5.128 52.864.082l1.464 2.472c-23.428 5.442-57.326.244-55.988-.26l1.66-2.294Zm.445 4.862c2.361-.085 4.754 1.196 6.367 3.332.513.68 1.354 2.685 1.354 2.685s1.13-1.89 2.239-2.835c1.676-1.43 3.851-2.624 6.998-2.51 2.897.104 6.087 1.687 8.965 6.262.726-2.64 10.246-11.61 18.087-.425.896-2.972 5.093-8.909 11.887-4.76.464 1.002.943 2.104.943 2.104-4.01-2.834-10.622-.933-12.184 3.491-.14.54.037.82.243 1.343 2.067 2.98-3.31 2.91-1.717.497.298-.548.323-1-.153-1.719-1.26-1.907-5.056-4.28-7.84-4.22-3.216.07-6.78 2.224-7.97 4.181-.44.722-.539 1.446-.153 2.077.28.636.184 1.169-.287 1.56-1.108.917-2.499-.141-1.966-1.498.35-.597.296-1.33-.421-2.346-1.441-2.042-4.804-4.194-7.73-4.133-4.189.097-8.42 3.142-8.152 5.649.118 1.102-.18 1.513-1.071 1.386-1.084-.155-1.207-1.187-.44-2.028.113-.27.297-.923-.053-1.4-4.423-6.038-11.045-4.278-12.562-2.927 1.474-2.55 3.532-3.69 5.616-3.766Zm-3.937 4.191c1.66.014 3.447 1.28 4.013 2.27.41-.429 4.165-2.236 5.99.347-4.78-.363-4.838 4.756-1.306 5.249-1.61 4.938 5.61 5.237 5.152.599 5.394.804 4.729-6.098-.35-5.37 2.66-1.955 4.471-1.324 7.669.918 1.075-1.413 5.458-2.733 6.534-.266-5.024-.313-4.168 5.56-.416 5.611-1.115 4.07 6.266 5.567 5.128-.512 4.685.332 4.007-6.057-.483-5.528.333-1.163 4.89-1.665 6.903.555 1.85-1.705 3.893-2.872 7.582-.435-5.03-.846-5.093 5.746-.421 5.35-.436 4.365 6.17 4.439 5.066-.603 5.029-1.37 2.264-6.803-1.43-5.307 1.644-1.973 4.436-1.042 5.544-.642 3.423-3.955 6.405-.647 6.405-.647-5.957-.628-4.661 7.942 1.143 4.833-.005 1.763.745 3.29 3.115 3.54l2.817 5.885-79.843.532 4.405-7.821c.446.141 2.992.375 3.54-2.638 5.246 1.68 5.598-4.486 1.679-5.461.475-.33 1.01-.463 1.564-.459Zm-3.114 2.231c.522.846.085 1.397-.813 1.42 0 0 .584-.857.813-1.42Zm65.684 1.091.517 1.096c-.559-.228-.628-.47-.517-1.096Z" id="path3442-2-7-0" fill="#000"/><path d="M154.883 256.856c9.774-.213 14.157-11.218 6.918-19.764-1.05-1.246-1.158-1.962.765-.764 4.874 3.259 14.219 1.116 14.698-8.848.59-12.276-16.563-15.814-19.784-2.76-.17 1.378-1.29 1.347-1.02-.608.294-5.307 1.951-10.266 4.229-15.103h-11.62c2.277 4.837 3.935 9.796 4.228 15.103.27 1.955-.85 1.986-1.02.609-3.22-13.055-20.374-9.517-19.783 2.76.479 9.963 9.824 12.106 14.698 8.847 1.923-1.198 1.814-.482.765.764-7.24 8.546-2.857 19.551 6.918 19.764h.01-.002Z" id="path147-0-8-1-3-6-2-4-7" fill="#000"/><path d="M51.812 11.222c9.775.212 14.158 11.217 6.919 19.763-1.05 1.247-1.159 1.962.764.765 4.874-3.26 14.22-1.117 14.698 8.847.591 12.277-16.563 15.814-19.784 2.76-.17-1.377-1.29-1.346-1.02.61.294 5.306 1.952 10.265 4.23 15.102h-11.62c2.277-4.837 3.934-9.796 4.228-15.103.27-1.955-.85-1.986-1.02-.61-3.22 13.055-20.374 9.518-19.783-2.759.478-9.964 9.824-12.106 14.698-8.847 1.922 1.197 1.814.482.764-.765-7.239-8.546-2.856-19.55 6.918-19.763h.01-.002Z" id="path147-0-8-1-0-3-83-7-5-7" fill="#000"/></g></g></g></svg>