<svg width="227" height="315" xmlns="http://www.w3.org/2000/svg"><g id="Page-1" stroke="none" stroke-width="1" fill="none" fill-rule="evenodd"><g id="Clubs" transform="translate(10 23)" fill="#000"><g id="2" transform="translate(0 11)"><path d="M103.87.635C94.097.848 89.714 11.853 96.953 20.4c1.05 1.246 1.158 1.961-.764.764-4.874-3.26-14.22-1.116-14.698 8.847-.591 12.277 16.563 15.815 19.784 2.76.17-1.377 1.289-1.346 1.019.61-.294 5.306-1.95 10.265-4.229 15.102h11.62c-2.277-4.837-3.934-9.796-4.228-15.103-.27-1.955.85-1.986 1.02-.609 3.22 13.055 20.374 9.517 19.783-2.76-.478-9.963-9.824-12.106-14.698-8.847-1.922 1.197-1.814.482-.764-.764 7.239-8.546 2.856-19.551-6.918-19.764h-.01.002Z" id="path147-0-8-1-6-7-2-1-6-3"/><path d="M103.87 246.268c-9.774-.212-14.157-11.217-6.918-19.763 1.05-1.246 1.158-1.962-.764-.764-4.874 3.259-14.22 1.116-14.698-8.848-.591-12.277 16.563-15.814 19.784-2.76.17 1.378 1.289 1.347 1.019-.609-.294-5.306-1.95-10.266-4.229-15.102h11.62c-2.277 4.836-3.934 9.796-4.228 15.102-.27 1.956.85 1.987 1.02.61 3.22-13.055 20.374-9.518 19.783 2.76-.478 9.963-9.824 12.106-14.698 8.847-1.922-1.198-1.814-.482-.764.764 7.239 8.546 2.856 19.551-6.918 19.763h-.01.002Z" id="path147-0-8-1-6-1-4-5-4-2"/><path d="M197.853 228.63c3.91-.088 5.663-4.673 2.767-8.234-.42-.52-.463-.817.306-.318 1.95 1.358 5.687.465 5.879-3.687.236-5.115-6.625-6.589-7.914-1.15-.067.574-.515.561-.407-.253.117-2.211.78-4.278 1.691-6.293h-4.648c.911 2.015 1.574 4.082 1.692 6.293.108.814-.34.827-.408.253-1.289-5.439-8.15-3.965-7.914 1.15.192 4.152 3.93 5.045 5.88 3.687.769-.5.725-.201.305.318-2.895 3.561-1.142 8.146 2.768 8.235h.003Z" id="path147-6-9-8-7-0-5-4-9-1"/><path d="M9.898 17.444c-3.91.088-5.663 4.674-2.768 8.235.42.519.464.817-.306.318-1.95-1.358-5.687-.465-5.879 3.686-.236 5.116 6.625 6.59 7.914 1.15.067-.573.516-.56.408.254-.118 2.211-.78 4.278-1.692 6.293h4.648c-.911-2.015-1.574-4.082-1.691-6.293-.108-.814.34-.828.407-.254 1.289 5.44 8.15 3.966 7.914-1.15-.192-4.151-3.93-5.044-5.88-3.686-.768.5-.725.201-.305-.318 2.895-3.561 1.142-8.147-2.767-8.235-.001 0 0 0 0 0h-.003Z" id="path147-6-9-8-7-4-5-9-2-7"/></g></g></g></svg>