<svg width="227" height="315" xmlns="http://www.w3.org/2000/svg"><g id="Page-1" stroke="none" stroke-width="1" fill="none" fill-rule="evenodd"><g id="Clubs" transform="translate(10 23)" fill="#000"><g id="5" transform="translate(0 11)"><path d="M155.081.635c-9.774.213-14.157 11.217-6.918 19.763 1.05 1.247 1.158 1.962-.765.765-4.874-3.26-14.219-1.117-14.698 8.847-.59 12.277 16.563 15.815 19.784 2.76.17-1.377 1.29-1.346 1.02.61-.294 5.305-1.951 10.265-4.229 15.102h11.62c-2.278-4.837-3.935-9.797-4.228-15.103-.27-1.955.85-1.986 1.02-.609 3.22 13.055 20.374 9.517 19.783-2.76-.479-9.964-9.824-12.106-14.698-8.847-1.923 1.197-1.814.482-.764-.765 7.238-8.546 2.856-19.55-6.919-19.763h-.01.002Z" id="path147-0-8-1-6-13-2-8-2-5"/><path d="M52.01.635c-9.774.213-14.157 11.217-6.918 19.763 1.05 1.247 1.158 1.962-.765.765-4.873-3.26-14.219-1.117-14.697 8.847-.591 12.277 16.563 15.815 19.783 2.76.17-1.377 1.29-1.346 1.02.61-.294 5.305-1.951 10.265-4.229 15.102h11.62c-2.277-4.837-3.934-9.797-4.228-15.103-.27-1.955.85-1.986 1.02-.609 3.22 13.055 20.374 9.517 19.783-2.76-.478-9.964-9.824-12.106-14.698-8.847-1.923 1.197-1.814.482-.764-.765C66.176 11.852 61.793.848 52.018.635h-.01.002Z" id="path147-0-8-1-6-75-2-83-7-6-4"/><path d="M155.081 246.268c-9.774-.212-14.157-11.217-6.918-19.763 1.05-1.247 1.158-1.962-.765-.765-4.874 3.26-14.219 1.117-14.698-8.847-.59-12.277 16.563-15.814 19.784-2.76.17 1.378 1.29 1.346 1.02-.609-.294-5.306-1.951-10.266-4.229-15.102h11.62c-2.278 4.836-3.935 9.796-4.228 15.102-.27 1.955.85 1.987 1.02.61 3.22-13.055 20.374-9.518 19.783 2.76-.479 9.963-9.824 12.106-14.698 8.846-1.923-1.197-1.814-.482-.764.765 7.238 8.546 2.856 19.551-6.919 19.763h-.01.002Z" id="path147-0-8-1-6-7-5-5-7-6-8-5"/><path d="M52.01 246.268c-9.774-.212-14.157-11.217-6.918-19.763 1.05-1.247 1.158-1.962-.765-.765-4.873 3.26-14.219 1.117-14.697-8.847-.591-12.277 16.563-15.814 19.783-2.76.17 1.378 1.29 1.346 1.02-.609-.294-5.306-1.951-10.266-4.229-15.102h11.62c-2.277 4.836-3.934 9.796-4.228 15.102-.27 1.955.85 1.987 1.02.61 3.22-13.055 20.374-9.518 19.783 2.76-.478 9.963-9.824 12.106-14.698 8.846-1.923-1.197-1.814-.482-.764.765 7.239 8.546 2.856 19.551-6.919 19.763h-.01.002Z" id="path147-0-8-1-6-75-6-1-2-4-9-5"/><path d="M103.546 99.528c-9.775.213-14.158 11.218-6.919 19.764 1.05 1.246 1.159 1.962-.764.764-4.874-3.259-14.22-1.116-14.698 8.848-.591 12.277 16.563 15.814 19.784 2.76.17-1.378 1.29-1.347 1.02.608-.294 5.307-1.952 10.266-4.23 15.103h11.62c-2.277-4.837-3.934-9.796-4.228-15.103-.27-1.955.85-1.986 1.02-.609 3.22 13.055 20.375 9.518 19.783-2.76-.478-9.963-9.823-12.106-14.697-8.847-1.923 1.198-1.815.482-.765-.764 7.24-8.546 2.856-19.551-6.918-19.764h-.01.002Z" id="path147-0-8-1-6-1-1-0-5-6-4-0"/><path d="M197.528 228.63c3.91-.088 5.663-4.673 2.767-8.234-.42-.52-.463-.817.306-.318 1.95 1.358 5.688.465 5.88-3.687.236-5.115-6.626-6.59-7.914-1.15-.068.574-.516.561-.408-.254.117-2.21.78-4.277 1.691-6.292h-4.648c.911 2.015 1.574 4.081 1.692 6.292.108.815-.34.828-.408.254-1.288-5.44-8.15-3.965-7.913 1.15.19 4.152 3.93 5.045 5.879 3.687.769-.5.726-.201.305.318-2.895 3.56-1.142 8.146 2.768 8.235h.003Z" id="path147-6-9-8-7-0-5-6-7-4-6"/><path d="M9.573 17.444c-3.91.088-5.663 4.674-2.768 8.235.42.519.464.817-.305.318C4.55 24.64.812 25.532.62 29.683c-.236 5.116 6.626 6.59 7.914 1.15.068-.574.516-.56.408.254-.118 2.211-.78 4.278-1.692 6.293h4.648c-.91-2.015-1.574-4.082-1.691-6.293-.108-.814.34-.828.407-.254 1.289 5.44 8.15 3.966 7.914-1.15-.191-4.151-3.93-5.044-5.88-3.686-.768.499-.725.2-.305-.319 2.896-3.56 1.143-8.146-2.767-8.234-.001 0 0 0 0 0h-.003Z" id="path147-6-9-8-7-4-5-62-2-3-8"/></g></g></g></svg>