<svg width="227" height="315" xmlns="http://www.w3.org/2000/svg"><g id="Page-1" stroke="none" stroke-width="1" fill="none" fill-rule="evenodd"><g id="Clubs" transform="translate(10 23)" fill="#000"><g id="9" transform="translate(0 11)"><path d="M154.98.635c-9.774.213-14.157 11.218-6.917 19.764 1.05 1.246 1.158 1.962-.765.764-4.874-3.259-14.22-1.116-14.698 8.847-.59 12.277 16.563 15.815 19.784 2.76.17-1.377 1.29-1.346 1.02.61-.294 5.306-1.951 10.265-4.23 15.102h11.62c-2.277-4.837-3.934-9.796-4.228-15.103-.27-1.955.85-1.986 1.02-.609 3.22 13.055 20.375 9.517 19.783-2.76-.478-9.963-9.823-12.106-14.697-8.847-1.923 1.198-1.815.482-.765-.764 7.24-8.546 2.856-19.551-6.918-19.764h-.01.002Z" id="path147-0-8-1-6-13-2-9-8-8"/><path d="M51.91.635C42.136.848 37.753 11.853 44.992 20.4c1.05 1.246 1.158 1.962-.765.764-4.873-3.259-14.219-1.116-14.697 8.847-.591 12.277 16.563 15.815 19.783 2.76.17-1.377 1.29-1.346 1.02.61-.294 5.306-1.951 10.265-4.229 15.102h11.62c-2.277-4.837-3.934-9.796-4.228-15.103-.27-1.955.85-1.986 1.02-.609 3.22 13.055 20.374 9.517 19.783-2.76-.478-9.963-9.824-12.106-14.698-8.847-1.923 1.198-1.814.482-.764-.764C66.076 11.853 61.693.848 51.918.635h-.01.002Z" id="path147-0-8-1-6-75-2-83-3-5-0"/><path d="M154.98 246.269c-9.774-.212-14.157-11.217-6.917-19.763 1.05-1.247 1.158-1.962-.765-.765-4.874 3.26-14.22 1.117-14.698-8.847-.59-12.277 16.563-15.815 19.784-2.76.17 1.377 1.29 1.346 1.02-.61-.294-5.306-1.951-10.265-4.23-15.102h11.62c-2.277 4.837-3.934 9.796-4.228 15.103-.27 1.955.85 1.986 1.02.609 3.22-13.055 20.375-9.517 19.783 2.76-.478 9.964-9.823 12.106-14.697 8.847-1.923-1.197-1.815-.482-.765.765 7.24 8.546 2.856 19.55-6.918 19.763h-.01.002Z" id="path147-0-8-1-6-7-5-5-7-63-0-4"/><path d="M51.91 246.269c-9.774-.212-14.157-11.217-6.918-19.763 1.05-1.247 1.158-1.962-.765-.765-4.873 3.26-14.219 1.117-14.697-8.847-.591-12.277 16.563-15.815 19.783-2.76.17 1.377 1.29 1.346 1.02-.61-.294-5.306-1.951-10.265-4.229-15.102h11.62c-2.277 4.837-3.934 9.796-4.228 15.103-.27 1.955.85 1.986 1.02.609 3.22-13.055 20.374-9.517 19.783 2.76-.478 9.964-9.824 12.106-14.698 8.847-1.923-1.197-1.814-.482-.764.765 7.239 8.546 2.856 19.55-6.919 19.763h-.01.002Z" id="path147-0-8-1-6-75-6-1-2-46-5-0"/><path d="M103.446 99.529c-9.775.212-14.158 11.217-6.919 19.763 1.05 1.247 1.159 1.962-.764.765-4.874-3.26-14.22-1.117-14.698 8.847-.591 12.277 16.563 15.814 19.784 2.76.17-1.378 1.289-1.346 1.02.609-.295 5.306-1.952 10.266-4.23 15.102h11.62c-2.277-4.836-3.934-9.796-4.228-15.102-.27-1.955.85-1.987 1.02-.61 3.22 13.055 20.374 9.518 19.783-2.759-.478-9.964-9.824-12.107-14.698-8.847-1.922 1.197-1.814.482-.764-.765 7.239-8.546 2.856-19.55-6.918-19.763h-.01.002Z" id="path147-0-8-1-6-1-1-0-5-61-2-0"/><path d="M197.427 228.631c3.91-.088 5.664-4.674 2.768-8.234-.42-.52-.463-.818.306-.319 1.95 1.358 5.687.465 5.879-3.686.236-5.116-6.625-6.59-7.914-1.15-.068.574-.515.56-.408-.254.118-2.211.78-4.278 1.692-6.293h-4.648c.911 2.015 1.574 4.082 1.692 6.293.108.815-.34.828-.408.254-1.289-5.44-8.15-3.966-7.914 1.15.192 4.151 3.93 5.044 5.88 3.686.769-.499.725-.2.305.319-2.895 3.56-1.142 8.146 2.767 8.234h.003Z" id="path147-6-9-8-7-0-5-6-5-2-8"/><path d="M51.91 66.564c-9.774.213-14.157 11.218-6.918 19.764 1.05 1.246 1.158 1.962-.764.764-4.874-3.259-14.22-1.116-14.698 8.847-.591 12.277 16.563 15.815 19.783 2.76.17-1.377 1.29-1.346 1.02.61-.294 5.306-1.95 10.265-4.229 15.102h11.62c-2.277-4.837-3.934-9.796-4.228-15.103-.27-1.955.85-1.986 1.02-.609 3.22 13.055 20.374 9.517 19.783-2.76-.478-9.963-9.824-12.106-14.698-8.847-1.923 1.198-1.814.482-.764-.764 7.239-8.546 2.856-19.551-6.919-19.764h-.01.002Z" id="path147-0-8-1-6-75-2-9-77-4-4-2"/><path d="M51.91 180.34c-9.774-.212-14.157-11.217-6.918-19.763 1.05-1.247 1.158-1.962-.765-.765-4.873 3.26-14.219 1.117-14.697-8.847-.591-12.277 16.563-15.815 19.783-2.76.17 1.377 1.29 1.346 1.02-.61-.294-5.306-1.951-10.265-4.229-15.102h11.62c-2.277 4.837-3.934 9.796-4.228 15.103-.27 1.955.85 1.986 1.02.609 3.22-13.055 20.374-9.517 19.783 2.76-.478 9.964-9.824 12.106-14.698 8.847-1.923-1.197-1.814-.482-.764.765 7.239 8.546 2.856 19.55-6.919 19.763h-.01.002Z" id="path147-0-8-1-6-75-2-8-0-6-4-4"/><path d="M154.98 66.564c-9.774.213-14.157 11.218-6.917 19.764 1.05 1.246 1.158 1.962-.765.764-4.874-3.259-14.22-1.116-14.698 8.847-.59 12.277 16.563 15.815 19.784 2.76.17-1.377 1.29-1.346 1.02.61-.294 5.306-1.951 10.265-4.23 15.102h11.62c-2.277-4.837-3.934-9.796-4.228-15.103-.27-1.955.85-1.986 1.02-.609 3.22 13.055 20.375 9.517 19.783-2.76-.478-9.963-9.823-12.106-14.697-8.847-1.923 1.198-1.815.482-.765-.764 7.24-8.546 2.856-19.551-6.918-19.764h-.01.002Z" id="path147-0-8-1-6-75-2-9-7-1-36-2-4"/><path d="M154.98 180.34c-9.774-.212-14.157-11.217-6.917-19.763 1.05-1.247 1.158-1.962-.765-.765-4.874 3.26-14.22 1.117-14.698-8.847-.59-12.277 16.563-15.815 19.784-2.76.17 1.377 1.29 1.346 1.02-.61-.294-5.306-1.951-10.265-4.23-15.102h11.62c-2.277 4.837-3.934 9.796-4.228 15.103-.27 1.955.85 1.986 1.02.609 3.22-13.055 20.375-9.517 19.783 2.76-.478 9.964-9.823 12.106-14.697 8.847-1.923-1.197-1.815-.482-.765.765 7.24 8.546 2.856 19.55-6.918 19.763h-.01.002Z" id="path147-0-8-1-6-75-2-8-5-1-55-5-4"/><path d="M9.473 17.444c-3.91.088-5.663 4.674-2.767 8.235.42.52.463.817-.306.318C4.45 24.64.712 25.532.52 29.684c-.236 5.115 6.626 6.589 7.914 1.15.068-.574.516-.561.408.253-.118 2.211-.78 4.278-1.691 6.293h4.647c-.91-2.015-1.574-4.082-1.691-6.293-.108-.814.34-.827.408-.253 1.288 5.439 8.15 3.965 7.913-1.15-.191-4.152-3.93-5.045-5.879-3.687-.769.5-.726.201-.306-.318 2.896-3.561 1.143-8.147-2.767-8.235h-.003Z" id="path147-6-9-8-7-4-5-62-7-8-4"/></g></g></g></svg>