<svg width="227" height="315" xmlns="http://www.w3.org/2000/svg"><g id="Page-1" stroke="none" stroke-width="1" fill="none" fill-rule="evenodd"><g id="Diamonds" transform="translate(10 25)" fill="#D40000"><g id="A" transform="translate(0 26)"><path d="M8.176 20.303C6.024 16.746 3.76 13.288.933 10.335 3.76 7.38 6.024 3.925 8.176.367c2.15 3.557 4.414 7.014 7.242 9.968-2.828 2.953-5.091 6.41-7.242 9.968Z" id="path6399-9"/><path d="M196.127 211.554c-2.151-3.557-4.414-7.014-7.243-9.968 2.829-2.953 5.092-6.41 7.243-9.968 2.151 3.557 4.415 7.015 7.243 9.968-2.828 2.954-5.092 6.41-7.243 9.968Z" id="path6403-1"/><path d="M103.151 129.884c-5.163-8.538-10.595-16.835-17.383-23.924 6.788-7.088 12.22-15.385 17.383-23.923 5.163 8.538 10.595 16.835 17.383 23.923-6.788 7.089-12.22 15.386-17.383 23.924Z" id="path6413-1"/></g></g></g></svg>