<svg width="227" height="315" xmlns="http://www.w3.org/2000/svg"><g id="Page-1" stroke="none" stroke-width="1" fill="none" fill-rule="evenodd"><g id="Diamonds" transform="translate(11 25)" fill="#D40000"><g id="10" transform="translate(1 9)"><path d="M8.197 37.303c-2.151-3.557-4.415-7.015-7.243-9.968 2.828-2.953 5.092-6.41 7.243-9.968 2.151 3.557 4.414 7.015 7.243 9.968-2.829 2.953-5.092 6.41-7.243 9.968Z" id="path7062-5"/><path d="M153.708 47.99c-5.164-8.537-10.595-16.835-17.383-23.923 6.788-7.088 12.22-15.386 17.383-23.923 5.163 8.537 10.594 16.835 17.382 23.923-6.788 7.088-12.22 15.386-17.382 23.923Z" id="path7064-0"/><path d="M196.148 228.554c-2.15-3.557-4.414-7.014-7.243-9.968 2.829-2.953 5.092-6.41 7.243-9.968 2.152 3.557 4.415 7.015 7.243 9.968-2.828 2.954-5.091 6.411-7.243 9.968Z" id="path7066-9"/><path d="M50.637 47.99c-5.163-8.537-10.595-16.835-17.383-23.923C40.042 16.979 45.474 8.681 50.637.144 55.8 8.68 61.232 16.979 68.02 24.067 61.232 31.155 55.8 39.453 50.637 47.99Z" id="path7068-2"/><path d="M153.708 113.926c-5.164-8.537-10.595-16.835-17.383-23.923 6.788-7.088 12.22-15.386 17.383-23.923 5.163 8.537 10.594 16.835 17.382 23.923-6.788 7.088-12.22 15.386-17.382 23.923Z" id="path7070-0"/><path d="M50.637 113.926c-5.163-8.537-10.595-16.835-17.383-23.923 6.788-7.088 12.22-15.386 17.383-23.923C55.8 74.617 61.232 82.915 68.02 90.003c-6.788 7.088-12.22 15.386-17.383 23.923Z" id="path7072-0"/><path d="M102.172 80.955C97.01 72.417 91.577 64.12 84.79 57.03c6.788-7.088 12.22-15.385 17.383-23.923 5.163 8.538 10.595 16.835 17.383 23.923-6.788 7.089-12.22 15.386-17.383 23.924Z" id="path7074-4"/><path d="M50.637 245.782c-5.163-8.537-10.595-16.835-17.383-23.923 6.788-7.088 12.22-15.386 17.383-23.923 5.163 8.537 10.595 16.835 17.383 23.923-6.788 7.088-12.22 15.386-17.383 23.923Z" id="path7084-9"/><path d="M153.708 245.79c-5.164-8.538-10.595-16.836-17.383-23.924 6.788-7.088 12.22-15.386 17.383-23.923 5.163 8.537 10.594 16.835 17.382 23.923-6.788 7.088-12.22 15.386-17.382 23.923Z" id="path7086-7"/><path d="M153.708 179.847c-5.164-8.537-10.595-16.835-17.383-23.923 6.788-7.088 12.22-15.386 17.383-23.924 5.163 8.538 10.594 16.836 17.382 23.924-6.788 7.088-12.22 15.386-17.382 23.923Z" id="path7088-6"/><path d="M50.637 179.815c-5.163-8.538-10.595-16.835-17.383-23.923 6.788-7.089 12.22-15.386 17.383-23.924 5.163 8.538 10.595 16.835 17.383 23.924-6.788 7.088-12.22 15.385-17.383 23.923Z" id="path7090-8"/><path d="M102.172 212.813c-5.163-8.538-10.595-16.835-17.383-23.923 6.788-7.089 12.22-15.386 17.383-23.924 5.163 8.538 10.595 16.835 17.383 23.924-6.788 7.088-12.22 15.385-17.383 23.923Z" id="path7092-79"/></g></g></g></svg>