<svg width="227" height="315" xmlns="http://www.w3.org/2000/svg"><g id="Page-1" stroke="none" stroke-width="1" fill="none" fill-rule="evenodd"><g id="Diamonds" transform="translate(11 25)"><g id="J" transform="translate(1)"><path d="M7.845 46.303C5.693 42.746 3.43 39.288.602 36.335c2.828-2.953 5.091-6.41 7.243-9.968 2.15 3.557 4.414 7.015 7.243 9.968-2.829 2.953-5.092 6.41-7.243 9.968Z" id="path7130-4" fill="#D40000"/><path d="M194.958 237.554c-2.152-3.557-4.415-7.014-7.243-9.968 2.828-2.953 5.091-6.41 7.243-9.968 2.15 3.557 4.414 7.015 7.242 9.968-2.828 2.954-5.091 6.411-7.242 9.968Z" id="path7134-0" fill="#D40000"/><path d="M50.095 56.99C44.932 48.453 39.5 40.155 32.712 33.067c6.788-7.088 12.22-15.386 17.383-23.923C55.26 17.68 60.69 25.979 67.478 33.067c-6.788 7.088-12.22 15.386-17.383 23.923Z" id="path7136-1" fill="#D40000"/><path d="M152.706 254.79c-5.163-8.538-10.595-16.836-17.383-23.924 6.788-7.088 12.22-15.386 17.383-23.923 5.163 8.537 10.595 16.835 17.383 23.923-6.788 7.088-12.22 15.386-17.383 23.923Z" id="path7154-5" fill="#D40000"/><path d="M20.131 263.118V.803h162.54v262.315H20.13ZM78.645 44.42c-5.812-1.587-5.671 4.197-1.415 4.412 4.769.412 6.81-7.73 4.534-10.94 0 0-1.982 6.134-3.119 6.528ZM40.932 77.122l-6.98 3.12-.029 5.221c2.911-2.32 5.186-5.149 7.008-8.34Zm47.642 156.869c-1.373-.695-3.03-2.187-2.775-2.45.126-.13.87.106 1.545.41 5.455 2.303 9.689 2.154 16.194-.21.492-.18 1.227.76.953 1.277-2.88 4.269-12.201 2.751-15.917.973Zm-2.876-6.406c-1.252-1.885.41-.456.967.078 4.035 3.76 9.504 5.035 14.198 1.491.218-.243.247-.468.182-.637-.133-.347-.135.023-2.142.72-4.505 1.69-8.302.302-12.005-2.537-1.525-1.178-2.234-1.758-2.234-2.066 0-.283.285-.459.798-.37.318.054 1.205.24 1.854.292 1.127.093 1.04.045 2.196-.49 2.468-1.141 4.743-1.558 7.322-1.095.598.107 1.348.305 1.45.271.578-.193-.274-.956-2.46-2.693-.43-.341-.966-.634-1.144-.93-.275-.461.025-.583.337-.58.899.011 4.938 3.395 6.323 5.402.42.611.712.676.713 1.312-.08.659-.186 1.29.527 2.214.51.663 1.005 1.728 1.01 1.78.01.058-.102.391-.57.082-.213-.04-.317-.268-.707-.212-.34.05-.893.317-1.5.605-5.66 3.647-10.871 1.867-15.115-2.637Zm12.398-.255c.114.011-.39-2.085-.96-2.703-1.124-1.22-2.838-1.441-3.873-.194-.583.702-1.223 2.659-1.223 2.659s.907.267 1.16.267c.037-.438.04-1.664.94-2.382.444-.35 1.399-.34 1.771-.049.739.363 1.05 1.833 1.06 2.405.404.126 1.334.012 1.125-.003Zm-6.842-3.02c-.798.356-1.835.596-2.073 1.132-.314.706.794.919 1.37 1.156.798.386.816.245 1.074-.37.161-.386.373-.887.576-1.348.597-1.155 0-.994-.947-.57Zm8.635 2.006c.459-.46.545-.764.135-1.286-.185-.237-.714-.478-1.29-.672-.74-.249-1.062-.551-.598.452l.663 1.434c.34.686.64.504 1.09.072Zm-75.51-48.962c.28 0 3.066-.915 4.057-1.357.983-.376 1.1-.365.71-.91-.147-.204-.266-.78-.195-1.41l.074-.88c-1.717-.35-4.28.602-5.162 1.805-.627.769-.563 2.48.516 2.752Zm-.35 4.292c.522.522.666.541 2.231-.041.548-.368 1.695-.827 2.499-.88 1.886-.502 1.887-.304 1.352-1.514-.246-.557-.326-1.017-.25-1.532.093-.61.165-.693-.179-.8-.901-.283-5.098 1.289-5.85 2.512-.529.86-.458 1.598.197 2.255Zm97.595 41.45c.08.966.1 2.466.103 3.272-.039 1.573.59 1.938 1.259 1.077.661-2.051.926-5.292 2.503-6.931 1.17-.34 2.607.259 3.443-.554 1.922-1.867.415-3.975-1.344-4.127-3.604-.069-6.218 4.321-5.964 7.263Zm8.789-5.035c.125 1.992-1.857 3.35-3.871 2.888-.816-.206-1.061-.019-1.609 1.149-1.188 3.202-1.658 6.414-1.973 8.516-.136 1.89-.829 6.811-.327 8.38 5.741 7.108 11.786 14.514 18.404 21.83h39.48v-46.44l-11.313-10.834.022-17.174c-12.238 5.778-24.439 11.635-36.653 17.462 2.662 8.554-6.363 10.347-8.342 4.614-1.713 1.574-3.117 10.066-2.486 10.485 0 0 .227.307.606-.369.625-1.112 1.441-1.931 2.315-2.473 2.544-1.578 5.572-.8 5.746 1.966Zm-31.329-.867c-1.932-1.537-.897-3.884.708-4.587.85-.373 2.215-.322 3.717.209 1.32.607 2.108.522 3.46.355.898-.1.731 1.782-.206 2.268-.66.342-2.175.18-4.017-.87-3.178-1.813-4.574.536-2.606 2.658 1.091 1.17-.777.233-1.056-.033Zm-65.428-28.12c1.698-1.095.993-3.028-.59-3.351-2.13.045-2.672 2.496-1.148 3.343 0 .298-.758.055-1.167-.252-.636-.477-.056-2.34-.647-2.415-.451.008-4.852 1.568-5.327 1.88-1.977 1.123-.122 3.661 1.026 3.371 2.384-.603 5.624-1.14 7.853-2.576Zm-9.837-3.627c.04 1.13.356 1.633 1.097 1.643 1.55-.269 2.99-1.009 4.436-1.478 1.13-.37 1.587-.788.727-1.495-.261-.299-.492-.728-.366-1.543.296-.933.07-.98-.326-1.025-.393-.045-1.291.332-3.597 1.22-1.213.466-1.447.668-1.761 1.337-.141.512-.229.826-.21 1.341Zm12.832 14.589c.267-.314.858-2.284.858-2.771-.12-.811-.722-.995-1.254-.471-.649.58-.474 1.458-.859 2.131-.134.234-.275.559-.236.69.208.708 1.078.838 1.491.42ZM41.7 189.31c19.725-21.048 31.945-50.175 10.568-90.346-1.308-1.288-3.137 2.882-3.367 3.041l-2.731 2.385c14.47 25 11.957 53.76-5.736 74.21l.02 1.297c.041 2.856.862 2.732 2.061 1.396 1.27-1.342.42-.249-.098.304-.448.474-1.16 1.42-1.35 1.666.233 1.713 1.31 4.907.632 6.047Zm-1.31-6.324c-.202-.568-.418-1.867-.529-2.867-.067-.651-.095-1.266-.129-1.902-.209-1.265-.724-4.168-1.143-4.808-.45-.69-1.553-1.194-2.784-1.273-1.051-.068-1.138-.05-1.362.294-.385.59-.121 3.562.27 4.651.44 1.279.181 1.973-.176 3.24-.125.459-.17.49.055.523.985-.07 1.312-1.28 1.702-.919.13.132-.21 1.125-.67 2.128-.485 1.058-.629 2.516-.053 4.309.323 1.004.186 1.321-.01 1.927-.13.405-.358 1.645-.365 2.88.46 1.547.228 2.24-.042 2.75-.587 1.314-1.04 3.093-.725 4.092.139.439.5.064.766-.687.414-1.483.897-1.813 2.113-1.814.885 0 .968.311 1.261-.086.665-.9 2.288-4.091 2.32-4.98.627-2.27.658-4.218-.5-7.458h.002Zm9.434 14.9c.536-.205 1.36-1.34 1.361-1.732 0-.431-3.307-3.654-4.684-4.543-.624-.403-.92-.117-2.024 1.37-.98 1.322-1.108 1.333-.926 1.588.218.306 3.589 2.502 4.708 3.125.387.215 1.043.39 1.565.192Zm6.198-5.736c-.493-.38-4.451-4.777-5.626-4.995-.447-.083-1.879 1.55-1.879 1.92 0 .256 2.472 2.777 4.223 4.308.5.438 1.053.796 1.228.796.557-.286 1.984-1.44 2.054-2.03Zm4.206-4.148c0-.26-.437-.797-1.502-1.846-2.715-2.671-4.227-3.894-4.703-3.89-.52.173-1.46 1.758-1.516 2.31.177.33 4.718 4.457 5.306 4.857.725.702 2.314-.934 2.415-1.431Zm4.259-4.26c.116-.393-.111-.728-.686-1.28a518.955 518.955 0 0 1-3.218-3.156c-2.855-2.819-2.861-2.821-3.779-1.504-.944 1.356-.939 1.367 1.845 4.088 2.967 2.9 3.663 3.489 4.123 3.489.704-.325 1.47-.868 1.715-1.638Zm-31.827-2.546c-.497-.149-.954-.06-1.345.252-2.104 1.792.88 4.099 2.108 2.66.817-.808.784-2.544-.763-2.912Zm36.197-1.876c0-.3-.613-.973-2.735-3.003-5.25-5.021-5.014-4.83-5.596-4.518-.364.195-1.069 1.545-1.069 2.046 0 .376.505.896 4.396 4.537 2.282 2.135 2.957 2.674 3.35 2.674.622-.308 1.627-.976 1.654-1.736Zm-36.063.19c1.03-.45 1.223-1.568.638-2.451-1.121-.99-2.68-.173-2.706 1.104.194 1.196 1.207 1.7 2.068 1.346Zm40.377-4.406c0-.6-8.99-9.023-9.63-9.023-.434 0-.745.352-1.153 1.306-.354.828-.319 1.317.127 1.747.65.626 2.383 2.226 4.03 3.72.975.885 2.095 1.94 2.49 2.347.924.95 1.942 1.687 2.332 1.687.557-.326 1.33-.767 1.804-1.784Zm-40.848-1.086c.01-.339-.078-.684-.32-.941-.617-.658-1.764-.312-2.052.56-.262 2.05 2.288 2.141 2.372.38Zm6.658-65.56 1.758-5.386 5.372-.139.753-5.354 5.53-.798.088-5.532 5.289-.723-.327-5.925 4.905-1.163-.244-5.485 4.457-1.37-.178-4.774.766-.601-1.928-1.964-1.66.54-.03 4.907-4.45 1.435.468 5.43-4.5 1.027-.056 5.903-5.169.582-.37 5.208-5.041.995-.752 5.102-4.894.333-1.493 4.484-3.233.038v3.001l4.939.229Zm58.45 96.368c-.168-.404.272-.344 1.04.142.804.509 1.975.933 2.807.935.346 0 1.586-.221 2.754-.493 1.396-.513 2.633-.543 4.083-.23 1.078.146 2.163.264 2.412.262.72.1 1.94-.79 2.268-1.35.886-1.52.675 1.24.679 1.555.016 1.414.192 3.039-.819 2.283-.597-.31-1.641-.585-2.475-.027-.839.561-1.533.68-2.516.088-.807-.319-1.233-.386-1.837.176-.673.626-2.304.403-3.179.116-1.503-.25-2.344-.47-3.35.329-.538.309-.676.079-1.08-1.114-.405-1.193-.725-2.523-.787-2.672Zm3.825-.997c-.095-.154.711-.946 1.256-1.228 1.598-.828 4.774-.791 7.045.05 1.184.437 1.367 1.187.215 1.03-2.396-.504-5.403-.919-7.719.186-.181.097-.752.035-.797-.038Zm2.028-3.75c-1.64-.61-2.444-1.259-2.444-1.465 0-.223.352-.182 1.64.17 1.756.653 3.83.997 5.562.39 1.246-.462 1.867-.754 1.867-.477 0 .294-.514 1.058-1.37 1.498-1.703.696-3.95.365-5.255-.117Zm35.573-4.562 1.216-.167-.423-5.085 4.48-1.332-.314-5.057 4.775-1.647-.285-5.692 4.961-.98.647-4.98 4.684-.335.97-5.42 5.032-.173 1.037-4.505 3.348-.021-.015-2.53-5.215.016-1.105 4.876-4.921.142-1.045 5.356-5.16-.038-.66 5.773-4.854.797v6.216l-4.681 1.217.362 5.315-4.676 1.71.529 5.072 1.313 1.472Zm31.277-119.32c-.67.478-.923 1.425-.716 2.195.66 1.744 2.98 1.2 3.254-.068.137-.55-.227-1.38-.86-1.561-.112-.032-.505.005-.71-.207-.149-.153.774-.627 1.318-.447.68.225 1.234 1.124 1.235 1.903 0 .302-.084.75.025.9 1.123-.027 2.408-.646 3.61-.98 2.033-.564 2.769-1.732 2.318-3.1-.376-1.141-1.54-1.593-3.07-1.016-2.102.792-4.567 1.17-6.404 2.382Zm-86.8 124.844c6.885-4.847 10.94-7.616 19.775-8.094-3.152-1.3-3.667-3.006-4.553-4.64-10.946 1.037-16.759 4.54-21.96 7.809 2.15 1.014 4.393 2.193 6.738 4.925Zm38.376-6.722c-3.339-2.364-7.312-3.793-11.432-4.897l-3.16 3.28c-.183-.118 9.147.094 14.592 1.617Zm32.055-31.107c-21.533-33.151-7.068-62.323 7.904-80.91.48-.61.598-.641.49-1.126-.144-.64-.32-3.862-.21-5.723-27.676 27.482-28.385 63.284-11.026 91.697 1.24-1.111 3.743-2.59 2.842-3.938Zm3.229-2.836c-3.535-5.897-22.361-37.83 6.393-73.456 0 0-.098-1.816-.313-2.499-.386-1.223-.986-1.716-.986-1.716-12.077 18.164-29.63 40.893-7.707 80.365l2.613-2.694Zm-16.464-60.102c.43-.352 1.055-1.63 1.055-2.157 0-.47-.338-.863-3.582-4.161-4.325-4.396-5.07-5.068-5.624-5.068-.523 0-1.888 1.297-1.888 1.794 0 .238 1.272 1.611 4.276 4.615 5.573 5.574 5.31 5.347 5.763 4.977Zm3.983-8.096c0-.265-.401-.79-1.349-1.767-2.5-2.578-6.064-5.846-6.377-5.846-.399 0-1.49.885-1.776 1.44-.202.39-.198.48.038.85.442.69 6.02 5.994 7.605 7.328.952.876 1.813-1.339 1.859-2.005Zm2.155-3.289c.442-.237 1.28-1.806 1.179-2.208-.047-.187-1.462-1.712-3.144-3.39-3.328-3.317-3.521-3.437-4.35-2.694-.752.673-1.222 1.347-1.13 1.618.114.33 5.095 5.404 6.113 6.225.804.65.898.682 1.332.449Zm25.39-.246c1.565-1.504-.208-3.154-1.495-2.392-.548.339-.874 1.079-.706 1.57.278.816 1.382 1.262 2.202.822Zm3.098-.384c2.646-.696 3.914-1.161 4.468-1.988.384-.572.428-.924 0-1.857-.398-.86-.863-1.124-2.521-.214-1.139.625-3.675.925-4.561 1.45-.355.306-.182.302.103.484.638.406.95.682.88 1.22-.15 1.169-.03 1.348 1.635.905h-.004Zm-2.802-4.157c1.285-.659 1.025-2.249-.41-2.88-1.895-.5-3.115 1.785-1.564 2.898.415.292 1.47.24 1.974-.018Zm4.27-.644c1.858-.638 2.573-1.138 3.11-2.167.424-.815.243-1.18.187-1.968-.086-1.195-.685-1.059-2.417-.433-.845.327-4.891 1.468-4.948 1.883 1.953 1.119 1.454 1.709 1.47 3.136.103.325 1.02.092 2.599-.451Zm-25.332-1.903c0-.54-5.192-5.635-5.742-5.635-.858 0-2.086 1.335-1.902 2.068.083.333 4.952 5.243 5.56 5.607.85.498 2.03-1.228 2.084-2.04Zm2.985-3.177c.224-.176.62-.632.882-1.013.56-.815.52-1.27-.149-1.7-.245-.157-1.333-1.144-2.42-2.193-1.085-1.05-2.114-1.96-2.285-2.023-.895-.119-2.513 1.318-2.345 2.053.096.385 4.076 4.312 4.964 4.898.574.38.85.375 1.353-.022Zm7.031-7.59c0-.145-.903-.727-2.35-1.515-4.422-2.407-4.498-2.424-5.88-1.296-.473.387-.861.828-.861.98 0 .154.958 1.184 2.18 2.342 2.536 2.403 3.16 2.922 3.513 2.922.73-.537 3.285-2.766 3.398-3.433Zm6.19-2.263c.545-.654 1.159-2.924.867-3.381-.268-.269-.957-.228-1.288.072-.34.31-1.182 3.161-1.052 3.5.131.344 1 .183 1.473-.19Zm-48.306 96.624c.418-.057 1.238-.569 2.43-1.595 1.273-1.096 5.308-3.535 5.746-4.516.197-.557.054-1.357-.367-1.418-.32-.046-.388.199-3.07 2.136-1.81 1.308-4.99 3.644-5.468 4.139-.208.53.261 1.198.729 1.254Zm-.376 15.615c2.762-1.92 5-3.91 8.6-6.133.278-.367.32-.914.151-1.361-.21-.553-.5-.335-1.59.424-2.653 1.791-5.383 3.901-7.67 5.466-.733.497-1.35.773-1.196 1.053.206.37 1.34.483 1.705.55Zm2.686 1.178c1.816-1.489 3.99-2.91 5.93-4.35.271-.272.342-1.187.063-1.562-.22-.297-.037-.242-.574.063-.785.447-5.484 3.656-6.36 4.382-.509.422-.934.634-.807.781.587.379 1.21.612 1.748.686Zm2.283 1.153c.375-.252 3.604-2.32 3.864-2.595.297-.315.211-1.722-.078-1.834-.815.65-5.122 3.279-5.13 3.702.439.395 1.018.758 1.344.727Zm3.453.288c.496-.455.594-.533.605-1.043.019-.924-.21-.885-1.525.057-.918.595-1.477 1.013-1.313 1.37.653 1.023 1.58.216 2.233-.384Zm.356 1.888c.257-.096.26-.229.222-.552-.042-.359-.094-.343-.484-.343-1.045.039-.102.988.262.895Zm-12.572-5.173c.474-1.57 1.14-2.811 2.225-3.988 4.344-3.857 3.017-8.604.274-12.468a330.447 330.447 0 0 0 10.142-15.084l-.011-7.856.41.043C127.92 157.89 128.7 186 128.7 186l3.528 2.696-.475.235c.58-.09-10.272-6.898-16.733-8.833Zm3.188-1.957c3.005-2.272 5.927-4.058 8.906-6.477.317-.262.504-.276.513-.87.017-1.132-.208-1.144-1.321-.345-.494.353-2.3 1.62-4.015 2.779-1.79 1.21-3.447 2.287-3.78 2.673-1.677 1.948-2.296 2.864-2.124 3.143.18.291.52-.024 1.821-.903Zm3.277-5.506c1.544-1.018 5.237-3.587 5.574-3.904.585-.551.687-1.43.159-1.53-.258-.05-3.117 1.86-5.533 3.695-1.176.893-1.438 1.1-1.438 1.942 0 .51.308.411 1.238-.203Zm1.54-4c4.733-3.372 4.611-3.087 4.509-4.343-.035-.424-.129-.617-.317-.652-.147-.028-.984.574-1.926 1.238s-2.065 1.555-2.628 1.947c-1.645 1.144-2.19 1.452-2.19 2.107 0 .646.174 1.054.46 1.054.107 0 1.048-.608 2.091-1.351Zm-.68-2.612c2.18-1.542 4.583-3.283 4.91-3.696.398-.503.326-1.595-.181-1.595-2.188 1.465-4.821 3.39-6.672 4.91-.24.212-.544.415-.64.69-.017.358.43.829.608.843.361.002.916-.402 1.975-1.152Zm-1.42-5.22c1.665-1.13 3.18-2.474 4.832-3.613 1.242-.852 1.594-1.116 1.52-2.186-.043-.618-.585-.263-2.688 1.141-1.542 1.03-2.251 1.437-2.798 2.14-.383.89-1.648 1.724-1.715 2.74 0 .376.248.198.85-.223Zm5.111-6.792c1.279-.849 1.4-.868 1.261-1.995-.173-1.411-.318-1.328-1.54.542-.803 1.23-1.078 1.585-.956 1.814.208.39.438.168 1.235-.361Zm-4.656-10.38c-.136-.628-.328-.492-.972.074-1.184 1.042-1.37 1.796-.633 2.192.392.21.695.186.928-.33.502-1.108.642-1.5.677-1.937Zm-6.634 9.862c-.153-.573-.851-1.354-1.384-1.63-.527-.273-.847-.222-1.351.42-.465.592-.249.943.45 1.828.51.648.718.854 1.12.854.489-.192 1.268-.85 1.165-1.472Zm-25.674 24.73c-.338-.654-1.056-1.345-1.385-1.23-.348.123-.688.624-.692.939.144.642.685 1.078 1.102 1.09.784-.112 1.261-.248.975-.799Zm3.13-.997c-.675-.714-2.012-2.29-2.23-2.29-.343 0-1.16.858-1.16 1.21 0 .417 1.218 2.124 1.623 2.261 1.024-.095 2.904.02 1.768-1.18Zm3.865.2c-.07-.344-3.877-4.398-4.158-4.398-.362 0-1.08.798-1.08 1.166 0 .296 1.23 1.902 2.365 3.091.566.592.616.677 1.309.569.755-.118 1.74.045 1.564-.427Zm6.725-.904c0-.818-.427-1.267-2.146-3.13-.623-.677-1.677-1.851-2.34-2.61-1.285-1.47-1.835-1.92-2.347-1.921-.404-.002-1.024.656-1.024 1.074 0 .269 3.163 3.902 6.028 6.987.636.684.92.884 1.53.558.35-.24.299-.645.299-.958Zm-4.952-9.735c-.643.53-.883.747-.886 1.1 0 .538 5.455 6.549 5.942 6.549.286 0 .242-.04.411-.686.338-1.961-.194-2.537-1.609-3.831-.949-.868-2.861-3.854-3.858-3.132Zm9.628-4.02c-1.524-1.826-2.367-2.666-2.676-2.666-.212 0-.53.204-.871.583-.57.54-.515.521-.155 1.164.188.334.712.99 1.165 1.46.84.868 1.27 1.144 1.675.727.358-.368 1.242-.804.862-1.268Zm-.795-4.556c-.372-.004-.996.667-.996 1.032 0 .309 1.236 1.861 2.098 2.635.698.626 1.027.794 1.512.382.363-.528.281-1.01.055-1.414-.617-.704-1.967-2.604-2.669-2.635Zm4.283.447c-.01-.532-1.569-2.564-2.063-2.767-.41 0-1.281.958-1.281 1.4 0 .237.333.765.9 1.423 1.112 1.294 1.398 1.58 1.64 1.377.397-.331.813-.911.804-1.433Zm1.76-2.288c.103-.446-.173-.906-.796-1.69-.778-.98-1.16-1.045-1.895-.287-.27.28-.397.525-.397.661 0 .374 1.634 2.454 1.937 2.454.701-.087.915-.598 1.151-1.138Zm-2.874 5.152c-.146.671-.428 1.11-1.074 1.421-4.988 3.601-4.827 9.468-5.892 14.886-8.076-.082-20.844 3.238-20.765 3.412l42.92-43.382s.533.132.207.512c-3.474 2.502-3.257 7.367-5.542 9.803-3.817 4.622-7.364 8.631-9.854 13.348Zm-23.296 17.72c.07-.49-.38-.624-.774-.23-.386.387-.233.689.316.625.289-.033.424-.15.458-.395Zm13.228-1.824c.158-.412-.218-.798-2.519-3.356-2.329-2.589-2.857-3.195-3.26-3.195-.342 0-1.176.848-1.176 1.195 0 .16.366.684.814 1.166a118.64 118.64 0 0 1 1.887 2.103c1.018 1.163 1.501 1.724 1.888 1.995.38.266.668.252 1.277.252.835 0 1.017.027 1.089-.16Zm3.978-8.14c.159-.51.384-.96.386-1.151 0-.356-2.938-3.358-3.435-3.68-.595-.386-1.714.873-1.435 1.608.076.203.951 1.233 1.943 2.29 1.261 1.343 1.892 1.976 2.097 1.945.21-.033.238-.35.444-1.013Zm1.23-3.156c.215-.317.39-.735.39-.93 0-.22-.492-.817-1.195-1.61-1.311-1.476-1.648-1.647-2.366-.958-.714.686-.472 1.003.785 2.43 1.573 1.787 1.752 2.003 2.386 1.068Zm11.24-14.102c.49-.583.5-.871.052-1.403l-.615-.734c-.404-.484-.937-.404-1.488.224-.263.3-.437.603-.436.706 0 .104.283.518.628.921.776.907 1.255 1.005 1.859.286Zm1.722-2.226c.333-.509.183-1.067-.44-1.637-.589-.539-.882-.562-1.296-.1-.553.615-.464.821.13 1.48.673.746 1.213.858 1.606.257Zm1.38-1.846c.46-.461.452-.855.04-1.38-.387-.492-.786-.626-1.193-.408-.707.38-.632 1.03.064 1.765.422.446.62.493 1.09.023Zm-32.84 92.537c8.79.987 18.233 1.676 34.88-.915l.084-5.661c-5.192 4.057-12.008 1.276-12.4-3.394-.047-4.162 1.062-8.963 1.997-12.387.696-2.544.895-3.526.243-4.021-1.436-.81-3.985-.913-4.636-2.604-.312-.892-.341-1.847.115-1.167.21.313 1.867 1.085 3.162 1.375 2.254.504 2.617.672 2.873 1.6.16.585-.21 2.607-.804 4.431-.426 1.306-.922 3.403-.922 3.809 0 .441.346.514.733.39.167-.052.959-.847 1.458-1.293 2.166-1.936 2.794-1.878.944.016-.735.753-1.75 1.792-1.75 1.871 0 .401.376.355 1.207.054 1.28-.463 4.283-.407 5.62.265 1.66.836 1.73.8 1.692-1.735-.299-4.735-1.069-10.339-2.609-14.711-2.348-6.67-7.226-12.857-14.433-12.579-8.784.459-14.085 3.964-20.061 8.162 3.61 8.023-1.607 14.169-3.497 14.98-.182.078 2.366 8.155 3.454 12.259.988 3.728 2.65 11.255 2.65 11.255ZM123.88 46.97c-.204-.527-5.09-16.483-6.457-23.156-13.21-.77-22.98-1.869-34.612 1.44 0 0-.252 4.496-.13 4.714.118.555.518.542.845.36 5.373-2.958 11.196-1.625 11.6 5.67.155 2.785-.78 4.748-.95 7.39-.149 2.308-1.96 5.384-.862 7.137.14.215.914.64 1.972 1.094 1.973.846 2.745 1.623 2.89 2.915.215.892-.33 1.49-.494.575-.104-.581-.206-1.093-2.64-1.929-2.374-.814-3.014-1.758-3.25-2.255-.327-.686-.266-1.172.04-2.265.65-2.325 1.29-4.697 1.231-5.817-.02-.403-.467-.207-1.036.278-.724.617-3.82 2.658-3.906 2.571-.04-.04.511-.863 1.377-1.693 1.051-1.007 2.36-2.227 2.36-2.45 0-.397-.155-.121-1.174.182-1.776.49-3.823.42-5.2-.19-1.166-.514-1.985-.812-2.158-.531-.433 7.106.62 14.43 3.596 20.144 2.666 5.192 8.205 11.693 16.536 10.234 8.608-1.507 16.982-8.444 16.681-8.452-3.212-7.288.448-12.715 3.742-15.966ZM55.647 240.958c-3.813-3.827-13.427-7.99-20.035-9.901-.53-.115-1.05-.367-1.054.26l-.077 13.136-11.883 11.088v5.284h25.336l16.631-24.426s.802-.144.89-.294c-3.052-12.973-7.65-23.334-10.57-28.528.049.065-4.199 3.44-7.935-.756-2.096-2.354-.81-6.489 1.18-8.004-1.679-1.237-5.155-3.48-7.435-4.126-.474-.116-1.18.844-1.412 1.714-.416 1.413-1.109 2.677-1.574 4.102-.51 1.19-1.003 1.37-1.766 1.035-1.187-.353-1.502-.476-1.502-.476l.039 15.441c9.114 3.169 18.497 11.288 21.168 24.45ZM93.534 75.945l2.7-2.939c-4.272-.525-8.75-1.29-13.992-2.94 3.64 2.711 7.45 4.389 11.292 5.879Zm-14.841-8.267c4.763 1.59 10.788 5.3 18.313 3.904-6.859-2.727-12.068-9.096-14.287-22.064-.485 2.517-1.488 7.751-3.068 8.318-2.22-8.607-11.143-3.602-7.565 3.417-9.044 6.226-19.919 9.74-29.781 14.542 0 0-1.485 4.565-8.873 10.819-1.395-7.332.267-18.21-.598-25.577l-11.582-10.96c.177 2.087.096 3.382 0 5.826.317.426.757.649 1.203.915.748 42.238-.258 83.991-.25 122.355-.114 23.51.507 48.007.163 70.205l-.433.803.018 5.306 11.827-11.283s-.55-8.007.07-14.124c7.463 1.505 14.424 5.02 20.665 8.874.786.218-3.83-15.372-20.614-22.296 0 0-.023-4.87-.023-15.454 0-10.212-.159-11.293-.385-11.459-.68.74-9.269 3.64-9.704 3.15.23.076-2.422-18.076-.13-20.833l8.217.173c2.35 1.901 1.406-.414 2.77-.795.819-.22 4.62 1.263 4.62 1.263 15.66-18.522 14.095-48.983 2.856-66.122-2.879 2.343-5.94 5.518-8.827 6.881-.035-.1-.053-9.45-.053-9.45 14.964-9.623 31.24-37.5 30.203-37.594 0 0 4.633 4.522 6.431 7.079L55.105 94.932c3.384 6.826 6.806 13.016 9.027 19.019.3.812 1.226.789 1.459 1.643.199.73-.69 1.744-.568 2.55 3.117 11.945 3.824 24.62.749 36.103-.648 2.585.54 4.68 2.127 6.624.131.17-1.48-1.397-1.624-1.483-.552-.333-1.473.833-1.667 2.304.127.902.616 1.06 1.263 1.791 1.14.95 5.668 5.418 7.663 7.459 1.772 1.812 2.23 1.894 3.424.608.337-.315.687-.744 1.013-1.01.06.098.502-.362.653-.509l26.675-26.088c3.1-3.03-26.636 27.373-26.636 27.373s-14.42 14.183-17.957 17.68c-3.653 3.611-4.147 4.401-4.293 4.67-.26.479 1.179.466 1.833.368.053-.008-.55.14-1.158.135-3.756-.51-5.035 3.318-7.402 4.156-6.263 4.456-2.052 11.612 3.932 9.25l1.458-.703c3.627 6.75 8.858 19.044 11.313 29.73l-.99.459-15.778 23.715h89.483c-6.428-6.41-11.895-14.282-17.463-20.173-8.924 2.674-35.908 2.128-35.482.966 0 0-4.086-16.573-6.396-24.715 7.335-6.295 6.583-16.225-4.066-20.683 7.753-6.133 15.557-8.212 23.166-8.71 2.471 6.29 8.273 6.686 11.012.927.018-.064 10.29 3.163 14.076 6.657-5.615-.583-11.16-1.703-16.779-1.971 4.946 1.956 9.98 7.067 11.594 12.91.79 2.088 1.998 8.978 2.317 9.003 0 0 1.875-7.958 3.328-7.52 3.706 7.749 10.096 1.92 7.404-4.253 9.438-4.514 20.058-9.556 28.742-13.74 2.534-3.828 8.765-11.1 9.174-11.131 0 0 11.461-65.787 11.458-87.779-.38-26.439.46-55.869-.677-80.598v-7.04h-24.148l-17.281 25.403s-.13.404-.127.579c2.358 10.273 5.384 19.016 10.132 28.507 6.552-4.959 12.074 3.206 7.16 7.947-.922.89-.675 1.115.247 1.734.91.611 7.13 3.745 7.418 3.745 1.125-1.673 1.451-4.146 2.21-6.034.19-.72.732-.808 1.816-.68 1.393.164 1.386.744 1.34-8.135l-.04-7.626c-8.402-3.877-19.524-13.734-20.043-23.985 4.858 3.541 16.018 8.69 18.999 9.15 1.309.367 1.107-1.919 1.148-2.836.355.237.483 3.769.483 3.769-4.93-1.493-7.514-1.189-19.82-8.334 2.11 10.083 12.187 18.035 19.494 21.661 0 0 .306 4.788.29 10.153-.046 16.36.117 17.08.117 17.08 0-.009 4.021-1.027 5.137-1.582 1.994-1.6 5.19-.373 5.631.805.649 6.174.025 11.898-.112 17.794-3.406.243-5.271.961-6.951 1.03-1.092-.146-1.756-.153-2.315-.775-1.626-3.52-1.52-1.288-1.718 1.355-.15.783-4.221-.579-4.627-.815-17.584 20.281-16.086 43.63-4.144 65.252 1.973-1.334 5.37-3.88 8.766-5.551.082 2.75.129 8.414.129 8.414-13.765 10.118-30.25 36.927-29.693 37.002l-5.593-6.69s3.52-5.608 4.762-7.09c.144-.17.237-1.91.237-1.91l8.546-12.38c-3.645-8.264-8.645-14.613-9.932-22.686-5.701-25.81.477-38.647.02-39.625 0 0-.075-.516-.196-.617-.187-.155.049-.305.258-.673.407-.715 1.055-2.182.834-2.616-.164-.32-4.787-4.953-8.751-8.767-2.086-2.007-2.003-2.236-3.08-1.14-.4.406-1.382 1.562-1.382 1.562-14.322 13.277-25.688 25.366-40.061 39.5l-.69-.629c20.908-20.822 42.01-41.436 62.715-62.46l-3.642.062c.103-.265.254-.511.466-.583 1.952.002 3.96-.591 5.412-1.417 2.953-2.198 7.192-5.141 7.524-8.04-.212-5.58-4.91-6.389-8.301-3.66-4.716-8.486-8.448-18.695-10.447-28.224-.095-.473-.76-1.29-.859-1.83 1.01-3.164 17.023-25.027 17.023-25.027H64.95l17.114 20.419c0-.815 24.39-3.7 35.56-.293l6.803 24.212c-6.18 5.986-8.007 15.83 3.359 20.955.221.48-1.078 1.27-1.078 1.27.181-.295.495-.6.368-.872-3.063-1.342-6.343-4.739-6.343-4.739-6.838 5.352-13.229 8.332-19.49 8.596 0 0 3.306 2.245 3.944 4.712 0 0-.306-.037-.387-.136-.679-.831-2.238-3.52-3.553-4.31-2.228-.536-3.547-.147-5.305 1.068L93.56 76.2c-5.463-1.665-11.53-4.388-14.873-8.522h.006Zm-.914 59.258 2.493-2.465c.285-1.83.78-4.156 2.887-6.689 2.337-2.81 4.92-5.452 6.823-7.954 2.284-3.006 3.525-5.726 2.924-6.987 3.405-.614 6.531-3.625 6.63-9.09.04-2.871 1.424-7.059 1.528-7 0 0 23.768-.81 40.118-16.428 0 0 1.146.25.877.457-6.195 6.217-12.784 10.8-20.57 13.72l-42.95 42.985-.76-.55Zm4.755-4.932c.642-.644.786-.854.423-1.156-.554-.461-1.62.49-1.62 1.444 0 .607.48.43 1.197-.288Zm2.223-2.19c.51-.49.492-.847.07-1.27-.58-.582-1.425-.224-1.708.714-.286.945.836 1.325 1.639.555Zm1.957-1.984c.263-.3.479-.607.479-.683 0-.333-.82-1.087-1.182-1.087-.46 0-1.284.775-1.284 1.21 0 .362.827 1.106 1.229 1.106.154 0 .495-.246.758-.546Zm1.845-3.693c-.584-.493-.969-.497-1.45-.014-.56.561-.503 1.178.166 1.767.508.53.726.479 1.413.054.576-.59.68-1.14-.129-1.807Zm2.166-.33c.632-.532.542-.97-.148-1.66-.725-.727-1.284-.732-1.8.038-.194.288-.23.578-.23.66 0 .282 1.197 1.349 1.512 1.349.173 0 .405-.167.666-.386Zm2.082-2.06c.537-.562.468-.963-.302-1.757-.648-.669-1.098-.72-1.669-.19-.59.548-.468 1.127.198 1.793.674.676 1.174.78 1.773.154Zm2.36-2.392c.394-.418.288-.385.01-.838-.433-.7-1.694-1.861-2.052-1.861-.452 0-.847.723-.843 1.435 0 .709.348.997 1.245 1.704.596.47.414.512.872.243.254-.15.6-.457.769-.683h-.002Zm1.871-1.714c.845-.964.684-1.15-1.355-3.303-.692-.73-.836-.813-1.33-.772-.47.04-.501.155-.743.652-.446.914-.115 1.378 1.167 2.745 1.321 1.408 1.516 1.528 2.261.678Zm2.09-2.25c.327-.287.546-.62.546-.833 0-.376-1.652-2.211-2.242-2.55-.418-.239-.854-.103-1.396.363-.325.28-.317.348-.24.657.127.504 2.25 2.747 2.6 2.746.146 0 .433-.12.733-.383Zm2.074-2.015c.351-.359.629-.793.629-.982 0-.405-1.78-2.469-2.331-2.758-.468-.245-.74-.143-1.203.507-.532.75-.324 1.091.732 2.31 1.002 1.157 1.323 1.507 1.51 1.507.061 0 .318-.231.663-.584Zm1.958-2.11c.45-.274 1.037-.851.799-1.322-.253-.483-3.369-3.792-3.705-3.972-.657-.353-.638.156-.638 1.795v.85l1.434 1.408c2.09 2.05 1.624 1.55 2.11 1.24Zm2.535-2.331c.247-.248.481-.667.478-.822-1.293-1.578-5.055-6.569-5.735-6.384-.07.019-.1.022-.148.165-.168.5-.237 1.534-.12 2.371 1.188 1.144 3.988 4.867 4.621 5.097.379.146.546-.068.904-.427Zm2.021-2.125c.238-.228.432-.537.432-.687 0-.15-.418-.674-.863-1.2a136.41 136.41 0 0 1-1.936-2.362c-3.544-4.429-3.801-4.76-4.342-4.31-.356.295-.441 1.34-.263 1.73.308.672 4.179 5.35 5.427 6.557.793.767.95.843 1.545.272Zm2.04-1.958c.302-.286.55-.665.55-.842 0-.178-.572-.899-1.17-1.603a184.719 184.719 0 0 1-2.216-2.67c-1.59-1.96-1.603-2.03-2.79-2.153-1.798-.185-1.558.212.48 2.594.492.577 1.424 1.715 2.069 2.53 1.51 1.907 2.177 2.61 2.476 2.61.132 0 .297-.18.6-.466Zm2.078-2.04c.922-.778.74-1.033-2.258-4.135-.983-1.017-1.053-1.178-1.817-1.178-.768 0-1.015.158-1.015.531 0 .229 3.905 4.88 4.19 4.994.384.154.429.185.9-.213Zm2.185-2.242c.246-.264.447-.605.447-.758 0-.334-.848-1.413-1.642-2.111-.373-.327-.84-.666-1.142-.666-.51 0-1.384.29-1.535.534-.097.158 1.063 1.593 2.203 2.797.755.797 1.05.867 1.669.204Zm1.918-1.907c.482-.483.478-.926-.015-1.574-.358-.47-.466-.517-1.202-.517-1.395 0-1.435.358-.355 1.514.802.86 1.023 1.127 1.571.577Zm2.053-2.023c.542-.691.078-1.07-.812-.664-.211.096-.324.347-.368.463-.275.718.658.865 1.18.2Zm-34.287 5.84c-1.983 1.254-5.315 3.634-7.58 5.224-.06.34-.104 1.21 0 1.886 1.283-.875 5.412-3.517 7.286-5.006a44.96 44.96 0 0 0 .292-2.105h.002Zm3.637-5.765c-.067-.338-.289-.124-.876.374-.768.65-7.288 5.49-9.02 6.708-.658.463-1.277.854-1.348 1.017-.067.153-.13 1.468.12 1.799 1.412-1.08 8.115-5.585 8.216-5.74.692-1.108 2.238-3.041 2.908-4.158Zm-.747 14.588s-7.997 9.631-10.569 14.43c0 0-.017 5.488-.092 8.648l-.435.123s-.037-8.471-.146-17.665c-.27-22.974-.494-28.552-.494-28.552l-2.598-1.905-.107-.904s11.522 8.084 17.145 9.373c-4.108 6.45-7.906 8.939-2.704 16.452Zm-9.49 11.519c.16-.387.05-.369-.28-.354-.242.01-.38.235-.39.48-.013.282.012.348.23.307.157-.03.363-.247.44-.433Zm1.923-2.855c1.15-1.42 2.102-2.34 2.273-3.385-.737.123-4.98 3.102-5.047 3.418.041 1.577-.318 1.767.977 1.07.569-.308 1.029-.69 1.797-1.103Zm.363-3.518c1.237-1.03 5.746-3.46 6.263-4.658.2-.55-.443-1.066-.544-1.015.081.072-6.458 3.998-8.843 6.057-.213.265-.158.718-.016 1.092.262.69.783.13 3.14-1.476Zm-1.5-1.894a512.846 512.846 0 0 0 5.316-3.652c1.346-.937 1.614-1.251 1.128-1.946-.193-.276-.456-.44-.9-.245-3.895 2.717-4.231 3.177-7.187 5.08-.2.535-.15 1.333.158 1.616.225.013.601-.263 1.484-.853Zm-.016-2.932c3.548-2.571 5.462-3.871 5.588-4.155.139-.313.18-1.536-.052-1.667-1.32 1.007-4.85 3.17-7.261 5.13-.063.403-.136 1.307.059 1.502.49.203.635-.063 1.666-.81Zm-.423-9.282c2.583-1.92 4.97-3.59 7.658-5.389 2.278-1.515 2.658-1.853 1.784-2.306-.3-.155-.907-.402-1.296-.27-3.027 2.448-6.39 4.79-9.599 7.17-.078.355 0 1.052-.019 1.366-.03.486.61.071 1.473-.57Zm-.355-2.738c.212-.187 1.564-1.085 3.005-2.13 3.863-2.8 4.319-3.073 4.319-3.37 0-.814-1.115-.987-2.13-.159-1.862 1.52-6.309 4.289-6.32 4.681-.015.58-.112 1.15.056 1.403.214.322.526.053 1.07-.425Zm1.115-3.795c3.931-2.747 3.776-2.62 3.776-3.112 0-.43-.383-.237-.984-.281-.568-.042-.578.118-1.657.934-2.293 1.737-3.133 2.212-3.373 2.725-.076.16-.129.798.01.938.277.278.596-.063 2.228-1.204Zm.26-2.732c.77-.642 1.387-1.113 1.438-1.248.112-.292-.469-.814-.907-.814-.474 0-.843.246-2.019 1.26-1.038.895-1.248.707-1.166 1.212.048.293.053.94.15 1.057.25.303.788-.036 2.504-1.467Zm-1.592-1.774c.831-.7 1.006-.845.4-1.452-.548-.55-1.188-.686-1.525-.349-.187.248 0 1.697-.025 1.987-.033.464.584.292 1.15-.186ZM94.68 66.185c0-.3 1.446-1.36 2.53-1.602 1.384-.308 3.12-.149 4.335.46 1.047.523 2.183 1.782.5 1.016-1.544-.689-4.856-.697-6.055-.141-.89.452-1.31.568-1.31.267Zm-1.075-5.308c.113-.112 1.558.261 2.354.472 2.134.563 3.888.232 6.125-.415.525-.152.786.212.463.479-1.137.788-2.61 1.248-3.882 1.366-2.796.26-5.805-1.17-5.06-1.902Zm-13.713-4.135c1.193-.585 2.65-8.787 2.181-10.198-1.46 2.236-3.099 3.239-5.431 2.851-3.82-.634-3.963-5.345-1.01-5.82 1.178-.189 2.621.59 2.858.408 1.258-.592 2.243-4.826 2.55-6.197.226-1.343.559-5.067.609-6.252.106-2.52.01-6.238.01-6.238l-18.59-22.37H22.603s-.097 31.124 0 47.091l11.246 11.085.146 17.919c12.882-5.633 25.35-11.549 37.557-17.947-1.416-1.695-1.375-5.965 1.206-7.58 3.8-2.379 6.956.77 7.139 3.248h-.005Zm10.206 3.798c.086-1.01.836-1.841.889-2.869 0-.228.185-.494.79-.171.79.42 1.033.124 1.926-.288 1.586-.731 2.04-.715 3.26-.226.79.424 1.033.421 1.773.037 1.013-.67 2.09-.888 2.98-.575 1.33.464 1.792.72 2.55.352.383-.185.86-.88.945-.827.546.812.435 2.09.784 2.81.617 1.221.376 2.096-.351 1.495-1.528-1.262-2.719-1.293-4.912-.75-1.283.32-1.928.567-3.35.398-4.406-.523-4.705-.391-5.6.209-.87.582-1.538.642-1.684.405Zm11.827-8c-1.272-.32-2.726-1.478-3.78-1.168-1.298.088-2.038-1.446-1.372-2.286 1.14-1.112 2.91.01 3.597.531 1.493 1.136 1.706 1.226 2.309 1.226 2.477-.049 2.003-2.368.806-3.214-.71-.747-.781-1.23-.63-1.412.245-.297.952-.047 1.727.77 1.483 1.395 1.518 4.177-.301 5.018-.906.506-1.5.748-2.356.534Zm5.17-8.04c-1.153-.837-3.205-2.716-3.741-3.385-.906-1.13-1.269-1.854-1.155-2.762.087-.706.195-1.127-.258-1.36-.481-.249-.944-1.317-.85-1.877.026-.155.568-.063.897.349.417.067.33-.18.782-.48 4.711-3.169 8.492-2.558 12.962-.38 1.297.624 4.682 3.196 2.869 2.361-.108-.05-1.296-.565-2.495-1.17-3.876-1.86-8.194-2.986-11.71-.596-.606.424-.971.75-.5.75 1.976-.385 3.93-1.209 5.96-1.08 3.027.04 4.859 1.536 7.129 2.57 2.464 1.103 2.94 1.48 2.041 2.39-.253.281-.457.273-1.646.182-1.28-.098-1.386-.061-2.106.4-1.887 1.212-4.337 1.873-6.514 1.69-2.565-.216-2.84-.422-2.892-.052-.034.236.517.646 1.277 1.342.576.529 1.35 1.307 1.418 1.427.214.378-.762.192-1.468-.32Zm-.72-4.112c-.01-.304-.57-1.627-.907-1.968-.324-.328-.578-.2-1.267.286-.518.366-.573.654-.096 1.079 1.013.902 2.28 1.128 2.27.603Zm3.863.182c1.035-.502 2.088-2.282 1.61-2.86-.285-.343-.532-.017-1.075.948-.26.462-.708 1.047-.9 1.182-.845.593-1.961.04-2.431-1.27-.284-.79-.582-1.293-.913-.993-.596.542.079 2.496 1.266 3.002.7.299 1.716.343 2.443-.01Zm3.22-.293c1.05-.324 1.55-.797 1.463-1.256-.073-.38-.83-.828-1.343-.828-.23 0-.68-.01-.842.205-.357.477-.924 1.923-.95 2.079.123.318.478.17 1.672-.2Zm3.628-7.839c-5.236-2.006-9.37-2.81-14.35-.683-1.595.694-2.505.766-2.585.2-.068-.477 1.08-1.891 2.321-2.544 3.476-1.593 7.65-1.743 11.147-.061 1.307.64 4.974 3.252 4.974 3.49 0 .26-.331.058-1.507-.402Zm61.277 58.776c1.247-.659 1.82-1.954 1.057-2.719-.224-.225-.537-.223-.797-.223-.436 0-3.711.88-4.346 1.22-.415.222-.264.61.131.968.183.166.318.52.347.908.037.499-.063.95.267.872.668-.154 1.722-.301 3.341-1.026Zm-4.655 1.202c.356-.648.204-1.537-.73-2.082-.486-.252-.87-.117-1.261.442-.928 1.695 1.375 2.422 1.99 1.64Zm-4.673.795c.2-2.166.103-8.563.103-8.563s-1.163.984-1.896 1.018c.269-.936.56-1.28.978-2.196.24-.971.372-2.69.305-3.671-.073-1.076-.83-1.105-.05-3.038.399-.987.47-2.026-.047-3.25-.222-.603-.294-.95.286-1.715.54-.71.326-1.067.316-2.55-.014-2.054 0-2.388-.622-.73-.928 1.372-1.354 1.11-2.767.944-1.366 3.069-2.965 6.286-3.027 8.93-.04 1.66-.062 1.917.971 5.404.385 1.298.517 1.73.539 3.3.02 1.499.133 2.026.36 2.853.405 1.472 2.051 3.906 4.551 3.264ZM121.5 231.215l.01-3.085s-4.925 1.522-7.425.586c-2.574-.698-2.566-.826-2.515-.547.09.499 2.001 1.509 3.769 1.924 1.244.292 3.735-.003 4.957-.365.693-.206.767-.013.49.2-3.02 2.365-6.85 1.277-9.257-.686-1.285-1.262-2.147-1.27-1.453.426 3.305 6.71 11.511 2.751 11.429 1.547h-.005Zm-3.324-4.585 1.12.021s-.344-1.955-.924-2.526c-1.188-1.166-2.866-.988-3.931.158-.488.525-.86 2.381-.86 2.381l.9.02c.334-.867 1.755-4.933 3.695-.054Zm-4.483-2.958c-.636-.174-2.033.462-2.713.905-.251.278-.254.318.046.714.653.861 1.65 1.273 1.721.95.29-.453 1.013-2.393.946-2.569Zm7.401 2.175c.147-.601-.418-1.63-1.3-1.99-.382-.094-.759-.171-.647.25.124.47.388 1.244.634 1.761.179.388.293.584.67.436.295-.098.543-.19.643-.457Zm48.066-40.898.01-5.226c-2.634 2.675-6.077 7.163-7.119 8.843l7.109-3.617ZM88.718 40.939c1.115-.48 1.935-1.94 1.652-2.679-.175-.458-.64-.09-1.108.588-.753 1.092-.944 1.21-1.607 1.21-.705 0-.985-.182-1.469-1.132-.333-.899-.57-1.04-.88-.648-.147.177-.135.43.055 1.085.497 1.713 1.776 2.254 3.357 1.575Zm3.04-.541c1.238-.427 1.49-.563 1.432-.975-.062-.433-1.046-1.01-1.604-.903-.403.244-1.449 1.902-1.39 2.198.143.232.558.026 1.562-.32Zm-7.137-.723c-.043-.382-.096-.758-.202-.885-.396-.48-1.235-.14-1.235.469 0 .463.658.987 1.19.987.375 0 .321.091.247-.571Zm6.993-3.124c1.76.664 2.653.739 1.695-.163-1.316-1.464-7.35-3.135-10.588-.747-.23.33-.183 1.591.07 1.521 2.634-1.78 6.007-1.685 8.824-.61h-.001Zm-6.026-5.046c-1.48.493-2.868 1.269-3.046 1.99-.287 1.163.233 1.175 2.167.565 2.491-.817 5.278-.447 7.402.782 1.613 1.175 2.09.786 1.818-.2-.902-3.268-5.942-3.857-8.341-3.137Z" id="path6263-5" fill="#131F67"/><path d="m180.543 10.522-10.88 10.801.153 12.783c1.093 2.008-16.791-5.728-19.615-8.07.328 8.54 11.96 18.268 19.523 21.828l.207 27.332c3.124-1.592 6.987-2.558 9.731-2.823 1.485-18.587 2.752-42.769.881-61.85Zm-60.512 13.379c-1.06.018-1.695.305-1.68.989-.32-.054 4.02 15.96 5.994 22.646-3.844 3.892-7.856 10.652-2.113 16.91 1.225 1.336 3.47 2.466 5.604 3.749.952.925-11.676 9.08-22.915 9.084-3.602-7.915-8.636-3.538-11.412-.776-2.168-.191-10.262-5.022-14.402-7.787-.067-.044-.023-1.19-.015-1.4.288 1.887 16.22 5.958 16.94 4.068-.46 0-7.147-4.532-9.067-9.003-2.451-5.043-4.416-11.97-4.416-11.97-.891 2.562-.586 6.112-3.043 7.382-.735-8.337-12.617-4.085-6.703 4.067-3.322.977-6.164 2.7-9.39 4.135 6.75 9.2 16.038 15.32 25.849 18.926-1.294 2.762-8.934 8.98-2.658 16.307.283.226-5.998 7.09-9.087 12.457-2.325 4.04-1.623 7.142-1.357 7.242 8.508-9.77 13.29-18.034 13.29-18.034-.073 1.136 10.098.521 9.928-8.655.225-2.476.672-5.161 1.623-7.46 15.52.732 28.865-4.807 40.144-16.441 0 0 2.298.657 3.746.883 3.99-.108 6.268-2.14 8.11-3.956 1.687-1.37 3.372-2.69 3.972-4.101 2.22-9.551-7.532-5.819-7.99-5.31-5.57-7.587-10.282-29.148-11.04-29.316-3.112-.628-13.755-4.707-17.912-4.636ZM81.8 38.548c-.416.028-1.909 6.7-3.231 6.648-5.602-3.615-5.723 3.867-.906 3.527 4.07-.288 6.344-6.867 4.156-10.17-.01-.003-.013-.006-.019-.005ZM21.922 51.24c.186 40.57.915 81.124 1.863 121.68 3.66-.905 6.32-1.595 9.91-.024.337-11.53-.675-40.624-.433-68.798C46.94 93.441 56.546 81.686 63.294 66.323L42.41 76.12s-6.824 9.802-9.004 10.431c-.31-1.395-.659-17.986-.375-25.102L21.92 51.241Zm46.404 25.093-4.103 5.948s.096 20.43.332 30.274c.17 1.96 1.948 3.758.525 5.515.868 0 4.66 26.505 1.055 37.25-.646 1.925-.041 3.285.968 3.725 5.148 5.711 7.975 11.188 14.758 7.95 7.403-6.784 17.917-18.67 17.917-18.67L71.98 121.998c-2.383-6.386-3.654-45.664-3.654-45.664Zm101.306 85.201c-12.62 11.302-24.159 22.899-28.883 36.993 6.747-2.719 13.17-6.04 19.734-9.097 3.181-3.83 5.627-7.525 9.27-11.169 0 0 .394 16.623.072 24.962 3.285 2.447 11.085 10.093 11.085 10.093 0-.002 2.153-118.104-2.494-121.1-4.514.875-6.78 2.527-8.464-2.717-1.19 24.045-.32 72.035-.32 72.035Zm-43.707-66.468c-4.854 3.975-21.544 20.378-21.51 20.548 4.427 7.437 21.908 22.336 30.288 30.665l1.213 42.432c1.233-1.661 2.13-3.225 3.467-4.887 0 0-.218-21.485-.736-31.558-.154-2.978-.835-5.325-.622-5.596-2.358-12.226-3.336-25.731 0-38.839-7.915-6.83-10.43-11.373-12.101-12.765h.001Zm1.3 48.463a.097.097 0 0 0-.039.03c-4.098 5.846-11.933 18.54-12.495 18.51-.166-.379-8.097-.024-9.597 4.975-1.26 3.722-1.355 7.147-2.273 10.985-15.913-.52-27.563 4.52-39.83 15.85-6.013-.04-10.477 1.353-12.564 3.893-3.113 2.26-3.956 4.19-3.804 6.551.277 4.28 7.824 4.888 8.21 1.872.383 0 7.385 16.027 8.066 18.758 1.651 4.415 3.42 12.675 3.63 12.689 2.82.181 18.645 4.628 18.702 3.015 1.491-.641-5.503-23.575-5.503-23.575 12.226-10.276-1.253-21.258-4.42-20.856 6.961-4.966 14.948-8.31 23.758-8.75 1.364 4.905 7.685 7.425 10.867.907 0 0 13.693 4.91 13.637 6.537-5.638-.852-10.274-1.297-15.92-1.838 10.818 5.883 11.15 13.635 13.358 21.354.3-1.367 3.154-7.339 3.154-7.339 3.669 8.152 10.646 2.495 7.767-4.086l8.682-4.033c1-.509-12.978-16.261-25.69-18.493.641-1.173.895-2.277 1.556-3.232 3.188-3.133 5.658-7.72.785-13.21 3.217-4.504 10.676-15.375 10.203-15.569 0 0 .146-5.08-.24-4.945ZM22.703 193.635c-.122 0-.347 37.698-.083 56.411-.313.776-.515 4.917-.515 4.917l11.575-10.894.347-14.083c3.022-.724 21.861 8.857 20.354 8.805 1.438-.607-8.697-19.782-20.518-21.909-.22-10.862-.33-23.16-.64-26.467-4.105.785-10.52 3.245-10.52 3.22Zm102.774 22.678c-3.242.969-4.593 7.795-3.544 11.106.194.613.072.745.588.145 1.263-1.858.864-5.558 3.096-7.512 5.893 1.781 5.308-5.897-.14-3.739Z" id="path6265-7" fill="#E2CF00"/><path d="m50.483 260.776 15.324-23.194c18.295 6.126 36.971 6.237 55.847 3.214l16.869 19.98h-6.897l-10.618-15.191c-3.847.89-7.846 1.28-11.83 1.827l4.968 13.364h-5.408l-3.904-13.218c-9.157.355-15.394-.462-21.752-1.208l-2.29 14.426h-5.504l3.715-14.895c-4.326-.812-8.691-1.51-12.315-2.673l-11.25 17.568h-4.955Zm17.549-13.65 6.361 1.727-3.106 11.923H59.648l8.384-13.65Zm16.43 13.65 1.798-10.533c4.272.844 9.847 1.014 15.725.954l2.764 9.58H84.462Zm30.112-9.765 5.018-1.333 7.524 11.098h-9.145l-3.397-9.765Zm-73.21-67.029c24.478-28.524 21.222-58.468 7.7-82.621l2.874-2.963c15.638 25.747 18.966 62.354-9.852 90.725-.304-1.711-.722-5.14-.722-5.14Zm97.61-31.99c3.517 5.997 5.667 12.068 9.383 18.099l-8.817 11.938-.565-30.037ZM33.662 170.884c-.228-18.821.057-56.956.057-56.956l8.258-6.33c9.882 12.02 15.275 43.698-2.471 64.782-1.29-.942-4.805-.55-5.844-1.496Zm117.26-3.798c-22.651-38.28-11.023-66.243 10.808-91.03.063 1.91.097 3.86.27 5.763-18.743 21.501-26.238 53.301-7.861 82.07l-3.217 3.197Zm-41.018-5.56 10.316-14.085s1.956-5.602 3.603-7.257l1.891-1.677c.63.61 1.926 1.893 1.926 1.893l-1.145 4.344a445.379 445.379 0 0 1-12.065 17.676s-3.66-.643-4.526-.895Zm54.871-68.362c.326-.369 4.42 1.343 4.42 1.343l.263 57.876-8.198 5.278c-2.379 1.21-20.965-36.773 3.515-64.497Zm-86.364 24.38c3.733-5.094 7.665-9.504 11.283-14.183.934.322 3.392.377 3.392.377.259.14-.827 3.882-3.504 6.462-7.346 8.803-9.015 10.434-9.283 14.065-.086 1.168-2.677 2.51-2.677 2.51l-1.863-1.969c.57-2.884 1.463-5.094 2.652-7.261Zm-23.28-22.2 8.432-11.05.602 28.742-9.034-17.692Zm26.886-71.963L65.752 3.013h7.876l9.685 14.414L94.914 16.1 90.832 3.013h4.806l3.395 12.877c7.115.169 14.07.723 20.823 1.401l3.47-14.278h4.895l-4.442 14.941 13.1 3.446 11.673-18.387h5.8l-16.544 23.74c-21.627-6.51-38.999-5.764-55.792-3.372Zm46.89-8.525L132.612 3l11.084.013-8.483 13.542-6.307-1.7Zm-26.826-2.884-2.342-8.959h19.542l-2.524 10.016c-5.16-.873-9.873-1.04-14.676-1.057ZM78.654 3.013h7.8l3.039 9.271-4.5.51-6.339-9.78Z" id="path6267-4" fill="#D40000"/><path d="m63.203 1.7 18.835 22.577c3.923-1.407 23.701-3.668 35.566-.955 2.067 8.115 4.255 16.31 6.568 23.698 0 0-.741.866-1.276 1.418-7.577 8.748-2.214 17.199 4.72 19.955-1.25 2.602-14.537 9.08-22.629 8.31.014-.081-2.485-5.946-7.549-3.964-1.73.678-2.444 1.983-3.784 3.257-4.834-1.46-11.217-4.645-14.534-8.145 6.208 3.096 12.321 4.764 18.46 3.943 0 0-.761-.635-1.625-1.033-.519-.238-1.769-.992-2.778-1.674-2.854-1.926-4.748-4.249-6.703-8.22-2.25-4.025-2.615-8.356-3.848-12.174-.652 1.957-.934 7.126-2.638 8.198-.442.29-.523.202-.852-.893-1.3-3.974-6.061-3.471-7.632-.641-.796 2.432-.682 3.5.324 5.76l-2.886 1.607v.477l-1.777.85-.37-.251c-8.26 3.996-16.356 8.156-24.784 11.985 0 0-4.475 7.44-8.57 10.4l-.16-25.266-12.13-10.976-.057 6.012s.582.61.871.917c.166 42.295.027 83.903.053 122.302l.056 35.348-.74.044-.038 4.123.834.187-.117 5.822-.433.03-.063 3.685.661.104-.012 20.806-.654.844.014 5.94L34.19 244.05l.283-13.713c9.99 1.89 20.43 9.082 20.43 9.082-1.757-11.485-13.907-20.95-20.886-22.84l.022-27.212s-5.187 2.167-7.75 2.5c-1.27.18-1.758-.013-2.365-.93-.441-.67-.452-1.28-.053-2.664.187-.647.18-.816-.052-1.467-.327-.913-.33-1.326-.01-2.938.335-.947.187-1.452-.164-2.33-.377-.94-.407-1.114-.246-1.655.425-1.425.45-1.656.227-2.292-.436-1.243-.45-2.141-.048-2.947 1.868-3.14 6.054-2.366 8.325-2.253 1.152 1.283 1.84 1.999 1.946.14.806-2.22 3.932.052 5.391.996 12.427-16.684 18.557-39.272 2.968-67.542l-8.672 6.953.02-8.703c11.498-7.404 24.437-24.239 30.039-37.513 1.862 2.188 4.002 4.337 6.018 6.543l-1.318 2.209-.389-.22C64.34 82.071 54.651 94.97 54.495 94.84c3.586 6.658 6.779 13.381 9.494 20.185l.711-.32.636 2.05-1.254.375c4.242 13.945 4.381 26.857 1.189 38.764l.748 3.164s4.49 4.357 5.701 5.637c3.163 3.068 6.688 6.494 6.688 6.494l4.098-4.019-.238-.341 35.918-35.731 2.24 2.145c-21.999 22.199-60.21 60.525-60.21 60.525l-1.324.193c-.752.112-1.866.16-2.576.111-1.168-.082-1.311-.055-2.248.39-1.057.504-1.929 1.25-3.097 2.65-.534.64-.9.916-1.492 1.129-7.49 4.474-.719 13.484 5.651 8.742 4.669 8.936 8.622 19.346 10.802 29.642 0 .075-.838.361-.838.361L48.31 261.925h6.457l.674-1.149H50.6l15.443-22.347c19.645 5.362 37.676 6.124 55.976 2.933l15.929 19.414h-6.318l.9 1.149 8.177.13-18.723-22.137c-6.703 1.795-24.386 3.238-35.477 1.357-1.697-8.255-4.494-17.227-6.563-24.368 10.585-8.302 2.637-19.26-3.895-20.789-.317-.6 13.247-8.862 22.91-8.289 2.767 6.659 8.826 5.673 11.001.718 4.008 1.474 9.208 2.946 13.337 6.236-5.506-1.21-11.885-1.87-17.135-1.95 9.986 3.879 12.788 12.054 14.018 19.765.216 1.28.9 2.93.9 2.93.851-2.784 1.546-5.66 3.222-8.044.77 2.727 3.604 4.845 6.462 3.223 1.657-1.203 2.234-3.268 1.71-6.122a95.179 95.179 0 0 1-.22-1.229l2.219-1.203.289.246s2.43-1.04 3.638-1.628c.19-.092-.222-.47-.222-.47l22.436-10.602c-.085-.047 5.656-7.9 8.952-10.929.1 9.41.076 13.277.07 24.45l1.267 1.24c1.124 1.099 3.574 3.379 9.096 8.462 1.243 1.144 2.112 1.71 2.112 1.71l-.17-164.562h-.184v-3.166l.259-.013v-8.234l-.233-.135v-2.595l.309-.226.02-22.228-.356-.061-.021-5.331-12.506 13.252.095 12.497c-5.581-.724-12.486-4.302-17.239-7.189-1.536-.938-2.393-1.188-2.345-.651.669 7.44 11.418 18.82 19.68 21.797l.014 27.99c0 .016 1.95-.976 3.142-1.478l.179.498 2.663-1.105.216-.575 2.309-.293c.026.473.105.408.105.408 2.057.576 2.967 1.981 2.139 3.56-.29.53-.346 1.28-.106 1.476.891 1.41 1.125 2.652.047 3.986-.414.681-.411 1.066.014 1.79 1.113 2.248.48 2.1-.356 3.44-.189 1.012.918 1.672.554 2.624-.17.629-.832 1.365-1.281 1.698-.526.382-.958-.328-.958-.328s-1.667.716-2.865.946c-1.179.383-3.207 1.068-3.91-.521-.403-.911-.079-1.743-.106-2.76l-1.729-.188-.062 4.622c-.99.527-4.921-1.486-4.921-1.486-16.872 21.91-16.4 46.21-3.886 66.569.122.327 8.816-5.958 8.816-5.958s-.018 5.152.058 7.946c-11.054 9.158-21.73 21.482-29.363 36.676l-4.729-5.616c.814-.72.845-1.863.829-2.726l3.433-5.128.029-1.332 8.927-12.494c.14.747-9.21-16.773-10.456-22.477l.618-.168c-4.196-15.907-3.335-27.047-.304-40.02l-.865-.837-11.778-11.785c-.956.885-1.91 1.774-2.861 2.666-.146.137-.864.055-1.01.192a549.21 549.21 0 0 0-18.055 17.74c-.152.157.104.805-.048.962-5.907 6.096-12.032 11.882-18.01 17.968l-2.183-2.086c21.17-21.205 61.051-60.592 61.051-60.592s.173-.312.448-.323c1.11-.042 2.102-.295 3.198-.613 1.314-.306 1.526-.402 2.08-.974.339-.35.893-.841 1.232-1.09.577-.425 1.899-1.538 3.963-3.34 1.262-1.1 2.04-2.703 2.013-4.134-.049-2.548-1.732-4.72-3.9-5.032-.901-.13-2.668.34-3.564.946-.682.461-1.003.672-1.296.466-4.32-8.78-8.526-19.82-10.308-28.931-.096-.575-.044-.744.424-1.467.29-.449.923-1.44 1.41-2.205 5.39-8.407 10.903-15.457 15.62-23.193h-6.661l-.822 1.312h5.483L137.73 26.535c-30.058-9.845-54.69-3.605-55.281-3.47L66.199 3.013h7.431l-.9-1.312h-9.527Zm14.629 0 .827 1.313h7.796l-.442-1.312h-8.181Zm13 1.313h4.806l-.276-1.312h-4.93l.4 1.312Zm8.6-1.312.306 1.312h19.541l.347-1.312H99.433Zm23.894 1.312h4.895l.369-1.312h-4.924l-.34 1.312Zm9.69-1.312-.42 1.312h11.1l.832-1.312h-11.513Zm47.47 9.077.173 3.646-8.003 8.45.01 11.8-2.33-.541-.092-12.194 10.242-11.161Zm-2.244 7.772c.067 3.614-.517 7.079.438 10.764.47 1.813 1.421 3.94 1.54 6.083l-2.64-.062c-.333-1.083-.464-2.276-.86-3.609-.975-3.285-1.765-6.746-1.045-10.228l2.567-2.948Zm-57.614 5.894c.096.18.412 1.707.703 3.123 1.386 7.775 3.243 13.543 5.138 19.414 2.408 7.397 5.973 16.71 9.438 21.026.459.538.685 1.15.52 1.418-.28.453-1.694-.18-2.644-1.182-.388-.41-1.136-1.56-1.685-2.59-1.21-2.272-2.838-5.577-3-6.099-.066-.212-.704-1.845-1.42-3.628-1.253-3.12-1.996-5.254-3.044-8.723-.83-2.751-1.596-5.63-2.523-8.53-1.516-4.741-2.393-8.512-3.236-12.872-.123-.64-.336-1.387-.258-1.54.478-.346 1.78-.208 2.011.183Zm.848.296c-.15-.126 1.375-.15 1.863.26.145.146.404 1.058.626 2.23 1.38 7.152 3.456 14.543 5.87 21.546 1.928 5.595 4.035 10.98 6.66 15.342.822 1.453 1.936 3.006 3.355 4.685.795.94.86 1.072.646 1.331-.263.317-.722.277-1.609-.145-.826-.392-1.72-1.253-2.561-2.47-.288-.416-.724-1.04-.973-1.39-3.871-6.704-6.22-13.074-8.35-19.543-2.183-6.634-4.145-13.343-5.48-21.074l-.047-.772Zm4.862 1.008c.34.346.533 1.007.83 2.388 1.61 6.632 2.93 12.557 4.834 18 1.024 2.929 1.91 5.854 3.01 8.613 1.754 4.406 3.9 8.42 6.538 11.762.87 1.1 2.45 2.458 3.775 3.247.92.547 1.057.686.997 1.003-.08.285-.977.404-1.271.382-1.451-.249-3.596-1.376-4.209-2.21-4.437-4.804-7.61-12.666-9.92-19.117-3.972-11.105-7.176-24.977-6.566-24.546-.041-.323 1.589.048 1.982.478Zm1.908.4c.144.003.305.029.486.078.83.227.937.343 1.136 1.26 1.42 6.34 2.922 11.933 4.599 17.252 1.706 5.412 3.462 10.518 6.197 15.873 2.006 3.908 4.545 6.608 7.276 7.975.784.392 1.484.769 1.555.839.072.07.052.274-.044.454-.144.27-.31.324-.977.313-1.239-.021-2.108-.407-3.438-1.303-3.488-2.41-6.537-7.866-7.883-10.96-1.642-3.777-3.15-7.702-4.511-11.98-2.443-7.678-3.965-12.757-5.08-19.236 0-.372.252-.572.683-.564Zm52.264 10.364-.024 2.248c-8.782.584-17.786-3.136-25.023-6.484 5.453 7.246 11.272 13.675 25.022 15.002l.025 2.321c-17.91-.254-30.524-18.426-29.86-22.955 7.366 4.767 20.673 10.28 29.86 9.868Zm-49.428-9.519c.43.02 1.01.202 1.237.43 1.464 5.474 2.53 11.552 4.95 17.652 2.974 7.496 4.623 14.112 10.136 20.288 1.715 1.765 5.076 1.712 5.076 1.712s-.425.956-.997 1.115c-1.181.179-2.038.232-2.9-.046-3.192-1.352-5.633-4.77-6.894-7.085-1.181-1.735-4.063-8.886-6.438-16.176-2.586-7.938-4.717-16.19-4.474-17.851a.653.653 0 0 1 .304-.039Zm2.952.922c.21 0 .49.08.828.24.36.173.516.28.703.956.122.442.101 1.124.318 2.234 1.245 5.716 2.961 10.357 4.666 14.879 1.619 4.296 3.356 8.513 5.498 12.326 1.082 1.921 2.155 3.717 2.832 4.396 1.845 1.848 4.975 1.94 5.898.106.512-1.043.407-2.695-.606-3.55-.784-.751-2.563-.434-2.61.472 0 .24.442.134 1.083.058 1.79-.208 2.35 2.968.048 3.497-2.915.67-4.937-3.278-2.364-5.697 4.36-2.963 7.69 1.085 6.66 4.979-.997 2.3-2.665 3.473-4.869 3.555-2.844.092-4.022-.79-6.939-5.037-3.343-5.377-4.794-10.625-7.15-16.504-2.229-5.561-3.712-11.491-4.41-16.67.06-.16.202-.24.413-.24Zm2.765.918c.258.009.8.145 1.039.293.143.088.348.285.348.285 3.922 14.337 7.192 22.925 10.52 28.987 0 0-.053 1.114-.275 1.431-.397.567-.59.428-1.108-.468-2.094-4.062-4.088-8.547-5.946-13.171-2.187-5.441-4.128-11.073-4.95-16.432.043-.69-.112-.885.372-.925Zm26.453 8.195a1.005 1.005 0 1 1 0 2.012 1.005 1.005 0 1 1 0-2.012Zm-81.482-.183c-1.163 1.586-2.116 7.27-3.326 7.338-1.33-.021-2.95-.786-3.993.42-1.269 1.464-.49 3.083 1.073 3.975.72.357 2.25.44 3.178.174 3.806-1.279 5.251-7.465 3.068-11.907Zm85.286 1.49c.802 0 1.45.654 1.45 1.458a1.45 1.45 0 1 1-2.9 0c0-.804.648-1.457 1.45-1.457Zm-85.219.69c1.301 3.277-.139 7.196-1.724 8.516-1.458 1.214-3.749 1.37-5.056.188-1.09-1.026-.604-3.488 1.426-3.305.683.022 1.496.645 1.955 1.303 1.322.136 2.845-6.583 3.4-6.701Zm90.275.801c.904 0 1.637.735 1.637 1.64 0 .907-.733 1.641-1.637 1.641a1.639 1.639 0 0 1-1.637-1.64c0-.906.733-1.64 1.637-1.64Zm5.798 1.158c.923 0 1.67.75 1.67 1.674a1.672 1.672 0 1 1-3.341 0c0-.925.747-1.674 1.67-1.674Zm-53.955 7.613c.25-.001.424.239.588.72.34.998.332 1.115-.198 1.784-5.139 7.128-.454 14.416 6.992 15.207.628.045.944.753 1.276 1.578-.046.39-.049.389-1.738.42-1.105.02-1.99-.05-2.543-.198-2.609-.704-5.805-3.066-7.112-5.254-1.505-2.522-1.757-5.13-.828-8.607.596-2.232 1.353-3.706 2.523-4.921.467-.485.791-.727 1.04-.729Zm48.72.792.087 24.455-2.6.95.106-26.008 2.407.603Zm4.92.944c3.239 8.057 3.382 15.442.458 22.161l-2.954.428c4.051-9.466 2.328-16.242.039-22.783l2.457.194ZM22.24 51.675l10.516 9.944.366 110.776-1.676-.593-.669-108.959L22.24 55v-3.325Zm102.698.319c.018 0 .036.002.052.005.282.034.54.389.776 1.061.278.792.274.816-.04 1.602-1.442 3.544-.264 6.916 3.3 7.98.845.268.986.406 1.482 1.457.323.683.468.93.342 1.08-.185.136-.638.199-1.979-.091-5.302-1.813-7.227-7.624-4.815-12.235.301-.527.576-.814.828-.854a.285.285 0 0 1 .053-.005Zm-42.22-.44s1.108 3.921 1.002 4.81c-.281 1.72-2.718 4.465-4.85 5.467-1.976.759-4.962.377-6.21-.94-4.539-5.322 3.927-10.664 6.057-5.124 1.279 3.635-3.925 4.495-4.156 1.703 0-.72.232-.945.9-1.414.596-.416.528-.786.016-.786-1.965.717-2.01 2.533-1.127 3.677 1.77 1.854 3.962.774 5.472-.587 2.033-1.834 2.432-4.465 2.897-6.805Zm43.907 4.045c.102 0 2.183 4.98 2.458 5.69-.069.5-.612.462-1.54-.186-.942-.66-1.224-1.125-1.623-2.654-.12-.543-.322-2.521.705-2.85Zm-42.217 2.102c.458 0 .934 1.685.718 2.548-.374 1.493-4.281 4.018-7.025 4.54l-1.31.246c-.568.101-1.23-.217-1.921-.922-.487-.497-.72-.992-.602-1.11.095-.095 1.354.125 2.421.108 2.99.035 5.299-2.114 7.074-4.676.27-.404.56-.734.645-.734Zm-59.443 1.247s2.025 1.836 3.091 2.888c-.114 4.884-1.913 10.18-1.911 14.546.043 3.799 2.496 6.961 2.744 10.267.148 2.138-.48 5.313-1.53 7.719-.98 2.24-1.495 4.628-1.493 6.947.124 5.397 3.993 11.297 2.633 16.635-1.276 5.015-2.73 7.912-2.345 10.576.744 5.138 3.47 9.692 2.745 13.967-.675 3.98-2.47 7.955-2.277 11.545.221 4.145 1.768 7.61 2.205 11.39.284 2.463-.41 6.294-.41 6.294l-2.837.234c1.56-5.822-.764-11.086-1.655-16.683-.758-4.765 1.373-8.557 2.008-12.621.394-2.524-.052-4.929-1.3-8.144-2.467-5.937-1.58-9.806.197-14.975 2.198-5.506-.825-9.865-1.579-15.14-.388-4.545-.087-7.759 1.618-11.8 1.27-3.891 1.629-6.147-.265-9.881-1.197-2.36-1.51-3.754-1.512-6.86.619-6.165 2.279-9.622 1.873-16.904Zm60.796 2.459c.442 0 .66.311.66.94 0 1.15-1.711 2.607-4.738 4.034-1.57.74-2.481.85-3.4.415-.857-.407-.815-.763.126-1.038 2.366-.691 4.045-1.638 5.956-3.358.608-.546 1.237-.994 1.396-.993Zm-13.694.793c7.807 8.373 15.463 12.682 21.316 14.696l-.92 2.189c-7.69-2.985-15.536-7.137-22.182-16.061l1.786-.824Zm15.043 1.368c.21 0 1.006 1.01 1.006 1.278 0 .158-.29.663-.645 1.12-.517.663-.973 1.004-2.263 1.713-1.749.958-2.805 1.192-3.564.79-.753-.399-.5-.734 1.382-1.842.972-.572 2.269-1.496 2.88-2.05.611-.555 1.15-1.009 1.204-1.009Zm-20.681 1.235c6.396 8.769 14.632 14.595 24.315 17.704l-1.522 2.061c-8.846-3.053-17.497-8.577-25.4-18.305l2.607-1.46Zm22.337 1.08c.322 0 1.045.818 1.045 1.183 0 .175-.142.495-.313.714-.342.436-2.128 1.781-2.89 2.176-.594.308-1.041.303-1.69-.02-.77-.384-.638-.705.617-1.515a16.719 16.719 0 0 0 2.066-1.63c.522-.5 1.047-.907 1.165-.907Zm-25.731.64c-.182.23-9.417 21.423-28.983 36.45l-.093-3.52c10.838-8.611 18.717-20.403 24.66-30.698l4.416-2.232Zm27.59 1.522c.296-.008.504.193.712.589.25.473-.022.894-1.117 1.722-.683.517-.937.618-1.502.608-1.456-.026-1.42-.378.178-1.81.83-.742 1.348-1.098 1.729-1.109Zm37.784 1.047 4.079.314c1.098.765-15.941 11.94-27.755 10.937l.313-2.678c10.371.296 23.647-8.09 23.363-8.573Zm-34.984 1.046c.936.526 2.103 1.15 1.813 1.352-.434.272-3.2.095-3.838-.246-.477-.256-.45-.39.207-1.13.805-.905.945-.462 1.818.024Zm-36.357-.665C50.604 80.897 42.907 91.325 33.997 98.12l-.119-6.043c8.48-6.54 14.9-18.489 14.916-18.531l8.274-4.072Zm80.95.728 1.976 1.157c-12.324 11.43-25.635 16.355-38.426 15.121l1.03-2.315c20.756 1.643 34.539-13.742 35.42-13.963Zm2.995.406s.663-.084.592.052c-4.092 4.017-9.71 8.307-13.39 10.7-17.425 17.93-32.342 32.08-47.52 48.05l-2.427-2.543 2.197-2.33c.01-4.602 5.631-9.762 8.966-13.736 1.391-1.57 4.004-5.611 3.707-7.309a4.074 4.074 0 0 1-.115-.535c5.274-1.055 6.536-5.34 6.65-9.128.246-2.533.583-4.833 1.434-6.914 23.87 1.916 39.25-15.69 39.906-16.307ZM99.417 73.25c2.708-.01 4.754 2.137 4.748 5.181-.022 1.273-.47 2.24-2.192 5.607-1.668 2.877-1.886 4.63-2.542 7.953l-1.696-1.527-3.086 2.786.043-4.06s1.064-1.355 2.786-3.292c2.181-2.426 4.156-5.55 4.065-7.306-.058-1.755-1.909-3.184-3.802-2.037-1.644 1.152-2.403 3.236-3.372 9.466-.171 1.103-.332 2.403-.422 2.687-.243.767-2.623 3.021-2.623 3.021-.201 0-1.141-4.573-1.141-4.573l-2.403.398c2.785-3.029 4.945-6.682 6.35-10.507 1.29-2.36 2.933-3.772 5.287-3.797Zm-52.297.97s-4.786 9.96-13.188 16.438l-.054-3.9c4.88-3.792 8.6-10.328 8.595-10.314l4.647-2.224Zm115.181.252c-16.611 17.235-38.292 48.968-11.385 93.55l3.554-4.109c-21.666-40.32-6.312-61.219 7.95-82.188l-.119-7.253Zm-89.825 1.422c4.864 3.464 9.941 6.904 16.506 9.09-.35 1.172-9.375 8.782-2.899 15.817.27.369-.418 1.265-1.472 2.535-3.094 4.236-6.183 7.253-8.769 12.023l-.106 8.959-2.585-2.287-.675-46.137Zm89.187.825.11 5.109c-24.681 30.055-21.902 57.118-7.95 82.044l-2.673 2.716c-22.867-39.435-8.6-69.164 10.513-89.87Zm-60.891 3.022c-1.089 2.88-5.85 7.814-5.85 7.814s.631-4.805 1.028-6.32c.303-1.158.987-2.721 1.662-3.47 1.921-2.116 3.839.287 3.16 1.976ZM68.024 77.04l.463 40.268-3.47-3.504-.51-30.792 3.517-5.972Zm-4.686 7.88.69 27.342c-3.462-8.192-8.33-17.159-8.427-17.071 0 0 3.983-5.295 7.737-10.27Zm27.401 8.555s.53-.445 1.36-1.399c1.799-1.822 1.962-1.834 1.795.623-.063.945-.01 2.156-.01 2.156 1.053-.612 3.537-3.55 4.238-3.021.543.51.98 1.575.992 3.229-.062 3.237-1.89 6.21-4.787 7.179-7.997 2.481-13.36-6.76-7.807-12.62.551-.582 2.124-1.66 2.88-1.447.935 1.712.903 3.612 1.339 5.3Zm79.352-2.904c.465 1.275 1.06 2.537 2.68 3.107-.248 39.152-.062 108.468-.062 108.468l7.858 7.389-.051 3.228-10.415-9.553s-.559-81.744-.01-112.639Zm7.804 1.814c.28 3.787-.36 7.776.289 11.666.64 2.69 1.61 5.115 1.69 7.762.073 2.421-.085 3.799-1.117 7.18-.72 2.359-.793 2.735-.958 5.094-.39 3.284.67 6.26 1.483 8.877 1.08 3.47.779 7.666-.949 13.2-.622 1.992-.74 2.832-.65 4.637.239 3.789 1.59 7.391 2.278 11.11.372 2.132-.01 4.92-1.32 9.65-.487 1.76-1.001 4.824-1.001 5.982 0 1.243.396 3.582.78 4.593 1.817 4.786 1.906 5.643 2 8.518.013 2.16-.61 4.345-1.374 6.245-1.274 3.037-.437 6.155 0 9.567l-3.133-2.681c-.924-2.921-.599-5.653.258-7.831 1.219-3.412 1.524-3.728 1.507-5.69-.023-2.602-1.511-5.68-2.128-7.51-1.094-3.25-1.097-6.435-.01-9.871.534-1.687 1.305-4.997 1.478-6.34.334-2.582.08-4.62-1.213-9.803-.632-2.528-.765-3.504-.809-6.021-.04-2.331.297-4.755 1.045-7.565 1.076-4.466 1.064-7.147-.337-11.29-1.133-3.424-1.45-5.745-1.16-8.472.167-1.581.599-3.064 1.323-4.544 1.342-3.358 1.548-6.57.55-9.775-1.718-6.56-1.69-9.894-1.52-15.816l2.998-.872Zm-8.802 2.147c-.273 26.831 0 57.55 0 57.55s-7.934 5.565-7.902 5.275c-10.222-16.888-14.117-41.766 3.737-64.205 0 0 2.874 1.229 4.16 1.38h.005ZM48.44 100.928c14.467 27.065 16.35 54.407-7.57 82.458.77 2.48.643 4.79.26 7.053 4.663-3.638 42.061-41.064 10.565-93.175l-3.255 3.664Zm73.724-2.204 7.106.418.478 6.125-2.297 2.282s-.042-1.266-.072-2.398c-.037-1.384-.233-2.595-.362-2.552-.12.039-.249 1.654-.351 3.415l-.106 2.63-.795.796c-1.06 1.06-1.273.977-1.314-.516-.089-3.248-.08-3.47-.318-3.233-.133.134-.208 1.245-.24 2.924-.027 1.333-.12 2.61-.208 2.837-.18.465-1.531 1.674-1.873 1.674-.33 0-.31-.47-.313-2.49 0-1.704-.18-2.64-.452-2.012-.065.149-.179 1.843-.203 3.218-.024 1.376-.114 2.633-.197 2.789-.295.552-1.69 1.735-1.936 1.64-.352-.135-.44-1.146-.428-2.836.01-.828.135-1.527-.183-1.752-.318-.224-.375.733-.29 3.165l-.023 2.644-.89.975c-1.413 1.456-1.51 1.387-1.513-1.13.063-1.99-.01-2.864-.4-2.706-.392.158-.236 1.12-.158 3.083.068 1.754.046 2.633-.072 2.856-.095.178-.553.695-1.016 1.148-.463.453-1.035 1.081-1.103 1.081-.108-2.113-.289-6.663-.289-6.663l-7.41-.328s1.517-1.805 2.162-2.152c.334-.18.858-.2 2.715-.12 1.267.055 2.97-.053 3.12-.111.558-.214-.603-.406-2.238-.512-1.092-.078-1.375-.05-2.586-.226l1.079-1.115.808-.805 2.365.077c1.43.048 2.493.039 2.658-.053 1.4-.277.088-.596-1.507-.599-1.557-.003-2.437-.005-2.437-.347 0-.348 1.742-1.933 2.24-2.036.255-.053 1.523-.105 2.816-.116 2.222-.017 3.028-.05 2.904-.42-.125-.369-1.597-.26-2.577-.303-2.72-.004-2.846-.107-.987-1.737l.9-.791 1.705.048c2.573.072 3.819-.03 3.819-.275 0-.22-1.675-.434-3.096-.434-.85 0-1.541.014-1.541.014.635-.829 1.316-1.5 2.06-2.238l2.297-.044c1.677.025 2.707.09 2.736-.217.027-.306-.601-.304-1.373-.309-1.043-.006-2.282-.096-2.446-.26-.176-.177.153-.668.881-1.322l.751-.68Zm-70.35.08c19.878 32.534 12.702 67.689-9.461 89.57l-.65-4.27c20.923-25.494 24.577-51.816 7.65-82.789l2.461-2.51Zm36.967 4.369c-3.569 5.376-9.025 10.68-11.085 15.07-.422.494-.559 1.608-1.213 1.83-.327 0-.434-.62-.352-2.055.062-1.081.162-1.444.684-2.5 2.816-5.15 6.08-8.852 9.683-13.744l2.283 1.399Zm.836.52 3.298.21c-.733 2.338-1.722 4.007-2.89 5.524-1.496 1.946-3.296 3.907-5.394 6.3-3.038 3.467-4.56 6.996-4.418 8.548-.76.803-1.288 1.356-2.253 2.178l-1.924-1.772c1.426-7.332 8.335-14.067 13.58-20.988Zm40.357 2.977 1.07.063c3.658.215 5.94.44 6.071.598.082.099.189.662.241 1.25.08.894 0 1.489-.467 3.618-.31 1.401-.656 2.644-.77 2.76-.422.429-.59.002-.785-1.988-.119-1.2-.166-2.075-.323-1.978-.076.047-.24 1.336-.193 2.297.123 2.502.107 3.115-.669 3.869-1.359 1.321-1.434 1.188-1.536-1.158-.043-.973-.274-2.392-.342-2.46-.294-.295-.392 1.053-.395 3.333v2.432l-.645.704c-.841.915-1.115 1.054-1.425.743-.191-.192-.12-.608-.12-1.997 0-1.628-.284-2.566-.593-2.253-.057.059-.072 1.634-.076 3.006 0 1.372-.022 2.585-.04 2.697-.049.329-1.59 1.881-1.868 1.881-.323 0-.582-1.792-.582-3.256 0-.979-.208-1.15-.414-.613-.052.134-.092 1.507-.092 2.74v2.239l-.905.936c-1.211 1.255-1.408 1.181-1.411-.536 0-1.48-.101-2.263-.4-2.263-.17 0-.211.701-.211 2.364 0 1.141-.075 2.27-.164 2.51-.09.238-.487.763-.881 1.167-.395.403-.8.733-.9.733-.168 0-.406-1.402-.343-2.007.013-.127.014-1.01 0-1.963-.032-2.275.123-2.178-3.5-2.292-4.252-.134-4.314-.16-3.034-1.4 1.215-1.177 1.044-1.133 3.862-.945 2.263.151 2.536.141 2.764-.087.139-.139.216-.29.173-.333-.043-.043-.905-.122-1.916-.178-2.8-.155-3.043-.357-1.859-1.544l.67-.675h2.864c1.934 0 3.25-.085 3.32-.201.186-.301-.58-.377-2.42-.484-.987-.058-1.917-.14-2.065-.184-.468-.138-.293-.61.496-1.35l.76-.715h2.529c2.347 0 3.496-.153 3.496-.463 0-.22-.467-.308-1.671-.323-1.705-.022-2.842-.187-2.918-.42.415-.806.99-1.257 1.661-1.93l2.571.092c2.588.092 3.4-.002 3.4-.453 0-.236-1.108-.406-2.543-.319-.923.056-2.041-.165-2.041-.492 0-.14.37-.628.828-1.08l.833-.82 2.518.1c1.405.057 2.903.043 3.015-.033.419-.287-.551-.511-2.134-.603-2.439-.142-2.598-.332-1.31-1.554l.82-.782Zm-87.81 1.351c13.048 23.409 11.093 45.462-2.802 64.23-1.595-.931-3.295-1.439-5.113-1.631l-.352-56.52 8.268-6.079Zm93.314 9.148c.261-.04.257.39.183 1.298-.059.73-.168 1.493-.246 1.698-.15.395-.268.413-1.536.231-1.442-.206-1.422-.467.164-2.03.768-.758 1.205-1.161 1.435-1.197Zm-70.046 1.051s1.719-.01 2.577.02c0 0 .134 4.38.485 6.907l5.592.269-2.171 2.262-4.241-.135s-1.289-6.218-2.242-9.323Zm66.637 2.65c.787-.014 2.855.341 3.096.583.19.19.195.657.029 3.483-.06 1.02-.121 3.208-.135 4.863-.024 2.998-.025 3.01-.37 3.06-.457.064-.508-.096-.631-2.07-.07-1.112-.223-2.085-.352-2.128-.149-.05-.135.93-.135 2.957v2.62c-.445.37-.857.86-1.367 1.12-.313 0-.48-.493-.636-1.863-.154-1.361-.304-2.32-.486-2.017-.043.071-.025 1.553.062 2.77l.16 2.214-.983.99c-1.007 1.018-1.134 1.1-1.295.839-.375-1.009.156-5.63-.751-6.214-.146-.077-1.352-.11-2.75-.17-2.361-.1-3.7-.138-4.03-.424-.2-.173.915-1.468 1.488-1.727.413-.187.88-.198 2.826-.068 2.254.151 3.39.135 3.092-.154-.078-.075-1.226-.244-2.124-.333-1.812-.18-2.45-.363-2.45-.7.421-.75.938-1.191 1.56-1.833l.876.092c.482.048 1.621.17 2.532.275.912.104 2.75.121 2.008.058.241-.242-.699-.49-2.003-.651-2.458-.306-2.681-.584-1.444-1.805l.76-.748c1.292.099 2.596.131 3.877.328.937.15 1.444.096 1.444-.222 0-.222-.467-.213-1.598-.439-.41-.081-2.527-.05-2.562-.675.5-.693 1.393-1.956 2.292-2.012Zm-57.3 5.311c.375-.021.393.895.433 3.314.043 2.65.085 3.107.313 3.334.217.217.759.292 3.081.41 3.556.181 3.648.233 2.394 1.443-.873.841-.91.735-1.628.651-1.878-.22-4.626-.17-4.733.005-.186.301.016.361 1.733.492 2.091.16 2.663.234 2.663.589 0 .156-.356.616-.79 1.023l-.79.738-2.2-.087c-2.316-.094-3.505-.127-3.505.188 0 .19 1.322.401 3.418.608.545.054 1.102.063 1.132.154.075.229-.984 1.543-1.637 2.032-.532.397-.711.175-3.034.125-2.37-.051-2.575.039-2.133.478.106.104.497.116 1.382.178 1.451.102 2.148.32 2.148.68 0 .345-1.309 1.701-1.922 1.993-.54.257-.772.269-1.969.101-.943-.132-1.122-.33-1.098-1.216l.154-5.755c.142-5.344.186-5.616.891-5.515.301.043.372.407.453 2.22.085 1.928.166 2.31.486 2.31.12 0 .138-.765.063-2.624-.117-2.885-.122-3.313.756-4.15.39-.371.701-.67.886-.4.371 1.138.265 2.381.375 3.522-.01 1.15.436 1.39.54.295a207.421 207.421 0 0 1-.077-5.148l1.069-1.062c.564-.56.92-.913 1.146-.926Zm-6.93 2.161c.425-.07 2.805-.03 3.15.049-.6.948-1.874 2.181-2.745 2.725-.22.013-.446-2.3-.405-2.774Zm67.398 5.245.506 3.565-3.886-.265 3.38-3.3Zm-52.36.579a.143.143 0 0 1 .068.01c.28.107.36.795.472 4.105.052 1.559.159 2.78.255 2.895.112.136.597.203 1.497.203.732 0 2.11.046 3.063.1 2.079.12 2.134.209.896 1.434l-.838.83-2.605-.106c-2.671-.11-3.116-.065-3.116.303 0 .25.456.37 1.31.348.339-.01 1.188.036 1.887.101 1.56.146 1.592.264.43 1.52l-.839.902-.814-.11c-1.308-.181-4.746-.137-4.945.062-.32.321.097.46 1.661.555 2.428.148 2.851.22 2.851.497 0 .134-.343.59-.76 1.008l-.757.757-3.081-.159c-2.161-.037-2.9 0-2.947.14-.084.243.27.32 2.499.55 2.139.222 2.45.443 1.637 1.457-.893 1.114-1.23 1.24-2.913 1.076-1.853-.18-3.747-.184-4.02-.01-.428.27.011.452 1.328.55 1.995.149 3.159.363 3.159.656 0 .33-.66 1.18-1.3 1.67l-.525.4-2.278-.241c-2.268-.242-3.429-.122-3.106.202.094.095.939.227 1.874.295 1.711.123 2.561.346 2.561.7 0 .105-.436.624-.968 1.152a6.524 6.524 0 0 1-1.145.891l-7.011-.63s-.358-1.254.346-4.66c.635-3.072.895-3.761 1.2-3.19.084.159.162.904.22 1.414.142 1.232.445 2.007.627 2.007.203 0 .202-.733-.063-2.456-.37-2.402-.412-2.497.5-3.464.783-.829 1.226-1.024 1.47-.646.068.106.162 1.194.255 2.108.163 1.606.258 1.975.467 1.766.134-.135.234-.595.086-2.977l-.188-2.316 1.026-1.047c.938-.957 1.045-1.023 1.233-.777.129.17.273 1.165.342 2.35.1 1.753.24 2.33.496 2.075.12-.121.061-4.102-.068-5.023-.084-.602-.042-.69.717-1.544.905-1.017 1.38-1.437 1.628-1.442.326-.007.503.992.505 2.32 0 1.418.114 1.979.246 2.157.34.457.379-1.144.299-2.726l-.092-2.885.934-.936c.884-.886.955-.924 1.204-.675.205.205.192.695.274 2.151.124 2.014.518 2.995.631 1.597.059-.316.051-.932-.019-1.37-.07-.438-.127-1.432-.125-2.205 0-1.178.06-1.493.347-1.958.415-.674 1.637-1.723 2.022-1.761Zm40.5 2.195s1.566 1.34 1.566 1.722c0 .17-.62.907-1.46 1.732-1.547 1.521-1.693 1.783-1.873 3.416-.066.61-.373 1.416-1.088 2.856-.548 1.104-1.338 2.393-1.338 2.393-2.47 2.957-4.8 5.665-9.131 11.908-.248.574-.26 1.149-.513 1.624-.195.354-.632.644-.825.725-.285.119-.857.474-1.27.79-1.618 1.238-2.66 2.867-3.13 4.893-.255 1.095-.406 2.08-.848 5.456-.182 1.389-.79 3.807-.79 3.807-9.304-.132-18.014 1.483-25.78 5.873l46.48-47.195Zm12.433 1.433 2.07 9.422-2.132-.043-.212-6.842-6.655-.637 2.379-2.306 4.55.406Zm-10.097.863c.57.582 1.28 1.22 1.796 1.853-1.78 5.96-7.414 13.692-13.01 21.363l-4.103-.449c-.072-.168 5.682-8.208 8.436-11.255 1.05-1.273 1.763-2.48 2.698-4.355.339-.678.93-2.435 1.385-4.267.968-1.169 2.804-2.872 2.798-2.89Zm2.21 2.09 3.101 3.15.757 44.61c-4.783-3.761-10.419-6.547-16.43-8.667l1.048-2.398 1.157-1.245c4.088-4.432 3.177-9.204.068-12.578 3.788-5.535 7.22-9.658 10.107-15.062l-.039-3.705c-.034-3.415.231-4.106.231-4.106Zm-37.1 1.862c.324-.033.365.791.447 3.13.077 2.187.168 3.223.313 3.45.194.305.38.332 2.957.41 2.718.083 3.283.162 3.283.454 0 .083-.349.502-.775.931l-.775.777-2.422-.039c-1.29.041-2.815.016-2.855.053-.214.199.591.47 1.772.473.734.002 1.902.132 2.036.183.46.177.244.63-.756 1.592l-.996.965-2.2-.043c-1.21-.022-2.68.013-2.87.077-.67.223-.337.405.77.42 1.85.025 3.128.18 3.183.468.026.14-.317.655-.77 1.143l-.824.883-3.236-.135c-3.06.023-3.472.25-.92.507.975.097 2.512.338 2.567.347.054.009.142.124.192.256.108.28-1.124 1.671-1.781 2.011-.338.176-.574.187-1.16.053-.69-.156-3.654-.128-3.973.063-.268.16.313.345 1.136.362 1.239.025 2.716.384 2.716.68 0 .243-.628 1.022-1.295 1.607-.31.27-1.044.029-3.092.096-1.402.047-2.335.178-2.335.27 0 .086.695.361 1.589.425.885.063 2.1.275 2.181.357.208.209-1.367 2.073-1.367 2.073l-6.728-.095-.62-7.14.573-.661c1.287-1.49 1.568-1.274 1.825 1.399.188 1.958.328 2.556.611 2.272.104-.103.062-1.22-.044-2.865a131.28 131.28 0 0 1-.159-2.74c0-.373 1.53-1.984 1.83-1.926.294.057.458.724.617 2.552.13 1.503.2 1.913.496 1.617.138-.139.157-.925.019-2.828l-.183-2.484.65-.772c1.304-1.55 1.56-1.377 1.719 1.138.107 1.698.27 2.591.582 2.591.105 0 .108-1.268.043-3.184l-.096-2.875.813-.83c.448-.455.906-.825 1.011-.825.317 0 .499.721.699 2.427.224 1.91.298 2.239.481 2.055.078-.078.062-1.234-.044-2.721l-.226-2.847.992-1.008c.546-.553 1.095-.984 1.218-.96.299.057.492.919.515 2.137.022 1.138.215 2.117.467 2.369.125.125.162-.575.13-2.605-.048-3.126-.128-3.365 1.277-4.83.375-.391.62-.643.79-.66h.001Zm36.324 1.277.03 4.362c-1.746 3.742-5.779 9.226-9.867 15.111l-2.133-1.158c5.115-6.717 9.39-12.978 11.97-18.315Zm-58.398 1.371c.096-.002.203.003.323.01 1.104.065 1.133.446.106 1.409-.43.403-.92.724-1.107.724-.318 0-.334-.048-.236-.878.12-1.022.243-1.26.914-1.264Zm66.647 3.146 3.015 2.972.756 31.948-3.173 5.184-.598-40.104Zm3.776 4.21c2.717 6.408 5.54 12.415 8.666 17.286l-8.058 11.4-.608-28.685Zm-27.11 9.96c3.705-.052 7.116 2.886 7.545 5.871.81 3.428-.952 7.12-3.844 8.255-1.008.362-1.598.387-1.598.387-.351-2.068-.2-4.059-.668-6.157 0 0-1.734 2.291-2.71 3.093-.506.28-.733.356-.667-.308.034-1.16.122-3.736.122-3.736l-4.28 4.439s-.35-.482-.762-1.587c-1.344-3.607.402-7.374 3.159-9.104a6.83 6.83 0 0 1 3.703-1.153Zm56.954-.27.081 3.905c-6.718 5.218-16.301 16.216-24.513 30.548l-3.617 1.528c5.572-13.34 17.333-26.926 28.048-35.982Zm.072 5.135.072 5.82c-5.928 5.711-11.079 11.61-15.562 19.203-2.616 1.26-7.464 3.652-7.464 3.652-.607-.148 13.206-21.693 22.955-28.675Zm-59.799 4.985c.271-.004.257.521.172 1.28-.192 1.718-.393 2.342-1.02 3.18-2.172 2.567-5.622 6.061-6.092 9.31-.237 1.736 1.115 3.36 2.444 3.194 4.127-.517 4.57-7.865 4.919-11.49.145-.9.211-1.653.36-1.936.87-1.113 1.806-2.196 2.98-3.075l.505 5.617 2.326-.777c-6.559 8.93-4.674 9.49-8.134 13.148-3.214 3.4-9.45-.474-7.855-5.642 1.387-3.477 3.534-6.968 4.113-10.693.157-1.106.25-1.874.25-1.874l1.49 3.117c.759-.75 2.973-3.228 3.542-3.36Zm60.044 1.926-.015 4.01c-3.058 3.45-5.697 6.1-8.82 10.868l-4.962 2.267c3.239-6.183 8.553-11.967 13.797-17.145Zm-60.626 3.538s.329 1.872-.397 5.272c-.344 1.612-1.892 6.318-4.34 5.209-2.078-1.84.455-5.252 1.73-6.864.988-1.158 2.059-2.41 3.007-3.617Zm-6.531.481-1.353 2.9c-12.157.044-23.964 4.4-34.472 13.296l-2.658-.873c11.133-10.55 24.934-15.68 38.483-15.323Zm12.78 2.23c13.7 4.595 20.026 11.302 25.207 18.336l-2.166 1.112c-5.43-7.041-12.132-13.484-24.611-17.21l1.57-2.239Zm-15.697 4.336-.583 2.485c-7.673.23-15.77 2.959-23.647 8.438l-2.841-.453c7.929-6.234 16.984-9.794 27.07-10.47Zm35.063 16.785-2.433 1.15c-7.261-9.438-13.827-12.125-21.287-14.529l.805-2.093c10.024 2.665 17.38 7.763 22.915 15.472Zm-101.25-11.13.21 25.188-1.75-.351-.25-24.358 1.79-.478Zm-4.054 1.367c-3.337 12.528-.75 15.772.457 23.083l-2.763-.443c-2.69-7.406-2.966-14.145-.698-22.009l3.004-.631Zm83.973 1.923c.209.2-.17.815-.684 1.12-.498.294-.388.25-1.185-.04-.775-.28-1.762-1.013-1.762-1.292.565.01 3.135-.018 3.63.212Zm2.354.179c.457.055 1.78.03 1.863.444.03.247-.489.648-1.55 1.374-1.612 1.104-2.16 1.32-2.633.796-.449-.496-.317-1.01.438-1.707.735-.68 1.16-.91 1.882-.907Zm-55.032.275c.923 0 2.576 1.143 3.573 2.47 1.01 1.585 2.172 3.212 3.11 4.815 2.133 3.643 3.78 7.34 5.157 11.125 3.61 9 5.728 17.725 7.488 26.395-.033.73-.666.717-1.185.545-.27-.087-.537-.267-.592-.405-.746-2.124-1.005-4.295-1.575-6.426-1.424-5.331-1.935-8.385-4.68-15.902-1.424-3.9-3.487-9.331-5.74-13.504-1.444-2.675-3.115-5.148-5.282-7.333-.573-.572-1.285-1.094-1.285-1.206 0-.37.36-.574 1.01-.574Zm58.547.289c.856.21 2.922.453 2.138 1.139-2.903 1.119-3.844 2.33-5.383 3.565-.232 0-1.15-1.14-1.15-1.418 1.248-1.538 2.821-2.194 4.395-3.286Zm-54.348.01c1.213-.043 2.4 1.528 2.96 2.518 3.734 5.504 6.93 13.353 9.56 21.045 2.83 8.28 4.626 16.24 5.407 21.89-.067.174-.418.24-.82.236-.764-.006-.872-.183-1.068-.792-1.947-9.344-4.56-18.99-7.724-27.176-1.699-4.364-3.626-8.745-6.336-13.142-1.849-2.715-2.898-4.14-2.817-4.352.055-.145.36-.217.717-.217.04-.005.082-.008.12-.01Zm-8.345.164c1.638-.005 4.348 1.942 6.187 4.443 3.901 5.358 6.134 11.618 8.451 17.692 2.66 6.96 4.579 14.695 5.725 20.784.195.873.514 1.255-.308 1.53-1.244-.357-1.217-.322-1.57-1.839-.485-1.63-.633-3.277-1.093-4.935-2.63-9.482-5.575-20.004-10.468-28.566-5.877-9.426-7.587-6.804-8.532-8.467.072-.376.727-.64 1.608-.642Zm14.142 2.301c5.051 8.806 7.277 14.212 8.814 19.53 2.328 8.06 5.085 14.496 6.296 23.906 0 0-1.327.024-1.859-.193-.22-.22-.453-1.16-.592-1.93-1.213-6.645-3.187-14.507-5.287-20.702-2.262-6.896-4.953-13.455-8.932-19.79-1.043-1.707-1.241-2.379-.602-2.408 1.14.078 1.64.957 2.162 1.587Zm52.62-.94c.235.002.329-.032.756.115.669.231.882.377.92.642.055.386-.36.512-1.652.815-1.015.238-2.998 1.298-4.377 2.446-.64.533-1.19 1.105-1.343 1.105-.317 0-1.074-.834-1.074-1.182 1.056-1.616 4.415-3.833 6.77-3.941Zm-69.593.217c4.275.13 7.62 5.106 9.375 8.462.683 1.313 1.57 2.741 2.239 4.24 3.47 7.774 6.415 17.524 7.853 23.752.692 2.996 1.492 5.194 1.209 5.78-.352.223-1.097.053-1.44-.237-.219-.185-.338-.87-.727-2.122-.997-3.21-2.649-12.384-6.953-22.024-.097-.216-2.18-6.315-5.778-12.1-1.465-2.356-3.835-3.836-5.995-4.318-1.087-.178-1.41-.05-1.344-.637.043-.375.16-.477.742-.661.259-.082.531-.128.819-.135Zm26.724 19.882c-.293 0-.551-.56-.747-1.477-.095-.45-.227-.772.617-1.302 5.304-5.652.743-13.95-5.923-14.672-.618-.094-1.414-.096-1.647-.183-.338-.191-.958-1.393-1.229-1.876 9.214-2.238 18.99 10.976 8.929 19.51Zm45.893-18.464c.55.138 1.743 1.25 1.594 1.49-.179.291-1.212.301-2.701.565-3.168.563-4.527 2.632-6 4.169-.327.1-.618-.128-.91-.627-.215-.369-.39-.81-.39-.985 1.647-2.402 6.057-4.832 8.407-4.612Zm-74.784.71c2.693 0 5.384 1.308 6.9 3.44 5.53 8.29 11.74 26.721 13.222 35.812-.15.293-.543.323-1.31.101-.427-.124-.375-.26-.645-1.105-1.736-6.623-3.64-13.053-5.879-18.95-1.154-3.04-2.511-6.011-3.79-8.68-.809-1.688-2.435-4.693-3.052-5.61-1.454-2.738-4.392-3.54-6.244-2.656-1.916 1.039-2.157 3.52-.698 4.62 1.21.847 3.12.707 3.822-.604.24-.464.164-1.041.01-1.187-.15-.141-.421-.1-.477.053.1 1.611-1.952 1.715-2.847 1.08-1.431-1.07-.479-4.462 3.42-3.097 1.504.793 2.008 2.292 1.295 3.884-.73 1.63-1.86 2.37-3.607 2.36-2.12-.039-4.522-1.529-4.54-4.208.01-2 .93-3.662 2.663-4.776.641-.413.893-.478 1.757-.478Zm22.81 1.244c6.536.301 9.538 8.01 6.1 12.66-.877 1.111-1.431.909-1.806-.526-.184-.59-.388-.678.14-1.134 3.06-2.939.547-8.651-4.497-8.882 0 0-.942-1.374-1.036-2.103.337-.123.791-.015 1.098-.015Zm54.502.53c.496.123 1.546 1.132 1.546 1.487 0 .419-.206.34-1.368.14-2.748-.493-5.502 1.1-7.8 4.578-1.115 2.088-1.253 1.89-1.84.092-.3-.923-.306-.902.862-2.605 2.182-2.804 5.402-4.084 8.6-3.691Zm2.557 3.537c2.3 2.093 1.227 6.703-1.881 7.18-2.741.317-5.176-2.651-3.45-4.671 1.123-1.22 2.527-1.344 3.39-.294.894 1.082.516 2.558-.755 2.711-.149.052-.27.168-.27.256 0 .27 1.128.196 1.512-.116.773-.855.787-2.16.096-3.093-.61-.825-1.915-1.482-2.961-1.056-1.844.661-3.722 3.165-4.796 6.32-.302.887-.479 1.72-.607 1.915-.262.402-.243.392-.486.237-.213-.136-.607-2.067-.607-2.803 0-.559.481-2.035 1.118-3.3 1.995-3.717 6.485-6.21 9.697-3.286Zm-56.045-.936c2.676.162 4.794 3.96 3.63 6.605-.36.487-.879.817-1.12.511-.087-.11-.5-1.351-1.07-2.668-.569-1.316-1.094-2.602-1.256-2.923-.426-.913-.733-1.534-.184-1.525Zm-18.186 2.205c3.05 5.41 5.6 11.616 7.714 17.672 1.648 4.72 2.998 9.349 3.775 13.442.074.413.176.63 0 .81-.299.3-1.755-.446-1.755-.446-2.55-8.803-4.609-17.628-10.68-28.838 0 0-.263-.445-.333-.736-.082-.702.123-1.59.55-2.087.172-.184.404-.197.734.183h-.005Zm-34.211 10.22c14.418.97 25.572 7.058 31.53 23.138-2.118-1.196-12.855-9.45-31.367-10.545l-.03-2.23c13.271-.108 26.216 6.812 25.946 6.712-4.936-10.199-17.341-14.33-26.119-14.6l.04-2.475Zm100.035 3.25c-.91 1.427-.87 1.369-1.305 2.6.05.4.123 2.893.183 4.347.076 1.854.129 2.662.274 2.837.248.299.75.346.968.077.087-.106.236-.505.337-.887 1.19-4.505 1.75-6.191 2.23-6.75.316-.407.423-.37 1.728-.222 2.94.261 3.938-3.248 2.018-4.66-2.57-1.433-5.297.969-6.433 2.658Zm3.102.957c-2.1 1.731-2.163 4.225-2.799 6.521-.342 1.545-.823 2.359-1.016.03-.358-3.233.093-5.646 1.491-7.544.865-1.396 2.287-2.336 3.565-2.426 2.75-.193 3.032 1.99 2.267 3.163-.556.852-2.097 1.223-3.508.256Zm-99.324 1.04a1.88 1.88 0 0 1 1.878 1.882 1.88 1.88 0 0 1-1.878 1.882 1.88 1.88 0 0 1-1.878-1.882 1.88 1.88 0 0 1 1.878-1.881Zm5.985 1.289c.927 0 1.68.75 1.68 1.679 0 .928-.753 1.683-1.68 1.683a1.68 1.68 0 0 1-1.675-1.683c0-.929.749-1.68 1.675-1.68Zm5.456 1.843c.755 0 1.363.614 1.363 1.37a1.365 1.365 0 1 1-2.73 0c0-.756.612-1.37 1.367-1.37Zm3.871 2.455a1.059 1.059 0 0 1 0 2.118 1.059 1.059 0 1 1 0-2.118Zm-13.564 3.377c-.402 2.04-.088 4.137.38 5.583 1.069 3.115.583 8.69.583 8.69l-3.13 3.14c.224-2.927.571-6 .41-8.457-.111-1.63-.847-3.155-1.039-4.792-.177-1.514.09-4.547.09-4.547l2.706.383Zm5.072.94.11 13.298-10.715 10.402-.015-2.746 9.135-9.075-.193-12.322 1.678.442Zm26.42 30.324-.704 1.148h12.086l.256-1.148H59.648Zm15.644 0-.284 1.148h5.595l.186-1.148s-2.94.002-5.497 0Zm9.168 0-.178 1.148h20.772l-.308-1.148H84.461Zm24.278 0 .332 1.148h5.533l-.458-1.148h-5.407Zm9.25 0 .404 1.148h9.51l-.79-1.148h-9.124Z" id="path6269-8" fill="#000"/></g></g></g></svg>