<svg width="227" height="315" xmlns="http://www.w3.org/2000/svg"><g id="Page-1" stroke="none" stroke-width="1" fill="none" fill-rule="evenodd"><g id="Diamonds" transform="translate(11 25)"><g id="Q" transform="translate(1)"><path d="M130.331 2.761s25.24 36.62 33.8 43.12c.63.297 11.184-1.727 11.184-1.727-5.41-12.998-8.889-26.446-5.379-41.523l-39.605.13Zm14.025 57.917c-17.4 4.93-34.769 9.565-53.633 1.53l-20.6 19.978c-.172.515 24.887 11.38 25.309 10.11-12.285 33.185 6.869 39.21 19.063 2.706 15.962-2.098 35.111-4.27 50.938-15.3-13.7-8.264-21.09-19.123-21.077-19.024Zm-104.66 5.907c-6.596-4.062-11.75 4.299-6.921 8.473-.568 2.439-.76 6.069 1.59 7.663 2.16 1.371 6.19-.05 6.77-.035.042 0 .105 4.39-.23 4.378-.625-.021-2.984-2.037-4.438-2.475-4.916-1.48-11.83-2.21-11.708-1.955.205.427-1.224 1.44 4.261 4.896 2.038 1.284 8.475-.162 13.601 1.461 3.124.99 5.93 2.567 7.626 1.748 4.472-1.226 6.22-7.091 5.914-7.048-.15-.177-13.523 3.454-12.265 4.09l-.041-5.091c5.275.583 10.036-3.254 4.851-9.833 3.861-3.852-1.54-13.032-9.01-6.272Zm21.976 23.289C48.698 103 22.18 127.635 22.18 127.635l.284 18.386L48.37 169.29c2.052-24.701 16.037-47.755 29.353-59.288 1.223-3.507-13.232-18.897-16.052-20.128Zm92.43 4.54c-1.955 15.19-3.731 35.902-29.402 58.925 4.448 7.604 10.11 15.344 18.259 19.038.578 1.306 23.552-23.862 37.685-35.762l-.074-16.118-26.468-26.082ZM38.404 97.676c-.054.331-1.001 4.32-1.246 4.215.02.217 2.63-.973 2.924-2.067.259-.96.857-2.259.896-2.442-.588-4.107-1.7-1.19-2.574.294Zm-9.61 10.618c-.933 2.261-1.805 6.413-1.483 9.116 4.596 2.309 5.845-7.297 4.609-8.215-.74-.314-2.496-.923-3.126-.9Zm141.937 44.042c-.426 1.915-.336 2.483.514 2.857 1.487.655 2.156-.136 3.35-3.255.712-1.857 1.345-4.651.772-5.762-2.82-1.974-4.31 4.713-4.636 6.16Zm-80.38 16.118c-18.863 3-37.738 4.85-52.718 16.58 1.688-.199 19.843 16.914 20.783 19.321 27.746-13.603 54.694-3.328 54.694-3.328l20.306-19.643c.782-.372-22.085-9.827-26.393-11.42 15.573-42.077-9.09-35.753-16.672-1.51Zm74.253-4.804c-1.233.998-1.854 1.903-2.814 3.198l.968 1.572 2.482-2.748-.636-2.022Zm-17.769 17.704c2.615-1.184 11.895-5.7 12.294-4.656l-.196 4.52c-1.42-.466-10.584 1.055-5.284 10.55-3.338 7.542 4.1 11.431 9.31 6.444 10.92 3.76 9.457-7.206 7.204-8.978 1.776-2.769-.456-8.664-1.567-8.684 0 0 9.53 2.156 8.597.453-.425-.777-.957-2.117-3.075-3.536-2.44-1.636-6.728-1.042-10.198-1.77-3.71-.78-6.099-2.112-9.216-2.3-4.706.431-9.099 4.577-7.869 7.957Zm-106.19 35.595-13.129 3.522s4.247 9.892 5.716 18.712c1.798 10.79.362 22.52.362 22.52l38.105.194-31.054-44.948Z" id="path6307-8" fill="#E2CF00"/><path d="M74.86 261.762c-16.719-23.953-32.21-46.737-52.778-71.849 0 0 .016-9.706.09-19.332l63.187 90.945-10.498.236Zm33.848-38.674c-.539-4.55-1.462-9.993-2.79-14.679l11.538-10.919c-1.245 9.757-3.156 17.243-8.748 25.598Zm55.139-34.414c2.582 3.442-1.775 5.353-3.42 3.821-3.336-3.105 1.55-6.314 3.42-3.82ZM49.453 166.996c-1.915 1.232 3.44-30.017 18.138-46.166 8.94 25.704-6.833 40.115-18.138 46.166Zm72.513-.115-9.762-2.645 4.596-13.704s9.43 2.156 8.649 5.001c-2.545 9.264-3.483 11.348-3.483 11.348Zm-45.19-5.268c2.643-4.362 4.65-9.171 6.498-14.092l9.779-.205-4.914 13.58-11.363.717Zm58.834-19.23c-7.555-15.1 1.345-38.999 17.784-45.577-.592 15.312-5.325 30.823-17.784 45.577Zm-50.779-4.29c.333-5.363-.28-10.984-1.018-15.964 10.42 2.41 21.779 4.022 34.36 4.597l1.2 14.456c-11.173-2.055-22.542-3.522-34.542-3.09Zm24.958-22.028c1.113-4.483 2.538-8.871 4.481-13.104l11.906-.556c-.062-.233-5.08 7.952-6.282 13.86-1.896-.201-10.105-.2-10.105-.2Zm-22.573-3.574c-3.475-1.23-8.226-1.575-10.074-4.272l3.614-11.498 10.706 3.297-4.246 12.473ZM117.261 2.788l8.39-.08s40.313 51.776 55.423 71.924c-.504 2.051.168 19.431.168 19.431-21.401-30.23-63.981-91.275-63.981-91.275ZM39.954 75.03c-2.254-2.429 1.33-4.581 2.821-2.41 1.313 1.91-1.632 3.691-2.821 2.41Zm45.234-8.489c.13-11.998 8.606-26.238 8.518-25.874-.098-.023 1.208 11.73 2.837 15.428-.44.652-10.955 11.198-11.355 10.446Z" id="path6309-7" fill="#D40000"/><path d="M20.355.803v262.315h162.54V.803H20.354Zm148.867 1.993c-1.323 14.525-1.554 25.757 5.954 40.821-1.356 1.428-11.573 1.832-14.793 3.523-.058.406.827 1.108.827 1.108 3.369-1.57 16.503-3 16.503-3-5.5-9.624-10.026-28.256-6.619-42.452h9.858v70.095s.116 13.324.397 20.93c-5.047-6.547-11.55-15.515-15.92-22.304-5.304-7.488-11.207-16.272-17.27-24.513-1.787-2.597-4.335-5.966-6.415-8.999-3.265-4.684-5.964-8.32-9.35-13.362-3.616-5.221-7.082-9.96-11.38-16.023-3.642-5.16-3.812-5.824-3.812-5.824h52.02Zm-62.262 0c6.145 10.72 17.146 14.47 19.914 15.194l1.609 2.36c-12.97-2.552-19.915-10.91-23.176-16.077-.254-.402-.226-1.477-.226-1.477h1.879Zm-6.083 0c-1.7 4.048-4.078 6.494-6.333 8.946l.077-2.604c.07.163 3.376-3.64 4.515-6.342h1.741Zm2.976 0s.05.812-.156 1.38c-1.302 4.221-9.388 12.232-9.155 11.032l-.083-2.067c-.036.089 6.074-5.96 7.674-10.345h1.72Zm-5.88 0c-.63 1.178-2.98 4.857-3.194 3.871l.21-3.87h2.984Zm18.473 0c1.019 1.48 1.945 2.683 3.016 4.197.2.289.32.63.27.76-.163.42-.647.108-1.985-1.083a32.709 32.709 0 0 1-3.69-3.874h2.389Zm-8.177 0h1.986c4.112 6.856 11.492 10.63 14.046 11.428.681.754 1.416 2.132 1.702 2.437-6.888-1.872-14.604-7.838-17.734-13.865Zm4.829 0c2.19 3.173 5.623 5.489 7.556 7.007 1.04.818 2.413 2.488 2.284 2.82-4.305-1.366-9.341-6.277-11.652-9.827h1.812Zm-8.442 2.055 1.197 1.912c-2.9 4.8-6.536 9.122-11.386 12.53l-.026-2.506c5.504-3.978 7.882-7.976 10.216-11.936Zm1.941 2.771c3.458 4.675 10.908 11.91 22.856 14.071 0 0 .679.615 1.668 1.968 1.256 1.716 1.276 1.784 1.442 4.596.11 5.147 1.777 12.132 3.431 16.526-.205 1.093-.396 1.65-2.448 4.431-8.552 11.595-26.772 22.562-35.748 7.594-2.994-4.796-3.285-13.99-3.475-19.722 0 0 .057-.403.078-.512.216-1.041.513-.877 2.133-.431 1.643.707 3.353.136 5.092-.339 1.98-.803 2.144-.184.235 1.604-.66.619-1.468 1.564-1.383 1.519.085-.046 1.195-.5 1.686-.876 1.525-1.165 1.886-.719 1.32.564-2.397 5.441-2.823 5.658.55 7.17a6.066 6.066 0 0 1 1.578 1.012c2.306 2.179 1.478 1.005.833.005-.992-1.566-.096-2.393 1.58-1.424 1.12.648 2.59 1.17 3.39.923 1.551-.507 2.025-2.214 1.565-4.092-.369-1.038-2.49-2.873-2-.953 1.274-.057 2.375 1.757 1.267 2.985-.836 1.132-2.326.52-4.613-.996-1.263-.953-2.797-.466-2.737.706.04.787-1.07.606-1.792-.397-.4-.557-.129-2.16.624-3.679 4.74-9.564.744-18.838-7.464-16.224-.903.288-1.717.521-1.717.521l-.045-3.659c4.713-3.296 9.712-8.553 12.094-12.89Zm4.792 17.171c-1.237 1.5-.798 2.834 1.919 1.49 2.212-1.094 2.519-1.224 4.93-1.311 3.423-.124 6.494.968 10.295 3.31 2.52 1.55 2.887 1.668 2.203.696-2.035-3.91-14.063-9.844-19.347-4.185Zm-11.622.448c2.375.6 4.655 2.175 4.258 2.827-.143.235-.28.28-.583.121-1.738-.861-4.508-2.27-8.512-.551-.441.19-.686-.105-.684-.639 0-1.037 1.743-1.865 3.58-1.932.654 0 1.367.033 1.941.174Zm13.798 3.032c-1.416.738-1.902 1.132-2.503.802-1.437-.789-1.134-.17-.241 1.417.63 1.12.623 1.35.53 2.037-.102.746-.087.775.636 1.572 1.351 1.782 2.696 3.502 4.719 4.854.63.422 1.474.901 1.537.903.202.006.125-.155-.236-.508-2.591-2.502-4.634-4.744-1.996-3.791 3.072 1.005 5.994-.248 8.39-1.065.977-.303 2.003-.558 2.257-.557 2.213.002 2.736-.923 1.321-2.332-4.787-5.388-8.759-6.656-14.414-3.332Zm11.358 1.01c.99.917 1.511 1.415 1.413 1.654-.107.256-.868-.178-2.145-.861-2.569-1.375-5.48-1.698-9.12-.643-2.824.818-1.99-.481 1.157-1.703 2.52-1.167 5.998-.818 8.695 1.553Zm-26.377-1.856c2.158-.035 4.405.676 5.908 1.976 1.048.908.282 1.119-1.422.412-2.577-1.07-4.749-1.24-6.863-.247-.664.312-1.43.683-1.639.663-.353-.24-.504-.938-.198-1.432.85-.838 2.536-1.345 4.214-1.372Zm35.564.743c.158.007.397.26.752.76.645.909.67 1.358.135 2.95-.654 1.945-.916 1.63-1.08-1.083-.107-1.76-.11-2.64.193-2.627Zm2.14 2.932c.246-.035.533.4.993 1.3.32.63.244.818-.757 3.76a36.588 36.588 0 0 1-.824 2.22c-.309.244-.269.223-.4.054-.715-.916-.663-2.702-.048-4.843.466-1.622.72-2.446 1.036-2.491Zm-19.443.222c.078-.007.556.098.556.098-.05 4.358 3.308 3.482 3.753.386 0 0 .828-.086.955.12.398.649-.526 2.513-1.908 3.123-1.01.452-2.38.342-3.199-.415-.229-.426-.923-2.045-.793-2.717.16-.392.403-.575.636-.595Zm-2 .51a.98.98 0 0 1 .1 0c.33.016.57.105.7.506l.72 2.214c-.53.635-2.542-.652-2.538-1.618 0-.667.502-1.077 1.017-1.103Zm-13.653-.005c.507-.05.686.007.745.482.171 1.44-1.262 3.002-3.121 3.087-1.8.202-2.77-1.199-2.715-2.565 0-1.038.894-1.168.993-.347.285 2.37 2.303 2.506 3.224 1.198.349-.513.27-1.777.874-1.855Zm22.092.482c.143-.006.335.048.617.145 1.856.595 1.905.882.318 1.456-1.893.685-2.016.774-1.571-.551.248-.74.321-1.037.636-1.05Zm-19.671.209c1.376.085 1.491 1.254.281 1.644-1.801.798-2.408.746-1.71-.431.378-.834.716-1.197 1.429-1.213Zm-8.606.42c.164-.002.352.062.554.213.207.626.557 1.108.834 1.756-.283.281-.957.277-1.386-.065-.862-.686-.714-1.897 0-1.904h-.002Zm43.252 1.35c.534.003 1.077.852 1.255 1.485-1.867 2.407-1.573 6.9-2.007 8.258-.376 1.104-.498.15-1.536-2.709-.42-1.154 1.693-6.892 2.182-7.02a.412.412 0 0 1 .106-.014Zm1.909 2.467c.415.238.98.785 1.08 1.645.057.5-.19 1.163-.348 1.819-.377 1.56-.887 4.509-1.07 7.232-.077 1.16-.074 2.202-.125 2.303-.562 1.105-1.746-1.867-1.644-4.233.368-1.89.573-8.506 2.107-8.766Zm2.636 3.396c.264.368.431.65.512.967.141.551.023 1.21-.3 2.613-.856 3.72-.732 7.731-.173 11.848.117.866-.482.432-1.389-1.06-.502-.827-.824-1.96-.978-3.299-.316-2.926.293-6.894.81-10.023.23-1.385.39-2.606 1.518-1.046Zm1.422 2.264 1.499 1.814s-.64 4.171-.636 6.396c-.105.833.745 9.896 1.021 10.629-.92-1.036-1.351-1.645-2.361-2.946-.115.019-.99-8.93-.386-12.351.365-2.07.863-3.542.863-3.542Zm2.352 3.604c.251-.009.571.276.973.842.363.511.54.931.56 1.568.013.464-.215.822-.222 1.65-.043 4.93.621 9.581 1.456 14.067.295 1.605-.278.95-1.227-.065-.869-.93-.884-1.283-1.349-2.605-.092-.264-1.018-9.354-1.01-10.042.033-2.825.114-4.398.438-5.076.106-.221.23-.333.38-.339Zm-5.448 9.906s-1.745.901-2.202.585c-.737-2.017-3.395-7.417-3.441-8.373.047-.314 1.09-1.735 1.09-1.735 1.469 3.199 2.79 6.471 4.553 9.523Zm-32.842-6.485c-.526.62-1.153.361-2.422-.198-.65-.2-.55.068-1.625.629-.833.434-1.126.445-1.678.44-.729-.006-.991-.262-.993.252 0 .285-.044 1.57-.216 2.234-.234.905-.438 1.304-.31 1.46.37.341.682.133 1.463-.624 1.295-1.256 2.17-.896 3.613-.429 1.641.531 1.98.727 3.482.2 2.127-.746 3.408-.746 4.255-.205 1.46.933 1.9.878 1.298-1.673-.193-.822-.207-2.098-.327-2.318-.135-.25-.506.463-.894.725-.743.502-1.127.493-2.8-.058-.992-.326-2.103-1.392-2.846-.435Zm26.921.332c.648 1.533 3.226 6.652 3.148 7.224-.502.453-1.174.783-1.573.378-1.289-2.36-1.675-3.634-2.723-6.283-.312-.634.623-2.248 1.148-1.319Zm13.847-.188c.182-.025.564.355.847.736.883 1.186.936 1.333.964 2.603.102 4.606.679 10.028 1.972 14.209.254.823.737 1.823.684 1.96-.433.634-2.444-1.065-3.05-3.649-.838-3.28-1.328-6.703-1.594-8.931-.337-3.919-.335-6.723.177-6.928Zm-15.467 2.54c.742 1.438 1.678 3.92 2.308 5.407.287.647-1.181 1.156-1.52.936-.586-.44-.864-1.677-1.249-2.419-1.225-2.69-1.446-2.746-.767-3.584.419-.582.918-1.296 1.228-.34Zm18.377 1.65c.108 0 .248.106.424.334.775.92 1.302 1.622 1.504 2.303.147.495.03.865.082 1.761.138 2.347.752 5.55 2.492 12.104.17.64.4 1.396.37 1.602-.167 1.203-1.926-.748-2.438-2.763-.594-2.287-1.676-5.208-1.995-7.91-.657-4.287-1.021-7.43-.439-7.43Zm-19.926 1.734c1.462 3.425 1.578 3.419.657 3.69-.973.286-1.032.192-2.175-2.14-.834-1.702-1-1.915-.298-2.529 1.071-1.267 1.352-.058 1.816.979Zm-20.367-.817c-.166.003-.656.376-1.148.571-1.209.48-3.354.513-4.661.118-2.318-.934-1.665.279.385 1.017 1.59.537 4.741.12 5.23-.875.3-.318.408-.836.194-.831Zm17.619 1.8c1.305 2.026 1.698 2.835 1.477 2.992-.209.21-1.243.601-1.668.392-.533-.262-.998-1.513-1.232-2.493.163-.479 1.021-1.338 1.423-.89Zm-32.7.854c.584.002 2.101 2.05 1.793 2.419-.085.19-.654.009-1.983-.36-.444-.165-1.447-.296-1.13-.942.158-.294 1.088-1.118 1.32-1.117Zm31.3 2.806c-.13.35-1.115.432-1.533.406-.36-.75-.454-1.109-.554-1.606.136-.298.81-1.07 1.142-.92.2.18.843 1.75.945 2.12Zm27.159-1.974c.208.007.568.374 1.104 1.142 1.011 1.451.874 1.346 1.6 4.813.824 3.933 1.81 6.733 2.805 10.75.014.667-.255.49-.993.039-1.205-.737-1.601-1.555-1.98-3.687-.648-3.52-2.016-6.778-2.54-10.938-.278-1.376-.3-2.13 0-2.119h.004Zm-30.36 1.405c.711-.024.615 1.076.412 1.254-.52.455-1.953.319-2.2.345-.55-.867 1.324-1.57 1.788-1.599Zm33.975 3.742c.209.03.77.826 1.822 2.308 1.01 1.425.788 1.192 1.393 3.537.855 3.24 2.27 5.576 3.099 8.558 0 .34-.412.297-.805.135-.766-.322-1.449-.865-2.097-1.398-.443-.48-.44-1.091-1.75-5.612-.472-1.63-.595-2.055-1.185-4.533-.494-2.072-.714-3.027-.477-2.995ZM49.14 73.006c3.434 6.342 2.163 9.154-5.223 10.033-.533-.075-.03 3.249-.045 4.735 3.7-2.125 8.175-2.621 12.3-3.955-1.124 3.609-3.095 7.699-9.065 7.069-6.24-4.84-13.584-1.932-18.566-3.897-2.71-1.013-3.746-4.035-3.778-4.553 3.25.327 6.92 1.025 10.07.797-3.44-2.66-2.435-6.342-1.95-8.025-4.025-5.095-.665-10.826 5.183-9.494.604.138 1.797.728 1.797.728 5.64-5.068 12.178-.307 9.277 6.562ZM163.26 69.92c.233-.022.749.59 1.783 2.042 3.067 4.307 5.723 8.313 5.682 8.539-.132.742-3.329-.558-4.135-1.62-.919-1.211-3.503-7.443-3.5-8.433 0-.33.048-.516.17-.528ZM38.35 88.367c1.595.235 2.041.37 2.024.997.137.531-3.871.602-4.414.208-.434-.315.125-1.005.554-1.17.62-.189 1.236-.123 1.836-.035Zm110.488.571c-22.393 10.616-31.554 38.852-20.251 60.49l-1.556 1.128c-11.082-22.878-2.838-47.393 15.167-59.774.73-.52 2.342-.922 3.092-1.42 0 0-7.345 1.682-9.832 2.658-.504-.017-1.986.507-3.578 2.24-1.391 1.293-5.742 7.314-5.603 7.524l-11.56.467.01.429 11.346-.263c-11.684 19.31-8.813 37.683-1.599 50.541l.178.12c.42.284 1.524-.527 3.813-2.704.943-.897 2.131-2.01 2.641-2.477 1.415-1.301 3.43-3.546 4.815-5.167-7.857-16.073-.106-37.243 18.279-46.783.031-.507-.196-2.058-.196-2.058s-.695-.627-1.106-.562c-20.482 9.056-28.688 31.545-20.36 51.995l-1.374 1.5c-10.464-21.177.768-47.647 20.354-55.146-.01-.479-.434-1.09-.96-.722-21.144 9.854-30.359 35.016-20.001 56.464l-1.305 1.157c-11.784-23.484.632-49.799 20.097-58.79.574-.134-.511-.847-.511-.847Zm-113.97.219s-.149 1.25.291 1.678c.203.892-.12.795-.877.614-1.861-.446-.41.617 1.114 1.475 1.5.846 1.298.817-.01 1.65-.88.56-.789.77-.67 1.195.175.63.295.21.66-.126.766-.706 1.378-.883 2.058-.88 1.022.004 1.126.825.945 1.466-.407 1.344-1.786 1.273-2.916.938-1.85-.547-4.871-3.767-4.824-5.662-.129-1.699 2.186-2.426 4.228-2.348Zm8.316.415c.717.264 1.62.618 2.613 1.035a15.584 15.584 0 0 1 3.656 1.749c2.728 1.825 2.562 5.476 2.365 5.84l-14.096 13.408s-.796-.39-1.546-.775c-2.37-1.213-2.94-1.853-1.624-2.525.638-.326.844-1.027.935-1.713.123-.918.075-.761.622-1.18.952-.728.998-1.03 1.002-2.24 0-.801.086-1.17.376-1.674.23-.4.474-1.234.637-2.191.026-.158.034-.551.065-.69.167-.748.403-.969.562-1.14.158-.169.411-.746.588-1.247.393-1.117.319-.951.954-.828.923.18.79.72.69 1.578-.05.416-.326.707-.232.614.126-.125.692-.394.81-.42.295-.068.589.033.665.497.041.259-.07.735-.063 1.103.019.955.058 2.097.275 2.85 1.046 3.626.838 3.123.482.106-.086-.722-.186-1.782-.082-2.665.073-.623.25-1.393.492-1.814.618-1.083.652-1.296-.69-1.83-.498-.197-1.347-.544-1.523-.89-.215-.422-.854-.998-1.687-1.194-2.025-.478-3.203-2.442-2.91-2.734.19-.19 1.006.06 1.522.078 1.849.066 2.242-.03 3.06-.736.437-.376.633-.71.98-.735.366-.007.833.267 1.103.363Zm95.944 2.172c-18.936 15.378-22.255 40.253-12.808 59.448l-1.635 1.29c-11.872-22.516-3.898-46.805 10.687-60.088l3.756-.65ZM29.806 93.578c.334-.032.7.46 2.029 1.886.895.961 1.828 1.795 2.318 2.076 1.112.534.87.312-.058 1.195-.947 1.09-.424 1.988-1.556 1.441-2.947-1.388-5.016-5.478-3.1-6.463.145-.074.255-.125.367-.135Zm-1.465 4.3a.734.734 0 0 1 .226.025c.363.089.804.774 1.277 1.253 1.31 1.323 1.918 1.91 2.964 2.375 1.03.457 1.057.568.333 1.374a2.45 2.45 0 0 0-.482.842c-.062.196-.078.446-.299.488-1.147.221-4.959-2.1-5.109-3.7.123-1.498.5-2.611 1.09-2.657Zm8.077.446c.662-.017 1.05.574 1.046 1.533 0 .665-.375.935-1.132 1.22-1.62.608-2.617-.555-1.485-1.84.476-.539 1.119-.902 1.571-.913Zm-.988 3.904c1.222.004 1.575 1.038.68 1.93-.841.838-2.539.842-2.535-.077 0-.721 1.078-1.856 1.855-1.853Zm-7.572 1.236c.826.246 2.837 1.7 3.722 1.87.047.491-.542.625.293 1.548.38.418.412.704.082.88-1.009.54-4.504-1.166-4.738-2.922-.114-.857.17-1.345.64-1.376Zm4.56 2.102c1.202.05 2.563.086 2.42.663-.104.418-.535 1.522-1.085 1.315-.267-.1-.527-.367-.713-.546-.642-.618-.812-1.44-.622-1.432Zm45.472 4.996c3.503 3.184 16.228 36.434-10.29 60.659l-5.628 1.692c25.46-20.067 21.225-48.555 14.355-60.845 0-.36-.1-.32-.734.256-.555.505-.614.613-.39.707 7.764 11.992 10.666 45.864-19.925 62.21-.513.535.526.453.526.453.054-.44 13.774-3.786 12.806-3.87 12.788-11.347 23.922-38.405 10.062-61.991-.335-.22-.782.73-.782.73Zm-4.417 3.765-.179.75c11.1 21.872.505 48.669-20.127 58.586.34.25.717.423 1.096.601 23.405-12.65 30.153-39.423 19.944-60.16l-.734.223Zm-1.856 1.551-.13.794c9.19 18.615 1.895 44.447-20.035 54.925-.208 1.127 0 .798 1.029.745 25.374-13.659 27.76-39.633 19.82-56.501l-.684.037Zm-1.576 2.232c-.717.951-2.029 1.444-2.465 2.667 7.372 19.556-2.156 38.38-18.284 46.316-.013.984-.716 3.42.991 3.03 19.926-9.06 28.596-33.143 19.884-52.1 0 0-.114.083-.126.087Zm100.088 37.81c.734.052 1.391.275 2.072.365 2.475.322 4.08 2.133 2.975 3.235-.364.361-.871.153-2.48-.636-.738-.363-.857-.703-1.01-1.52-.183-.982-.378-1.08-.626-.32-.251.769-.521 1.246-1.366 1.051-2.373-.553-1.476-2.193.435-2.174Zm-26.476 16.65c-5.944-3.385-13.283-9.49-17.48-16.426-2.085 3.928-4.536 11.078-4.536 11.078l-9.329-2.616-.11.195 9.221 2.667-.899 3.088c-.097.334-1.525 3.85-1.525 3.85l14.402 6.745c-.893 1.401-1.866 2.308-3.103 3.615-.7.737-.719 1.692-.719 1.692l19.967-19.117s2.576 3.834 3.534 4.703c.899.816 1.178 1.013.13 1.257-4.692.69-8.333 4.255-7.063 9.038.205.532.618.336 1.508-.225 3.115-2.831 10.728-5.453 10.988-4.787l.03 3.045c-8.197.12-7.356 6.168-6.756 9.412 0 .07-2.37 2.15-2.37 2.15.838.441 1.658.898 2.433 1.441-.72 4.035 2.705 9.884 9.433 6.89.581.599 1.13 1.2 1.772 1.952.689-.8 1.482-2.685 1.482-2.685 3.342 1.518 10.277-1.88 6.73-9.662l1.955-1.872-1.878-1.188c-.049-1.979-.354-3.747-1.531-5.47 0 0 3.155.807 5.49.943 1.441.13 2.657.168 2.536-.707-.036-.258-.252-1.517-.392-1.93-.697-2.039-4.309-3.535-7.816-3.733-.573-.032-1.189-.014-1.311-.163-.23-.28.182-.677.559-.611 1.92.336 3.769-1.09 4.101-2.903.066-.318.459-.9 1.022-1.519 1-1.098 1.078-1.07 1.06-2.656-.014-1.102.179-1.346.685-2.085a5.114 5.114 0 0 0 .628-3.848c-.104-.45-.529-1.087-.167-2.21.59-1.825-.705-3.495-2.402-4.446-.136-.039-.095.095-.207.23-1.54.48-3.415-.627-3.415-.627-.387-.19 1.311-10.094 4.83-9.209.584.356.831 2.077.787 2.108.162-.004.25-1.013.022-1.687-.238-.705-.784-1.378-1.834-1.18-.813.155-1.753 1.239-2.178 1.783-1.643 2.102-1.662 3.444-2.21 5.68-.265 1.057-.293.996-1.75-.147-1.047-.82-1.554-1.083-1.19-1.564.164-.216.841-.9.841-.9l13.324-12.3v123.592h-72.605l.504-16.244c1.351-11.13-1.026-34.503-2.825-36.702 1.387-1.564 5.693-5.336 5.455-5.506l-.57-.34-2.277 2.102-5.62-1.708c-2.398-1.663-4.845-3.2-7.384-3.853-4.145-1.068-12.128 2.334-12.135 2.37-12.753.947-22.966 6.145-22.823 6.106-.555-.512-1.29-2.146-1.31-2.137-6.574-9.183-13.037-14.326-21.866-20.603l11.184-6.2-26.502-27.794-.233-22.569 38.39-36.84c.227-.636 12.249 8.523 16.725 15.976.858-3.643 2.457-6.952 3.789-10.53.139-.326 7.637 2.784 9.862 2.915.333.02.6-.332.6-.332l-9.896-3.23 2.024-5.819s.705-1.58-.09-1.843c-4.512-1.465-8.745-4.046-13.06-6.246 0 0 2.016-2.249 2.046-2.348.029-.094.845-1.3.65-1.717C70.792 80.297 52.88 96.97 52.88 96.97c-.51-2.862-1.31-3.862-3.051-5.628.948-.045 2.433-.987 3.291-1.614 2.625-1.92 4.054-5.345 3.71-7.346-2.52.805-4.795 1.748-7.95 2.323-1.774.323-3.457 1.127-4.477 1.99l-.157-3.193c.01.036 4.247.746 6.21-2.11 1.693-2.462 1-5.28.61-6.716.044-.319-.05-.283.68-.958.539-.498 1.378-1.142 1.378-1.142.036-.18-2.19-1.009-2.565-1.765.592-5.918-4.118-8.202-8.105-7.15-.746.225-1.101.365-1.987-.626a218.506 218.506 0 0 0-1.196-1.275s-.469 1.087-.71 1.563c-.781 1.547-.996 1.082-2.681 1.165-4.27.21-6.176 3.67-5.196 7.92.23.996.127.843-.526 2.104-.333.644-.877 1.465-.877 1.465s.784.436 1.311.673c.782.35.823.761.82 1.543.109 1.724.486 2.879 1.473 4.36-3.345.077-5.911-.237-8.94-1.246.463 4.675 3.897 6.416 8.102 7.1 0 0-.441.415-.905.599-.984.286-1.6 1.153-1.59 1.93-.142.742-.62 1.487-1.061 1.883-.655.57-1.193 1.37-.935 2.921-.066 1.124-.337 1.448-.665 1.877-.66.862-.883 1.718-.718 2.85.076.526.238 1.654.13 2.82-.181 1.943.512 2.672 1.393 4.04.57.886.45.91.318 1.553-.317 1.544-.646 2.338-.988 3.512-.766 2.628-.795 4.62-.17 5.133.944.773 2.011.54 2.508.386 3.72-1.153 3.076-4.82 3.272-7.28.106-.633.321-.937.53-.908 1.052 1.236 2.164 1.95 3.596 2.73-4.951 5.058-8.121 8.153-14.38 13.671V2.796h71.512s.075 1.032-.096 5.49c-.309 9.06-.688 18.552-.096 27.789.1 3.197.034 6.353.491 9.516.446 3.081.643 6.404 2.078 9.274.576 1.556.595 1.436-1.602 3.474-1.077 1-1.993 2.063-1.953 2.25.013.063-.048.297.118.165.11-.089.906-.88.994-.984.595-.704 1.59.2 4.988 1.162.666.188 1.604.818 2.323 1.34 5.077 4.295 12.222 2.956 17.563.613 1.516-.665 1.887-.733 4.323-1.023 9.02-1.074 18.66-5.03 18.639-5.017l1.177 1.936s.443-.082.759.405c5.188 9.836 22.127 21.075 21.826 20.554l-11.072 6.153c8.06 9.996 26.6 26.956 26.6 26.956v24.376c-4.95 3.973-9.832 8.527-14.183 12.974-1.251 1.243-2.135 1.953-1.66 1.976 1.13-.173 2.105.945 3.025 1.72.582.652.441.593-.23 1.483-.472.625-.645.806-.647 1.258.017.875.01 1.461-.765 2.117-.482.607-.757.995-.844 1.715-.087.718-.08 1.179-.573 1.814-.833.178-.912 1.396-.766 1.942.874.869.475 1.81.556 1.612-1.668 1.817-3.418 3.392-2.3.851.503-.946.679-1.73.679-1.73s-.803.836-1.223 1.23c-.643.598-.879.246-.898-1.609-.082-1.404-.672-3.362-.906-3.736-.131-.21-.153.153-.092 1.504.08 1.778.292 2.294-.332 4.069-.842 2.398-1.441 2.737-.073 2.654 1.296-.078 2.392-.092 2.959.685.191.261.437.71.96.974 1.067.585 1.916 1.234 2.508 1.88 1.917 2.094 1.367 3.964-2.34 2.696-1.951-.668-.673-1.51 1.425-1.315 1.288.121 1.505-.357.39-.7-2.075-.384-2.408-.62-3.776 1.014-5.746-.57-8.971-3.794-10.522-6.42-.648-1.1-.846-1.309-.395-1.931.178-.245.07-.17-.236.17-.306.339-1.14.623-1.417.867-1.93 1.933-3.886 4.01-5.625 5.581Zm25.005-13.536c.975.12.956.942.085 1.733-.818.621-1.378.741-1.84.274-.808-.817.236-2.013 1.755-2.007Zm2.84.57c.785-.004 1.788.36 2.979 1.352 1.421 1.186 1.746 4.058.44 4.555-.546.208-.63.004-1.796-1.107-.786-.75-1.638-1.428-2.478-1.829-1.713-.818-1.933-1.128-.775-1.685.244-.126.56-.422.704-.653.297-.479.387-.631.925-.634Zm-1.852 3.822c.228.007.532.146 1.007.402 2.889 1.583 4.3 4.065 3.323 5.467-.64.919-1.684.568-2.48-.735-.448-.735-1.637-1.674-2.988-2.361-1.546-.787-1.58-.9-.462-1.437.458-.22.802-.532 1.026-.93.26-.46.282-.414.574-.406Zm.926 5.916c2.182 2.183 1.932 3.365.515 4.254-.968.607-2.52.759-3.03.256-.822-.721-.8-1.549.109-1.814.848-.182.53-.523-.262-.725-2.83-.806-4.569-2.313-1.493-1.986.883.094 1.737-.595 2.198-1.145.668-.813 1.57.766 1.963 1.16Zm-148.805.84 63.552 91.07H33.966c1.808-14.485-1.821-30.56-6.623-41.05 5.226-.889 10.204-2.276 15.186-3.653l-1.011-1.318c-5.945 2.384-11.43 3.257-16.594 3.848 6.854 11.71 9.3 27.853 7.245 42.172H22.38V190.55l-.613-20.367Zm11.382 13.554c.9-.035 3.14 1.553 3.414 2.747.056.244.639 1.713 1.292 3.078.013.252 2.22 4.253 1.25 3.904-1.93-2.632-5.378-7.114-6.245-9.298 0-.291.038-.421.289-.43Zm6.88 4.003c.12.661.788 2.39 1.315 3.53 1.375 2.969 3.503 7.624 3.07 8.95-.291.893.01.846-.77-.257-.382-.54-1.571-2.204-1.856-2.588-.697-.938-.228-.078-.626-1.604-.948-4.319-2.48-6.588-3.475-9.11-.355-1.186 1.886.601 2.342 1.079Zm1.224.658c.185.13 2.709 1.912 2.964 2.168.895 3.193 4.471 13.424 3.546 15.252-.323-.254-1.686-1.904-1.875-2.754-.413-4.892-1.96-8.41-3.618-12.056-.467-1.099-.834-2.198-1.017-2.61ZM46 191.99c.8.392 1.626 1.288 2.095 2.088.313.543.473 1.183.768 2.528.915 4.173 2.66 8.405 1.875 12.859-.49.666-1.554-.845-1.706-2.332-.505-4.933-.938-7.296-2.666-13.096-.335-1.126-.589-2.008-.366-2.047Zm4.053 3.827c.171.007.52.326 1.104.876 1.135 1.069 1.295 1.463 1.301 3.236.037 2.607.902 5.583 1.037 8.215.077 1.518.354 5.446.12 5.68-.33.457-1.795-1.208-1.682-3.76.187-3.067.035-5.375-1.267-10.682-.602-2.452-.907-3.5-.646-3.56.01-.002.023-.005.034-.005Zm117.578-15.492c4.55 2.932 2.946 8.343 1.972 9.008 6.283 7.969-3.484 12.05-6.584 9.184-4.588 4.577-12.462.741-9.43-6.802 0 0-5.762-11.048 5.602-10.31 0 0 .196-4.464-.125-4.669-4.057-.273-9.571 3.647-11.133 4.732-.867.526-1.057.275-1.057.275-.216-2.318-.222-3.379.717-4.67 1.637-2.255 4.343-3.018 7.898-3.801 4.4 1.36 8.589 3.494 12.665 3.162 2.245.013 4.541.377 6.717 1.55 1.468.694 2.232 3.302 2.232 3.302-2.303 1.21-9.474-.961-9.474-.961Zm-2.164-16.385c.019-.79.909-1.673 1.786-1.57 1.204.087 1.362 1.519.29 2.046-.309.251-1.308-.12-1.363.158.074.488-.416.283-.51.107-.166-.207-.204-.503-.203-.74Zm-.73 3.12c.442-.31.811-.338 1.256-.397.684-.083 1.557.02 1.751.74.19.705-1.157 1.12-2.248 1.139-.555.01-1.198.118-1.365-.273-.156-.367.382-1.043.606-1.209ZM27.015 116.67c.878-3.063.33-4.778 1.793-8.554l3.562 1.19s.15 3.704-.567 5.767c-.72 2.061-3.081 3.705-4.788 1.597Zm26.533 82.838c.42.051 1.452 1.526 1.918 2.874.427 1.25.286 2.838.598 4.185.699 4.616.658 9.24.472 10.638-.093.696-.54.413-1.152-.251-.89-.966-.767-.987-.757-3.668.01-2.297-.498-7.975-.732-9.129-.433-2.133-.613-4.169-.511-4.518.028-.098.086-.14.164-.13Zm41.659.553c4.587.733 8.254 3.876 10.355 9.05 2.029 5.262 2.528 12.44 2.843 19.041-.022 1.579-.67 1.18-2.37.2-1.856-.911-2.25-.647-4.96-.025-1.69.389-1.538-.765 1.244-2.68.947-.62 2.049-1.448 1.687-1.572-.184-.063-1.031.166-1.644.663-2.729 2.213-3.469 2.752-2.682.6.199-.544.831-2.054 1.095-2.777.989-2.704-.15-3.862-3.507-5.574-.84-.428-1.393-1.143-.555.354.686 1.223-.731 2.21-2.487.778-1.22-.995-3.67-.332-4.462.91-.767 1.203-.357 3.447 1.154 4.174 1.331.575 1.828.16.54-.735-1.656-1.153-1.333-3.098.526-3.09.46.002 1.271.515 3.322 1.635 1.467.796 2.512.46 2.514-.73 0-.797.455-.732 1.42-.253 1.3.645 1.157 1.23.47 3.032-.462 1.259-.693 2.69-1.117 4.005-1.095 4.43-1.24 9.446-.03 11.01 3.22 4.158 6.64 3.718 9.568.97l-.125 4.553c-2.986 2.406-6.474 4.045-11.86 12.962-1.877-2.368-9.936-12.047-22.857-14.234l-2.907-3.994c.05-.247-2.173-14.851-3.626-19.823 0 0 1.598-2.436 3.05-4.232 5.802-7.174 15.608-15.385 25.4-14.218Zm-16.852 4.145c-.497.158-.658-.837-.388-1.026.598-.05.809-.032 1.408.013.452.028.441.548-1.02 1.013Zm-21.805-.745c.646.461 1.433 1.703 2.203 2.835.426.626.185 1.665.25 2.69.094 1.453.255 3.849.357 5.321.2 2.872-.068 5.273-.486 6.14-.428 1.036-1.294.32-1.509-1.099-.052-.34.23-3.862.231-5.795 0-3.326-.846-7.43-1.046-10.092Zm19.559-.02c.228-.014.401-.006.552.189.696.894.978 1.435.344 1.926-.84.703-1.604.526-2.07-.811-.3-.953.408-1.253 1.174-1.305Zm-2.59.788c.75.504 1.494 1.832 1.571 2.79-.047.264-.278.487-.781.895-.5.46-.657.43-1.214-.452-.874-1.37-1.283-2.273-1.112-2.746.437-.455 1.005-.637 1.535-.487Zm30.543.173c1.252.107 2.489.681 3.707.97l-1.859 1.804a39.325 39.325 0 0 0-1.848-2.774Zm-33.322.94c.686.898 1.884 3.245 1.82 4.116a2.102 2.102 0 0 1-.734.728c-.23.062-.435-.34-1.21-1.715-1.347-2.391-1.741-3.066-1.042-3.353.368-.041.927-.023 1.166.225Zm-2.716.557c.75.669 2.546 4.233 2.598 5.235-.02.282-.104.527-.27.717-1.13 1.22-.845 1.023-2.527-2.453-1.421-2.86-1.796-3.142-.857-3.463.208-.072.728-.166 1.056-.036Zm-2.702.93c.494-.007.632.82 1.594 2.706 1.61 3.565 2.213 4.06 1.849 4.442-.45.568-.712.968-1.138.277-.971-1.584-1.934-3.606-2.838-5.38-.723-1.325-.788-1.485-.323-1.81.266-.185.663-.232.856-.235Zm28.73 1.013c-.604.17-3.036.943-1.546 1.083.3.028 1.064-.163 1.6-.2 1.506-.104 4.638.18 4.526-.11-.286-1.085-3.759-.985-4.58-.773Zm-30.835.333c0 .06.39.755.779 1.436 2.288 4.436 3.56 6.052 3.153 6.753-.334.423-.851.956-1.157.83-.492-.204-1.148-1.656-2.785-4.943-1.692-3.397-1.868-3.651-.998-4.092.356-.166.788-.289 1.008.016Zm-2.285 1.565c1.051 1.716.913 1.49.9 7.073-.009 3.475-.451 5.691-1.03 6.546-.304.448-.839.184-1.104-.692-.122-.4.224-.996.289-1.63.41-4.181.123-8.36.133-12.316.317-.033.642.74.812 1.02Zm27.12 1.37c.49.701.37 1.267.367 2.21-.01 1.335.09 1.433 1.009.76.813-.598.879-.636 2.33.353.862.586 1.948.653 2.652.005.495-.457.666-.251 1.33-.078.722.403.927.465 2.477-.29 1.047-.465 1.089-.532 1.711-.203 1.095.969 1.257.618 1.109-.648 0-.442.13-1.268.26-1.805.545-2.252-.338-2.277-1.504-.841-.452.555-1.458.796-2.41.348-1.362-.643-3.49-.383-5.062-.117-1.86.314-2.721-.201-3.469-.841-.423-.363-1.39-.686-1.498-.409-.107.278.112.715.698 1.556Zm-24.947 3.159c.233-.05.59.642 1.114 2.109.675 1.893-.505 8.477-1.215 9.555-.375.565-.617.912-1.388-.136-.307-.46-.068-.607.236-1.901.463-1.97.853-5.156.877-6.638.01-1.923.112-2.932.376-2.99Zm2.372 6.386c.167.011.363.391.631 1.141.38 1.03.195 3.017-.304 4.538-.288.886-.563 1.83-1.055 2.622-.168.445-1.026.29-1.263-.696-.15-.624.367-1.398.617-2.39.251-.997.538-2.265.68-2.903.262-1.558.449-2.33.694-2.312Zm18.353 2.917a.108.108 0 0 0-.053.005c0-.006-.01.01-.015.014-.038.04 1.79 2.04 2.28 2.598.257.218 2.46 2.906 1.09 2.288-3.457-1.437-7.501-.732-9.992 1.68-.312.301-.57-.008-1.513-.078-1.935-.145-2.637.625-1.46 1.582.18.146.556.212.725.447.156.216.11.602.19.71 3.741 4.984 10.67 5.954 15.018 2.699.548-.41.855-.554 1.364-.402 1.012.302 1.101-.548.208-1.737-.39-.518-.87-1.116-.59-1.288.552-.477.825-1.256-.135-1.548-.662-.201-1.405-.94-1.777-1.973-.434-1.205-4.695-4.91-5.34-4.997Zm-16.98 2.182c.813-.02.85 4.801-.048 6.265-.461.554-1.517-.477-1.359-1.534.12-.804.984-4.428 1.181-4.615.08-.076.158-.115.227-.116Zm16.575 3.009c.683-.007 1.617.3 2.36.973.4.364 1.104 1.94.812 2.558-.082.314-.925.296-1.002.066-.463-3.182-3.033-3.643-3.849-.673 0 0-.529.45-.596-.419.183-1.686.973-2.492 2.275-2.505Zm20.691.275c.817-.015 1.596.397 1.996 1.273.279.61.31 1.124.199 1.392-.083.2-.358.113-.358.113-1.305-3.59-3.08-1.93-3.722.055 0 0-.671.208-.755-.006-.083-.215-.032-.618.235-1.177.51-1.067 1.48-1.632 2.405-1.65Zm-17.447.223c.462-.025 1.253.352 1.844.95.6.608.66.97.174 1.42-.292.272-1.328.54-1.528.069l-.873-2.046c-.083-.195.173-.381.383-.393Zm-6.285.097c.517.002.626.12-.186 2.015-.173.405-2.256-.183-1.86-.965.596-.623 1.529-1.051 2.046-1.05Zm20.865.15c.208-.01.377.02.448.116-.186.067-.974 2.066-.974 2.066-.743-.09-1.632.015-1.793-.595-.151-.577.149-.928 1.196-1.33.317-.116.776-.241 1.123-.257Zm6.096.513c.789.29.973.96.872 1.306-.076.262-.449.264-.713.063-.251-.293-.621-.792-.593-1.127.083-.334.182-.338.434-.242Zm-39.295 1.846c.243.458.68 3.053.17 2.987-.497-.129-.728-.912-.815-1.616-.018-.145.424-1.354.645-1.37Zm8.68 1.385c.23-.033.809.17 1.668.658 2.829 1.372 5.728 1.566 8.808.876 1.776-.463 2.229-.734 2.48-.428.426.52-.247 1.04-2.755 1.885-2.75.928-5.604.772-9.356-1.886-1.009-.714-1.14-1.062-.844-1.105Zm31.386.716c.466.872-1.12 1.699-1.922 1.932-1.707.495-4.292.264-5.752-.617a4.307 4.307 0 0 1-.352-.236c-1.187-.887-.695-1.521.627-.837 1.422.736 4.316.871 5.85.128.77-.372 1.298-.84 1.55-.37Zm-35.12 1.626c-.158.035.108.435.66 1.035 3.869 4.359 13.1 6.724 18.288 2.231 1.625-1.53 1.377-2.22-1.186-.996-2.834.936-6.862 1.058-10.345.54-1.713-.232-4.503-.89-5.919-1.93-.891-.654-1.36-.911-1.499-.88Zm26.677.13c.236.02.65.107 1.548.576 1.311.685 4.288.45 5.263.09 2.054-.762 2.475.205.53 1.284-2.169 1.317-5.161.802-6.908-.895-.54-.486-.833-1.092-.595-1.14.023-.005.128.083.162.085Zm-25.65 7.71c7.62.699 19.118 8.702 23.601 17.818h-2.58c-4.505-7.174-11.435-13.362-19.66-15.517-.325-.25-1.535-1.983-1.36-2.3Zm33.82 1.67-.353 2.52c-1.276 1.05-5.957 4.943-9.428 11.037-.723-.034-1.073-.909-.953-1.504 2.78-5.5 6.102-8.538 10.733-12.053Zm-30.794 1.973c1.748-.12 13.121 6.424 16.95 14.175h-2.096c-4.308-5.63-9.096-9.719-13.346-11.193-1.033-1.094-2.164-2.934-1.508-2.982Zm30.441 1.753-.019 3.406c-2.72 2.66-4.71 5.748-6.266 9.016h-2.113s-.47-1.348-.306-1.93c2.401-4.338 4.7-7.496 8.705-10.492Zm-17.276 12.422h-2.045c-1.726-2.449-4.29-5.22-6.643-6.621-.964-1.2-2.045-2.68-1.61-2.92.026-.886 9.076 5.666 10.298 9.541Zm17.32-7.342-.043 1.969c-1.384 1.776-2.544 3.68-3.652 5.373h-1.742c1.589-3.443 5.58-8.273 5.438-7.342Zm-23.466 3.813c.63.167 2.934 2.79 2.86 3.53h-1.036c-.582-.738-1.272-1.95-1.681-2.704-.256-.478-.42-.92-.143-.826Zm23.066.609c.01-.002.01-.002.015 0l-.02 2.92h-1.75c-.188-.034.848-2.307 1.755-2.92Z" id="path6311-0" fill="#131F67"/><path d="m116.638 2.461 65.111 92.73.053-20.6-20.895-27.065c4.756-1.472 10.562-2.489 15.134-2.898-5.872-13.066-8.809-25.338-6.222-42.157-18.252-.22-36.58-.182-53.18-.01Zm52.097.44c-.51 5.938-1.18 12.56-.106 19.913-3.389-1.242-4.183.88-4.745 1.103-.638-1.427-3-3.895-5.674-.994-1.39 1.508-.714 4.346 2.513 5.625-3.695.285-5.616-2.885-6.264-6.155-1.998-1.283-4.097-2.551-4.297-7.05l1.024.171c-.34 3.14 2.91 4.738 4.811 3.24 1.23-.946 1.361-2.405.876-4.672.988-.203 3.301-1.175 2.69-4.158-.845-4.118-5.059-3.635-6.984-.927-1.6-1.988-4.535-2.357-5.711.73-.656 1.721.838 3.652 2.535 4.026-3.77.725-5.67-4.49-5.88-8.021L141.96 2.95c10.19-.06 14.645-.047 26.774-.048Zm-51.036.102 7.562.005 55.19 71.687.116 17.847L117.7 3.003Zm19.12.005 1.204.015c.945 6.31 4.56 10.878 10.744 13.1.32 5.156 2.797 12.158 12.194 14.524-.277 5.82 3.448 11.383 7.436 14.049 0 0-1.076.267-1.918.348-5.362-4.267-6.684-10.551-7.215-13.144-.181-.375-.693-.465-1.099-.557-4.59-1.627-8.451-5.41-10.03-10.028l-.993-4.533c0-.583-.115-.31-1.48-.813-3.54-1.308-6.812-5.152-8.28-9.744-.772-2.414-.564-3.217-.564-3.217Zm-4.864.015 4.237.004s.025.75.087 1.239c.57 4.52 4.613 10.193 8.738 12.075.583.266 1.395.64 1.585.818 1.153 7.41 4.5 11.873 11.563 14.93.112.116.43.19.525.338.963 4.583 3.068 9.895 7.07 12.816l-1.73.179-32.075-42.4ZM152.65 10.8a1.739 1.739 0 0 1 0 3.478 1.739 1.739 0 0 1 0-3.478Zm-58.472 9.503c.1.252-23.696 20.456-21.38 58.47l-.69.775.189.27c-.786.896-1.543 1.614-2.4 2.487 4.934 3.157 13.535 6.603 13.562 6.512l-1.644 3.822 10.281 3.333-1.378 3.634s-7.153-2.38-10.117-3.372c-1.462 3.254-2.348 6.691-3.412 10.077-.1.273-.334.142-.7-.387-5.34-9.142-16.308-15.738-15.938-15.085l-38.895 37.044-.266 22.893 26.919 27.846s-7.79 3.848-11.476 6.372c2.866 2.348 6.11 4.156 8.96 6.376 5.894 4.172 9.872 10.306 13.693 14.46 18.016-8.966 36.16-8.467 51.831-3.023-1.826 1.928-3.863 3.598-5.745 5.689 4.555 11.996 3.097 35.82 2.868 36.468 9.483-9.724 23.59-30.574 21.708-59.932l3.99-4.015c-.072-.206-9.982-5.53-14.112-6.69l1.143-3.649-9.89-3.1 1.103-2.898 9.852 2.864c1.865-4.597 3.841-11.036 3.841-11.036 3.934 5.908 8.27 11.282 17.197 16.75l38.674-37.141-.251-23.88-26.33-26.429 10.96-5.733c-1.053-.852-2.58-1.661-3.663-2.516-.078-.06.217-.244.14-.304-.275-.213-.477-.385-.757-.58-.063-.045-.26.241-.323.197-3.72-2.617-7.44-5.193-10.367-8.325-.074-.08.035-.405-.039-.484-1.521-1.632-3.036-3.15-4.584-4.756-.717-.727-1.903-2.453-1.903-2.453l-.068-.57-1.663-2.1c-5.354 3.17-28.184 11.127-50.275 2.317l4.198-4.214a32.245 32.245 0 0 1-2.13-8.2c-1.155-9.92-.713-27.784-.713-27.784Zm69.636 5.617c1.01 0 1.831.824 1.831 1.839 0 1.014-.82 1.838-1.831 1.838a1.832 1.832 0 0 1-1.827-1.838c0-1.015.816-1.839 1.827-1.839Zm5.728 2.187c.932 4.569 2.982 11.203 5.024 15.676l-2.432.27c-1.981-1.291-4.075-3.176-4.295-5.85-5.356.041-6.923-8.392-4.966-7.38-.25 2.881 1.81 4.017 3.83 3.734 1.74-.243 3.243-2.654 1.173-5.315.92-.36 1.37-.631 1.666-1.135ZM93.63 41.619c.355 5.843 1.497 10.104 2.564 14.518L85.609 66.161c.825-9.149 3.502-17.326 8.02-24.542Zm50.761 19.245 1.345 1.935c-15.296 9.016-41.402 9.653-57.307 2.051l2.111-2.017c13.986 6.339 36.756 6.81 53.851-1.969Zm-99.34 3.01c-1.54-.02-3.32.57-5.205 2.012-7.017-3.209-11.612 4.292-7.273 9.26-.642 3.575-1.128 4.241 1.552 7.86-2.847.365-6.442-.383-9.5-.855.517 5.295 8.071 6.527 11.216 5.945 3.395-.738 6.598.948 6.738.987 1.996.56 3.237 1.524 5.205 1.989 3.247.775 8.002-3.044 8.69-6.672.065-.487.215-.928-.052-1.001-2.22.57-4.658 1.373-6.82 1.848-2.118.521-3.714 1.036-5.326 2.303l-.135-4.374c10.992.525 6.208-9.965 5.586-10.416 2.042-4.139-.414-8.834-4.675-8.887Zm99.914.328 2.39 5.772-6.352 2.162-1.624-5.65 5.586-2.284Zm-100.371.174c3.736.037 7.078 3.986 3.49 8.409 6.955 6.157-1.96 12.756-6.204 8.175-5.65 5.195-11.654-.23-8.497-5.887-6.027-5.413 1.406-12.673 6.482-7.997 1.247-1.924 3.03-2.716 4.729-2.7ZM87.97 66.49c.895 0 1.62.728 1.62 1.626 0 .898-.725 1.625-1.62 1.625-.894 0-1.619-.727-1.619-1.625s.725-1.626 1.62-1.626Zm-41.387.121c-.092.002-.203.043-.323.15-.18.017-.574.695-1.561 1.844-1.716 1.995-1.9 2.014-1.9 2.014-1.829-.6-3.05-.276-4.255.489 0 0-1.373-.261-3.268-1.85-.864-.725-1.33-.883-1.48-.494-.16.415.232.823 1.89 1.955 2.294 1.566 2.151 1.447 2.151 1.447-.141 1.376.081 2.495.6 3.538 0 0-.404.977-2.033 3.118-.46.605-.838 1.263-.839 1.461 0 .833.721.273 2.386-1.838.653-.828 1.548-2.013 1.548-2.013 1.955.68 2.64.267 3.867-.17 0 0 .42.313 1.486 1.166 1.951 1.562 2.374 1.728 2.613 1.53.323-.267.28-.354-.458-.89-2.2-1.6-2.957-2.524-2.957-2.524.447-1.75-.042-3.197-.522-4.11 0 0 .035-.223 1.277-1.615.912-1.023 2.16-2.637 2.082-2.869.02-.144-.1-.34-.304-.339Zm45.04.354 5.722 1.785-1.263 5.97-6.097-1.974 1.639-5.781Zm41.402 1.465 1.596 5.825-5.953 1.587-.973-6.183 5.33-1.229Zm4.179.097c.895 0 1.62.728 1.62 1.626 0 .897-.725 1.625-1.62 1.625-.894 0-1.62-.728-1.62-1.625 0-.898.726-1.626 1.62-1.626Zm13.529.208 5.003 4.47-5.552 2.816-2.675-5.825 3.224-1.46Zm-47.176 1.292 5.813.687-.236 6.27-6.67-.895 1.093-6.062Zm-20.165.068 6.468 2.85-2.333 6.54-6.622-2.854 2.487-6.536Zm16.671.508c2.384.374 1.743 3.198 0 3.25-.894 0-1.62-.727-1.62-1.625s.726-1.625 1.62-1.625Zm20.913.004.795 6.275-6.034.368-.13-6.376 5.369-.267Zm4.15.716c.894 0 1.62.728 1.62 1.626 0 .898-.726 1.625-1.62 1.625-.895 0-1.62-.727-1.62-1.625s.725-1.626 1.62-1.626Zm-84.008.589a1.677 1.677 0 0 1 0 3.353 1.673 1.673 0 0 1-1.667-1.68c0-.925.745-1.673 1.667-1.673Zm71.457-.061c.895 0 1.62.728 1.62 1.625 0 .898-.725 1.626-1.62 1.626-.895 0-1.62-.728-1.62-1.626 0-.897.725-1.625 1.62-1.625Zm28.422.401 2.352 6.45-6.593 2.133-1.865-6.623 6.106-1.96Zm4.627.174c.894 0 1.62.728 1.62 1.626 0 .898-.726 1.625-1.62 1.625-.894 0-1.62-.727-1.62-1.625s.726-1.626 1.62-1.626Zm11.399 1.83 4.26 3.023-2.11 1.18c-.554-1.329-1.53-2.905-2.15-4.204Zm-60.902.585 6.29 1.369-.96 6.613-6.863-1.374 1.533-6.608Zm-18.706.362 3.34 1.578-2.202 5.51-5.403-2.888 4.265-4.2Zm14.932.358c.894 0 1.62.728 1.62 1.626 0 .898-.726 1.625-1.62 1.625-.895 0-1.62-.727-1.62-1.625s.725-1.626 1.62-1.626Zm36.326.363 1.123 6.614-7.095 1.001-.438-6.744 6.41-.87Zm26.562.126c.894 0 1.62.728 1.62 1.626 0 .897-.726 1.625-1.62 1.625-.895 0-1.62-.728-1.62-1.625 0-.898.725-1.626 1.62-1.626Zm-5.032.048 2.347 5.83-6.94 2.912-2.054-5.834 6.647-2.908Zm-17.698.421c.894 0 1.62.728 1.62 1.626 0 .898-.726 1.625-1.62 1.625-.895 0-1.62-.727-1.62-1.625s.725-1.626 1.62-1.626Zm-23.439.663 6.642.121-.077 6.686-7.273-.203.708-6.604Zm53.119.464 2.612 1.82c-26.885 17.352-64.652 19.504-94.125 2.423 0 0 1.205-1.204 1.89-1.91 26.569 15.96 65.358 13.72 89.623-2.333Zm-56.719.755c.895 0 1.62.728 1.62 1.626 0 .897-.725 1.625-1.62 1.625-.894 0-1.62-.728-1.62-1.625 0-.898.726-1.626 1.62-1.626Zm13.635.368c.894 0 1.62.728 1.62 1.625 0 .898-.726 1.626-1.62 1.626-.894 0-1.62-.728-1.62-1.626 0-.897.726-1.625 1.62-1.625Zm-31.632.895 6.936 2.012-1.181 5.496-7.606-2.196 1.851-5.312Zm-4.588.039c.894 0 1.62.727 1.62 1.625s-.726 1.626-1.62 1.626c-.895 0-1.62-.728-1.62-1.626 0-.898.725-1.625 1.62-1.625Zm53.87 1.17 1.658 6.169-7.668 1.644-.926-6.066 6.936-1.747Zm4.405.895c.895 0 1.62.728 1.62 1.626 0 .898-.725 1.625-1.62 1.625-.894 0-1.62-.727-1.62-1.625s.726-1.626 1.62-1.626Zm-100.178.958-.015 4.325a155.767 155.767 0 0 0-4.179-3.304c1.5.08 2.894-.335 4.193-1.02Zm-15.794.107c.35-.004 1.169.283 2.144.28 3.123-.01 8.956.968 10.68 2.39.576.472 1.436.892 1.905 1.655 0 .363-.514.373-1.268-.097-1.445-.901-3.851-1.705-7.07-2.153-.582-.08-.655-.057-.656.218 0 .34.536.538 2.232.817 2.194.362 2.66.578 3.147.712 1.303.358.47.836-.871.965-5.474.514-9.573-1.85-10.398-4.55-.066-.177 0-.236.155-.237Zm76.262.096 6.888.895-.314 5.787-7.538-.866.964-5.816Zm-58.57.504c1.204.948.376 3.822-.279 4.668-.424.475-1.417.223-1.412-.445.15-.6-.062-3.459.068-4.344.48-.275 1.186-.197 1.624.12Zm79.816.256.356 5.965-7.514.344.058-5.86 7.1-.449Zm-25.352.402c.894 0 1.62.727 1.62 1.625s-.726 1.626-1.62 1.626c-.895 0-1.62-.728-1.62-1.626 0-.898.725-1.625 1.62-1.625Zm-41.87.082c.278 4.377-6.42 7.347-8.925 6.004-1.11-.595-.648-.962 1.552-1.408 2.846-.757 4.721-1.494 4.723-2.027 0-.328-.43-.288-1.59.145-1.787.602-3.645.861-5.35 1.63-1.276.581-1.772.785-2.058.436-.601-.733 2.232-2.581 5.171-3.072 2.205-.37 4.428-1.549 6.478-1.708Zm71.367.546c.894 0 1.62.728 1.62 1.626 0 .898-.726 1.625-1.62 1.625-.895 0-1.62-.727-1.62-1.625s.725-1.626 1.62-1.626Zm-15.062 1.19c.895 0 1.62.728 1.62 1.626 0 .898-.725 1.626-1.62 1.626-.894 0-1.62-.728-1.62-1.626 0-.898.726-1.625 1.62-1.625Zm36.085 2.763c10.84 10.359 22.72 22.285 32.52 32.094l-.044 15.4-37.42 35.698c-6.776-4.153-12.513-9.343-17.795-18.563.596-.516 1.12-.844 1.572-1.408l-1.952 1.17c-6.903-11.08-9.831-33.16 1.894-50.86l-11.847.436 1.933-4.05 12.897-.706 5.215-5.617s1.653-.306 3.022-.624c1.359-.314 4.131-1.11 6.165-1.77 2.033-.66 3.763-1.2 3.841-1.2Zm-87.483 2.869s11.138 6.076 17.322 18.243c-19.99 17.261-27.526 37.361-29.226 58.282-10.881-10.215-16.38-15.866-26.21-25.786l.356-14.804 37.758-35.935Zm42.048 1.93c-2.882 6.184-5.361 12.959-7.582 20.218l-3.099-.92s2.005-.841 2.897-1.374l-1.61-2.602 3.051-1.258-1.803-2.206 3.095-1.8-1.547-1.95 2.834-1.422-1.76-2.032 2.974-1.664-1.552-1.945 4.102-1.045Zm.95.015s.398.076.867.169c.112-.043-.559 1.62-.487 1.679 1.082.223 1.145.163 1.47.26l.824-1.712 1.355.257c-2.732 6.189-5.654 12.96-7.331 20.29l-1.596-.334s.466-1.546.468-1.751c-.187-.04-1.086-.42-1.364-.533-.096.242-.665 2.032-.665 2.032l-1.263-.034c2.067-8.003 5.67-16.877 7.721-20.323Zm5.19.237 2.83 2.35-3.21 1.254 1.662 2.22-3.403 1.234 1.952 2.308-3.369 1.248 2.01 2.791-3.504 1.186 2.213 2.452-3.162 1.486 1.894 1.882s-1.973.652-2.087.682c-.317.081-1.644-.247-1.644-.247 2-7.142 4.469-14.382 7.818-20.846Zm-68.83 1.19c-.782.509-.336 1.617-1.316 2.564-.157.17-.17.56-.232.9-.047.258-.82 3.348-.82 3.348s.195-.236.505-1.221c.265-.842.494-2.438.638-2.705.722-.221.832-2.586 1.564-2.262.423.187.343.573.104 1.48-.522 1.813-.726 2.577.168 1.34 1.337-1.615 1.468-3.073-.038-3.381a5.506 5.506 0 0 0-.574-.063Zm20.213.672-34.967 32.956-.106 12.298 12.17 12.38 8.637 8.403c3.135-18.82 10.328-36.774 28.036-52.312-2.713-4.38-7.361-9.896-13.77-13.725Zm94.255.339c-20.546 9.692-25.27 29.57-18.908 47.566 9.791-12.64 17.476-24.515 18.908-47.566ZM81.078 96.93l9.331 3.014-3.513 12.027-8.401-2.56-.858-2.128 3.441-10.353Zm72.094.315c-.893 16.083-6.935 31.79-17.448 44.116-5.315-13.163-2.118-34.207 17.448-44.116Zm-50.256.087-.588 1.495 1.292.367.55-1.519-1.254-.343Zm-1.291 3.531-.53 1.52 1.325.45.496-1.544-1.291-.426Zm55.041.276c-2.876 22.31-14.883 42.61-27.569 52.955 4.043 6.582 8.796 10.816 13.626 14.35l35.733-34.36-.14-11.46-21.65-21.485Zm-94.428 5.922c-.22.815-.298 1.23-.298 1.23s.412-.382 1.498-.978c7.021-3.515 4.756 1.83 1.448 3.807-.74.395-1.5.865-1.5.865s.703.16 1.464.301c4.261.889 3.354 3.39-1.09 3.001-.657-.058-1.429-.182-1.429-.145 0 .036.266.976.574 1.754 1.498 3.787-1.297 4.082-3.135 1.674-.256-.335-.836-1.26-.836-1.26s-.181.7-.292 1.376c-1.588 5.936-5.506 5.786-4.044-.237.184-.623.406-1.736.406-1.736s-.88.534-1.84.964c-5.074 2.274-5.897-.067-1.288-3.489 1.312-.974 1.756-1.356 1.756-1.356a13.384 13.384 0 0 1-2.234-.356c-3.677-.926-4.657-3.133 1.235-3.029.87.018 1.757.075 1.757.075s-.291-1.268-.598-2.224c-1.421-4.425 1.443-4.951 3.86-.987.514.843.661.848.661.848-.074.003.152-1.51.738-2.908 2.925-5.439 4.07-.475 3.187 2.81Zm63.196-4.403c-2.454 4.353-4.594 8.68-5.615 13.193l-9.548-.164c.66-4.002 2.347-8.163 4.362-12.564 3.887-.107 7.392-.278 10.801-.465Zm-25.207 1.93-.55 1.602 1.384.426.501-1.558-1.335-.47Zm-71.4 3.005c-1.023 2.668-1.365 5.64-1.932 8.021-.24 1.38 0 1.955.829 2.264 1.173.44 2.865-.16 3.812-1.519.534-.767.921-2.35 1.003-5.147l.091-2.492c-1.451-.27-2.442-.661-3.803-1.127Zm70.108.348-.458 1.47 1.335.5.511-1.486-1.388-.484Zm61.838.552c1.624.04 1.926.186 3.397 1.06l2.84 2.93a3.92 3.92 0 0 0-1.21 2.836 3.922 3.922 0 0 0 3.913 3.928c1.07 0 2.747-1.132 2.747-1.132l4.5 4.677c-2.623 1.154-5.191-1.5-6.157-2.55-.227-.246-.285-.415-.285-.415s.04.13-.054.648c-.377 2.083-2.423 8.229-4.38 7.901-2.204-.369.04-9.154.064-8.952-1.515 1.608-8.898 3.32-8.38 1.524 1.027-3.565 6.549-4.94 7.275-5.559-2.936-1.773-6.658-6.69-4.27-6.896Zm-131.589.115c.935.066 1.577.18 2.212.446.296.08.31.328.342.561.01 1.053.27 4.144-.703 4.175-1.08-.023-2.094.21-2.805.755-.572.438-.762.121-.608-1.002.15-1.088.689-3.375.92-4.3.038-.382.34-.652.642-.635Zm29.174.04a3.922 3.922 0 0 0-3.914 3.928 3.922 3.922 0 0 0 3.914 3.928c2.16 0 3.913-1.76 3.913-3.928a3.922 3.922 0 0 0-3.913-3.929Zm0 1.373a2.55 2.55 0 0 1 2.545 2.555c0 1.41-1.14 2.55-2.545 2.55a2.547 2.547 0 0 1-2.545-2.55 2.55 2.55 0 0 1 2.545-2.555Zm20.193.048c8.97 15.542 7.931 36.876-2.645 52.395l11.37-.799-1.494 2.923-12.121 1.185c-1.853 1.701-3.538 3.647-5.36 5.467l-.019.643c-4.155.969-8.315 2.083-12.55 3.616-2.236-2.204-6.442-6.61-6.414-6.72l.27-1.426c28.828-14.763 20.395-44.37 18.365-46.805 3.093-3.727 6.784-7.235 10.599-10.479Zm80.01 2.826c1.167 0 2.11.952 2.11 2.124a2.117 2.117 0 0 1-2.11 2.124 2.121 2.121 0 0 1-2.117-2.124c0-1.172.949-2.124 2.116-2.124Zm9.398.57 3.542 3.663c-.46.456-1.09.74-1.788.74a2.547 2.547 0 0 1-2.545-2.55c0-.726.304-1.387.79-1.852Zm-121.675.456c1.168 0 2.111.947 2.111 2.119a2.117 2.117 0 0 1-2.11 2.123 2.121 2.121 0 0 1-2.116-2.123c0-1.172.948-2.12 2.115-2.12Zm-15.731.89c.99.332.76 1.26-.52 2.078-.828.528-1.586.645-2.314.254-1.38-.742 1.483-2.816 2.834-2.332Zm16.344 5.196-12.74 12.37c.802-2.055.832-4.105.893-6.158 3.833.396 5.438-1.556 4.877-5.574 2.476.149 5.042-.113 6.97-.638Zm20.411 1.412c5.907 16.905.777 34.796-17.698 45.157.76-16.2 7.534-31.687 17.698-45.157Zm16.826 1.48c10.138 2.664 21.679 3.906 33.66 3.915.09 4.576.31 9.416 1.244 14.087-10.206-2.68-21.607-3.925-34.06-3.705.516-4.837-.311-10.324-.844-14.296Zm75.178 2.502-10.796 12.67.453-6.918c3.636.465 4.931-1.46 4.396-5.263 1.983.246 3.964-.103 5.947-.49Zm-104.906.701-.853 5.06c-2.155.06-4.27.827-4.242 5.656l-6.439-.077 11.534-10.639Zm118.816.934c1.168 0 2.111.952 2.111 2.124a2.117 2.117 0 0 1-2.111 2.124 2.121 2.121 0 0 1-2.116-2.124c0-1.172.948-2.124 2.116-2.124Zm-128.61.644c1.168 0 2.116.951 2.116 2.123a2.117 2.117 0 1 1-4.232 0c0-1.172.948-2.123 2.116-2.123Zm123.891 2.177-1.127 7.663c-2.942-.26-5.397.195-4.642 5.39-2.489-.245-5.945.345-8.26.546l14.03-13.6Zm-10.54 1.388c1.167 0 2.115.952 2.115 2.124a2.117 2.117 0 1 1-4.231 0c0-1.172.948-2.124 2.116-2.124ZM29.112 132.89c1.167 0 2.115.952 2.115 2.124a2.113 2.113 0 1 1-4.227 0c0-1.172.944-2.124 2.112-2.124Zm7.012 2.51c2.7.61 1.452 6.928.844 8.646-.046.046 7.534-3.986 7.986-2.206.296 3.569-6.275 6.057-6.275 6.057s4.429 3.862 4.555 6.29c.01 1.57-1.852 1.278-4.27-.712-1.034-1.02-1.834-1.783-2.546-2.492a3.928 3.928 0 0 0 1.355-2.975 3.922 3.922 0 0 0-3.914-3.928c-1.193 0-2.26.538-2.978 1.384-.561-.543-1.196-1.175-2.049-1.984-1.397-1.311-2.377-2.353-2.236-2.825 1.843-1.303 5.51 2.197 5.836 2.515-.274-.682 1.753-7.406 3.692-7.77Zm-3.692 7.77c.015.037.035.058.063.058l-.063-.058Zm115.125-2.835c1.284-.017 1.204 2.917.747 4.442a48.639 48.639 0 0 1-.622 2.114s1.083-.85 1.562-1.074c3.495-1.644 4.799.217 3.036 2.375-.847 1.11-2.002 1.356-2.94 2.288 1.336.061 2.87.359 4.025 1.04.897.54 1.602 1.192 1.6 1.597 0 .907-2.223 1.396-4.3 1.161-.883.02-2.544-.455-2.544-.455s.689 1.164.94 1.858c.775 2.159.503 4.688-.617 4.683-1.875-.503-2.79-2.595-3.524-4.098-.601 1.675-1.185 3.468-2.525 4.713-1.33 1.234-2.01.209-1.942-1.882.026-.832.636-3.314.636-3.314-7.875 2.668-7.29-.942-1.144-4.104-3.786-1.811-6.085-3.442.353-3.811-.17-.155-1.294-3.616-.091-4.427 1.118-.753 3.5 1.834 3.614 1.96-.047-.256.628-2.283 1.76-3.682.867-.986 1.511-1.377 1.976-1.384Zm-7.259 7.533c.01.007.016.008.02 0h-.02Zm34.472-2.286c-1.372.125-2.225 1.346-2.859 2.411-.129.216-.366.293-.454.578-.569 1.837-1.064 4.036-1.368 6.775.869.358 2.828.963 3.695.638.244-.103.168-.735.25-.944 1.368-3.455 2.044-6.038 2.044-7.625 0-1.28-.439-1.913-1.308-1.833Zm-140.901-.157a2.55 2.55 0 0 1 2.545 2.554c0 .81-.377 1.531-.964 1.998-1.64-1.64-2.478-2.5-3.577-3.58a2.533 2.533 0 0 1 1.996-.972Zm141.386 1.216c.343.838-.761 1.748-2.192 1.742-.85-.003-1.127.117-.748-.623.45-.9 2.282-2.723 2.94-1.12Zm-19.187-.592a2.121 2.121 0 0 1 0 4.243 2.117 2.117 0 0 1-2.115-2.12c0-1.171.948-2.123 2.115-2.123Zm-111.533.15a2.121 2.121 0 0 1 0 4.243 2.117 2.117 0 0 1-2.111-2.124c0-1.172.943-2.12 2.11-2.12Zm100.029.861a3.922 3.922 0 0 0-3.914 3.928 3.922 3.922 0 0 0 3.914 3.929c2.16 0 3.913-1.76 3.913-3.929a3.922 3.922 0 0 0-3.913-3.928Zm-52.304.527c-1.029 4.527-2.613 8.854-4.613 13.135-3.772.228-7.85.405-10.54.789 4.48-7.876 4.588-9.727 6.246-13.9l8.907-.024Zm6.482.639c1.06.126 2.221.286 3.268.489-1.925 6.803-4.472 13.789-7.76 20.512l-1.99-.31-.945-1.17 3.162-1.268-2.463-2.525 4.082-1.239-2.51-2.486 4.034-1.011-2.16-2.632 3.62-1.418-2.3-2.98 3.857-1.064-1.895-2.898Zm45.822.208a2.55 2.55 0 0 1 2.545 2.554c0 1.41-1.14 2.55-2.545 2.55a2.547 2.547 0 0 1-2.545-2.55 2.55 2.55 0 0 1 2.545-2.554Zm-41.83.387 1.344.218-.415 1.446 1.533.33.497-1.563s1.232.114 1.363.212c-1.605 6.568-7.282 20.315-7.354 20.242l-1.46-.218.385-1.388-1.36-.194v-.014l-.655 1.51-1.45-.122c3.514-8.05 5.907-14.231 7.571-20.459Zm71.437.522c1.078-.005 1.013.553.232 2.594-.734 1.916-1.01 2.684-1.366 2.933-.85.605-2.679.097-2.53-.785.48-2.864.652-4.085 1.388-4.474.768-.152 1.515-.264 2.276-.268Zm-66.03.238 3.509.682-2.935 1.751 1.865 2.187-3.605 1.543 2.188 2.274-3.48 1.427 2.116 2.501-3.61 1.529 2.458 2.138-4.058 1.287 1.537 2.37-1.528.857-1.884-.295c3.128-7.325 5.138-13.35 7.427-20.251Zm8.622 1.75 6.873 1.878 1.374 2.462-3.224 10.93-9.158-2.7 4.135-12.57Zm-13.659 1.055-.655 1.795 1.513.315.583-1.848-1.44-.262Zm-1.33 4.122-.655 1.795 1.421.28.67-1.813-1.436-.262Zm-1.34 3.624-.67 1.785 1.383.285.66-1.79-1.373-.28Zm64.573 3.285s-.701.51-.886.736c.153.41.596 1.04.53 1.453-.06.31-.405.561-.924 1.115-1.294 1.512-1.749 1.347-.998-.266.247-.507.357-.977.357-.977-.3.42-.525.919-.727 1.314-.427.824-.825 1.604-.825 1.604.824.286 1.372.9 1.904 1.3 0 0 .27-.732.458-1.432.26-.975.775-1.377 1.407-1.712.398-.212.779-.598.779-.598-.695-.711-.775-1.729-1.075-2.537Zm-66.004.44-.709 1.901 1.379.339.766-1.94-1.436-.3Zm-77.762 4.78c-.126 7.57.124 12.556-.14 20.72l20.422 26.565-3.186 1.074s-.035.368-.208.416c-4.363 1.205-11.442 2.404-11.442 2.404 5.265 12.066 8.679 27.154 6.324 42.225l52.853-.14-64.623-93.264Zm111.78 12.83-1.822 1.833c-26.88-14.602-63.9-14.544-90.915 3.135l-2.203-1.62c29.486-18.962 65.76-18.843 94.94-3.348ZM22.228 171.293l62.208 89.698-7.306.107-54.849-72.021-.053-17.784Zm133.502 1.62s-1.796.468-3.306.954c-4.323 1.389-6.345 3.898-5.948 7.382.118 1.03.383 1.015 2.145-.101 4.122-2.612 4.38-2.728 9.514-4.238.397-.117.974-.03.974-.03l-.227 4.07c-8.558-.033-8.09 6.79-5.63 10.338-.86 1.64-2.746 7.366 3.461 9.545 3.097.619 6.377-1.907 6.276-2.037 5.711 2.712 12.34-1.835 7.171-9.71 1.944-3.434.574-5.983-1.282-8.176 0 0 .314.028 3.017.528 4.102.76 5.669.624 5.669.624.01-3.705-3.052-5.36-9.428-5.864-4.516.64-12.406-3.316-12.406-3.285Zm-68.864.431c.308-.002.614-.002.92.005l-.299 6.328-6.945.32-.453-6.304c2.392-.166 4.615-.341 6.777-.349Zm8.323.155 7.452.91-1.128 5.916-6.863-.74.54-6.086Zm60.407.073c.617.07.42.786-.425.953-1.34.263-4.775 2.27-4.776 2.791 0 .336.169.288 1.426-.387.629-.337 1.94-.912 2.911-1.282.971-.37 2.081-.817 2.468-.992 1.155-.523 1.727-.161 1.311.827-.275.654-.384.705-3.06 1.558-2.423.771-2.867.971-4.406 1.96-.574.368-1.59.958-2.26 1.306-1.582.822-1.903.825-1.9-.28-.086-3.279 3.526-5.738 8.421-6.445a.839.839 0 0 1 .29-.009Zm-64.46.764a1.69 1.69 0 0 1 1.687 1.693 1.69 1.69 0 0 1-1.687 1.693 1.69 1.69 0 0 1-1.687-1.693 1.69 1.69 0 0 1 1.687-1.693Zm-18.436.45.555 5.742-6.83 1.761-1.561-5.93c2.612-.643 5.224-1.095 7.836-1.573Zm87.98.435c1.872.286 1.724 4.59.766 5.336-1.473 1.065-2.378-1.162-1.72-4.117.185-.888.526-1.198.954-1.219Zm-84.105.232a1.69 1.69 0 0 1 1.687 1.694 1.69 1.69 0 0 1-1.687 1.693 1.69 1.69 0 0 1-1.686-1.693 1.69 1.69 0 0 1 1.686-1.694Zm33.363.494 7.72 2.114-1.888 5.999-7.244-2.046 1.412-6.067Zm-4.203.116a1.69 1.69 0 0 1 1.687 1.693 1.69 1.69 0 0 1-1.687 1.693 1.69 1.69 0 0 1-1.687-1.693 1.69 1.69 0 0 1 1.687-1.693Zm63.163.503c3.326.035 7.713 1.71 7.72 4.291-.067.734-6.968-.24-10.154-1.528-1.131-.457-2.509-1.848-2.507-2.43 0-.344.675-.32.95.015.448.548 2.037 1.12 5.687 2.042 2.804.709 3.083.737 3.085.31 0-.39-1.656-.925-3.451-1.224-.903-.149-1.745-.422-3.133-.542-.647-.002-.805-.41-.265-.687.588-.175 1.3-.255 2.068-.247Zm-5.876 1.335c.84.395 1.142 1.182 1.605 1.597-.575.274-.832.55-1.764.62.017-.619-.15-1.356.16-2.217Zm-101.113.465a1.69 1.69 0 0 1 1.687 1.693 1.69 1.69 0 0 1-1.687 1.693 1.69 1.69 0 0 1-1.687-1.693 1.69 1.69 0 0 1 1.687-1.693Zm-4.54.479 1.822 5.863-6.526 2.85-2.314-5.81c2.256-1.191 4.724-2.056 7.018-2.903Zm30.176.958s5.199.007 6.994.029l-.42 6.618-6.487.048-.087-6.695Zm-6.945.362.361 6.609-6.246.842-1.234-6.647 7.119-.804Zm39.493.058a1.69 1.69 0 0 1 1.687 1.694 1.69 1.69 0 0 1-1.687 1.693 1.69 1.69 0 0 1-1.687-1.693 1.69 1.69 0 0 1 1.687-1.694Zm45.195.155c3.803.017 7.43 4.408 3.672 9.008 6.164 4.76-.537 12.762-5.986 8.099-7.79 7.681-12.145-2.75-8.921-5.515-4.762-7.854 1.088-12.816 7.123-9.352 1.112-1.582 2.623-2.246 4.112-2.24Zm-63.664.189 6.853 1.529-1.378 6.536-6.695-1.365 1.22-6.7Zm22.681.16 6.266 3.125-4.858 4.693-3.61-1.805 2.202-6.013Zm-40.172.74a1.69 1.69 0 0 1 1.687 1.693 1.69 1.69 0 0 1-1.687 1.693 1.69 1.69 0 0 1-1.687-1.693 1.69 1.69 0 0 1 1.687-1.693Zm13.538.213a1.69 1.69 0 0 1 1.687 1.693 1.69 1.69 0 0 1-1.687 1.693c-2.482-.39-1.814-3.33 0-3.386Zm-31.207.953 1.527 6.536-6.347 2.153-2.27-6.367 7.09-2.322Zm4.361.464a1.69 1.69 0 0 1 1.687 1.693 1.69 1.69 0 0 1-1.687 1.694 1.69 1.69 0 0 1-1.686-1.694 1.69 1.69 0 0 1 1.686-1.693Zm93.961 3.014c-.477.596-1.104 1.297-1.104 1.297-1.58-.653-3.11-.392-4.135.313 0 0-1.088-.871-2.082-1.678-1.722-1.396-2.297-1.716-2.299-1.132 0 .122.585.72 1.297 1.33 1.942 1.669 2.34 2.27 2.34 2.27-.468 1.514-.463 2.7.43 3.973 0 0 .036.165-.646.888-1.237 1.31-2.514 3.333-2.22 3.63.365.37 1.4-.516 2.697-2.276.925-1.254 1.203-1.281 1.203-1.281 1.578.427 2.452.814 4.029-.493 0 0 .595.181 1.783 1.166 1.852 1.534 2.517 1.865 2.719 1.345.164-.425-.08-.709-1.649-1.907-1.021-.78-2.157-1.693-2.157-1.693.334-.55.57-2.504-.572-3.841 0 0 .045.088 1.734-2.11 1.124-1.46 1.318-1.645.946-1.959-.496-.652-2.146 1.95-2.314 2.158Zm-48.954-1.872 6.184 2.607-2.212 6.488-5.972-2.448 2-6.647Zm-68.04.435a1.69 1.69 0 0 1 1.687 1.694 1.69 1.69 0 0 1-1.687 1.693 1.69 1.69 0 0 1-1.687-1.693 1.69 1.69 0 0 1 1.687-1.694Zm63.26.174a1.69 1.69 0 0 1 1.686 1.694 1.69 1.69 0 0 1-1.687 1.693 1.69 1.69 0 0 1-1.687-1.693 1.69 1.69 0 0 1 1.687-1.694Zm-67.579.465 2.025 5.031-4.603-3.444 2.578-1.587Zm50.748 1.296 6.16.73-.974 5.893-5.312-.483.126-6.14Zm-6.724.015-.063 6.057-5.851.252-.496-6.048 6.41-.261Zm-30.104 1.103a1.69 1.69 0 0 1 1.687 1.693 1.69 1.69 0 0 1-1.687 1.694 1.69 1.69 0 0 1-1.687-1.694 1.69 1.69 0 0 1 1.687-1.693Zm-4.666.121 2.381 6.086-3.692 1.79-4.95-4.702 6.261-3.174Zm22.022.077.954 5.791-6.102 1.514-1.48-5.892 6.628-1.413Zm87.213.058a2.41 2.41 0 0 1 2.405 2.414 2.41 2.41 0 0 1-2.405 2.415 2.41 2.41 0 0 1-2.405-2.415 2.41 2.41 0 0 1 2.405-2.414Zm-71.395.184a1.69 1.69 0 0 1 1.687 1.693 1.69 1.69 0 0 1-1.687 1.694 1.69 1.69 0 0 1-1.687-1.694 1.69 1.69 0 0 1 1.687-1.693Zm16.619.624 6.506 2.114-2.188 5.23-5.62-1.529 1.302-5.815Zm-28.837.218a1.69 1.69 0 0 1 1.687 1.693 1.69 1.69 0 0 1-1.687 1.693 1.69 1.69 0 0 1-1.687-1.693 1.69 1.69 0 0 1 1.687-1.693Zm24.74.624a1.69 1.69 0 0 1 1.687 1.693 1.69 1.69 0 0 1-1.687 1.694 1.69 1.69 0 0 1-1.687-1.694 1.69 1.69 0 0 1 1.687-1.693Zm-41.315 1.984 2.241 5.176-6.12 2.656-2.666-5.278 6.545-2.554Zm4.338.31a1.69 1.69 0 0 1 1.687 1.692 1.69 1.69 0 0 1-1.687 1.694 1.69 1.69 0 0 1-1.687-1.694 1.69 1.69 0 0 1 1.687-1.693Zm22.551 1.562c10.05-.021 19.12 2.088 26.403 5.113l-2.169 2.042c-23.62-8.147-39.066-4.477-54.906 2.496l-1.6-1.983c11.196-5.498 22.223-7.647 32.272-7.668Zm26.721.063a1.69 1.69 0 0 1 1.687 1.693 1.69 1.69 0 0 1-1.687 1.693 1.69 1.69 0 0 1-1.687-1.693 1.69 1.69 0 0 1 1.687-1.693Zm-61.553 3.715c1.355.08 1.485 2.619.853 1.887l-1.508-1.751c.245-.106.461-.147.655-.136Zm63.144 1.05c-.05 1.925-1.867 14.826-7.996 23.696-.372-4.486-1.45-9.85-2.656-13.43 0 0 6.596-6.117 10.652-10.266Zm-78.413 19.55L70.46 261.04l-3.35-.024c-.7-3.17-1.712-6.414-3.701-8.84-1.615-1.968-3.061-3.451-5.957-4.774-1.743-.795-1.968-.626-2.078-1.97-.526-7.55-6.617-12.299-11.283-14.106-.45-4.564-2.502-9.055-7.648-12.835l2.12-.624Zm-3.106 1.034c2.915 2.01 6.109 3.754 7.83 11.68.13 1.657.23 1.481 1.527 1.969 5.084 1.495 9.506 7.628 9.9 12.99 0 1.616.521 1.76 2.506 2.597 2.438 1.028 4.969 3.202 6.401 5.341 2.13 3.076 2.883 7.735 2.7 7.513l-1.755.01c-1.252-7.898-6.202-11.048-11.439-12.524.408-11.15-8.229-14.63-11.245-15.153.177-8.031-5-11.344-8.341-14.04.623-.245 1.916-.383 1.916-.383Zm-5.16 1.107c2.61.856 4.587 4.505 4.386 6.185 3.442.435 7.057 3.774 6.264 7.252-.255.147-.657.177-1.055-.222.923-6.747-9.113-3.407-5.103 1.475l-1.793 1.175c-1.442-6.752-3.217-10.578-5.144-15.456.703-.186 2.446-.409 2.446-.409Zm8.31 14.148c.89 0 1.61.726 1.61 1.62 0 .895-.72 1.621-1.61 1.621a1.618 1.618 0 0 1-1.615-1.62c0-.895.723-1.621 1.615-1.621Zm8.615 7.283c3.832 1.088 5.072 4.982 4.946 6.398l-.838-.019c-1.347-6.169-8.352-2.813-5.428 2.107-3.744 1.389-3.449 4.858-2.346 6.23 1.522 1.893 5.401 1.834 6.584-1.08 3.64 4.727 8.663-.577 4.232-4.983 3.63 1.341 4.211 6.222 3.666 7.746 1.684.577 3.625 3.26 3.366 3.245l-27.193.005s1.316-11.014-.082-19.327c1.81.437 3.023.876 5.104-1.577 3.37 2.8 5.79.687 5.615-1.732-.258-1.692-1.13-2.532-2.573-3.425 2.948-.728 5.178 4.391 4.947 6.412Zm3.034 7.76c.918 0 1.663.747 1.663 1.669s-.745 1.669-1.663 1.669a1.666 1.666 0 0 1-1.663-1.67c0-.921.745-1.668 1.663-1.668Z" id="path6313-8" fill="#000"/><path d="M8.069 46.303c-2.151-3.557-4.415-7.015-7.243-9.968 2.828-2.953 5.092-6.41 7.243-9.968 2.151 3.557 4.414 7.015 7.243 9.968-2.829 2.953-5.092 6.41-7.243 9.968Z" id="path7198-0" fill="#D40000"/><path d="M195.182 237.554c-2.152-3.557-4.415-7.014-7.243-9.968 2.828-2.953 5.091-6.41 7.243-9.968 2.15 3.557 4.414 7.015 7.242 9.968-2.828 2.954-5.091 6.411-7.242 9.968Z" id="path7202-9" fill="#D40000"/><path d="M50.32 56.99c-5.164-8.537-10.596-16.835-17.383-23.923 6.787-7.088 12.22-15.386 17.382-23.923 5.164 8.537 10.595 16.835 17.383 23.923-6.788 7.088-12.22 15.386-17.383 23.923Z" id="path7204-2" fill="#D40000"/><path d="M152.93 254.79c-5.163-8.538-10.595-16.836-17.383-23.924 6.788-7.088 12.22-15.386 17.383-23.923 5.163 8.537 10.595 16.835 17.383 23.923-6.788 7.088-12.22 15.386-17.383 23.923Z" id="path7222-2" fill="#D40000"/></g></g></g></svg>