<svg width="227" height="315" xmlns="http://www.w3.org/2000/svg"><g id="Page-1" stroke="none" stroke-width="1" fill="none" fill-rule="evenodd"><g id="Diamonds" transform="translate(11 25)"><g id="K" transform="translate(2)"><path d="M19.593.803c.085 79.12-.057 176.142 0 262.315h162.525V.803H19.593Zm47.569 1.49c28.049.766 56.272-.063 84.529.159 0 0-10.267 18.006-13.378 23.673-.681 1.246-.75 2.128-.384 2.645.568.8.522 2.152-.115 2.935-.272.335-.396.552-.417.752-.02.2.158.42.302.782.503 1.727-.794 2.921-2.152 3.475-.91.372-2.938.617-4.434.546-9.377-.448-27.767-8.428-35.345-9.05-5.258-1.478-12.053-.961-17.654-.642-1.057.064-.872-2.418-.872-2.418-.883-8.197-6.649-15.334-10.08-22.858Zm86.053.902h26.828v4.184L168.688 18.89c-1.05 1.077-1.88 1.97-1.88 1.97l-.066 10.386c-7.603-4.114-9.118-9.03-10.507-14.436-12.71 9.442-13.304 30.103.57 40.74.114-4.62 3.61-13.7 9.808-14.373l.086 35.99-7.621-7.495-16.57.217c2.731-4.463 2.793-8.007 1.025-12.191-2.979-6.835-7.576-22.437-7.223-22.385 0 0 .132-.336.508-.42 1.374-.308 2.247-1.643 1.855-3.248-.075-.517-.072-.396.278-1.067 1.348-2.316-.259-4.831-.259-4.831l14.523-24.552Zm-87.913 0 9.946 18.167s-.13.83-.077 1.317c.079.701.311 1.325.71 1.979.263.432.458 1.023.517 1.569.099.898.099.899 1.405 2.085.274.249.327.402.225.66-.432 1.1-.179 3.35.676 6.034 1.08 3.39 1.358 3.346-.652 7.881-.42.948-.927 2.212-1.472 3.374-2.482 5.133-2.865 6.526 1.395 9.262 1.2.77 1.55 1.439 1.251 2.973-.235 1.207-.284 1.979.293 2.66.373.44.712.513.618.854-.064.231-.342 1.236-.25 2.08.251 2.275-2.358 5.626-4.74 6.8-.476.34-.612-.075-.882-.55-2.467-4.35-8.608-2.587-9.016 2.602-.108 1.372-.066 1.967-.417 2.258-.119.1-.48.304-.48.304s-9.19 6.02-15.036 9.113c-.38.201-.723.534-.992.589-.31.063-.541.006-.733-.189-2.158-4.132-.962-9.013-.777-10.743-.046-.613-.567-.725-1.351-.734-1.33-.016-3.242 1.342-3.658 2.606-.353 1.076-.58 1.772-.9 1.767-.323-.005-.48-.439-1.28-1.989-1.666-3.225-1.923-3.633-3.48-5.507-1.242-1.494-2.302-1.692-3.519-.579-.846.774-.818.102-1.538-.29-1.244-.851-3.113-.089-3.16 1.11-.038 1.007-.046 1.764-1.058 1.83-1.128.074-1.617 1.54-1.3 3.63.168 1.1.2 1.276-.134 1.679-1.09 1.315-1.232 2.223-.632 4.06 1.71 5.232 4.186 8.755 6.514 13.513 0 0-5.746 3.38-9.256 5.343V3.195h43.24ZM180.22 8.432l.14 84.578-12.693-12.563s-.248-16.208-.235-22.834c.013-6.626.108-13.252.081-14.484-.026-1.232.066-6.476.106-11.859.084-11.277-.942-9.883 1.14-12.047L180.22 8.432Zm-24.805 10.14.7 2.041c-5.32 3.07-11.826 20.17.12 32.724l-.24 2.587c-12.521-11.436-10.204-27.836-.58-37.352Zm.91 2.413c1.826 3.794 3.904 7.152 6.735 9.209-1.525 3.665-2.18 7.709.403 13.162-1.812 1-4.33 3.658-6.936 9.102-9.427-9.588-7.328-23.49-.201-31.473Zm-70.13 7.167c5.229.009 10.682.868 15.68 2.385 3.152 16.046 8.689 26.835 8.666 33.119 0 0-.437-.074-1.366-.749-2.278-1.655-5.268-.731-6.87 1.376-1.517 1.998.012 4.776-.766 5.941-1.472 2.173-5.261 6.19-5.896 6.058-.461-.097-.387-.3 1.237-2.81 1.691-2.613 2.988-4.98 2.43-5.56-.237-.245-.363.274-1.625 2.481-2.963 5.182-5.568 8.385-6.6 7.969-.483-.195-.233-.625 1.96-3.543 2.478-3.296 3.165-5.357 2.92-6.27-.19-.7-.573.432-1.602 2.457-1.095 2.143-3.076 4.531-4.678 6.825-.508.83-1.16 1.31-1.994 1.69-.618.269-1.604.71-2.176.636-.294-.038-.09-.212.312-.608 3.16-3.277 5.877-6.932 7.42-10.44.238-.46-.104-1.115-.494-.632-2.365 4.19-5.657 9.417-9.232 11.724-.767.494-1.921.913-2.962.825-1.76-.05-1.138-.445.465-1.482 3.43-2.219 8.243-8.598 9.02-10.854.184-.534-.02-.839-.359-.802-2.822 4.547-6.55 9.549-10.885 11.642-2.336 1.128-5.281 1.35-6.73.637-1.062-.523-.795-.703 1.088-.826 4.532-.45 9.842-4.733 12.472-9.266 1.54-2.51.46-1.934-1.299.487-3 4.132-8.96 8.094-12.654 7.78-3.737-.222-5.887-3.138-5.407-5.637.29-1.512 1.357-3.053 3.446-3.494 3.58-.756 5.922 4.952 2.646 6.028-1.115.367-1.54.089-1.136-.362 2.43-1.07 1.35-4.01-.7-4.31-1.289-.189-2.784.685-2.847 2.698.038 1.5 1.264 2.967 3.725 3.002 2.917.042 7.393-2.073 10.109-5.965 1.927-2.976.152-1.971-1.285.014-1.268 1.752-5.363 4.202-5.675 4.112l.139-2.017c.063.348 6.305-3.955 5.939-7.158-.234-2.325.103-3.036 2.507-3.007 1.797.022 4.081.657 4.745 1.487.684.821 1.451 1.08 1.112-.304-.55-2.247.109-2.618-1.184-2.191-.892.294-1.684-.428-2.579-1.067-.984-.704-2.229-1.005-3.715-.95-1.11.04-1.61-.028-1.433-1.082.125-.743.267-1.42.053-1.906-.348-.793-1.737-1.611-3.307-2.776-1.854-1.374-1.51-1.455 2.44-10.623 1.658-3.849 1.665-4.639.67-7.48-1.571-4.491-1.818-6.29 1.127-6.917a44.136 44.136 0 0 1 5.129-.285Zm16.724 2.602 1.53.439c.011.001 4.774 16.413 7.5 24.427.833 2.444 1.467 5.748 1.626 8.851-.075 4.273-2.464 7.339-5.378 7.674-2.063.238-4.301-.84-5.326-3.151-.864-2.199-.212-4.791 2.277-5.686 4.31-1.548 7.467 3.99 3.24 5.695-2.186.882-4.263-.707-3.278-2.558.69-1.297 2.632-1.156 3.092.184.374 1.426.993.753.728-.213-.801-3.077-4.727-2.352-5.042.483 0 3.512 3.819 4.337 6.097 2.365 1.765-1.577 1.95-4.425 1.51-6.897-.606-5.134-3.493-11.793-5.541-19.393-1.023-3.794-2.505-8.318-3.035-12.22Zm60.841.183 2.871 1.144-.066 9.527-2.435.845c-3.186-4.902-.537-11.511-.37-11.516Zm-58.195.618 2.104.816c1.153 6.725 6.586 19.58 8.504 29.175.534 5.767.62 7.46-3.26 10.532v-.044h-2.1s-.01-.129.912-.82c5.08-3.826 2.048-12.257.129-18.736-3.343-10.349-6.33-20.936-6.289-20.923Zm-19.667.67c-.266.004-.537.015-.81.03-3.173.171-3.695.376-3.705 1.071-.019 1.31.514 1.89 3.466 1.569 2.554-.278 6.255.121 8.805 1.226 2.909 1.26 3.6 1.557 4.645 2.1 2.624 1.36 2.166.006-.206-1.565-4.846-3.208-8.196-4.479-12.195-4.43Zm22.898.464 1.975.758s.522 1.55.71 2.437c1.92 8.585 7.148 18.24 7.76 28.283.138 3.291-.423 6.36-2.819 7.843h-1.807c1.932-1.935 3.22-2.493 2.68-9.218-.856-8.637-6.514-19.429-8.5-30.103Zm3.504 1.395 1.821.676c2.098 11.593 12.496 28.916 5.877 37.274h-1.654c1.477-2.319 2.086-4.356 1.865-7.486-.644-10.534-5.98-20.758-7.91-30.464Zm3.053 1.067 1.96.603c2.662 11.746 12.89 30.995 5.599 36.319l-1.438-.039c5.493-10.34-2.834-21.04-6.12-36.883Zm3.418 1.095c.602.337 1.462.499 2.118.69 2.063 8.882 5.834 17.617 7.55 25.89.577 4.528-.41 7.92-3.236 9.208h-.604c2.536-3.855 2.058-8.717.705-13.972-1.82-7.067-5.355-14.842-6.533-21.816Zm-30.888.155a9.056 9.056 0 0 0-2.871.453c-1.032.393-.905 1.212.053 1.043l1.28-.227c2.351-.413 5.25.44 8.761 2.582.849.517 1.77 1.016 2 1.187.645.485 1.333.483 1.097-.135-.095-.247-1.449-1.303-2.646-1.978-2.56-1.56-4.942-2.9-7.674-2.925Zm34.219.772 1.975.304c3.715 17.19 11.868 27.87 4.894 34.248h-1.745c1.908-1.962 2.77-5.035 2.138-8.668-.646-3.708-2.549-9.593-4.127-14.769-1.83-6-3.303-11.073-3.135-11.115Zm2.833.483 1.673.313c1.96 6.987 5.287 15.649 7.29 22.863 1.232 4.437.737 9.901-2.013 10.908l-1.414.024c2.334-3.14 2.667-6.412 1.6-10.642-2.188-8.684-5.5-16.262-7.136-23.466Zm10.325.01c1.69 7.243 5.746 18.293 7.204 22.11 1.939 3.896 1.357 9.666-1.558 11.95l-1.38.028c1.667-1.57 2.24-4.214 1.974-6.955-.75-7.745-6.195-18.487-8.167-26.738l1.927-.396Zm-7.339.342 1.726.16c1.728 7.576 5.089 14.94 7.271 22.52.406 1.71.76 3.8.618 5.337-.298 3.225-1.625 5.768-2.79 5.768h-1.188c2.428-2.913 2.31-6.885 1.27-11.154-1.717-7.056-5.872-15.563-6.907-22.631Zm-44.927.039c-.72.003-.732.666.417 1.68.703.619.649.412.609.805-.171 1.678.091 3.214.776 1.487.183-.462.45-.982.719-.917.506.157.25 1.094.494 1.568.413.836-.026 1.04-1.03.782-.724-.186-.765.208-1.214.71-.785.878-.657 1.402.552 1.129.2-.045.368.012.522.048.377.088.722.328 1.62 1.019 1.154.886 2.79 2.068 3.85 2.249 1.697.289 1.319-.53-.072-1.067-1.192-.46-2.67-1.736-2.665-2.09 0-.271.378-.11 2.526-.704.931-.258 2.242-.835 2.794-1.091.912-.423.955-.42 2.382-.377 2.431.073 2.802-.01 1.098-1.283-3.445-2.574-8.041-4.249-10.478-3.181-.74.324-.722.125-1.256-.183-.698-.404-1.267-.586-1.644-.584Zm49.303.231c2.388 9.261 7.006 17.559 8.13 26.343.254 2.513-.165 4.967-2.239 7.09l-1.4.024c-.205.003 1.954-3.358 1.77-6.236a16.447 16.447 0 0 0-.547-4.807c-2.713-7.81-5.384-14.888-7.458-22.332l1.744-.082ZM89.333 41.34c.543.1.55.363.371.684a65.4 65.4 0 0 0-.776 1.476s-.66.131-.796-.038c-.224-.328.538-1.898.975-2.119.073-.041.154-.017.226-.004Zm1.503.278c.072-.001.161.036.302.092.625.248 1.71.759 1.241 1.153-.555.468-2.707.678-2.603.483l.72-1.337c.152-.284.22-.39.34-.39Zm-6.591 8.094a.301.301 0 0 0-.14.039c-.124.075.159.578.571 1.148 1.904 2.587-.732 3.354-2.598 1.97-1.772-1.388-4.507-1.257-4.112.197.139.513 0 .763.992.777.879.013 1.106.063 1.898.609 3.03 2.086 6.945-.707 5.033-3.702-.361-.566-1.255-1.06-1.644-1.038Zm7.477 4.04c-1.1 0-1.795.826-.417 1.074 4.923.89 1.622 6.028-1.85 3.38-3.128-2.843-7.312-2.823-7.362-.805-.01.507.016.525.757.666 1.744.331 4.347 1.13 5.345 1.636.586.297 1.202.575 1.37.618 2.085.762 4.759-.229 5.288-1.997.484-1.618.094-4.572-3.13-4.572ZM29.98 70.287c.66.008 1.36.589 1.86 1.438 1.156 1.964 2.56 5.266 3.456 7.086.226.458.235.868.22 1.086.071 1.066.426 1.47 1.055.989.618-.472 1.476-1.263.47-1.39-1.012-.768-1.576-1.896-.95-2.582.462-.506.282-.834-.09-.854-1.418-.021-3.532-4.27-2.535-5.184 1.344-1.235 2.831.295 5.996 6.617 1.395 2.792 1.46 5.848.264 4.334-.407-.381-.324-.184-.8 1.019-.36.903-.653 1.332-2.019 2.654-1.663 1.61-2.67 2.882-2.708 3.161-.072.534.898.036 1.606-.893 1.58-1.554 1.639-1.968 1.625.092-.013 1.863-.108 2.204.225 2.191.52-.02.797-1.493 1.04-3.272.29-1.602 1.116-2.41 2.493-3.301.377-.245.384-.414.311-1.12-.254-2.263 1.024-6.483 1.606-5.44.081.235.335.784.47 1.169.108.595.48 1.267 1.05 1.312.706.533.703.82.948 2.77.08.637.36 1.593.556 2.1.366.946.693 1.5.49 1.781-.13.14-.403.4-.403.4L34.693 93.33s-.905.503-1.232.641c-.913.416-1.469.109-1.918-.579-2.441-3.661-4.117-7.775-5.833-11.569-1.03-2.252-.022-3.741 1.309-1.925.517.705.252 1.155 0 2.519-.047.247.18.152.608.222.673-.073.998.532.973 1.559-.425 1.471.163.677.441.603.533.008.651.33.95.941.186.862.562.612 1.112.044.454-.47.455-.459-.46-1.56-1.582-1.725-3.776-5.62-4.343-7.992-.157-.654-.1-1.177.019-1.525.714-1.62 1.71-1.626 2.794.637.185.385.548 1.006.805 1.38.418.608.676 1.13.662 2.095-.321.81-.373.826-.096.937.688.273 1.91 1.525 1.966 2.644.055 1.138.247 1.742 1.136 1.067 1.013-.77.582-1.079-.418-2.066-1.047-1.254-1.11-2.342-.488-3.248.101-.304.058-.39-.326-.352-1.216.118-2.399-1.432-1.553-2.611.389-.691.343-.87-.206-.888-.287-.01-.76.045-.993-.087-.36-.679-1.11-1.627-1.102-2.404.354-1.092.904-1.532 1.486-1.525h-.006Zm72.22.058c1.998 1.234 3.977 2.518 6.222 3.103-5.202 9.434-13.567 14.489-20.568 16.463.238 1.208.407 2.411 1.568 3.152-.04-.182-.554-2.325-.441-2.765 9.643-2.48 18.133-11.993 20.304-16.898l42.382-.463c-31.42 30.348-32.671 73.06-7.037 108.86l-2.948 1.733c-19.753-29.793-19.552-58.498-13.627-77.72 4.201-13.63 11.739-24.041 17.467-29.992 0 0-22.979-.318-34.416.106-1.661 2.56-3.206 4.65-5.44 7.066 0 0 5.81-5.65 5.66-6.631 10.6-.006 21.53-.623 32.116.12-12.387 14.927-18.493 30.337-19.552 44.833-.04 1.886-.153.832-.772 1.525l-1.955 3.055-1.568-3.175c-1.065-.347-3.16.212-4.05-.111-4.358 19.576.046 43.203 5.78 58.622 0 0-1.44.812-3.211.675-1.94-.433-2.413.106-4.093.45-1.932.37-2.607.367-3.035.858a4.522 4.522 0 0 1-1.155.922c-4.706 1.722-10.229 8.176-10.229 8.084l-5.181-2.34c4.774-9.441 10.377-12.838 20.227-17.028l-.915-4.218c-10.491 3.935-17.167 8.646-22.433 17.8-6.388-.092-32.265-.275-32.292-.194 10.555-12.086 18.877-30.315 19.787-44.528.223-2.769-.162-1.438 1.054-2.264l1.913-2.292 1.5 2.258s1.087 1.393 1.774.232c1.925-19.82-.112-42.42-9.596-58.173 1.682-.112 3.358-.159 4.97.801 3.71 8.46 5.896 18.91 6.845 26.743 1.2 9.915 1.031 21.099-.192 30.595l.633.087c1.849-12.342 1.222-25.468-.475-36.941-.87-5.986-3.675-15.347-5.603-19.668-.533-1.194-.946-1.503-.44-1.68 11.557-.979 16.87-4.862 21.022-11.062Zm-32.047 1.043c.884 0 1.6.721 1.6 1.612 0 .89-.716 1.612-1.6 1.612-.885 0-1.601-.722-1.601-1.612 0-.89.716-1.612 1.6-1.612Zm86.873.82c-3.384 3.084-6.103 6.28-8.959 9.687 8.452 11.704 17.846 24.391 25.745 34.528 0 0 2.733-1.63 2.722-1.834-.01-.107-.218-.646-.268-.526-.117.281-2.215 1.462-2.215 1.462l-24.997-33.032s1.355-1.633 1.774-2.148c1.942-.643 7.347-7.383 7.612-7.244 4.234 3.266 17.005 17.112 21.924 21.357l.063 38.433c-.51 1.538-14.125 7.463-23.741 29.571-4.836 2.729-10.193 4.197-15.176 6.57 0 0 1.268 2.007 1.889 2.557-.761-1.656-.896-1.972.83-2.679l35.982-14.768-.067 2.982c-3.608 2.81-27.47 20.192-34.809 24.297-34.43-48.333-12.482-89.664 7.584-108.99l4.107-.223Zm-112.12 2.611c.94.016.703 2.21.355 2.968-.694.55-1.386.062-1.37-.965 0-.335-.06-.65-.144-.705-.521-.334.35-1.31 1.16-1.298Zm21.029 1.37c.79.605 1.083 1.41 1.375 2.216-1.067-.169-3.924-.993-2.583-1.636l1.208-.58Zm-5.201 2.853c24.832 37.815 23.72 77.977-3.993 108.421l35.063-.053c4.463-8.868 11.898-14.272 21.411-17.602l.83 2.785c-10.934 3.534-16.466 9.393-20.866 17.51H51.363c16.066-17.406 23.426-32.11 24.585-52 1.103-18.942-3.683-36.242-18.22-57.058l3.006-2.003Zm6.998.435 5.857 2.784-.867 6.053-6.135-2.848 1.145-5.99Zm-10.56 1.699c31.319 47.703 17.887 81.258-7.117 109.183l-4.607.077-10.737-10.043.197 61.03s-10.469 10.326-11.672 11.564c-1.188 1.152-2.08-.618-2.08-.618l.029-80.905.465-3.171.144-17.433 6.672-3.543 25.02 33.023s-1.005 1.491-1.47 1.756c.533 1.203 2.307-1.795 2.458-2.278-9.076-11.322-25.95-33.49-25.95-33.49l-7.028 3.692s.204-14.474.077-20.03c.27-1.31 1.246-.96 1.903-1.544 9.138-5.979 16.672-14.564 23.08-29.215 4.868-1.596 9.979-3.862 14.868-5.898l-7.041-10.642 2.79-1.515Zm-19.192.608c-.264-.004-.936.303-1.845 1.134-1.678 1.533-3.89 4.053-3.897 4.532.45.163.849-.097 1.208-.463 1.404-2.087 3.574-2.903 4.846-4.73.198-.338-.011-.478-.312-.473Zm15.775 2.215s4.859 7.127 6.102 9.02c-12.804 5.105-26.201 11.847-38.068 16.208v-2.857s22.286-16.825 31.966-22.371Zm19.048 4.71 4.789 2.491-1.352 5.44-4.832-2.723 1.395-5.207Zm3.95 9.05 3.935 2.886-1.797 4.614-3.964-2.746 1.826-4.754Zm-32.11 3.383s-.607 2.14-1.625 4.055c-4.87 8.52-9.635 16.09-19.48 22.665-.375-.336-1.447-2.225-1.447-2.225l-.096-2.525c5.22-4.222 9.724-7.32 16.637-19.71l2.004-.821 1.706.743 1.156-2.075 1.145-.107Zm20.481.02c-4.537 9.692-9.001 19.688-16.23 27.24l19.782 27.805c6.51-19.632 4.093-38.031-3.552-55.045Zm-24.89 2.114-.95 1.655 1.644.956.95-1.656-1.645-.955Zm-2.685.178c-3.584 8.069-8.963 14.277-16.024 18.741l-.273-11.839 16.297-6.902Zm1.26 2.409-.949 1.655 1.645.956.949-1.656-1.644-.955Zm40.432.347 3.566 3.408-2.119 3.76-3.657-3.046 2.21-4.122Zm54.633 1.675c0 .002-.01.006-.01.01-6.267 19.615-4.385 38.35 4.214 54.66 4.218-10.572 7.681-17.647 15.918-28.901-5.072-6.687-19.612-25.98-20.122-25.769Zm-96.464.314-.997 1.626 1.615 1.004.997-1.626-1.615-1.004Zm27.345 2.287c5.65 13.6 5.152 25.862 2.148 36.488l-14.112-17.95c5.17-6.46 8.604-12.579 11.964-18.538Zm-28.802.049-1.07 1.578 1.568 1.081 1.07-1.583-1.568-1.076Zm-1.577 2.258-1.17 1.511 1.496 1.178 1.17-1.51-1.496-1.179Zm46.49 1.608 3.197 3.055-2.018 3.962-3.245-2.987 2.066-4.03Zm-48.336.743-1.227 1.453 1.443 1.235 1.227-1.452-1.443-1.236Zm103.075.43 14.236 18.494c-4.762 5.707-8.72 12.43-12.257 19.678-3.966-12.515-5.756-24.811-1.98-38.172Zm-105.073 1.872-1.314 1.38 1.371 1.323 1.313-1.38-1.37-1.323Zm33.255 1.849-6.514 9.484 7.468 9.6c.804-5.197.984-11.23-.954-19.084Zm-35.379.309-1.4 1.293 1.285 1.41 1.4-1.294-1.285-1.41Zm-2.056 1.848-1.476 1.207 1.198 1.486 1.471-1.206-1.193-1.487Zm55.635.98 2.675 3.147-2.713 3.238-2.54-2.876 2.578-3.51Zm34.004.565 1.816.067c-2.98 29.591 2.877 44.564 8.058 57.584 0 0-.012.522-.187.676-.844.293-2.552.609-3.921-.603-6.97-18.04-8.49-40.261-5.766-57.724Zm-92.031.38-1.539 1.12 1.112 1.55 1.539-1.12-1.112-1.55Zm113.859 1.053c-.462 0-.864 12.174.877 18.118l6.553-8.938-7.43-9.18Zm-16.94 2.008 2.191 2.963-2.324 3.19-2.378-3.02 2.512-3.133Zm-98.697.806c.11-.018.29.29.642.536.327.344.28.318-.087.613-.573.46-.743.385-.733-.333.049-.592.092-.803.177-.816Zm59.935 2.225 2.42 3.49-2.68 3.47-2.29-3.654 2.55-3.306Zm38.571 4.42 2.55 3.128-2.19 3.432-2.785-3.277 2.425-3.282Zm59.043.662.226 3.605-.882-1.317-1.62 1.25 1.13 1.51 1.415-1.11.086 1.453c-8.98 6.535-12.854 14.042-16.498 19.673l-1.62.69-1.846-.589-.9 1.607-1.568.372c-.048-.01 3.147-6.9 8.613-13.915 4.868-6.245 13.44-13.286 13.465-13.229Zm1.04 5.642.077 12.82-16.072 6.25c4.171-7.156 9.09-13.797 15.995-19.07Zm-3.992-1.559-1.467 1.212 1.265 1.462 1.462-1.211-1.26-1.463Zm-2.258 1.93-1.414 1.27 1.318 1.414 1.414-1.279-1.318-1.404Zm-53.67.71 3.03 3.248-2.22 3.837-3.154-3.045 2.344-4.04Zm51.388 1.366-1.327 1.366 1.452 1.405 1.328-1.366-1.453-1.405Zm-2.09 2.158-1.274 1.419 1.543 1.346 1.275-1.419-1.543-1.346Zm-2.099 2.418-1.184 1.496 1.606 1.25 1.184-1.501-1.606-1.245Zm-46.159 2.297 3.787 2.476-1.85 4.537-3.782-2.9 1.845-4.113Zm44.328.02-1.112 1.553 1.711 1.178 1.127-1.607-1.726-1.125Zm-1.711 2.451-1.03 1.607 1.73 1.12 1.025-1.66-1.725-1.067Zm-1.53 2.428-.948 1.655 1.793 1.028.949-1.674-1.793-1.01Zm-1.38 2.51-.949 1.655 1.985.864.786-1.578-1.822-.941Zm-37.655 1.023 3.877 2.645-1.716 4.754-4.093-2.915 1.932-4.484Zm56.1 4.677v97.984H137.67s-1.996-3.55-6.173-11.721c-1.769-3.46-3.264-4.93-3.418-7.67.16-1.609-.579-3.434-1.888-4.17-.44-.247-1.176.052-.93-.637.27-.758-.56-1.924-.786-2.172-.259-.438-.098-.545-.125-2.176-.027-1.577-.11-2.237-.446-3.427-.848-3.008-1.037-4.512-.551-6.072 1.261-3.957 2.576-6.992 4.276-10.68.988-2.16.837-3.003-2.196-4.571-2.27-1.174-2.572-1.162-2.286-2.877.134-.803.259-1.31.09-1.699-.102-.237-.479-.568-.7-.758-.296-.255-.207-.78.096-1.172.298-.385.3-.933 0-1.849-.62-1.926.784-4.478 3.437-6.24 1.173-.78 1.14-.618 2.363.675 3.575 3.78 8.886 1.406 8.896-3.924 0-1.66-.558-1.562 1.002-2.345 5.289-3.389 16.144-9.552 16.072-9.383.707 1.45.943 2.69 1.39 4.252.386 1.34.336 1.442.192 4.05-.13 2.356-.2 2.904.35 3.055 3.133.347 3.847-.769 4.448-2.805.26-.899.76-.716 1.069-.337 1.192 2.184 2.7 4.456 3.69 6.009 1.238 1.982 3.324 2.968 4.415 2.031.23-.77.419-.794 1.802-.477 1.678.384 2.634-.563 2.795-1.805.065-.496-.295-.476.604-.966 2.228-1.66 1.379-3.929 1.045-5.294.029.072.952-.566.973-1.844.106-6.638-5.607-16.198-5.479-15.951l8.346-5.034Zm-53.776 3.822 4.535 2.206-1.07 5.454-4.658-2.11 1.193-5.55Zm44.122 2.027c2.611 3.05 4.5 8.132 5.474 11.444.481 1.65.54 3.532.11 3.793-.423.259-.621-.018-.541-1.004.066-.82.09-1.457-.26-1.448-1.012.264-1.052-1.282-.948-1.645.07-.243.194-.414.25-.546.249-.599-.403-.518-1.08-.526-.597.015-.752-.351-.723-.922-.017-.632-.85-.509-1.323-.029-.433.44-.342.956.244 1.318.843.52 1.638 1.796 3.6 6.197 1.139 2.555.801 4.369-.556 4.349-.941-.028-2.038-2.624-2.924-4.537-.229-.494.345-1.047.547-1.313.52-.688.442-.906-.331-.917-.724-.01-1.03.054-1.467-.845-.164-.338-.283-.854-.225-1.182.373-.991-.393-1.23-1.136-.85-.937.394-.93 1.235.498 2.612.92 1.52.68 1.414-.191 2.437-.183.361-.073.583.311.589 1.105-.34 2.309 1.664 1.98 2.35-.339.295-1.264 1.364-.37 1.159 1.82-.498 2.927 2.184 1.856 3.093-1.599.808-1.977.555-4.439-4.397-.764-1.537-1.684-3.19-1.797-3.359-.113-.169-.163-.623-.159-.99.108-.895-.272-1.098-1.044-.742-.58.14-1.105.62-.37 1.076.859 1.49 1.162 1.73.69 2.109-1.073.86-.607.826.595 1.067.589.178.888.483 1.05.85.621 1.403 1.722 3.384 1.83 3.788.365 1.03-.293 1.492-1.193 1.448-.942.023-1.373-.727-1.83-1.366-1.713-2.396-2.946-4.77-4.693-7.49l.235-2.544s.457.1.714-.024c.503-.244.801-1.038 1.088-2.095.46-.919 3.17-3.009 4.208-4.131.192-.127.353-.337.355-.464-.01-.411-1.176-.136-1.946.753-1.13 1.011-1.613.664-1.577-.627-.111-1.595-1.078-.796-1.126.762-.125 1.231-.55 1.98-1.405 2.67-1.614 1.299-1.345.97-1.27 2.775.13 3.147-1.076 5.735-1.865 4.02-.28-.61-.608-1.301-1.313-1.332-.5-.022-.746-.515-1.021-1.733-.409-1.97-.98-3.238-1.5-5.053l14.988-8.548Zm-40.191 6.781 5.224 2.095-.977 5.502-5.177-1.993.93-5.604Zm39.837.507a.37.37 0 0 0-.12.03c-1.472 1.12-2.83 2.376-4.434 3.34-.602.357-1.304 1.282-1.309 1.529 0 .241.715.235 1.414-.072.665-.292 4.454-3.875 4.458-4.204.261-.29.236-.639-.01-.623Zm-47.976 6.68c1.235-.003.515.366-2.181 2.25-2.632 1.837-6.97 7.65-7.473 9.806-.228.98.389 1.056 1.083-.29 3.196-6.183 9.24-11.834 14.773-11.583 2.711.123 4.176.86 1.932 1.183-6.151.76-10.749 4.292-14.773 11.332 0 .158.365.15.786-.12 3.684-4.535 7.833-10.54 15.123-10.054 5.258.32 6.752 6.616 2.387 8.765-3.805 1.874-7.315-2.69-4.16-5.396 1.024-.879 1.664-.493.68.405-2.11 1.929.477 5.363 3.049 4.06 1.565-.66 2.199-2.916.82-4.62-3.07-3.788-9.679-.907-14.285 5.213-.482.644-.9 2.043-.493 1.892.715-.296 1.146-.86 1.567-1.496 1.644-2.296 2.907-3.448 5.134-4.682 1.72-.953 1.826-.774 1.184.879-.27.696-.488.928-1.156 1.36-2.804 1.93-4.546 4.513-4.616 6.16-.05 1.201.823 2.771-.124 3.093-1.607.764-5.988.14-7.17-1.38-.851-1.094-1.181-.46-.542 1.317.421 1.175.403 1.838 1.04 1.718.805-.428 1.357-.328 2.919.531.752.415 2.087.801 2.9.99 1.482.344 1.791.199 1.759.844-.01.198.058.755.014 1.106-.24 1.945 1.372 2.606 3.57 3.885 1.286.747.778 1.516-.709 5.217-.773 1.675-1.433 3.928-2.387 5.628-.891 1.91-.967 4.002-.393 6.385 1.067 4.424 1.834 6.672-.067 7.071-4.892.745-15.699.715-21.598-1.569-1.51-11.402-9.505-28.32-8.48-32.694 2.047 3.107 10.628 2.285 8.044-6.4 0 0 .703-1.059 2.1-2.485 3.6-3.679 4.49-4.287 2.78-1.048-1.316 2.491-2.992 5.741-3.03 6.371-.03.502.359.619.661.217.225-.297.491-1.02.724-1.568 2.147-5.06 5.816-9.621 8.345-10.72.652-.282.619.019.168.575-2.976 3.728-5.248 7.175-6.864 11.675-.072.464.582.658.791.217 2.791-5.89 3.626-7.226 7.056-11.376 1.348-1.63 2.602-2.454 3.604-2.365.867.077.61.22-.192 1.081-.612.658-1.517 1.572-2.98 3.427-2.583 3.272-5.18 8.594-4.224 8.316.165.443.98-.971 1.668-2.321 1.887-3.19 3.891-7.406 8.373-10.178.936-.39 1.959-.614 2.863-.624Zm-86.672 1.028 7.981 8.031 16.053-.207c-2.648 4.142-1.234 10.563.225 14.315 2.86 7.356 7.052 19.5 6.744 19.677 0 0-2.334.604-2.545 2.095-.313 2.21.638 2.045-.734 4.04-.308.448-.11 1.295.22 1.969.219.493.426 1.236.02 1.815l-14.16 25.404h-27.13v-4.926l13.714-13.717-.163-10.092c7.339 2.197 9.859 9.82 10.488 15.469 13.256-12.18 12.928-30.52.402-42.024-2.441 12.16-11.187 14.687-10.995 14.446l-.12-36.295Zm99.83 1.443c.858.063 2.017.201 2.803.628-.532.32-.91.703-1.265 1.095-.43-.768-1.01-1.188-1.539-1.723Zm22.25.087c.714-.002 1.592 2.104 1.088 2.597-.284.277-1.205.382-1.534.173-.422-.314-.207-2.768.446-2.77Zm-25.318 3.654c.92 0 1.668.752 1.668 1.68 0 .927-.747 1.679-1.668 1.679a1.674 1.674 0 0 1-1.668-1.68c0-.927.746-1.68 1.668-1.68Zm-70.6 2.394 1.203.029c-2.187 2.944-2.482 5.478-1.707 9.15.872 4.133 7.523 19.667 7.953 23.944.018.194.038.739.038.739l-1.634.11s-.122-.441-.173-.612c-2.287-7.745-4.564-13.652-6.154-18.167-1.585-4.868-4.012-12.087.474-15.193Zm8.79.029c.012-.002.021.002.03.005l1.155.01c-.043.025-1.725 3.656-1.846 5.859-.137 2.497.463 5.216 1.285 7.9 1.94 5.808 4.782 12.276 6.36 19.606.018.085.192.796.192.796l-1.711-.232s-.168-.75-.187-.854c-1.181-6.447-4.477-13.143-6.442-19.49-1.007-2.884-1.707-6.43-1.347-9.14.254-1.913 2.16-4.423 2.512-4.46Zm13.973.014c-1.224 1.908-2.338 4.298-2.416 6.173-.07 3.488.939 6.432 1.946 9.513 3.103 9.487 4.608 14.492 6.16 22.1l-1.65-.71s-.063-.427-.1-.55c-.88-4.764-.936-4.348-6.111-20.372-1.213-3.846-2.369-7.218-2.143-10.42.052-1.824 1.632-5.436 3.298-5.724l1.016-.01Zm1.98 0h1.538s-.847.903-1.093 1.24c-2.687 3.754-1.91 7.782-.575 12.583 1.837 6.606 5.232 13.995 7.008 24.065.033.186 0 1.158 0 1.158l-1.831-.743c-1.664-9.233-5.768-18.806-7.746-27.11-1.163-4.876-.832-7.958 1.855-10.614.673-.523.844-.579.844-.579Zm-18.776.053h1.15s-1.923 3.181-1.921 5.053c-.322 3.353.883 7.056 2.267 10.937 2.126 5.965 4.937 13.178 5.8 16.975.034.149.148.83.148.83l-2.008-.106s-.105-.92-.225-1.342c-2.318-8.164-4.576-13.445-7.238-20.899-.403-1.128-1.046-5.589-.288-8.48.596-2.269 2.315-2.968 2.315-2.968Zm-3.082.005 1.242.034s-.187.34-.662 1.158c-2.265 4.13-1.25 7.9.154 12.1 1.872 5.605 4.812 12.448 6.648 18.925.103.365.244 1.467.244 1.467l-1.792-.024s-.365-1.32-.389-1.463c-1.008-6.003-6.457-16.01-7.875-23.625-.777-4.085-.11-6.615 2.43-8.572Zm16.628 0s-1.959 3.42-2.138 5.324c-.35 3.734.826 6.826 2.172 11.038 2.322 7.267 5.598 15.794 5.89 19.692.01.128.058.603.058.603l-2.018-.724s-.09-.407-.129-.55c-1.759-7.053-3.839-14.077-6.634-21.994-.69-2.671-1.594-5.359-1.515-7.655.41-3.066.928-3.893 2.742-5.71l1.572-.024Zm8.877.005 1.625.034s-.485.262-1.644 1.506c-6.41 5.898 3.99 22.551 6.39 37.714.025.162.1.733.1.733l-1.788-.647c-.169-.755-.296-1.674-.503-2.5-1.944-7.75-4.537-15.72-6.917-22.95-1.335-5.267-1.823-9.906.575-12.5.752-.896 2.162-1.39 2.162-1.39Zm-16.714.01 1.73.048c-1.25 1.579-1.984 4.039-2.051 6.226-.067 2.588.62 5.104 1.467 7.766 1.735 5.46 4.213 11.394 5.915 18.76.095.488.176.801.22 1.014.07.338.264.874.264.874l-1.827-.367s-.188-.478-.311-.729a7.797 7.797 0 0 1-.503-1.433c-.885-3.843-4.14-12.563-6.121-18.679-1.572-3.853-2-10.589 1.217-13.48Zm21.603.068c2.214-.082 4.215 1.809 4.688 3.586.46 1.886-.128 4.016-2.19 5.067-3.344 1.706-6.943-2.83-4.305-5.328 2-1.892 4.958-.492 4.314 1.93-.415 1.578-2.79 1.68-3.183.087-.107-.53-.371-1.058-.56-.767-1.23 2.908 2.904 4.27 4.62 1.564 1.018-2.169-.92-4.962-3.772-4.43-3.91.727-4.36 5.724-2.737 11.554 2.266 9.213 7.67 21.605 7.66 27.293 0 .075.019.309.019.309l-1.716-.516-.024-.179c-1.03-7.944-6.89-21.097-8.57-31.208-.729-4.61 1.055-7.956 5.066-8.87a3.7 3.7 0 0 1 .69-.092Zm-16.968.072c-1.203 1.62-1.99 4.054-2.027 5.792-.037 2.545.87 5.024 1.62 7.674 1.896 6.545 6.326 18.63 6.164 20.893.046.243.168.995.168.995l-1.712-.512s-.067-.109-.196-.42c-.57-2.246-3.283-11.872-6.322-20.194-1.17-3.346-1.739-5.952-1.659-8.17.247-3.062 1.118-4.34 2.45-6.044l1.514-.014Zm32.585 10.85c-4.436.255-4.009 5.7-1.26 6.622.982.273 1.56.037 1.715-.179.178-.245-.02-.62-.666-.714-1.865-.617-2.531-2.827-.847-3.754.92-.485 2.388-.173 4.159 1.148 3.165 2.36 7.044 2.508 6.538.12-.123-.579-.371-.657-2.689-.975-1.883-.258-2.731-.857-3.552-1.303-1.293-.702-2.433-.994-3.398-.965Zm-63.501 5.063c11.459 11.268 9.76 28.93-.03 37.771-.2-.713-.628-2.462-.675-2.413 7.362-7.713 10.83-20.357.173-33.317.055.05.236-.935.532-2.041Zm71.817.3a.932.932 0 0 0-.288.043c-2.967.817-3.582 3.77-1.658 4.985 1.18.745 2.086.289.618-.613-1.258-.772-.637-2.802.887-2.78.666.01 1.12.302 2.814 1.56 1.394 1.034 2.707 1.117 3.005-.285.178-.837-.1-1.209-.987-.99-.393.097-.623-.134-1.156-.507-1.183-.828-2.477-1.43-3.235-1.414Zm-73.001 2.21c10.329 12.071 7.013 24.661.048 32.038-1.913-5.683-6.6-9.229-6.6-9.229 1.766-3.946 2.819-8.068-.485-13.272 3.074-2.797 5.62-5.87 7.037-9.537Zm67.11 4.406c-.484-.009-.327.462.815 1.265 2.722 1.864 2.955 2.2.316 2.157-.668-.04-1.716.438-2.31.637-3.444 1.157-3.61 1.065-5.258.676-.55-.129-1.106-.36-1.347-.14-.372.341-.79.567-.321 1.076.341.371.977.655 1.75 1.1 3.998 2.307 4.362 2.86 9.063 2.983.539.015.815-.266 1.132-.27.767-.009 1.17.18 1.946.893 1.42 1.306 1.487.357.642-1.356-.443-.898-.83-1.113-.614-1.796.496-1.557-.21-1.867-1.136-.487-.693 1.08-.772 1.055-1.428-.333-.87-1.734-.461-2.534.858-1.405 1 .856 1.255.22 1.644-.458.512-.891.434-1.691-.48-1.622-.524.04-1.015-.203-1.428-.656-.808-.888-2.359-2.003-3.844-2.264Zm1.131 4.692c.109.006.184.05.22.164.01.57-.38 1.738-.699 2.35-.102.273-.277.307-.522.357-.825.154-.882-.103-.734-.618.302-.793.552-1.923 1.615-2.249.044-.005.084-.007.12-.005Zm-2.094.395c.333-.024.344.115.21.42-.237.515-.656 1.001-.968 1.405-.66.43-1.736-.885-1.26-1.226.664-.265 1.163-.536 1.855-.58.062-.01.115-.015.163-.019Zm-73.994.86c.178 0 .36.035.547.115 2.5 3.398 2.329 8.569.388 11.43-.145.213-.292.251-.537.168-.835-.498-1.896-.682-2.689-.97v-9.947c.816-.174 1.52-.799 2.291-.797Zm65.87.81c-.192.01-.271.14-.03.391 3.645 2.656 8.66 5.734 13.287 4.542.425-.093.767-.327.686-.768-.051-.274-.522-.511-1.03-.376-1.062.282-3.096.318-3.931.183-3.182-.525-5.992-2.574-8.437-3.774a.906.906 0 0 0-.546-.198Zm-1.065 2.534c-.163-.008-.15.156-.048.463.513 1.539 5.671 5.123 9.745 6.309 3.498 1.017 8.522.017 8.23-1.656-.152-.872-.788-1.08-3.02-.796-4.914.961-9.644-1.062-13.234-3.311-.967-.614-1.463-1-1.673-1.009Zm-32.182 2.104c2.146-.025 4.275.15 6.577.536 4.477.77 9.667 2.166 14.058 4.214 7.462 2.82 16.844 4.995 24.805 4.7 1.943.055 5.456-.112 6.136-.337 1.774-.401 2.265-.021 2.689 2.196.074.482.222.622.838 1.042.943.643.786 1.279.671 2.698-.096 1.194.62 1.865 3.495 7.206 3.27 6.079 6.461 13.142 6.461 13.142-28.672-.02-56.026-1.09-85.363-.173 2.638-6.3 9.832-17.658 14.34-26.776-1.09-2.805.256-3.282-.308-3.948-.913-1.559-.255-3.746 1.675-4.239a37.922 37.922 0 0 1 3.926-.26Z" id="path6351-0" fill="#131F67"/><path d="M51.238 260.944s9.395-19.126 13.354-24.856c5.696-7.27 31.405 3.16 44.19 5.765 5.197 1.01 17.242.536 17.242.536l10.07 18.274-84.856.281Zm-19.51-21.732-.399-59.542 2.942 1.849.674 59.808-12.715 12.259-.07-3.591 9.567-10.783Zm7.695-6.794c3.029-6.137-.352-13.633-.352-13.63 1.757.437 6.652-8.917 7.087-8.647 7.492 9.251 8.79 23.036-.363 31.578-2.31-5.938-6.342-9.3-6.372-9.3Zm5.592-42.111c5.692-5.858 10.206-10.42 14.718-16.975.37-.533-24.016-31.722-23.637-32.268 3.762-4.187 8.805-7.263 12.728-12.318 0 0 19.999 26.36 20.459 26.129 2.026-8.25 3.51-15.718 3.123-24.34-1.234-22.062-10.597-35.567-10.67-35.302-3.165 20.27-34.28 50.97-40.407 48.783l-.035-14.165c.37.71 19.712-12.53 24.813-30.028.366-1.257 15.374-6.093 15.27-6.278-.636-1.642-7.201-10.995-7.201-10.995s2.652-1.243 2.946-1.24c8.511 10.656 14.933 24.694 17.119 38.061 2.651 14.397 4.365 41.463-24.306 71.022l-4.92-.086Zm85.954-37.247c-4.487-14.021-4.364-28.538-2.301-38.673 3.148-18.367 14.675-31.517 23.921-41.545l4.01.002-6.54 6.815c-2.994 3.459-7.332 10.674-7.332 10.674l23.928 31.492 13.638-2.968s-.411 14.088.012 14.088c-10.6 8.835-18.217 16.83-23.685 29.701-3.352 1.248-14.463 6.072-14.463 6.072-5.282-1.3 15.717-34.451 11.723-35.013-1.645-1.367-19.86-26.108-20.215-26.057-8.396 25.885-.205 53.069 14.567 72.055-1.677 1.093-3.194 1.945-3.055 1.688-6.328-8.839-11.872-19.392-14.208-28.33Zm-43.712-12.978c.947 1.476 5.204-31.59-5.985-58.059 1.065-.812 10.295-2.59 10.295-2.59l2.484 7.925-6.296 2.685 1.162 3.714c4.888-2.387 15.473-5.911 21.985-16.802 0 0 31.638-.273 32.312-.217.656.056-6.453 6.916-13.195 20.803-3.08 6.343-5.53 14.55-6.04 24.18-.102 1.902-7.24-8.946-7.24-8.946 1.78-9.166 6.538-18.19 11.28-27.214 0 0-7.276-.417-12.359-.267-7.904 8.698-12.86 13.282-24.778 17.436 4.346 14.018 30.932 20.756 25.02 19.475-1.208-.287-2.74 12.887-1.46 27.731.247 11.87 6.59 31.656 6.812 31.497 0 0-4.227.958-4.566.276.713-.173-6.29 1.612-6.29 1.612l-2.505-7.374 6.777-3.14-1.096-4.162c-.027.002-14.954 4.548-22.266 17.66l-32.699.038c12.61-13.778 17.754-27.405 20.493-45.422 2.676.483 8.155-.839 8.155-.839ZM167.675 21.13c4.111-3.464 12.363-12.485 12.363-12.485l.108 4.622-9.366 9.807.095 60.547-3.168-3.058-.032-59.433Zm-4.328 22.161c-1.687.809-5.048 4.789-6.651 9.26-10.85-9.76-6.382-27.697-.442-31.432 1.723 3.917 6.714 9.11 6.598 9-1.147 4.101-2.026 8.262.495 13.172ZM67.284 2.645l83.678.148c-4.773 9.463-9.153 17.112-14.226 26.428-2.64 3.206-59.782-10.354-60.05-9.003L67.283 2.645Z" id="path6353-8" fill="#E2CF00"/><path d="m22.052 248.892-.558-79.501 9.512 9.303.564 61.053-9.518 9.145Zm43.645-15.406c-1.97.302-.855-1.533-.495-3.277.2-.972-.734-1.886-.73-2.183.025-1.726 1.31-2.454 7.128-2.386 13.717.958 20.809 5.38 28.677 7.435 7.535 1.969 15.005 1.929 23.32 1.736.608.353 2.837 6.134 2.423 6.712-18.81 3.733-42.812-10.172-60.323-8.037Zm33.9-41.167c-1.981-1.446-3.841-1.714-5.68-2.028 3.226-5.713 7.133-10.92 13.657-14.178l3.036 7.564c-3.837 1.986-7.604 4.35-11.013 8.642Zm-39.625-19.642s-2.816 4.635-5.473 6.889c-7.9-10.665-25.563-33.372-25.563-33.372l-7.495 3.821s-.03-4.396.14-4.704c20.244-10.504 34.135-30.357 40.252-48.947 0 0 3.26 3.348 2.831 4.765-5.474 14.665-14.834 29.37-28.599 40.4l23.907 31.148Zm25.249-21.634 25.558.036 1.131 8.946c-9.786 3.302-17.863 10.048-25.415 17.85l-12.123-.213c3.975-8.768 9.497-17.663 10.849-26.62Zm94.623-37.69c.827 2.522-.01 5.243.311 5.129-30.613 15.244-39.362 48.704-39.362 48.704s-2.906-4.633-2.773-5.35c15.845-35.461 26.446-36.517 28.483-40.369l-24.1-31.404 5.452-7.465 25.849 33.869c2.569-1.192 4.033-2.19 6.14-3.114Zm-15.095 45.876c5.191-9.4 10.547-14.865 15.882-18.624l-.26 12.406-15.622 6.218ZM21.625 122.333l.134-12.036 15.769-6.833c-4.36 9.57-10.28 14.698-15.903 18.869Zm70.252-10.822-.932-8.465c9.573-4.205 18.03-9.828 24.857-17.524 7.335-.355 12.344.146 12.305.046.013-.015-6.978 10.307-11.606 26.559l-24.624-.616Zm79.312-88.926 8.713-8.865.275 79.268-8.752-8.541-.236-61.862ZM94.61 87.005l-2.764-7.845c4.348-1.64 7.64-5.215 10.708-8.755 2.079 1.874 4.762 2.534 5.694 2.894 1.275.3-8.816 12.5-13.638 13.705ZM78.275 27.601s-1.088-.634-.968-1.527c.36-1.156-1.162-3.774-1.163-3.774 18.556-5.668 45.576 10.282 61.613 6.927-.134 1.128.051 2.473-.404 3.536.505 2.26.862 2.332-1.329 3.712-11.267 3.21-23.14-3.635-34.145-6.907-8.979-2.847-16.27-2.122-23.604-1.967Z" id="path6355-9" fill="#D40000"/><path d="m66.328 1.53 3.389 6.426-.586.4c.923 1.548 1.707 3.29 2.65 4.826l.681-.08c1.114 2.149 1.565 2.943 3.021 5.488l-.658-.003c.339 1.132 1.208 1.883 1.225 2.695.01 1.01-.249 2.035.367 2.72.73.809.818 1.033.668 1.508-.398 1.26.736 2.656 1.887 2.53 8.112-1.091 16.378-.165 24.641 2.35 5.943 1.886 11.218 4 16.212 5.486 1.575.473 4.757 1.22 7.497 1.422 7.599.56 11.863-.998 10.583-4.18-.102-.255-.33-.442-.35-.573-.037-.242 0-.504.432-.86 1.247-1.282.55-2.215-.21-3.635 0 0 9.759-17.553 14.633-26.299L66.328 1.53Zm84.49 1.576-7.123 12.381c-3.807-.694-4.701 2.53-4.76 2.983-4.944-1.276-4.184 5.18-1.704 5.615.16.937-4.064 2.1-6.29-.094 3.42.462 4.633-4.096.454-5.109 5.509-4.124-4.827-10.298-4.95-1.767-4.86-.862-4.229 5.605-1.146 6.108-1.577 1.75-6.214 1.8-8.637-1.891 4.122 2.156 6.353-3.409 2.07-4.966 5.286-4.668-5.064-8.97-4.822-1.429-3.901-2.328-6.584 3.607-1.375 4.517-.297 1.068-7.118 1.077-8.849-1.684 4.836 1.111 5.059-4.817.791-5.3 4.284-5.473-6.59-8.242-4.764-.772-4.202-1.673-5.788 3.601-1.697 5.295.227.84-6.626 1.553-9.024-1.474 5.267-.796 3.424-5.935.012-5.524 0 0 .049-.148.241-.648 1.611-5.16-7.049-5.59-5.85-.12.193.504.405 1.175.405 1.175-2.387-.49-3.846.49-3.673 2.744.594 2.995 2.165 2.773 4.175 2.177.843.887-4.849 3.852-8.422 1.205 4.376-1.267 2.16-6.43-1.502-5.733-.152-1.648-1.93-3.96-4.25-2.832l-2.454-4.86 83.143.003Zm7.157 68.782-5.141.077c-3.611 3.712-29.76 27.964-25.356 64.598 1.884 15.669 6.23 29.225 17.847 45.239l3.105-1.835.475.32 32.195-18.649.017-5.663-37.371 15.787c-.742-.795-1.178-1.68-1.802-2.659l14.976-6.409s.359-.916.475-1.337c4.923-12.544 14.926-21.624 23.633-28.64-.046-12.349-.103-38.203-.103-38.203l-22.517-22.58c-2.888 2.658-5.448 5.393-8.01 8.36l25.853 34.263-2.292 1.502-25.58-34.086c3.03-3.668 6.318-6.867 9.596-10.085Zm22.967 22.278s-.124-58.828-.294-87.234l-13.417 13.86.052 59.629 13.66 13.745Zm-1.14-81.634-9.48 9.849.106 60.61-2.436-2.418V21.594l11.843-12.493-.033 3.431ZM87.55 11.073c.283.503.16 1.2-.295 1.77-1.939 2.42 4.15 6.629 8.532 5.897 3.335-.556 6.178-2.573 4.951-4.107-.998-1.25-.346-2.513.854-2.505 1.233.009 2.224.997 1.155 2.35-2.38 3.011 1.249 6.544 6.797 6.618 3.923.051 5.23-.922 5.018-3.736-.1-1.318.158-1.682 1.069-1.882 1.455-.32 2.189 1.359.983 2.64-2.605 2.765.355 6.832 5.282 7.094 1.802.096 2.158 0 4.17-1.143 1.572-.894 2.127-2.243 1.356-3.292-.991-1.35.346-2.962 1.889-2.297 1.103.474 1.646 1.326.426 2.77-1.603 1.897-.843 3.462 2.244 4.517 2.405.823 4.07.72 5.196-.313.35-.322 1.13-.994 1.118-.789-.757 1.316-1.427 2.537-1.427 2.537-5.037 2.263-8.969-1.971-8.84-2.13-5.189 3.016-9.79 2.38-13.678-2.685-1.011.564-8.249 1.892-13.474-3.882-5.272 2.663-10.174 1.546-14.53-1.433-3.218 3.06-6.61 3.544-10.135 2.074l-1.045-2.114c.264-.1 1.4 2.12 6.917 1.086 1.852-.348 5.04-3.482 3.255-5.01-.818-1.164-.842-1.689-.12-2.394.71-.695 1.922-.337 2.332.36Zm-13.515 2.773c.308.6.349 1.598.01 1-.179-.317-1.113-1.729-1.069-1.772.435-.037.866.415 1.06.772Zm105.77.482.062 78.217-8.072-8.064-.388-61.275 8.399-8.878ZM86.32 18.116l2.543 1.61-4.552-.028 2.01-1.582Zm14.29 1.346 2.135 2.087-4.488-.947 2.353-1.14Zm39.985 1.083-.954 1.97c-.55-.62-.71-1.934.954-1.97Zm16.13 32.517c1.621-3.662 3.789-8.327 7.297-9.81-2.612-5.226-2.272-10.45-.42-13.314-2.65-2.484-5.37-5.46-7.057-9.738-8.374 7.444-9.72 22.734.18 32.862Zm-.25-31.432.576 1.43c-7.457 9.188-5.154 21.252.247 27.689l-.776 1.621c-6.6-7.01-9.49-21.827-.047-30.74Zm-44.578 5.198c8.64 2.553 15.56 6.532 25.55 2.987l.047 1.958c-6.358 4.11-19.025-.232-27.582-3.413-13.756-5.112-24.46-4.814-32.108-4.23-.673-.132-1.209-1.903-.13-1.914 14.302-.16 11.99-1.956 34.223 4.612Zm1.952-3.464 2.838 3.03c-2.132-.672-4.204-1.42-6.131-2.35l3.293-.68Zm43.31.748.556.772c.24.334-1.57.508-1.265.116l.709-.888Zm-48.755 5.547c10.314 3.9 21.671 7.792 29.125 4.301 0 0 .046 1.486-.805 1.907 0 0-.787.64-3.417 1.005-12.06.996-19.888-4.03-29.622-7.002-3.692-1.127-9.624-2.492-15.715-2.746-3.617-.166-9.15.357-9.15.357-1.206-.101-1.188-.818-1.199-1.52 10.486-1.408 20.127-.358 30.783 3.698Zm49.877-3.739c.133-.006.268.004.402.024l1.055 1.357-1.251 2.002s-1.104-1.022-1.664-2.027c-.308-.65.526-1.312 1.458-1.356Zm-30.39.382 3.267 2.482c-2.456.121-5.22.214-7.955-.88l4.688-1.602Zm27.665 1.264c.258-.006.528.267.844.81.608 1.045.528 1.245-.652 1.627-1.55.502-1.671.391-1.17-1.009.342-.953.647-1.42.978-1.428Zm4.962.64 2.208 1.866c-1.22 3.195-2.018 7.25.431 13.07-.272.019-1.859 1.596-2.357 1.865-1.399-.59-4.478-12.124-.282-16.8Zm-2.512 2.444-.561 3.533c-.046.29-2.443-1.673-2.22-2.655.428-1.166 1.887-.917 2.78-.878Zm-3.963 1.24c.29.002.745.708 1.304 1.631.436.72.347.993-.618 1.868-1.421 1.447-1.7.975-1.386-1.486.156-1.216.372-2.015.7-2.013Zm2.938 3.202c.193.004.362.05.485.15l.163 3.44c.015.311-2.668-.122-3.02-1.433-.445-.84 1.331-2.179 2.372-2.157ZM153.44 38c.192-.027.793.375 1.361.715.988.59 1.01.85.159 1.95-1 1.292-1.496 1.085-1.65-1.164-.055-.825-.117-1.465.13-1.5Zm3.937 1.317a.34.34 0 0 1 .23.082c.475.409 1.202 3.858.896 4.218-.435.513-2.725-.17-3.235-.98-.486-.771 1.274-3.32 2.109-3.32Zm-2.803 4.06c.263-.018.737.164 1.453.512.43.209 1.149.602 1.308.937.28.59-.185 1.464-.786 2.19-.397.48-.769.123-1.538-1.486-.62-1.295-.875-2.123-.437-2.153Zm4.623 1.543c.052-.001.1.01.143.034.78.435.65 1.727-.273 2.683-1.107 1.148-2.068.283-1.304-1.173.485-.922 1.064-1.535 1.434-1.544ZM94.87 77.01c-.674.03-1.726.645-2.185 1.24-.58.752-1.087.654-1.73.599-.766-.012-1.932.159-3.51.883-.893.41-1.301.503-2.612.57-.855.043-1.712.16-1.903.26-.19.1-.806.318-1.366.483-1.145.337-.737.664-.08 2.15 3.341 8.626 5.735 18.677 6.608 26.863.98 9.391.683 20.78-.622 29.477-3.198.022-5.207-.143-8.575-.086-2.298 18.808-8.532 33.743-20.992 47.175l33.682.086c3.86-10.363 21.47-18.268 22.049-17.685l.927 3.782s-12.668 1.823-21.2 18.01c.873-.532 4.05-.163 6.148 2.03 4.19-5.35 11.063-8.845 11.107-8.763l.23-.645s1.26-.431 2.368-.643c.356-.068 1.084-.206 1.568-.377.747-.263 1.118-.544 2.272-.444 2.401.231 4.811-.47 4.76-.483-7.15-19.855-8.84-37.778-6.046-58.599 2.634.021 8.41.12 8.41.12.58-5.849 1.317-11.702 3.101-17.225 2.291-7.092 5.055-13.684 9.503-19.711 2.513-3.786 4.706-6.48 7.303-10.028l-32.971.077c-4.363 7.384-12.77 13.552-19.527 16.12-2.3.87-2.624.742-3.005-.347-.681-1.945-.649-1.863 1.15-2.38.6-.172 2.523-1.19 5.522-2.605 6.365-3.254 10.742-9.21 13.316-13.23 1.024-1.587.336-1.229-1.414-1.245-1.604-.126-2.336-.625-3.778-1.979-.53-.498-.759-.854-1.001-.825-1.882 2.721-5.041 6.311-7.507 7.375Zm7.738-6.287c1.482 1.598 3.24 2.532 5.555 2.837-3.699 5.844-8.217 10.414-13.41 13.193l-2.64-7.478c6.472-3.033 8.202-6.073 10.495-8.552Zm53.742 2.379c-34.87 32.46-32.819 73.384-8.4 106.625l-2.559 1.549c-22.934-30.945-27.083-76.722 7.958-108.313l3 .139Zm-21.983 3.959 8.548-.018-5.82 7.595-7.808-.029 5.08-7.548Zm-1.34.063-4.753 7.547-12.824.166c-7.673 9.526-15.916 14.172-24.306 17.343l-1.637-8.133s13.284-3.226 21.888-17.026l21.632.103Zm-13.03.624-2.972 3.311 3.087 3.161 2.818-3.21-2.933-3.262Zm6.73-.077-3.01 3.152 2.348 3.17 3.12-3.079-2.459-3.243Zm-14.845.574-.513 4.957 3.873 1.28.565-4.239-3.925-1.998Zm23.56.185-2.81 4.425 4.232.067 2.96-4.405-4.382-.087Zm-44.246 1.13 2.743 7.657-2.409 1.17-2.443-7.996 2.109-.83ZM87.95 80.79l2.828 7.92-2.368.787-2.598-8.244 2.138-.463Zm3.389 31.27c.315 11.015.472 17.655-1.357 27.337-.095.506-2.06.058-2.06.058.249.083 1.107-10.941 1.039-17.866-.13-13.187-2.35-26.233-7.49-39.303.98-.603 3.396-.911 3.396-.911 3.244 9.91 6.119 20.572 6.472 30.685ZM57.103 81.52C68.36 96.558 76.406 116.96 75.06 137.091c-1.29 23.408-10.103 36.898-25.582 53.108l-3.993.093c18.323-17.69 26.43-32.83 27.07-52.804.734-22.972-6.233-38.251-17.97-54.533l2.518-1.436Zm-36.006 20.673.038 5.478 38.352-16.562-5.531-8.205-32.86 19.29ZM110.98 84.25l-4.174.213.139 4.242 4.352-.106-.317-4.349Zm37.215-.806 24.853 32.815-6.15 4.6-23.692-30.836 4.99-6.579Zm-19.479 2.242 7.44.115-2.877 4.806-7.19-.058 2.627-4.863Zm-1.374.118c-3.42 6.405-8.138 13.708-10.787 25.512l-24.49.02c-.045-2.694-.391-5.39-.79-8.084 10.553-3.889 18.726-9.701 24.738-17.385l11.33-.063Zm4.529.338-3.192 1.854 1.95 2.258 3.519-1.356-2.277-2.756Zm-29.15 2.36-1.054 4.18 3.97 1.54.732-4.967-3.647-.752Zm22.836 3.123 7.137.044-3.005 6.042-7.07-.106 2.938-5.98Zm16.993-.79 23.518 30.696-2.205 1.756-22.984-30.005 1.67-2.448Zm-14.285 1.278-3.216 2.698 2.42 2.813 2.967-2.384c.063-.05-2.17-3.127-2.17-3.127Zm-31.214.222-.987 4.064 4.127 1.105.738-4.358-3.878-.811Zm-5.708 2.702-.84 4.002 3.888 1.057.82-3.857-3.868-1.202Zm-32.096-.4c.2-.041-.65 4.761-1.9 5.627-.597.413-.907.322-1.425-.241-.357-.388-1.974-3.044-1.974-3.044l1.382-.699c1.676 2.699 1.674 1.394 2.309-.907l1.608-.737ZM52.802 97.4c.548-.004 1.211.681 1.96 2.008 1.085 1.919 1.049 2.044-.733 2.597-3.206.854-4.399 1.059-3.412-1.072 1.062-2.294 1.481-3.528 2.185-3.533Zm9.546-.38 2.195 3.782c-8.8 22.56-22.993 38.743-42.53 48.536l-.044-3.748c23.033-13.201 32.478-28.796 40.38-48.57Zm59.83 1.63 6.927.126-1.85 5.333-7.363-.053 2.287-5.406Zm-71.457-.232c-5.637 13.527-13.34 25.33-28.742 35.294l-.062-3.593C39.214 119.624 46.69 99.964 46.69 99.958l4.032-1.54Zm87.544-.023c4.1.113 8.413 4.615 7.976 8.325-.308 2.615.19 4.556.896 3.485 1.562-2.366 6.165-.793 6.124 2.048-.022 1.511-1.026 1.76-1.601.395-.85-2.016-3.24-2.066-3.593.047-.33 1.981 1.337 3.437 5.795 5.059 5.224 1.233 8.368 5.948 6.51 8.658-.645.716-1.033.893-1.155.521a23.45 23.45 0 0 1-.283-1.24c-.592-2.84-1.944-4.034-3.587-3.058-.823.488-.718 1.136-.238 1.99.64 1.136.239 1.577-.906.998-1.808-.914-2.405-3.081-.653-4.08 2.084-.84 1.379-1.02-1.284-1.926-5.668-1.95-8.1-5.527-8.398-12.342.109-3.106-.313-4.214-1.764-4.638-1.328-.388-2.832 1.31-1.879 2.206.518.486.941.928.666 1.197-.88.861-3.084-.537-3.062-2.037.014-.98.383-1.183 1.84-2.336.405-.32.06-.923-.532-.931-2.228.722-2.07-2.245-.872-2.341Zm-12.84.786-3.463 2.004 1.804 2.537 3.834-1.813-2.175-2.728Zm-67.37 1.97c.399 0 .725.323.725.723 0 .4-.326.73-.724.73a.725.725 0 0 1-.72-.73c0-.4.322-.724.72-.724Zm7.098.313c7.308 16.06 9.046 34.424 3.96 52.776L49.38 128.387c7.571-8.583 12.661-18.41 15.774-26.922Zm-26.69 1.18-17.61 7.45-.097 13.295c9.839-6.761 14.012-13.682 17.707-20.745Zm16.927-.111c1.735-.055.879 4.662-1.374 6.271-.827.64-1.384.561-1.656-.717-.141-.663-.834-2.065-1.707-3.193-1.015-1.313-1.004-1.346.48-1.439 1.637.025 2.98-.766 4.257-.922Zm-1.715 2.004c-1.28-.019-1.664.584-.901 1.41.641.694 1.15.545 1.581-.46.263-.611.028-.94-.68-.95Zm-31.762 17.247.043-11.285 15.06-6.384c-3.022 6.593-8.614 13.13-15.103 17.669Zm133.782 9.116-2.006 2.03-19.441-25.518 1.218-3.222 20.23 26.71ZM49.15 105.088c.652.01 2.13 2.286 2.545 3.92.308 1.211-.018 1.467-2.3 1.81-.947.26-3.501.008-3.294-.676.371-.989 2.819-5.057 3.049-5.054Zm70.43.26 7.094.078-1.624 5.86-7.43-.112 1.96-5.825Zm3.135.358-3.302 2.302 2.612 2.592 3.499-2.177-2.809-2.717Zm11.129 2.52 19.667 25.701c-5.868 7.515-11.72 16.148-15.568 27.559-7.002-16.491-9.565-32.543-4.1-53.26Zm-79.875 2.187c.397 0 .723.324.723.724 0 .4-.326.73-.723.73a.725.725 0 0 1-.72-.73c0-.4.322-.724.72-.724Zm-2.263.98c1.228.088.069 4.025-1.779 5.46-1.457 1.133-2.083.608-2.42-1.464-.121-.748-.903-2.02-1.59-3.024-.769-1.122-.452-1.3 1.495-.85 1.36.266 3.038-.059 4.294-.122Zm65.728.962 7.438.046-1.145 8.897-6.293-8.943Zm-72.472.412c1.173 1.1 2.653 4.96 1.894 5.238-.884.324-4.883-.144-5.33-.608-.309-.32-.31-.321.345-1.202a89.42 89.42 0 0 0 1.524-2.147c.432-.51.91-1.891 1.567-1.28Zm4.142.132c-1.133.038-1.209.195-.671 1.424.438 1.003.742 1.092 1.495.434 1.048-.915.608-1.906-.824-1.858Zm130.555.772.269 4.388c-28.592 14.28-39.3 47.994-39.454 47.994l-2.075-3.89c13.12-32.554 30.569-41.98 41.26-48.492ZM44.93 118.86c1.703-.036 2.2-.153 2.191.482.02 1.709-1.566 4.134-3.504 5.049-1.304.616-1.334.63-1.481-.917-.113-1.19-.499-2.723-1.112-3.943-.192-.453-.932-1.49 0-1.195.929.295 2.847.546 3.909.524h-.003Zm3.82-.397a.72.72 0 0 1 .719.724.72.72 0 0 1-.72.724.72.72 0 0 1-.718-.724c0-.4.32-.724.719-.724Zm-9.111 1c.308-.009.602.63.954 1.569.763 2.042.997 3.149.771 3.63-.348.74-5.04.261-5.838-.566-.152.115 3.452-4.223 4.113-4.633Zm3.379.507c-.673.046-.317.454.182 1.636.345.818.813.95 1.347.376.715-.767.811-1.376.36-1.704-.662-.268-1.151-.305-1.89-.308Zm136.842 4.438.025 1.47c-1.114-.335-1.804-.81-3.074-1.235-.778-.263-1.238-.45-.55-1.276 1.077-1.292 2.232-2.1 3.544-2.902l.01 1.665c-2.098.936-1.894 1.8.047 2.278h-.002Zm-82.65-1.494h7.9v5.251h6.178l-.479 5.985h-5.7v5.251H97.21v-5.251H91.57l.455-5.985h5.187v-5.251Zm17.84.018c-4 19.957-.33 41.145 5.842 58.408l-3.115.345c-4.81-13.805-8.634-33.458-4.745-58.742 0 0 1.394-.025 2.019-.01Zm58.632.387a.72.72 0 0 1 .72.724.72.72 0 0 1-.72.724.72.72 0 0 1-.719-.724c0-.4.321-.724.72-.724Zm-138.961 1.675c.262-.008 1.065.341 1.778.54 1.072.3 1.918.43 2.895.45 1.964.038 2.22.02 1.376 1.645-.609 1.171-1.98 2.72-2.938 3.19-1.358.73-1.879.632-1.798-.714.01-.912-.384-2.498-.896-3.63-.399-.878-.854-1.468-.417-1.48Zm8.307.641c.398 0 .724.324.724.724 0 .4-.326.729-.724.729a.725.725 0 0 1-.719-.729c0-.4.321-.724.72-.724Zm132.912-.095c.557-.012 1.511.331 2.382.757 2.309 1.13 2.247 1.39-.882 3.625-2.272 1.736-2.81 1.93-2.89-.806-.082-2.306.165-3.55 1.39-3.576Zm-142.403.66c.916.014 1.93 4.819 1.107 5.247-1.282.667-5.255-.632-5.239-1.728 0-.356 3.728-3.524 4.132-3.518Zm139.642-.197c.548-.024.62.408.57 1.94-.027.811.112 2.134.168 2.751.116 1.28.01 1.369-.997.797-.643-.367-1.95-.968-3.365-1.091-1.159-.101-1.244-.581-.884-1.35 1.023-1.706 2.877-2.902 4.508-3.047Zm-136.239.724c-.8-.006-.602.422-.105 1.626.351.854.96.935 1.586.208.877-1.018.704-1.557-.57-1.752a8.648 8.648 0 0 0-.91-.082Zm135.18 1.144c-.333.03-.788.296-1.007.439-.752.474-1.057.816.034 1.192.97.335 1.486.48 1.409-.362-.047-.507-.01-1.244-.436-1.27Zm-74.143.622v5.232h6.29v-5.232h-6.29Zm68.525.454a.72.72 0 0 1 .719.724.72.72 0 0 1-.72.724.72.72 0 0 1-.718-.724c0-.4.321-.724.719-.724Zm-117.723.816 19.84 25.64-1.318 3.342-20.434-27.066 1.912-1.916Zm131.206-.121.044 3.35c-2.241 1.652-16.474 12.037-23.838 29.518l-3.855 1.653c5.427-15.045 17.033-27.93 27.65-34.521Zm-150.92 1.42c1.291.395 2.524 1.299 3.743 1.461 1.402.172 1.885.082 1.505.811-.85 1.632-2.453 3.342-4.146 3.9-1.21.4-1.781.25-1.591-.507.356-1.417.417-2.58.369-3.87.192-.704-.405-1.69.12-1.796Zm-1.515.298c.824.71.66 5.19-.259 6.154-.48.504-1.874.044-3.964-1.149-1.366-.78-1.621-1.255-.94-1.732 1.156-.707 4.541-3.44 5.163-3.273Zm141.737.097c.428-.01.958.065 1.596.212 2.472.56 3.023 1.128.915 2.814-.779.623-1.605 1.398-1.845 1.694-1.134 1.4-1.923.385-2.171-2.157-.174-1.78.092-2.793 1.505-2.563Zm-3.097.241c.402 0 .66.211.652.714-.01.643.449 3.424.705 4.19.445 1.302.122 1.596-.95 1.028-.78-.424-2.846-.745-3.963-.657-1.272.1-1.235-.242-.863-1.317.66-1.906 3.214-3.957 4.42-3.958Zm-135.917.927c-.484-.002-.504.654-.173 2.157.105.478.514.449 1.285-.096.912-.645.874-1.05-.154-1.67-.423-.256-.739-.39-.958-.391Zm5.622.164a.72.72 0 0 1 .72.724.72.72 0 0 1-.72.724.72.72 0 0 1-.719-.724c0-.4.321-.724.72-.724Zm127.947 2.814c.345.338 1.62.324 1.84.12.337-.313.18-1.765-.1-1.94-.72-.246-2.171 1.284-1.74 1.82Zm-119.075 2.765c.434 2.072 3.327 1.957 3.001-.203-.19-1.26-.235-1.234.393-1.206 2.988.147 2.47 4.889-.973 4.522-.718.087-.814.383-.206.637.604.253 2.917.851 3.274.85 3.745-.013 9.149 5.786 9.016 10.932-.087 3.365 1.046 5.787 2.205 6.062.921.218 2.258-.625 2.142-1.656-.16-1.421.988-.978 1.65.044 1.008 1.41-.293 3.446-2.695 3.286-1.021.201.751.854 2.065 1.236 1.191.069.184 1.547-.037 1.81-.674.787-2.88.186-4.611-1.221-2.125-1.728-3.038-4.043-3.288-8.591-.162-2.924-.378-3.518-1.223-2.312-1.518 2.69-5.154 1.373-5.608-1.467-.254-1.504 1.061-2.59 1.486-1.226 1.127 2.833 3.886 2.152 3.437-.662-.296-1.856-2.14-2.88-5.786-3.914-4.381-1.242-5.684-2.752-6.538-6.37-.378-1.602-.318-2.44.523-3.278.415-.414.944-.835.944-.835s.585 2.435.83 3.562Zm114.61-2.296a.72.72 0 0 1 .718.724.72.72 0 0 1-.719.724.72.72 0 0 1-.719-.724c0-.4.322-.724.72-.724Zm-137.521.688c1.304.476 2.426 1.18 3.77 1.641.873.299.635 1.002-.27 2.001-1.007 1.198-1.998 1.788-3.395 2.455l.015-2.025c1.698-.597 2.779-2.021-.074-2.478l-.046-1.594Zm140.915 1.13a10.08 10.08 0 0 1 2.015.193c2.079.433 2.322.62 1.074 2.09-.463.546-1.152 1.368-1.53 1.83-1.229 1.724-1.89 1.132-2.463-1.096-.71-2.327-.873-3.22.904-3.017Zm-134.396.83a.72.72 0 0 1 .719.724.72.72 0 0 1-.72.724.72.72 0 0 1-.718-.724c0-.4.32-.724.719-.724Zm132.3 1.577c.199.735.5 1.67.73 2.334 1.128 2.506.414 1.537-1.608 1.316-1.359-.149-3.522.08-4.057-.299-.233-.305-.018-1.11.418-2.017.614-1.278 1.729-2.367 2.561-2.861 2.108-.98 1.616.266 1.957 1.527Zm-121.465-.891 22.661 30.168-1.777 2.551-23.308-31.019 2.424-1.7Zm142.018.113c-11.78 8.57-16.304 18.974-17.222 20.333l17.27-6.709-.048-13.624Zm-22.491.982c-.646.18-1.573 1.385-1.175 1.859.239.247 1.189.279 1.645.11.7-.258.222-1.972-.47-1.969ZM59.43 173.128l-4.827 6.125-25.15-32.757 6.346-4.614 23.631 31.246Zm120.542-31.837.178 11.259-14.772 6.2c4.947-8.413 9.792-13.615 14.594-17.46Zm-101.003.954 5.916 7.756-7.23-.165 1.314-7.59Zm74.809.635a.72.72 0 0 1 .719.724.72.72 0 0 1-.719.724.72.72 0 0 1-.719-.724c0-.4.321-.724.719-.724Zm4.336 1.835c2.706.037 3.608.185 2.822 1.524-1.05 1.307-1.67 2.549-2.816 3.757-.66.678-1.487-.72-2.178-2.955-.557-1.805-.275-2.26.785-2.275 1.059-.015 1.24-.053 1.387-.051Zm-3.126 2.442c.222.713.74 1.886 1.15 2.602.412.715.874 1.51.845 1.65-.07.335-.385.361-1.098.091-1.542-.7-5.166.04-5.261-.305-.539-.772.269-2.878 1.79-4.337.744-.713 1.424-1.176 1.818-1.183.393-.007.465.541.756 1.482Zm-126.403-.554 25.59 33.464-1.77 2.17-25.878-34.11s-4.087 2.016-5.289 2.688l.162 17.308-.7-.034.105 87.666 14.28-14.338-.186-59.483c3.03 2.87 5.623 5.931 9.091 8.744l5.939-.047c15.503-15.877 23.994-29.466 25.858-53.799 1.247-16.278-4.125-36.749-18.371-56.587l-3.479 2.127 6.874 10.43-14.56 6.497c-5.8 12.31-12.674 23.671-25.248 30.177l-.07 15.933-.22.33.166 5.002 7.706-4.138Zm125.12 1.143c-.68.05-1.742 1.527-1.255 2.031.573.274 1.458.255 1.828-.24.253-.483.189-1.508-.573-1.791Zm-76.34 3.446 7.515.044-1.965 6.491-7.32-.14 1.77-6.395Zm71.393-.029a.72.72 0 0 1 .719.724.72.72 0 0 1-.72.724.72.72 0 0 1-.718-.724c0-.4.321-.724.719-.724Zm-38.29.198.972 8.43c-8.197 3.002-17.036 8.093-24.766 17.455-1.321-.087-11.862.092-11.862.092.263.038 9.767-18.02 10.861-25.856l24.796-.121Zm-29.766.785-3.446 2.385 2.694 2.89 3.566-2.432-2.814-2.843Zm71.727.035c.733-.004 1.715.087 2.502.227 1.27.248 1.458.272 1.03 1.328-.572 1.4-1.86 3.926-2.186 4.127-1.164.727-3.75-4.483-2.869-5.384.233-.185.728-.294 1.523-.298Zm-3.296 1.603c.333-.03.777.622.909 1.184.16.682 1.332 2.402 2.072 3.226.93 1.036.88 1.181-.45 1.289-1.587.127-3.136.441-4.028.768-1.384.506-1.573.394-1.395-1.235.267-2.453 1.894-5.145 2.892-5.232Zm-1.215 5.072c.173.475 2.32-.397 2.44-.967-.02-.255-.863-1.734-1.37-1.801-.859.135-1.219 2.096-1.07 2.768Zm-72.522-.333 7.104.068-2.33 5.893-7.022-.02 2.248-5.94Zm3.18.79-3.403 2.167 2.65 2.583 3.26-2.264-2.507-2.486Zm72.238 1.069c.603-.006 1.241.052 1.375.275.377.625-1.16 4.122-1.16 4.122l-2.503 1c-.539-1.116-1.46-2.275-1.683-3.484-.088-.528.177-.721.757-1.049.863-.488 2.208-.855 3.214-.864Zm-6.707.285a.72.72 0 0 1 .719.724.72.72 0 0 1-.72.724.72.72 0 0 1-.718-.724c0-.4.321-.724.719-.724Zm-32.394.101s1.535 8.733 1.618 7.77c-11.847 4.493-18.776 11.122-22.059 17.59l-22.227-.017 4.961-7.75 13.159-.068c6.36-7.771 14.206-13.969 24.548-17.525Zm-2.845 2.056-1.098 3.528 3.322 2.133 1.25-3.789-3.474-1.872Zm36.41.068c.28-.026.56.451 1.13 1.472.422.754.978 1.85.978 1.85l-.994.373c-.802-2.758-1.537-1.732-1.623.702l-1.362.546s.148-2.346.926-3.717c.447-.788.696-1.203.944-1.226Zm-72.45 2.413 6.887.086-2.88 6.01-7.004-.194 2.996-5.902Zm30.043.482-.546 4.46 3.71.791.508-4.237-3.672-1.014Zm-27.115.053-3.403 2.216 2.233 2.958 3.274-2.215-2.104-2.959Zm21.795 3.905-.705 4.107 3.48.797.791-4.132-3.566-.772Zm-75.628.241 8.709 8.692.48 60.645-8.661 8.746-.528-78.083Zm47.384 2.22c-.03.049 6.948.201 6.948.201l-2.794 5.076-2.385-.107 3.14-2.158-2.014-2.592-3.226 2.12 1.798 2.62-4.712-.101 3.245-5.059Zm44.926 1.502 2.365 7.869-2.843.497-2.136-7.403c.872-.455 1.743-.679 2.614-.963Zm-22.343.492.048 4.72 3.796.323.149-4.425-3.993-.618Zm18.871.753 2.164 7.476-1.805.517-2.585-7.096a7.34 7.34 0 0 1 2.226-.897Zm-3.293 1.543 2.78 7.32c-3.841 1.568-7.824 4.924-10.822 8.274-2.222-1.644-3.53-1.816-4.901-2.188 3.781-7.093 8.247-10.817 12.943-13.406Zm-41.964 1.835 7.305.222-5.08 7.64-8.264-.01 6.04-7.852Zm21.746.285-.474 4.47 3.91 2.326.595-4.59-4.03-2.206Zm-4.712.627-2.78 2.959 2.953 3.393 2.708-3.543-2.88-2.809Zm-6.217.155-3.302 3.05 2.627 3.451 3.02-3.47-2.345-3.031Zm-42.077 2.845.324 59.245-12.135 11.841-.09-3.186L31.989 240c.011-20.04-.052-40.08-.119-60.12l2.374 2.363Zm32.285-1.914-3.35 4.6 3.973.01 2.88-4.455-3.503-.155ZM45.865 209c-1.321 4.786-7.412 9.978-7.521 9.89 3.016 4.352 2.914 10.557.255 13.614.012-.068 4.848 3.973 5.526 6.072.383.836.536 1.853 1.021 2.683.128.22.537.766.537.766 11.812-12.06 6.187-26.194.182-33.026Zm.177 1.25c11.469 14.327 3.908 27.44-.093 31.099l-.764-1.271c8.521-9.973 4.91-22.224-.055-28.024l.912-1.803Zm-1.241 2.79c.077.232.523.907.192.863l-.575-.116.383-.748Zm-.087 1.597c.25 0 .458.078.57.25.234.392-.95 3.686-1.683 2.918-.22-.435-.48-.812-.684-1.263-.239-.537-.082-.796.465-1.331.377-.369.917-.574 1.332-.574Zm1.65.893c.58.045 1.404 1.882 1.48 3.195.036.136-1.957-.31-2.487-.922.063-.538.564-1.905 1.006-2.273Zm-4.487 1.499c3.453 6.99 3.237 12.45.197 17.471l-2.382-2.051c1.602-3.818 2.394-7.893-.302-13.08l2.487-2.34Zm2.33 1.749c.238-.021.976.089 1.629.299 2.31.744 2.397 2.266.173 3.383-.922.463-1.21.258-1.74-2.07-.263-1.152-.461-1.577-.063-1.612Zm4.462 2.678c.445-.002.65.846.704 2.307.052 1.389-.241 1.498-1.351.507-1.2-1.07-1.407-1.325-.307-2.205.322-.258.751-.608.954-.609Zm-3.15 2.293c.22-.02.858.39 1.482.869 1.58 1.212 1.23 2.044-.566 2.63-1.244.406-1.182.458-1.15-1.708.016-1.071-.048-1.766.235-1.791Zm20.918 1.972c-1.928.493-2.738 2.225-2.098 3.784.29.709.733.715.214 1.148-.579.673-.886 2.23-.25 2.798.752.433.945-.314.154 1.15l-14.528 26.87 87.204-.163-10.48-19.766c.023-.028.837-3.26-.84-3.65-.538-.126-.846-.63-.955-1.112.136-1.375-.484-1.96-1.006-2.67-8.29 1.179-15.49.592-21.439-.756-8.568-1.94-14.692-5.3-18.674-6.355-5.492-1.456-12.119-2.088-17.302-1.278Zm4.698.185c6.757-.04 14.32 2.042 19.614 4.349 5.492 2.284 11.31 3.986 17.188 4.86 4.852.615 9.691.306 14.33-.065.508-.076 1.034-.007 1.411.398.962 1.076.307 1.75-2.099 1.974-3.863.321-8.654.184-12.903-.458-6.73-.779-13.863-2.827-20.017-5.396-7.692-2.906-14.756-3.88-20.338-3.022-3.065.471-3.516.545-3.504-.284.024-1.618 1.353-2.357 6.318-2.356Zm-22.14 4.69c-.297.686-2.399-1.557-2.377-2.19.044-.279 1.745-1.397 2.42-1.85.327-.253.306-.122.31.174.012.846-.055 3.029-.353 3.867Zm-3.236-1.654c.97.132 2.564 2.768 1.16 3.176-1.243.362-2.374.594-2.525-.246.64-2.062.88-2.878 1.25-2.925.038-.005.078-.005.115-.005Zm56.392 9.003c6.19 1.077 14.314 1.723 19.625 1.305 3.044-.309 3.685-.21 3.666 1.068-.012.8.076.781-3.853.777-3.266.22-6.205-.133-9.366-.298-6.54-.327-12.483-1.455-17.975-3.375-6.092-1.59-11.37-4.649-17.333-5.28-5.467-.54-10.385.435-11.417 1.012-.344-.005-.524-.519-.503-.993.02-.463.191-.835.575-1.13 15.672-3.981 24.062 4.545 36.58 6.914Zm-54.345-5.272c.522.006.356.784-.499 2.433-.726 1.401-1.012 1.394-1.423-.044-.439-1.536-.397-1.706.474-1.93.513-.125.947-.394 1.448-.459Zm-3.657.782c.612.009 1.481 2.8 1.035 3.325-.352.415-1.627.134-1.998-.357-.598-.788.166-2.98.963-2.968Zm27.397.754c2.43-.025 4.853.237 7.08.623-1.282.477-2.558.918-3.89 1.692a23.37 23.37 0 0 0-3.19-2.315Zm3.158 3.388c8.591-4.823 12.218 1.835 13.46 2.91 7.51-1.675 8.98-.85 13.17 3.708 7.521-3.703 11.167-.555 14.306 1.436 3.683-3.465 8.352-3.56 10.786-1.822.455.767 1.088 1.74 1.14 2.03.04.226-.304-.037-1.15-.647-4.417-3.182-11.747.78-9.788 4.976.527 1.13.443 1.617-.345 2.07-1.12.764-2.497-.502-1.716-1.795 1.302-2.157.322-3.964-2.848-5.632-4.466-2.352-11.764.283-10.262 3.75.96 1.107.07 1.888-1.198 1.849-1.436-.045-1.923-1.013-1.002-2.047 1.149-1.32.847-2.659-.491-4.184-4.01-5.752-12.126-3.472-11.052 1.57.472 1.252-.87 1.757-2.262 1.2-.886-.354-.753-1.733.216-2.22 1.116-.114 1.274-1.74 1.14-2.785-.193-1.52-2.419-3.017-4.62-3.811-1.594-.575-3.074-.698-4.242-.59-2.466.226-3.843 1.912-3.437 4.44.24 1.49-.174 3.036-1.912 2.216-.951-.448-.712-1.532.259-2.53 3.414-3.358-3.461-7.444-7.612-4.629-.704.583-1.217.684-1.217.684 2.603-6.525 10.753-.414 10.677-.147Zm11.315-.879 5.187 1.967c-1.196.238-2.039.577-2.886.915l-2.301-2.882Zm-13.548 2.122c-4.788-.914-5.048 4.472-1.928 5.351-4.292 5.937 6.947 8.242 4.885.916 5.695 1.033 4.665-5.493.43-5.433.99-2.43 8.808-.589 8.47 1.218-5.284.564-3.172 5.412-.886 5.418-5.526 5.268 5.533 10.125 5.24 2.183 4.436.939 4.958-4.991.693-5.382 1.562-2.212 7.14-.817 8.688 1.713-4.403.589-4.128 4.482-.682 5.111-4.367 5.599 6.38 7.668 5.263 1.16 3.851 1.333 5.965-3.84.975-5.32 5.111-3.065 10.661 1.505 10.06 1.598-5.833-.348-4.672 5.537-.45 5.218-2.686 6.11 7.955 6.45 5.256.113 4.786.088 4.367-5.496-.219-5.87 2.888-2.119 6.143-2.305 8.238-.321-4.364 1.156-2.55 6.263 1.84 4.849.406 4.274 3.857 3.367 3.934 3.238l3.087 5.8-83.672.136 7.142-13.271c4.22.218 4.07-3.874 3.885-3.974 2.807 2.018 5.825-2.998 1.719-4.435 3.354-3.535 8.33-.27 8.032-.016Zm-27.239-.37c-.175.18-.22.287-.508.019-.73-.84 1.255-.911.508-.02Zm17.302 2.222c.368.304.115 1.136-.184 1.42-.755.814-1.01.75-.345-.655.195-.425.381-.77.529-.765Zm36.658.377 4.35 1.059-2.066 1.173a26.247 26.247 0 0 0-2.284-2.232Zm13.596 1.764 4.731.304c-.625.428-1.238.827-2.003 1.607-.596-.637-1.724-1.274-2.728-1.911Zm15.762 4.858c.263.552 1.308 2.474 1.21 2.524-1.53.269-1.94-2.024-1.21-2.524Z" id="path6357-5" fill="#100F08"/><path d="M49.543 56.99C44.38 48.453 38.95 40.155 32.161 33.067c6.788-7.088 12.22-15.386 17.382-23.923 5.163 8.537 10.595 16.835 17.383 23.923-6.788 7.088-12.22 15.386-17.383 23.923Z" id="path12536" fill="#D40000"/><path d="M7.293 46.303C5.142 42.746 2.878 39.288.05 36.335c2.828-2.953 5.092-6.41 7.243-9.968 2.151 3.557 4.414 7.015 7.243 9.968-2.829 2.953-5.092 6.41-7.243 9.968Z" id="path12538" fill="#D40000"/><path d="M152.154 206.943c-5.163 8.537-10.595 16.835-17.383 23.923 6.788 7.088 12.22 15.386 17.383 23.923 5.163-8.537 10.595-16.835 17.383-23.923-6.788-7.088-12.22-15.386-17.383-23.923Z" id="path12540" fill="#D40000"/><path d="M194.406 217.618c-2.152 3.557-4.415 7.015-7.243 9.968 2.828 2.954 5.091 6.411 7.243 9.968 2.15-3.557 4.414-7.014 7.243-9.968-2.829-2.953-5.092-6.41-7.243-9.968Z" id="path12542" fill="#D40000"/></g></g></g></svg>