<svg width="227" height="315" xmlns="http://www.w3.org/2000/svg"><g id="Page-1" stroke="none" stroke-width="1" fill="none" fill-rule="evenodd"><g id="Diamonds" transform="translate(11 25)" fill="#D40000"><g id="2" transform="translate(1 9)"><path d="M101.375 47.99c-5.163-8.537-10.595-16.835-17.383-23.923C90.78 16.979 96.212 8.681 101.375.144c5.163 8.537 10.595 16.835 17.383 23.923-6.788 7.088-12.22 15.386-17.383 23.923Z" id="path6516-8"/><path d="M7.4 37.303c-2.152-3.557-4.415-7.015-7.243-9.968 2.828-2.953 5.091-6.41 7.243-9.968 2.151 3.557 4.414 7.015 7.243 9.968-2.829 2.953-5.092 6.41-7.243 9.968Z" id="path6518-2"/><path d="M195.351 228.554c-2.151-3.557-4.414-7.014-7.243-9.968 2.829-2.953 5.092-6.41 7.243-9.968 2.152 3.557 4.415 7.015 7.243 9.968-2.828 2.954-5.091 6.411-7.243 9.968Z" id="path6522-0"/><path d="M101.375 245.777c-5.163-8.537-10.595-16.835-17.383-23.923 6.788-7.088 12.22-15.386 17.383-23.923 5.163 8.537 10.595 16.835 17.383 23.923-6.788 7.088-12.22 15.386-17.383 23.923Z" id="path6538-6"/></g></g></g></svg>