<svg width="227" height="315" xmlns="http://www.w3.org/2000/svg"><g id="Page-1" stroke="none" stroke-width="1" fill="none" fill-rule="evenodd"><g id="Diamonds" transform="translate(11 25)" fill="#D40000"><g id="3" transform="translate(1 9)"><path d="M101.6 47.99c-5.164-8.537-10.596-16.835-17.384-23.923C91.004 16.979 96.436 8.681 101.6.144c5.163 8.537 10.595 16.835 17.383 23.923-6.788 7.088-12.22 15.386-17.383 23.923Z" id="path6584-3"/><path d="M7.624 37.303C5.473 33.746 3.209 30.288.38 27.335c2.828-2.953 5.092-6.41 7.243-9.968 2.151 3.557 4.414 7.015 7.243 9.968-2.829 2.953-5.092 6.41-7.243 9.968Z" id="path6586-2"/><path d="M195.575 228.554c-2.15-3.557-4.414-7.014-7.243-9.968 2.829-2.953 5.092-6.41 7.243-9.968 2.152 3.557 4.415 7.015 7.243 9.968-2.828 2.954-5.091 6.411-7.243 9.968Z" id="path6590-7"/><path d="M101.6 146.884c-5.164-8.538-10.596-16.835-17.384-23.924 6.788-7.088 12.22-15.385 17.383-23.923 5.163 8.538 10.595 16.835 17.383 23.923-6.788 7.089-12.22 15.386-17.383 23.924Z" id="path6600-5"/><path d="M101.6 245.777c-5.164-8.537-10.596-16.835-17.384-23.923 6.788-7.088 12.22-15.386 17.383-23.923 5.163 8.537 10.595 16.835 17.383 23.923-6.788 7.088-12.22 15.386-17.383 23.923Z" id="path6606-3"/></g></g></g></svg>