<svg width="227" height="315" xmlns="http://www.w3.org/2000/svg"><g id="Page-1" stroke="none" stroke-width="1" fill="none" fill-rule="evenodd"><g id="Diamonds" transform="translate(11 25)" fill="#D40000"><g id="4" transform="translate(1 9)"><path d="M7.848 37.303c-2.152-3.557-4.415-7.015-7.243-9.968 2.828-2.953 5.091-6.41 7.243-9.968 2.151 3.557 4.414 7.015 7.243 9.968-2.829 2.953-5.092 6.41-7.243 9.968Z" id="path6654-0"/><path d="M153.358 47.99c-5.163-8.537-10.594-16.835-17.383-23.923 6.789-7.088 12.22-15.386 17.383-23.923 5.163 8.537 10.595 16.835 17.383 23.923-6.788 7.088-12.22 15.386-17.383 23.923Z" id="path6656-6"/><path d="M195.8 228.554c-2.152-3.557-4.415-7.014-7.244-9.968 2.829-2.953 5.092-6.41 7.243-9.968 2.152 3.557 4.415 7.015 7.243 9.968-2.828 2.954-5.091 6.411-7.243 9.968Z" id="path6658-8"/><path d="M50.288 47.99c-5.163-8.537-10.595-16.835-17.383-23.923C39.693 16.979 45.125 8.681 50.288.144 55.45 8.68 60.883 16.979 67.67 24.067c-6.788 7.088-12.22 15.386-17.383 23.923Z" id="path6660-7"/><path d="M50.288 245.782c-5.163-8.537-10.595-16.835-17.383-23.923 6.788-7.088 12.22-15.386 17.383-23.923 5.163 8.537 10.595 16.835 17.383 23.923-6.788 7.088-12.22 15.386-17.383 23.923Z" id="path6676-4"/><path d="M153.358 245.79c-5.163-8.538-10.594-16.836-17.383-23.924 6.789-7.088 12.22-15.386 17.383-23.923 5.163 8.537 10.595 16.835 17.383 23.923-6.788 7.088-12.22 15.386-17.383 23.923Z" id="path6678-8"/></g></g></g></svg>