<svg width="227" height="315" xmlns="http://www.w3.org/2000/svg"><g id="Page-1" stroke="none" stroke-width="1" fill="none" fill-rule="evenodd"><g id="Diamonds" transform="translate(11 25)" fill="#D40000"><g id="5" transform="translate(1 9)"><path d="M8.072 37.303C5.92 33.746 3.657 30.288.829 27.335c2.828-2.953 5.092-6.41 7.243-9.968 2.151 3.557 4.414 7.015 7.243 9.968-2.829 2.953-5.092 6.41-7.243 9.968Z" id="path6722-9"/><path d="M153.583 47.99c-5.163-8.537-10.595-16.835-17.383-23.923 6.788-7.088 12.22-15.386 17.383-23.923 5.163 8.537 10.594 16.835 17.383 23.923-6.789 7.088-12.22 15.386-17.383 23.923Z" id="path6724-6"/><path d="M196.023 228.554c-2.15-3.557-4.414-7.014-7.242-9.968 2.828-2.953 5.091-6.41 7.242-9.968 2.152 3.557 4.415 7.015 7.243 9.968-2.828 2.954-5.091 6.411-7.243 9.968Z" id="path6726-3"/><path d="M50.512 47.99C45.35 39.453 39.917 31.155 33.13 24.067 39.917 16.979 45.35 8.681 50.512.144c5.163 8.537 10.595 16.835 17.383 23.923-6.788 7.088-12.22 15.386-17.383 23.923Z" id="path6728-7"/><path d="M102.047 146.884c-5.163-8.538-10.595-16.835-17.383-23.924 6.788-7.088 12.22-15.385 17.383-23.923 5.163 8.538 10.595 16.835 17.383 23.923-6.788 7.089-12.22 15.386-17.383 23.924Z" id="path6736-0"/><path d="M50.512 245.782c-5.163-8.537-10.595-16.835-17.383-23.923 6.788-7.088 12.22-15.386 17.383-23.923 5.163 8.537 10.595 16.835 17.383 23.923-6.788 7.088-12.22 15.386-17.383 23.923Z" id="path6744-9"/><path d="M153.583 245.79c-5.163-8.538-10.595-16.836-17.383-23.924 6.788-7.088 12.22-15.386 17.383-23.923 5.163 8.537 10.594 16.835 17.383 23.923-6.789 7.088-12.22 15.386-17.383 23.923Z" id="path6746-2"/></g></g></g></svg>