<svg width="227" height="315" xmlns="http://www.w3.org/2000/svg"><g id="Page-1" stroke="none" stroke-width="1" fill="none" fill-rule="evenodd"><g id="Diamonds" transform="translate(11 25)" fill="#D40000"><g id="6" transform="translate(1 9)"><path d="M7.3 37.303c-2.15-3.557-4.414-7.015-7.243-9.968 2.829-2.953 5.092-6.41 7.243-9.968 2.152 3.557 4.415 7.015 7.243 9.968-2.828 2.953-5.091 6.41-7.243 9.968Z" id="path6790-5"/><path d="M152.811 47.99c-5.163-8.537-10.595-16.835-17.383-23.923 6.788-7.088 12.22-15.386 17.383-23.923 5.163 8.537 10.595 16.835 17.383 23.923-6.788 7.088-12.22 15.386-17.383 23.923Z" id="path6792-5"/><path d="M195.252 228.554c-2.151-3.557-4.415-7.014-7.243-9.968 2.828-2.953 5.092-6.41 7.243-9.968 2.151 3.557 4.414 7.015 7.243 9.968-2.829 2.954-5.092 6.411-7.243 9.968Z" id="path6794-1"/><path d="M49.74 47.99c-5.162-8.537-10.594-16.835-17.382-23.923C39.146 16.979 44.578 8.681 49.74.144c5.163 8.537 10.594 16.835 17.382 23.923-6.788 7.088-12.22 15.386-17.382 23.923Z" id="path6796-2"/><path d="M49.74 146.852c-5.162-8.538-10.594-16.836-17.382-23.924 6.788-7.088 12.22-15.386 17.383-23.923 5.163 8.537 10.594 16.835 17.382 23.923-6.788 7.088-12.22 15.386-17.382 23.924Z" id="path6806-6"/><path d="M152.811 146.867c-5.163-8.537-10.595-16.835-17.383-23.923 6.788-7.088 12.22-15.386 17.383-23.924 5.163 8.538 10.595 16.836 17.383 23.924-6.788 7.088-12.22 15.386-17.383 23.923Z" id="path6808-6"/><path d="M49.74 245.782c-5.162-8.537-10.594-16.835-17.382-23.923 6.788-7.088 12.22-15.386 17.383-23.923 5.163 8.537 10.594 16.835 17.382 23.923-6.788 7.088-12.22 15.386-17.382 23.923Z" id="path6812-0"/><path d="M152.811 245.79c-5.163-8.538-10.595-16.836-17.383-23.924 6.788-7.088 12.22-15.386 17.383-23.923 5.163 8.537 10.595 16.835 17.383 23.923-6.788 7.088-12.22 15.386-17.383 23.923Z" id="path6814-4"/></g></g></g></svg>