<svg width="227" height="315" xmlns="http://www.w3.org/2000/svg"><g id="Page-1" stroke="none" stroke-width="1" fill="none" fill-rule="evenodd"><g id="Diamonds" transform="translate(11 25)" fill="#D40000"><g id="7" transform="translate(1 9)"><path d="M7.525 37.303C5.373 33.746 3.11 30.288.282 27.335c2.828-2.953 5.091-6.41 7.243-9.968 2.15 3.557 4.414 7.015 7.242 9.968-2.828 2.953-5.091 6.41-7.242 9.968Z" id="path6858-4"/><path d="M153.035 47.99c-5.163-8.537-10.595-16.835-17.383-23.923 6.788-7.088 12.22-15.386 17.383-23.923 5.163 8.537 10.595 16.835 17.383 23.923-6.788 7.088-12.22 15.386-17.383 23.923Z" id="path6860-1"/><path d="M195.476 228.554c-2.151-3.557-4.415-7.014-7.243-9.968 2.828-2.953 5.092-6.41 7.243-9.968 2.151 3.557 4.415 7.015 7.243 9.968-2.828 2.954-5.092 6.411-7.243 9.968Z" id="path6862-0"/><path d="M49.965 47.99c-5.163-8.537-10.595-16.835-17.383-23.923C39.37 16.979 44.802 8.681 49.965.144 55.128 8.68 60.56 16.979 67.348 24.067c-6.788 7.088-12.22 15.386-17.383 23.923Z" id="path6864-5"/><path d="M101.5 97.42c-5.163-8.537-10.595-16.834-17.383-23.922 6.788-7.088 12.22-15.386 17.383-23.924 5.163 8.538 10.595 16.836 17.383 23.924-6.788 7.088-12.22 15.385-17.383 23.923Z" id="path6870-5"/><path d="M49.965 146.852c-5.163-8.538-10.595-16.836-17.383-23.924 6.788-7.088 12.22-15.386 17.383-23.923 5.163 8.537 10.595 16.835 17.383 23.923-6.788 7.088-12.22 15.386-17.383 23.924Z" id="path6874-1"/><path d="M153.035 146.867c-5.163-8.537-10.595-16.835-17.383-23.923 6.788-7.088 12.22-15.386 17.383-23.924 5.163 8.538 10.595 16.836 17.383 23.924-6.788 7.088-12.22 15.386-17.383 23.923Z" id="path6876-6"/><path d="M49.965 245.782c-5.163-8.537-10.595-16.835-17.383-23.923 6.788-7.088 12.22-15.386 17.383-23.923 5.163 8.537 10.595 16.835 17.383 23.923-6.788 7.088-12.22 15.386-17.383 23.923Z" id="path6880-5"/><path d="M153.035 245.79c-5.163-8.538-10.595-16.836-17.383-23.924 6.788-7.088 12.22-15.386 17.383-23.923 5.163 8.537 10.595 16.835 17.383 23.923-6.788 7.088-12.22 15.386-17.383 23.923Z" id="path6882-9"/></g></g></g></svg>