<svg width="227" height="315" xmlns="http://www.w3.org/2000/svg"><g id="Page-1" stroke="none" stroke-width="1" fill="none" fill-rule="evenodd"><g id="Diamonds" transform="translate(11 25)" fill="#D40000"><g id="8" transform="translate(1 9)"><path d="M7.749 37.303c-2.152-3.557-4.415-7.015-7.243-9.968 2.828-2.953 5.091-6.41 7.243-9.968 2.15 3.557 4.414 7.015 7.243 9.968-2.829 2.953-5.092 6.41-7.243 9.968Z" id="path6926-2"/><path d="M153.26 47.99c-5.164-8.537-10.596-16.835-17.384-23.923 6.788-7.088 12.22-15.386 17.383-23.923 5.163 8.537 10.595 16.835 17.383 23.923-6.788 7.088-12.22 15.386-17.383 23.923Z" id="path6928-9"/><path d="M195.7 228.554c-2.151-3.557-4.414-7.014-7.243-9.968 2.829-2.953 5.092-6.41 7.243-9.968 2.151 3.557 4.415 7.015 7.243 9.968-2.828 2.954-5.092 6.411-7.243 9.968Z" id="path6930-6"/><path d="M50.189 47.99c-5.163-8.537-10.595-16.835-17.383-23.923C39.594 16.979 45.026 8.681 50.189.144c5.163 8.537 10.595 16.835 17.383 23.923-6.788 7.088-12.22 15.386-17.383 23.923Z" id="path6932-2"/><path d="M101.724 97.42c-5.163-8.537-10.595-16.834-17.383-23.922 6.788-7.088 12.22-15.386 17.383-23.924 5.163 8.538 10.595 16.836 17.383 23.924-6.788 7.088-12.22 15.385-17.383 23.923Z" id="path6938-4"/><path d="M50.189 146.852c-5.163-8.538-10.595-16.836-17.383-23.924 6.788-7.088 12.22-15.386 17.383-23.923 5.163 8.537 10.595 16.835 17.383 23.923-6.788 7.088-12.22 15.386-17.383 23.924Z" id="path6942-4"/><path d="M153.26 146.867c-5.164-8.537-10.596-16.835-17.384-23.923 6.788-7.088 12.22-15.386 17.383-23.924 5.163 8.538 10.595 16.836 17.383 23.924-6.788 7.088-12.22 15.386-17.383 23.923Z" id="path6944-9"/><path d="M50.189 245.782c-5.163-8.537-10.595-16.835-17.383-23.923 6.788-7.088 12.22-15.386 17.383-23.923 5.163 8.537 10.595 16.835 17.383 23.923-6.788 7.088-12.22 15.386-17.383 23.923Z" id="path6948-4"/><path d="M153.26 245.79c-5.164-8.538-10.596-16.836-17.384-23.924 6.788-7.088 12.22-15.386 17.383-23.923 5.163 8.537 10.595 16.835 17.383 23.923-6.788 7.088-12.22 15.386-17.383 23.923Z" id="path6950-4"/><path d="M101.724 196.317c-5.163-8.538-10.595-16.835-17.383-23.923 6.788-7.088 12.22-15.386 17.383-23.924 5.163 8.538 10.595 16.836 17.383 23.924-6.788 7.088-12.22 15.385-17.383 23.923Z" id="path6956-4"/></g></g></g></svg>