<svg width="227" height="315" xmlns="http://www.w3.org/2000/svg"><g id="Page-1" stroke="none" stroke-width="1" fill="none" fill-rule="evenodd"><g id="Diamonds" transform="translate(11 25)" fill="#D40000"><g id="9" transform="translate(1 9)"><path d="M7.973 37.303C5.82 33.746 3.558 30.288.73 27.335c2.828-2.953 5.091-6.41 7.243-9.968 2.15 3.557 4.414 7.015 7.243 9.968-2.829 2.953-5.092 6.41-7.243 9.968Z" id="path6994-9"/><path d="M153.483 47.99c-5.163-8.537-10.595-16.835-17.383-23.923 6.788-7.088 12.22-15.386 17.383-23.923 5.163 8.537 10.595 16.835 17.383 23.923-6.788 7.088-12.22 15.386-17.383 23.923Z" id="path6996-5"/><path d="M195.924 228.554c-2.151-3.557-4.414-7.014-7.243-9.968 2.829-2.953 5.092-6.41 7.243-9.968 2.151 3.557 4.415 7.015 7.243 9.968-2.828 2.954-5.092 6.411-7.243 9.968Z" id="path6998-7"/><path d="M50.413 47.99C45.25 39.453 39.818 31.155 33.03 24.067 39.818 16.979 45.25 8.681 50.413.144c5.163 8.537 10.595 16.835 17.383 23.923-6.788 7.088-12.22 15.386-17.383 23.923Z" id="path7000-7"/><path d="M153.483 113.926c-5.163-8.537-10.595-16.835-17.383-23.923 6.788-7.088 12.22-15.386 17.383-23.923 5.163 8.537 10.595 16.835 17.383 23.923-6.788 7.088-12.22 15.386-17.383 23.923Z" id="path7002-0"/><path d="M50.413 113.926C45.25 105.39 39.818 97.091 33.03 90.003c6.788-7.088 12.22-15.386 17.383-23.923 5.163 8.537 10.595 16.835 17.383 23.923-6.788 7.088-12.22 15.386-17.383 23.923Z" id="path7004-0"/><path d="M101.948 146.884c-5.163-8.538-10.595-16.835-17.383-23.924 6.788-7.088 12.22-15.385 17.383-23.923 5.163 8.538 10.595 16.835 17.383 23.923-6.788 7.089-12.22 15.386-17.383 23.924Z" id="path7008-2"/><path d="M50.413 245.782c-5.163-8.537-10.595-16.835-17.383-23.923 6.788-7.088 12.22-15.386 17.383-23.923 5.163 8.537 10.595 16.835 17.383 23.923-6.788 7.088-12.22 15.386-17.383 23.923Z" id="path7016-2"/><path d="M153.483 245.79c-5.163-8.538-10.595-16.836-17.383-23.924 6.788-7.088 12.22-15.386 17.383-23.923 5.163 8.537 10.595 16.835 17.383 23.923-6.788 7.088-12.22 15.386-17.383 23.923Z" id="path7018-0"/><path d="M153.483 179.847c-5.163-8.538-10.595-16.835-17.383-23.923 6.788-7.088 12.22-15.386 17.383-23.924 5.163 8.538 10.595 16.836 17.383 23.924-6.788 7.088-12.22 15.385-17.383 23.923Z" id="path7020-7"/><path d="M50.413 179.815c-5.163-8.538-10.595-16.835-17.383-23.923 6.788-7.089 12.22-15.386 17.383-23.924 5.163 8.538 10.595 16.835 17.383 23.924-6.788 7.088-12.22 15.385-17.383 23.923Z" id="path7022-4"/></g></g></g></svg>